<svg width="232" height="289" viewBox="0 0 232 289" fill="none" xmlns="http://www.w3.org/2000/svg">
<rect width="232" height="289" rx="8" fill="#FFF4EF"/>
<path d="M214.543 182.56C214.944 181.505 214.549 180.203 213.63 179.548C212.71 178.893 211.351 178.946 210.485 179.671C211.203 177.969 210.473 175.789 208.877 174.862C207.28 173.935 205.025 174.382 203.903 175.848C202.459 172.025 197.964 169.642 193.989 170.591C190.014 171.54 187.082 175.699 187.521 179.762C186.494 178.366 184.322 177.988 182.884 178.954C181.446 179.921 180.977 182.075 181.881 183.552L177.297 184.769H217.649L214.543 182.56Z" fill="#FFF8F5"/>
<path d="M49.9492 181.702C50.8548 179.088 50.1009 175.978 48.099 174.07C46.0976 172.161 42.955 171.555 40.3871 172.583C37.8193 173.611 35.9635 176.219 35.8327 178.982C35.707 178.031 34.7467 177.273 33.7935 177.371C32.8403 177.47 32.0547 178.408 32.1257 179.363C31.6236 177.186 29.1829 175.663 27.0063 176.168C24.8297 176.674 23.311 179.117 23.8208 181.294L16.3281 182.763H55.6724L49.9492 181.702Z" fill="#FFF8F5"/>
<path d="M65.1403 144.907C65.5413 143.852 65.147 142.55 64.2275 141.895C63.308 141.24 61.9482 141.293 61.0829 142.017C61.8006 140.316 61.0711 138.136 59.4748 137.209C57.878 136.281 55.6233 136.728 54.501 138.195C53.0569 134.372 48.5612 131.988 44.5865 132.938C40.6119 133.887 37.6793 138.045 38.1186 142.108C37.0918 140.713 34.9198 140.335 33.4819 141.301C32.0439 142.268 31.5745 144.422 32.4791 145.9L27.8945 147.116H68.2471L65.1403 144.907Z" fill="#FFF8F5"/>
<path d="M175.09 148.307C175.995 145.694 175.241 142.583 173.24 140.674C171.238 138.766 168.096 138.16 165.528 139.188C162.96 140.216 161.104 142.824 160.973 145.587C160.848 144.637 159.887 143.878 158.934 143.976C157.981 144.075 157.195 145.013 157.266 145.968C156.764 143.79 154.323 142.268 152.147 142.773C149.97 143.279 148.452 145.722 148.961 147.898L141.469 149.368H180.812L175.09 148.307Z" fill="#FFF8F5"/>
<path d="M13 288.255H218.056C218.056 288.255 238.926 233.154 223.025 228.515C207.125 223.878 201.824 262.636 201.824 262.636C201.824 262.636 216.129 188.612 184.96 193.656C153.79 198.701 179.102 261.642 179.102 261.642C179.102 261.642 160.527 185.567 111.94 196.109C63.3534 206.651 70.8185 248.287 70.8185 248.287C70.8185 248.287 50.7653 191.673 24.9261 203.469C-0.913155 215.264 56.4206 254.217 56.4206 254.217C56.4206 254.217 25.2571 243.091 21.2819 256.342C17.3067 269.592 51.4927 274.143 51.4927 274.143C51.4927 274.143 36.8511 274.12 13 288.255Z" fill="#FFD8C9"/>
<path d="M160.071 288.255H81.927C79.7903 288.255 78.0586 286.522 78.0586 284.386V127.869C78.0586 125.732 79.7908 124 81.927 124H160.071C162.208 124 163.94 125.732 163.94 127.869V284.386C163.94 286.522 162.208 288.255 160.071 288.255Z" fill="#0F4C75"/>
<path d="M156.986 277.337H85.0159C83.2403 277.337 81.8008 275.897 81.8008 274.122V131.522C81.8008 129.747 83.2403 128.307 85.0159 128.307H156.986C158.762 128.307 160.201 129.747 160.201 131.522V274.122C160.201 275.897 158.762 277.337 156.986 277.337Z" fill="white"/>
<path d="M117.35 146.615C118.002 145.619 117.603 144.097 116.546 143.549C115.489 143.001 114.016 143.553 113.578 144.66C112.8 141.511 109.836 139.035 106.6 138.828C103.363 138.621 100.108 140.701 98.9359 143.725C98.3214 142.192 95.7882 142.011 94.9612 143.44C94.4908 141.554 92.0501 140.47 90.3347 141.385C88.6194 142.3 88.1612 144.931 89.4653 146.372L85.0273 147.944H121.825L117.35 146.615Z" fill="#DEFCFF"/>
<path d="M81.8008 211.35V274.383C81.8008 276.014 83.1233 277.337 84.7543 277.337H157.247C158.879 277.337 160.201 276.014 160.201 274.383V218.974C149.453 203.555 133.71 190.89 111.941 195.613C97.4962 198.747 88.0062 204.63 81.8008 211.35Z" fill="#FFD8C9"/>
<path d="M103.439 259.83H103.978C104.017 260.179 104.357 260.408 104.82 260.408C105.265 260.408 105.585 260.179 105.585 259.864C105.585 259.59 105.392 259.427 104.935 259.314L104.479 259.205C103.832 259.048 103.531 258.746 103.531 258.255C103.531 257.647 104.061 257.229 104.813 257.229C105.558 257.229 106.068 257.647 106.085 258.255H105.553C105.521 257.903 105.231 257.691 104.806 257.691C104.381 257.691 104.09 257.906 104.09 258.218C104.09 258.467 104.276 258.614 104.73 258.726L105.118 258.821C105.841 258.992 106.141 259.283 106.141 259.798C106.141 260.457 105.616 260.87 104.781 260.87C104 260.87 103.473 260.467 103.439 259.83ZM108.119 260.87C107.13 260.87 106.505 260.171 106.505 259.048C106.505 257.933 107.135 257.229 108.119 257.229C108.917 257.229 109.52 257.72 109.613 258.455H109.071C108.973 258.003 108.597 257.708 108.119 257.708C107.479 257.708 107.064 258.233 107.064 259.048C107.064 259.871 107.474 260.391 108.121 260.391C108.612 260.391 108.961 260.14 109.071 259.715H109.615C109.481 260.442 108.929 260.87 108.119 260.87ZM112.36 260.811L112.037 259.859H110.694L110.372 260.811H109.803L111.075 257.288H111.666L112.938 260.811H112.36ZM111.359 257.874L110.834 259.419H111.898L111.373 257.874H111.359ZM113.859 260.811H113.326V257.288H113.822L115.648 259.886H115.668V257.288H116.2V260.811H115.707L113.881 258.216H113.859V260.811ZM119.391 260.87C118.375 260.87 117.74 260.174 117.74 259.051C117.74 257.933 118.375 257.229 119.391 257.229C120.404 257.229 121.041 257.933 121.041 259.051C121.041 259.71 120.821 260.228 120.428 260.533L120.887 261.185H120.316L120.016 260.765C119.828 260.835 119.618 260.87 119.391 260.87ZM119.391 260.391C119.508 260.391 119.618 260.374 119.72 260.342L119.3 259.749H119.855L120.104 260.086C120.343 259.864 120.48 259.505 120.48 259.051C120.48 258.228 120.06 257.708 119.391 257.708C118.722 257.708 118.299 258.228 118.299 259.051C118.299 259.871 118.722 260.391 119.391 260.391ZM122.11 257.747V259.014H122.877C123.299 259.014 123.541 258.782 123.541 258.379C123.541 257.986 123.285 257.747 122.862 257.747H122.11ZM122.11 259.456V260.811H121.564V257.288H122.928C123.653 257.288 124.105 257.708 124.105 258.365C124.105 258.841 123.851 259.227 123.422 259.371L124.21 260.811H123.58L122.862 259.456H122.11ZM127.137 260.87C126.149 260.87 125.524 260.171 125.524 259.048C125.524 257.933 126.153 257.229 127.137 257.229C127.936 257.229 128.539 257.72 128.631 258.455H128.089C127.992 258.003 127.616 257.708 127.137 257.708C126.498 257.708 126.083 258.233 126.083 259.048C126.083 259.871 126.493 260.391 127.14 260.391C127.631 260.391 127.98 260.14 128.089 259.715H128.634C128.5 260.442 127.948 260.87 127.137 260.87ZM130.651 257.229C131.664 257.229 132.301 257.93 132.301 259.051C132.301 260.171 131.664 260.87 130.651 260.87C129.635 260.87 129 260.171 129 259.051C129 257.93 129.635 257.229 130.651 257.229ZM130.651 257.71C129.982 257.71 129.559 258.228 129.559 259.051C129.559 259.871 129.982 260.389 130.651 260.389C131.319 260.389 131.739 259.871 131.739 259.051C131.739 258.228 131.319 257.71 130.651 257.71ZM132.823 257.288H134.066C135.113 257.288 135.734 257.933 135.734 259.043C135.734 260.157 135.116 260.811 134.066 260.811H132.823V257.288ZM133.37 257.759V260.337H134.015C134.762 260.337 135.174 259.881 135.174 259.048C135.174 258.218 134.759 257.759 134.015 257.759H133.37ZM138.492 260.337V260.811H136.256V257.288H138.492V257.759H136.803V258.79H138.402V259.244H136.803V260.337H138.492Z" fill="#263238"/>
<path d="M99.749 155.004H100.396C100.42 155.213 100.524 155.381 100.71 155.508C100.896 155.635 101.128 155.698 101.407 155.698C101.673 155.698 101.892 155.637 102.063 155.514C102.237 155.391 102.324 155.234 102.324 155.045C102.324 154.881 102.263 154.747 102.14 154.644C102.017 154.538 101.818 154.452 101.545 154.386L100.997 154.254C100.608 154.16 100.321 154.021 100.136 153.835C99.9521 153.649 99.8604 153.409 99.8604 153.114C99.8604 152.751 100.003 152.455 100.288 152.227C100.575 151.998 100.945 151.884 101.398 151.884C101.844 151.884 102.207 151.998 102.488 152.227C102.77 152.453 102.915 152.749 102.925 153.114H102.286C102.267 152.905 102.176 152.74 102.014 152.619C101.854 152.498 101.646 152.438 101.39 152.438C101.136 152.438 100.929 152.496 100.769 152.613C100.61 152.73 100.531 152.883 100.531 153.07C100.531 153.219 100.591 153.341 100.71 153.437C100.829 153.53 101.025 153.611 101.299 153.68L101.765 153.794C102.198 153.896 102.511 154.039 102.702 154.225C102.896 154.408 102.992 154.655 102.992 154.966C102.992 155.36 102.846 155.674 102.553 155.906C102.26 156.137 101.862 156.252 101.36 156.252C100.89 156.252 100.508 156.14 100.215 155.915C99.9238 155.688 99.7686 155.385 99.749 155.004ZM106.15 154.16H105.547C105.514 153.986 105.434 153.845 105.307 153.735C105.182 153.626 105.021 153.571 104.823 153.571C104.577 153.571 104.38 153.668 104.231 153.861C104.085 154.053 104.012 154.312 104.012 154.641C104.012 154.975 104.085 155.236 104.231 155.426C104.38 155.615 104.579 155.71 104.829 155.71C105.022 155.71 105.181 155.66 105.304 155.561C105.429 155.459 105.51 155.318 105.547 155.139H106.156C106.123 155.469 105.984 155.735 105.74 155.938C105.498 156.14 105.192 156.24 104.823 156.24C104.38 156.24 104.026 156.098 103.763 155.812C103.499 155.525 103.367 155.135 103.367 154.641C103.367 154.152 103.499 153.765 103.763 153.478C104.026 153.188 104.378 153.044 104.817 153.044C105.2 153.044 105.511 153.151 105.749 153.366C105.987 153.579 106.121 153.844 106.15 154.16ZM107.683 155.733C107.905 155.733 108.092 155.666 108.242 155.531C108.395 155.395 108.471 155.227 108.471 155.027V154.784L107.712 154.831C107.522 154.845 107.376 154.892 107.272 154.972C107.171 155.05 107.12 155.155 107.12 155.288C107.12 155.423 107.171 155.531 107.272 155.613C107.376 155.693 107.513 155.733 107.683 155.733ZM107.507 156.234C107.204 156.234 106.957 156.148 106.766 155.977C106.576 155.805 106.481 155.581 106.481 155.306C106.481 155.036 106.581 154.822 106.78 154.664C106.979 154.504 107.262 154.414 107.627 154.395L108.471 154.345V154.107C108.471 153.936 108.416 153.802 108.307 153.706C108.197 153.608 108.046 153.56 107.853 153.56C107.673 153.56 107.526 153.6 107.413 153.68C107.302 153.76 107.231 153.87 107.202 154.011H106.604C106.622 153.726 106.745 153.493 106.974 153.313C107.202 153.134 107.503 153.044 107.876 153.044C108.249 153.044 108.546 153.136 108.767 153.319C108.989 153.503 109.101 153.749 109.101 154.058V156.182H108.494V155.675H108.479C108.392 155.845 108.258 155.98 108.078 156.082C107.9 156.184 107.71 156.234 107.507 156.234ZM109.716 156.182V153.1H110.319V153.615H110.334C110.42 153.436 110.545 153.296 110.709 153.196C110.873 153.097 111.071 153.047 111.304 153.047C111.642 153.047 111.904 153.148 112.092 153.352C112.279 153.553 112.373 153.831 112.373 154.187V156.182H111.737V154.31C111.737 154.075 111.682 153.897 111.57 153.776C111.461 153.653 111.298 153.592 111.081 153.592C110.858 153.592 110.681 153.664 110.548 153.809C110.415 153.953 110.349 154.146 110.349 154.386V156.182H109.716ZM117.257 156.182L116.891 155.783C116.719 155.934 116.516 156.05 116.281 156.132C116.049 156.214 115.807 156.255 115.555 156.255C115.125 156.255 114.777 156.146 114.512 155.927C114.248 155.706 114.116 155.418 114.116 155.062C114.116 154.818 114.183 154.603 114.315 154.415C114.448 154.226 114.652 154.057 114.928 153.908C114.945 153.898 114.968 153.887 114.995 153.873C115.024 153.857 115.048 153.846 115.065 153.838C115.083 153.828 115.095 153.822 115.101 153.82C114.909 153.619 114.773 153.444 114.693 153.296C114.615 153.147 114.576 152.996 114.576 152.842C114.576 152.568 114.682 152.342 114.893 152.162C115.105 151.98 115.371 151.89 115.689 151.89C116.014 151.89 116.279 151.979 116.486 152.156C116.693 152.334 116.797 152.562 116.797 152.842C116.797 153.057 116.727 153.25 116.586 153.422C116.447 153.594 116.222 153.763 115.909 153.929L116.87 154.963C116.991 154.738 117.052 154.403 117.052 153.958V153.797H117.62V153.976C117.62 154.563 117.503 155.032 117.269 155.382L118.027 156.182H117.257ZM115.288 154.251C115.093 154.372 114.952 154.492 114.866 154.611C114.78 154.73 114.737 154.865 114.737 155.016C114.737 155.234 114.818 155.411 114.98 155.546C115.143 155.681 115.354 155.748 115.616 155.748C115.792 155.748 115.963 155.716 116.129 155.651C116.295 155.587 116.429 155.501 116.53 155.394L115.42 154.181C115.385 154.198 115.341 154.222 115.288 154.251ZM115.587 153.598C115.817 153.479 115.981 153.364 116.079 153.255C116.177 153.144 116.226 153.017 116.226 152.874C116.226 152.722 116.176 152.598 116.076 152.502C115.979 152.406 115.851 152.358 115.692 152.358C115.538 152.358 115.41 152.407 115.309 152.505C115.209 152.603 115.159 152.727 115.159 152.877C115.159 152.986 115.191 153.095 115.256 153.202C115.32 153.31 115.431 153.441 115.587 153.598ZM120.239 152.505V154.025H121.159C121.413 154.025 121.609 153.959 121.748 153.826C121.887 153.693 121.956 153.506 121.956 153.264C121.956 153.027 121.884 152.842 121.739 152.707C121.595 152.572 121.396 152.505 121.142 152.505H120.239ZM120.239 154.556V156.182H119.583V151.954H121.221C121.654 151.954 121.998 152.071 122.252 152.306C122.506 152.538 122.633 152.852 122.633 153.246C122.633 153.533 122.56 153.785 122.413 154.002C122.269 154.217 122.068 154.367 121.812 154.453L122.759 156.182H122.003L121.142 154.556H120.239ZM125.006 153.776C124.867 153.628 124.688 153.554 124.47 153.554C124.251 153.554 124.069 153.629 123.925 153.779C123.78 153.928 123.7 154.12 123.685 154.356H125.226C125.218 154.118 125.145 153.925 125.006 153.776ZM125.223 155.276H125.823C125.778 155.56 125.634 155.791 125.39 155.971C125.146 156.15 124.848 156.24 124.496 156.24C124.045 156.24 123.689 156.099 123.43 155.815C123.172 155.53 123.043 155.144 123.043 154.655C123.043 154.171 123.172 153.781 123.43 153.486C123.689 153.191 124.036 153.044 124.47 153.044C124.896 153.044 125.233 153.184 125.483 153.463C125.733 153.74 125.858 154.113 125.858 154.582V154.799H123.682V154.837C123.682 155.106 123.757 155.322 123.907 155.484C124.058 155.646 124.259 155.728 124.511 155.728C124.688 155.728 124.841 155.687 124.968 155.604C125.095 155.522 125.18 155.413 125.223 155.276ZM128.964 153.1L127.859 156.182H127.18L126.069 153.1H126.743L127.517 155.563H127.528L128.302 153.1H128.964ZM129.348 156.182V153.1H129.98V156.182H129.348ZM129.925 152.543C129.853 152.613 129.766 152.648 129.664 152.648C129.562 152.648 129.476 152.613 129.403 152.543C129.333 152.473 129.298 152.388 129.298 152.288C129.298 152.187 129.333 152.101 129.403 152.03C129.476 151.96 129.562 151.925 129.664 151.925C129.768 151.925 129.854 151.96 129.925 152.03C129.997 152.101 130.033 152.187 130.033 152.288C130.033 152.388 129.997 152.473 129.925 152.543ZM132.453 153.776C132.314 153.628 132.136 153.554 131.917 153.554C131.698 153.554 131.517 153.629 131.372 153.779C131.228 153.928 131.147 154.12 131.132 154.356H132.673C132.665 154.118 132.592 153.925 132.453 153.776ZM132.67 155.276H133.271C133.226 155.56 133.081 155.791 132.837 155.971C132.593 156.15 132.295 156.24 131.943 156.24C131.492 156.24 131.137 156.099 130.877 155.815C130.619 155.53 130.49 155.144 130.49 154.655C130.49 154.171 130.619 153.781 130.877 153.486C131.137 153.191 131.483 153.044 131.917 153.044C132.343 153.044 132.681 153.184 132.931 153.463C133.181 153.74 133.306 154.113 133.306 154.582V154.799H131.129V154.837C131.129 155.106 131.204 155.322 131.354 155.484C131.505 155.646 131.706 155.728 131.958 155.728C132.136 155.728 132.288 155.687 132.415 155.604C132.542 155.522 132.627 155.413 132.67 155.276ZM137.864 153.1L137.021 156.182H136.361L135.714 153.873H135.699L135.058 156.182H134.404L133.558 153.1H134.19L134.753 155.525H134.765L135.406 153.1H136.016L136.66 155.525H136.675L137.237 153.1H137.864Z" fill="#263238"/>
<path d="M117.573 268.264H117.026V266.704H115.217V268.264H114.67V264.741H115.217V266.23H117.026V264.741H117.573V268.264ZM120.457 267.791V268.264H118.22V264.741H120.457V265.212H118.767V266.243H120.366V266.697H118.767V267.791H120.457ZM121.565 265.2V266.467H122.332C122.754 266.467 122.996 266.235 122.996 265.833C122.996 265.439 122.739 265.2 122.317 265.2H121.565ZM121.565 266.909V268.264H121.018V264.741H122.383C123.108 264.741 123.56 265.161 123.56 265.818C123.56 266.294 123.306 266.68 122.876 266.824L123.665 268.264H123.035L122.317 266.909H121.565ZM126.326 267.791V268.264H124.089V264.741H126.326V265.212H124.636V266.243H126.235V266.697H124.636V267.791H126.326Z" fill="#263238"/>
<path d="M157.248 128.307H84.7543C83.1228 128.307 81.8008 129.63 81.8008 131.261V135.098H160.201V131.261C160.201 129.629 158.879 128.307 157.248 128.307Z" fill="#0F4C75"/>
<path d="M142.207 135.098H99.7948C98.3022 135.098 97.0149 134.05 96.712 132.589L95.8242 128.307H146.177L145.289 132.589C144.987 134.05 143.699 135.098 142.207 135.098Z" fill="#0F4C75"/>
<path d="M112.379 180.859H96.5938V165.074H112.379V180.859ZM98.7964 178.656H110.176V167.277H98.7964V178.656Z" fill="#263238"/>
<path d="M107.6 169.846H101.359V176.087H107.6V169.846Z" fill="#263238"/>
<path d="M112.379 213.897H96.5938V198.112H112.379V213.897ZM98.7964 211.694H110.176V200.314H98.7964V211.694Z" fill="#263238"/>
<path d="M107.6 202.884H101.359V209.124H107.6V202.884Z" fill="#263238"/>
<path d="M145.406 180.859H129.621V165.074H145.406V180.859ZM131.824 178.656H143.203V167.277H131.824V178.656Z" fill="#263238"/>
<path d="M140.737 169.747H134.297V176.187H140.737V169.747Z" fill="#263238"/>
<path d="M117.328 166.175H114.875V168.628H117.328V166.175Z" fill="#263238"/>
<path d="M119.781 168.629H117.328V171.082H119.781V168.629Z" fill="#263238"/>
<path d="M122.23 168.629H119.777V171.082H122.23V168.629Z" fill="#263238"/>
<path d="M119.781 171.082H117.328V173.535H119.781V171.082Z" fill="#263238"/>
<path d="M117.328 175.988H114.875V178.441H117.328V175.988Z" fill="#263238"/>
<path d="M119.781 175.988H117.328V178.441H119.781V175.988Z" fill="#263238"/>
<path d="M122.23 175.988H119.777V178.441H122.23V175.988Z" fill="#263238"/>
<path d="M124.687 175.988H122.234V178.441H124.687V175.988Z" fill="#263238"/>
<path d="M124.687 173.535H122.234V175.988H124.687V173.535Z" fill="#263238"/>
<path d="M127.137 171.082H124.684V173.535H127.137V171.082Z" fill="#263238"/>
<path d="M124.687 166.175H122.234V168.628H124.687V166.175Z" fill="#263238"/>
<path d="M127.137 168.629H124.684V171.082H127.137V168.629Z" fill="#263238"/>
<path d="M127.137 175.988H124.684V178.441H127.137V175.988Z" fill="#263238"/>
<path d="M127.137 178.441H124.684V180.894H127.137V178.441Z" fill="#263238"/>
<path d="M114.871 183.348H112.418V185.801H114.871V183.348Z" fill="#263238"/>
<path d="M112.422 183.348H109.969V185.801H112.422V183.348Z" fill="#263238"/>
<path d="M109.965 183.348H107.512V185.801H109.965V183.348Z" fill="#263238"/>
<path d="M105.062 183.348H102.609V185.801H105.062V183.348Z" fill="#263238"/>
<path d="M100.152 183.348H97.6992V185.801H100.152V183.348Z" fill="#263238"/>
<path d="M105.062 190.707H102.609V193.16H105.062V190.707Z" fill="#263238"/>
<path d="M105.062 193.16H102.609V195.613H105.062V193.16Z" fill="#263238"/>
<path d="M107.508 193.16H105.055V195.613H107.508V193.16Z" fill="#263238"/>
<path d="M109.965 193.16H107.512V195.613H109.965V193.16Z" fill="#263238"/>
<path d="M112.422 193.16H109.969V195.613H112.422V193.16Z" fill="#263238"/>
<path d="M112.422 190.707H109.969V193.16H112.422V190.707Z" fill="#263238"/>
<path d="M112.422 188.254H109.969V190.707H112.422V188.254Z" fill="#263238"/>
<path d="M114.871 188.254H112.418V190.707H114.871V188.254Z" fill="#263238"/>
<path d="M117.328 193.16H114.875V195.613H117.328V193.16Z" fill="#263238"/>
<path d="M117.328 190.707H114.875V193.16H117.328V190.707Z" fill="#263238"/>
<path d="M119.781 190.707H117.328V193.16H119.781V190.707Z" fill="#263238"/>
<path d="M122.23 190.707H119.777V193.16H122.23V190.707Z" fill="#263238"/>
<path d="M124.687 190.707H122.234V193.16H124.687V190.707Z" fill="#263238"/>
<path d="M127.137 193.16H124.684V195.613H127.137V193.16Z" fill="#263238"/>
<path d="M127.137 195.613H124.684V198.066H127.137V195.613Z" fill="#263238"/>
<path d="M129.59 198.066H127.137V200.519H129.59V198.066Z" fill="#263238"/>
<path d="M114.871 193.16H112.418V195.613H114.871V193.16Z" fill="#263238"/>
<path d="M102.609 190.707H100.156V193.16H102.609V190.707Z" fill="#263238"/>
<path d="M107.508 185.801H105.055V188.254H107.508V185.801Z" fill="#263238"/>
<path d="M107.508 188.254H105.055V190.707H107.508V188.254Z" fill="#263238"/>
<path d="M105.062 188.254H102.609V190.707H105.062V188.254Z" fill="#263238"/>
<path d="M102.609 188.254H100.156V190.707H102.609V188.254Z" fill="#263238"/>
<path d="M102.609 185.801H100.156V188.254H102.609V185.801Z" fill="#263238"/>
<path d="M100.152 188.254H97.6992V190.707H100.152V188.254Z" fill="#263238"/>
<path d="M117.328 173.535H114.875V175.988H117.328V173.535Z" fill="#263238"/>
<path d="M117.328 178.441H114.875V180.894H117.328V178.441Z" fill="#263238"/>
<path d="M117.328 180.894H114.875V183.347H117.328V180.894Z" fill="#263238"/>
<path d="M117.328 183.348H114.875V185.801H117.328V183.348Z" fill="#263238"/>
<path d="M117.328 185.801H114.875V188.254H117.328V185.801Z" fill="#263238"/>
<path d="M119.781 185.801H117.328V188.254H119.781V185.801Z" fill="#263238"/>
<path d="M122.23 185.801H119.777V188.254H122.23V185.801Z" fill="#263238"/>
<path d="M124.687 185.801H122.234V188.254H124.687V185.801Z" fill="#263238"/>
<path d="M122.23 183.348H119.777V185.801H122.23V183.348Z" fill="#263238"/>
<path d="M127.137 183.348H124.684V185.801H127.137V183.348Z" fill="#263238"/>
<path d="M129.59 183.348H127.137V185.801H129.59V183.348Z" fill="#263238"/>
<path d="M132.047 183.348H129.594V185.801H132.047V183.348Z" fill="#263238"/>
<path d="M134.496 183.348H132.043V185.801H134.496V183.348Z" fill="#263238"/>
<path d="M136.945 183.348H134.492V185.801H136.945V183.348Z" fill="#263238"/>
<path d="M139.406 183.348H136.953V185.801H139.406V183.348Z" fill="#263238"/>
<path d="M139.406 185.801H136.953V188.254H139.406V185.801Z" fill="#263238"/>
<path d="M132.047 188.254H129.594V190.707H132.047V188.254Z" fill="#263238"/>
<path d="M129.59 188.254H127.137V190.707H129.59V188.254Z" fill="#263238"/>
<path d="M129.59 185.801H127.137V188.254H129.59V185.801Z" fill="#263238"/>
<path d="M127.137 188.254H124.684V190.707H127.137V188.254Z" fill="#263238"/>
<path d="M136.945 190.707H134.492V193.16H136.945V190.707Z" fill="#263238"/>
<path d="M136.945 193.16H134.492V195.613H136.945V193.16Z" fill="#263238"/>
<path d="M139.406 193.16H136.953V195.613H139.406V193.16Z" fill="#263238"/>
<path d="M141.855 193.16H139.402V195.613H141.855V193.16Z" fill="#263238"/>
<path d="M141.855 195.613H139.402V198.066H141.855V195.613Z" fill="#263238"/>
<path d="M141.855 198.066H139.402V200.519H141.855V198.066Z" fill="#263238"/>
<path d="M136.945 200.519H134.492V202.972H136.945V200.519Z" fill="#263238"/>
<path d="M136.945 207.898H134.492V210.351H136.945V207.898Z" fill="#263238"/>
<path d="M144.308 200.519H141.855V202.972H144.308V200.519Z" fill="#263238"/>
<path d="M144.308 210.332H141.855V212.785H144.308V210.332Z" fill="#263238"/>
<path d="M134.496 210.332H132.043V212.785H134.496V210.332Z" fill="#263238"/>
<path d="M132.047 210.332H129.594V212.785H132.047V210.332Z" fill="#263238"/>
<path d="M129.59 210.332H127.137V212.785H129.59V210.332Z" fill="#263238"/>
<path d="M127.137 210.332H124.684V212.785H127.137V210.332Z" fill="#263238"/>
<path d="M129.59 207.879H127.137V210.332H129.59V207.879Z" fill="#263238"/>
<path d="M127.137 207.879H124.684V210.332H127.137V207.879Z" fill="#263238"/>
<path d="M129.59 205.426H127.137V207.879H129.59V205.426Z" fill="#263238"/>
<path d="M129.59 202.973H127.137V205.426H129.59V202.973Z" fill="#263238"/>
<path d="M127.137 200.519H124.684V202.972H127.137V200.519Z" fill="#263238"/>
<path d="M124.687 200.519H122.234V202.972H124.687V200.519Z" fill="#263238"/>
<path d="M122.23 200.519H119.777V202.972H122.23V200.519Z" fill="#263238"/>
<path d="M119.781 200.519H117.328V202.972H119.781V200.519Z" fill="#263238"/>
<path d="M124.687 202.973H122.234V205.426H124.687V202.973Z" fill="#263238"/>
<path d="M116.777 204.063H114.324V206.516H116.777V204.063Z" fill="#263238"/>
<path d="M117.328 207.879H114.875V210.332H117.328V207.879Z" fill="#263238"/>
<path d="M117.328 198.066H114.875V200.519H117.328V198.066Z" fill="#263238"/>
<path d="M119.781 202.973H117.328V205.426H119.781V202.973Z" fill="#263238"/>
<path d="M122.23 205.426H119.777V207.879H122.23V205.426Z" fill="#263238"/>
<path d="M119.781 205.426H117.328V207.879H119.781V205.426Z" fill="#263238"/>
<path d="M122.23 207.879H119.777V210.332H122.23V207.879Z" fill="#263238"/>
<path d="M119.781 210.332H117.328V212.785H119.781V210.332Z" fill="#263238"/>
<path d="M124.687 198.066H122.234V200.519H124.687V198.066Z" fill="#263238"/>
<path d="M122.23 198.066H119.777V200.519H122.23V198.066Z" fill="#263238"/>
<path d="M116.508 195.885H114.055V198.338H116.508V195.885Z" fill="#263238"/>
<path d="M122.23 195.613H119.777V198.066H122.23V195.613Z" fill="#263238"/>
<path d="M122.23 193.16H119.777V195.613H122.23V193.16Z" fill="#263238"/>
<path d="M119.781 195.613H117.328V198.066H119.781V195.613Z" fill="#263238"/>
<path d="M117.328 200.519H114.875V202.972H117.328V200.519Z" fill="#263238"/>
<path d="M127.137 205.426H124.684V207.879H127.137V205.426Z" fill="#263238"/>
<path d="M124.687 210.332H122.234V212.785H124.687V210.332Z" fill="#263238"/>
<path d="M132.047 200.519H129.594V202.972H132.047V200.519Z" fill="#263238"/>
<path d="M134.496 202.973H132.043V205.426H134.496V202.973Z" fill="#263238"/>
<path d="M141.855 202.973H139.402V205.426H141.855V202.973Z" fill="#263238"/>
<path d="M141.855 205.426H139.402V207.879H141.855V205.426Z" fill="#263238"/>
<path d="M139.406 205.426H136.953V207.879H139.406V205.426Z" fill="#263238"/>
<path d="M136.945 205.426H134.492V207.879H136.945V205.426Z" fill="#263238"/>
<path d="M134.496 205.426H132.043V207.879H134.496V205.426Z" fill="#263238"/>
<path d="M141.855 207.879H139.402V210.332H141.855V207.879Z" fill="#263238"/>
<path d="M141.855 210.332H139.402V212.785H141.855V210.332Z" fill="#263238"/>
<path d="M136.945 195.613H134.492V198.066H136.945V195.613Z" fill="#263238"/>
<path d="M134.496 190.707H132.043V193.16H134.496V190.707Z" fill="#263238"/>
<path d="M134.496 193.16H132.043V195.613H134.496V193.16Z" fill="#263238"/>
<path d="M134.496 195.613H132.043V198.066H134.496V195.613Z" fill="#263238"/>
<path d="M132.047 198.066H129.594V200.519H132.047V198.066Z" fill="#263238"/>
<path d="M132.047 193.16H129.594V195.613H132.047V193.16Z" fill="#263238"/>
<path d="M132.047 195.613H129.594V198.066H132.047V195.613Z" fill="#263238"/>
<path d="M136.945 188.254H134.492V190.707H136.945V188.254Z" fill="#263238"/>
<path d="M136.945 198.066H134.492V200.519H136.945V198.066Z" fill="#263238"/>
<path d="M139.406 198.066H136.953V200.519H139.406V198.066Z" fill="#263238"/>
<path d="M141.855 185.801H139.402V188.254H141.855V185.801Z" fill="#263238"/>
<path d="M141.855 188.254H139.402V190.707H141.855V188.254Z" fill="#263238"/>
<path d="M144.308 183.348H141.855V185.801H144.308V183.348Z" fill="#263238"/>
<path d="M144.308 190.707H141.855V193.16H144.308V190.707Z" fill="#263238"/>
<path d="M122.23 180.894H119.777V183.347H122.23V180.894Z" fill="#263238"/>
<path d="M124.687 180.894H122.234V183.347H124.687V180.894Z" fill="#263238"/>
<path d="M93.8761 169.72H91.8477V161.325H100.243V163.353H93.8761V169.72Z" fill="#EE905B"/>
<path d="M100.243 217.646H91.8477V209.25H93.8761V215.617H100.243V217.646Z" fill="#EE905B"/>
<path d="M150.149 217.646H141.754V215.617H148.121V209.25H150.149V217.646Z" fill="#EE905B"/>
<path d="M150.149 169.72H148.121V163.353H141.754V161.325H150.149V169.72Z" fill="#EE905B"/>
<path d="M157.598 132.729H153.816V130.675H157.598V132.729ZM154.01 132.566H157.404V130.838H154.01V132.566Z" fill="white"/>
<path d="M154.807 131.057H154.199V132.347H154.807V131.057Z" fill="white"/>
<path d="M155.6 131.057H154.992V132.347H155.6V131.057Z" fill="white"/>
<path d="M156.393 131.057H155.785V132.347H156.393V131.057Z" fill="white"/>
<path d="M158.103 131.057H157.496V132.347H158.103V131.057Z" fill="white"/>
<path d="M148.807 131.703H148.285V132.729H148.807V131.703Z" fill="white"/>
<path d="M149.643 131.39H149.121V132.73H149.643V131.39Z" fill="white"/>
<path d="M150.479 131.016H149.957V132.729H150.479V131.016Z" fill="white"/>
<path d="M151.319 130.676H150.797V132.729H151.319V130.676Z" fill="white"/>
<path d="M85.7163 133.529C85.5221 133.529 85.3567 133.476 85.22 133.371C85.0834 133.264 84.979 133.11 84.9068 132.908C84.8347 132.705 84.7986 132.46 84.7986 132.173C84.7986 131.888 84.8347 131.644 84.9068 131.442C84.9799 131.24 85.0847 131.085 85.2213 130.978C85.3588 130.871 85.5238 130.817 85.7163 130.817C85.9088 130.817 86.0733 130.871 86.2099 130.978C86.3474 131.085 86.4523 131.24 86.5244 131.442C86.5975 131.644 86.634 131.888 86.634 132.173C86.634 132.46 86.5979 132.705 86.5257 132.908C86.4535 133.11 86.3491 133.264 86.2125 133.371C86.0759 133.476 85.9105 133.529 85.7163 133.529ZM85.7163 133.246C85.9088 133.246 86.0583 133.153 86.1648 132.967C86.2714 132.782 86.3247 132.517 86.3247 132.173C86.3247 131.945 86.3002 131.75 86.2512 131.589C86.2031 131.429 86.1335 131.306 86.0424 131.222C85.9522 131.138 85.8435 131.096 85.7163 131.096C85.5255 131.096 85.3764 131.19 85.269 131.378C85.1616 131.565 85.1079 131.83 85.1079 132.173C85.1079 132.402 85.132 132.596 85.1801 132.756C85.2282 132.916 85.2974 133.037 85.3876 133.121C85.4787 133.204 85.5882 133.246 85.7163 133.246ZM87.0619 132.952V132.689L88.2219 130.853H88.4127V131.261H88.2838L87.4073 132.648V132.668H88.9695V132.952H87.0619ZM88.3044 133.493V132.872V132.749V130.853H88.6086V133.493H88.3044ZM89.5553 133.514C89.4917 133.514 89.4372 133.491 89.3916 133.445C89.3461 133.4 89.3233 133.345 89.3233 133.282C89.3233 133.218 89.3461 133.164 89.3916 133.118C89.4372 133.073 89.4917 133.05 89.5553 133.05C89.6189 133.05 89.6735 133.073 89.719 133.118C89.7646 133.164 89.7873 133.218 89.7873 133.282C89.7873 133.324 89.7766 133.363 89.7551 133.398C89.7345 133.433 89.7066 133.461 89.6713 133.483C89.637 133.503 89.5983 133.514 89.5553 133.514ZM90.328 133.493V133.261L91.1993 132.307C91.3016 132.196 91.3858 132.099 91.452 132.016C91.5181 131.933 91.5671 131.855 91.5989 131.781C91.6316 131.708 91.6479 131.63 91.6479 131.549C91.6479 131.457 91.6256 131.376 91.5809 131.308C91.537 131.241 91.4769 131.188 91.4004 131.151C91.3239 131.114 91.238 131.096 91.1426 131.096C91.0412 131.096 90.9527 131.117 90.8771 131.159C90.8024 131.2 90.7444 131.258 90.7031 131.333C90.6627 131.408 90.6425 131.495 90.6425 131.596H90.3384C90.3384 131.441 90.374 131.305 90.4453 131.189C90.5167 131.072 90.6137 130.981 90.7366 130.915C90.8604 130.85 90.9991 130.817 91.1529 130.817C91.3076 130.817 91.4447 130.85 91.5641 130.915C91.6836 130.981 91.7772 131.069 91.8451 131.18C91.913 131.29 91.9469 131.414 91.9469 131.549C91.9469 131.647 91.9293 131.742 91.8941 131.834C91.8597 131.926 91.7996 132.029 91.7136 132.142C91.6286 132.255 91.5104 132.392 91.3592 132.555L90.7663 133.189V133.21H91.9933V133.493H90.328ZM93.3866 133.529C93.1924 133.529 93.027 133.476 92.8904 133.371C92.7538 133.264 92.6494 133.11 92.5772 132.908C92.505 132.705 92.4689 132.46 92.4689 132.173C92.4689 131.888 92.505 131.644 92.5772 131.442C92.6502 131.24 92.7551 131.085 92.8917 130.978C93.0292 130.871 93.1942 130.817 93.3866 130.817C93.5791 130.817 93.7437 130.871 93.8803 130.978C94.0178 131.085 94.1226 131.24 94.1948 131.442C94.2678 131.644 94.3044 131.888 94.3044 132.173C94.3044 132.46 94.2683 132.705 94.1961 132.908C94.1239 133.11 94.0195 133.264 93.8829 133.371C93.7463 133.476 93.5808 133.529 93.3866 133.529ZM93.3866 133.246C93.5791 133.246 93.7286 133.153 93.8352 132.967C93.9417 132.782 93.995 132.517 93.995 132.173C93.995 131.945 93.9705 131.75 93.9215 131.589C93.8734 131.429 93.8038 131.306 93.7127 131.222C93.6225 131.138 93.5138 131.096 93.3866 131.096C93.1959 131.096 93.0468 131.19 92.9394 131.378C92.832 131.565 92.7783 131.83 92.7783 132.173C92.7783 132.402 92.8023 132.596 92.8505 132.756C92.8986 132.916 92.9677 133.037 93.058 133.121C93.1491 133.204 93.2586 133.246 93.3866 133.246ZM95.8614 133.493V130.853H96.7533C96.9604 130.853 97.1297 130.891 97.2611 130.966C97.3935 131.039 97.4914 131.14 97.555 131.266C97.6186 131.392 97.6504 131.533 97.6504 131.689C97.6504 131.844 97.6186 131.986 97.555 132.113C97.4923 132.24 97.3952 132.341 97.2637 132.417C97.1323 132.492 96.9638 132.529 96.7585 132.529H96.1192V132.245H96.7482C96.8899 132.245 97.0038 132.221 97.0897 132.172C97.1756 132.123 97.2379 132.057 97.2766 131.974C97.3161 131.889 97.3359 131.794 97.3359 131.689C97.3359 131.583 97.3161 131.488 97.2766 131.405C97.2379 131.322 97.1752 131.256 97.0884 131.209C97.0016 131.161 96.8865 131.137 96.743 131.137H96.181V133.493H95.8614ZM98.1653 130.853H98.5468L99.4439 133.045H99.4749L100.372 130.853H100.753V133.493H100.454V131.488H100.429L99.6038 133.493H99.315L98.4901 131.488H98.4643V133.493H98.1653V130.853Z" fill="white"/>
<path d="M131.408 132.347H110.601C110.14 132.347 109.766 131.973 109.766 131.511C109.766 131.05 110.14 130.676 110.601 130.676H131.408C131.87 130.676 132.244 131.05 132.244 131.511C132.244 131.973 131.87 132.347 131.408 132.347Z" fill="white"/>
<path d="M137.402 131.511C137.402 131.973 137.028 132.347 136.567 132.347C136.105 132.347 135.73 131.972 135.73 131.511C135.73 131.049 136.105 130.675 136.567 130.675C137.028 130.675 137.402 131.049 137.402 131.511Z" fill="white"/>
<path d="M139.312 132.347C139.774 132.347 140.148 131.973 140.148 131.511C140.148 131.049 139.774 130.675 139.312 130.675C138.851 130.675 138.477 131.049 138.477 131.511C138.477 131.973 138.851 132.347 139.312 132.347Z" fill="white"/>
<path d="M189.745 245.37L187.671 282.705L178.035 288.255H194.737L193.819 281.817L196.739 263.447C197.519 258.536 197.912 253.555 197.912 248.565V240.304L189.745 245.37Z" fill="#0F4C75"/>
<path d="M194.385 278.252L187.973 277.585L187.827 279.903L186.825 277.585L185.168 278.289L187.721 281.808L187.671 282.705L178.035 288.255H194.737L193.819 281.817L194.385 278.252Z" fill="#EE905B"/>
<path d="M178.054 245.37L175.98 282.705L166.344 288.255H183.046L182.128 281.817L185.047 263.447C185.828 258.536 186.22 253.555 186.22 248.565V240.304L178.054 245.37Z" fill="#1C6BA1"/>
<path d="M197.471 202.648C198.032 202.583 199.432 207.137 199.598 207.631C200.447 210.159 201.038 212.822 200.794 215.502C200.569 217.961 199.636 220.343 199.641 222.826C199.645 225.028 200.644 231.528 201.045 233.691C201.61 236.737 202.285 239.772 203.07 242.77C203.07 242.77 195.452 248.696 176.809 245.701L178.271 204.88C178.27 204.879 197.348 202.662 197.471 202.648Z" fill="#EE905B"/>
<path opacity="0.7" d="M188.198 222.211C187.44 222.48 186.508 222.643 185.904 222.112C185.292 221.576 185.357 220.549 185.836 219.891C186.315 219.234 187.089 218.867 187.842 218.56C190.628 217.427 193.605 216.765 196.609 216.613C197.184 216.584 197.776 216.576 198.313 216.781C198.851 216.987 199.325 217.454 199.374 218.027C199.421 218.574 199.072 219.094 198.62 219.406C198.168 219.718 197.623 219.86 197.092 219.997C194.171 220.749 191.037 221.229 188.198 222.211Z" fill="#EE905B"/>
<path d="M179.554 173.464L175.464 175.33C172.543 176.663 170.401 179.269 169.659 182.392L166.57 195.394L164.339 188.887C164.339 188.887 162.563 187.163 160.281 190.337L164.24 204.667C164.24 204.667 166.62 208.139 169.893 207.246C173.166 206.353 175.023 194.919 175.023 194.919C175.023 194.919 176.476 200.862 178.269 204.879C178.269 204.879 188.245 205.921 197.47 202.647C197.47 202.647 195.63 198.308 196.523 189.958C197.416 181.607 192.823 174.318 192.823 174.318L179.554 173.464Z" fill="#0F4C75"/>
<path d="M186.21 188.501C186.243 188.571 186.277 188.64 186.31 188.71C186.973 190.094 188.009 191.421 189.479 191.863C191.096 192.35 192.376 191.24 192.662 189.678C192.805 188.894 192.729 188.089 192.652 187.296C192.298 183.642 191.944 179.987 191.59 176.332C191.435 174.736 191.16 172.926 189.827 172.032C188.94 171.437 187.797 171.414 186.731 171.472C185.559 171.536 184.333 171.695 183.377 172.377C181.126 173.982 182.467 177.587 183.018 179.702C183.797 182.694 184.885 185.7 186.21 188.501Z" fill="#FAC4BB"/>
<path d="M174.642 196.905L174.609 196.887C169.931 195.901 167.086 193.219 167.086 193.219L166.57 195.393L164.339 188.887C164.339 188.887 162.563 187.163 160.281 190.336L164.24 204.667C164.24 204.667 166.62 208.138 169.893 207.245C172.302 206.589 173.943 200.22 174.642 196.905Z" fill="#FAC4BB"/>
<path d="M179.19 160.793C179.19 160.793 176.717 161.131 176.806 158.798C176.806 158.798 174.352 160.112 173.249 158.798C173.249 158.798 173.15 159.624 173.047 160.892C172.995 161.553 172.939 162.328 172.892 163.168C172.85 164.008 172.812 164.914 172.808 165.824C172.765 169.517 173.136 173.328 174.779 173.535C178.003 173.948 179.36 172.263 179.36 172.263L179.355 172.258C179.289 172.113 177.454 168.283 179.866 165.12C182.33 161.896 179.19 160.793 179.19 160.793Z" fill="#FAC4BB"/>
<path d="M167.325 192.201C167.239 193.435 167.001 194.633 166.727 195.822C166.438 197.008 166.112 198.185 165.633 199.326C165.718 198.091 165.956 196.894 166.23 195.704C166.521 194.519 166.848 193.342 167.325 192.201Z" fill="#263238"/>
<path d="M166.558 184.031L161.272 185.607C160.716 185.773 160.13 185.457 159.964 184.9L156.243 172.428C156.077 171.872 156.394 171.286 156.95 171.12L162.236 169.543C162.793 169.377 163.378 169.693 163.544 170.25L167.265 182.722C167.431 183.279 167.114 183.864 166.558 184.031Z" fill="#0F4C75"/>
<path d="M165.865 182.366L160.944 183.834C160.774 183.885 160.595 183.788 160.544 183.619L157.342 172.884C157.291 172.714 157.388 172.535 157.557 172.484L162.478 171.016C162.648 170.966 162.827 171.062 162.877 171.232L166.08 181.967C166.131 182.137 166.034 182.316 165.865 182.366Z" fill="white"/>
<path d="M160.283 190.337L157.738 182.134C157.738 182.134 162.624 181.515 162.873 178.715C162.873 178.715 164.778 181.66 161.534 182.856C161.534 182.856 164.673 183.836 164.342 188.888L160.283 190.337Z" fill="#FAC4BB"/>
<path d="M182.845 277.301L176.282 276.467L176.192 278.883L174.609 276.467L172.456 277.213L176.056 281.322L175.979 282.705L166.344 288.255H183.045L182.128 281.817L182.845 277.301Z" fill="#EE905B"/>
<path d="M174.43 197.871C174.552 196.147 174.827 194.447 175.138 192.756C175.465 191.069 175.83 189.388 176.347 187.742C176.225 189.473 175.951 191.168 175.639 192.857C175.311 194.542 174.947 196.219 174.43 197.871Z" fill="white"/>
<path d="M178.092 204.931C177.085 206.487 176.01 208.079 175.669 209.899C175.504 210.797 175.518 211.737 175.807 212.592C176.088 213.451 176.662 214.184 177.4 214.7C178.895 215.731 180.769 216.087 182.594 216.258C184.434 216.431 186.294 216.374 188.12 216.107C189.949 215.853 191.749 215.384 193.464 214.699C195.174 214.015 196.804 213.09 198.118 211.813C199.412 210.545 200.359 208.816 200.36 206.975C200.37 206.065 200.125 205.144 199.603 204.384C199.086 203.621 198.318 203.043 197.476 202.647C198.339 202.992 199.151 203.536 199.713 204.306C200.284 205.066 200.583 206.019 200.611 206.972C200.661 208.902 199.713 210.733 198.397 212.089C197.07 213.468 195.375 214.41 193.639 215.13C191.893 215.844 190.059 216.339 188.193 216.612C186.324 216.87 184.426 216.912 182.55 216.72C181.615 216.623 180.675 216.484 179.759 216.227C178.845 215.972 177.945 215.598 177.17 215.015C176.391 214.444 175.779 213.62 175.502 212.691C175.216 211.765 175.227 210.777 175.426 209.849C175.866 207.981 176.993 206.424 178.092 204.931Z" fill="#0F4C75"/>
<path d="M178.268 204.879C177.808 205.344 177.489 205.941 177.413 206.579C177.336 207.217 177.464 207.861 177.682 208.461C178.084 209.689 178.977 210.681 180.06 211.349C181.143 212.02 182.385 212.41 183.657 212.562C184.93 212.716 186.229 212.659 187.503 212.466C190.051 212.115 192.548 211.163 194.539 209.53C196.54 207.907 197.545 205.254 197.468 202.647C197.606 203.95 197.454 205.291 197.017 206.546C196.568 207.795 195.801 208.94 194.795 209.828C192.777 211.589 190.189 212.572 187.576 212.971C186.263 213.153 184.923 213.198 183.598 213.022C182.281 212.843 180.959 212.44 179.846 211.676C178.733 210.938 177.811 209.834 177.445 208.539C177.255 207.902 177.16 207.219 177.28 206.558C177.394 205.894 177.772 205.303 178.268 204.879Z" fill="#0F4C75"/>
<path d="M189.966 163.848C189.966 163.848 194.124 160.371 190.478 152.393C186.831 144.415 178.342 148.657 178.342 148.657C178.342 148.657 173.081 144.246 169.256 149.676C165.436 155.11 170.364 158.166 170.364 158.166C170.364 158.166 169.177 158.588 169.261 161.131C169.265 161.319 169.294 161.488 169.331 161.643C169.406 161.924 169.529 162.154 169.692 162.347C169.997 162.708 170.434 162.924 170.884 163.051C171.851 163.318 172.893 163.168 172.893 163.168C172.893 163.13 172.897 163.088 172.897 163.051C172.911 162.811 172.925 162.576 172.944 162.347C172.959 162.102 172.972 161.868 172.991 161.643C173.113 159.963 173.249 158.798 173.249 158.798C174.352 160.112 176.807 158.798 176.807 158.798C176.717 161.131 179.191 160.793 179.191 160.793C179.191 160.793 179.895 161.042 180.373 161.643C180.533 161.84 180.664 162.07 180.739 162.347C180.796 162.553 180.824 162.788 180.8 163.051C180.758 163.613 180.495 164.294 179.866 165.12C177.454 168.283 179.289 172.113 179.355 172.259L179.36 172.263C179.819 173.535 180.688 175.717 181.547 177.824C183.142 181.738 187.906 183.334 191.463 181.049C194.593 179.03 195.57 176.661 195.57 176.661C190.82 172.165 189.966 163.848 189.966 163.848Z" fill="#EE905B"/>
<path d="M173.045 161.995C173.026 162.229 173.008 162.483 172.989 162.746C172.97 162.971 172.956 163.205 172.942 163.449C172.923 163.679 172.909 163.914 172.899 164.153C172.895 164.191 172.89 164.233 172.89 164.271C172.848 165.111 172.81 166.017 172.806 166.927H171.708C169.666 166.927 168.831 165.481 168.488 164.153C168.428 163.909 168.381 163.67 168.353 163.449C168.31 163.191 168.292 162.952 168.277 162.746C168.254 162.295 168.273 161.995 168.273 161.995H173.045Z" fill="#0F4C75"/>
<path d="M180.741 162.346H166.825C166.783 162.089 166.764 161.849 166.75 161.643H180.375C180.535 161.84 180.666 162.07 180.741 162.346Z" fill="#0F4C75"/>
<path d="M198.463 219.737C196.849 220.191 195.235 220.568 193.624 220.967C192.008 221.351 190.409 221.767 188.773 222.139C190.275 221.386 191.88 220.872 193.503 220.471C195.131 220.085 196.784 219.795 198.463 219.737Z" fill="#1B262C"/>
<path d="M58.1049 161.052C58.1049 161.052 52.6136 161.005 48.8989 168.224C44.9012 175.994 36.9309 188.032 41.137 193.235C45.3436 198.438 53.4411 193.235 53.4411 193.235L60.4934 173.193L58.1049 161.052Z" fill="#FFDBC6"/>
<path d="M60.5022 173.193L58.1136 161.052C58.1136 161.052 52.6223 161.005 48.9076 168.224C47.0559 171.823 44.3537 176.337 42.4023 180.664C44.0671 181.4 46.9226 182.867 48.0244 184.67C49.304 186.764 54.0587 185.932 56.5249 184.497L60.5022 173.193Z" fill="#EE905B"/>
<path d="M44.3504 204.498L36.0603 233.906C35.7063 236.495 36.8352 239.063 38.9822 240.552L71.3323 262.225L78.0301 279.01L78.0511 253.612L72.2155 253.392L52.7043 228.408L70.1773 218.266L73.2519 211.456L44.3504 204.498Z" fill="#0F4C75"/>
<path d="M68.9802 248.921L63.707 257.615L71.3341 262.225L78.0319 279.009L78.0528 253.612L72.2173 253.391L68.9802 248.921Z" fill="#FFDBC6"/>
<path d="M73.2607 211.455L72.4204 215.225C71.5898 218.951 70.9727 219.704 69.6043 223.268L47.0905 280.276C47.0905 280.276 44.3841 283.567 38.0898 278.93L49.5592 204.815C49.5592 204.815 62.5534 201.095 73.2607 211.455Z" fill="#1C6BA1"/>
<path d="M38.0898 278.929C44.3841 283.567 47.0905 280.275 47.0905 280.275L48.744 276.089L38.9659 273.271L38.0898 278.929Z" fill="#FAC4BB"/>
<path d="M81.5407 165.518C81.5407 165.518 72.6698 159.308 60.8949 160.379C49.12 161.45 48.0499 181.787 48.0499 181.787L44.3516 204.497C44.3516 204.497 55.0558 210.92 73.2531 211.455C73.2531 211.455 84.5243 175.475 81.5407 165.518Z" fill="#EE905B"/>
<path d="M49.0845 174.975C48.352 178.15 48.1211 180.794 48.0664 181.562C55.4518 184.644 63.4957 186.142 71.4961 185.91L72.8406 179.459C64.7221 179.695 56.5588 178.15 49.0845 174.975Z" fill="white"/>
<path d="M61.2583 166.334C61.7134 166.829 62.5389 167.104 63.2367 167.171C65.8832 167.422 68.6166 166.462 70.5066 164.588C70.8555 164.242 71.1814 163.859 71.3633 163.403C71.6141 162.773 71.5324 162.013 70.9643 161.585C70.6359 161.338 70.2262 161.224 69.8211 161.153C67.6925 160.782 65.5374 161.473 63.6857 162.493C62.7253 163.021 61.5683 163.798 61.082 164.819C60.7807 165.453 60.9125 165.957 61.2583 166.334Z" fill="#FAC4BB"/>
<path d="M70.3 157.458V162.262C70.3 162.262 68.2082 165.192 63.9382 164.555L63.2578 158.675L70.3 157.458Z" fill="#FAC4BB"/>
<path d="M52.4269 192.871L45.5324 194.518C45.1983 194.598 44.8519 194.443 44.6885 194.141L37.1033 180.094C36.8663 179.656 37.11 179.112 37.5948 178.996L44.4893 177.348C44.8233 177.269 45.1697 177.423 45.3331 177.726L52.9183 191.772C53.1548 192.211 52.9116 192.755 52.4269 192.871Z" fill="#0F4C75"/>
<path d="M52.7631 150.679C52.7631 150.679 48.7645 149.468 49.5884 145.282C50.4124 141.096 56.1223 141.325 56.1223 141.325C56.1223 141.325 62.4288 136.964 67.7526 139.803C67.7526 139.803 73.7256 139.086 73.7767 146.232C73.8283 153.378 71.7257 154.832 71.7257 154.832L52.7631 150.679Z" fill="#EE905B"/>
<path d="M52.827 151.886C52.9495 154.303 53.2938 156.705 53.9012 159.047C54.7267 162.231 56.1274 165.693 58.2759 165.356C62.1821 164.744 67.7873 162.906 69.3294 158.58C69.3294 158.58 72.5175 158.107 72.6232 154.062C72.7289 150.015 68.9627 151.346 68.9627 151.346C68.9627 151.346 68.577 153.956 68.6291 154.989C68.6291 154.989 68.0519 149.734 66.3355 148.578L67.1764 146.774C67.1764 146.774 63.5163 144.058 58.8567 146.159C54.197 148.26 52.6211 147.822 52.6211 147.822L52.827 151.886Z" fill="#FAC4BB"/>
<path d="M76.4175 163.59C76.4175 163.59 84.9809 163.59 84.4455 173.759C84.0982 180.359 81.2626 193.328 79.9539 198.414C79.2801 201.032 76.6172 202.609 73.9998 201.931C69.6318 200.8 62.7644 198.552 55.7043 194.381C55.7043 194.381 50.8873 199.198 46.6057 195.986C46.6057 195.986 41.7886 195.451 42.324 191.169C42.324 191.169 40.7185 190.634 41.2538 187.958C41.2538 187.958 50.2268 189.709 49.9408 186.252C49.9408 186.252 54.6342 184.211 56.775 187.958C56.775 187.958 63.7329 188.493 67.4792 189.028L71.0652 169.477C71.0652 169.477 71.6005 163.055 76.4175 163.59Z" fill="#FAC4BB"/>
<path d="M63.0312 188.585C64.8814 188.444 66.7413 188.607 68.568 188.935C69.4793 189.115 70.3829 189.343 71.2636 189.643C72.1422 189.95 72.9937 190.342 73.7794 190.833C72.9059 190.521 72.0298 190.263 71.1487 190.025C70.2609 189.808 69.3715 189.605 68.4735 189.437C67.576 189.266 66.6724 189.122 65.7662 188.981L63.0312 188.585Z" fill="#263238"/>
<path d="M84.4481 173.76C84.9835 163.59 76.4201 163.59 76.4201 163.59C71.6031 163.055 71.0678 169.477 71.0678 169.477L68.2812 184.67C68.2812 184.67 76.3767 185.23 81.9467 189.709C83.0986 184.179 84.2361 177.785 84.4481 173.76Z" fill="#EE905B"/>
<path d="M44.6157 180.239C44.6157 180.645 44.2867 180.974 43.8801 180.974C43.474 180.974 43.1445 180.645 43.1445 180.239C43.1445 179.833 43.474 179.503 43.8801 179.503C44.2867 179.503 44.6157 179.833 44.6157 180.239Z" fill="white"/>
<path d="M68.2456 160.526C69.6212 158.344 68.005 151.755 67.9907 151.696C67.9902 151.695 67.9902 151.695 67.9902 151.694C67.9892 151.695 62.9459 157.915 61.6315 158.287C60.3177 158.659 58.7633 157.749 57.6865 158.039C56.6097 158.328 56.1545 159.157 55.4506 159.322C54.7467 159.488 53.9023 159.048 53.9023 159.048C54.7278 162.232 56.1285 165.694 58.277 165.357C61.535 164.845 65.9674 163.475 68.2456 160.526Z" fill="#3B2B26"/>
<path d="M57.2148 160.495L59.5253 159.916L58.8438 161.71L57.2148 160.495Z" fill="white"/>
<path d="M57.3555 155.371C57.5721 155.926 57.6758 156.514 57.7227 157.104C57.7381 157.401 57.7432 157.699 57.712 157.996C57.6798 158.292 57.6277 158.588 57.5215 158.867C57.5317 158.273 57.5087 157.701 57.4684 157.121C57.4321 156.542 57.3774 155.964 57.3555 155.371Z" fill="#263238"/>
<path d="M61.0389 154.808C61.0389 155.265 60.668 155.636 60.2108 155.636C59.7537 155.636 59.3828 155.265 59.3828 154.808C59.3828 154.351 59.7537 153.98 60.2108 153.98C60.668 153.98 61.0389 154.351 61.0389 154.808Z" fill="#263238"/>
<path d="M55.2812 156.837C55.7385 156.837 56.1092 156.467 56.1092 156.009C56.1092 155.552 55.7385 155.181 55.2812 155.181C54.8239 155.181 54.4531 155.552 54.4531 156.009C54.4531 156.467 54.8239 156.837 55.2812 156.837Z" fill="#263238"/>
<path d="M58.1367 151.223C58.4749 150.848 58.9719 150.647 59.47 150.59C59.969 150.54 60.4977 150.63 60.9074 150.925C60.4078 150.922 59.9629 150.918 59.5108 150.97C59.0582 151.015 58.6235 151.113 58.1367 151.223Z" fill="#263238"/>
<path d="M55.0907 151.645C54.7337 151.724 54.4563 151.804 54.1799 151.928C53.902 152.048 53.6558 152.198 53.3555 152.407C53.3943 152.033 53.688 151.727 54.0262 151.577C54.3648 151.43 54.7888 151.421 55.0907 151.645Z" fill="#263238"/>
<path d="M70.8395 152.995C70.748 153.508 70.6387 153.97 70.5677 154.448C70.4875 154.924 70.4482 155.397 70.3746 155.913C70.1468 155.44 70.1126 154.9 70.1892 154.388C70.276 153.877 70.4763 153.375 70.8395 152.995Z" fill="#263238"/>
<path d="M38.8607 274.32C40.2496 274.953 43.8882 276.426 48.3905 276.802C48.7782 276.834 49.1409 276.602 49.284 276.24L49.665 275.276C49.8709 274.754 49.5516 274.174 48.9994 274.074C47.208 273.751 43.432 272.964 39.7255 271.539C39.1979 271.337 38.6176 271.675 38.5312 272.234L38.3545 273.376C38.2932 273.769 38.4985 274.155 38.8607 274.32Z" fill="#73B3DE"/>
<path d="M64.7838 258.229C65.882 257.17 68.5873 254.325 70.5882 250.274C70.7603 249.925 70.6771 249.503 70.393 249.237L69.6355 248.529C69.2258 248.146 68.5684 248.23 68.2737 248.707C67.3154 250.255 65.1996 253.48 62.5142 256.405C62.1316 256.822 62.2337 257.486 62.7221 257.771L63.7197 258.354C64.063 258.555 64.4972 258.506 64.7838 258.229Z" fill="#EE905B"/>
<path d="M71.3331 262.225H66.4727C66.4727 262.225 66.9145 261.902 68.9031 258.64L71.3336 259.906L72.2168 253.391L78.0524 253.612L78.0314 279.009L71.3331 262.225Z" fill="#EE905B"/>
<path d="M38.0833 278.93L37.4218 275.446L41.6176 276.806L40.316 279.264L47.0839 280.276V288.255H21.4102L38.0833 278.93Z" fill="#EE905B"/>
<path d="M56.4297 189.768L56.7433 188.1C56.8113 187.739 57.1448 187.49 57.5106 187.528L58.2283 187.602C58.6589 187.647 58.9485 188.064 58.8397 188.483L57.0846 195.242C56.9712 195.679 56.4828 195.899 56.0803 195.694L55.6481 195.474C55.358 195.326 55.2063 195 55.2803 194.683L56.4297 189.768Z" fill="#3B2B26"/>
<path d="M58.5796 191.419C58.5796 192.363 57.8139 193.129 56.8699 193.129C55.9259 193.129 55.1602 192.363 55.1602 191.419C55.1602 190.475 55.9259 189.709 56.8699 189.709C57.8139 189.709 58.5796 190.475 58.5796 191.419Z" fill="white"/>
<path d="M68.2812 184.67C68.4682 182.655 68.8069 180.668 69.1823 178.689C69.5731 176.713 70.0022 174.744 70.5845 172.805C70.3991 174.821 70.0604 176.807 69.6834 178.786C69.2916 180.762 68.8626 182.731 68.2812 184.67Z" fill="#263238"/>
<path d="M160.2 149.369V144.347C159.835 144.08 159.385 143.931 158.934 143.977C157.981 144.075 157.195 145.014 157.266 145.969C156.764 143.791 154.323 142.268 152.147 142.774C149.97 143.28 148.452 145.723 148.961 147.899L141.469 149.369H160.2Z" fill="#DEFCFF"/>
</svg>
