<svg width="652" height="497" viewBox="0 0 652 497" fill="none" xmlns="http://www.w3.org/2000/svg">
<path d="M608.361 177.264C609.573 174.08 608.381 170.15 605.605 168.173C602.83 166.196 598.727 166.356 596.113 168.543C598.28 163.407 596.078 156.826 591.259 154.027C586.439 151.229 579.632 152.578 576.246 157.005C571.887 145.465 558.316 138.27 546.319 141.135C534.321 144.002 525.469 156.553 526.795 168.817C523.696 164.605 517.14 163.464 512.799 166.381C508.459 169.298 507.042 175.801 509.772 180.26L495.934 183.933H617.737L608.361 177.264Z" fill="#FFF8F5"/>
<path d="M111.529 174.675C114.262 166.785 111.987 157.398 105.944 151.636C99.9026 145.874 90.4168 144.045 82.6656 147.149C74.9144 150.253 69.3126 158.123 68.9179 166.463C68.5386 163.595 65.6398 161.307 62.7626 161.603C59.8853 161.899 57.5139 164.731 57.7282 167.615C56.2125 161.042 48.8452 156.445 42.2751 157.972C35.705 159.498 31.1209 166.873 32.6598 173.442L10.043 177.878H128.804L111.529 174.675Z" fill="#FFF8F5"/>
<path d="M157.386 63.6067C158.597 60.4227 157.406 56.4923 154.631 54.5156C151.855 52.5389 147.751 52.6992 145.139 54.8857C147.305 49.7496 145.103 43.1687 140.285 40.3701C135.465 37.5715 128.659 38.9207 125.271 43.3475C120.912 31.8078 107.342 24.6133 95.3441 27.4781C83.3465 30.3446 74.4944 42.8958 75.8204 55.1601C72.7211 50.9476 66.1649 49.8066 61.8244 52.7239C57.484 55.6412 56.0669 62.1435 58.7977 66.6042L44.959 70.2771H166.764L157.386 63.6067Z" fill="#FFF8F5"/>
<path d="M489.271 73.8719C492.005 65.9834 489.729 56.5947 483.686 50.8326C477.645 45.0704 468.159 43.2417 460.408 46.3456C452.657 49.4495 447.055 57.3194 446.66 65.6596C446.281 62.7932 443.382 60.5034 440.505 60.7995C437.628 61.0955 435.256 63.928 435.47 66.8114C433.955 60.2382 426.587 55.6418 420.017 57.1683C413.447 58.6948 408.863 66.0698 410.402 72.6383L387.785 77.0744H506.545L489.271 73.8719Z" fill="#FFF8F5"/>
<path d="M0 496.306H618.966C618.966 496.306 681.962 329.983 633.966 315.982C585.969 301.983 569.969 418.976 569.969 418.976C569.969 418.976 613.15 195.532 519.064 210.759C424.978 225.987 501.381 415.975 501.381 415.975C501.381 415.975 445.314 186.343 298.653 218.163C151.993 249.984 174.526 375.663 174.526 375.663C174.526 375.663 113.995 204.773 35.9991 240.377C-41.9971 275.982 131.066 393.562 131.066 393.562C131.066 393.562 36.9982 359.978 24.9991 399.976C12.9999 439.974 116.191 453.709 116.191 453.709C116.191 453.709 71.9951 453.641 0 496.306Z" fill="#FFD8C9"/>
<path d="M443.939 496.306H208.06C201.61 496.306 196.383 491.077 196.383 484.629V12.1785C196.383 5.72863 201.611 0.5 208.06 0.5H443.94C450.39 0.5 455.619 5.72863 455.619 12.1785V484.629C455.617 491.077 450.389 496.306 443.939 496.306Z" fill="#0F4C75"/>
<path d="M434.628 463.35H217.385C212.025 463.35 207.68 459.005 207.68 453.645V23.206C207.68 17.8463 212.025 13.5012 217.385 13.5012H434.628C439.988 13.5012 444.333 17.8463 444.333 23.206V453.645C444.333 459.005 439.988 463.35 434.628 463.35Z" fill="white"/>
<path d="M314.984 68.764C316.953 65.7588 315.749 61.1639 312.559 59.5094C309.368 57.855 304.92 59.5218 303.599 62.8631C301.25 53.3588 292.304 45.882 282.535 45.2591C272.763 44.6346 262.94 50.9117 259.401 60.0399C257.546 55.4126 249.9 54.8652 247.404 59.181C245.983 53.4883 238.616 50.2148 233.438 52.9764C228.261 55.7379 226.878 63.6803 230.814 68.0301L217.418 72.7761H328.491L314.984 68.764Z" fill="#DEFCFF"/>
<path d="M207.68 264.166V454.434C207.68 459.359 211.672 463.351 216.595 463.351H435.416C440.341 463.351 444.333 459.359 444.333 454.434V287.181C411.889 240.638 364.369 202.409 298.659 216.666C255.057 226.126 226.411 243.882 207.68 264.166Z" fill="#FFD8C9"/>
<path d="M308.438 402.393H308.978C309.017 402.742 309.356 402.972 309.82 402.972C310.264 402.972 310.584 402.742 310.584 402.427C310.584 402.154 310.391 401.99 309.935 401.878L309.478 401.768C308.831 401.612 308.531 401.309 308.531 400.818C308.531 400.21 309.061 399.793 309.813 399.793C310.557 399.793 311.068 400.21 311.085 400.818H310.553C310.521 400.467 310.23 400.254 309.805 400.254C309.381 400.254 309.09 400.469 309.09 400.782C309.09 401.031 309.276 401.177 309.73 401.289L310.118 401.385C310.841 401.556 311.141 401.846 311.141 402.361C311.141 403.02 310.616 403.433 309.781 403.433C309 403.433 308.472 403.03 308.438 402.393ZM313.118 403.433C312.13 403.433 311.505 402.735 311.505 401.612C311.505 400.496 312.135 399.793 313.118 399.793C313.917 399.793 314.52 400.284 314.613 401.018H314.071C313.973 400.567 313.597 400.271 313.118 400.271C312.479 400.271 312.064 400.796 312.064 401.612C312.064 402.434 312.474 402.954 313.121 402.954C313.612 402.954 313.961 402.703 314.071 402.278H314.615C314.481 403.006 313.929 403.433 313.118 403.433ZM317.359 403.374L317.037 402.422H315.694L315.372 403.374H314.803L316.075 399.851H316.666L317.938 403.374H317.359ZM316.358 400.437L315.833 401.983H316.898L316.373 400.437H316.358ZM318.858 403.374H318.326V399.851H318.822L320.648 402.449H320.667V399.851H321.199V403.374H320.706L318.88 400.779H318.858V403.374ZM324.39 403.433C323.375 403.433 322.74 402.737 322.74 401.614C322.74 400.496 323.375 399.793 324.39 399.793C325.404 399.793 326.041 400.496 326.041 401.614C326.041 402.273 325.821 402.791 325.428 403.096L325.887 403.748H325.316L325.015 403.328C324.827 403.399 324.617 403.433 324.39 403.433ZM324.39 402.954C324.508 402.954 324.617 402.937 324.72 402.906L324.3 402.312H324.854L325.103 402.649C325.343 402.427 325.479 402.068 325.479 401.614C325.479 400.791 325.059 400.271 324.39 400.271C323.721 400.271 323.299 400.791 323.299 401.614C323.299 402.434 323.721 402.954 324.39 402.954ZM327.11 400.31V401.578H327.877C328.299 401.578 328.541 401.346 328.541 400.943C328.541 400.55 328.284 400.31 327.862 400.31H327.11ZM327.11 402.019V403.374H326.563V399.851H327.928C328.653 399.851 329.105 400.271 329.105 400.928C329.105 401.404 328.851 401.79 328.421 401.934L329.21 403.374H328.58L327.862 402.019H327.11ZM332.137 403.433C331.148 403.433 330.523 402.735 330.523 401.612C330.523 400.496 331.153 399.793 332.137 399.793C332.935 399.793 333.538 400.284 333.631 401.018H333.089C332.991 400.567 332.616 400.271 332.137 400.271C331.497 400.271 331.082 400.796 331.082 401.612C331.082 402.434 331.492 402.954 332.139 402.954C332.63 402.954 332.979 402.703 333.089 402.278H333.634C333.499 403.006 332.948 403.433 332.137 403.433ZM335.65 399.793C336.663 399.793 337.301 400.494 337.301 401.614C337.301 402.735 336.663 403.433 335.65 403.433C334.635 403.433 334 402.735 334 401.614C334 400.494 334.635 399.793 335.65 399.793ZM335.65 400.274C334.981 400.274 334.559 400.791 334.559 401.614C334.559 402.434 334.981 402.952 335.65 402.952C336.319 402.952 336.739 402.434 336.739 401.614C336.739 400.791 336.319 400.274 335.65 400.274ZM337.823 399.851H339.066C340.113 399.851 340.733 400.496 340.733 401.607C340.733 402.72 340.116 403.374 339.066 403.374H337.823V399.851ZM338.37 400.323V402.901H339.014C339.762 402.901 340.174 402.444 340.174 401.612C340.174 400.782 339.759 400.323 339.014 400.323H338.37ZM343.492 402.901V403.374H341.256V399.851H343.492V400.323H341.803V401.353H343.402V401.807H341.803V402.901H343.492Z" fill="#263238"/>
<path d="M261.45 84.3521H262.098C262.145 84.771 262.552 85.0464 263.108 85.0464C263.642 85.0464 264.025 84.771 264.025 84.3931C264.025 84.0649 263.794 83.8687 263.246 83.7339L262.698 83.6021C261.922 83.4146 261.562 83.0513 261.562 82.4624C261.562 81.7329 262.197 81.2319 263.1 81.2319C263.993 81.2319 264.605 81.7329 264.626 82.4624H263.987C263.949 82.0405 263.601 81.7856 263.091 81.7856C262.581 81.7856 262.232 82.0435 262.232 82.4185C262.232 82.7173 262.455 82.8931 263 83.0278L263.466 83.1421C264.333 83.3472 264.693 83.6958 264.693 84.314C264.693 85.105 264.063 85.6001 263.062 85.6001C262.124 85.6001 261.491 85.1167 261.45 84.3521ZM267.852 83.5083H267.248C267.184 83.1802 266.938 82.9194 266.524 82.9194C266.035 82.9194 265.713 83.3267 265.713 83.9888C265.713 84.6655 266.038 85.0581 266.53 85.0581C266.92 85.0581 267.175 84.8442 267.248 84.4868H267.857C267.79 85.1431 267.266 85.5884 266.524 85.5884C265.643 85.5884 265.068 84.9849 265.068 83.9888C265.068 83.0103 265.643 82.3921 266.519 82.3921C267.312 82.3921 267.796 82.9019 267.852 83.5083ZM269.384 85.0815C269.826 85.0815 270.172 84.7769 270.172 84.3755V84.1323L269.413 84.1792C269.035 84.2056 268.821 84.3726 268.821 84.6362C268.821 84.9058 269.044 85.0815 269.384 85.0815ZM269.208 85.5825C268.604 85.5825 268.183 85.2075 268.183 84.6538C268.183 84.1147 268.596 83.7837 269.328 83.7427L270.172 83.6929V83.4556C270.172 83.1128 269.94 82.9077 269.554 82.9077C269.188 82.9077 268.959 83.0835 268.903 83.3589H268.306C268.341 82.8022 268.815 82.3921 269.577 82.3921C270.324 82.3921 270.802 82.7876 270.802 83.4058V85.5298H270.195V85.0229H270.181C270.002 85.3657 269.612 85.5825 269.208 85.5825ZM271.417 85.5298V82.4478H272.021V82.9634H272.035C272.202 82.6118 272.53 82.395 273.005 82.395C273.685 82.395 274.074 82.8286 274.074 83.5347V85.5298H273.438V83.6577C273.438 83.1948 273.222 82.9399 272.782 82.9399C272.337 82.9399 272.05 83.2563 272.05 83.7339V85.5298H271.417ZM278.958 85.5298L278.592 85.1313C278.249 85.4302 277.76 85.603 277.256 85.603C276.397 85.603 275.817 85.1196 275.817 84.4106C275.817 83.9214 276.078 83.5522 276.629 83.2563C276.699 83.2212 276.781 83.1743 276.802 83.1685C276.421 82.7671 276.277 82.5005 276.277 82.1899C276.277 81.645 276.752 81.2378 277.391 81.2378C278.038 81.2378 278.498 81.6333 278.498 82.1899C278.498 82.6206 278.234 82.9458 277.61 83.2769L278.571 84.311C278.694 84.0825 278.753 83.769 278.753 83.3062V83.145H279.321V83.3237C279.321 83.9214 279.201 84.3843 278.97 84.73L279.729 85.5298H278.958ZM276.989 83.5991C276.597 83.8423 276.438 84.062 276.438 84.3638C276.438 84.8032 276.793 85.0962 277.317 85.0962C277.669 85.0962 278.029 84.9585 278.231 84.7417L277.121 83.5288C277.086 83.5464 277.016 83.5845 276.989 83.5991ZM277.288 82.9458C277.751 82.7085 277.927 82.5063 277.927 82.2222C277.927 81.9175 277.713 81.7065 277.394 81.7065C277.083 81.7065 276.86 81.9233 276.86 82.2251C276.86 82.4448 276.975 82.6353 277.288 82.9458ZM281.94 81.853V83.3735H282.86C283.367 83.3735 283.657 83.0952 283.657 82.6118C283.657 82.1401 283.35 81.853 282.843 81.853H281.94ZM281.94 83.9038V85.5298H281.284V81.3022H282.922C283.792 81.3022 284.334 81.8062 284.334 82.5942C284.334 83.1655 284.029 83.6284 283.514 83.8013L284.46 85.5298H283.704L282.843 83.9038H281.94ZM286.171 82.9019C285.729 82.9019 285.418 83.2388 285.386 83.7046H286.927C286.912 83.2329 286.613 82.9019 286.171 82.9019ZM286.924 84.6245H287.524C287.437 85.187 286.903 85.5884 286.197 85.5884C285.292 85.5884 284.744 84.9761 284.744 84.0034C284.744 83.0366 285.301 82.3921 286.171 82.3921C287.026 82.3921 287.56 82.9956 287.56 83.9302V84.147H285.383V84.1851C285.383 84.7212 285.705 85.0757 286.212 85.0757C286.572 85.0757 286.839 84.894 286.924 84.6245ZM290.665 82.4478L289.561 85.5298H288.881L287.771 82.4478H288.444L289.218 84.9116H289.229L290.003 82.4478H290.665ZM291.049 85.5298V82.4478H291.682V85.5298H291.049ZM291.365 81.9966C291.163 81.9966 290.999 81.8354 290.999 81.6362C290.999 81.4341 291.163 81.2729 291.365 81.2729C291.57 81.2729 291.734 81.4341 291.734 81.6362C291.734 81.8354 291.57 81.9966 291.365 81.9966ZM293.618 82.9019C293.176 82.9019 292.865 83.2388 292.833 83.7046H294.374C294.359 83.2329 294.061 82.9019 293.618 82.9019ZM294.371 84.6245H294.972C294.884 85.187 294.351 85.5884 293.645 85.5884C292.739 85.5884 292.191 84.9761 292.191 84.0034C292.191 83.0366 292.748 82.3921 293.618 82.3921C294.474 82.3921 295.007 82.9956 295.007 83.9302V84.147H292.83V84.1851C292.83 84.7212 293.152 85.0757 293.659 85.0757C294.02 85.0757 294.286 84.894 294.371 84.6245ZM299.565 82.4478L298.722 85.5298H298.062L297.415 83.2212H297.4L296.759 85.5298H296.105L295.259 82.4478H295.892L296.454 84.8735H296.466L297.107 82.4478H297.717L298.361 84.8735H298.376L298.938 82.4478H299.565Z" fill="#263238"/>
<path d="M321.474 425.872H320.927V424.312H319.118V425.872H318.572V422.349H319.118V423.838H320.927V422.349H321.474V425.872ZM324.358 425.398V425.872H322.121V422.349H324.358V422.82H322.668V423.85H324.267V424.304H322.668V425.398H324.358ZM325.466 422.808V424.075H326.233C326.655 424.075 326.897 423.843 326.897 423.44C326.897 423.047 326.64 422.808 326.218 422.808H325.466ZM325.466 424.517V425.872H324.919V422.349H326.284C327.009 422.349 327.461 422.769 327.461 423.425C327.461 423.901 327.207 424.287 326.777 424.431L327.566 425.872H326.936L326.218 424.517H325.466ZM330.227 425.398V425.872H327.99V422.349H330.227V422.82H328.537V423.85H330.136V424.304H328.537V425.398H330.227Z" fill="#263238"/>
<path d="M435.417 13.5012H216.595C211.67 13.5012 207.68 17.4932 207.68 22.4181V34.001H444.333V22.4181C444.333 17.4917 440.341 13.5012 435.417 13.5012Z" fill="#0F4C75"/>
<path d="M390.015 33.9994H261.993C257.488 33.9994 253.602 30.837 252.688 26.4256L250.008 13.5012H401.999L399.319 26.4256C398.406 30.837 394.519 33.9994 390.015 33.9994Z" fill="#0F4C75"/>
<path d="M299.973 172.13H252.326V124.484H299.973V172.13ZM258.975 165.482H293.324V131.132H258.975V165.482Z" fill="#263238"/>
<path d="M285.551 138.888H266.715V157.725H285.551V138.888Z" fill="#263238"/>
<path d="M299.973 271.855H252.326V224.208H299.973V271.855ZM258.975 265.206H293.324V230.857H258.975V265.206Z" fill="#263238"/>
<path d="M285.551 238.612H266.715V257.45H285.551V238.612Z" fill="#263238"/>
<path d="M399.67 172.13H352.023V124.484H399.67V172.13ZM358.672 165.482H393.021V131.132H358.672V165.482Z" fill="#263238"/>
<path d="M385.575 138.587H366.135V158.028H385.575V138.587Z" fill="#263238"/>
<path d="M314.916 127.808H307.512V135.212H314.916V127.808Z" fill="#263238"/>
<path d="M322.318 135.213H314.914V142.618H322.318V135.213Z" fill="#263238"/>
<path d="M329.713 135.213H322.309V142.618H329.713V135.213Z" fill="#263238"/>
<path d="M322.318 142.618H314.914V150.022H322.318V142.618Z" fill="#263238"/>
<path d="M314.916 157.428H307.512V164.833H314.916V157.428Z" fill="#263238"/>
<path d="M322.318 157.428H314.914V164.833H322.318V157.428Z" fill="#263238"/>
<path d="M329.713 157.428H322.309V164.833H329.713V157.428Z" fill="#263238"/>
<path d="M337.129 157.428H329.725V164.833H337.129V157.428Z" fill="#263238"/>
<path d="M337.129 150.021H329.725V157.426H337.129V150.021Z" fill="#263238"/>
<path d="M344.525 142.618H337.121V150.022H344.525V142.618Z" fill="#263238"/>
<path d="M337.129 127.808H329.725V135.212H337.129V127.808Z" fill="#263238"/>
<path d="M344.525 135.213H337.121V142.618H344.525V135.213Z" fill="#263238"/>
<path d="M344.525 157.428H337.121V164.833H344.525V157.428Z" fill="#263238"/>
<path d="M344.525 164.831H337.121V172.236H344.525V164.831Z" fill="#263238"/>
<path d="M307.5 179.642H300.096V187.046H307.5V179.642Z" fill="#263238"/>
<path d="M300.109 179.642H292.705V187.046H300.109V179.642Z" fill="#263238"/>
<path d="M292.689 179.642H285.285V187.046H292.689V179.642Z" fill="#263238"/>
<path d="M277.893 179.642H270.488V187.046H277.893V179.642Z" fill="#263238"/>
<path d="M263.074 179.642H255.67V187.046H263.074V179.642Z" fill="#263238"/>
<path d="M277.893 201.857H270.488V209.261H277.893V201.857Z" fill="#263238"/>
<path d="M277.893 209.261H270.488V216.666H277.893V209.261Z" fill="#263238"/>
<path d="M285.275 209.261H277.871V216.666H285.275V209.261Z" fill="#263238"/>
<path d="M292.689 209.261H285.285V216.666H292.689V209.261Z" fill="#263238"/>
<path d="M300.109 209.261H292.705V216.666H300.109V209.261Z" fill="#263238"/>
<path d="M300.109 201.857H292.705V209.261H300.109V201.857Z" fill="#263238"/>
<path d="M300.109 194.452H292.705V201.856H300.109V194.452Z" fill="#263238"/>
<path d="M307.5 194.452H300.096V201.856H307.5V194.452Z" fill="#263238"/>
<path d="M314.916 209.261H307.512V216.666H314.916V209.261Z" fill="#263238"/>
<path d="M314.916 201.857H307.512V209.261H314.916V201.857Z" fill="#263238"/>
<path d="M322.318 201.857H314.914V209.261H322.318V201.857Z" fill="#263238"/>
<path d="M329.713 201.857H322.309V209.261H329.713V201.857Z" fill="#263238"/>
<path d="M337.129 201.857H329.725V209.261H337.129V201.857Z" fill="#263238"/>
<path d="M344.525 209.261H337.121V216.666H344.525V209.261Z" fill="#263238"/>
<path d="M344.525 216.667H337.121V224.071H344.525V216.667Z" fill="#263238"/>
<path d="M351.93 224.071H344.525V231.476H351.93V224.071Z" fill="#263238"/>
<path d="M307.5 209.261H300.096V216.666H307.5V209.261Z" fill="#263238"/>
<path d="M270.486 201.857H263.082V209.261H270.486V201.857Z" fill="#263238"/>
<path d="M285.275 187.047H277.871V194.451H285.275V187.047Z" fill="#263238"/>
<path d="M285.275 194.452H277.871V201.856H285.275V194.452Z" fill="#263238"/>
<path d="M277.893 194.452H270.488V201.856H277.893V194.452Z" fill="#263238"/>
<path d="M270.486 194.452H263.082V201.856H270.486V194.452Z" fill="#263238"/>
<path d="M270.486 187.047H263.082V194.451H270.486V187.047Z" fill="#263238"/>
<path d="M263.074 194.452H255.67V201.856H263.074V194.452Z" fill="#263238"/>
<path d="M314.916 150.021H307.512V157.426H314.916V150.021Z" fill="#263238"/>
<path d="M314.916 164.831H307.512V172.236H314.916V164.831Z" fill="#263238"/>
<path d="M314.916 172.236H307.512V179.641H314.916V172.236Z" fill="#263238"/>
<path d="M314.916 179.642H307.512V187.046H314.916V179.642Z" fill="#263238"/>
<path d="M314.916 187.047H307.512V194.451H314.916V187.047Z" fill="#263238"/>
<path d="M322.318 187.047H314.914V194.451H322.318V187.047Z" fill="#263238"/>
<path d="M329.713 187.047H322.309V194.451H329.713V187.047Z" fill="#263238"/>
<path d="M337.129 187.047H329.725V194.451H337.129V187.047Z" fill="#263238"/>
<path d="M329.713 179.642H322.309V187.046H329.713V179.642Z" fill="#263238"/>
<path d="M344.525 179.642H337.121V187.046H344.525V179.642Z" fill="#263238"/>
<path d="M351.93 179.642H344.525V187.046H351.93V179.642Z" fill="#263238"/>
<path d="M359.344 179.642H351.939V187.046H359.344V179.642Z" fill="#263238"/>
<path d="M366.738 179.642H359.334V187.046H366.738V179.642Z" fill="#263238"/>
<path d="M374.133 179.642H366.729V187.046H374.133V179.642Z" fill="#263238"/>
<path d="M381.557 179.642H374.152V187.046H381.557V179.642Z" fill="#263238"/>
<path d="M381.557 187.047H374.152V194.451H381.557V187.047Z" fill="#263238"/>
<path d="M359.344 194.452H351.939V201.856H359.344V194.452Z" fill="#263238"/>
<path d="M351.93 194.452H344.525V201.856H351.93V194.452Z" fill="#263238"/>
<path d="M351.93 187.047H344.525V194.451H351.93V187.047Z" fill="#263238"/>
<path d="M344.525 194.452H337.121V201.856H344.525V194.452Z" fill="#263238"/>
<path d="M374.133 201.857H366.729V209.261H374.133V201.857Z" fill="#263238"/>
<path d="M374.133 209.261H366.729V216.666H374.133V209.261Z" fill="#263238"/>
<path d="M381.557 209.261H374.152V216.666H381.557V209.261Z" fill="#263238"/>
<path d="M388.951 209.261H381.547V216.666H388.951V209.261Z" fill="#263238"/>
<path d="M388.951 216.667H381.547V224.071H388.951V216.667Z" fill="#263238"/>
<path d="M388.951 224.071H381.547V231.476H388.951V224.071Z" fill="#263238"/>
<path d="M374.133 231.475H366.729V238.879H374.133V231.475Z" fill="#263238"/>
<path d="M374.133 253.748H366.729V261.152H374.133V253.748Z" fill="#263238"/>
<path d="M396.357 231.475H388.953V238.879H396.357V231.475Z" fill="#263238"/>
<path d="M396.357 261.095H388.953V268.499H396.357V261.095Z" fill="#263238"/>
<path d="M366.738 261.095H359.334V268.499H366.738V261.095Z" fill="#263238"/>
<path d="M359.344 261.095H351.939V268.499H359.344V261.095Z" fill="#263238"/>
<path d="M351.93 261.095H344.525V268.499H351.93V261.095Z" fill="#263238"/>
<path d="M344.525 261.095H337.121V268.499H344.525V261.095Z" fill="#263238"/>
<path d="M351.93 253.692H344.525V261.096H351.93V253.692Z" fill="#263238"/>
<path d="M344.525 253.692H337.121V261.096H344.525V253.692Z" fill="#263238"/>
<path d="M351.93 246.286H344.525V253.69H351.93V246.286Z" fill="#263238"/>
<path d="M351.93 238.881H344.525V246.285H351.93V238.881Z" fill="#263238"/>
<path d="M344.525 231.475H337.121V238.879H344.525V231.475Z" fill="#263238"/>
<path d="M337.129 231.475H329.725V238.879H337.129V231.475Z" fill="#263238"/>
<path d="M329.713 231.475H322.309V238.879H329.713V231.475Z" fill="#263238"/>
<path d="M322.318 231.475H314.914V238.879H322.318V231.475Z" fill="#263238"/>
<path d="M337.129 238.881H329.725V246.285H337.129V238.881Z" fill="#263238"/>
<path d="M313.256 242.174H305.852V249.578H313.256V242.174Z" fill="#263238"/>
<path d="M314.916 253.692H307.512V261.096H314.916V253.692Z" fill="#263238"/>
<path d="M314.916 224.071H307.512V231.476H314.916V224.071Z" fill="#263238"/>
<path d="M322.318 238.881H314.914V246.285H322.318V238.881Z" fill="#263238"/>
<path d="M329.713 246.286H322.309V253.69H329.713V246.286Z" fill="#263238"/>
<path d="M322.318 246.286H314.914V253.69H322.318V246.286Z" fill="#263238"/>
<path d="M329.713 253.692H322.309V261.096H329.713V253.692Z" fill="#263238"/>
<path d="M322.318 261.095H314.914V268.499H322.318V261.095Z" fill="#263238"/>
<path d="M337.129 224.071H329.725V231.476H337.129V224.071Z" fill="#263238"/>
<path d="M329.713 224.071H322.309V231.476H329.713V224.071Z" fill="#263238"/>
<path d="M312.437 217.485H305.033V224.89H312.437V217.485Z" fill="#263238"/>
<path d="M329.713 216.667H322.309V224.071H329.713V216.667Z" fill="#263238"/>
<path d="M329.713 209.261H322.309V216.666H329.713V209.261Z" fill="#263238"/>
<path d="M322.318 216.667H314.914V224.071H322.318V216.667Z" fill="#263238"/>
<path d="M314.916 231.475H307.512V238.879H314.916V231.475Z" fill="#263238"/>
<path d="M344.525 246.286H337.121V253.69H344.525V246.286Z" fill="#263238"/>
<path d="M337.129 261.095H329.725V268.499H337.129V261.095Z" fill="#263238"/>
<path d="M359.344 231.475H351.939V238.879H359.344V231.475Z" fill="#263238"/>
<path d="M366.738 238.881H359.334V246.285H366.738V238.881Z" fill="#263238"/>
<path d="M388.951 238.881H381.547V246.285H388.951V238.881Z" fill="#263238"/>
<path d="M388.951 246.286H381.547V253.69H388.951V246.286Z" fill="#263238"/>
<path d="M381.557 246.286H374.152V253.69H381.557V246.286Z" fill="#263238"/>
<path d="M374.133 246.286H366.729V253.69H374.133V246.286Z" fill="#263238"/>
<path d="M366.738 246.286H359.334V253.69H366.738V246.286Z" fill="#263238"/>
<path d="M388.951 253.692H381.547V261.096H388.951V253.692Z" fill="#263238"/>
<path d="M388.951 261.095H381.547V268.499H388.951V261.095Z" fill="#263238"/>
<path d="M374.133 216.667H366.729V224.071H374.133V216.667Z" fill="#263238"/>
<path d="M366.738 201.857H359.334V209.261H366.738V201.857Z" fill="#263238"/>
<path d="M366.738 209.261H359.334V216.666H366.738V209.261Z" fill="#263238"/>
<path d="M366.738 216.667H359.334V224.071H366.738V216.667Z" fill="#263238"/>
<path d="M359.344 224.071H351.939V231.476H359.344V224.071Z" fill="#263238"/>
<path d="M359.344 209.261H351.939V216.666H359.344V209.261Z" fill="#263238"/>
<path d="M359.344 216.667H351.939V224.071H359.344V216.667Z" fill="#263238"/>
<path d="M374.133 194.452H366.729V201.856H374.133V194.452Z" fill="#263238"/>
<path d="M374.133 224.071H366.729V231.476H374.133V224.071Z" fill="#263238"/>
<path d="M381.557 224.071H374.152V231.476H381.557V224.071Z" fill="#263238"/>
<path d="M388.951 187.047H381.547V194.451H388.951V187.047Z" fill="#263238"/>
<path d="M388.951 194.452H381.547V201.856H388.951V194.452Z" fill="#263238"/>
<path d="M396.357 179.642H388.953V187.046H396.357V179.642Z" fill="#263238"/>
<path d="M396.357 201.857H388.953V209.261H396.357V201.857Z" fill="#263238"/>
<path d="M329.713 172.236H322.309V179.641H329.713V172.236Z" fill="#263238"/>
<path d="M337.129 172.236H329.725V179.641H337.129V172.236Z" fill="#263238"/>
<path d="M244.133 138.506H238.01V113.165H263.351V119.286H244.133V138.506Z" fill="#EE905B"/>
<path d="M263.351 283.171H238.01V257.83H244.133V277.048H263.351V283.171Z" fill="#EE905B"/>
<path d="M413.998 283.171H388.656V277.048H407.875V257.83H413.998V283.171Z" fill="#EE905B"/>
<path d="M413.998 138.506H407.875V119.286H388.656V113.165H413.998V138.506Z" fill="#EE905B"/>
<path d="M436.464 26.848H425.049V20.6495H436.464V26.848ZM425.632 26.3562H435.878V21.1414H425.632V26.3562Z" fill="white"/>
<path d="M428.04 21.802H426.207V25.6969H428.04V21.802Z" fill="white"/>
<path d="M430.433 21.802H428.6V25.6969H430.433V21.802Z" fill="white"/>
<path d="M432.829 21.802H430.996V25.6969H432.829V21.802Z" fill="white"/>
<path d="M437.99 21.802H436.156V25.6969H437.99V21.802Z" fill="white"/>
<path d="M409.939 23.7504H408.363V26.8496H409.939V23.7504Z" fill="white"/>
<path d="M412.461 22.8058H410.885V26.8502H412.461V22.8058Z" fill="white"/>
<path d="M414.984 21.678H413.408V26.848H414.984V21.678Z" fill="white"/>
<path d="M417.521 20.6508H415.945V26.8492H417.521V20.6508Z" fill="white"/>
<path d="M217.208 23.1358C217.014 23.1358 216.849 23.083 216.712 22.9773C216.576 22.8707 216.471 22.7165 216.399 22.5146C216.327 22.3118 216.291 22.0669 216.291 21.7799C216.291 21.4946 216.327 21.251 216.399 21.0491C216.472 20.8463 216.577 20.6916 216.714 20.585C216.851 20.4776 217.016 20.4239 217.208 20.4239C217.401 20.4239 217.565 20.4776 217.702 20.585C217.84 20.6916 217.944 20.8463 218.017 21.0491C218.09 21.251 218.126 21.4946 218.126 21.7799C218.126 22.0669 218.09 22.3118 218.018 22.5146C217.946 22.7165 217.841 22.8707 217.705 22.9773C217.568 23.083 217.403 23.1358 217.208 23.1358ZM217.208 22.8523C217.401 22.8523 217.55 22.7595 217.657 22.5739C217.764 22.3882 217.817 22.1236 217.817 21.7799C217.817 21.5513 217.792 21.3567 217.743 21.196C217.695 21.0353 217.626 20.9129 217.535 20.8287C217.444 20.7444 217.336 20.7023 217.208 20.7023C217.018 20.7023 216.869 20.7964 216.761 20.9846C216.654 21.1719 216.6 21.437 216.6 21.7799C216.6 22.0084 216.624 22.2026 216.672 22.3625C216.72 22.5223 216.79 22.6439 216.88 22.7272C216.971 22.8106 217.08 22.8523 217.208 22.8523ZM218.554 22.5584V22.2954L219.714 20.46H219.905V20.8673H219.776L218.9 22.2542V22.2748H220.462V22.5584H218.554ZM219.797 23.0997V22.4785V22.356V20.46H220.101V23.0997H219.797ZM221.048 23.1204C220.984 23.1204 220.929 23.0976 220.884 23.052C220.838 23.0065 220.816 22.9519 220.816 22.8883C220.816 22.8248 220.838 22.7702 220.884 22.7247C220.929 22.6791 220.984 22.6563 221.048 22.6563C221.111 22.6563 221.166 22.6791 221.211 22.7247C221.257 22.7702 221.28 22.8248 221.28 22.8883C221.28 22.9305 221.269 22.9691 221.247 23.0044C221.227 23.0396 221.199 23.0679 221.164 23.0894C221.129 23.11 221.09 23.1204 221.048 23.1204ZM221.82 23.0997V22.8677L222.692 21.9139C222.794 21.8022 222.878 21.7051 222.944 21.6226C223.01 21.5393 223.059 21.4611 223.091 21.388C223.124 21.3141 223.14 21.2368 223.14 21.156C223.14 21.0632 223.118 20.9829 223.073 20.915C223.029 20.8471 222.969 20.7947 222.893 20.7578C222.816 20.7208 222.73 20.7023 222.635 20.7023C222.533 20.7023 222.445 20.7234 222.369 20.7655C222.295 20.8067 222.237 20.8647 222.195 20.9395C222.155 21.0143 222.135 21.1019 222.135 21.2024H221.831C221.831 21.0478 221.866 20.912 221.938 20.7951C222.009 20.6783 222.106 20.5872 222.229 20.5219C222.353 20.4566 222.491 20.4239 222.645 20.4239C222.8 20.4239 222.937 20.4566 223.056 20.5219C223.176 20.5872 223.269 20.6753 223.337 20.7861C223.405 20.897 223.439 21.0203 223.439 21.156C223.439 21.2531 223.421 21.3481 223.386 21.4409C223.352 21.5328 223.292 21.6355 223.206 21.7489C223.121 21.8615 223.003 21.999 222.851 22.1614L222.258 22.7955V22.8162H223.486V23.0997H221.82ZM224.879 23.1358C224.685 23.1358 224.519 23.083 224.383 22.9773C224.246 22.8707 224.142 22.7165 224.069 22.5146C223.997 22.3118 223.961 22.0669 223.961 21.7799C223.961 21.4946 223.997 21.251 224.069 21.0491C224.142 20.8463 224.247 20.6916 224.384 20.585C224.521 20.4776 224.686 20.4239 224.879 20.4239C225.071 20.4239 225.236 20.4776 225.372 20.585C225.51 20.6916 225.615 20.8463 225.687 21.0491C225.76 21.251 225.797 21.4946 225.797 21.7799C225.797 22.0669 225.76 22.3118 225.688 22.5146C225.616 22.7165 225.512 22.8707 225.375 22.9773C225.238 23.083 225.073 23.1358 224.879 23.1358ZM224.879 22.8523C225.071 22.8523 225.221 22.7595 225.327 22.5739C225.434 22.3882 225.487 22.1236 225.487 21.7799C225.487 21.5513 225.463 21.3567 225.414 21.196C225.366 21.0353 225.296 20.9129 225.205 20.8287C225.115 20.7444 225.006 20.7023 224.879 20.7023C224.688 20.7023 224.539 20.7964 224.432 20.9846C224.324 21.1719 224.27 21.437 224.27 21.7799C224.27 22.0084 224.295 22.2026 224.343 22.3625C224.391 22.5223 224.46 22.6439 224.55 22.7272C224.641 22.8106 224.751 22.8523 224.879 22.8523ZM227.354 23.0997V20.46H228.245C228.453 20.46 228.622 20.4974 228.753 20.5722C228.886 20.6461 228.984 20.7462 229.047 20.8725C229.111 20.9988 229.143 21.1397 229.143 21.2952C229.143 21.4508 229.111 21.5921 229.047 21.7193C228.984 21.8465 228.887 21.9479 228.756 22.0235C228.624 22.0982 228.456 22.1356 228.251 22.1356H227.611V21.8521H228.24C228.382 21.8521 228.496 21.8276 228.582 21.7786C228.668 21.7296 228.73 21.6634 228.769 21.5801C228.808 21.4959 228.828 21.4009 228.828 21.2952C228.828 21.1896 228.808 21.095 228.769 21.0117C228.73 20.9283 228.667 20.863 228.581 20.8158C228.494 20.7676 228.379 20.7436 228.235 20.7436H227.673V23.0997H227.354ZM229.658 20.46H230.039L230.936 22.6512H230.967L231.864 20.46H232.246V23.0997H231.947V21.0942H231.921L231.096 23.0997H230.807L229.982 21.0942H229.957V23.0997H229.658V20.46Z" fill="white"/>
<path d="M357.42 25.6964H294.614C293.22 25.6964 292.092 24.5662 292.092 23.1738C292.092 21.7799 293.222 20.6512 294.614 20.6512H357.42C358.814 20.6512 359.942 21.7815 359.942 23.1738C359.942 24.5662 358.814 25.6964 357.42 25.6964Z" fill="white"/>
<path d="M375.513 23.1725C375.513 24.5664 374.383 25.6951 372.991 25.6951C371.597 25.6951 370.467 24.5648 370.467 23.1725C370.467 21.7786 371.597 20.6499 372.991 20.6499C374.383 20.6499 375.513 21.7786 375.513 23.1725Z" fill="white"/>
<path d="M381.278 25.6951C382.672 25.6951 383.801 24.5657 383.801 23.1725C383.801 21.7793 382.672 20.6499 381.278 20.6499C379.885 20.6499 378.756 21.7793 378.756 23.1725C378.756 24.5657 379.885 25.6951 381.278 25.6951Z" fill="white"/>
<path d="M533.505 366.857L527.243 479.554L498.158 496.307H548.574L545.803 476.875L554.615 421.424C556.971 406.599 558.156 391.565 558.156 376.502V351.565L533.505 366.857Z" fill="#0F4C75"/>
<path d="M547.512 466.111L528.156 464.1L527.714 471.094L524.69 464.1L519.689 466.225L527.394 476.845L527.243 479.553L498.158 496.306H548.574L545.802 476.873L547.512 466.111Z" fill="#EE905B"/>
<path d="M498.218 366.857L491.956 479.554L462.869 496.307H513.285L510.514 476.875L519.326 421.424C521.682 406.599 522.867 391.565 522.867 376.502V351.565L498.218 366.857Z" fill="#1C6BA1"/>
<path d="M556.826 237.899C558.519 237.705 562.747 251.45 563.248 252.942C565.811 260.573 567.595 268.61 566.856 276.702C566.179 284.124 563.362 291.314 563.376 298.808C563.388 305.455 566.406 325.076 567.616 331.603C569.322 340.799 571.358 349.961 573.728 359.01C573.728 359.01 550.732 376.898 494.457 367.856L498.87 244.637C498.868 244.634 556.456 237.942 556.826 237.899Z" fill="#EE905B"/>
<path opacity="0.7" d="M528.833 296.951C526.545 297.764 523.733 298.254 521.909 296.654C520.063 295.035 520.259 291.934 521.705 289.95C523.151 287.967 525.486 286.857 527.76 285.931C536.168 282.51 545.156 280.513 554.222 280.054C555.957 279.966 557.746 279.943 559.368 280.562C560.99 281.182 562.422 282.593 562.57 284.323C562.712 285.975 561.658 287.544 560.293 288.485C558.928 289.425 557.285 289.854 555.68 290.267C546.864 292.538 537.405 293.986 528.833 296.951Z" fill="#EE905B"/>
<path d="M502.743 149.809L490.399 155.44C481.58 159.463 475.114 167.33 472.875 176.758L463.551 216.003L456.817 196.364C456.817 196.364 451.455 191.158 444.568 200.738L456.517 243.995C456.517 243.995 463.702 254.474 473.581 251.779C483.46 249.085 489.066 214.571 489.066 214.571C489.066 214.571 493.452 232.509 498.865 244.635C498.865 244.635 528.979 247.779 556.823 237.898C556.823 237.898 551.27 224.8 553.966 199.594C556.659 174.388 542.796 152.387 542.796 152.387L502.743 149.809Z" fill="#0F4C75"/>
<path d="M522.837 195.196C522.938 195.407 523.038 195.617 523.138 195.827C525.141 200.005 528.268 204.011 532.706 205.347C537.584 206.816 541.45 203.465 542.312 198.749C542.745 196.383 542.514 193.953 542.282 191.56C541.214 180.529 540.145 169.497 539.077 158.466C538.61 153.646 537.777 148.183 533.756 145.486C531.077 143.69 527.628 143.619 524.41 143.795C520.871 143.988 517.171 144.467 514.286 146.526C507.491 151.372 511.54 162.252 513.202 168.638C515.552 177.669 518.836 186.743 522.837 195.196Z" fill="#FAC4BB"/>
<path d="M487.916 220.566L487.817 220.511C473.697 217.535 465.11 209.438 465.11 209.438L463.551 216.002L456.817 196.363C456.817 196.363 451.455 191.157 444.568 200.737L456.517 243.994C456.517 243.994 463.702 254.473 473.581 251.778C480.854 249.795 485.807 230.572 487.916 220.566Z" fill="#FAC4BB"/>
<path d="M501.647 111.561C501.647 111.561 494.181 112.58 494.451 105.54C494.451 105.54 487.042 109.505 483.713 105.54C483.713 105.54 483.416 108.033 483.104 111.858C482.948 113.855 482.779 116.193 482.637 118.729C482.509 121.266 482.396 123.999 482.383 126.747C482.255 137.895 483.374 149.398 488.333 150.022C498.065 151.27 502.159 146.183 502.159 146.183L502.145 146.169C501.946 145.73 496.408 134.17 503.689 124.622C511.125 114.89 501.647 111.561 501.647 111.561Z" fill="#FAC4BB"/>
<path d="M465.837 206.366C465.578 210.09 464.858 213.706 464.033 217.297C463.16 220.876 462.175 224.428 460.729 227.871C460.984 224.146 461.703 220.53 462.533 216.941C463.41 213.362 464.395 209.809 465.837 206.366Z" fill="#263238"/>
<path d="M463.516 181.703L447.561 186.463C445.881 186.964 444.112 186.008 443.613 184.329L432.381 146.682C431.88 145.001 432.836 143.234 434.515 142.731L450.47 137.971C452.15 137.47 453.917 138.426 454.418 140.105L465.65 177.753C466.151 179.433 465.195 181.202 463.516 181.703Z" fill="#0F4C75"/>
<path d="M461.422 176.679L446.568 181.111C446.055 181.264 445.517 180.972 445.363 180.46L435.695 148.057C435.542 147.543 435.834 147.004 436.346 146.851L451.199 142.42C451.712 142.267 452.252 142.558 452.405 143.072L462.072 175.475C462.225 175.987 461.934 176.527 461.422 176.679Z" fill="white"/>
<path d="M444.576 200.74L436.895 175.978C436.895 175.978 451.643 174.111 452.394 165.66C452.394 165.66 458.144 174.549 448.352 178.158C448.352 178.158 457.826 181.116 456.827 196.365L444.576 200.74Z" fill="#FAC4BB"/>
<path d="M512.679 463.244L492.867 460.726L492.596 468.019L487.817 460.726L481.318 462.975L492.186 475.38L491.954 479.554L462.869 496.307H513.284L510.513 476.874L512.679 463.244Z" fill="#EE905B"/>
<path d="M487.277 223.48C487.646 218.276 488.475 213.146 489.416 208.042C490.403 202.948 491.505 197.873 493.066 192.907C492.697 198.132 491.869 203.248 490.927 208.345C489.939 213.431 488.838 218.493 487.277 223.48Z" fill="white"/>
<path d="M498.325 244.792C495.287 249.489 492.041 254.294 491.011 259.787C490.515 262.497 490.555 265.335 491.429 267.916C492.277 270.508 494.01 272.721 496.237 274.278C500.749 277.392 506.406 278.465 511.917 278.981C517.471 279.504 523.083 279.333 528.597 278.525C534.116 277.758 539.549 276.345 544.726 274.275C549.889 272.212 554.808 269.42 558.774 265.563C562.681 261.736 565.538 256.517 565.543 250.962C565.574 248.214 564.832 245.435 563.258 243.141C561.697 240.836 559.378 239.092 556.836 237.898C559.443 238.938 561.892 240.581 563.591 242.903C565.312 245.199 566.215 248.075 566.3 250.951C566.451 256.779 563.591 262.305 559.617 266.399C555.611 270.559 550.494 273.404 545.256 275.577C539.986 277.732 534.45 279.228 528.816 280.051C523.176 280.83 517.446 280.956 511.784 280.377C508.959 280.084 506.124 279.664 503.357 278.889C500.599 278.118 497.882 276.989 495.542 275.231C493.192 273.506 491.343 271.019 490.509 268.214C489.645 265.419 489.678 262.436 490.277 259.638C491.608 253.998 495.008 249.299 498.325 244.792Z" fill="#0F4C75"/>
<path d="M498.861 244.634C497.473 246.039 496.508 247.841 496.28 249.767C496.047 251.693 496.434 253.636 497.091 255.447C498.304 259.154 501.001 262.147 504.268 264.164C507.539 266.191 511.287 267.368 515.128 267.826C518.97 268.291 522.891 268.119 526.737 267.536C534.427 266.478 541.963 263.604 547.975 258.673C554.013 253.776 557.048 245.766 556.817 237.897C557.231 241.829 556.775 245.88 555.455 249.665C554.098 253.437 551.784 256.894 548.746 259.573C542.657 264.89 534.844 267.855 526.958 269.059C522.993 269.611 518.947 269.745 514.949 269.214C510.974 268.674 506.984 267.459 503.624 265.152C500.265 262.923 497.481 259.59 496.377 255.683C495.803 253.759 495.515 251.699 495.877 249.702C496.223 247.698 497.364 245.914 498.861 244.634Z" fill="#0F4C75"/>
<path d="M534.175 120.783C534.175 120.783 546.726 110.286 535.718 86.2041C524.712 62.1225 499.085 74.9281 499.085 74.9281C499.085 74.9281 483.205 61.6121 471.661 78.0027C460.13 94.4071 475.004 103.629 475.004 103.629C475.004 103.629 471.42 104.904 471.675 112.582C471.689 113.148 471.773 113.658 471.887 114.125C472.114 114.975 472.483 115.669 472.978 116.25C473.898 117.34 475.216 117.992 476.575 118.375C479.494 119.183 482.638 118.729 482.638 118.729C482.638 118.615 482.652 118.489 482.652 118.375C482.693 117.651 482.736 116.944 482.793 116.25C482.837 115.513 482.878 114.805 482.935 114.125C483.304 109.054 483.714 105.54 483.714 105.54C487.043 109.506 494.452 105.54 494.452 105.54C494.182 112.58 501.648 111.561 501.648 111.561C501.648 111.561 503.773 112.312 505.218 114.125C505.699 114.72 506.096 115.414 506.323 116.25C506.493 116.873 506.578 117.582 506.507 118.375C506.379 120.074 505.586 122.129 503.688 124.622C496.407 134.17 501.946 145.73 502.145 146.169L502.158 146.183C503.546 150.022 506.167 156.609 508.759 162.97C513.576 174.784 527.955 179.601 538.692 172.702C548.141 166.61 551.088 159.457 551.088 159.457C536.753 145.885 534.175 120.783 534.175 120.783Z" fill="#EE905B"/>
<path d="M483.096 115.187C483.039 115.895 482.984 116.661 482.927 117.454C482.87 118.134 482.828 118.842 482.785 119.579C482.728 120.272 482.686 120.982 482.657 121.703C482.643 121.817 482.629 121.944 482.629 122.058C482.501 124.594 482.388 127.328 482.375 130.076H479.059C472.898 130.076 470.375 125.712 469.342 121.703C469.159 120.966 469.017 120.245 468.932 119.579C468.804 118.8 468.749 118.077 468.705 117.454C468.635 116.094 468.692 115.187 468.692 115.187H483.096Z" fill="#0F4C75"/>
<path d="M506.331 116.249H464.324C464.196 115.471 464.141 114.748 464.098 114.125H505.225C505.708 114.72 506.104 115.414 506.331 116.249Z" fill="#0F4C75"/>
<path d="M559.827 289.485C554.954 290.856 550.082 291.993 545.219 293.198C540.343 294.357 535.515 295.611 530.578 296.735C535.11 294.46 539.956 292.909 544.855 291.7C549.767 290.535 554.758 289.659 559.827 289.485Z" fill="#1B262C"/>
<path d="M136.149 112.341C136.149 112.341 119.573 112.199 108.361 133.991C96.2935 157.445 72.235 193.782 84.9312 209.486C97.6288 225.191 122.071 209.486 122.071 209.486L143.359 148.989L136.149 112.341Z" fill="#FFDBC6"/>
<path d="M143.387 148.991L136.177 112.341C136.177 112.341 119.601 112.199 108.388 133.991C102.799 144.855 94.6421 158.481 88.752 171.541C93.7771 173.763 102.396 178.19 105.722 183.633C109.585 189.953 123.937 187.443 131.381 183.11L143.387 148.991Z" fill="#EE905B"/>
<path d="M94.6296 243.483L69.6059 332.252C68.5373 340.067 71.945 347.818 78.4256 352.313L176.075 417.735L196.293 468.399L196.356 391.736L178.741 391.07L119.846 315.657L172.589 285.042L181.87 264.487L94.6296 243.483Z" fill="#0F4C75"/>
<path d="M168.976 377.577L153.059 403.819L176.081 417.733L196.298 468.397L196.362 391.735L178.747 391.069L168.976 377.577Z" fill="#FFDBC6"/>
<path d="M181.896 264.485L179.36 275.865C176.853 287.112 174.99 289.383 170.859 300.141L102.901 472.22C102.901 472.22 94.7319 482.157 75.7324 468.158L110.353 244.443C110.353 244.443 149.576 233.211 181.896 264.485Z" fill="#1C6BA1"/>
<path d="M75.7324 468.157C94.7319 482.156 102.901 472.22 102.901 472.22L107.892 459.582L78.3768 451.075L75.7324 468.157Z" fill="#FAC4BB"/>
<path d="M206.893 125.824C206.893 125.824 180.116 107.078 144.573 110.31C109.03 113.542 105.8 174.932 105.8 174.932L94.6367 243.482C94.6367 243.482 126.948 262.869 181.877 264.485C181.877 264.485 215.899 155.877 206.893 125.824Z" fill="#EE905B"/>
<path d="M108.917 154.369C106.706 163.952 106.009 171.934 105.844 174.252C128.137 183.554 152.417 188.076 176.567 187.375L180.625 167.904C156.119 168.616 131.478 163.952 108.917 154.369Z" fill="white"/>
<path d="M145.664 128.285C147.038 129.779 149.53 130.611 151.636 130.812C159.624 131.57 167.875 128.673 173.58 123.016C174.633 121.972 175.617 120.814 176.166 119.437C176.923 117.536 176.677 115.243 174.962 113.951C173.97 113.205 172.734 112.861 171.511 112.648C165.086 111.527 158.581 113.613 152.991 116.691C150.092 118.287 146.6 120.63 145.132 123.713C144.222 125.628 144.62 127.148 145.664 128.285Z" fill="#FAC4BB"/>
<path d="M172.962 101.494V115.993C172.962 115.993 166.648 124.839 153.759 122.916L151.705 105.167L172.962 101.494Z" fill="#FAC4BB"/>
<path d="M119.009 208.387L98.1982 213.36C97.1898 213.6 96.1444 213.133 95.651 212.22L72.7551 169.821C72.0396 168.498 72.7751 166.856 74.2384 166.506L95.0496 161.533C96.058 161.292 97.1035 161.76 97.5969 162.672L120.493 205.07C121.207 206.395 120.473 208.037 119.009 208.387Z" fill="#0F4C75"/>
<path d="M120.026 81.031C120.026 81.031 107.956 77.3752 110.443 64.7392C112.93 52.1032 130.166 52.794 130.166 52.794C130.166 52.794 149.202 39.6322 165.272 48.2006C165.272 48.2006 183.302 46.0357 183.456 67.6071C183.612 89.1785 177.265 93.5652 177.265 93.5652L120.026 81.031Z" fill="#EE905B"/>
<path d="M120.217 84.6757C120.587 91.969 121.626 99.2206 123.46 106.29C125.951 115.901 130.179 126.352 136.665 125.334C148.456 123.486 165.375 117.938 170.03 104.879C170.03 104.879 179.653 103.453 179.972 91.2412C180.292 79.0277 168.923 83.0444 168.923 83.0444C168.923 83.0444 167.759 90.922 167.916 94.0413C167.916 94.0413 166.174 78.1796 160.993 74.6887L163.531 69.2427C163.531 69.2427 152.483 61.0459 138.418 67.3878C124.353 73.7297 119.596 72.4067 119.596 72.4067L120.217 84.6757Z" fill="#FAC4BB"/>
<path d="M191.425 120.004C191.425 120.004 217.274 120.004 215.658 150.699C214.61 170.622 206.05 209.768 202.1 225.119C200.066 233.023 192.028 237.783 184.127 235.737C170.942 232.323 150.213 225.537 128.902 212.946C128.902 212.946 114.362 227.486 101.438 217.792C101.438 217.792 86.8974 216.176 88.5133 203.252C88.5133 203.252 83.6671 201.636 85.283 193.558C85.283 193.558 112.368 198.843 111.505 188.409C111.505 188.409 125.672 182.249 132.134 193.558C132.134 193.558 153.136 195.174 164.445 196.79L175.269 137.774C175.269 137.774 176.885 118.389 191.425 120.004Z" fill="#FAC4BB"/>
<path d="M151.021 195.451C156.606 195.027 162.22 195.519 167.734 196.509C170.485 197.051 173.213 197.739 175.871 198.644C178.523 199.571 181.093 200.755 183.465 202.238C180.828 201.295 178.184 200.516 175.524 199.798C172.844 199.142 170.16 198.532 167.449 198.023C164.74 197.506 162.012 197.071 159.277 196.646L151.021 195.451Z" fill="#263238"/>
<path d="M215.667 150.7C217.283 120.004 191.435 120.004 191.435 120.004C176.894 118.388 175.278 137.775 175.278 137.775L166.867 183.634C166.867 183.634 191.303 185.323 208.116 198.845C211.593 182.152 215.027 162.852 215.667 150.7Z" fill="#EE905B"/>
<path d="M95.4349 170.258C95.4349 171.484 94.4419 172.477 93.2145 172.477C91.9887 172.477 90.9941 171.482 90.9941 170.258C90.9941 169.032 91.9887 168.037 93.2145 168.037C94.4419 168.037 95.4349 169.032 95.4349 170.258Z" fill="white"/>
<path d="M166.756 110.755C170.909 104.167 166.03 84.2793 165.987 84.1019C165.985 84.0988 165.985 84.0973 165.985 84.0942C165.982 84.0989 150.759 102.872 146.792 103.996C142.826 105.12 138.134 102.371 134.883 103.246C131.633 104.121 130.259 106.622 128.134 107.121C126.01 107.621 123.461 106.292 123.461 106.292C125.953 115.902 130.181 126.353 136.666 125.336C146.5 123.792 159.879 119.657 166.756 110.755Z" fill="#3B2B26"/>
<path d="M133.461 110.661L140.435 108.911L138.378 114.328L133.461 110.661Z" fill="white"/>
<path d="M133.887 95.1921C134.54 96.8682 134.854 98.6429 134.995 100.425C135.042 101.32 135.057 102.22 134.963 103.116C134.866 104.01 134.709 104.905 134.388 105.745C134.419 103.953 134.349 102.228 134.227 100.476C134.118 98.7278 133.953 96.9838 133.887 95.1921Z" fill="#263238"/>
<path d="M145.005 93.4944C145.005 94.8745 143.885 95.9939 142.505 95.9939C141.125 95.9939 140.006 94.8745 140.006 93.4944C140.006 92.1144 141.125 90.995 142.505 90.995C143.885 90.995 145.005 92.1144 145.005 93.4944Z" fill="#263238"/>
<path d="M127.628 99.62C129.009 99.62 130.128 98.5009 130.128 97.1205C130.128 95.7401 129.009 94.6211 127.628 94.6211C126.248 94.6211 125.129 95.7401 125.129 97.1205C125.129 98.5009 126.248 99.62 127.628 99.62Z" fill="#263238"/>
<path d="M136.252 82.6731C137.273 81.5398 138.773 80.9354 140.276 80.7611C141.783 80.61 143.379 80.8814 144.615 81.7742C143.107 81.7634 141.764 81.7526 140.4 81.9099C139.034 82.044 137.721 82.3401 136.252 82.6731Z" fill="#263238"/>
<path d="M127.048 83.9458C125.971 84.1832 125.133 84.4269 124.299 84.8C123.46 85.1639 122.717 85.6142 121.811 86.2463C121.928 85.1161 122.814 84.1925 123.835 83.7423C124.857 83.2982 126.137 83.2704 127.048 83.9458Z" fill="#263238"/>
<path d="M174.59 88.0216C174.314 89.5697 173.984 90.9651 173.769 92.4068C173.527 93.8439 173.409 95.2717 173.187 96.8306C172.499 95.4028 172.396 93.7714 172.627 92.2264C172.889 90.683 173.493 89.1672 174.59 88.0216Z" fill="#263238"/>
<path d="M78.0585 454.245C82.251 456.155 93.234 460.602 106.824 461.737C107.995 461.834 109.09 461.132 109.521 460.041L110.672 457.129C111.293 455.555 110.329 453.804 108.662 453.501C103.255 452.525 91.8571 450.152 80.669 445.85C79.0762 445.238 77.3246 446.259 77.064 447.946L76.5305 451.394C76.3454 452.581 76.9653 453.746 78.0585 454.245Z" fill="#73B3DE"/>
<path d="M156.308 405.674C159.623 402.474 167.789 393.887 173.829 381.66C174.348 380.607 174.097 379.332 173.24 378.53L170.953 376.393C169.716 375.236 167.732 375.491 166.842 376.931C163.949 381.603 157.563 391.337 149.457 400.167C148.302 401.424 148.611 403.429 150.085 404.289L153.096 406.05C154.132 406.656 155.443 406.508 156.308 405.674Z" fill="#EE905B"/>
<path d="M176.081 417.733H161.41C161.41 417.733 162.744 416.759 168.747 406.914L176.083 410.735L178.749 391.069L196.364 391.735L196.301 468.398L176.081 417.733Z" fill="#EE905B"/>
<path d="M75.7128 468.157L73.7161 457.642L86.3813 461.748L82.4526 469.166L102.881 472.222V496.307H25.3848L75.7128 468.157Z" fill="#EE905B"/>
<path d="M131.09 199.021L132.037 193.988C132.242 192.898 133.249 192.147 134.353 192.261L136.519 192.484C137.819 192.619 138.693 193.878 138.365 195.143L133.067 215.545C132.724 216.864 131.25 217.528 130.035 216.91L128.731 216.245C127.855 215.8 127.397 214.814 127.621 213.858L131.09 199.021Z" fill="#3B2B26"/>
<path d="M137.581 204.006C137.581 206.855 135.27 209.167 132.421 209.167C129.571 209.167 127.26 206.855 127.26 204.006C127.26 201.157 129.571 198.845 132.421 198.845C135.27 198.845 137.581 201.157 137.581 204.006Z" fill="white"/>
<path d="M166.863 183.634C167.428 177.55 168.45 171.554 169.583 165.58C170.763 159.614 172.058 153.672 173.816 147.819C173.256 153.905 172.234 159.9 171.096 165.873C169.913 171.837 168.618 177.78 166.863 183.634Z" fill="#263238"/>
<path d="M444.326 77.076V61.9174C443.223 61.1125 441.866 60.6608 440.505 60.8011C437.627 61.0971 435.256 63.9296 435.47 66.813C433.955 60.2398 426.587 55.6434 420.017 57.1699C413.447 58.6964 408.863 66.0713 410.402 72.6399L387.785 77.076H444.326Z" fill="#DEFCFF"/>
</svg>
