<svg width="232" height="308" viewBox="0 0 232 308" fill="none" xmlns="http://www.w3.org/2000/svg">
<rect width="232" height="289" rx="8" fill="#F2FBFF"/>
<path d="M44.8398 93.1797V81.7285H48.8433C49.641 81.7285 50.2989 81.8664 50.8171 82.1422C51.3352 82.4143 51.721 82.7815 51.9745 83.2437C52.228 83.7022 52.3547 84.2111 52.3547 84.7702C52.3547 85.2622 52.2671 85.6686 52.0919 85.9891C51.9205 86.3097 51.6931 86.5632 51.4098 86.7496C51.1302 86.9359 50.8264 87.0739 50.4984 87.1633V87.2752C50.8488 87.2975 51.201 87.4205 51.5552 87.6442C51.9093 87.8679 52.2056 88.1884 52.4442 88.6059C52.6828 89.0234 52.802 89.5341 52.802 90.138C52.802 90.712 52.6716 91.2283 52.4106 91.6868C52.1497 92.1453 51.7378 92.5087 51.1749 92.7771C50.6121 93.0455 49.8796 93.1797 48.9775 93.1797H44.8398ZM46.2265 91.9496H48.9775C49.8833 91.9496 50.5263 91.7744 50.9065 91.424C51.2905 91.0699 51.4825 90.6412 51.4825 90.138C51.4825 89.7503 51.3837 89.3924 51.1861 89.0644C50.9886 88.7327 50.7071 88.468 50.3418 88.2704C49.9765 88.0691 49.5441 87.9685 49.0446 87.9685H46.2265V91.9496ZM46.2265 86.7607H48.7986C49.2161 86.7607 49.5926 86.6787 49.928 86.5147C50.2673 86.3507 50.5357 86.1196 50.7332 85.8214C50.9345 85.5232 51.0352 85.1728 51.0352 84.7702C51.0352 84.267 50.86 83.8402 50.5096 83.4898C50.1592 83.1356 49.6037 82.9586 48.8433 82.9586H46.2265V86.7607Z" fill="#2F505E"/>
<path d="M54.9016 93.1797V84.5913H56.1765V85.8885H56.2659C56.4225 85.4635 56.7058 85.1187 57.1158 84.8541C57.5259 84.5894 57.9881 84.4571 58.5025 84.4571C58.5994 84.4571 58.7206 84.4589 58.866 84.4627C59.0113 84.4664 59.1213 84.472 59.1959 84.4794V85.8214C59.1511 85.8102 59.0486 85.7934 58.8883 85.7711C58.7318 85.745 58.5659 85.7319 58.3907 85.7319C57.9732 85.7319 57.6004 85.8195 57.2724 85.9947C56.9481 86.1662 56.6909 86.4048 56.5008 86.7104C56.3144 87.0124 56.2212 87.3572 56.2212 87.7448V93.1797H54.9016Z" fill="#2F505E"/>
<path d="M63.2874 93.381C62.7431 93.381 62.2492 93.2785 61.8057 93.0735C61.3621 92.8647 61.0098 92.5647 60.7489 92.1733C60.4879 91.7781 60.3575 91.301 60.3575 90.7418C60.3575 90.2498 60.4544 89.8509 60.6482 89.5453C60.8421 89.2359 61.1011 88.9936 61.4254 88.8184C61.7497 88.6432 62.1076 88.5127 62.499 88.427C62.8941 88.3375 63.2911 88.2667 63.69 88.2145C64.2118 88.1474 64.6349 88.0971 64.9592 88.0636C65.2873 88.0263 65.5258 87.9648 65.6749 87.879C65.8278 87.7933 65.9042 87.6442 65.9042 87.4317V87.387C65.9042 86.8353 65.7532 86.4066 65.4513 86.101C65.1531 85.7953 64.7002 85.6425 64.0925 85.6425C63.4626 85.6425 62.9687 85.7804 62.6108 86.0562C62.253 86.3321 62.0014 86.6266 61.856 86.9397L60.6035 86.4924C60.8272 85.9705 61.1254 85.5642 61.4981 85.2734C61.8746 84.9789 62.2847 84.7739 62.7282 84.6584C63.1756 84.5391 63.6154 84.4794 64.0478 84.4794C64.3237 84.4794 64.6405 84.513 64.9984 84.5801C65.3599 84.6435 65.7085 84.7758 66.044 84.9771C66.3832 85.1784 66.6646 85.4822 66.8883 85.8885C67.1119 86.2948 67.2238 86.839 67.2238 87.5212V93.1797H65.9042V92.0167H65.8371C65.7476 92.2031 65.5985 92.4025 65.3898 92.615C65.181 92.8275 64.9033 93.0082 64.5566 93.1573C64.21 93.3065 63.7869 93.381 63.2874 93.381ZM63.4887 92.1956C64.0105 92.1956 64.4504 92.0931 64.8083 91.8881C65.1698 91.6831 65.4419 91.4184 65.6246 91.0941C65.811 90.7698 65.9042 90.4287 65.9042 90.0709V88.8631C65.8483 88.9302 65.7252 88.9917 65.5351 89.0476C65.3488 89.0998 65.1326 89.1464 64.8865 89.1874C64.6442 89.2247 64.4075 89.2583 64.1764 89.2881C63.949 89.3142 63.7645 89.3365 63.6229 89.3552C63.2799 89.3999 62.9594 89.4726 62.6611 89.5732C62.3667 89.6702 62.1281 89.8174 61.9454 90.015C61.7665 90.2088 61.677 90.4735 61.677 90.8089C61.677 91.2674 61.8467 91.6141 62.1859 91.849C62.5288 92.0801 62.9631 92.1956 63.4887 92.1956Z" fill="#2F505E"/>
<path d="M70.9518 88.0132V93.1797H69.6323V84.5913H70.9071V85.9332H71.0189C71.2202 85.4971 71.5259 85.1467 71.9359 84.882C72.346 84.6136 72.8753 84.4794 73.5239 84.4794C74.1054 84.4794 74.6142 84.5987 75.0504 84.8373C75.4865 85.0721 75.8257 85.43 76.068 85.9108C76.3103 86.388 76.4314 86.9919 76.4314 87.7225V93.1797H75.1119V87.8119C75.1119 87.1372 74.9367 86.6116 74.5863 86.2352C74.2359 85.8549 73.755 85.6648 73.1437 85.6648C72.7225 85.6648 72.346 85.7562 72.0142 85.9388C71.6862 86.1215 71.4271 86.388 71.237 86.7384C71.0469 87.0888 70.9518 87.5137 70.9518 88.0132Z" fill="#2F505E"/>
<path d="M82.0858 93.3586C81.3701 93.3586 80.7382 93.1778 80.1903 92.8163C79.6423 92.451 79.2136 91.9366 78.9043 91.273C78.5949 90.6058 78.4402 89.8174 78.4402 88.9079C78.4402 88.0058 78.5949 87.223 78.9043 86.5595C79.2136 85.8959 79.6442 85.3834 80.1959 85.0218C80.7476 84.6602 81.385 84.4794 82.1082 84.4794C82.6673 84.4794 83.109 84.5726 83.4333 84.759C83.7613 84.9417 84.0111 85.1504 84.1826 85.3853C84.3578 85.6164 84.4938 85.8065 84.5907 85.9556H84.7026V81.7285H86.0222V93.1797H84.7473V91.8601H84.5907C84.4938 92.0167 84.3559 92.2143 84.177 92.4528C83.9981 92.6877 83.7427 92.8983 83.411 93.0847C83.0792 93.2673 82.6375 93.3586 82.0858 93.3586ZM82.2647 92.1733C82.794 92.1733 83.2413 92.0353 83.6067 91.7595C83.972 91.4799 84.2497 91.0941 84.4398 90.6021C84.6299 90.1063 84.7249 89.5341 84.7249 88.8855C84.7249 88.2443 84.6317 87.6833 84.4454 87.2025C84.259 86.7179 83.9831 86.3414 83.6178 86.073C83.2525 85.8009 82.8015 85.6648 82.2647 85.6648C81.7056 85.6648 81.2396 85.8083 80.8668 86.0954C80.4978 86.3787 80.2201 86.7645 80.0337 87.2528C79.8511 87.7374 79.7597 88.2816 79.7597 88.8855C79.7597 89.4968 79.8529 90.0522 80.0393 90.5517C80.2294 91.0475 80.509 91.4426 80.878 91.7371C81.2508 92.0279 81.713 92.1733 82.2647 92.1733Z" fill="#2F505E"/>
<path d="M88.6222 93.1797V84.5913H89.9417V93.1797H88.6222ZM89.2931 83.1599C89.0359 83.1599 88.8141 83.0723 88.6278 82.8971C88.4451 82.7219 88.3538 82.5113 88.3538 82.2652C88.3538 82.0192 88.4451 81.8086 88.6278 81.6334C88.8141 81.4582 89.0359 81.3706 89.2931 81.3706C89.5503 81.3706 89.7703 81.4582 89.9529 81.6334C90.1393 81.8086 90.2325 82.0192 90.2325 82.2652C90.2325 82.5113 90.1393 82.7219 89.9529 82.8971C89.7703 83.0723 89.5503 83.1599 89.2931 83.1599Z" fill="#2F505E"/>
<path d="M93.6782 88.0132V93.1797H92.3586V84.5913H93.6335V85.9332H93.7453C93.9466 85.4971 94.2523 85.1467 94.6623 84.882C95.0723 84.6136 95.6017 84.4794 96.2503 84.4794C96.8318 84.4794 97.3406 84.5987 97.7767 84.8373C98.2129 85.0721 98.5521 85.43 98.7944 85.9108C99.0367 86.388 99.1578 86.9919 99.1578 87.7225V93.1797H97.8382V87.8119C97.8382 87.1372 97.663 86.6116 97.3127 86.2352C96.9623 85.8549 96.4814 85.6648 95.8701 85.6648C95.4488 85.6648 95.0724 85.7562 94.7406 85.9388C94.4126 86.1215 94.1535 86.388 93.9634 86.7384C93.7733 87.0888 93.6782 87.5137 93.6782 88.0132Z" fill="#2F505E"/>
<path d="M105.036 96.5793C104.398 96.5793 103.85 96.4973 103.392 96.3333C102.933 96.173 102.551 95.9605 102.246 95.6959C101.944 95.4349 101.703 95.1554 101.524 94.8571L102.576 94.1191C102.695 94.2756 102.846 94.4546 103.028 94.6559C103.211 94.8609 103.461 95.0379 103.778 95.187C104.098 95.3399 104.518 95.4163 105.036 95.4163C105.729 95.4163 106.301 95.2485 106.752 94.9131C107.203 94.5776 107.429 94.052 107.429 93.3363V91.5917H107.317C107.22 91.7483 107.082 91.9421 106.903 92.1733C106.728 92.4006 106.475 92.6038 106.143 92.7827C105.815 92.9579 105.371 93.0455 104.812 93.0455C104.119 93.0455 103.496 92.8815 102.945 92.5535C102.397 92.2254 101.962 91.7483 101.642 91.1221C101.325 90.4958 101.167 89.7354 101.167 88.8408C101.167 87.961 101.321 87.195 101.631 86.5427C101.94 85.8866 102.371 85.3797 102.922 85.0218C103.474 84.6602 104.111 84.4794 104.835 84.4794C105.394 84.4794 105.837 84.5726 106.165 84.759C106.497 84.9417 106.751 85.1504 106.926 85.3853C107.105 85.6164 107.243 85.8065 107.339 85.9556H107.474V84.5913H108.749V93.4257C108.749 94.1638 108.581 94.764 108.245 95.2262C107.914 95.6921 107.466 96.0332 106.903 96.2494C106.344 96.4693 105.722 96.5793 105.036 96.5793ZM104.991 91.8601C105.52 91.8601 105.968 91.739 106.333 91.4967C106.698 91.2544 106.976 90.9059 107.166 90.4511C107.356 89.9963 107.451 89.4521 107.451 88.8184C107.451 88.1996 107.358 87.6535 107.172 87.1801C106.985 86.7067 106.71 86.3358 106.344 86.0674C105.979 85.799 105.528 85.6648 104.991 85.6648C104.432 85.6648 103.966 85.8065 103.593 86.0898C103.224 86.3731 102.946 86.7533 102.76 87.2304C102.577 87.7076 102.486 88.2369 102.486 88.8184C102.486 89.4148 102.579 89.9423 102.766 90.4008C102.956 90.8555 103.235 91.2134 103.604 91.4743C103.977 91.7315 104.439 91.8601 104.991 91.8601Z" fill="#2F505E"/>
<path d="M124.986 85.307H123.599C123.517 84.9081 123.374 84.5577 123.169 84.2558C122.968 83.9538 122.722 83.7004 122.431 83.4954C122.144 83.2866 121.825 83.13 121.475 83.0257C121.124 82.9213 120.759 82.8691 120.379 82.8691C119.685 82.8691 119.057 83.0443 118.494 83.3947C117.935 83.7451 117.49 84.2614 117.158 84.9435C116.83 85.6257 116.666 86.4625 116.666 87.4541C116.666 88.4456 116.83 89.2825 117.158 89.9646C117.49 90.6468 117.935 91.1631 118.494 91.5135C119.057 91.8639 119.685 92.0391 120.379 92.0391C120.759 92.0391 121.124 91.9869 121.475 91.8825C121.825 91.7781 122.144 91.6234 122.431 91.4184C122.722 91.2097 122.968 90.9543 123.169 90.6524C123.374 90.3467 123.517 89.9963 123.599 89.6012H124.986C124.882 90.1864 124.692 90.7102 124.416 91.1724C124.14 91.6346 123.797 92.0279 123.387 92.3522C122.977 92.6728 122.517 92.9169 122.006 93.0847C121.499 93.2524 120.957 93.3363 120.379 93.3363C119.402 93.3363 118.534 93.0977 117.773 92.6206C117.013 92.1434 116.414 91.465 115.978 90.5853C115.542 89.7056 115.324 88.6618 115.324 87.4541C115.324 86.2463 115.542 85.2026 115.978 84.3229C116.414 83.4432 117.013 82.7647 117.773 82.2876C118.534 81.8105 119.402 81.5719 120.379 81.5719C120.957 81.5719 121.499 81.6558 122.006 81.8235C122.517 81.9913 122.977 82.2373 123.387 82.5616C123.797 82.8822 124.14 83.2736 124.416 83.7358C124.692 84.1943 124.882 84.718 124.986 85.307Z" fill="#2F505E"/>
<path d="M129.575 93.381C129.031 93.381 128.537 93.2785 128.093 93.0735C127.65 92.8647 127.298 92.5647 127.037 92.1733C126.776 91.7781 126.645 91.301 126.645 90.7418C126.645 90.2498 126.742 89.8509 126.936 89.5453C127.13 89.2359 127.389 88.9936 127.713 88.8184C128.038 88.6432 128.395 88.5127 128.787 88.427C129.182 88.3375 129.579 88.2667 129.978 88.2145C130.5 88.1474 130.923 88.0971 131.247 88.0636C131.575 88.0263 131.814 87.9648 131.963 87.879C132.116 87.7933 132.192 87.6442 132.192 87.4317V87.387C132.192 86.8353 132.041 86.4066 131.739 86.101C131.441 85.7953 130.988 85.6425 130.38 85.6425C129.75 85.6425 129.257 85.7804 128.899 86.0562C128.541 86.3321 128.289 86.6266 128.144 86.9397L126.891 86.4924C127.115 85.9705 127.413 85.5642 127.786 85.2734C128.162 84.9789 128.573 84.7739 129.016 84.6584C129.463 84.5391 129.903 84.4794 130.336 84.4794C130.612 84.4794 130.928 84.513 131.286 84.5801C131.648 84.6435 131.996 84.7758 132.332 84.9771C132.671 85.1784 132.952 85.4822 133.176 85.8885C133.4 86.2948 133.512 86.839 133.512 87.5212V93.1797H132.192V92.0167H132.125C132.035 92.2031 131.886 92.4025 131.678 92.615C131.469 92.8275 131.191 93.0082 130.844 93.1573C130.498 93.3065 130.075 93.381 129.575 93.381ZM129.777 92.1956C130.298 92.1956 130.738 92.0931 131.096 91.8881C131.458 91.6831 131.73 91.4184 131.912 91.0941C132.099 90.7698 132.192 90.4287 132.192 90.0709V88.8631C132.136 88.9302 132.013 88.9917 131.823 89.0476C131.637 89.0998 131.42 89.1464 131.174 89.1874C130.932 89.2247 130.695 89.2583 130.464 89.2881C130.237 89.3142 130.052 89.3365 129.911 89.3552C129.568 89.3999 129.247 89.4726 128.949 89.5732C128.655 89.6702 128.416 89.8174 128.233 90.015C128.054 90.2088 127.965 90.4735 127.965 90.8089C127.965 91.2674 128.135 91.6141 128.474 91.849C128.817 92.0801 129.251 92.1956 129.777 92.1956Z" fill="#2F505E"/>
<path d="M135.92 93.1797V84.5913H137.195V85.9332H137.307C137.486 85.4747 137.775 85.1187 138.173 84.8653C138.572 84.608 139.051 84.4794 139.61 84.4794C140.177 84.4794 140.649 84.608 141.025 84.8653C141.405 85.1187 141.702 85.4747 141.914 85.9332H142.004C142.224 85.4896 142.553 85.1374 142.993 84.8764C143.433 84.6118 143.961 84.4794 144.576 84.4794C145.344 84.4794 145.972 84.7199 146.46 85.2007C146.948 85.6779 147.192 86.4215 147.192 87.4317V93.1797H145.873V87.4317C145.873 86.798 145.7 86.3451 145.353 86.073C145.006 85.8009 144.598 85.6648 144.128 85.6648C143.524 85.6648 143.057 85.8475 142.725 86.2128C142.393 86.5744 142.227 87.0329 142.227 87.5883V93.1797H140.885V87.2975C140.885 86.8092 140.727 86.4159 140.41 86.1177C140.093 85.8158 139.685 85.6648 139.186 85.6648C138.843 85.6648 138.522 85.7562 138.224 85.9388C137.929 86.1215 137.691 86.3749 137.508 86.6992C137.329 87.0198 137.24 87.3907 137.24 87.8119V93.1797H135.92Z" fill="#2F505E"/>
<path d="M149.605 96.4004V84.5913H150.88V85.9556H151.037C151.133 85.8065 151.268 85.6164 151.439 85.3853C151.614 85.1504 151.864 84.9417 152.188 84.759C152.516 84.5726 152.96 84.4794 153.519 84.4794C154.242 84.4794 154.88 84.6602 155.431 85.0218C155.983 85.3834 156.414 85.8959 156.723 86.5595C157.032 87.223 157.187 88.0058 157.187 88.9079C157.187 89.8174 157.032 90.6058 156.723 91.273C156.414 91.9366 155.985 92.451 155.437 92.8163C154.889 93.1778 154.257 93.3586 153.542 93.3586C152.99 93.3586 152.548 93.2673 152.216 93.0847C151.885 92.8983 151.629 92.6877 151.45 92.4528C151.271 92.2143 151.133 92.0167 151.037 91.8601H150.925V96.4004H149.605ZM150.902 88.8855C150.902 89.5341 150.997 90.1063 151.188 90.6021C151.378 91.0941 151.655 91.4799 152.021 91.7595C152.386 92.0353 152.833 92.1733 153.363 92.1733C153.914 92.1733 154.375 92.0279 154.744 91.7371C155.116 91.4426 155.396 91.0475 155.582 90.5517C155.772 90.0522 155.868 89.4968 155.868 88.8855C155.868 88.2816 155.774 87.7374 155.588 87.2528C155.405 86.7645 155.128 86.3787 154.755 86.0954C154.386 85.8083 153.922 85.6648 153.363 85.6648C152.826 85.6648 152.375 85.8009 152.009 86.073C151.644 86.3414 151.368 86.7179 151.182 87.2025C150.996 87.6833 150.902 88.2443 150.902 88.8855Z" fill="#2F505E"/>
<path d="M161.727 93.381C161.183 93.381 160.689 93.2785 160.246 93.0735C159.802 92.8647 159.45 92.5647 159.189 92.1733C158.928 91.7781 158.797 91.301 158.797 90.7418C158.797 90.2498 158.894 89.8509 159.088 89.5453C159.282 89.2359 159.541 88.9936 159.865 88.8184C160.19 88.6432 160.548 88.5127 160.939 88.427C161.334 88.3375 161.731 88.2667 162.13 88.2145C162.652 88.1474 163.075 88.0971 163.399 88.0636C163.727 88.0263 163.966 87.9648 164.115 87.879C164.268 87.7933 164.344 87.6442 164.344 87.4317V87.387C164.344 86.8353 164.193 86.4066 163.891 86.101C163.593 85.7953 163.14 85.6425 162.533 85.6425C161.903 85.6425 161.409 85.7804 161.051 86.0562C160.693 86.3321 160.441 86.6266 160.296 86.9397L159.043 86.4924C159.267 85.9705 159.565 85.5642 159.938 85.2734C160.315 84.9789 160.725 84.7739 161.168 84.6584C161.616 84.5391 162.055 84.4794 162.488 84.4794C162.764 84.4794 163.08 84.513 163.438 84.5801C163.8 84.6435 164.148 84.7758 164.484 84.9771C164.823 85.1784 165.105 85.4822 165.328 85.8885C165.552 86.2948 165.664 86.839 165.664 87.5212V93.1797H164.344V92.0167H164.277C164.188 92.2031 164.038 92.4025 163.83 92.615C163.621 92.8275 163.343 93.0082 162.997 93.1573C162.65 93.3065 162.227 93.381 161.727 93.381ZM161.929 92.1956C162.451 92.1956 162.89 92.0931 163.248 91.8881C163.61 91.6831 163.882 91.4184 164.065 91.0941C164.251 90.7698 164.344 90.4287 164.344 90.0709V88.8631C164.288 88.9302 164.165 88.9917 163.975 89.0476C163.789 89.0998 163.573 89.1464 163.327 89.1874C163.084 89.2247 162.848 89.2583 162.616 89.2881C162.389 89.3142 162.205 89.3365 162.063 89.3552C161.72 89.3999 161.399 89.4726 161.101 89.5732C160.807 89.6702 160.568 89.8174 160.385 90.015C160.207 90.2088 160.117 90.4735 160.117 90.8089C160.117 91.2674 160.287 91.6141 160.626 91.849C160.969 92.0801 161.403 92.1956 161.929 92.1956Z" fill="#2F505E"/>
<path d="M168.072 93.1797V84.5913H169.392V93.1797H168.072ZM168.743 83.1599C168.486 83.1599 168.264 83.0723 168.078 82.8971C167.895 82.7219 167.804 82.5113 167.804 82.2652C167.804 82.0192 167.895 81.8086 168.078 81.6334C168.264 81.4582 168.486 81.3706 168.743 81.3706C169 81.3706 169.22 81.4582 169.403 81.6334C169.589 81.8086 169.683 82.0192 169.683 82.2652C169.683 82.5113 169.589 82.7219 169.403 82.8971C169.22 83.0723 169 83.1599 168.743 83.1599Z" fill="#2F505E"/>
<path d="M175.275 96.5793C174.638 96.5793 174.09 96.4973 173.632 96.3333C173.173 96.173 172.791 95.9605 172.485 95.6959C172.183 95.4349 171.943 95.1554 171.764 94.8571L172.815 94.1191C172.934 94.2756 173.085 94.4546 173.268 94.6559C173.451 94.8609 173.701 95.0379 174.017 95.187C174.338 95.3399 174.757 95.4163 175.275 95.4163C175.969 95.4163 176.541 95.2485 176.992 94.9131C177.443 94.5776 177.669 94.052 177.669 93.3363V91.5917H177.557C177.46 91.7483 177.322 91.9421 177.143 92.1733C176.968 92.4006 176.714 92.6038 176.383 92.7827C176.055 92.9579 175.611 93.0455 175.052 93.0455C174.358 93.0455 173.736 92.8815 173.184 92.5535C172.636 92.2254 172.202 91.7483 171.881 91.1221C171.565 90.4958 171.406 89.7354 171.406 88.8408C171.406 87.961 171.561 87.195 171.87 86.5427C172.18 85.8866 172.61 85.3797 173.162 85.0218C173.714 84.6602 174.351 84.4794 175.074 84.4794C175.633 84.4794 176.077 84.5726 176.405 84.759C176.737 84.9417 176.99 85.1504 177.165 85.3853C177.344 85.6164 177.482 85.8065 177.579 85.9556H177.713V84.5913H178.988V93.4257C178.988 94.1638 178.82 94.764 178.485 95.2262C178.153 95.6921 177.706 96.0332 177.143 96.2494C176.584 96.4693 175.961 96.5793 175.275 96.5793ZM175.231 91.8601C175.76 91.8601 176.207 91.739 176.573 91.4967C176.938 91.2544 177.216 90.9059 177.406 90.4511C177.596 89.9963 177.691 89.4521 177.691 88.8184C177.691 88.1996 177.598 87.6535 177.411 87.1801C177.225 86.7067 176.949 86.3358 176.584 86.0674C176.218 85.799 175.767 85.6648 175.231 85.6648C174.672 85.6648 174.206 85.8065 173.833 86.0898C173.464 86.3731 173.186 86.7533 173 87.2304C172.817 87.7076 172.726 88.2369 172.726 88.8184C172.726 89.4148 172.819 89.9423 173.005 90.4008C173.195 90.8555 173.475 91.2134 173.844 91.4743C174.217 91.7315 174.679 91.8601 175.231 91.8601Z" fill="#2F505E"/>
<path d="M182.723 88.0132V93.1797H181.404V84.5913H182.678V85.9332H182.79C182.992 85.4971 183.297 85.1467 183.707 84.882C184.117 84.6136 184.647 84.4794 185.295 84.4794C185.877 84.4794 186.386 84.5987 186.822 84.8373C187.258 85.0721 187.597 85.43 187.839 85.9108C188.082 86.388 188.203 86.9919 188.203 87.7225V93.1797H186.883V87.8119C186.883 87.1372 186.708 86.6116 186.358 86.2352C186.007 85.8549 185.526 85.6648 184.915 85.6648C184.494 85.6648 184.117 85.7562 183.786 85.9388C183.458 86.1215 183.198 86.388 183.008 86.7384C182.818 87.0888 182.723 87.5137 182.723 88.0132Z" fill="#2F505E"/>
<path d="M174 250C206.033 217.968 206.033 166.033 174 134C141.967 101.967 90.0325 101.967 58 134C25.9675 166.033 25.9675 217.967 58 250C90.0325 282.033 141.967 282.033 174 250Z" fill="#CFF0FF"/>
<path d="M144.262 126.574C144.657 125.258 145.447 124.073 146.5 123.152C148.474 121.507 149.724 119.006 149.724 116.242C149.724 111.109 145.447 106.897 140.182 107.161C135.51 107.358 131.693 111.307 131.561 115.979C131.495 118.875 132.746 121.441 134.786 123.152C135.904 124.074 136.694 125.258 137.089 126.574H144.262Z" fill="#FED732"/>
<path d="M139.784 126.704H140.376L137.744 116.899C137.81 116.899 137.875 116.899 137.941 116.899C138.27 116.899 138.599 116.768 138.863 116.504C138.994 116.373 139.126 116.307 139.323 116.307C139.521 116.307 139.652 116.373 139.784 116.504C140.244 117.031 141.034 117.031 141.495 116.504C141.626 116.373 141.758 116.307 141.955 116.307C142.087 116.307 142.284 116.373 142.416 116.504C142.679 116.768 142.942 116.899 143.337 116.899C143.403 116.899 143.469 116.899 143.535 116.899L140.968 126.704H141.56L144.258 116.438C144.258 116.307 144.258 116.175 144.127 116.109C143.995 116.043 143.864 116.109 143.798 116.175C143.666 116.307 143.535 116.372 143.403 116.372C143.206 116.372 143.074 116.307 142.877 116.175C142.614 115.912 142.35 115.78 142.021 115.78C141.692 115.78 141.428 115.912 141.165 116.175C140.902 116.438 140.507 116.438 140.244 116.175C140.046 115.912 139.717 115.78 139.388 115.78C139.059 115.78 138.73 115.912 138.532 116.175C138.401 116.307 138.203 116.372 138.006 116.372C137.874 116.372 137.677 116.307 137.611 116.175C137.546 116.109 137.414 116.043 137.282 116.109C137.151 116.175 137.085 116.307 137.151 116.438L139.784 126.704Z" fill="white"/>
<path d="M138.605 132.627C138.934 133.417 139.724 134.009 140.645 134.009C141.567 134.009 142.356 133.417 142.685 132.627H138.605Z" fill="#344A5E"/>
<path d="M143.078 132.693H138.275C137.617 132.693 137.09 132.166 137.09 131.508V126.507H144.263V131.508C144.263 132.166 143.736 132.693 143.078 132.693Z" fill="#344A5E"/>
<path d="M144.194 129.009H137.087C136.692 129.009 136.363 128.68 136.363 128.285C136.363 127.89 136.692 127.561 137.087 127.561H144.194C144.589 127.561 144.919 127.89 144.919 128.285C144.919 128.68 144.59 129.009 144.194 129.009Z" fill="#415A6B"/>
<path d="M144.194 131.312H137.087C136.692 131.312 136.363 130.983 136.363 130.588C136.363 130.193 136.692 129.865 137.087 129.865H144.194C144.589 129.865 144.919 130.193 144.919 130.588C144.919 130.982 144.59 131.312 144.194 131.312Z" fill="#415A6B"/>
<path d="M140.634 102.422C140.305 102.422 139.977 102.685 139.977 103.08V105.317C139.977 105.646 140.24 105.975 140.634 105.975C141.029 105.975 141.293 105.712 141.293 105.317V103.08C141.293 102.685 140.963 102.422 140.634 102.422Z" fill="#FED732"/>
<path d="M131.821 106.435C131.558 106.172 131.164 106.172 130.9 106.435C130.637 106.698 130.637 107.094 130.9 107.357L132.48 108.936C132.743 109.199 133.138 109.199 133.401 108.936C133.665 108.673 133.665 108.278 133.401 108.015L131.821 106.435Z" fill="#FED732"/>
<path d="M129.782 115.517H127.545C127.216 115.517 126.887 115.78 126.887 116.175C126.887 116.504 127.15 116.834 127.545 116.834H129.782C130.111 116.834 130.44 116.571 130.44 116.175C130.441 115.847 130.111 115.517 129.782 115.517Z" fill="#FED732"/>
<path d="M132.48 123.414L130.9 124.994C130.637 125.257 130.637 125.652 130.9 125.915C131.164 126.178 131.558 126.178 131.822 125.915L133.401 124.335C133.665 124.072 133.665 123.678 133.401 123.414C133.138 123.151 132.743 123.151 132.48 123.414Z" fill="#FFD15C"/>
<path d="M148.803 123.414C148.54 123.151 148.145 123.151 147.881 123.414C147.617 123.677 147.618 124.072 147.881 124.336L149.461 125.915C149.724 126.178 150.118 126.178 150.382 125.915C150.645 125.652 150.645 125.257 150.382 124.994L148.803 123.414Z" fill="#FED732"/>
<path d="M153.743 115.517H151.506C151.177 115.517 150.848 115.78 150.848 116.175C150.848 116.504 151.111 116.834 151.506 116.834H153.743C154.072 116.834 154.401 116.571 154.401 116.175C154.401 115.847 154.137 115.517 153.743 115.517Z" fill="#FED732"/>
<path d="M149.46 106.435L147.881 108.015C147.618 108.278 147.618 108.672 147.881 108.936C148.144 109.199 148.539 109.199 148.802 108.936L150.382 107.357C150.645 107.094 150.645 106.699 150.382 106.435C150.118 106.172 149.723 106.172 149.46 106.435Z" fill="#FED732"/>
<path d="M186.771 153.691C194.122 149.61 196.772 140.343 192.691 132.992C188.61 125.642 179.343 122.991 171.993 127.072C164.642 131.153 161.992 140.42 166.073 147.771C170.154 155.121 179.421 157.772 186.771 153.691Z" fill="#FED732"/>
<path opacity="0.1" d="M188.091 136.58L187.943 148.41C187.778 148.233 168.797 148.17 168.797 148.17L177.405 155.479C177.981 155.554 178.567 155.6 179.162 155.609C186.783 155.72 193.177 150.211 194.397 142.917C192.249 140.831 188.091 136.58 188.091 136.58Z" fill="black"/>
<path d="M187.597 130.73C187.593 130.706 187.584 130.685 187.578 130.662C187.57 130.634 187.564 130.606 187.553 130.579C187.543 130.552 187.528 130.528 187.515 130.503C187.503 130.481 187.494 130.459 187.481 130.439C187.453 130.395 187.421 130.355 187.384 130.317C187.384 130.317 187.383 130.316 187.382 130.315C187.381 130.314 187.379 130.313 187.377 130.311C187.342 130.275 187.303 130.242 187.26 130.213C187.24 130.2 187.218 130.19 187.197 130.178C187.172 130.164 187.149 130.149 187.123 130.138C187.096 130.127 187.069 130.12 187.041 130.112C187.018 130.105 186.996 130.095 186.973 130.091C186.923 130.08 186.872 130.075 186.821 130.074C186.819 130.074 186.817 130.073 186.815 130.073L184.676 130.046C184.231 130.041 183.866 130.397 183.86 130.843C183.854 131.288 184.211 131.653 184.656 131.659L184.849 131.661L182.475 133.976L180.485 131.936C180.174 131.617 179.664 131.61 179.345 131.921L175.467 135.704L173.857 134.053C173.559 133.747 173.024 133.74 172.718 134.039L169.599 137.08C169.28 137.391 169.273 137.902 169.584 138.22C169.74 138.38 169.945 138.461 170.151 138.463C170.357 138.466 170.565 138.39 170.724 138.234L173.266 135.755L174.876 137.406C175.186 137.724 175.697 137.731 176.016 137.42L179.894 133.638L181.884 135.678C182.183 135.985 182.718 135.991 183.024 135.693L185.974 132.815L185.972 133.008C185.966 133.453 186.323 133.818 186.768 133.824C187.213 133.83 187.579 133.473 187.584 133.028L187.611 130.889C187.612 130.835 187.607 130.782 187.597 130.73Z" fill="#2D404E"/>
<path d="M168.881 141.142L168.793 148.173L172.335 148.218L172.423 141.186L168.881 141.142Z" fill="#07ADA5"/>
<path d="M174.044 144.097L173.992 148.237L177.535 148.282L177.586 144.142L174.044 144.097Z" fill="#EF5214"/>
<path d="M179.31 138.816L179.191 148.302L182.734 148.346L182.852 138.86L179.31 138.816Z" fill="#FEFEFE"/>
<path d="M184.535 136.538L184.387 148.368L187.929 148.412L188.077 136.582L184.535 136.538Z" fill="#00D1CA"/>
<path d="M24.8787 177.336H6.85896C4.49939 177.336 2.58594 175.422 2.58594 173.063V155.043C2.58594 152.683 4.49939 150.77 6.85896 150.77H24.8787C27.2383 150.77 29.1518 152.683 29.1518 155.043V173.063C29.1518 175.422 27.2388 177.336 24.8787 177.336Z" fill="#00D1CA"/>
<path d="M25.062 157.922H15.8663C15.5837 157.922 15.3555 157.694 15.3555 157.411C15.3555 157.129 15.5837 156.9 15.8663 156.9H25.062C25.3447 156.9 25.5729 157.129 25.5729 157.411C25.5729 157.693 25.3447 157.922 25.062 157.922Z" fill="white"/>
<path d="M25.062 165.074H15.8663C15.5837 165.074 15.3555 164.846 15.3555 164.563C15.3555 164.28 15.5837 164.052 15.8663 164.052H25.062C25.3447 164.052 25.5729 164.28 25.5729 164.563C25.5729 164.846 25.3447 165.074 25.062 165.074Z" fill="white"/>
<path d="M25.062 172.226H15.8663C15.5837 172.226 15.3555 171.998 15.3555 171.715C15.3555 171.433 15.5837 171.205 15.8663 171.205H25.062C25.3447 171.205 25.5729 171.433 25.5729 171.715C25.5729 171.998 25.3447 172.226 25.062 172.226Z" fill="white"/>
<path d="M8.75593 159.455C8.64902 159.455 8.54161 159.422 8.45012 159.353L6.11471 157.601C5.88908 157.431 5.84283 157.111 6.01243 156.886C6.18204 156.66 6.50223 156.614 6.72734 156.783L8.67986 158.248L11.8725 154.525C12.0555 154.31 12.3793 154.286 12.5926 154.47C12.8069 154.653 12.8321 154.975 12.6476 155.19L9.14448 159.277C9.04374 159.394 8.90086 159.455 8.75593 159.455Z" fill="white"/>
<path d="M8.75593 166.608C8.64902 166.608 8.54161 166.574 8.45012 166.505L6.11471 164.753C5.88908 164.584 5.84283 164.264 6.01243 164.038C6.18204 163.812 6.50223 163.767 6.72734 163.936L8.67986 165.4L11.872 161.677C12.055 161.462 12.3788 161.438 12.5921 161.622C12.8064 161.806 12.8316 162.128 12.6471 162.342L9.14396 166.429C9.04374 166.547 8.90086 166.608 8.75593 166.608Z" fill="white"/>
<path d="M8.75593 174.27C8.64902 174.27 8.54161 174.236 8.45012 174.168L6.11471 172.415C5.88908 172.246 5.84283 171.926 6.01243 171.701C6.18204 171.474 6.50223 171.429 6.72734 171.598L8.67986 173.063L11.872 169.34C12.055 169.126 12.3788 169.101 12.5921 169.285C12.8064 169.468 12.8316 169.791 12.6471 170.005L9.14396 174.091C9.04374 174.209 8.90086 174.27 8.75593 174.27Z" fill="white"/>
<path d="M11.7879 173.741L13.9542 181.413C14.0308 181.684 14.369 181.777 14.573 181.582L16.1653 180.062C16.3122 179.922 16.5451 179.925 16.6885 180.069L18.8661 182.17C19.0126 182.317 19.2495 182.317 19.396 182.17L20.8587 180.707C21.0052 180.561 21.0052 180.324 20.8587 180.178L18.6872 178.082C18.5408 177.936 18.5408 177.699 18.6872 177.552L20.171 176.069C20.3735 175.866 20.2831 175.52 20.0071 175.443L12.2494 173.278C11.9673 173.2 11.7088 173.46 11.7879 173.741Z" fill="#2D404E"/>
<path d="M196.578 202.341C205.915 202.341 213.484 194.772 213.484 185.435C213.484 176.098 205.915 168.529 196.578 168.529C187.241 168.529 179.672 176.098 179.672 185.435C179.672 194.772 187.241 202.341 196.578 202.341Z" fill="#00D1CA"/>
<path d="M54.7978 145.416C63.5594 145.416 70.6621 138.314 70.6621 129.552C70.6621 120.79 63.5594 113.688 54.7978 113.688C46.0363 113.688 38.9336 120.79 38.9336 129.552C38.9336 138.314 46.0363 145.416 54.7978 145.416Z" fill="#00D1CA"/>
<path d="M67.2929 132.577C68.9652 125.675 64.7262 118.725 57.8249 117.053C50.9237 115.381 43.9735 119.62 42.3013 126.521C40.6291 133.422 44.868 140.372 51.7692 142.045C58.6705 143.717 65.6207 139.478 67.2929 132.577Z" fill="white"/>
<path d="M59.4845 130.316C59.9265 130.321 60.2883 129.965 60.2919 129.523C60.296 129.081 59.9408 128.72 59.4988 128.716L54.6199 128.677L54.6055 130.278L59.4845 130.316Z" fill="#2D404E"/>
<path d="M53.8792 129.342L47.7971 133.246C47.556 133.4 47.4861 133.721 47.6408 133.962C47.7184 134.082 47.8372 134.16 47.9667 134.189C48.0962 134.217 48.237 134.196 48.3573 134.118L54.44 130.215L53.8792 129.342Z" fill="#EE3840"/>
<path d="M55.5078 122.337C55.5119 121.895 55.1568 121.533 54.7148 121.529C54.2728 121.525 53.9115 121.88 53.9074 122.322L53.8555 129.509L55.4559 129.524L55.5078 122.337Z" fill="#2D404E"/>
<path d="M54.8053 131.431C53.7687 131.431 52.9258 130.588 52.9258 129.551C52.9258 128.515 53.7692 127.672 54.8053 127.672C55.842 127.672 56.6848 128.515 56.6848 129.551C56.6848 130.588 55.842 131.431 54.8053 131.431Z" fill="#EF5214"/>
<path d="M44.8623 130.042H44.1294C43.8596 130.042 43.6406 129.824 43.6406 129.554C43.6406 129.284 43.8596 129.065 44.1294 129.065H44.8623C45.1321 129.065 45.3511 129.284 45.3511 129.554C45.3511 129.824 45.1321 130.042 44.8623 130.042Z" fill="#2D404E"/>
<path d="M54.8013 120.107C54.5314 120.107 54.3125 119.888 54.3125 119.618V118.885C54.3125 118.615 54.5314 118.396 54.8013 118.396C55.0711 118.396 55.29 118.615 55.29 118.885V119.618C55.29 119.888 55.0716 120.107 54.8013 120.107Z" fill="#2D404E"/>
<path d="M65.4678 130.042H64.7349C64.465 130.042 64.2461 129.823 64.2461 129.553C64.2461 129.284 64.465 129.065 64.7349 129.065H65.4678C65.7376 129.065 65.9565 129.284 65.9565 129.553C65.9565 129.823 65.7376 130.042 65.4678 130.042Z" fill="#2D404E"/>
<path d="M54.8013 140.711C54.5314 140.711 54.3125 140.492 54.3125 140.222V139.489C54.3125 139.219 54.5314 139 54.8013 139C55.0711 139 55.29 139.219 55.29 139.489V140.222C55.29 140.492 55.0716 140.711 54.8013 140.711Z" fill="#2D404E"/>
<path d="M116.349 221.423C116.144 221.633 115.967 221.865 115.822 222.113L115.601 221.999C115.57 221.857 115.435 221.76 115.288 221.777C115.131 221.796 115.019 221.938 115.037 222.095C115.056 222.253 115.198 222.365 115.355 222.347C115.386 222.343 115.415 222.334 115.443 222.322L115.657 222.434C115.538 222.697 115.451 222.975 115.401 223.263L115.755 223.325C115.865 222.704 116.159 222.133 116.607 221.674L116.349 221.423Z" fill="#1D262D"/>
<path d="M118.962 220.329C118.88 220.329 118.8 220.332 118.72 220.337L118.685 220.039C118.774 219.968 118.825 219.854 118.811 219.733C118.789 219.546 118.62 219.413 118.433 219.434C118.246 219.457 118.113 219.626 118.134 219.812C118.149 219.933 118.224 220.031 118.326 220.08L118.361 220.376C118.022 220.431 117.695 220.534 117.383 220.683L117.538 221.008C117.982 220.796 118.461 220.688 118.962 220.688C119.198 220.688 119.433 220.713 119.663 220.763L119.739 220.411C119.485 220.356 119.223 220.329 118.962 220.329Z" fill="#1D262D"/>
<path d="M122.1 221.539C122.257 221.519 122.369 221.376 122.35 221.219C122.33 221.062 122.187 220.95 122.03 220.969C121.883 220.987 121.775 221.114 121.778 221.259L121.58 221.431C121.382 221.227 121.157 221.045 120.911 220.89L120.719 221.195C121.258 221.535 121.679 222.015 121.937 222.585L122.265 222.437C122.146 222.173 121.995 221.927 121.818 221.702L122.009 221.535C122.039 221.541 122.069 221.543 122.1 221.539Z" fill="#1D262D"/>
<path d="M118.695 225.18C118.512 225.191 118.327 225.197 118.145 225.197C117.727 225.197 117.321 225.168 116.967 225.111C116.782 225.082 116.565 225.038 116.363 224.973C116.86 225.857 117.822 226.458 118.924 226.458C120.281 226.458 121.425 225.547 121.752 224.318C121.428 224.531 121.036 224.71 120.583 224.851C120.023 225.026 119.369 225.14 118.695 225.18Z" fill="#1D262D"/>
<path d="M118.952 221.049C117.359 221.049 116.062 222.316 116.062 223.874C116.062 224.076 116.085 224.277 116.128 224.473C116.448 224.703 117.414 224.896 118.669 224.821C120.038 224.738 121.187 224.366 121.84 223.795C121.838 223.702 121.831 223.609 121.819 223.518C121.638 222.111 120.405 221.049 118.952 221.049ZM117.926 224.145C117.441 224.145 117.047 223.751 117.047 223.266C117.047 222.781 117.441 222.387 117.926 222.387C118.411 222.387 118.805 222.781 118.805 223.266C118.805 223.751 118.41 224.145 117.926 224.145ZM120.177 223.714C119.821 223.714 119.531 223.424 119.531 223.067C119.531 222.71 119.821 222.421 120.177 222.421C120.534 222.421 120.824 222.71 120.824 223.067C120.824 223.424 120.534 223.714 120.177 223.714Z" fill="#1D262D"/>
<path d="M126.566 221.936C126.426 221.881 126.183 221.789 125.909 221.823C125.647 221.856 125.508 221.985 125.508 222.302V222.714H126.567V223.53H125.508V226.122H124.59V223.53H123.953V222.714H124.59V222.292C124.59 221.493 125.015 220.969 125.811 220.969C126.116 220.969 126.36 221.027 126.566 221.116L126.566 221.936Z" fill="#1D262D"/>
<path d="M128.8 223.52C128.716 223.506 128.63 223.498 128.549 223.498C128.124 223.498 127.832 223.759 127.832 224.265V226.123H126.914V222.714H127.804V223.087C128.019 222.767 128.346 222.623 128.764 222.623C128.961 222.623 129.167 222.683 129.284 222.782L128.8 223.52Z" fill="#1D262D"/>
<path d="M132.447 224.413C132.447 224.518 132.44 224.645 132.43 224.722H130.013C130.112 225.214 130.456 225.429 130.889 225.429C131.184 225.429 131.505 225.31 131.751 225.102L132.289 225.693C131.902 226.049 131.41 226.21 130.836 226.21C129.791 226.21 129.066 225.5 129.066 224.427C129.066 223.354 129.77 222.623 130.79 222.623C131.772 222.622 132.444 223.35 132.447 224.413ZM130.017 224.096H131.526C131.441 223.66 131.178 223.414 130.784 223.414C130.351 223.414 130.098 223.674 130.017 224.096Z" fill="#1D262D"/>
<path d="M136.088 224.413C136.088 224.518 136.081 224.645 136.07 224.722H133.654C133.752 225.214 134.097 225.429 134.53 225.429C134.825 225.429 135.145 225.31 135.391 225.102L135.93 225.693C135.543 226.049 135.05 226.21 134.477 226.21C133.432 226.21 132.707 225.5 132.707 224.427C132.707 223.354 133.411 222.623 134.43 222.623C135.412 222.622 136.084 223.35 136.088 224.413ZM133.657 224.096H135.166C135.082 223.66 134.818 223.414 134.424 223.414C133.991 223.414 133.739 223.674 133.657 224.096Z" fill="#1D262D"/>
<path d="M140.051 224.416C140.051 225.44 139.34 226.21 138.401 226.21C137.943 226.21 137.62 226.031 137.399 225.767V227.529H136.484V222.714H137.381V223.09C137.603 222.812 137.93 222.623 138.398 222.623C139.34 222.622 140.051 223.392 140.051 224.416ZM137.353 224.416C137.353 224.954 137.708 225.355 138.229 225.355C138.77 225.355 139.108 224.937 139.108 224.416C139.108 223.896 138.77 223.477 138.229 223.477C137.708 223.477 137.353 223.878 137.353 224.416Z" fill="#1D262D"/>
<path d="M141.527 221.599C141.527 221.93 141.27 222.183 140.939 222.183C140.609 222.183 140.355 221.93 140.355 221.599C140.355 221.269 140.609 221.008 140.939 221.008C141.27 221.008 141.527 221.269 141.527 221.599ZM141.404 226.123H140.486V222.714H141.404V226.123Z" fill="#1D262D"/>
<path d="M142.926 223.927L144.21 222.714H145.336L143.682 224.318L145.346 226.122H144.217L142.926 224.743V226.122H142.008V221.057H142.926L142.926 223.927Z" fill="#1D262D"/>
<path d="M80.3932 226.093V225.591C80.1424 225.933 79.7317 226.176 79.2584 226.176C78.381 226.176 77.7617 225.508 77.7617 224.415C77.7617 223.343 78.3744 222.647 79.2584 222.647C79.7106 222.647 80.1218 222.87 80.3932 223.239V221.449H80.9153V226.093H80.3932ZM80.3932 225.181V223.656C80.2051 223.364 79.8016 223.113 79.3838 223.113C78.7084 223.113 78.305 223.67 78.305 224.415C78.305 225.16 78.7089 225.71 79.3838 225.71C79.8016 225.71 80.2051 225.473 80.3932 225.181Z" fill="#1D262D"/>
<path d="M81.582 224.407C81.582 223.433 82.2779 222.646 83.2385 222.646C84.2551 222.646 84.8534 223.439 84.8534 224.449V224.581H82.1314C82.1731 225.215 82.6187 225.744 83.3428 225.744C83.7257 225.744 84.1153 225.591 84.38 225.319L84.6308 225.661C84.2967 225.995 83.8445 226.176 83.294 226.176C82.299 226.176 81.582 225.459 81.582 224.407ZM83.2318 223.077C82.5149 223.077 82.1597 223.683 82.132 224.198H84.3389C84.3317 223.697 83.9971 223.077 83.2318 223.077Z" fill="#1D262D"/>
<path d="M85.2383 225.647L85.5096 225.271C85.7322 225.528 86.1572 225.752 86.6167 225.752C87.1322 225.752 87.4103 225.508 87.4103 225.174C87.4103 224.36 85.3287 224.861 85.3287 223.615C85.3287 223.092 85.781 222.647 86.5818 222.647C87.1528 222.647 87.5562 222.863 87.8281 223.134L87.5845 223.496C87.3825 223.252 87.0135 223.071 86.5823 223.071C86.1228 223.071 85.8376 223.301 85.8376 223.6C85.8376 224.338 87.9191 223.851 87.9191 225.159C87.9191 225.723 87.4668 226.176 86.5967 226.176C86.0457 226.176 85.579 226.009 85.2383 225.647Z" fill="#1D262D"/>
<path d="M88.4961 221.902C88.4961 221.707 88.6564 221.547 88.844 221.547C89.0388 221.547 89.1992 221.706 89.1992 221.902C89.1992 222.097 89.0393 222.25 88.844 222.25C88.6564 222.25 88.4961 222.097 88.4961 221.902ZM88.5865 226.093V222.73H89.1087V226.093H88.5865Z" fill="#1D262D"/>
<path d="M89.9772 226.955L90.2419 226.565C90.5204 226.899 90.8545 227.025 91.335 227.025C91.8922 227.025 92.4138 226.753 92.4138 226.015V225.535C92.1702 225.876 91.7596 226.133 91.2857 226.133C90.4089 226.133 89.7891 225.479 89.7891 224.393C89.7891 223.314 90.4017 222.646 91.2857 222.646C91.7385 222.646 92.1419 222.868 92.4138 223.237V222.729H92.936V225.994C92.936 227.107 92.1563 227.455 91.335 227.455C90.764 227.456 90.3739 227.345 89.9772 226.955ZM92.4138 225.124V223.655C92.2329 223.363 91.8289 223.112 91.4111 223.112C90.7358 223.112 90.3323 223.648 90.3323 224.393C90.3323 225.131 90.7358 225.673 91.4111 225.673C91.8289 225.674 92.2329 225.416 92.4138 225.124Z" fill="#1D262D"/>
<path d="M96.0782 226.092V223.892C96.0782 223.301 95.7791 223.112 95.3263 223.112C94.9156 223.112 94.5256 223.363 94.3308 223.635V226.092H93.8086V222.73H94.3308V223.217C94.5672 222.938 95.0267 222.646 95.5278 222.646C96.2309 222.646 96.5999 223.001 96.5999 223.732V226.092H96.0782Z" fill="#1D262D"/>
<path d="M97.2734 224.407C97.2734 223.433 97.9698 222.646 98.9304 222.646C99.9465 222.646 100.545 223.439 100.545 224.449V224.581H97.8234C97.865 225.215 98.3106 225.744 99.0348 225.744C99.4177 225.744 99.8078 225.591 100.072 225.319L100.323 225.661C99.9887 225.995 99.5359 226.176 98.9859 226.176C97.9904 226.176 97.2734 225.459 97.2734 224.407ZM98.9232 223.077C98.2063 223.077 97.8511 223.683 97.8234 224.198H100.03C100.023 223.697 99.689 223.077 98.9232 223.077Z" fill="#1D262D"/>
<path d="M103.655 226.093V225.591C103.404 225.933 102.993 226.176 102.52 226.176C101.643 226.176 101.023 225.508 101.023 224.415C101.023 223.343 101.636 222.647 102.52 222.647C102.973 222.647 103.384 222.87 103.655 223.239V221.449H104.177V226.093H103.655ZM103.655 225.181V223.656C103.467 223.364 103.063 223.113 102.645 223.113C101.97 223.113 101.567 223.67 101.567 224.415C101.567 225.16 101.971 225.71 102.645 225.71C103.063 225.71 103.467 225.473 103.655 225.181Z" fill="#1D262D"/>
<path d="M106.664 226.093V221.449H107.186V223.239C107.458 222.87 107.862 222.647 108.321 222.647C109.198 222.647 109.818 223.343 109.818 224.415C109.818 225.508 109.198 226.176 108.321 226.176C107.848 226.176 107.437 225.933 107.186 225.591V226.093H106.664ZM108.188 225.71C108.871 225.71 109.274 225.16 109.274 224.415C109.274 223.67 108.87 223.113 108.188 223.113C107.778 223.113 107.367 223.364 107.186 223.656V225.181C107.367 225.473 107.778 225.71 108.188 225.71Z" fill="#1D262D"/>
<path d="M110.386 226.935C110.462 226.97 110.588 226.99 110.671 226.99C110.901 226.99 111.054 226.914 111.172 226.635L111.394 226.127L109.988 222.729H110.552L111.673 225.486L112.787 222.729H113.358L111.673 226.774C111.471 227.261 111.13 227.449 110.685 227.456C110.573 227.456 110.399 227.435 110.302 227.407L110.386 226.935Z" fill="#1D262D"/>
<path d="M129.64 277.544H118.23H106.82C106.82 277.544 106.358 285.169 105.434 286.787H118.23H131.026C130.102 285.169 129.64 277.544 129.64 277.544Z" fill="#C6CBCB"/>
<path d="M133.17 287.422C131.783 287.249 131.033 286.787 131.033 286.787H118.236H105.44C105.44 286.787 104.69 287.249 103.303 287.422C101.917 287.596 100.992 287.711 100.992 288.405H118.236H135.481C135.481 287.711 134.556 287.596 133.17 287.422Z" fill="#C6CBCB"/>
<path d="M167.672 275.002C167.672 276.406 166.535 277.544 165.13 277.544H69.6123C68.2082 277.544 67.0703 276.406 67.0703 275.002V210.779C67.0703 209.376 68.2082 208.237 69.6123 208.237H165.13C166.534 208.237 167.672 209.376 167.672 210.779V275.002Z" fill="#C6CBCB"/>
<path d="M170.465 275.002C170.465 276.406 169.327 277.544 167.923 277.544H72.4053C71.0012 277.544 69.8633 276.406 69.8633 275.002V210.779C69.8633 209.376 71.0012 208.237 72.4053 208.237H167.923C169.327 208.237 170.465 209.376 170.465 210.779V275.002Z" fill="#E2E5E7"/>
<path d="M131.573 277.544H120.164H108.754C108.754 277.544 108.291 285.169 107.367 286.787H120.164H132.96C132.036 285.169 131.573 277.544 131.573 277.544Z" fill="#D1D5D5"/>
<path d="M135.096 287.422C133.709 287.249 132.959 286.787 132.959 286.787H120.162H107.366C107.366 286.787 106.615 287.249 105.229 287.422C103.843 287.596 102.918 287.711 102.918 288.405H120.162H137.406C137.406 287.711 136.482 287.596 135.096 287.422Z" fill="#C6CBCB"/>
<path d="M167.923 208.237H72.4053C71.0012 208.237 69.8633 209.376 69.8633 210.779V268.455H170.465V210.779C170.465 209.376 169.327 208.237 167.923 208.237ZM166.302 264.843H115.815H74.0268V211.851H148.217H166.302V264.843Z" fill="#2D404E"/>
<path d="M74.0234 211.851V264.843H115.812H166.298V211.851H148.214H74.0234Z" fill="#FCFCFC"/>
<path d="M131.581 277.544H120.171H108.761C108.761 277.544 108.692 278.678 108.555 280.163H131.787C131.65 278.678 131.581 277.544 131.581 277.544Z" fill="#C6CBCB"/>
<path d="M120.184 271.561C121.097 271.561 121.837 272.301 121.837 273.213C121.837 274.126 121.097 274.866 120.184 274.866C119.271 274.866 118.531 274.126 118.531 273.213C118.531 272.301 119.271 271.561 120.184 271.561Z" fill="#2D404E"/>
<path opacity="0.16" d="M167.926 208.237H150.427L113.609 268.456H170.468V210.78C170.468 209.376 169.33 208.237 167.926 208.237Z" fill="#E2E5E7"/>
<path d="M57.3557 195.971C65.2784 194.674 70.6493 187.2 69.352 179.277C68.0547 171.354 60.5804 165.983 52.6578 167.281C44.7351 168.578 39.3642 176.052 40.6615 183.975C41.9588 191.898 49.433 197.268 57.3557 195.971Z" fill="#2D404E"/>
<path d="M63.1679 189.783C67.676 185.275 67.676 177.966 63.1679 173.457C58.6597 168.949 51.3506 168.949 46.8424 173.457C42.3343 177.966 42.3343 185.275 46.8424 189.783C51.3506 194.291 58.6597 194.291 63.1679 189.783Z" fill="#FEFEFE"/>
<path d="M63.1825 184.97C65.0322 180.45 62.8674 175.286 58.3473 173.436C53.8272 171.587 48.6636 173.752 46.8139 178.272C44.9643 182.793 47.1291 187.956 51.6491 189.806C56.1692 191.655 61.3329 189.49 63.1825 184.97Z" fill="#2D404E"/>
<path d="M60.4048 183.829C61.6289 180.847 60.2042 177.437 57.2225 176.213C54.2408 174.989 50.8313 176.414 49.6071 179.396C48.383 182.377 49.8078 185.787 52.7895 187.011C55.7712 188.235 59.1807 186.81 60.4048 183.829Z" fill="#FEFEFE"/>
<path d="M55.0011 178.606C53.3369 178.606 51.9883 179.955 51.9883 181.619C51.9883 183.283 53.3374 184.632 55.0011 184.632C56.6653 184.632 58.0139 183.282 58.0139 181.619C58.0139 179.955 56.6648 178.606 55.0011 178.606Z" fill="#2D404E"/>
<path d="M43.1641 196.091V191.961C43.1641 191.12 43.7387 190.34 44.5687 190.206C45.6264 190.034 46.5402 190.846 46.5402 191.871V191.117C46.5402 190.276 47.1148 189.497 47.9449 189.362C49.0026 189.19 49.9164 190.002 49.9164 191.027V190.273C49.9164 189.432 50.491 188.653 51.321 188.518C52.3788 188.346 53.2926 189.158 53.2926 190.183V183.056C53.2926 182.215 53.8672 181.435 54.6972 181.3C55.7549 181.128 56.6688 181.94 56.6688 182.966V196.092C56.6688 199.821 53.6457 202.844 49.9164 202.844C46.1871 202.844 43.1641 199.82 43.1641 196.091Z" fill="#F9934E"/>
<path d="M45.0709 206.563H54.9861C55.5515 206.563 56.014 206.1 56.014 205.535V202.003C56.014 201.438 55.5515 200.975 54.9861 200.975H45.0709C44.5055 200.975 44.043 201.438 44.043 202.003V205.535C44.043 206.1 44.5055 206.563 45.0709 206.563Z" fill="#FEFEFE"/>
<path d="M119.141 211.85V211.526C119.141 216.07 115.457 219.754 110.913 219.754H66.9712C61.2874 219.754 56.6792 215.147 56.6792 209.462V205.943H43.3945V209.463C43.3945 222.483 53.9496 233.039 66.9707 233.039H110.973C122.968 233.039 132.776 223.677 133.489 211.863L119.141 211.85Z" fill="#07ADA5"/>
<path d="M204.174 248.156C205.044 248.018 205.689 247.21 205.649 246.335C205.632 245.969 205.494 245.634 205.278 245.347C205.275 245.294 205.269 245.25 205.259 245.212C206.187 245.097 206.854 244.305 206.811 243.361C206.79 242.908 206.578 242.528 206.304 242.216C207.106 242.017 207.688 241.243 207.649 240.402C207.614 239.624 207.098 238.999 206.406 238.771C206.716 238.465 206.89 238.002 206.868 237.516C206.824 236.544 205.977 235.772 205.005 235.816L201.618 235.971C201.488 235.977 201.185 235.731 200.918 235.581C200.279 235.091 198.064 234.511 196.866 234.566L195.376 234.634C192.461 234.768 190.898 237.218 190.598 237.751L179.769 237.071L179.375 246.636L191.179 246.512C191.379 246.632 192 247.415 192.168 247.537C193.378 248.423 193.81 248.663 197.082 248.513L204.046 248.195C204.111 248.191 204.142 248.157 204.174 248.156Z" fill="#F9934E"/>
<path d="M203.22 247.677L200.072 247.189C199.21 247.055 198.566 246.325 198.541 245.453L198.212 233.977C198.179 232.847 199.18 231.965 200.297 232.138L203.444 232.626C204.306 232.76 204.95 233.49 204.975 234.362L205.305 245.837C205.337 246.968 204.336 247.85 203.22 247.677Z" fill="#26353F"/>
<path d="M223.278 238.908L206.5 233.788L206.59 218.258L223.427 213.334L223.278 238.908Z" fill="#E2E5E7"/>
<path opacity="0.1" d="M206.549 226.068L206.504 233.787L223.282 238.907L223.356 226.167L206.549 226.068Z" fill="black"/>
<path d="M223.097 240.445C222.422 240.441 221.879 239.891 221.883 239.217L222.035 213.009C222.04 212.335 222.59 211.791 223.264 211.795C223.938 211.799 224.482 212.349 224.478 213.023L224.325 239.231C224.322 239.905 223.772 240.449 223.097 240.445Z" fill="#2F505E"/>
<path opacity="0.1" d="M221.951 226.16L221.875 239.217C221.871 239.892 222.415 240.441 223.089 240.446C223.763 240.45 224.313 239.906 224.317 239.232L224.393 226.174L221.951 226.16Z" fill="black"/>
<path d="M191.253 232.605L196.515 232.636L196.593 219.295L191.331 219.264C189.508 219.253 188.023 220.722 188.012 222.545L187.973 229.286C187.962 231.108 189.431 232.595 191.253 232.605Z" fill="#EF5214"/>
<path opacity="0.1" d="M187.992 225.963L187.973 229.287C187.962 231.109 189.431 232.595 191.253 232.606L196.515 232.637L196.554 226.012L187.992 225.963Z" fill="black"/>
<path d="M206.498 233.789L196.274 233.729C195.488 233.725 194.855 233.084 194.859 232.298L194.933 219.614C194.938 218.828 195.579 218.195 196.365 218.199L206.589 218.259L206.498 233.789Z" fill="#2F505E"/>
<path opacity="0.1" d="M194.896 226.002L194.859 232.298C194.855 233.084 195.488 233.725 196.274 233.73L206.498 233.789L206.544 226.07L194.896 226.002Z" fill="black"/>
<path d="M199.045 243.717C199.001 242.745 199.773 241.898 200.745 241.854L204.956 241.661C205.928 241.616 206.774 242.389 206.819 243.361C206.864 244.333 206.091 245.18 205.119 245.224L200.908 245.417C199.936 245.461 199.089 244.689 199.045 243.717Z" fill="#E58341"/>
<path d="M206.163 243.39C206.135 242.774 205.593 242.28 204.977 242.308L200.767 242.501C200.151 242.529 199.656 243.071 199.685 243.686C199.713 244.301 200.255 244.796 200.87 244.768L205.081 244.575C205.696 244.547 206.191 244.005 206.163 243.39Z" fill="#F9934E"/>
<path d="M199.092 237.872C199.047 236.9 199.82 236.054 200.792 236.009L205.003 235.816C205.975 235.772 206.821 236.545 206.866 237.516C206.91 238.488 206.137 239.335 205.166 239.38L200.955 239.572C199.983 239.616 199.136 238.844 199.092 237.872Z" fill="#E58341"/>
<path d="M206.218 237.546C206.19 236.931 205.648 236.436 205.032 236.464L200.821 236.657C200.206 236.685 199.711 237.227 199.739 237.842C199.768 238.458 200.309 238.953 200.925 238.924L205.136 238.732C205.752 238.703 206.246 238.161 206.218 237.546Z" fill="#F9934E"/>
<path d="M199.494 246.617C199.449 245.645 200.222 244.799 201.194 244.754L203.786 244.635C204.757 244.591 205.604 245.364 205.649 246.336C205.693 247.307 204.92 248.154 203.948 248.199L201.357 248.317C200.386 248.362 199.539 247.589 199.494 246.617Z" fill="#E58341"/>
<path d="M205.005 246.365C204.976 245.749 204.435 245.254 203.819 245.283L201.228 245.401C200.612 245.43 200.117 245.971 200.146 246.587C200.174 247.202 200.716 247.697 201.331 247.669L203.923 247.55C204.538 247.522 205.033 246.98 205.005 246.365Z" fill="#F9934E"/>
<path d="M198.584 240.784C198.562 240.298 198.538 239.78 198.975 239.403C199.1 239.3 199.263 239.293 199.396 239.384C199.633 239.6 200.031 239.776 200.364 239.956C200.463 239.984 200.53 240.046 200.629 240.074C200.995 240.252 201.574 240.16 201.95 239.851C202.106 239.715 202.291 239.511 202.246 239.221C202.209 239.126 202.237 239.027 202.298 238.959C202.36 238.891 202.455 238.822 202.552 238.818L205.791 238.67C206.763 238.626 207.609 239.398 207.654 240.37C207.699 241.342 206.927 242.221 205.955 242.265L200.449 242.517C199.477 242.561 198.63 241.788 198.584 240.784Z" fill="#E58341"/>
<path d="M199.26 240.103C199.202 240.268 199.212 240.463 199.225 240.754C199.255 241.402 199.796 241.896 200.412 241.868L205.919 241.616C206.534 241.588 207.029 241.046 207.001 240.431C206.972 239.815 206.431 239.321 205.815 239.349L202.867 239.483C202.817 239.81 202.638 240.143 202.325 240.384C201.728 240.834 200.891 240.969 200.325 240.671C200.259 240.641 200.159 240.581 200.092 240.551C199.827 240.434 199.528 240.286 199.26 240.103Z" fill="#F9934E"/>
<path d="M197.131 236.224C197.838 238.225 199.226 239.39 200.589 240.074C201.054 240.313 201.855 240.081 202.127 239.647C202.369 239.246 201.993 238.841 201.623 238.566C200.884 238.016 200.891 237.336 200.369 236.549C200.369 236.549 199.487 234.531 197.903 234.627C196.722 234.699 197.131 236.224 197.131 236.224Z" fill="#F9934E"/>
<path d="M197.129 237.474C197.123 237.345 197.215 237.211 197.341 237.14C197.501 237.101 197.7 237.189 197.74 237.349C198.007 238.213 199.229 239.391 200.591 240.076C201.056 240.314 201.858 240.083 202.129 239.648C202.371 239.248 201.995 238.843 201.626 238.568C200.548 237.777 199.612 236.553 199.088 235.765C199.016 235.607 199.04 235.411 199.197 235.306C199.356 235.234 199.552 235.257 199.657 235.415C200.145 236.139 201.087 237.281 202.023 238.03C203.232 238.916 202.848 239.745 202.696 239.979C202.243 240.714 201.056 241.028 200.324 240.639C199.029 239.985 197.542 238.722 197.164 237.538C197.132 237.539 197.131 237.507 197.129 237.474Z" fill="#E58341"/>
<path d="M184.52 237.423V247.338C184.52 247.903 184.982 248.366 185.547 248.366H189.079C189.645 248.366 190.107 247.903 190.107 247.338V237.423C190.107 236.858 189.645 236.395 189.079 236.395H185.547C184.982 236.395 184.52 236.858 184.52 237.423Z" fill="#F0F5F7"/>
<path d="M185.296 249.27H156.999C140.082 249.27 126.32 235.508 126.32 218.592V211.849H139.627V218.592C139.627 228.17 147.42 235.963 156.999 235.963H185.296V249.27Z" fill="#FED732"/>
<path d="M153.035 150.143L150.692 151.805C150.692 151.805 149.528 148.515 148.62 146.452C148.247 145.604 147.115 145.303 146.591 144.119C145.676 142.055 146.751 140.27 147.845 141.558C149.104 143.043 150.942 144.144 151.313 144.992C151.934 146.407 153.035 150.143 153.035 150.143Z" fill="#F9934E"/>
<path d="M154.905 151.492C155.07 152.616 154.928 154.386 153.945 156.454C153.945 156.454 151.914 154.02 151.678 152.91C151.678 152.91 151.097 148.669 150.521 145.967C150.284 144.856 148.999 144.214 148.664 142.663C148.08 139.958 149.815 138.079 150.807 139.897C151.952 141.992 153.883 143.769 154.118 144.879C154.512 146.733 154.663 149.845 154.905 151.492Z" fill="#F9934E"/>
<path d="M151.889 149.363C151.889 149.363 151.7 147.76 151.123 145.059C150.887 143.947 149.602 143.305 149.267 141.754C149.066 140.822 149.139 139.988 149.362 139.37C148.752 139.839 148.258 141.115 148.592 142.664C148.927 144.215 150.222 144.863 150.457 145.975C150.701 147.139 150.91 148.35 150.91 148.35L149.127 147.685L151.889 149.363Z" fill="#E58341"/>
<path d="M154.049 151.071C151.688 148.922 149.066 147.622 147.365 146.786C144.84 145.545 145.505 147.253 141.199 148.381C140.63 148.53 139.953 148.944 140.47 150.024C140.969 151.063 145.034 150.275 145.666 149.652C145.666 149.652 147.367 151.733 149.067 151.684C149.067 151.684 148.773 153.065 149.187 153.733C149.187 153.733 146.778 154.986 145.746 156.086L142.883 154.169C142.673 151.204 142.134 150.327 140.676 150.467C139.316 150.598 139.47 151.874 139.499 152.924C139.553 154.814 139.052 155.12 139.514 155.87C141.281 158.739 143.499 160.518 147.626 160.518C149.172 160.518 150.153 160.477 151.102 160.006C152.693 159.219 156.648 153.435 154.049 151.071Z" fill="#F9934E"/>
<path d="M154.504 151.634C155.387 154.343 152.231 158.783 150.85 159.467C149.901 159.936 148.919 159.978 147.374 159.978C143.292 159.978 141.062 158.228 139.32 155.423C139.362 155.579 139.42 155.727 139.509 155.872C141.276 158.74 143.495 160.519 147.622 160.519C149.168 160.519 150.149 160.478 151.099 160.008C152.575 159.276 156.084 154.245 154.504 151.634Z" fill="#F9934E"/>
<path d="M142.387 154.262C142.387 154.262 145.05 155.971 145.697 156.065L142.889 154.17C143.003 151.176 142.125 150.224 140.681 150.468C140.563 150.488 140.458 150.511 140.363 150.539C141.81 150.392 142.505 151.341 142.387 154.262Z" fill="#E58341"/>
<path d="M145.674 149.653C145.674 149.653 147.376 151.734 149.075 151.685V151.299C147.376 151.347 145.674 149.266 145.674 149.266C145.043 149.889 140.978 150.677 140.479 149.638C140.392 149.456 140.341 149.294 140.315 149.147C140.269 149.375 140.306 149.661 140.479 150.025C140.978 151.064 145.043 150.275 145.674 149.653Z" fill="#E58341"/>
<path d="M152.804 163.224H144.11L140.621 157.439L154.171 156.065L152.804 163.224Z" fill="#F9934E"/>
<path d="M143.266 168.027H153.181C153.747 168.027 154.209 167.565 154.209 166.999V163.467C154.209 162.902 153.747 162.439 153.181 162.439H143.266C142.701 162.439 142.238 162.902 142.238 163.467V166.999C142.238 167.565 142.701 168.027 143.266 168.027Z" fill="#FEFEFE"/>
<path d="M124.302 260.61C141.205 260.61 154.956 246.859 154.956 229.957V167.413H141.649V229.957C141.649 239.522 133.867 247.304 124.302 247.304C114.737 247.304 106.955 239.522 106.955 229.957V211.85H93.6484V229.957C93.6484 246.859 107.399 260.61 124.302 260.61Z" fill="#00D1CA"/>
<path d="M116.372 176.318C116.372 176.728 116.235 177.069 115.962 177.342C115.689 177.547 115.416 177.684 115.007 177.684H84.9783C84.6371 177.684 84.2958 177.547 84.0229 177.342C83.75 177.069 83.6133 176.728 83.6133 176.318V156.323H116.371V176.318H116.372Z" fill="#FED732"/>
<path d="M115.963 177.342C115.69 177.547 115.417 177.683 115.007 177.683H84.9789C84.6376 177.683 84.2963 177.547 84.0234 177.342L99.9931 163.625L115.963 177.342Z" fill="#FFB621"/>
<path d="M116.371 156.323L111.73 159.667L100.879 167.447C100.333 167.857 99.5824 167.857 99.0366 167.447L88.2538 159.667L83.6133 156.323L88.2538 152.979L98.354 145.745L99.1049 145.199C99.6507 144.789 100.402 144.789 100.947 145.199L101.698 145.745L106.544 149.225L108.933 150.931L111.731 152.979L116.371 156.323Z" fill="#024057"/>
<path d="M111.726 147.403V159.666L100.875 167.446C100.329 167.856 99.5786 167.856 99.0328 167.446L88.25 159.666V147.109C88.25 146.358 88.8642 145.744 89.6151 145.744H110.068C110.984 145.744 111.726 146.487 111.726 147.403Z" fill="#F2F2F2"/>
<path d="M104.36 156.065C104.36 153.654 102.399 151.693 99.9884 151.693C97.5779 151.693 95.6172 153.654 95.6172 156.065C95.6172 158.475 97.5779 160.436 99.9884 160.436C100.759 160.436 101.515 160.234 102.176 159.851C102.447 159.694 102.54 159.346 102.382 159.074C102.225 158.803 101.878 158.71 101.606 158.868C101.118 159.15 100.559 159.299 99.9884 159.299C98.205 159.299 96.7535 157.849 96.7535 156.065C96.7535 154.281 98.2044 152.829 99.9884 152.829C101.772 152.829 103.223 154.281 103.223 156.065V156.065V157.017C103.223 157.12 103.184 157.216 103.114 157.287C103.041 157.359 102.945 157.399 102.842 157.399C102.741 157.399 102.645 157.359 102.569 157.283C102.479 157.195 102.46 157.089 102.46 157.016V156.065C102.46 154.703 101.351 153.595 99.9889 153.595C98.6274 153.595 97.5193 154.703 97.5193 156.065C97.5193 157.427 98.6269 158.535 99.9889 158.535C100.615 158.535 101.181 158.294 101.617 157.908C101.664 157.972 101.712 158.035 101.77 158.091C102.057 158.377 102.438 158.535 102.842 158.535C103.247 158.535 103.629 158.377 103.917 158.091C104.202 157.805 104.36 157.423 104.36 157.016V156.065V156.065ZM99.9884 157.399C99.2534 157.399 98.6557 156.801 98.6557 156.066C98.6557 155.33 99.2534 154.732 99.9884 154.732C100.724 154.732 101.323 155.33 101.323 156.066C101.323 156.801 100.724 157.399 99.9884 157.399Z" fill="#00D1CA"/>
<path d="M83.7138 163.102V171.784C83.7138 171.784 84.0243 174.953 85.9634 175.416C87.6297 175.814 88.9829 173.977 88.9829 173.977C88.9829 173.977 89.1469 172.869 89.8911 171.6C90.3505 170.816 91.5285 169.615 92.3473 170.117C92.854 170.427 92.7116 172.468 92.7851 174.946C92.8391 176.761 91.8682 179.835 91.1811 181.516C90.698 182.698 89.5077 183.856 89.0425 184.139C88.1781 184.666 81.5378 184.312 81.5378 184.312L80.1172 173.766C80.1172 173.766 79.4716 165.738 83.7138 163.102Z" fill="#F9934E"/>
<path d="M91.0246 188.227H81.1099C80.5446 188.227 80.082 187.765 80.082 187.199V183.668C80.082 183.102 80.5446 182.64 81.1099 182.64H91.0246C91.59 182.64 92.0526 183.102 92.0526 183.668V187.199C92.0526 187.765 91.59 188.227 91.0246 188.227Z" fill="#FEFEFE"/>
<path d="M109.982 246.344C93.0795 246.344 79.3281 232.593 79.3281 215.69V187.615H92.6349V215.69C92.6349 225.255 100.417 233.037 109.982 233.037C119.547 233.037 127.329 225.255 127.329 215.69V211.849H140.636V215.69C140.637 232.593 126.885 246.344 109.982 246.344Z" fill="#2D404E"/>
<path d="M26.2262 255.501L33.1903 255.819C36.4617 255.969 36.8949 255.729 38.1037 254.843C38.2718 254.721 38.8927 253.938 39.0931 253.817L50.8971 253.942L50.5034 244.377L39.6744 245.057C39.3742 244.524 37.8113 242.074 34.8962 241.94L33.4062 241.872C32.2077 241.817 29.9925 242.397 29.3537 242.887C29.0869 243.037 28.7837 243.283 28.6542 243.277L25.2672 243.122C24.2953 243.078 23.4488 243.85 23.4041 244.822C23.382 245.308 23.5552 245.77 23.8662 246.077C23.1744 246.305 22.6584 246.93 22.6229 247.708C22.5844 248.55 23.1656 249.323 23.9679 249.522C23.694 249.834 23.4817 250.214 23.4612 250.667C23.418 251.61 24.0856 252.402 25.0128 252.518C25.0041 252.556 24.9979 252.601 24.9943 252.653C24.7784 252.939 24.6407 253.275 24.6237 253.641C24.5836 254.516 25.2281 255.324 26.0983 255.462C26.1306 255.464 26.1615 255.498 26.2262 255.501Z" fill="#F9934E"/>
<path d="M27.8227 255.458L32.1497 255.666L32.0679 240.85L27.7461 241.439L27.8227 255.458Z" fill="#BED6E5"/>
<path d="M32.3506 231.923L32.3794 237.08L29.8939 238.605L27.392 237.043L27.3617 231.682C25.6363 232.502 24.4609 234.257 24.4727 236.347C24.4892 239.339 26.9248 241.881 29.9135 242.025C32.899 242.167 35.3085 239.858 35.2936 236.87C35.2802 234.779 34.0888 232.911 32.3506 231.923Z" fill="#BED6E5"/>
<path d="M28.4697 254.91C26.5146 255.663 25.6177 257.799 26.4622 259.679C27.3045 261.558 29.5726 262.471 31.5272 261.717C33.4797 260.962 34.3776 258.828 33.5326 256.947C32.6898 255.068 30.4232 254.157 28.4697 254.91ZM32.8439 258.358L32.0663 259.163L32.053 260.282L30.8909 260.301L30.0578 261.052L29.1933 260.273L28.0302 260.217L27.965 259.098L27.1529 258.267L27.9305 257.462L27.9444 256.344L29.1054 256.326L29.9396 255.575L30.8061 256.353L31.9677 256.409L32.0314 257.529L32.8439 258.358Z" fill="#BED6E5"/>
<path d="M31.233 251.023C31.2777 250.051 30.5047 249.205 29.5328 249.16L25.322 248.967C24.3501 248.923 23.5036 249.696 23.4589 250.668C23.4142 251.639 24.1872 252.486 25.159 252.531L29.3699 252.723C30.3418 252.768 31.1888 251.995 31.233 251.023Z" fill="#E58341"/>
<path d="M24.1066 250.698C24.1349 250.083 24.6766 249.588 25.2923 249.617L29.5032 249.809C30.1184 249.838 30.6133 250.379 30.585 250.995C30.5568 251.61 30.015 252.105 29.3993 252.077L25.1885 251.884C24.5733 251.856 24.0784 251.314 24.1066 250.698Z" fill="#F9934E"/>
<path d="M31.1822 245.18C31.2269 244.208 30.4539 243.362 29.482 243.317L25.2712 243.124C24.2993 243.079 23.4528 243.852 23.4081 244.824C23.3634 245.796 24.1364 246.643 25.1083 246.687L29.3191 246.88C30.291 246.924 31.138 246.152 31.1822 245.18Z" fill="#E58341"/>
<path d="M24.048 244.854C24.0763 244.239 24.618 243.744 25.2337 243.772L29.4446 243.965C30.0598 243.993 30.5547 244.535 30.5264 245.151C30.4982 245.766 29.9565 246.261 29.3407 246.233L25.1299 246.04C24.5142 246.012 24.0198 245.469 24.048 244.854Z" fill="#F9934E"/>
<path d="M30.7815 253.924C30.8257 252.952 30.0532 252.105 29.0813 252.061L26.4899 251.943C25.518 251.898 24.6716 252.671 24.6268 253.643C24.5821 254.615 25.3551 255.461 26.327 255.506L28.9184 255.624C29.8897 255.669 30.7367 254.896 30.7815 253.924Z" fill="#E58341"/>
<path d="M25.2707 253.672C25.299 253.057 25.8407 252.562 26.4564 252.59L29.0477 252.709C29.6629 252.737 30.1579 253.279 30.1296 253.895C30.1014 254.51 29.5596 255.005 28.9439 254.977L26.3526 254.858C25.7368 254.83 25.2424 254.287 25.2707 253.672Z" fill="#F9934E"/>
<path d="M31.6916 248.091C31.7137 247.606 31.7374 247.087 31.3005 246.71C31.1756 246.607 31.0137 246.6 30.8796 246.691C30.6427 246.907 30.2449 247.084 29.9123 247.263C29.8136 247.291 29.7458 247.353 29.6471 247.381C29.2817 247.559 28.702 247.467 28.3268 247.159C28.1705 247.021 27.9855 246.818 28.0313 246.528C28.0683 246.433 28.04 246.334 27.9783 246.266C27.9166 246.198 27.8221 246.13 27.7249 246.125L24.486 245.977C23.5141 245.932 22.6676 246.705 22.6229 247.677C22.5787 248.649 23.3496 249.528 24.3215 249.573L29.828 249.824C30.7989 249.868 31.6459 249.095 31.6916 248.091Z" fill="#E58341"/>
<path d="M31.0075 247.411C31.065 247.576 31.0558 247.77 31.0424 248.062C31.0126 248.709 30.4709 249.204 29.8552 249.176L24.3487 248.924C23.7329 248.896 23.2385 248.354 23.2668 247.739C23.295 247.123 23.8368 246.628 24.4525 246.657L27.4 246.791C27.4499 247.118 27.6297 247.451 27.9433 247.693C28.5394 248.142 29.3772 248.278 29.9425 247.979C30.0088 247.95 30.1091 247.889 30.1754 247.86C30.4406 247.742 30.7397 247.594 31.0075 247.411Z" fill="#F9934E"/>
<path d="M33.1351 243.532C32.4284 245.532 31.0397 246.698 29.6772 247.382C29.2121 247.621 28.4108 247.389 28.1389 246.955C27.8974 246.554 28.2731 246.149 28.6426 245.874C29.3817 245.324 29.3745 244.644 29.8972 243.856C29.8972 243.856 30.7786 241.839 32.3621 241.935C33.5437 242.007 33.1351 243.532 33.1351 243.532Z" fill="#F9934E"/>
<path d="M33.1454 244.782C33.1515 244.652 33.0601 244.518 32.9336 244.448C32.7733 244.408 32.5744 244.496 32.5348 244.657C32.2681 245.521 31.0459 246.699 29.6834 247.383C29.2182 247.621 28.417 247.39 28.1451 246.955C27.9035 246.555 28.2792 246.15 28.6488 245.875C29.7271 245.084 30.663 243.86 31.1862 243.073C31.2581 242.914 31.235 242.718 31.0772 242.613C30.9184 242.541 30.7226 242.564 30.6177 242.722C30.13 243.446 29.1874 244.588 28.2515 245.337C27.0422 246.223 27.4266 247.052 27.5782 247.287C28.0315 248.021 29.2182 248.335 29.9501 247.947C31.2458 247.292 32.7321 246.029 33.1109 244.846C33.1423 244.847 33.1438 244.814 33.1454 244.782Z" fill="#E58341"/>
<path d="M45.7518 244.731V254.646C45.7518 255.211 45.2892 255.674 44.7239 255.674H41.192C40.6266 255.674 40.1641 255.211 40.1641 254.646V244.731C40.1641 244.165 40.6266 243.703 41.192 243.703H44.7239C45.2892 243.703 45.7518 244.165 45.7518 244.731Z" fill="#F0F5F7"/>
<path d="M44.9883 256.579H95.6617C112.578 256.579 126.34 242.816 126.34 225.901V211.854H113.033V225.901C113.033 235.479 105.241 243.272 95.6617 243.272H44.9883V256.579Z" fill="#EF5214"/>
<path d="M194.285 182.937H188.68V177.332H194.285V182.937ZM189.462 182.155H193.503V178.114H189.462V182.155Z" fill="#2F505E"/>
<path d="M192.591 179.026H190.375V181.242H192.591V179.026Z" fill="#2F505E"/>
<path d="M194.285 194.669H188.68V189.064H194.285V194.669ZM189.462 193.887H193.503V189.846H189.462V193.887Z" fill="#2F505E"/>
<path d="M192.591 190.758H190.375V192.974H192.591V190.758Z" fill="#2F505E"/>
<path d="M206.011 182.937H200.406V177.332H206.011V182.937ZM201.188 182.155H205.229V178.114H201.188V182.155Z" fill="#2F505E"/>
<path d="M204.361 178.991H202.074V181.278H204.361V178.991Z" fill="#2F505E"/>
<path d="M196.043 177.723H195.172V178.594H196.043V177.723Z" fill="#2F505E"/>
<path d="M196.918 178.594H196.047V179.465H196.918V178.594Z" fill="#2F505E"/>
<path d="M197.785 178.594H196.914V179.465H197.785V178.594Z" fill="#2F505E"/>
<path d="M196.918 179.465H196.047V180.336H196.918V179.465Z" fill="#2F505E"/>
<path d="M196.043 181.208H195.172V182.079H196.043V181.208Z" fill="#2F505E"/>
<path d="M196.918 181.208H196.047V182.079H196.918V181.208Z" fill="#2F505E"/>
<path d="M197.785 181.208H196.914V182.079H197.785V181.208Z" fill="#2F505E"/>
<path d="M198.66 181.208H197.789V182.079H198.66V181.208Z" fill="#2F505E"/>
<path d="M198.66 180.336H197.789V181.207H198.66V180.336Z" fill="#2F505E"/>
<path d="M199.531 179.465H198.66V180.336H199.531V179.465Z" fill="#2F505E"/>
<path d="M198.66 177.723H197.789V178.594H198.66V177.723Z" fill="#2F505E"/>
<path d="M199.531 178.594H198.66V179.465H199.531V178.594Z" fill="#2F505E"/>
<path d="M199.531 181.208H198.66V182.079H199.531V181.208Z" fill="#2F505E"/>
<path d="M199.531 182.079H198.66V182.95H199.531V182.079Z" fill="#2F505E"/>
<path d="M195.176 183.821H194.305V184.692H195.176V183.821Z" fill="#2F505E"/>
<path d="M194.301 183.821H193.43V184.692H194.301V183.821Z" fill="#2F505E"/>
<path d="M193.43 183.821H192.559V184.692H193.43V183.821Z" fill="#2F505E"/>
<path d="M191.687 183.821H190.816V184.692H191.687V183.821Z" fill="#2F505E"/>
<path d="M189.945 183.821H189.074V184.692H189.945V183.821Z" fill="#2F505E"/>
<path d="M191.687 186.434H190.816V187.305H191.687V186.434Z" fill="#2F505E"/>
<path d="M191.687 187.306H190.816V188.177H191.687V187.306Z" fill="#2F505E"/>
<path d="M192.555 187.306H191.684V188.177H192.555V187.306Z" fill="#2F505E"/>
<path d="M193.43 187.306H192.559V188.177H193.43V187.306Z" fill="#2F505E"/>
<path d="M194.301 187.306H193.43V188.177H194.301V187.306Z" fill="#2F505E"/>
<path d="M194.301 186.434H193.43V187.305H194.301V186.434Z" fill="#2F505E"/>
<path d="M194.301 185.563H193.43V186.435H194.301V185.563Z" fill="#2F505E"/>
<path d="M195.176 185.563H194.305V186.435H195.176V185.563Z" fill="#2F505E"/>
<path d="M196.043 187.306H195.172V188.177H196.043V187.306Z" fill="#2F505E"/>
<path d="M196.043 186.434H195.172V187.305H196.043V186.434Z" fill="#2F505E"/>
<path d="M196.918 186.434H196.047V187.305H196.918V186.434Z" fill="#2F505E"/>
<path d="M197.785 186.434H196.914V187.305H197.785V186.434Z" fill="#2F505E"/>
<path d="M198.66 186.434H197.789V187.305H198.66V186.434Z" fill="#2F505E"/>
<path d="M199.531 187.306H198.66V188.177H199.531V187.306Z" fill="#2F505E"/>
<path d="M199.531 188.176H198.66V189.047H199.531V188.176Z" fill="#2F505E"/>
<path d="M200.394 189.048H199.523V189.919H200.394V189.048Z" fill="#2F505E"/>
<path d="M195.176 187.306H194.305V188.177H195.176V187.306Z" fill="#2F505E"/>
<path d="M190.82 186.434H189.949V187.305H190.82V186.434Z" fill="#2F505E"/>
<path d="M192.555 184.692H191.684V185.563H192.555V184.692Z" fill="#2F505E"/>
<path d="M192.555 185.563H191.684V186.435H192.555V185.563Z" fill="#2F505E"/>
<path d="M191.687 185.563H190.816V186.435H191.687V185.563Z" fill="#2F505E"/>
<path d="M190.82 185.563H189.949V186.435H190.82V185.563Z" fill="#2F505E"/>
<path d="M190.82 184.692H189.949V185.563H190.82V184.692Z" fill="#2F505E"/>
<path d="M189.945 185.563H189.074V186.435H189.945V185.563Z" fill="#2F505E"/>
<path d="M196.043 180.336H195.172V181.207H196.043V180.336Z" fill="#2F505E"/>
<path d="M196.043 182.079H195.172V182.95H196.043V182.079Z" fill="#2F505E"/>
<path d="M196.043 182.949H195.172V183.82H196.043V182.949Z" fill="#2F505E"/>
<path d="M196.043 183.821H195.172V184.692H196.043V183.821Z" fill="#2F505E"/>
<path d="M196.043 184.692H195.172V185.563H196.043V184.692Z" fill="#2F505E"/>
<path d="M196.918 184.692H196.047V185.563H196.918V184.692Z" fill="#2F505E"/>
<path d="M197.785 184.692H196.914V185.563H197.785V184.692Z" fill="#2F505E"/>
<path d="M198.66 184.692H197.789V185.563H198.66V184.692Z" fill="#2F505E"/>
<path d="M197.785 183.821H196.914V184.692H197.785V183.821Z" fill="#2F505E"/>
<path d="M199.531 183.821H198.66V184.692H199.531V183.821Z" fill="#2F505E"/>
<path d="M200.394 183.821H199.523V184.692H200.394V183.821Z" fill="#2F505E"/>
<path d="M201.273 183.821H200.402V184.692H201.273V183.821Z" fill="#2F505E"/>
<path d="M202.141 183.821H201.27V184.692H202.141V183.821Z" fill="#2F505E"/>
<path d="M203.016 183.821H202.145V184.692H203.016V183.821Z" fill="#2F505E"/>
<path d="M203.883 183.821H203.012V184.692H203.883V183.821Z" fill="#2F505E"/>
<path d="M203.883 184.692H203.012V185.563H203.883V184.692Z" fill="#2F505E"/>
<path d="M201.273 185.563H200.402V186.435H201.273V185.563Z" fill="#2F505E"/>
<path d="M200.394 185.563H199.523V186.435H200.394V185.563Z" fill="#2F505E"/>
<path d="M200.394 184.692H199.523V185.563H200.394V184.692Z" fill="#2F505E"/>
<path d="M199.531 185.563H198.66V186.435H199.531V185.563Z" fill="#2F505E"/>
<path d="M203.016 186.434H202.145V187.305H203.016V186.434Z" fill="#2F505E"/>
<path d="M203.016 187.306H202.145V188.177H203.016V187.306Z" fill="#2F505E"/>
<path d="M203.883 187.306H203.012V188.177H203.883V187.306Z" fill="#2F505E"/>
<path d="M204.75 187.306H203.879V188.177H204.75V187.306Z" fill="#2F505E"/>
<path d="M204.75 188.176H203.879V189.047H204.75V188.176Z" fill="#2F505E"/>
<path d="M204.75 189.048H203.879V189.919H204.75V189.048Z" fill="#2F505E"/>
<path d="M203.016 189.918H202.145V190.789H203.016V189.918Z" fill="#2F505E"/>
<path d="M203.016 192.539H202.145V193.41H203.016V192.539Z" fill="#2F505E"/>
<path d="M205.625 189.918H204.754V190.789H205.625V189.918Z" fill="#2F505E"/>
<path d="M205.625 193.403H204.754V194.274H205.625V193.403Z" fill="#2F505E"/>
<path d="M202.141 193.403H201.27V194.274H202.141V193.403Z" fill="#2F505E"/>
<path d="M201.273 193.403H200.402V194.274H201.273V193.403Z" fill="#2F505E"/>
<path d="M200.394 193.403H199.523V194.274H200.394V193.403Z" fill="#2F505E"/>
<path d="M199.531 193.403H198.66V194.274H199.531V193.403Z" fill="#2F505E"/>
<path d="M200.394 192.532H199.523V193.403H200.394V192.532Z" fill="#2F505E"/>
<path d="M199.531 192.532H198.66V193.403H199.531V192.532Z" fill="#2F505E"/>
<path d="M200.394 191.661H199.523V192.532H200.394V191.661Z" fill="#2F505E"/>
<path d="M200.394 190.79H199.523V191.661H200.394V190.79Z" fill="#2F505E"/>
<path d="M199.531 189.918H198.66V190.789H199.531V189.918Z" fill="#2F505E"/>
<path d="M198.66 189.918H197.789V190.789H198.66V189.918Z" fill="#2F505E"/>
<path d="M197.785 189.918H196.914V190.789H197.785V189.918Z" fill="#2F505E"/>
<path d="M196.918 189.918H196.047V190.789H196.918V189.918Z" fill="#2F505E"/>
<path d="M198.66 190.79H197.789V191.661H198.66V190.79Z" fill="#2F505E"/>
<path d="M195.848 191.177H194.977V192.048H195.848V191.177Z" fill="#2F505E"/>
<path d="M196.043 192.532H195.172V193.403H196.043V192.532Z" fill="#2F505E"/>
<path d="M196.043 189.048H195.172V189.919H196.043V189.048Z" fill="#2F505E"/>
<path d="M196.918 190.79H196.047V191.661H196.918V190.79Z" fill="#2F505E"/>
<path d="M197.785 191.661H196.914V192.532H197.785V191.661Z" fill="#2F505E"/>
<path d="M196.918 191.661H196.047V192.532H196.918V191.661Z" fill="#2F505E"/>
<path d="M197.785 192.532H196.914V193.403H197.785V192.532Z" fill="#2F505E"/>
<path d="M196.918 193.403H196.047V194.274H196.918V193.403Z" fill="#2F505E"/>
<path d="M198.66 189.048H197.789V189.919H198.66V189.048Z" fill="#2F505E"/>
<path d="M197.785 189.048H196.914V189.919H197.785V189.048Z" fill="#2F505E"/>
<path d="M195.754 188.272H194.883V189.144H195.754V188.272Z" fill="#2F505E"/>
<path d="M197.785 188.176H196.914V189.047H197.785V188.176Z" fill="#2F505E"/>
<path d="M197.785 187.306H196.914V188.177H197.785V187.306Z" fill="#2F505E"/>
<path d="M196.918 188.176H196.047V189.047H196.918V188.176Z" fill="#2F505E"/>
<path d="M196.043 189.918H195.172V190.789H196.043V189.918Z" fill="#2F505E"/>
<path d="M199.531 191.661H198.66V192.532H199.531V191.661Z" fill="#2F505E"/>
<path d="M198.66 193.403H197.789V194.274H198.66V193.403Z" fill="#2F505E"/>
<path d="M201.273 189.918H200.402V190.789H201.273V189.918Z" fill="#2F505E"/>
<path d="M202.141 190.79H201.27V191.661H202.141V190.79Z" fill="#2F505E"/>
<path d="M204.75 190.79H203.879V191.661H204.75V190.79Z" fill="#2F505E"/>
<path d="M204.75 191.661H203.879V192.532H204.75V191.661Z" fill="#2F505E"/>
<path d="M203.883 191.661H203.012V192.532H203.883V191.661Z" fill="#2F505E"/>
<path d="M203.016 191.661H202.145V192.532H203.016V191.661Z" fill="#2F505E"/>
<path d="M202.141 191.661H201.27V192.532H202.141V191.661Z" fill="#2F505E"/>
<path d="M204.75 192.532H203.879V193.403H204.75V192.532Z" fill="#2F505E"/>
<path d="M204.75 193.403H203.879V194.274H204.75V193.403Z" fill="#2F505E"/>
<path d="M203.016 188.176H202.145V189.047H203.016V188.176Z" fill="#2F505E"/>
<path d="M202.141 186.434H201.27V187.305H202.141V186.434Z" fill="#2F505E"/>
<path d="M202.141 187.306H201.27V188.177H202.141V187.306Z" fill="#2F505E"/>
<path d="M202.141 188.176H201.27V189.047H202.141V188.176Z" fill="#2F505E"/>
<path d="M201.273 189.048H200.402V189.919H201.273V189.048Z" fill="#2F505E"/>
<path d="M201.273 187.306H200.402V188.177H201.273V187.306Z" fill="#2F505E"/>
<path d="M201.273 188.176H200.402V189.047H201.273V188.176Z" fill="#2F505E"/>
<path d="M203.016 185.563H202.145V186.435H203.016V185.563Z" fill="#2F505E"/>
<path d="M203.016 189.048H202.145V189.919H203.016V189.048Z" fill="#2F505E"/>
<path d="M203.883 189.048H203.012V189.919H203.883V189.048Z" fill="#2F505E"/>
<path d="M204.75 184.692H203.879V185.563H204.75V184.692Z" fill="#2F505E"/>
<path d="M204.75 185.563H203.879V186.435H204.75V185.563Z" fill="#2F505E"/>
<path d="M205.625 183.821H204.754V184.692H205.625V183.821Z" fill="#2F505E"/>
<path d="M205.625 186.434H204.754V187.305H205.625V186.434Z" fill="#2F505E"/>
<path d="M197.785 182.949H196.914V183.82H197.785V182.949Z" fill="#2F505E"/>
<path d="M198.66 182.949H197.789V183.82H198.66V182.949Z" fill="#2F505E"/>
<path d="M187.72 178.981H187V176H189.981V176.72H187.72V178.981Z" fill="#FED732"/>
<path d="M189.981 196H187V193.019H187.72V195.279H189.981V196Z" fill="#FED732"/>
<path d="M207.704 196H204.723V195.28H206.984V193.019H207.704V196Z" fill="#FED732"/>
<path d="M207.704 178.981H206.984V176.72H204.723V176H207.704V178.981Z" fill="#FED732"/>
<path d="M115.408 119.685L102.818 114.561L104.522 119.685L102.812 124.804L115.408 119.685Z" fill="#FEFEFE"/>
<path d="M115.904 119.684C115.904 119.651 115.898 119.624 115.893 119.597C115.893 119.586 115.887 119.58 115.887 119.57C115.882 119.548 115.877 119.532 115.871 119.51C115.865 119.499 115.865 119.493 115.86 119.482C115.849 119.455 115.839 119.433 115.822 119.406C115.822 119.406 115.822 119.406 115.817 119.401C115.8 119.379 115.784 119.357 115.768 119.34C115.762 119.335 115.757 119.33 115.751 119.324C115.735 119.308 115.718 119.297 115.702 119.286C115.697 119.28 115.686 119.275 115.681 119.27C115.664 119.259 115.643 119.248 115.621 119.237C115.615 119.231 115.61 119.231 115.604 119.226L103.014 114.107C102.834 114.036 102.633 114.074 102.491 114.205C102.35 114.336 102.301 114.537 102.361 114.723L104.01 119.689L102.349 124.655C102.289 124.84 102.339 125.042 102.48 125.173C102.572 125.26 102.692 125.309 102.818 125.309C102.878 125.309 102.943 125.298 103.003 125.271L115.604 120.152C115.604 120.152 115.604 120.152 115.609 120.152C115.615 120.152 115.62 120.146 115.626 120.141C115.647 120.13 115.67 120.12 115.686 120.108C115.692 120.103 115.702 120.098 115.708 120.092C115.724 120.081 115.74 120.065 115.756 120.054C115.762 120.048 115.767 120.043 115.773 120.037C115.794 120.016 115.811 119.994 115.827 119.972C115.844 119.951 115.855 119.923 115.865 119.896C115.871 119.885 115.871 119.88 115.876 119.869C115.882 119.847 115.887 119.831 115.893 119.809C115.893 119.798 115.898 119.792 115.898 119.781C115.899 119.744 115.904 119.712 115.904 119.684ZM103.624 115.421L112.887 119.189H104.876L103.624 115.421ZM104.876 120.175H112.882L103.619 123.943L104.876 120.175Z" fill="#2D404E"/>
<path d="M100.312 140.7C100.442 140.7 100.568 140.645 100.66 140.553C100.753 140.46 100.807 140.335 100.807 140.204C100.807 140.074 100.753 139.948 100.66 139.856C100.568 139.763 100.442 139.709 100.312 139.709C100.181 139.709 100.056 139.763 99.9634 139.856C99.8709 139.948 99.8164 140.074 99.8164 140.204C99.8164 140.335 99.8709 140.46 99.9634 140.553C100.056 140.651 100.181 140.7 100.312 140.7Z" fill="#2D404E"/>
<path d="M113.838 139.273C113.964 139.273 114.084 139.229 114.181 139.137C114.377 138.946 114.383 138.636 114.192 138.44C114.001 138.244 113.691 138.238 113.495 138.423C113.299 138.614 113.294 138.924 113.479 139.12C113.577 139.218 113.708 139.273 113.838 139.273Z" fill="#2D404E"/>
<path d="M114.632 137.829C114.703 137.867 114.779 137.883 114.855 137.883C115.035 137.883 115.209 137.785 115.296 137.611C115.421 137.366 115.323 137.072 115.078 136.946C114.833 136.821 114.539 136.919 114.413 137.164C114.289 137.41 114.387 137.704 114.632 137.829Z" fill="#2D404E"/>
<path d="M114.913 132.824C115.148 132.683 115.218 132.377 115.077 132.149C114.935 131.914 114.63 131.844 114.396 131.985C114.162 132.127 114.091 132.432 114.233 132.666C114.325 132.818 114.489 132.9 114.652 132.9C114.745 132.895 114.832 132.873 114.913 132.824Z" fill="#2D404E"/>
<path d="M114.811 134.11C114.86 134.344 115.067 134.502 115.29 134.502C115.323 134.502 115.361 134.497 115.393 134.491C115.66 134.437 115.829 134.175 115.775 133.908C115.72 133.641 115.459 133.472 115.192 133.527C114.926 133.581 114.756 133.842 114.811 134.11Z" fill="#2D404E"/>
<path d="M113.903 131.414C114.078 131.202 114.045 130.891 113.832 130.717C113.62 130.543 113.31 130.576 113.136 130.788C112.961 131 112.994 131.311 113.206 131.485C113.299 131.561 113.408 131.594 113.517 131.594C113.663 131.594 113.805 131.534 113.903 131.414Z" fill="#2D404E"/>
<path d="M94.6887 125.642C94.7267 125.888 94.939 126.067 95.179 126.067C95.2006 126.067 95.2278 126.067 95.2499 126.061C95.5223 126.023 95.7073 125.773 95.6693 125.501C95.6313 125.228 95.3804 125.043 95.1086 125.081C94.8356 125.119 94.6501 125.37 94.6887 125.642Z" fill="#2D404E"/>
<path d="M96.0709 121.796C95.8365 121.66 95.5318 121.736 95.3956 121.971C95.2594 122.205 95.3354 122.51 95.5698 122.646C95.6459 122.69 95.7332 122.711 95.8201 122.711C95.9892 122.711 96.1521 122.624 96.2451 122.466C96.3865 122.237 96.3104 121.933 96.0709 121.796Z" fill="#2D404E"/>
<path d="M96.7739 129.072C96.9045 129.072 97.0407 129.018 97.1332 128.915C97.3182 128.713 97.3074 128.403 97.1059 128.218C96.9045 128.033 96.594 128.043 96.409 128.245C96.224 128.446 96.2348 128.757 96.4362 128.942C96.5344 129.029 96.6542 129.072 96.7739 129.072Z" fill="#2D404E"/>
<path d="M98.4159 129.072C98.1656 128.963 97.8767 129.078 97.7678 129.328C97.6588 129.579 97.7734 129.868 98.0237 129.976C98.089 130.004 98.1543 130.015 98.22 130.015C98.4107 130.015 98.5901 129.906 98.6718 129.715C98.7808 129.47 98.6662 129.181 98.4159 129.072Z" fill="#2D404E"/>
<path d="M97.3162 120.583C97.142 120.376 96.8259 120.349 96.6193 120.529C96.4122 120.703 96.3849 121.019 96.5648 121.226C96.663 121.34 96.8043 121.4 96.9405 121.4C97.0551 121.4 97.1636 121.362 97.2617 121.28C97.4632 121.101 97.4905 120.79 97.3162 120.583Z" fill="#2D404E"/>
<path d="M95.1192 124.324C95.1521 124.329 95.1845 124.335 95.2118 124.335C95.4405 124.335 95.6527 124.171 95.6964 123.932C95.7452 123.665 95.571 123.403 95.3043 123.354C95.0375 123.306 94.7759 123.48 94.7271 123.747C94.6778 124.014 94.852 124.275 95.1192 124.324Z" fill="#2D404E"/>
<path d="M95.718 127.705C95.7941 127.705 95.8758 127.688 95.9467 127.65C96.1862 127.525 96.2787 127.226 96.1538 126.985C96.0289 126.745 95.7293 126.653 95.4893 126.778C95.2498 126.904 95.1573 127.203 95.2822 127.443C95.3695 127.607 95.5381 127.705 95.718 127.705Z" fill="#2D404E"/>
<path d="M115.855 135.797C115.888 135.525 115.697 135.28 115.425 135.247C115.152 135.215 114.907 135.405 114.875 135.672C114.842 135.945 115.033 136.19 115.299 136.222C115.321 136.228 115.343 136.228 115.365 136.228C115.61 136.227 115.823 136.048 115.855 135.797Z" fill="#2D404E"/>
<path d="M103.37 129.454C103.098 129.454 102.875 129.672 102.875 129.95C102.875 130.222 103.098 130.445 103.37 130.445C103.643 130.445 103.866 130.222 103.866 129.95C103.86 129.671 103.643 129.454 103.37 129.454Z" fill="#2D404E"/>
<path d="M108.496 140.209C108.496 140.481 108.714 140.704 108.992 140.704C109.264 140.704 109.487 140.481 109.487 140.209C109.487 139.936 109.264 139.713 108.992 139.713C108.719 139.713 108.496 139.936 108.496 140.209Z" fill="#2D404E"/>
<path d="M103.289 140.209C103.289 140.481 103.507 140.704 103.785 140.704C104.057 140.704 104.28 140.481 104.28 140.209C104.28 139.936 104.057 139.713 103.785 139.713C103.512 139.713 103.289 139.936 103.289 140.209Z" fill="#2D404E"/>
<path d="M108.577 129.454C108.305 129.454 108.082 129.672 108.082 129.95C108.082 130.222 108.305 130.445 108.577 130.445C108.85 130.445 109.073 130.222 109.073 129.95C109.073 129.671 108.856 129.454 108.577 129.454Z" fill="#2D404E"/>
<path d="M105.109 129.454C104.836 129.454 104.613 129.672 104.613 129.95C104.613 130.222 104.831 130.445 105.109 130.445C105.381 130.445 105.604 130.222 105.604 129.95C105.599 129.671 105.381 129.454 105.109 129.454Z" fill="#2D404E"/>
<path d="M101.562 140.209C101.562 140.481 101.78 140.704 102.058 140.704C102.33 140.704 102.553 140.481 102.553 140.209C102.553 139.936 102.33 139.713 102.058 139.713C101.78 139.713 101.562 139.936 101.562 140.209Z" fill="#2D404E"/>
<path d="M105.027 140.209C105.027 140.481 105.25 140.704 105.523 140.704C105.795 140.704 106.018 140.481 106.018 140.209C106.018 139.936 105.8 139.713 105.523 139.713C105.25 139.713 105.027 139.936 105.027 140.209Z" fill="#2D404E"/>
<path d="M106.766 140.209C106.766 140.481 106.984 140.704 107.261 140.704C107.533 140.704 107.751 140.481 107.751 140.209C107.751 139.936 107.533 139.713 107.261 139.713C106.989 139.713 106.766 139.936 106.766 140.209Z" fill="#2D404E"/>
<path d="M106.847 129.454C106.575 129.454 106.352 129.672 106.352 129.95C106.352 130.222 106.569 130.445 106.847 130.445C107.119 130.445 107.342 130.222 107.342 129.95C107.337 129.671 107.119 129.454 106.847 129.454Z" fill="#2D404E"/>
<path d="M101.148 129.944C101.148 130.216 101.371 130.439 101.644 130.439C101.916 130.439 102.139 130.216 102.139 129.944C102.139 129.671 101.921 129.448 101.644 129.448C101.371 129.454 101.148 129.671 101.148 129.944Z" fill="#2D404E"/>
<path d="M100.614 119.673C100.609 119.401 100.38 119.183 100.108 119.194C99.8356 119.2 99.6234 119.429 99.629 119.701C99.6347 119.973 99.8634 120.185 100.135 120.18C100.407 120.169 100.625 119.946 100.614 119.673Z" fill="#2D404E"/>
<path d="M99.4111 129.9C99.3946 130.172 99.5961 130.406 99.8685 130.428C99.8793 130.428 99.8901 130.428 99.9014 130.428C100.157 130.428 100.375 130.232 100.392 129.971C100.408 129.698 100.207 129.465 99.9343 129.442C99.6619 129.421 99.4275 129.628 99.4111 129.9Z" fill="#2D404E"/>
<path d="M98.8797 119.842C98.7815 119.586 98.4983 119.461 98.2424 119.559C97.9864 119.657 97.861 119.94 97.9592 120.196C98.0352 120.392 98.2208 120.512 98.4222 120.512C98.4824 120.512 98.542 120.501 98.5965 120.479C98.8524 120.381 98.9778 120.098 98.8797 119.842Z" fill="#2D404E"/>
<path d="M112.48 130.417C112.573 130.161 112.442 129.878 112.181 129.786C111.925 129.693 111.642 129.824 111.549 130.08C111.457 130.336 111.587 130.619 111.849 130.711C111.903 130.733 111.963 130.738 112.017 130.738C112.219 130.744 112.41 130.619 112.48 130.417Z" fill="#2D404E"/>
<path d="M110.32 129.454C110.047 129.454 109.824 129.672 109.824 129.944C109.824 130.217 110.042 130.44 110.315 130.44C110.315 130.44 110.315 130.44 110.32 130.44C110.593 130.44 110.81 130.222 110.816 129.949C110.809 129.677 110.592 129.454 110.32 129.454Z" fill="#2D404E"/>
<path d="M112.398 140.241C112.469 140.241 112.534 140.225 112.605 140.198C112.855 140.083 112.964 139.789 112.85 139.544C112.735 139.294 112.447 139.185 112.197 139.299C111.946 139.414 111.837 139.708 111.951 139.952C112.033 140.132 112.213 140.241 112.398 140.241Z" fill="#2D404E"/>
<path d="M110.236 140.231C110.258 140.487 110.476 140.683 110.726 140.683C110.743 140.683 110.754 140.683 110.77 140.683C111.042 140.661 111.244 140.421 111.217 140.149C111.195 139.877 110.955 139.675 110.683 139.703C110.416 139.719 110.214 139.959 110.236 140.231Z" fill="#2D404E"/>
<path d="M93.7354 141.146C93.61 141.146 93.4902 141.19 93.3926 141.282C93.1968 141.473 93.1911 141.783 93.3818 141.979C93.5725 142.175 93.8829 142.181 94.0787 141.996C94.275 141.805 94.2802 141.494 94.0952 141.299C93.9965 141.2 93.8659 141.146 93.7354 141.146Z" fill="#2D404E"/>
<path d="M92.9217 142.588C92.8508 142.55 92.7747 142.534 92.6987 142.534C92.5188 142.534 92.3446 142.632 92.2577 142.806C92.1323 143.051 92.2305 143.345 92.4756 143.471C92.7208 143.596 93.0148 143.498 93.1402 143.253C93.2645 143.008 93.1669 142.714 92.9217 142.588Z" fill="#2D404E"/>
<path d="M91.7029 144.619C91.67 144.892 91.8607 145.137 92.1331 145.169C92.4055 145.202 92.6506 145.012 92.683 144.745C92.7159 144.472 92.5252 144.227 92.2585 144.195C92.2369 144.189 92.2148 144.189 92.1932 144.189C91.9481 144.189 91.7358 144.369 91.7029 144.619Z" fill="#2D404E"/>
<path d="M99.0573 140.209C99.0573 139.936 98.8394 139.713 98.5619 139.713C98.2895 139.713 98.0664 139.936 98.0664 140.209C98.0664 140.481 98.2895 140.704 98.5619 140.704C98.8337 140.704 99.0573 140.481 99.0573 140.209Z" fill="#2D404E"/>
<path d="M95.1616 140.177C95.0907 140.177 95.0254 140.193 94.9545 140.22C94.7042 140.335 94.5952 140.629 94.7093 140.874C94.8234 141.124 95.1122 141.233 95.3625 141.119C95.6128 141.004 95.7218 140.71 95.6077 140.466C95.5265 140.286 95.3471 140.177 95.1616 140.177Z" fill="#2D404E"/>
<path d="M97.319 140.187C97.2974 139.931 97.0795 139.735 96.8287 139.735C96.8123 139.735 96.8015 139.735 96.785 139.735C96.5126 139.757 96.3112 139.997 96.3384 140.269C96.36 140.541 96.6 140.743 96.8719 140.715C97.1391 140.699 97.3406 140.46 97.319 140.187Z" fill="#2D404E"/>
<path d="M102.227 120.032C102.319 119.94 102.368 119.814 102.368 119.684C102.368 119.553 102.314 119.428 102.227 119.335C102.134 119.243 102.009 119.188 101.878 119.188C101.748 119.188 101.622 119.243 101.53 119.335C101.437 119.428 101.383 119.553 101.383 119.684C101.383 119.814 101.437 119.94 101.53 120.032C101.622 120.125 101.748 120.179 101.878 120.179C102.009 120.174 102.134 120.125 102.227 120.032Z" fill="#2D404E"/>
</svg>
