<svg width="651" height="652" viewBox="0 0 651 652" fill="none" xmlns="http://www.w3.org/2000/svg">
<path d="M488.25 488.75C578.134 398.866 578.134 253.134 488.25 163.25C398.366 73.3657 252.634 73.3657 162.75 163.25C72.8657 253.134 72.8657 398.866 162.75 488.75C252.634 578.634 398.366 578.634 488.25 488.75Z" fill="#CFF0FF"/>
<path d="M404.81 142.414C405.917 138.721 408.134 135.397 411.087 132.812C416.627 128.196 420.136 121.178 420.136 113.422C420.136 99.0193 408.132 87.2007 393.36 87.9391C380.249 88.4929 369.538 99.5731 369.169 112.684C368.984 120.809 372.493 128.011 378.217 132.812C381.357 135.398 383.572 138.721 384.681 142.414H404.81Z" fill="#FED732"/>
<path d="M392.245 142.778H393.907L386.52 115.265C386.704 115.265 386.889 115.265 387.074 115.265C387.997 115.265 388.92 114.895 389.659 114.157C390.029 113.788 390.398 113.603 390.952 113.603C391.505 113.603 391.875 113.788 392.244 114.157C393.536 115.634 395.753 115.634 397.045 114.157C397.414 113.788 397.783 113.603 398.337 113.603C398.706 113.603 399.26 113.788 399.629 114.157C400.368 114.895 401.106 115.265 402.215 115.265C402.4 115.265 402.584 115.265 402.769 115.265L395.567 142.778H397.228L404.799 113.971C404.799 113.602 404.799 113.233 404.43 113.048C404.061 112.863 403.692 113.048 403.507 113.233C403.138 113.602 402.769 113.786 402.4 113.786C401.846 113.786 401.477 113.602 400.923 113.233C400.184 112.494 399.446 112.125 398.522 112.125C397.599 112.125 396.859 112.494 396.12 113.233C395.382 113.971 394.274 113.971 393.535 113.233C392.981 112.494 392.058 112.125 391.133 112.125C390.21 112.125 389.287 112.494 388.732 113.233C388.363 113.602 387.809 113.786 387.255 113.786C386.886 113.786 386.332 113.602 386.148 113.233C385.963 113.048 385.594 112.863 385.225 113.048C384.856 113.233 384.671 113.602 384.856 113.971L392.245 142.778Z" fill="white"/>
<path d="M388.938 159.396C389.86 161.613 392.077 163.274 394.661 163.274C397.247 163.274 399.462 161.613 400.385 159.396H388.938Z" fill="#344A5E"/>
<path d="M401.488 159.582H388.008C386.162 159.582 384.684 158.105 384.684 156.257V142.224H404.812V156.257C404.812 158.103 403.334 159.582 401.488 159.582Z" fill="#344A5E"/>
<path d="M404.621 149.244H384.677C383.57 149.244 382.646 148.321 382.646 147.212C382.646 146.105 383.57 145.182 384.677 145.182H404.621C405.729 145.182 406.653 146.105 406.653 147.212C406.653 148.321 405.73 149.244 404.621 149.244Z" fill="#415A6B"/>
<path d="M404.621 155.707H384.677C383.57 155.707 382.646 154.784 382.646 153.676C382.646 152.569 383.57 151.646 384.677 151.646H404.621C405.729 151.646 406.653 152.569 406.653 153.676C406.653 154.782 405.73 155.707 404.621 155.707Z" fill="#415A6B"/>
<path d="M394.633 74.6411C393.71 74.6411 392.787 75.3795 392.787 76.4885V82.7663C392.787 83.6893 393.526 84.6123 394.633 84.6123C395.741 84.6123 396.481 83.8739 396.481 82.7663V76.4885C396.481 75.3795 395.556 74.6411 394.633 74.6411Z" fill="#FED732"/>
<path d="M369.9 85.9039C369.161 85.1655 368.054 85.1655 367.316 85.9039C366.577 86.6423 366.577 87.7513 367.316 88.4897L371.747 92.9215C372.486 93.6599 373.593 93.6599 374.333 92.9215C375.072 92.1831 375.072 91.0755 374.333 90.3357L369.9 85.9039Z" fill="#FED732"/>
<path d="M364.18 111.385H357.901C356.978 111.385 356.055 112.124 356.055 113.233C356.055 114.156 356.793 115.08 357.901 115.08H364.18C365.103 115.08 366.026 114.342 366.026 113.233C366.027 112.31 365.103 111.385 364.18 111.385Z" fill="#FED732"/>
<path d="M371.747 133.547L367.316 137.979C366.577 138.717 366.577 139.825 367.316 140.563C368.054 141.302 369.161 141.302 369.901 140.563L374.333 136.132C375.072 135.393 375.072 134.286 374.333 133.546C373.593 132.809 372.486 132.807 371.747 133.547Z" fill="#FFD15C"/>
<path d="M417.55 133.546C416.812 132.808 415.704 132.808 414.964 133.546C414.225 134.285 414.226 135.392 414.964 136.132L419.396 140.564C420.135 141.302 421.242 141.302 421.982 140.564C422.721 139.826 422.721 138.718 421.982 137.98L417.55 133.546Z" fill="#FED732"/>
<path d="M431.415 111.385H425.137C424.214 111.385 423.291 112.124 423.291 113.233C423.291 114.156 424.029 115.08 425.137 115.08H431.415C432.338 115.08 433.262 114.342 433.262 113.233C433.261 112.31 432.522 111.385 431.415 111.385Z" fill="#FED732"/>
<path d="M419.396 85.9039L414.964 90.3357C414.226 91.0741 414.226 92.1817 414.964 92.9215C415.702 93.6599 416.81 93.6599 417.55 92.9215L421.982 88.4897C422.72 87.7513 422.72 86.6437 421.982 85.9039C421.242 85.1655 420.134 85.1655 419.396 85.9039Z" fill="#FED732"/>
<path d="M524.082 218.505C544.708 207.053 552.146 181.05 540.695 160.424C529.243 139.798 503.24 132.36 482.614 143.812C461.988 155.263 454.551 181.266 466.002 201.892C477.453 222.518 503.457 229.956 524.082 218.505Z" fill="#FED732"/>
<path opacity="0.1" d="M527.786 170.493L527.37 203.688C526.907 203.192 473.646 203.014 473.646 203.014L497.801 223.523C499.418 223.734 501.061 223.864 502.731 223.888C524.115 224.2 542.058 208.741 545.481 188.275C539.453 182.42 527.786 170.493 527.786 170.493Z" fill="black"/>
<path d="M526.397 154.076C526.386 154.01 526.361 153.95 526.344 153.886C526.322 153.808 526.305 153.729 526.275 153.652C526.244 153.577 526.204 153.51 526.167 153.439C526.135 153.378 526.109 153.316 526.073 153.26C525.994 153.138 525.903 153.024 525.8 152.918C525.8 152.918 525.797 152.914 525.795 152.913C525.79 152.908 525.784 152.905 525.78 152.901C525.681 152.8 525.571 152.708 525.453 152.627C525.395 152.588 525.333 152.561 525.274 152.528C525.205 152.489 525.14 152.447 525.066 152.415C524.991 152.383 524.915 152.365 524.837 152.342C524.772 152.321 524.711 152.295 524.645 152.282C524.505 152.252 524.362 152.238 524.22 152.235C524.214 152.235 524.208 152.233 524.202 152.233L518.201 152.158C516.953 152.143 515.927 153.143 515.911 154.392C515.895 155.641 516.896 156.667 518.145 156.682L518.686 156.69L512.026 163.185L506.442 157.46C505.569 156.566 504.137 156.547 503.243 157.419L492.361 168.032L487.844 163.402C487.006 162.542 485.504 162.523 484.645 163.361L475.894 171.896C475 172.769 474.981 174.201 475.853 175.095C476.289 175.542 476.866 175.77 477.444 175.777C478.022 175.784 478.605 175.571 479.052 175.134L486.184 168.178L490.701 172.809C491.572 173.703 493.005 173.722 493.899 172.849L504.782 162.236L510.366 167.962C511.204 168.821 512.705 168.84 513.565 168.002L521.844 159.927L521.837 160.468C521.821 161.717 522.822 162.743 524.071 162.758C525.32 162.774 526.345 161.773 526.361 160.524L526.436 154.524C526.439 154.372 526.425 154.224 526.397 154.076Z" fill="#2D404E"/>
<path d="M473.881 183.293L473.635 203.022L483.575 203.147L483.821 183.417L473.881 183.293Z" fill="#07ADA5"/>
<path d="M488.37 191.587L488.225 203.204L498.165 203.328L498.31 191.711L488.37 191.587Z" fill="#EF5214"/>
<path d="M503.147 176.768L502.814 203.385L512.754 203.509L513.087 176.892L503.147 176.768Z" fill="#FEFEFE"/>
<path d="M517.808 170.374L517.393 203.568L527.332 203.692L527.747 170.498L517.808 170.374Z" fill="#00D1CA"/>
<path d="M69.8141 284.851H19.25C12.629 284.851 7.25977 279.482 7.25977 272.861V222.297C7.25977 215.676 12.629 210.307 19.25 210.307H69.8141C76.4352 210.307 81.8044 215.676 81.8044 222.297V272.861C81.8044 279.482 76.4366 284.851 69.8141 284.851Z" fill="#00D1CA"/>
<path d="M70.3268 230.374H44.5234C43.7302 230.374 43.0898 229.734 43.0898 228.94C43.0898 228.147 43.7302 227.507 44.5234 227.507H70.3268C71.12 227.507 71.7603 228.147 71.7603 228.94C71.7603 229.732 71.12 230.374 70.3268 230.374Z" fill="white"/>
<path d="M70.3268 250.444H44.5234C43.7302 250.444 43.0898 249.804 43.0898 249.011C43.0898 248.217 43.7302 247.577 44.5234 247.577H70.3268C71.12 247.577 71.7603 248.217 71.7603 249.011C71.7603 249.804 71.12 250.444 70.3268 250.444Z" fill="white"/>
<path d="M70.3268 270.514H44.5234C43.7302 270.514 43.0898 269.874 43.0898 269.081C43.0898 268.287 43.7302 267.647 44.5234 267.647H70.3268C71.12 267.647 71.7603 268.287 71.7603 269.081C71.7603 269.874 71.12 270.514 70.3268 270.514Z" fill="white"/>
<path d="M24.5713 234.677C24.2713 234.677 23.9699 234.583 23.7132 234.39L17.1599 229.474C16.5268 228.999 16.397 228.101 16.8729 227.468C17.3488 226.833 18.2473 226.706 18.879 227.181L24.3578 231.289L33.3166 220.842C33.83 220.241 34.7386 220.172 35.3371 220.688C35.9385 221.203 36.0092 222.107 35.4914 222.708L25.6615 234.177C25.3789 234.505 24.978 234.677 24.5713 234.677Z" fill="white"/>
<path d="M24.5713 254.747C24.2713 254.747 23.9699 254.653 23.7132 254.46L17.1599 249.543C16.5268 249.069 16.397 248.171 16.8729 247.537C17.3488 246.903 18.2473 246.776 18.879 247.25L24.3578 251.359L33.3152 240.912C33.8286 240.308 34.7372 240.241 35.3357 240.758C35.9371 241.273 36.0077 242.177 35.49 242.778L25.6601 254.246C25.3789 254.577 24.978 254.747 24.5713 254.747Z" fill="white"/>
<path d="M24.5713 276.248C24.2713 276.248 23.9699 276.155 23.7132 275.961L17.1599 271.045C16.5268 270.571 16.397 269.672 16.8729 269.039C17.3488 268.404 18.2473 268.277 18.879 268.752L24.3578 272.861L33.3152 262.415C33.8286 261.814 34.7372 261.744 35.3357 262.261C35.9371 262.776 36.0077 263.68 35.49 264.281L25.6601 275.748C25.3789 276.078 24.978 276.248 24.5713 276.248Z" fill="white"/>
<path d="M33.0797 274.763L39.1584 296.292C39.3733 297.054 40.3223 297.313 40.8948 296.767L45.3627 292.502C45.7751 292.108 46.4284 292.116 46.8308 292.519L52.9413 298.416C53.3523 298.827 54.0172 298.827 54.4282 298.416L58.5326 294.312C58.9436 293.901 58.9436 293.236 58.5326 292.825L52.4394 286.945C52.0284 286.534 52.0284 285.869 52.4394 285.458L56.603 281.295C57.1712 280.727 56.9174 279.756 56.1429 279.54L34.3747 273.465C33.583 273.246 32.8576 273.974 33.0797 274.763Z" fill="#2D404E"/>
<path d="M551.607 355.018C577.807 355.018 599.046 333.779 599.046 307.579C599.046 281.379 577.807 260.14 551.607 260.14C525.407 260.14 504.168 281.379 504.168 307.579C504.168 333.779 525.407 355.018 551.607 355.018Z" fill="#00D1CA"/>
<path d="M153.768 195.283C178.353 195.283 198.283 175.353 198.283 150.768C198.283 126.182 178.353 106.252 153.768 106.252C129.182 106.252 109.252 126.182 109.252 150.768C109.252 175.353 129.182 195.283 153.768 195.283Z" fill="#00D1CA"/>
<path d="M188.829 159.255C193.521 139.89 181.626 120.387 162.261 115.695C142.896 111.003 123.394 122.897 118.701 142.262C114.009 161.628 125.904 181.13 145.269 185.822C164.634 190.515 184.136 178.62 188.829 159.255Z" fill="white"/>
<path d="M166.917 152.915C168.157 152.926 169.173 151.93 169.183 150.689C169.194 149.449 168.198 148.435 166.958 148.424L153.267 148.315L153.227 152.806L166.917 152.915Z" fill="#2D404E"/>
<path d="M151.191 150.179L134.124 161.132C133.448 161.566 133.252 162.466 133.686 163.142C133.904 163.48 134.237 163.699 134.6 163.778C134.964 163.858 135.359 163.799 135.696 163.581L152.764 152.628L151.191 150.179Z" fill="#EE3840"/>
<path d="M155.76 130.519C155.771 129.279 154.775 128.265 153.534 128.254C152.294 128.242 151.28 129.239 151.269 130.479L151.123 150.646L155.614 150.687L155.76 130.519Z" fill="#2D404E"/>
<path d="M153.79 156.041C150.881 156.041 148.516 153.675 148.516 150.767C148.516 147.86 150.882 145.493 153.79 145.493C156.699 145.493 159.064 147.86 159.064 150.767C159.064 153.675 156.699 156.041 153.79 156.041Z" fill="#EF5214"/>
<path d="M125.889 152.143H123.832C123.075 152.143 122.461 151.529 122.461 150.771C122.461 150.014 123.075 149.4 123.832 149.4H125.889C126.646 149.4 127.26 150.014 127.26 150.771C127.26 151.529 126.646 152.143 125.889 152.143Z" fill="#2D404E"/>
<path d="M153.776 124.262C153.019 124.262 152.404 123.648 152.404 122.891V120.834C152.404 120.077 153.019 119.463 153.776 119.463C154.533 119.463 155.147 120.077 155.147 120.834V122.891C155.147 123.648 154.534 124.262 153.776 124.262Z" fill="#2D404E"/>
<path d="M183.709 152.143H181.653C180.896 152.143 180.281 151.529 180.281 150.771C180.281 150.014 180.896 149.4 181.653 149.4H183.709C184.466 149.4 185.081 150.014 185.081 150.771C185.081 151.529 184.466 152.143 183.709 152.143Z" fill="#2D404E"/>
<path d="M153.776 182.08C153.019 182.08 152.404 181.465 152.404 180.708V178.652C152.404 177.895 153.019 177.28 153.776 177.28C154.533 177.28 155.147 177.895 155.147 178.652V180.708C155.147 181.465 154.534 182.08 153.776 182.08Z" fill="#2D404E"/>
<path d="M326.484 408.561C325.907 409.152 325.413 409.802 325.006 410.499L324.386 410.177C324.297 409.781 323.92 409.507 323.508 409.556C323.066 409.608 322.751 410.007 322.802 410.448C322.854 410.89 323.254 411.206 323.695 411.154C323.782 411.143 323.864 411.119 323.94 411.084L324.542 411.397C324.207 412.136 323.965 412.916 323.822 413.724L324.817 413.898C325.124 412.157 325.951 410.555 327.207 409.267L326.484 408.561Z" fill="#1D262D"/>
<path d="M333.813 405.491C333.585 405.491 333.359 405.5 333.134 405.514L333.036 404.679C333.285 404.48 333.43 404.16 333.391 403.82C333.329 403.296 332.854 402.921 332.329 402.982C331.806 403.044 331.431 403.518 331.491 404.042C331.532 404.381 331.744 404.656 332.031 404.793L332.129 405.625C331.177 405.78 330.258 406.068 329.383 406.486L329.818 407.398C331.064 406.802 332.408 406.499 333.813 406.499C334.475 406.499 335.137 406.57 335.78 406.71L335.994 405.722C335.281 405.569 334.547 405.491 333.813 405.491Z" fill="#1D262D"/>
<path d="M342.621 408.887C343.063 408.832 343.375 408.431 343.322 407.99C343.267 407.549 342.866 407.236 342.425 407.289C342.013 407.339 341.711 407.694 341.718 408.101L341.163 408.586C340.606 408.012 339.976 407.502 339.285 407.067L338.746 407.922C340.259 408.875 341.44 410.224 342.164 411.823L343.086 411.406C342.751 410.668 342.328 409.977 341.829 409.346L342.366 408.877C342.45 408.894 342.535 408.898 342.621 408.887Z" fill="#1D262D"/>
<path d="M333.067 419.105C332.552 419.135 332.033 419.151 331.523 419.151C330.35 419.151 329.212 419.07 328.218 418.912C327.697 418.83 327.09 418.706 326.523 418.522C327.918 421.004 330.616 422.69 333.71 422.69C337.517 422.69 340.727 420.135 341.643 416.685C340.735 417.284 339.636 417.785 338.365 418.182C336.793 418.672 334.959 418.991 333.067 419.105Z" fill="#1D262D"/>
<path d="M333.786 407.513C329.315 407.513 325.678 411.068 325.678 415.439C325.678 416.006 325.74 416.571 325.861 417.121C326.759 417.764 329.469 418.308 332.992 418.096C336.833 417.865 340.056 416.82 341.891 415.217C341.883 414.958 341.863 414.697 341.83 414.441C341.322 410.491 337.864 407.513 333.786 407.513ZM330.907 416.201C329.547 416.201 328.441 415.095 328.441 413.733C328.441 412.373 329.547 411.267 330.907 411.267C332.267 411.267 333.373 412.373 333.373 413.733C333.373 415.095 332.266 416.201 330.907 416.201ZM337.224 414.989C336.223 414.989 335.41 414.176 335.41 413.175C335.41 412.174 336.223 411.361 337.224 411.361C338.225 411.361 339.038 412.174 339.038 413.175C339.038 414.176 338.225 414.989 337.224 414.989Z" fill="#1D262D"/>
<path d="M355.151 410.001C354.759 409.847 354.077 409.589 353.308 409.685C352.574 409.776 352.183 410.14 352.183 411.028V412.183H355.154V414.473H352.183V421.748H349.607V414.473H347.82V412.183H349.607V410.999C349.607 408.76 350.801 407.289 353.032 407.289C353.889 407.289 354.575 407.45 355.152 407.7L355.151 410.001Z" fill="#1D262D"/>
<path d="M361.42 414.447C361.185 414.407 360.943 414.385 360.718 414.385C359.524 414.385 358.705 415.116 358.705 416.537V421.749H356.129V412.184H358.627V413.231C359.228 412.333 360.147 411.928 361.321 411.928C361.873 411.928 362.451 412.098 362.78 412.376L361.42 414.447Z" fill="#1D262D"/>
<path d="M371.657 416.951C371.657 417.246 371.636 417.603 371.608 417.819H364.826C365.103 419.201 366.07 419.803 367.284 419.803C368.113 419.803 369.012 419.467 369.702 418.886L371.212 420.545C370.126 421.541 368.745 421.996 367.135 421.996C364.203 421.996 362.17 420.001 362.17 416.991C362.17 413.981 364.144 411.928 367.006 411.928C369.762 411.926 371.648 413.97 371.657 416.951ZM364.837 416.062H369.071C368.834 414.838 368.094 414.147 366.988 414.147C365.774 414.147 365.064 414.878 364.837 416.062Z" fill="#1D262D"/>
<path d="M381.871 416.951C381.871 417.246 381.851 417.603 381.822 417.819H375.041C375.317 419.201 376.284 419.803 377.499 419.803C378.328 419.803 379.226 419.467 379.917 418.886L381.427 420.545C380.341 421.541 378.96 421.996 377.35 421.996C374.418 421.996 372.385 420.001 372.385 416.991C372.385 413.981 374.359 411.928 377.22 411.928C379.976 411.926 381.861 413.97 381.871 416.951ZM375.051 416.062H379.286C379.049 414.838 378.308 414.147 377.203 414.147C375.989 414.147 375.279 414.878 375.051 416.062Z" fill="#1D262D"/>
<path d="M392.992 416.961C392.992 419.834 390.999 421.994 388.362 421.994C387.079 421.994 386.172 421.491 385.55 420.751V425.696H382.984V412.184H385.501V413.24C386.123 412.46 387.041 411.928 388.354 411.928C390.999 411.926 392.992 414.088 392.992 416.961ZM385.422 416.961C385.422 418.471 386.418 419.596 387.879 419.596C389.399 419.596 390.347 418.422 390.347 416.961C390.347 415.5 389.399 414.326 387.879 414.326C386.418 414.325 385.422 415.451 385.422 416.961Z" fill="#1D262D"/>
<path d="M397.134 409.056C397.134 409.984 396.413 410.695 395.486 410.695C394.559 410.695 393.848 409.984 393.848 409.056C393.848 408.129 394.559 407.398 395.486 407.398C396.413 407.398 397.134 408.129 397.134 409.056ZM396.79 421.749H394.214V412.185H396.79V421.749Z" fill="#1D262D"/>
<path d="M401.06 415.588L404.662 412.183H407.821L403.181 416.684L407.849 421.748H404.681L401.058 417.878V421.748H398.482V407.535H401.058L401.06 415.588Z" fill="#1D262D"/>
<path d="M225.593 421.664V420.258C224.889 421.216 223.737 421.899 222.409 421.899C219.947 421.899 218.209 420.025 218.209 416.957C218.209 413.949 219.928 411.996 222.409 411.996C223.678 411.996 224.831 412.62 225.593 413.656V408.636H227.058V421.664H225.593ZM225.593 419.106V414.828C225.065 414.008 223.933 413.304 222.76 413.304C220.865 413.304 219.733 414.867 219.733 416.957C219.733 419.047 220.867 420.59 222.76 420.59C223.933 420.59 225.065 419.927 225.593 419.106Z" fill="#1D262D"/>
<path d="M228.928 416.935C228.928 414.201 230.88 411.993 233.576 411.993C236.429 411.993 238.107 414.219 238.107 417.052V417.424H230.469C230.586 419.201 231.837 420.686 233.869 420.686C234.943 420.686 236.036 420.256 236.779 419.495L237.483 420.452C236.545 421.39 235.276 421.898 233.732 421.898C230.94 421.898 228.928 419.886 228.928 416.935ZM233.557 413.204C231.545 413.204 230.549 414.903 230.471 416.348H236.664C236.643 414.943 235.705 413.204 233.557 413.204Z" fill="#1D262D"/>
<path d="M239.188 420.414L239.949 419.359C240.573 420.082 241.766 420.708 243.055 420.708C244.502 420.708 245.282 420.024 245.282 419.087C245.282 416.802 239.441 418.208 239.441 414.711C239.441 413.246 240.71 411.996 242.957 411.996C244.56 411.996 245.692 412.601 246.455 413.363L245.771 414.378C245.204 413.694 244.169 413.187 242.959 413.187C241.669 413.187 240.869 413.832 240.869 414.671C240.869 416.742 246.71 415.375 246.71 419.046C246.71 420.628 245.441 421.898 242.999 421.898C241.453 421.899 240.144 421.429 239.188 420.414Z" fill="#1D262D"/>
<path d="M248.33 409.906C248.33 409.359 248.78 408.909 249.306 408.909C249.853 408.909 250.303 409.358 250.303 409.906C250.303 410.452 249.854 410.882 249.306 410.882C248.78 410.882 248.33 410.454 248.33 409.906ZM248.584 421.665V412.231H250.049V421.665H248.584Z" fill="#1D262D"/>
<path d="M252.487 424.085L253.23 422.991C254.011 423.928 254.949 424.28 256.297 424.28C257.86 424.28 259.324 423.519 259.324 421.448V420.099C258.641 421.057 257.488 421.779 256.159 421.779C253.698 421.779 251.959 419.943 251.959 416.896C251.959 413.869 253.678 411.993 256.159 411.993C257.429 411.993 258.561 412.617 259.324 413.653V412.226H260.789V421.387C260.789 424.512 258.602 425.489 256.297 425.489C254.695 425.491 253.6 425.179 252.487 424.085ZM259.324 418.947V414.825C258.817 414.005 257.683 413.301 256.51 413.301C254.615 413.301 253.483 414.805 253.483 416.895C253.483 418.966 254.615 420.489 256.51 420.489C257.683 420.49 258.817 419.767 259.324 418.947Z" fill="#1D262D"/>
<path d="M269.607 421.662V415.49C269.607 413.83 268.768 413.302 267.497 413.302C266.345 413.302 265.25 414.006 264.704 414.767V421.662H263.238V412.228H264.704V413.595C265.367 412.813 266.656 411.993 268.062 411.993C270.035 411.993 271.071 412.989 271.071 415.04V421.662H269.607Z" fill="#1D262D"/>
<path d="M272.959 416.935C272.959 414.201 274.913 411.993 277.609 411.993C280.46 411.993 282.14 414.219 282.14 417.052V417.424H274.502C274.619 419.201 275.869 420.686 277.901 420.686C278.976 420.686 280.07 420.256 280.812 419.495L281.515 420.452C280.578 421.39 279.307 421.898 277.764 421.898C274.971 421.898 272.959 419.886 272.959 416.935ZM277.588 413.204C275.577 413.204 274.58 414.903 274.502 416.348H280.693C280.675 414.943 279.737 413.204 277.588 413.204Z" fill="#1D262D"/>
<path d="M290.864 421.664V420.258C290.161 421.216 289.008 421.899 287.68 421.899C285.22 421.899 283.48 420.025 283.48 416.957C283.48 413.949 285.2 411.996 287.68 411.996C288.951 411.996 290.103 412.62 290.864 413.656V408.636H292.33V421.664H290.864ZM290.864 419.106V414.828C290.337 414.008 289.204 413.304 288.032 413.304C286.137 413.304 285.005 414.867 285.005 416.957C285.005 419.047 286.138 420.59 288.032 420.59C289.203 420.59 290.337 419.927 290.864 419.106Z" fill="#1D262D"/>
<path d="M299.311 421.664V408.636H300.776V413.656C301.539 412.62 302.671 411.996 303.96 411.996C306.42 411.996 308.16 413.949 308.16 416.957C308.16 420.023 306.42 421.899 303.96 421.899C302.632 421.899 301.48 421.216 300.776 420.258V421.664H299.311ZM303.588 420.59C305.503 420.59 306.635 419.047 306.635 416.957C306.635 414.867 305.502 413.304 303.588 413.304C302.436 413.304 301.283 414.008 300.776 414.828V419.106C301.283 419.927 302.436 420.59 303.588 420.59Z" fill="#1D262D"/>
<path d="M309.752 424.028C309.966 424.126 310.318 424.184 310.552 424.184C311.197 424.184 311.626 423.969 311.958 423.187L312.583 421.761L308.637 412.228H310.219L313.364 419.964L316.489 412.228H318.092L313.364 423.576C312.797 424.944 311.84 425.472 310.591 425.49C310.278 425.49 309.79 425.431 309.516 425.353L309.752 424.028Z" fill="#1D262D"/>
<path d="M363.779 566.036H331.763H299.746C299.746 566.036 298.449 587.433 295.855 591.972H331.763H367.67C365.076 587.432 363.779 566.036 363.779 566.036Z" fill="#C6CBCB"/>
<path d="M373.68 593.755C369.789 593.268 367.684 591.973 367.684 591.973H331.777H295.869C295.869 591.973 293.764 593.269 289.873 593.755C285.983 594.243 283.389 594.566 283.389 596.511H331.777H380.164C380.164 594.564 377.57 594.241 373.68 593.755Z" fill="#C6CBCB"/>
<path d="M470.498 558.903C470.498 562.844 467.306 566.035 463.365 566.035H195.338C191.398 566.035 188.205 562.842 188.205 558.903V378.692C188.205 374.753 191.398 371.559 195.338 371.559H463.365C467.305 371.559 470.498 374.755 470.498 378.692V558.903Z" fill="#C6CBCB"/>
<path d="M478.336 558.903C478.336 562.844 475.143 566.035 471.203 566.035H203.176C199.236 566.035 196.043 562.842 196.043 558.903V378.692C196.043 374.753 199.236 371.559 203.176 371.559H471.203C475.143 371.559 478.336 374.755 478.336 378.692V558.903Z" fill="#E2E5E7"/>
<path d="M369.203 566.036H337.187H305.17C305.17 566.036 303.872 587.433 301.279 591.972H337.187H373.094C370.499 587.432 369.203 566.036 369.203 566.036Z" fill="#D1D5D5"/>
<path d="M379.085 593.755C375.194 593.268 373.088 591.973 373.088 591.973H337.181H301.274C301.274 591.973 299.168 593.269 295.277 593.755C291.387 594.243 288.793 594.566 288.793 596.511H337.181H385.569C385.569 594.564 382.976 594.241 379.085 593.755Z" fill="#C6CBCB"/>
<path d="M471.203 371.559H203.176C199.236 371.559 196.043 374.755 196.043 378.692V540.533H478.336V378.692C478.336 374.755 475.143 371.559 471.203 371.559ZM466.653 530.397H324.985H207.726V381.699H415.907H466.653V530.397Z" fill="#2D404E"/>
<path d="M207.717 381.698V530.396H324.976H466.644V381.698H415.898H207.717Z" fill="#FCFCFC"/>
<path d="M369.222 566.036H337.205H305.189C305.189 566.036 304.996 569.218 304.609 573.385H369.8C369.415 569.218 369.222 566.036 369.222 566.036Z" fill="#C6CBCB"/>
<path d="M337.245 549.246C339.807 549.246 341.884 551.323 341.884 553.884C341.884 556.445 339.807 558.522 337.245 558.522C334.684 558.522 332.607 556.445 332.607 553.884C332.607 551.323 334.684 549.246 337.245 549.246Z" fill="#2D404E"/>
<path opacity="0.16" d="M471.206 371.559H422.105L318.793 540.534H478.339V378.694C478.339 374.755 475.146 371.559 471.206 371.559Z" fill="#E2E5E7"/>
<path d="M160.948 337.145C183.179 333.505 198.25 312.532 194.61 290.301C190.969 268.069 169.996 252.998 147.765 256.639C125.534 260.279 110.463 281.252 114.103 303.483C117.743 325.715 138.716 340.786 160.948 337.145Z" fill="#2D404E"/>
<path d="M177.256 319.78C189.906 307.13 189.906 286.62 177.256 273.97C164.606 261.32 144.096 261.32 131.446 273.97C118.796 286.62 118.796 307.13 131.446 319.78C144.096 332.43 164.606 332.43 177.256 319.78Z" fill="#FEFEFE"/>
<path d="M177.297 306.275C182.487 293.591 176.413 279.101 163.729 273.911C151.046 268.721 136.557 274.797 131.366 287.481C126.176 300.165 132.251 314.655 144.934 319.845C157.618 325.035 172.107 318.959 177.297 306.275Z" fill="#2D404E"/>
<path d="M169.505 303.073C172.94 294.706 168.942 285.139 160.575 281.704C152.208 278.269 142.641 282.267 139.206 290.634C135.771 299.001 139.769 308.568 148.136 312.003C156.502 315.438 166.07 311.44 169.505 303.073Z" fill="#FEFEFE"/>
<path d="M154.339 288.418C149.669 288.418 145.885 292.204 145.885 296.872C145.885 301.542 149.67 305.326 154.339 305.326C159.009 305.326 162.793 301.54 162.793 296.872C162.793 292.204 159.007 288.418 154.339 288.418Z" fill="#2D404E"/>
<path d="M121.123 337.48V325.891C121.123 323.531 122.735 321.343 125.065 320.966C128.033 320.482 130.597 322.761 130.597 325.638V323.523C130.597 321.163 132.209 318.975 134.538 318.598C137.506 318.114 140.07 320.393 140.07 323.27V321.155C140.07 318.795 141.683 316.607 144.012 316.229C146.98 315.746 149.544 318.025 149.544 320.902V300.902C149.544 298.543 151.156 296.355 153.485 295.977C156.453 295.494 159.018 297.773 159.018 300.65V337.483C159.018 347.947 150.535 356.43 140.07 356.43C129.606 356.429 121.123 347.944 121.123 337.48Z" fill="#F9934E"/>
<path d="M126.474 366.863H154.297C155.883 366.863 157.181 365.565 157.181 363.979V354.068C157.181 352.482 155.883 351.184 154.297 351.184H126.474C124.888 351.184 123.59 352.482 123.59 354.068V363.979C123.59 365.565 124.888 366.863 126.474 366.863Z" fill="#FEFEFE"/>
<path d="M334.318 381.701V380.794C334.318 393.545 323.982 403.882 311.23 403.882H187.928C171.979 403.882 159.049 390.953 159.049 375.002V365.126H121.771V375.004C121.771 411.54 151.389 441.158 187.927 441.158H311.4C345.056 441.158 372.579 414.89 374.581 381.737L334.318 381.701Z" fill="#07ADA5"/>
<path d="M572.928 483.574C575.369 483.189 577.178 480.921 577.065 478.466C577.018 477.439 576.631 476.498 576.026 475.693C576.015 475.546 575.998 475.42 575.972 475.315C578.574 474.991 580.447 472.768 580.326 470.12C580.268 468.848 579.673 467.783 578.904 466.907C581.155 466.349 582.786 464.179 582.678 461.816C582.579 459.634 581.132 457.879 579.19 457.24C580.061 456.381 580.548 455.083 580.486 453.72C580.362 450.993 577.985 448.825 575.258 448.949L565.754 449.385C565.391 449.402 564.54 448.711 563.792 448.29C561.997 446.914 555.782 445.286 552.42 445.44L548.239 445.632C540.059 446.007 535.673 452.883 534.831 454.379L504.445 452.47L503.34 479.31L536.462 478.961C537.025 479.3 538.767 481.496 539.238 481.839C542.632 484.326 543.846 484.998 553.026 484.578L572.567 483.684C572.75 483.674 572.837 483.579 572.928 483.574Z" fill="#F9934E"/>
<path d="M570.25 482.233L561.418 480.863C559 480.488 557.193 478.44 557.122 475.993L556.197 443.792C556.107 440.621 558.914 438.144 562.048 438.63L570.88 440.001C573.299 440.376 575.106 442.423 575.176 444.871L576.101 477.072C576.192 480.243 573.384 482.719 570.25 482.233Z" fill="#26353F"/>
<path d="M626.535 457.627L579.457 443.26L579.711 399.682L626.954 385.866L626.535 457.627Z" fill="#E2E5E7"/>
<path opacity="0.1" d="M579.59 421.599L579.463 443.259L626.543 457.626L626.75 421.875L579.59 421.599Z" fill="black"/>
<path d="M626.024 461.94C624.132 461.929 622.606 460.385 622.617 458.493L623.046 384.954C623.057 383.062 624.6 381.536 626.492 381.547C628.385 381.559 629.91 383.102 629.899 384.994L629.47 458.534C629.46 460.426 627.917 461.952 626.024 461.94Z" fill="#2F505E"/>
<path opacity="0.1" d="M622.813 421.854L622.6 458.493C622.588 460.386 624.114 461.929 626.006 461.94C627.898 461.952 629.441 460.426 629.453 458.534L629.666 421.894L622.813 421.854Z" fill="black"/>
<path d="M536.672 439.943L551.437 440.029L551.655 402.595L536.89 402.508C531.776 402.478 527.607 406.599 527.577 411.713L527.467 430.629C527.437 435.743 531.558 439.914 536.672 439.943Z" fill="#EF5214"/>
<path opacity="0.1" d="M527.522 421.304L527.467 430.632C527.437 435.746 531.558 439.915 536.672 439.945L551.437 440.032L551.546 421.444L527.522 421.304Z" fill="black"/>
<path d="M579.453 443.264L550.762 443.096C548.557 443.083 546.78 441.285 546.793 439.08L547.001 403.487C547.014 401.282 548.812 399.505 551.017 399.518L579.708 399.685L579.453 443.264Z" fill="#2F505E"/>
<path opacity="0.1" d="M546.895 421.415L546.793 439.082C546.78 441.287 548.558 443.085 550.762 443.098L579.453 443.265L579.579 421.605L546.895 421.415Z" fill="black"/>
<path d="M558.534 471.121C558.41 468.393 560.578 466.018 563.305 465.893L575.121 465.352C577.848 465.226 580.223 467.395 580.349 470.123C580.474 472.85 578.305 475.225 575.578 475.35L563.762 475.891C561.035 476.015 558.658 473.848 558.534 471.121Z" fill="#E58341"/>
<path d="M578.51 470.202C578.431 468.476 576.911 467.087 575.183 467.166L563.367 467.707C561.639 467.786 560.252 469.307 560.331 471.034C560.411 472.761 561.931 474.149 563.658 474.07L575.474 473.529C577.2 473.45 578.589 471.928 578.51 470.202Z" fill="#F9934E"/>
<path d="M558.667 454.72C558.543 451.993 560.711 449.618 563.438 449.492L575.254 448.951C577.981 448.826 580.356 450.995 580.481 453.722C580.607 456.449 578.438 458.825 575.711 458.95L563.895 459.491C561.168 459.615 558.791 457.447 558.667 454.72Z" fill="#E58341"/>
<path d="M578.662 453.805C578.583 452.078 577.063 450.69 575.335 450.769L563.52 451.31C561.793 451.389 560.404 452.909 560.484 454.637C560.563 456.363 562.083 457.752 563.811 457.673L575.627 457.132C577.354 457.052 578.742 455.531 578.662 453.805Z" fill="#F9934E"/>
<path d="M559.794 479.26C559.669 476.533 561.838 474.158 564.565 474.032L571.836 473.699C574.564 473.574 576.939 475.743 577.064 478.47C577.188 481.197 575.021 483.572 572.294 483.698L565.022 484.031C562.296 484.155 559.92 481.987 559.794 479.26Z" fill="#E58341"/>
<path d="M575.257 478.549C575.177 476.823 573.657 475.434 571.93 475.513L564.658 475.847C562.932 475.926 561.543 477.446 561.622 479.174C561.702 480.9 563.222 482.289 564.949 482.21L572.221 481.876C573.949 481.797 575.336 480.276 575.257 478.549Z" fill="#F9934E"/>
<path d="M557.241 462.891C557.179 461.528 557.112 460.073 558.338 459.016C558.689 458.726 559.144 458.706 559.519 458.961C560.184 459.568 561.3 460.063 562.235 460.568C562.512 460.646 562.702 460.82 562.979 460.898C564.004 461.397 565.631 461.14 566.685 460.274C567.122 459.89 567.643 459.319 567.515 458.506C567.411 458.237 567.49 457.96 567.663 457.77C567.836 457.58 568.102 457.385 568.374 457.374L577.463 456.958C580.19 456.834 582.565 459.002 582.691 461.729C582.816 464.456 580.651 466.922 577.924 467.048L562.473 467.754C559.746 467.877 557.369 465.708 557.241 462.891Z" fill="#E58341"/>
<path d="M559.138 460.981C558.976 461.444 559.002 461.989 559.04 462.807C559.124 464.625 560.644 466.012 562.371 465.933L577.823 465.226C579.549 465.147 580.938 463.627 580.859 461.899C580.779 460.172 579.259 458.784 577.531 458.864L569.261 459.241C569.121 460.159 568.616 461.092 567.738 461.77C566.065 463.03 563.714 463.411 562.128 462.573C561.942 462.491 561.66 462.32 561.474 462.238C560.729 461.909 559.889 461.493 559.138 460.981Z" fill="#F9934E"/>
<path d="M553.164 450.097C555.147 455.711 559.044 458.982 562.867 460.901C564.173 461.571 566.421 460.922 567.184 459.702C567.862 458.578 566.807 457.442 565.77 456.67C563.697 455.126 563.717 453.218 562.25 451.008C562.25 451.008 559.775 445.346 555.332 445.616C552.018 445.818 553.164 450.097 553.164 450.097Z" fill="#F9934E"/>
<path d="M553.157 453.606C553.14 453.242 553.397 452.866 553.751 452.668C554.201 452.557 554.759 452.804 554.87 453.255C555.619 455.68 559.048 458.985 562.872 460.905C564.177 461.574 566.425 460.925 567.188 459.705C567.866 458.581 566.812 457.445 565.775 456.673C562.749 454.455 560.123 451.021 558.655 448.811C558.451 448.365 558.518 447.816 558.96 447.521C559.406 447.319 559.955 447.384 560.25 447.827C561.618 449.859 564.263 453.064 566.889 455.165C570.281 457.651 569.204 459.977 568.779 460.634C567.507 462.696 564.177 463.577 562.123 462.487C558.487 460.649 554.317 457.106 553.254 453.785C553.166 453.788 553.161 453.697 553.157 453.606Z" fill="#E58341"/>
<path d="M517.775 453.458V481.281C517.775 482.867 519.073 484.165 520.66 484.165H530.57C532.157 484.165 533.455 482.867 533.455 481.281V453.458C533.455 451.872 532.157 450.574 530.57 450.574H520.66C519.073 450.574 517.775 451.872 517.775 453.458Z" fill="#F0F5F7"/>
<path d="M519.954 486.702H440.552C393.084 486.702 354.467 448.085 354.467 400.619V381.699H391.806V400.619C391.806 427.495 413.674 449.363 440.552 449.363H519.954V486.702Z" fill="#FED732"/>
<path d="M429.433 208.546L422.86 213.209C422.86 213.209 419.592 203.977 417.045 198.187C415.998 195.809 412.822 194.964 411.35 191.641C408.784 185.849 411.8 180.842 414.868 184.456C418.403 188.621 423.559 191.712 424.602 194.091C426.344 198.063 429.433 208.546 429.433 208.546Z" fill="#F9934E"/>
<path d="M434.678 212.333C435.139 215.486 434.741 220.453 431.984 226.255C431.984 226.255 426.285 219.427 425.621 216.311C425.621 216.311 423.991 204.411 422.376 196.828C421.711 193.712 418.104 191.911 417.166 187.558C415.526 179.968 420.393 174.695 423.178 179.796C426.39 185.676 431.808 190.66 432.47 193.777C433.575 198.977 433.999 207.71 434.678 212.333Z" fill="#F9934E"/>
<path d="M426.217 206.356C426.217 206.356 425.685 201.858 424.067 194.278C423.405 191.158 419.799 189.357 418.858 185.005C418.295 182.39 418.498 180.051 419.124 178.316C417.414 179.631 416.027 183.212 416.965 187.557C417.904 191.91 421.538 193.73 422.196 196.851C422.883 200.114 423.468 203.515 423.468 203.515L418.467 201.649L426.217 206.356Z" fill="#E58341"/>
<path d="M432.277 211.151C425.65 205.121 418.294 201.472 413.52 199.127C406.436 195.646 408.301 200.437 396.217 203.602C394.62 204.021 392.723 205.183 394.173 208.213C395.574 211.129 406.98 208.917 408.752 207.17C408.752 207.17 413.526 213.01 418.297 212.873C418.297 212.873 417.472 216.748 418.633 218.621C418.633 218.621 411.873 222.137 408.977 225.224L400.943 219.846C400.355 211.526 398.842 209.064 394.75 209.458C390.934 209.824 391.365 213.404 391.449 216.35C391.599 221.654 390.193 222.514 391.49 224.618C396.448 232.668 402.672 237.659 414.253 237.659C418.589 237.659 421.343 237.544 424.006 236.224C428.471 234.014 439.569 217.785 432.277 211.151Z" fill="#F9934E"/>
<path d="M433.552 212.732C436.03 220.334 427.176 232.794 423.301 234.712C420.636 236.029 417.883 236.146 413.548 236.146C402.092 236.146 395.835 231.236 390.947 223.364C391.064 223.802 391.227 224.217 391.477 224.624C396.436 232.673 402.662 237.664 414.241 237.664C418.579 237.664 421.334 237.549 423.998 236.229C428.14 234.176 437.987 220.058 433.552 212.732Z" fill="#F9934E"/>
<path d="M399.552 220.106C399.552 220.106 407.023 224.9 408.838 225.164L400.96 219.846C401.28 211.447 398.817 208.773 394.764 209.458C394.434 209.516 394.14 209.581 393.873 209.657C397.931 209.245 399.883 211.91 399.552 220.106Z" fill="#E58341"/>
<path d="M408.776 207.171C408.776 207.171 413.551 213.01 418.32 212.873V211.79C413.552 211.925 408.776 206.086 408.776 206.086C407.005 207.833 395.599 210.045 394.2 207.129C393.954 206.618 393.812 206.162 393.74 205.751C393.608 206.39 393.712 207.194 394.2 208.215C395.599 211.129 407.005 208.917 408.776 207.171Z" fill="#E58341"/>
<path d="M428.779 245.252H404.385L394.594 229.018L432.615 225.164L428.779 245.252Z" fill="#F9934E"/>
<path d="M402.017 258.73H429.84C431.426 258.73 432.724 257.432 432.724 255.845V245.935C432.724 244.348 431.426 243.05 429.84 243.05H402.017C400.431 243.05 399.133 244.348 399.133 245.935V255.845C399.133 257.432 400.431 258.73 402.017 258.73Z" fill="#FEFEFE"/>
<path d="M348.807 518.523C396.237 518.523 434.822 479.938 434.822 432.508V257.009H397.483V432.508C397.483 459.348 375.647 481.184 348.807 481.184C321.966 481.184 300.13 459.348 300.13 432.508V381.7H262.791V432.509C262.791 479.938 301.376 518.523 348.807 518.523Z" fill="#00D1CA"/>
<path d="M326.542 281.998C326.542 283.147 326.159 284.105 325.393 284.871C324.627 285.445 323.861 285.828 322.712 285.828H238.452C237.494 285.828 236.536 285.445 235.771 284.871C235.005 284.105 234.621 283.147 234.621 281.998V225.889H326.541V281.998H326.542Z" fill="#FED732"/>
<path d="M325.394 284.872C324.628 285.446 323.862 285.83 322.713 285.83H238.452C237.495 285.83 236.537 285.446 235.771 284.872L280.583 246.38L325.394 284.872Z" fill="#FFB621"/>
<path d="M326.54 225.89L313.518 235.275L283.07 257.106C281.538 258.256 279.431 258.256 277.899 257.106L247.643 235.275L234.621 225.89L247.643 216.506L275.984 196.208L278.091 194.676C279.623 193.527 281.73 193.527 283.261 194.676L285.368 196.208L298.965 205.974L305.668 210.762L313.52 216.508L326.54 225.89Z" fill="#024057"/>
<path d="M313.509 200.863V235.273L283.06 257.105C281.528 258.254 279.421 258.254 277.89 257.105L247.633 235.273V200.036C247.633 197.929 249.356 196.206 251.463 196.206H308.855C311.425 196.206 313.509 198.291 313.509 200.863Z" fill="#F2F2F2"/>
<path d="M292.834 225.165C292.834 218.401 287.332 212.897 280.568 212.897C273.805 212.897 268.303 218.401 268.303 225.165C268.303 231.928 273.805 237.43 280.568 237.43C282.73 237.43 284.853 236.864 286.706 235.789C287.468 235.348 287.729 234.371 287.286 233.61C286.845 232.849 285.87 232.589 285.107 233.03C283.738 233.823 282.169 234.242 280.568 234.242C275.564 234.242 271.491 230.17 271.491 225.165C271.491 220.159 275.563 216.086 280.568 216.086C285.573 216.086 289.645 220.159 289.645 225.165V225.166V227.837C289.645 228.127 289.536 228.397 289.338 228.594C289.135 228.797 288.864 228.909 288.575 228.909C288.291 228.909 288.023 228.796 287.81 228.584C287.557 228.336 287.504 228.04 287.504 227.836V225.166C287.504 221.344 284.393 218.235 280.57 218.235C276.75 218.235 273.64 221.344 273.64 225.166C273.64 228.988 276.748 232.097 280.57 232.097C282.326 232.097 283.916 231.419 285.139 230.338C285.27 230.517 285.405 230.694 285.567 230.851C286.373 231.654 287.442 232.097 288.575 232.097C289.713 232.097 290.785 231.654 291.591 230.85C292.393 230.048 292.834 228.978 292.834 227.836V225.166V225.165ZM280.568 228.91C278.506 228.91 276.829 227.231 276.829 225.167C276.829 223.104 278.506 221.425 280.568 221.425C282.632 221.425 284.312 223.104 284.312 225.167C284.312 227.231 282.632 228.91 280.568 228.91Z" fill="#00D1CA"/>
<path d="M234.902 244.914V269.276C234.902 269.276 235.773 278.169 241.214 279.468C245.89 280.584 249.687 275.43 249.687 275.43C249.687 275.43 250.147 272.321 252.235 268.759C253.525 266.559 256.83 263.189 259.128 264.598C260.55 265.469 260.15 271.194 260.356 278.149C260.508 283.241 257.783 291.868 255.855 296.584C254.5 299.899 251.16 303.15 249.854 303.945C247.429 305.423 228.796 304.431 228.796 304.431L224.81 274.836C224.81 274.836 222.998 252.31 234.902 244.914Z" fill="#F9934E"/>
<path d="M255.416 315.415H227.595C226.009 315.415 224.711 314.117 224.711 312.531V302.62C224.711 301.034 226.009 299.736 227.595 299.736H255.416C257.003 299.736 258.301 301.034 258.301 302.62V312.531C258.301 314.117 257.003 315.415 255.416 315.415Z" fill="#FEFEFE"/>
<path d="M308.613 478.494C261.183 478.494 222.596 439.908 222.596 392.478V313.698H259.935V392.478C259.935 419.318 281.771 441.154 308.611 441.154C335.452 441.154 357.288 419.318 357.288 392.478V381.701H394.627V392.478C394.63 439.908 356.043 478.494 308.613 478.494Z" fill="#2D404E"/>
<path d="M73.6025 504.182L93.144 505.076C102.323 505.496 103.539 504.822 106.931 502.338C107.403 501.994 109.145 499.798 109.707 499.459L142.83 499.808L141.725 472.968L111.338 474.877C110.496 473.381 106.111 466.505 97.9306 466.13L93.7497 465.938C90.3865 465.784 84.1708 467.412 82.3781 468.788C81.6297 469.209 80.7788 469.899 80.4153 469.883L70.9114 469.447C68.1843 469.323 65.809 471.491 65.6835 474.218C65.6215 475.581 66.1075 476.879 66.98 477.738C65.0389 478.379 63.5909 480.134 63.4914 482.314C63.3832 484.678 65.0144 486.847 67.2656 487.405C66.4969 488.281 65.9013 489.346 65.8436 490.618C65.7225 493.266 67.5958 495.489 70.1975 495.813C70.173 495.92 70.1557 496.045 70.1456 496.191C69.5399 496.994 69.1534 497.937 69.1058 498.964C68.9933 501.419 70.8018 503.687 73.2434 504.072C73.3343 504.078 73.4208 504.173 73.6025 504.182Z" fill="#F9934E"/>
<path d="M78.0821 504.06L90.2237 504.643L89.9944 463.069L77.8672 464.722L78.0821 504.06Z" fill="#BED6E5"/>
<path d="M90.7876 438.022L90.8683 452.493L83.894 456.77L76.8734 452.388L76.7884 437.346C71.947 439.645 68.6487 444.571 68.6819 450.433C68.728 458.83 75.5625 465.963 83.9488 466.367C92.3264 466.766 99.0873 460.288 99.0455 451.902C99.008 446.036 95.665 440.794 90.7876 438.022Z" fill="#BED6E5"/>
<path d="M79.8975 502.522C74.4114 504.633 71.8948 510.627 74.2643 515.904C76.6281 521.176 82.9924 523.739 88.477 521.623C93.9558 519.505 96.4753 513.514 94.1044 508.237C91.7392 502.966 85.3792 500.408 79.8975 502.522ZM92.1718 512.197L89.9898 514.456L89.9523 517.595L86.6916 517.649L84.3538 519.756L81.9281 517.571L78.6644 517.412L78.4813 514.273L76.2026 511.942L78.3846 509.684L78.4236 506.544L81.6814 506.495L84.0221 504.388L86.4536 506.571L89.7129 506.729L89.8918 509.871L92.1718 512.197Z" fill="#BED6E5"/>
<path d="M87.6516 491.619C87.777 488.891 85.608 486.516 82.8808 486.391L71.0651 485.85C68.3379 485.724 65.9627 487.893 65.8372 490.621C65.7117 493.348 67.8808 495.723 70.6079 495.849L82.4237 496.389C85.1508 496.513 87.5275 494.346 87.6516 491.619Z" fill="#E58341"/>
<path d="M67.6536 490.705C67.7329 488.979 69.253 487.59 70.9807 487.67L82.7965 488.211C84.5228 488.29 85.9116 489.81 85.8322 491.538C85.7529 493.264 84.2329 494.653 82.5051 494.573L70.6894 494.033C68.9631 493.953 67.5743 492.432 67.6536 490.705Z" fill="#F9934E"/>
<path d="M87.5109 475.223C87.6364 472.496 85.4674 470.121 82.7402 469.995L70.9245 469.454C68.1973 469.329 65.8221 471.498 65.6966 474.225C65.5711 476.952 67.7401 479.328 70.4673 479.453L82.2831 479.994C85.0102 480.118 87.3869 477.95 87.5109 475.223Z" fill="#E58341"/>
<path d="M67.4896 474.308C67.5689 472.582 69.0889 471.193 70.8167 471.272L82.6324 471.813C84.3587 471.892 85.7475 473.412 85.6682 475.14C85.5889 476.866 84.0688 478.255 82.3411 478.176L70.5253 477.635C68.7976 477.556 67.4102 476.034 67.4896 474.308Z" fill="#F9934E"/>
<path d="M86.3827 499.76C86.5067 497.033 84.3391 494.656 81.6119 494.532L74.3405 494.199C71.6133 494.074 69.2381 496.243 69.1126 498.97C68.9871 501.697 71.1562 504.072 73.8833 504.198L81.1548 504.531C83.8805 504.655 86.2572 502.487 86.3827 499.76Z" fill="#E58341"/>
<path d="M70.9212 499.053C71.0005 497.326 72.5206 495.938 74.2483 496.017L81.5198 496.35C83.2461 496.429 84.6349 497.949 84.5555 499.677C84.4762 501.403 82.9562 502.792 81.2284 502.713L73.957 502.38C72.2293 502.3 70.8419 500.779 70.9212 499.053Z" fill="#F9934E"/>
<path d="M88.9386 483.391C89.0006 482.029 89.0669 480.573 87.8411 479.516C87.4906 479.226 87.0364 479.206 86.66 479.461C85.9951 480.069 84.8789 480.563 83.9458 481.068C83.6689 481.146 83.4785 481.32 83.2016 481.398C82.1762 481.897 80.5495 481.641 79.4967 480.774C79.0583 480.389 78.5391 479.819 78.6674 479.006C78.7713 478.738 78.6919 478.461 78.5189 478.27C78.3458 478.08 78.0804 477.887 77.8079 477.874L68.7193 477.458C65.9921 477.333 63.6169 479.502 63.4914 482.229C63.3674 484.956 65.5306 487.422 68.2578 487.548L83.7093 488.254C86.4335 488.377 88.8102 486.208 88.9386 483.391Z" fill="#E58341"/>
<path d="M87.0168 481.481C87.1783 481.944 87.1524 482.489 87.1149 483.306C87.0312 485.124 85.5112 486.512 83.7835 486.433L68.332 485.726C66.6043 485.647 65.2169 484.127 65.2962 482.399C65.3755 480.673 66.8956 479.284 68.6233 479.364L76.8942 479.741C77.0341 480.659 77.5388 481.593 78.4186 482.271C80.0915 483.531 82.4422 483.912 84.0286 483.074C84.2147 482.992 84.4959 482.822 84.6819 482.74C85.4261 482.409 86.2654 481.993 87.0168 481.481Z" fill="#F9934E"/>
<path d="M92.9897 470.597C91.0068 476.211 87.11 479.482 83.2868 481.401C81.9816 482.071 79.7333 481.422 78.9704 480.202C78.2925 479.078 79.3468 477.942 80.3837 477.17C82.4575 475.626 82.4373 473.718 83.904 471.508C83.904 471.508 86.3774 465.846 90.8207 466.116C94.1363 466.318 92.9897 470.597 92.9897 470.597Z" fill="#F9934E"/>
<path d="M93.0187 474.105C93.036 473.742 92.7793 473.365 92.4245 473.168C91.9745 473.055 91.4164 473.303 91.3054 473.753C90.5569 476.177 87.1274 479.483 83.3042 481.402C81.999 482.072 79.7507 481.423 78.9877 480.203C78.3099 479.079 79.3641 477.943 80.4011 477.171C83.4268 474.953 86.053 471.519 87.5211 469.308C87.723 468.863 87.6581 468.313 87.2154 468.019C86.7697 467.816 86.2203 467.882 85.926 468.325C84.5574 470.357 81.9125 473.561 79.2863 475.663C75.8928 478.149 76.9716 480.475 77.397 481.133C78.669 483.195 81.999 484.076 84.0527 482.986C87.6884 481.149 91.8592 477.605 92.922 474.284C93.01 474.287 93.0143 474.196 93.0187 474.105Z" fill="#E58341"/>
<path d="M128.384 473.965V501.788C128.384 503.374 127.086 504.672 125.5 504.672H115.589C114.003 504.672 112.705 503.374 112.705 501.788V473.965C112.705 472.379 114.003 471.081 115.589 471.081H125.5C127.086 471.081 128.384 472.378 128.384 473.965Z" fill="#F0F5F7"/>
<path d="M126.242 507.209H268.434C315.901 507.209 354.518 468.591 354.518 421.125V381.709H317.179V421.125C317.179 448.001 295.313 469.869 268.434 469.869H126.242V507.209Z" fill="#EF5214"/>
<path d="M545.17 300.57H529.441V284.842H545.17V300.57ZM531.636 298.375H542.975V287.037H531.636V298.375Z" fill="#2F505E"/>
<path d="M540.415 289.596H534.197V295.814H540.415V289.596Z" fill="#2F505E"/>
<path d="M545.17 333.488H529.441V317.759H545.17V333.488ZM531.636 331.293H542.975V319.954H531.636V331.293Z" fill="#2F505E"/>
<path d="M540.415 322.515H534.197V328.733H540.415V322.515Z" fill="#2F505E"/>
<path d="M578.074 300.57H562.346V284.842H578.074V300.57ZM564.54 298.375H575.879V287.037H564.54V298.375Z" fill="#2F505E"/>
<path d="M573.445 289.497H567.027V295.914H573.445V289.497Z" fill="#2F505E"/>
<path d="M550.102 285.938H547.658V288.382H550.102V285.938Z" fill="#2F505E"/>
<path d="M552.556 288.382H550.111V290.826H552.556V288.382Z" fill="#2F505E"/>
<path d="M554.991 288.382H552.547V290.826H554.991V288.382Z" fill="#2F505E"/>
<path d="M552.556 290.829H550.111V293.273H552.556V290.829Z" fill="#2F505E"/>
<path d="M550.102 295.718H547.658V298.162H550.102V295.718Z" fill="#2F505E"/>
<path d="M552.556 295.718H550.111V298.162H552.556V295.718Z" fill="#2F505E"/>
<path d="M554.991 295.718H552.547V298.162H554.991V295.718Z" fill="#2F505E"/>
<path d="M557.444 295.718H555V298.162H557.444V295.718Z" fill="#2F505E"/>
<path d="M557.444 293.271H555V295.715H557.444V293.271Z" fill="#2F505E"/>
<path d="M559.891 290.829H557.447V293.273H559.891V290.829Z" fill="#2F505E"/>
<path d="M557.444 285.938H555V288.382H557.444V285.938Z" fill="#2F505E"/>
<path d="M559.891 288.382H557.447V290.826H559.891V288.382Z" fill="#2F505E"/>
<path d="M559.891 295.718H557.447V298.162H559.891V295.718Z" fill="#2F505E"/>
<path d="M559.891 298.159H557.447V300.603H559.891V298.159Z" fill="#2F505E"/>
<path d="M547.667 303.048H545.223V305.492H547.667V303.048Z" fill="#2F505E"/>
<path d="M545.214 303.048H542.77V305.492H545.214V303.048Z" fill="#2F505E"/>
<path d="M542.77 303.048H540.326V305.492H542.77V303.048Z" fill="#2F505E"/>
<path d="M537.882 303.048H535.438V305.492H537.882V303.048Z" fill="#2F505E"/>
<path d="M532.993 303.048H530.549V305.492H532.993V303.048Z" fill="#2F505E"/>
<path d="M537.882 310.383H535.438V312.827H537.882V310.383Z" fill="#2F505E"/>
<path d="M537.882 312.828H535.438V315.272H537.882V312.828Z" fill="#2F505E"/>
<path d="M540.315 312.828H537.871V315.272H540.315V312.828Z" fill="#2F505E"/>
<path d="M542.77 312.828H540.326V315.272H542.77V312.828Z" fill="#2F505E"/>
<path d="M545.214 312.828H542.77V315.272H545.214V312.828Z" fill="#2F505E"/>
<path d="M545.214 310.383H542.77V312.827H545.214V310.383Z" fill="#2F505E"/>
<path d="M545.214 307.939H542.77V310.383H545.214V307.939Z" fill="#2F505E"/>
<path d="M547.667 307.939H545.223V310.383H547.667V307.939Z" fill="#2F505E"/>
<path d="M550.102 312.828H547.658V315.272H550.102V312.828Z" fill="#2F505E"/>
<path d="M550.102 310.383H547.658V312.827H550.102V310.383Z" fill="#2F505E"/>
<path d="M552.556 310.383H550.111V312.827H552.556V310.383Z" fill="#2F505E"/>
<path d="M554.991 310.383H552.547V312.827H554.991V310.383Z" fill="#2F505E"/>
<path d="M557.444 310.383H555V312.827H557.444V310.383Z" fill="#2F505E"/>
<path d="M559.891 312.828H557.447V315.272H559.891V312.828Z" fill="#2F505E"/>
<path d="M559.891 315.272H557.447V317.716H559.891V315.272Z" fill="#2F505E"/>
<path d="M562.313 317.716H559.869V320.161H562.313V317.716Z" fill="#2F505E"/>
<path d="M547.667 312.828H545.223V315.272H547.667V312.828Z" fill="#2F505E"/>
<path d="M535.448 310.383H533.004V312.827H535.448V310.383Z" fill="#2F505E"/>
<path d="M540.315 305.495H537.871V307.939H540.315V305.495Z" fill="#2F505E"/>
<path d="M540.315 307.939H537.871V310.383H540.315V307.939Z" fill="#2F505E"/>
<path d="M537.882 307.939H535.438V310.383H537.882V307.939Z" fill="#2F505E"/>
<path d="M535.448 307.939H533.004V310.383H535.448V307.939Z" fill="#2F505E"/>
<path d="M535.448 305.495H533.004V307.939H535.448V305.495Z" fill="#2F505E"/>
<path d="M532.993 307.939H530.549V310.383H532.993V307.939Z" fill="#2F505E"/>
<path d="M550.102 293.271H547.658V295.715H550.102V293.271Z" fill="#2F505E"/>
<path d="M550.102 298.159H547.658V300.603H550.102V298.159Z" fill="#2F505E"/>
<path d="M550.102 300.604H547.658V303.048H550.102V300.604Z" fill="#2F505E"/>
<path d="M550.102 303.048H547.658V305.492H550.102V303.048Z" fill="#2F505E"/>
<path d="M550.102 305.495H547.658V307.939H550.102V305.495Z" fill="#2F505E"/>
<path d="M552.556 305.495H550.111V307.939H552.556V305.495Z" fill="#2F505E"/>
<path d="M554.991 305.495H552.547V307.939H554.991V305.495Z" fill="#2F505E"/>
<path d="M557.444 305.495H555V307.939H557.444V305.495Z" fill="#2F505E"/>
<path d="M554.991 303.048H552.547V305.492H554.991V303.048Z" fill="#2F505E"/>
<path d="M559.891 303.048H557.447V305.492H559.891V303.048Z" fill="#2F505E"/>
<path d="M562.313 303.048H559.869V305.492H562.313V303.048Z" fill="#2F505E"/>
<path d="M564.78 303.048H562.336V305.492H564.78V303.048Z" fill="#2F505E"/>
<path d="M567.214 303.048H564.77V305.492H567.214V303.048Z" fill="#2F505E"/>
<path d="M569.669 303.048H567.225V305.492H569.669V303.048Z" fill="#2F505E"/>
<path d="M572.102 303.048H569.658V305.492H572.102V303.048Z" fill="#2F505E"/>
<path d="M572.102 305.495H569.658V307.939H572.102V305.495Z" fill="#2F505E"/>
<path d="M564.78 307.939H562.336V310.383H564.78V307.939Z" fill="#2F505E"/>
<path d="M562.313 307.939H559.869V310.383H562.313V307.939Z" fill="#2F505E"/>
<path d="M562.313 305.495H559.869V307.939H562.313V305.495Z" fill="#2F505E"/>
<path d="M559.891 307.939H557.447V310.383H559.891V307.939Z" fill="#2F505E"/>
<path d="M569.669 310.383H567.225V312.827H569.669V310.383Z" fill="#2F505E"/>
<path d="M569.669 312.828H567.225V315.272H569.669V312.828Z" fill="#2F505E"/>
<path d="M572.102 312.828H569.658V315.272H572.102V312.828Z" fill="#2F505E"/>
<path d="M574.534 312.828H572.09V315.272H574.534V312.828Z" fill="#2F505E"/>
<path d="M574.534 315.272H572.09V317.716H574.534V315.272Z" fill="#2F505E"/>
<path d="M574.534 317.716H572.09V320.161H574.534V317.716Z" fill="#2F505E"/>
<path d="M569.669 320.158H567.225V322.602H569.669V320.158Z" fill="#2F505E"/>
<path d="M569.669 327.513H567.225V329.957H569.669V327.513Z" fill="#2F505E"/>
<path d="M576.991 320.158H574.547V322.602H576.991V320.158Z" fill="#2F505E"/>
<path d="M576.991 329.938H574.547V332.383H576.991V329.938Z" fill="#2F505E"/>
<path d="M567.214 329.938H564.77V332.383H567.214V329.938Z" fill="#2F505E"/>
<path d="M564.78 329.938H562.336V332.383H564.78V329.938Z" fill="#2F505E"/>
<path d="M562.313 329.938H559.869V332.383H562.313V329.938Z" fill="#2F505E"/>
<path d="M559.891 329.938H557.447V332.383H559.891V329.938Z" fill="#2F505E"/>
<path d="M562.313 327.494H559.869V329.938H562.313V327.494Z" fill="#2F505E"/>
<path d="M559.891 327.494H557.447V329.938H559.891V327.494Z" fill="#2F505E"/>
<path d="M562.313 325.046H559.869V327.491H562.313V325.046Z" fill="#2F505E"/>
<path d="M562.313 322.605H559.869V325.049H562.313V322.605Z" fill="#2F505E"/>
<path d="M559.891 320.158H557.447V322.602H559.891V320.158Z" fill="#2F505E"/>
<path d="M557.444 320.158H555V322.602H557.444V320.158Z" fill="#2F505E"/>
<path d="M554.991 320.158H552.547V322.602H554.991V320.158Z" fill="#2F505E"/>
<path d="M552.556 320.158H550.111V322.602H552.556V320.158Z" fill="#2F505E"/>
<path d="M557.444 322.605H555V325.049H557.444V322.605Z" fill="#2F505E"/>
<path d="M549.554 323.692H547.109V326.137H549.554V323.692Z" fill="#2F505E"/>
<path d="M550.102 327.494H547.658V329.938H550.102V327.494Z" fill="#2F505E"/>
<path d="M550.102 317.716H547.658V320.161H550.102V317.716Z" fill="#2F505E"/>
<path d="M552.556 322.605H550.111V325.049H552.556V322.605Z" fill="#2F505E"/>
<path d="M554.991 325.046H552.547V327.491H554.991V325.046Z" fill="#2F505E"/>
<path d="M552.556 325.046H550.111V327.491H552.556V325.046Z" fill="#2F505E"/>
<path d="M554.991 327.494H552.547V329.938H554.991V327.494Z" fill="#2F505E"/>
<path d="M552.556 329.938H550.111V332.383H552.556V329.938Z" fill="#2F505E"/>
<path d="M557.444 317.716H555V320.161H557.444V317.716Z" fill="#2F505E"/>
<path d="M554.991 317.716H552.547V320.161H554.991V317.716Z" fill="#2F505E"/>
<path d="M549.294 315.541H546.85V317.985H549.294V315.541Z" fill="#2F505E"/>
<path d="M554.991 315.272H552.547V317.716H554.991V315.272Z" fill="#2F505E"/>
<path d="M554.991 312.828H552.547V315.272H554.991V312.828Z" fill="#2F505E"/>
<path d="M552.556 315.272H550.111V317.716H552.556V315.272Z" fill="#2F505E"/>
<path d="M550.102 320.158H547.658V322.602H550.102V320.158Z" fill="#2F505E"/>
<path d="M559.891 325.046H557.447V327.491H559.891V325.046Z" fill="#2F505E"/>
<path d="M557.444 329.938H555V332.383H557.444V329.938Z" fill="#2F505E"/>
<path d="M564.78 320.158H562.336V322.602H564.78V320.158Z" fill="#2F505E"/>
<path d="M567.214 322.605H564.77V325.049H567.214V322.605Z" fill="#2F505E"/>
<path d="M574.534 322.605H572.09V325.049H574.534V322.605Z" fill="#2F505E"/>
<path d="M574.534 325.046H572.09V327.491H574.534V325.046Z" fill="#2F505E"/>
<path d="M572.102 325.046H569.658V327.491H572.102V325.046Z" fill="#2F505E"/>
<path d="M569.669 325.046H567.225V327.491H569.669V325.046Z" fill="#2F505E"/>
<path d="M567.214 325.046H564.77V327.491H567.214V325.046Z" fill="#2F505E"/>
<path d="M574.534 327.494H572.09V329.938H574.534V327.494Z" fill="#2F505E"/>
<path d="M574.534 329.938H572.09V332.383H574.534V329.938Z" fill="#2F505E"/>
<path d="M569.669 315.272H567.225V317.716H569.669V315.272Z" fill="#2F505E"/>
<path d="M567.214 310.383H564.77V312.827H567.214V310.383Z" fill="#2F505E"/>
<path d="M567.214 312.828H564.77V315.272H567.214V312.828Z" fill="#2F505E"/>
<path d="M567.214 315.272H564.77V317.716H567.214V315.272Z" fill="#2F505E"/>
<path d="M564.78 317.716H562.336V320.161H564.78V317.716Z" fill="#2F505E"/>
<path d="M564.78 312.828H562.336V315.272H564.78V312.828Z" fill="#2F505E"/>
<path d="M564.78 315.272H562.336V317.716H564.78V315.272Z" fill="#2F505E"/>
<path d="M569.669 307.939H567.225V310.383H569.669V307.939Z" fill="#2F505E"/>
<path d="M569.669 317.716H567.225V320.161H569.669V317.716Z" fill="#2F505E"/>
<path d="M572.102 317.716H569.658V320.161H572.102V317.716Z" fill="#2F505E"/>
<path d="M574.534 305.495H572.09V307.939H574.534V305.495Z" fill="#2F505E"/>
<path d="M574.534 307.939H572.09V310.383H574.534V307.939Z" fill="#2F505E"/>
<path d="M576.991 303.048H574.547V305.492H576.991V303.048Z" fill="#2F505E"/>
<path d="M576.991 310.383H574.547V312.827H576.991V310.383Z" fill="#2F505E"/>
<path d="M554.991 300.604H552.547V303.048H554.991V300.604Z" fill="#2F505E"/>
<path d="M557.444 300.604H555V303.048H557.444V300.604Z" fill="#2F505E"/>
<path d="M526.746 289.469H524.725V281.104H533.09V283.124H526.746V289.469Z" fill="#FED732"/>
<path d="M533.09 337.224H524.725V328.859H526.746V335.203H533.09V337.224Z" fill="#FED732"/>
<path d="M582.824 337.226H574.459V335.205H580.803V328.861H582.824V337.226Z" fill="#FED732"/>
<path d="M582.824 289.469H580.803V283.124H574.459V281.104H582.824V289.469Z" fill="#FED732"/>
<path d="M323.834 123.081L288.505 108.703L293.288 123.081L288.49 137.445L323.834 123.081Z" fill="#FEFEFE"/>
<path d="M325.228 123.081C325.228 122.989 325.212 122.913 325.198 122.836C325.198 122.806 325.182 122.79 325.182 122.76C325.166 122.699 325.152 122.653 325.136 122.591C325.12 122.561 325.12 122.545 325.106 122.515C325.075 122.438 325.045 122.378 324.999 122.301C324.999 122.301 324.999 122.301 324.983 122.285C324.937 122.225 324.891 122.163 324.846 122.117C324.83 122.101 324.816 122.086 324.8 122.07C324.754 122.024 324.707 121.994 324.663 121.964C324.647 121.948 324.617 121.933 324.602 121.918C324.556 121.887 324.495 121.857 324.433 121.825C324.418 121.809 324.403 121.809 324.387 121.795L289.058 107.431C288.554 107.232 287.988 107.34 287.592 107.706C287.195 108.073 287.057 108.638 287.225 109.159L291.855 123.094L287.194 137.03C287.025 137.549 287.163 138.115 287.56 138.482C287.82 138.728 288.156 138.865 288.507 138.865C288.676 138.865 288.859 138.834 289.027 138.758L324.386 124.394C324.386 124.394 324.386 124.394 324.402 124.394C324.418 124.394 324.432 124.378 324.448 124.364C324.508 124.333 324.57 124.303 324.617 124.271C324.632 124.255 324.663 124.241 324.677 124.225C324.723 124.195 324.769 124.149 324.814 124.118C324.83 124.103 324.844 124.088 324.86 124.072C324.921 124.012 324.967 123.95 325.013 123.889C325.059 123.829 325.09 123.752 325.12 123.676C325.136 123.645 325.136 123.629 325.15 123.599C325.166 123.539 325.181 123.492 325.196 123.43C325.196 123.4 325.212 123.384 325.212 123.354C325.214 123.25 325.228 123.158 325.228 123.081ZM290.77 111.117L316.763 121.691H294.285L290.77 111.117ZM294.285 124.457H316.748L290.756 135.031L294.285 124.457Z" fill="#2D404E"/>
<path d="M281.474 182.051C281.841 182.051 282.192 181.898 282.452 181.638C282.712 181.378 282.865 181.027 282.865 180.66C282.865 180.294 282.712 179.942 282.452 179.682C282.192 179.423 281.841 179.27 281.474 179.27C281.108 179.27 280.756 179.423 280.496 179.682C280.237 179.942 280.084 180.294 280.084 180.66C280.084 181.027 280.237 181.378 280.496 181.638C280.756 181.914 281.108 182.051 281.474 182.051Z" fill="#2D404E"/>
<path d="M319.429 178.048C319.781 178.048 320.117 177.925 320.391 177.665C320.94 177.13 320.956 176.259 320.421 175.71C319.886 175.16 319.015 175.144 318.466 175.664C317.915 176.199 317.9 177.07 318.42 177.619C318.695 177.895 319.063 178.048 319.429 178.048Z" fill="#2D404E"/>
<path d="M321.657 173.997C321.856 174.104 322.07 174.15 322.283 174.15C322.788 174.15 323.277 173.874 323.52 173.386C323.872 172.698 323.597 171.873 322.909 171.521C322.221 171.169 321.396 171.444 321.044 172.132C320.695 172.822 320.969 173.647 321.657 173.997Z" fill="#2D404E"/>
<path d="M322.447 159.952C323.105 159.555 323.302 158.698 322.906 158.056C322.509 157.399 321.652 157.201 320.996 157.598C320.34 157.994 320.141 158.851 320.537 159.507C320.797 159.936 321.256 160.165 321.714 160.165C321.974 160.151 322.219 160.089 322.447 159.952Z" fill="#2D404E"/>
<path d="M322.161 163.561C322.298 164.218 322.88 164.661 323.506 164.661C323.598 164.661 323.705 164.646 323.795 164.631C324.544 164.478 325.018 163.744 324.866 162.995C324.713 162.247 323.98 161.772 323.23 161.925C322.483 162.078 322.009 162.811 322.161 163.561Z" fill="#2D404E"/>
<path d="M319.612 155.996C320.101 155.4 320.008 154.529 319.413 154.04C318.817 153.551 317.946 153.643 317.457 154.239C316.968 154.835 317.06 155.706 317.656 156.195C317.916 156.408 318.221 156.5 318.527 156.5C318.938 156.5 319.336 156.332 319.612 155.996Z" fill="#2D404E"/>
<path d="M265.694 139.799C265.801 140.487 266.396 140.99 267.07 140.99C267.13 140.99 267.207 140.99 267.269 140.975C268.033 140.868 268.552 140.166 268.446 139.401C268.339 138.637 267.635 138.118 266.872 138.224C266.106 138.331 265.586 139.035 265.694 139.799Z" fill="#2D404E"/>
<path d="M269.575 129.008C268.917 128.626 268.062 128.839 267.679 129.497C267.297 130.155 267.511 131.01 268.168 131.392C268.382 131.515 268.627 131.575 268.871 131.575C269.345 131.575 269.802 131.33 270.063 130.887C270.46 130.245 270.247 129.39 269.575 129.008Z" fill="#2D404E"/>
<path d="M271.548 149.423C271.914 149.423 272.296 149.27 272.556 148.98C273.075 148.414 273.045 147.543 272.479 147.024C271.914 146.505 271.043 146.535 270.524 147.101C270.005 147.666 270.035 148.537 270.6 149.056C270.876 149.3 271.212 149.423 271.548 149.423Z" fill="#2D404E"/>
<path d="M276.153 149.426C275.451 149.12 274.64 149.442 274.334 150.144C274.029 150.847 274.35 151.657 275.053 151.963C275.236 152.039 275.419 152.07 275.603 152.07C276.139 152.07 276.642 151.764 276.871 151.229C277.177 150.541 276.855 149.732 276.153 149.426Z" fill="#2D404E"/>
<path d="M273.069 125.602C272.58 125.021 271.693 124.945 271.113 125.45C270.532 125.938 270.456 126.825 270.96 127.405C271.236 127.727 271.632 127.894 272.015 127.894C272.336 127.894 272.64 127.787 272.916 127.558C273.481 127.055 273.558 126.184 273.069 125.602Z" fill="#2D404E"/>
<path d="M266.905 136.1C266.997 136.116 267.088 136.13 267.165 136.13C267.806 136.13 268.402 135.672 268.525 134.999C268.662 134.251 268.173 133.517 267.424 133.38C266.676 133.243 265.942 133.732 265.805 134.48C265.666 135.23 266.155 135.963 266.905 136.1Z" fill="#2D404E"/>
<path d="M268.584 145.585C268.798 145.585 269.027 145.539 269.226 145.432C269.898 145.08 270.157 144.241 269.807 143.567C269.457 142.894 268.616 142.635 267.942 142.986C267.27 143.338 267.011 144.177 267.361 144.851C267.606 145.311 268.079 145.585 268.584 145.585Z" fill="#2D404E"/>
<path d="M325.091 168.294C325.183 167.53 324.648 166.842 323.884 166.751C323.119 166.66 322.431 167.194 322.34 167.944C322.248 168.708 322.783 169.396 323.532 169.487C323.592 169.503 323.654 169.503 323.715 169.503C324.404 169.502 325 168.998 325.091 168.294Z" fill="#2D404E"/>
<path d="M290.058 150.495C289.294 150.495 288.668 151.106 288.668 151.885C288.668 152.649 289.294 153.275 290.058 153.275C290.823 153.275 291.448 152.649 291.448 151.885C291.433 151.105 290.823 150.495 290.058 150.495Z" fill="#2D404E"/>
<path d="M304.439 180.674C304.439 181.439 305.051 182.065 305.83 182.065C306.594 182.065 307.22 181.439 307.22 180.674C307.22 179.91 306.594 179.284 305.83 179.284C305.065 179.283 304.439 179.91 304.439 180.674Z" fill="#2D404E"/>
<path d="M289.83 180.674C289.83 181.439 290.442 182.065 291.22 182.065C291.985 182.065 292.611 181.439 292.611 180.674C292.611 179.91 291.985 179.284 291.22 179.284C290.456 179.284 289.83 179.91 289.83 180.674Z" fill="#2D404E"/>
<path d="M304.668 150.495C303.903 150.495 303.277 151.106 303.277 151.885C303.277 152.649 303.903 153.275 304.668 153.275C305.432 153.275 306.058 152.649 306.058 151.885C306.058 151.105 305.448 150.495 304.668 150.495Z" fill="#2D404E"/>
<path d="M294.933 150.495C294.169 150.495 293.543 151.106 293.543 151.885C293.543 152.649 294.154 153.275 294.933 153.275C295.698 153.275 296.323 152.649 296.323 151.885C296.308 151.105 295.698 150.495 294.933 150.495Z" fill="#2D404E"/>
<path d="M284.982 180.674C284.982 181.439 285.594 182.065 286.373 182.065C287.137 182.065 287.763 181.439 287.763 180.674C287.763 179.91 287.137 179.284 286.373 179.284C285.592 179.283 284.982 179.91 284.982 180.674Z" fill="#2D404E"/>
<path d="M294.707 180.674C294.707 181.439 295.333 182.065 296.097 182.065C296.862 182.065 297.488 181.439 297.488 180.674C297.488 179.91 296.876 179.284 296.097 179.284C295.333 179.283 294.707 179.91 294.707 180.674Z" fill="#2D404E"/>
<path d="M299.584 180.674C299.584 181.439 300.195 182.065 300.974 182.065C301.739 182.065 302.35 181.439 302.35 180.674C302.35 179.91 301.739 179.284 300.974 179.284C300.21 179.283 299.584 179.91 299.584 180.674Z" fill="#2D404E"/>
<path d="M299.81 150.495C299.046 150.495 298.42 151.106 298.42 151.885C298.42 152.649 299.031 153.275 299.81 153.275C300.575 153.275 301.2 152.649 301.2 151.885C301.185 151.105 300.575 150.495 299.81 150.495Z" fill="#2D404E"/>
<path d="M283.822 151.871C283.822 152.635 284.448 153.261 285.213 153.261C285.977 153.261 286.603 152.635 286.603 151.871C286.603 151.106 285.991 150.48 285.213 150.48C284.448 150.496 283.822 151.106 283.822 151.871Z" fill="#2D404E"/>
<path d="M282.324 123.05C282.308 122.286 281.666 121.675 280.903 121.706C280.139 121.722 279.543 122.364 279.559 123.127C279.575 123.891 280.217 124.487 280.979 124.471C281.742 124.441 282.354 123.815 282.324 123.05Z" fill="#2D404E"/>
<path d="M278.944 151.746C278.898 152.511 279.463 153.167 280.228 153.229C280.258 153.229 280.288 153.229 280.32 153.229C281.038 153.229 281.65 152.678 281.696 151.945C281.742 151.181 281.177 150.525 280.412 150.463C279.648 150.402 278.99 150.983 278.944 151.746Z" fill="#2D404E"/>
<path d="M277.454 123.523C277.179 122.805 276.384 122.453 275.666 122.728C274.947 123.004 274.596 123.799 274.871 124.517C275.084 125.068 275.605 125.404 276.17 125.404C276.339 125.404 276.506 125.373 276.659 125.311C277.378 125.036 277.729 124.241 277.454 123.523Z" fill="#2D404E"/>
<path d="M315.618 153.2C315.878 152.481 315.512 151.687 314.778 151.427C314.059 151.168 313.265 151.534 313.005 152.252C312.745 152.97 313.112 153.765 313.846 154.024C313.999 154.085 314.166 154.101 314.319 154.101C314.886 154.117 315.419 153.765 315.618 153.2Z" fill="#2D404E"/>
<path d="M309.556 150.495C308.792 150.495 308.166 151.106 308.166 151.87C308.166 152.635 308.777 153.261 309.542 153.261C309.542 153.261 309.542 153.261 309.558 153.261C310.322 153.261 310.934 152.649 310.948 151.885C310.931 151.121 310.321 150.495 309.556 150.495Z" fill="#2D404E"/>
<path d="M315.387 180.766C315.586 180.766 315.769 180.72 315.968 180.643C316.67 180.322 316.976 179.497 316.656 178.81C316.334 178.108 315.525 177.802 314.823 178.123C314.12 178.444 313.815 179.269 314.135 179.956C314.363 180.46 314.867 180.766 315.387 180.766Z" fill="#2D404E"/>
<path d="M309.321 180.735C309.382 181.453 309.993 182.003 310.697 182.003C310.743 182.003 310.773 182.003 310.819 182.003C311.584 181.942 312.149 181.269 312.073 180.506C312.012 179.741 311.339 179.176 310.576 179.253C309.826 179.299 309.259 179.971 309.321 180.735Z" fill="#2D404E"/>
<path d="M263.021 183.304C262.669 183.304 262.333 183.426 262.059 183.686C261.509 184.221 261.493 185.092 262.028 185.641C262.564 186.192 263.435 186.207 263.984 185.688C264.535 185.153 264.549 184.282 264.03 183.732C263.753 183.457 263.387 183.304 263.021 183.304Z" fill="#2D404E"/>
<path d="M260.735 187.351C260.536 187.244 260.323 187.198 260.109 187.198C259.605 187.198 259.116 187.473 258.872 187.962C258.52 188.65 258.795 189.475 259.483 189.827C260.171 190.179 260.996 189.903 261.348 189.215C261.697 188.527 261.423 187.703 260.735 187.351Z" fill="#2D404E"/>
<path d="M257.317 193.049C257.225 193.813 257.76 194.501 258.524 194.592C259.288 194.684 259.976 194.149 260.067 193.401C260.16 192.636 259.624 191.949 258.876 191.858C258.815 191.842 258.753 191.842 258.693 191.842C258.005 191.842 257.409 192.347 257.317 193.049Z" fill="#2D404E"/>
<path d="M277.952 180.674C277.952 179.91 277.341 179.284 276.562 179.284C275.798 179.284 275.172 179.91 275.172 180.674C275.172 181.439 275.798 182.065 276.562 182.065C277.325 182.065 277.952 181.437 277.952 180.674Z" fill="#2D404E"/>
<path d="M267.023 180.586C266.824 180.586 266.641 180.632 266.442 180.709C265.739 181.029 265.434 181.855 265.754 182.542C266.074 183.244 266.885 183.55 267.587 183.229C268.289 182.908 268.595 182.083 268.275 181.396C268.047 180.892 267.544 180.586 267.023 180.586Z" fill="#2D404E"/>
<path d="M273.077 180.612C273.016 179.894 272.405 179.344 271.701 179.344C271.655 179.344 271.625 179.344 271.579 179.344C270.814 179.405 270.249 180.078 270.325 180.841C270.386 181.606 271.059 182.171 271.822 182.094C272.572 182.048 273.138 181.376 273.077 180.612Z" fill="#2D404E"/>
<path d="M286.847 124.059C287.106 123.799 287.243 123.447 287.243 123.081C287.243 122.715 287.09 122.363 286.847 122.103C286.587 121.844 286.235 121.691 285.869 121.691C285.502 121.691 285.151 121.844 284.891 122.103C284.631 122.363 284.479 122.715 284.479 123.081C284.479 123.447 284.631 123.799 284.891 124.059C285.151 124.319 285.502 124.471 285.869 124.471C286.235 124.457 286.587 124.319 286.847 124.059Z" fill="#2D404E"/>
</svg>
