<svg width="514" height="376" viewBox="0 0 514 376" fill="none" xmlns="http://www.w3.org/2000/svg">
<path d="M70.4579 372.87C34.3494 333.556 -14.9984 292.962 4.35139 231.639C17.0796 191.305 48.2866 180.063 74.2261 155.193C87.0278 142.918 78.9765 125.052 78.7379 107.32C78.1951 61.9099 128.873 26.6743 175.463 27.41C225.928 28.2054 247.773 78.9411 290.106 81.6633C306.729 81.9178 321.613 72.1624 336.322 64.4134C379.901 41.4506 449.05 56.0936 452.546 111.624C453.448 141.612 419.316 189.86 453.514 205.632C480.768 218.203 508.302 222.832 513.214 267.794C519.642 326.642 485.656 358.939 441.368 374.085L70.4579 372.872V372.87Z" fill="#F3FAFF"/>
<path d="M94.0732 149.078H144.318C150.538 149.078 155.578 154.121 155.578 160.339V183.761C155.578 189.981 150.538 195.022 144.318 195.022H143.944L147.977 208.532C148.153 209.126 147.467 209.599 146.974 209.224L128.358 195.022H94.0732C87.8533 195.022 82.8125 189.981 82.8125 183.761V160.339C82.8125 154.119 87.8533 149.078 94.0732 149.078Z" fill="white"/>
<path d="M144.296 168.745H96.058C92.9799 168.745 90.4844 166.25 90.4844 163.172C90.4844 160.093 92.9799 157.598 96.058 157.598H144.296C147.374 157.598 149.87 160.093 149.87 163.172C149.87 166.25 147.374 168.745 144.296 168.745Z" fill="#E3EAFF"/>
<path d="M144.296 185.77H96.058C92.9799 185.77 90.4844 183.274 90.4844 180.196C90.4844 177.118 92.9799 174.622 96.058 174.622H144.296C147.374 174.622 149.87 177.118 149.87 180.196C149.87 183.274 147.374 185.77 144.296 185.77Z" fill="#E3EAFF"/>
<path d="M401.559 85.8557H346.765C339.982 85.8557 334.484 91.3538 334.484 98.1365V123.68C334.484 130.463 339.982 135.961 346.765 135.961H347.171L342.772 150.694C342.579 151.342 343.327 151.859 343.866 151.449L364.168 135.961H401.559C408.342 135.961 413.84 130.463 413.84 123.68V98.1365C413.84 91.3538 408.342 85.8557 401.559 85.8557Z" fill="white"/>
<path d="M345.924 96.2971H401.094C403.828 96.2971 406.049 98.5162 406.049 101.252V102.491C406.049 105.225 403.83 107.446 401.094 107.446H345.924C343.19 107.446 340.969 105.227 340.969 102.491V101.252C340.969 98.5182 343.188 96.2971 345.924 96.2971Z" fill="#E3EAFF"/>
<path d="M374.16 113.152H348.324C345.245 113.152 342.75 115.647 342.75 118.725C342.75 121.804 345.245 124.299 348.324 124.299H374.16C377.238 124.299 379.733 121.804 379.733 118.725C379.733 115.647 377.238 113.152 374.16 113.152Z" fill="#E3EAFF"/>
<path d="M35.8909 275.115C37.9669 273.546 40.4604 272.761 43.3675 272.761C49.6451 272.761 52.9679 276.177 52.9679 280.977C52.9679 283.747 51.6296 286.563 48.9054 289.379C45.4435 293.025 42.952 294.825 41.3811 294.825C39.8102 294.825 38.7503 293.624 38.7503 292.194C38.7503 290.902 39.9514 289.609 42.0273 287.716C42.1665 287.577 42.3037 287.44 42.3972 287.394C44.7515 285.225 45.4892 284.024 45.4892 282.548C45.4892 280.701 44.2425 279.687 42.4429 279.687C41.6117 279.687 40.6433 279.872 39.488 280.242C38.3347 280.611 37.5036 280.796 36.9965 280.796C35.704 280.796 34.2266 279.689 34.2266 277.842C34.2266 276.873 34.7813 275.948 35.8889 275.119L35.8909 275.115ZM42.2142 305.901C39.3986 305.901 37.5055 303.777 37.5055 301.192C37.5055 298.977 39.3986 296.853 42.2142 296.853C44.66 296.853 46.5531 298.977 46.5531 301.192C46.5531 303.731 44.7535 305.901 42.2142 305.901Z" fill="white"/>
<path d="M412.974 171.542C414.341 170.51 415.979 169.993 417.892 169.993C422.02 169.993 424.205 172.24 424.205 175.396C424.205 177.218 423.324 179.069 421.535 180.92C419.258 183.318 417.62 184.501 416.588 184.501C415.555 184.501 414.858 183.712 414.858 182.771C414.858 181.922 415.647 181.071 417.013 179.826C417.104 179.735 417.196 179.643 417.256 179.614C418.805 178.188 419.29 177.398 419.29 176.426C419.29 175.211 418.471 174.545 417.285 174.545C416.739 174.545 416.102 174.666 415.343 174.909C414.583 175.151 414.038 175.273 413.704 175.273C412.853 175.273 411.883 174.545 411.883 173.33C411.883 172.692 412.247 172.085 412.976 171.538L412.974 171.542ZM417.132 191.789C415.281 191.789 414.036 190.393 414.036 188.693C414.036 187.235 415.281 185.839 417.132 185.839C418.741 185.839 419.986 187.235 419.986 188.693C419.986 190.363 418.803 191.789 417.132 191.789Z" fill="white"/>
<path d="M503.772 283.724H446.142C445.124 283.724 444.297 282.899 444.297 281.879V232.27C444.297 231.252 445.122 230.425 446.142 230.425C447.162 230.425 447.987 231.25 447.987 232.27V280.033H503.774C504.792 280.033 505.619 280.859 505.619 281.879C505.619 282.899 504.794 283.724 503.774 283.724H503.772Z" fill="white"/>
<path d="M450.509 271.596C450.047 271.596 449.584 271.423 449.226 271.077C448.494 270.369 448.474 269.2 449.182 268.468L467.808 249.2C468.421 248.566 469.399 248.454 470.139 248.934L478.946 254.647L488.234 243.855C488.898 243.084 490.063 242.996 490.835 243.66C491.606 244.324 491.694 245.49 491.03 246.261L480.692 258.273C480.089 258.973 479.063 259.121 478.289 258.617L469.405 252.855L451.835 271.03C451.473 271.403 450.99 271.592 450.509 271.592V271.596Z" fill="white"/>
<path d="M491.075 251.767L488.446 246.444L482.789 244.639L495.384 238.383L491.075 251.767Z" fill="white"/>
<path d="M116.593 103.828C110.437 103.828 105.43 98.8188 105.43 92.6645C105.43 86.5102 110.439 81.5012 116.593 81.5012C122.747 81.5012 127.756 86.5102 127.756 92.6645C127.756 98.8188 122.747 103.828 116.593 103.828ZM116.593 84.5754C112.133 84.5754 108.504 88.2043 108.504 92.6645C108.504 97.1246 112.133 100.754 116.593 100.754C121.053 100.754 124.682 97.1246 124.682 92.6645C124.682 88.2043 121.053 84.5754 116.593 84.5754Z" fill="white"/>
<path d="M457.177 192.682C452.667 192.682 449 189.013 449 184.505C449 179.997 452.669 176.328 457.177 176.328C461.684 176.328 465.353 179.997 465.353 184.505C465.353 189.013 461.684 192.682 457.177 192.682ZM457.177 178.579C453.909 178.579 451.251 181.238 451.251 184.505C451.251 187.772 453.909 190.431 457.177 190.431C460.444 190.431 463.1 187.772 463.1 184.505C463.1 181.238 460.442 178.579 457.177 178.579Z" fill="#E3EAFF"/>
<path d="M27.9039 237.504C23.8554 237.504 20.5625 234.211 20.5625 230.163C20.5625 226.114 23.8554 222.822 27.9039 222.822C31.9524 222.822 35.2453 226.114 35.2453 230.163C35.2453 234.211 31.9524 237.504 27.9039 237.504ZM27.9039 224.842C24.9709 224.842 22.5848 227.228 22.5848 230.161C22.5848 233.094 24.9709 235.48 27.9039 235.48C30.8369 235.48 33.2231 233.094 33.2231 230.161C33.2231 227.228 30.8369 224.842 27.9039 224.842Z" fill="white"/>
<path d="M421.441 71.9114C421.794 69.7336 420.315 67.6816 418.137 67.3281C415.96 66.9746 413.908 68.4535 413.554 70.6312C413.201 72.809 414.679 74.861 416.857 75.2145C419.035 75.568 421.087 74.0892 421.441 71.9114Z" fill="white"/>
<path d="M71.3573 145.221C71.3573 149.558 67.8417 153.075 63.5029 153.075C59.164 153.075 55.6484 149.56 55.6484 145.221C55.6484 140.882 59.164 137.366 63.5029 137.366C67.8417 137.366 71.3573 140.882 71.3573 145.221Z" fill="#E3EAFF"/>
<path d="M445.339 55.778C445.339 59.0391 442.696 61.6818 439.435 61.6818C436.174 61.6818 433.531 59.0391 433.531 55.778C433.531 52.5169 436.174 49.8743 439.435 49.8743C442.696 49.8743 445.339 52.5169 445.339 55.778Z" fill="#E3EAFF"/>
<path d="M474.236 197.557C474.236 200.34 471.979 202.597 469.197 202.597C466.415 202.597 464.156 200.34 464.156 197.557C464.156 194.773 466.413 192.516 469.197 192.516C471.981 192.516 474.236 194.773 474.236 197.557Z" fill="#E3EAFF"/>
<path d="M430.614 86.3089C430.614 89.7788 427.8 92.5925 424.33 92.5925C420.861 92.5925 418.047 89.7788 418.047 86.3089C418.047 82.8391 420.861 80.0254 424.33 80.0254C427.8 80.0254 430.614 82.8391 430.614 86.3089Z" fill="white"/>
<path d="M141.621 74.8967C141.621 78.4163 138.768 81.2697 135.248 81.2697C131.728 81.2697 128.875 78.4163 128.875 74.8967C128.875 71.3771 131.728 68.5237 135.248 68.5237C138.768 68.5237 141.621 71.3771 141.621 74.8967Z" fill="white"/>
<path d="M190.579 181.151H190.585L196.375 181.173L197.688 194.85L190.927 198.419L183.719 194.891L184.884 181.173L190.579 181.151Z" fill="#F37A50"/>
<path d="M174.669 175.117C178.233 184.023 186.793 188.973 193.788 186.175C200.784 183.375 203.564 173.886 200 164.982C196.437 156.076 187.877 151.126 180.881 153.924C173.886 156.724 171.106 166.213 174.669 175.117Z" fill="#F37A50"/>
<path d="M196.961 167.903C197.375 168.497 198.19 168.644 198.785 168.231C199.379 167.817 199.525 167.002 199.113 166.407C198.699 165.813 197.882 165.666 197.289 166.079C196.695 166.493 196.548 167.31 196.961 167.903Z" fill="black"/>
<path d="M187.145 171.907C187.592 172.549 188.475 172.708 189.119 172.261C189.762 171.814 189.921 170.931 189.473 170.287C189.026 169.644 188.143 169.485 187.499 169.933C186.856 170.38 186.697 171.263 187.145 171.907Z" fill="black"/>
<path d="M194.969 169.994C196.74 171.39 198.956 173.076 198.956 173.076C198.956 173.076 198.977 175.212 196.482 176.138C197.385 175.319 198.178 174.229 197.238 172.971C196.297 171.712 194.969 169.996 194.969 169.996V169.994Z" fill="#DE623C"/>
<path d="M184.562 171.055C184.513 171.055 184.461 171.049 184.409 171.037C184.057 170.953 183.841 170.601 183.924 170.249C184.153 169.291 185.113 167.476 187.106 167.466C187.47 167.47 187.762 167.756 187.762 168.116C187.762 168.478 187.472 168.77 187.112 168.772C185.636 168.78 185.199 170.534 185.195 170.552C185.123 170.852 184.855 171.055 184.558 171.055H184.562Z" fill="#201D40"/>
<path d="M195.591 165.13C195.497 165.13 195.402 165.107 195.316 165.055C195.056 164.902 194.97 164.57 195.121 164.309C195.145 164.269 195.718 163.309 196.8 163.11C197.539 162.973 198.303 163.216 199.07 163.83C199.305 164.019 199.343 164.361 199.156 164.596C198.969 164.83 198.625 164.868 198.39 164.681C197.881 164.273 197.412 164.106 196.999 164.182C196.41 164.291 196.064 164.856 196.062 164.862C195.961 165.035 195.778 165.13 195.591 165.13Z" fill="#201D40"/>
<path d="M169.804 168.465C166.79 159.883 174.133 154.95 174.133 154.95C174.133 154.95 172.163 154.773 171.928 152.007C173.404 152.466 175.056 152.434 176.508 151.907C186.295 148.364 193.034 148.412 193.034 152.599C193.034 154.091 199.498 153.069 198.955 163.096C198.993 162.388 196.685 158.266 194.501 157.855C192.31 157.441 194.288 160.36 189.729 160.987C185.126 161.619 181.743 160.501 178.932 163.096C176.732 165.359 176.185 176.878 176.522 177.572C175.754 175.984 171.131 172.237 169.804 168.465Z" fill="#201D40"/>
<path d="M201.35 169.994C201.35 169.994 201.766 175.219 201.012 176.836C200.229 174.74 198.544 176.961 196.963 177.17C193.142 177.675 186.248 176.402 185.566 182.133C180.897 183.611 176.522 173.615 176.522 173.615C176.254 184.782 184.426 191.123 196.186 189.266C203.933 188.041 204.653 177.254 201.352 169.994H201.35Z" fill="#201D40"/>
<path d="M193.292 180.7C192.536 180.519 191.749 180.211 190.934 179.776C190.721 179.662 190.641 179.398 190.755 179.185C190.868 178.972 191.133 178.893 191.345 179.006C193.155 179.973 194.775 180.249 196.165 179.823C197.883 179.299 198.667 177.853 198.675 177.837C198.788 177.624 199.051 177.543 199.263 177.654C199.476 177.765 199.558 178.028 199.446 178.241C199.409 178.312 198.502 180.012 196.434 180.651C195.463 180.951 194.413 180.965 193.292 180.696V180.7Z" fill="#DE623C"/>
<path d="M176.408 173.69C178.374 174.795 179.235 176.995 178.333 178.603C177.428 180.212 175.101 180.622 173.135 179.518C171.168 178.414 170.307 176.213 171.21 174.605C172.115 172.996 174.441 172.586 176.408 173.69Z" fill="#F37A50"/>
<path d="M176.111 178.51C176.172 178.468 176.224 178.41 176.262 178.341C176.803 177.341 176.713 176.32 176.025 175.613C175.319 174.889 174.182 174.68 173.317 175.115C173.074 175.239 172.977 175.535 173.1 175.778C173.224 176.02 173.52 176.118 173.762 175.994C174.236 175.756 174.92 175.889 175.317 176.299C175.701 176.692 175.727 177.251 175.393 177.871C175.264 178.112 175.353 178.41 175.592 178.54C175.761 178.631 175.962 178.613 176.109 178.51H176.111Z" fill="#DE623C"/>
<path d="M197.285 363.809C198.518 360.462 201.151 360.091 201.151 360.091C206.271 367.156 218.844 362.821 218.428 372.375C199.307 372.252 191.359 372.375 191.359 372.375C191.385 370.18 191.763 364.972 192.204 362.932L193.201 363.115L197.283 363.809H197.285Z" fill="black"/>
<path d="M168.668 363.994C169.901 360.647 172.533 360.275 172.533 360.275C177.654 367.34 190.227 363.005 189.811 372.56C170.69 372.437 162.742 372.56 162.742 372.56C162.768 370.365 163.146 365.157 163.587 363.117L164.584 363.3L168.666 363.994H168.668Z" fill="black"/>
<path d="M209.997 252.236C209.997 252.236 213.101 297.515 211.84 307.581C210.58 317.647 206.114 330.554 206.619 363.849C200.385 365.41 191.355 363.849 191.355 363.849C191.355 363.849 190.017 326.199 196.605 309.383C193.926 293.047 185.328 255.636 185.328 255.636L209.997 252.236Z" fill="#201D40"/>
<path d="M198.2 253.474C198.2 253.474 191.933 304.308 188.862 313.95C185.794 323.592 179.809 331.744 174.253 364.544C167.848 364.864 161.883 364.544 161.883 364.544C161.883 364.544 162.748 322.937 172.724 313.476C173.062 296.912 171.111 253.802 171.111 253.802L198.2 253.476V253.474Z" fill="#2C2858"/>
<path d="M169.303 195.784C169.303 195.784 180.19 191.972 183.821 193.72C195.101 199.153 197.69 193.72 197.69 193.72C201.295 194.03 212.178 195.784 212.178 195.784C212.178 207.938 212.989 220.131 212.769 229.328C212.614 237.337 214.139 259.131 214.139 259.131C214.139 259.131 202.134 262.278 190.78 262.36C179.424 262.286 167.867 259.258 167.867 259.258C167.867 259.258 168.474 237.184 168.979 228.98C168.816 219.783 169.305 207.904 169.305 195.784H169.303Z" fill="#E62552"/>
<path d="M231.526 213.844C227.032 203.122 213.697 196.302 212.172 195.783L209.078 209.547C215.485 213.335 220.134 217.433 220.134 217.433C219.347 221.267 219.478 225.025 217.259 229.873C217.259 229.873 219.185 227.215 221.564 228.788C223.874 230.317 228.126 227.195 228.126 227.195C228.126 227.195 234.958 222.033 231.526 213.844Z" fill="#C4204A"/>
<path d="M229.024 240.941C229.102 240.965 229.179 240.981 229.257 240.989H229.513C229.982 240.94 230.398 240.619 230.547 240.14L242.528 201.514C242.552 201.437 242.567 201.359 242.575 201.28C242.581 201.228 242.577 201.178 242.575 201.126C242.575 201.097 242.577 201.065 242.575 201.035C242.573 201.007 242.565 200.983 242.559 200.955C242.486 200.516 242.18 200.132 241.726 199.991C241.653 199.969 241.577 199.951 241.498 199.941C241.41 199.931 241.323 199.933 241.237 199.941H211.078L198.992 240.985H229.042L229.022 240.938L229.024 240.941Z" fill="#95A6DB"/>
<path d="M211.354 199.991C210.712 199.793 210.03 200.151 209.831 200.793L197.926 239.323L197.898 239.413C197.701 240.053 198.057 240.729 198.693 240.93C199.336 241.133 200.018 240.773 200.217 240.133L212.153 201.515C212.352 200.872 211.994 200.192 211.352 199.991H211.354Z" fill="#768FDB"/>
<path d="M234.139 224.497C234.253 224.422 234.374 224.376 234.501 224.34C234.487 224.32 234.473 224.305 234.462 224.285C233.712 223.153 233.762 221.799 234.573 221.262C234.706 221.173 234.853 221.115 235.006 221.081C234.796 220.244 234.984 219.443 235.565 219.059C235.796 218.906 236.062 218.838 236.343 218.842C236.078 218.019 236.289 217.154 236.937 216.724C237.748 216.188 238.928 216.534 239.568 217.5C240.208 218.466 240.069 219.685 239.258 220.224C239.053 220.359 238.822 220.439 238.586 220.467C239.126 221.521 239.017 222.674 238.283 223.159C238.15 223.247 238.003 223.306 237.85 223.34C238.061 224.177 237.872 224.979 237.291 225.362C237.076 225.504 236.832 225.573 236.573 225.579C236.842 226.299 236.671 227.076 236.1 227.454C235.414 227.91 234.42 227.615 233.879 226.8C233.338 225.985 233.455 224.955 234.141 224.499L234.139 224.497Z" fill="#F37A50"/>
<path d="M197.062 222.054L199.813 220.462C199.813 220.462 200.574 216.562 204.989 216.469C204.483 218.105 203.754 220.462 203.754 220.462C203.754 220.462 205.927 222.148 211.081 219.261C216.12 218.129 213.966 221.802 215.637 222.066C218.1 222.456 213.841 227.298 208.81 228.038C202.3 228.996 201.529 227.664 201.529 227.664L197.846 228.95L197.062 222.052V222.054Z" fill="#F37A50"/>
<path d="M171.623 226.223C180.812 225.58 196.487 221.043 196.487 221.043C198.996 224.89 198.302 230.001 198.302 230.001C184.031 242.512 162.556 246.557 155.966 243.544C149.951 240.796 154.196 204.173 169.302 195.783C174.48 204.546 171.625 226.223 171.625 226.223H171.623Z" fill="#8A284C"/>
<path d="M319.718 360.411C314.597 367.241 302.024 363.05 302.44 372.288C321.561 372.169 329.507 372.288 329.507 372.288C329.481 370.166 329.103 365.13 328.662 363.159L319.716 360.411H319.718Z" fill="black"/>
<path d="M348.327 360.59C343.207 367.42 330.634 363.228 331.049 372.467C350.17 372.347 358.118 372.467 358.118 372.467C358.092 370.345 357.714 365.31 357.273 363.338L348.327 360.59Z" fill="black"/>
<path d="M310.863 256.145C310.863 256.145 307.759 299.917 309.02 309.649C310.281 319.381 314.747 331.856 314.242 364.045C320.476 365.555 329.505 364.045 329.505 364.045C329.505 364.045 330.843 327.649 324.256 311.391C326.934 295.6 335.532 259.43 335.532 259.43L310.863 256.143V256.145Z" fill="#201D40"/>
<path d="M322.664 257.343C322.664 257.343 328.934 306.485 332.002 315.805C335.07 325.127 341.055 333.008 346.611 364.718C353.016 365.028 360.65 363.451 360.65 363.451C360.65 363.451 358.116 324.495 348.14 315.348C347.802 299.335 349.753 257.659 349.753 257.659L322.664 257.343Z" fill="#2C2858"/>
<path d="M348.191 176.943C344.793 185.434 336.632 190.153 329.965 187.484C323.295 184.816 320.645 175.768 324.043 167.279C327.441 158.789 335.602 154.068 342.269 156.737C348.938 159.405 351.589 168.453 348.191 176.943Z" fill="#F37A50"/>
<path d="M326.946 170.067C326.552 170.634 325.773 170.773 325.208 170.379C324.641 169.985 324.502 169.206 324.896 168.639C325.289 168.073 326.069 167.933 326.634 168.327C327.2 168.721 327.339 169.5 326.946 170.065V170.067Z" fill="black"/>
<path d="M336.299 173.884C335.874 174.497 335.031 174.648 334.416 174.222C333.802 173.797 333.653 172.954 334.078 172.339C334.504 171.727 335.347 171.576 335.961 172.001C336.574 172.427 336.725 173.27 336.299 173.884Z" fill="black"/>
<path d="M328.839 172.059C327.151 173.392 325.039 174.996 325.039 174.996C325.039 174.996 325.017 177.033 327.397 177.915C326.536 177.134 325.781 176.096 326.678 174.895C327.572 173.696 328.841 172.057 328.841 172.057L328.839 172.059Z" fill="#DE623C"/>
<path d="M338.765 173.07C338.483 173.07 338.228 172.878 338.159 172.591C338.143 172.526 337.723 170.901 336.331 170.893C335.987 170.893 335.709 170.611 335.711 170.267C335.711 169.923 335.995 169.644 336.337 169.646C338.238 169.656 339.153 171.386 339.372 172.301C339.451 172.635 339.244 172.971 338.91 173.052C338.861 173.064 338.813 173.07 338.765 173.07Z" fill="black"/>
<path d="M328.254 167.423C328.077 167.423 327.904 167.332 327.807 167.169C327.797 167.153 327.461 166.616 326.904 166.517C326.512 166.447 326.067 166.608 325.586 166.994C325.361 167.173 325.035 167.137 324.856 166.912C324.677 166.688 324.713 166.361 324.937 166.183C325.669 165.598 326.397 165.367 327.103 165.497C328.135 165.687 328.682 166.602 328.704 166.64C328.849 166.888 328.765 167.205 328.519 167.35C328.435 167.397 328.346 167.421 328.256 167.421L328.254 167.423Z" fill="black"/>
<path d="M345.823 177.829C343.365 169.929 346.473 165.732 346.473 165.732C344.363 165.308 343.544 166.038 343.544 166.038C342.393 163.675 343.284 161.981 343.284 161.981C338.923 160.281 336.752 163.105 332.818 164.057C327.432 165.36 320.776 163.212 320.154 156.634C320.064 155.682 321.11 155.065 321.906 155.598C322.643 156.091 323.622 156.491 324.841 156.455C324.841 156.455 323.711 155.183 323.654 153.421C323.622 152.449 324.761 151.926 325.507 152.546C326.626 153.479 328.704 154.36 332.409 153.666C334.874 153.204 340.52 149.255 344.035 150.025C346.911 150.655 349.191 153.101 350.172 156.603C350.172 156.603 357.237 157.334 357.947 165.111C358.643 172.751 349.794 178.613 349.794 178.613L345.823 177.827V177.829Z" fill="black"/>
<path d="M344.86 176.511C342.989 177.571 342.175 179.672 343.042 181.203C343.909 182.735 346.13 183.116 348.002 182.056C349.873 180.997 350.686 178.895 349.819 177.364C348.952 175.833 346.731 175.451 344.86 176.511Z" fill="#F37A50"/>
<path d="M345.162 181.107C345.104 181.067 345.054 181.011 345.018 180.945C344.499 179.993 344.581 179.021 345.235 178.343C345.905 177.649 346.991 177.446 347.814 177.859C348.047 177.977 348.14 178.259 348.023 178.49C347.908 178.722 347.623 178.816 347.393 178.698C346.941 178.472 346.289 178.601 345.911 178.995C345.547 179.373 345.523 179.904 345.844 180.494C345.967 180.723 345.883 181.007 345.655 181.132C345.494 181.22 345.303 181.204 345.162 181.105V181.107Z" fill="#DE623C"/>
<path d="M325.427 180.629C325.245 180.331 325.505 179.957 325.847 180.031C326.72 180.216 328.166 180.488 329.559 180.613C330.951 180.737 332.423 180.725 333.316 180.697C333.666 180.687 333.857 181.098 333.624 181.361C332.906 182.168 331.466 183.359 329.333 183.17C327.199 182.98 325.992 181.552 325.429 180.631L325.427 180.629Z" fill="white"/>
<path d="M316.45 191.755C316.45 191.755 316.769 190.89 289.252 191.113L281.875 199.832C289.511 205.954 315.082 207.042 315.082 207.042L316.45 191.755Z" fill="#201D40"/>
<path d="M326.445 191.045L335.125 190.236L343.522 192.577L334.061 202.312L326.445 191.045Z" fill="#95A6DB"/>
<path d="M329.461 195.513C332.998 198.417 333.72 200.425 341.235 196.544L342.362 184.991L330.131 184.026L329.463 195.513H329.461Z" fill="#F37A50"/>
<path d="M345.761 197.227L343.188 196.209L343.532 192.576L336.398 198.305L334.383 198.625L332.459 197.951L326.457 191.043L326.149 194.68L323.88 195.135L315.696 196.459L314.721 241.884L311.492 257.338C322.353 260.951 334.497 261.852 346.435 260.206L346.034 244.692L354.515 200.297L345.759 197.223L345.761 197.227Z" fill="#95A6DB"/>
<path d="M332.816 203.215L327.688 237.899L330.527 241.843L334.228 238.999L335.488 203.503L332.816 203.215Z" fill="#2C2858"/>
<path d="M332.508 199.12L334.383 198.627L336.292 199.46L335.485 203.572L332.796 203.329L332.508 199.12Z" fill="#2C2858"/>
<path d="M326.332 191.336L325.047 233.233L319.502 260.21C319.502 260.21 310.732 259.325 305.344 254.199L312.25 233.889L314.61 191.447L326.332 191.336Z" fill="#2C2858"/>
<path d="M326.333 191.336L325.055 232.67L318.672 200.994L326.333 191.336Z" fill="#494C7F"/>
<path d="M344.185 194.016L332.797 261.938C332.797 261.938 347.909 263.796 354.123 259.707L350.751 237.379L354.873 199.473L344.185 194.014V194.016Z" fill="#2C2858"/>
<path d="M344.187 194.016L337.531 233.825L349.448 203.79L344.187 194.016Z" fill="#494C7F"/>
<path d="M268.934 154.071C269.541 156.191 269.722 158.476 272.408 159.619C272.408 159.619 272.011 166.652 272.307 172.421C272.307 172.421 278.811 165.086 278.811 165.08C278.437 162.753 278.137 158.357 278.495 155.861C278.588 155.213 278.716 154.569 278.817 153.918C279.097 152.341 279.561 150.727 278.6 148.824C274.888 141.47 276.139 139.051 275.626 138.691C274.794 138.325 272.842 139.804 273.945 143.417C275.015 146.913 274.751 148.631 274.751 148.631C274.751 148.631 271.945 148.1 270.949 149.082C270.497 149.528 268.225 151.594 268.932 154.071H268.934Z" fill="#F37A50"/>
<path d="M270.445 163.984C274.235 162.722 276.232 162.153 279.181 162.153C286.15 182.923 291.117 190.749 289.047 196.711C287.319 201.682 281.853 201.284 279.181 197.56C275.655 192.646 272.533 173.978 270.445 163.984Z" fill="#201D40"/>
<path d="M354.878 199.472L376.837 233.825L402.915 248.552L394.878 256.553L368.714 245.086L350.758 219.751L354.878 199.472Z" fill="#201D40"/>
<path d="M334.384 198.627C334.384 198.627 331.154 201.888 328.184 202.723L324.672 193.437L326.458 191.047L334.384 198.629V198.627Z" fill="white"/>
<path d="M334.383 198.628C334.383 198.628 336.224 201.791 339.756 203.762L344.866 195.275L343.532 192.577L334.383 198.628Z" fill="white"/>
<path d="M358.281 296.423H166.557C162.051 296.423 158.398 293.966 158.398 290.933C158.398 287.901 162.051 285.443 166.557 285.443H358.281C362.787 285.443 366.44 287.901 366.44 290.933C366.44 293.966 362.787 296.423 358.281 296.423Z" fill="#95A6DB"/>
<path d="M238.419 373.787C236.365 373.787 235.131 371.506 236.252 369.786L286.874 292.21L291.207 295.037L240.585 372.613C240.108 373.345 239.292 373.787 238.417 373.787H238.419Z" fill="#95A6DB"/>
<path d="M286.421 373.787C288.475 373.787 289.71 371.506 288.588 369.786L237.966 292.21L233.633 295.037L284.255 372.613C284.732 373.345 285.548 373.787 286.423 373.787H286.421Z" fill="#95A6DB"/>
<path d="M365.907 372.558C364.539 372.558 363.43 371.448 363.43 370.08V326.169H368.387V370.08C368.387 371.448 367.277 372.558 365.909 372.558H365.907Z" fill="#768FDB"/>
<path d="M383.298 372.558C381.93 372.558 380.82 371.448 380.82 370.08V326.169H385.778V370.08C385.778 371.448 384.668 372.558 383.3 372.558H383.298Z" fill="#768FDB"/>
<path d="M406.118 372.558C404.75 372.558 403.641 371.448 403.641 370.08V326.169H408.598V370.08C408.598 371.448 407.488 372.558 406.12 372.558H406.118Z" fill="#768FDB"/>
<path d="M423.509 372.558C422.141 372.558 421.031 371.448 421.031 370.08V326.169H425.988V370.08C425.988 371.448 424.879 372.558 423.511 372.558H423.509Z" fill="#768FDB"/>
<path d="M396.087 261.002V313.257C396.087 313.852 395.606 314.333 395.011 314.333H362.613C359.344 314.333 356.695 316.984 356.695 320.251C356.695 323.52 359.346 326.168 362.613 326.168H402.006C405.276 326.168 407.924 323.518 407.924 320.251V261.002C407.924 257.733 405.274 255.085 402.006 255.085C398.737 255.085 396.089 257.735 396.089 261.002H396.087Z" fill="#95A6DB"/>
<path d="M427.623 255.083H402.008V315.292H427.623V255.083Z" fill="#95A6DB"/>
<path d="M421.704 261.002V313.257C421.704 313.852 421.223 314.333 420.628 314.333H388.23C384.961 314.333 382.312 316.984 382.312 320.251C382.312 323.52 384.963 326.168 388.23 326.168H427.624C430.893 326.168 433.541 323.518 433.541 320.251V261.002C433.541 257.733 430.891 255.085 427.624 255.085C424.355 255.085 421.706 257.735 421.706 261.002H421.704Z" fill="#768FDB"/>
<path d="M156.495 372.558C157.863 372.558 158.973 371.448 158.973 370.08V326.169H154.016V370.08C154.016 371.448 155.125 372.558 156.493 372.558H156.495Z" fill="#768FDB"/>
<path d="M139.112 372.558C140.481 372.558 141.59 371.448 141.59 370.08V326.169H136.633V370.08C136.633 371.448 137.742 372.558 139.11 372.558H139.112Z" fill="#768FDB"/>
<path d="M116.292 372.558C117.66 372.558 118.77 371.448 118.77 370.08V326.169H113.812V370.08C113.812 371.448 114.922 372.558 116.29 372.558H116.292Z" fill="#768FDB"/>
<path d="M98.9015 372.558C100.27 372.558 101.379 371.448 101.379 370.08V326.169H96.4219V370.08C96.4219 371.448 97.5314 372.558 98.8995 372.558H98.9015Z" fill="#768FDB"/>
<path d="M126.322 261.002V313.257C126.322 313.852 126.803 314.333 127.397 314.333H159.796C163.065 314.333 165.713 316.984 165.713 320.251C165.713 323.52 163.063 326.168 159.796 326.168H120.402C117.133 326.168 114.484 323.518 114.484 320.251V261.002C114.484 257.733 117.135 255.085 120.402 255.085C123.671 255.085 126.32 257.735 126.32 261.002H126.322Z" fill="#95A6DB"/>
<path d="M94.7908 315.294H120.406L120.406 255.085H94.7908V315.294Z" fill="#95A6DB"/>
<path d="M100.705 261.003V313.258C100.705 313.852 101.186 314.333 101.78 314.333H134.178C137.447 314.333 140.096 316.984 140.096 320.251C140.096 323.52 137.445 326.169 134.178 326.169H94.7849C91.5158 326.169 88.8672 323.518 88.8672 320.251V261.003C88.8672 257.734 91.5178 255.085 94.7849 255.085C98.0539 255.085 100.703 257.736 100.703 261.003H100.705Z" fill="#768FDB"/>
<path d="M382.905 241.034C377.438 239.061 368.995 234.75 374.607 226.872C380.218 218.994 380.075 222.432 378.055 212.861C376.034 203.291 382.839 195.763 389.327 197.667C395.814 199.572 397.47 204.822 405.422 203.494C413.374 202.165 419.983 209.602 416.991 216.051C413.998 222.499 412.72 225.605 415.517 229.175C418.317 232.744 430.928 236.59 425.666 245.142C420.407 253.694 417.997 253.17 419.822 257.554C421.65 261.939 417.436 266.93 410.125 266.248C402.813 265.566 396.195 262.802 393.513 254.639C390.833 246.476 382.905 241.034 382.905 241.034Z" fill="#2C2858"/>
<path d="M363.561 365.345L359.242 366.635L355.989 363.311C356.144 363.08 355.995 360.853 355.492 358.479L363.561 357.14C363.884 359.6 363.561 362.863 363.561 365.347V365.345Z" fill="#F37A50"/>
<path d="M359.279 365.858C358.251 363.161 356.055 362.861 356.055 362.861C351.788 368.552 341.309 365.06 341.657 372.758C357.592 372.658 364.216 372.758 364.216 372.758C364.194 370.99 363.88 366.792 363.512 365.15L362.681 365.297L359.279 365.856V365.858Z" fill="#E62552"/>
<path d="M334.835 366.148L330.337 366.457L327.75 363.703C327.953 363.512 328.442 360.101 328.474 357.676L336.054 358.014C335.827 360.483 335.38 363.728 334.833 366.15L334.835 366.148Z" fill="#F37A50"/>
<path d="M330.831 365.858C329.805 363.161 327.61 362.861 327.61 362.861C323.343 368.552 312.864 365.06 313.212 372.758C329.147 372.658 335.771 372.758 335.771 372.758C335.749 370.99 335.435 366.792 335.067 365.15L334.236 365.297L330.833 365.856L330.831 365.858Z" fill="#E62552"/>
<path d="M380.315 290.945C368.038 292.597 333.451 305.415 331.524 307.733C327.543 312.523 329.641 338.584 327.75 360.089L337.802 360.684C342.618 343.172 342.234 335.611 344.411 315.524C344.411 315.524 383.924 318.483 398.203 308.847C412.924 298.91 390.244 288.59 380.315 290.945Z" fill="#0E6A41"/>
<path d="M364.318 265.415C367.219 265.91 368.336 268.238 369.036 272.526C357.983 279.038 341.562 279.501 341.562 279.501L336.328 276.912C336.328 276.912 349.496 272.17 364.318 265.415Z" fill="#DE623C"/>
<path d="M394.544 253.159C389.706 260.188 371.175 275.305 368.107 275.782L364.391 265.38C364.391 265.38 382.484 245.798 385.779 242.336C391.468 236.329 402.464 241.698 394.544 253.159Z" fill="#DE623C"/>
<path d="M374.166 252.034C378.046 247.854 383.098 238.421 389.672 239.091C396.246 239.761 396.721 246.739 394.739 250.495C392.756 254.251 385.914 263.51 385.914 263.51L374.164 252.034H374.166Z" fill="#FF4F78"/>
<path d="M375.356 269.718C378.142 270.678 379.732 279.455 378.951 280.127C367.004 284.86 342.148 279.741 342.148 279.741L340.828 275.24C340.828 275.24 359.649 274.088 375.356 269.718Z" fill="#F37A50"/>
<path d="M414.66 298.324C411.928 284.23 410.751 279.235 409.616 272.601C406.812 256.208 415.056 244.685 400.92 236.829L390.616 238.489C382.284 247.254 377.156 255.21 376.717 260.706C376.112 267.795 383.147 271.643 383.147 271.643L380.318 290.945C380.318 290.945 379.651 292.522 391.27 294.715C402.889 296.91 414.66 298.324 414.66 298.324Z" fill="#E62552"/>
<path d="M406.189 255.16C401.351 262.271 380.681 280.342 377.575 280.501L375.352 269.718C375.352 269.718 394.129 247.711 397.424 244.21C403.113 238.135 414.109 243.563 406.189 255.158V255.16Z" fill="#F37A50"/>
<path d="M386.43 255.21C390.039 249.959 397.321 240.267 403.894 240.939C410.468 241.609 410.943 248.587 408.963 252.343C406.98 256.099 400.138 265.358 400.138 265.358L386.43 255.21Z" fill="#FF4F78"/>
<path d="M340.82 275.24C337.02 274.305 328.756 271.529 325.43 280.231C326.265 281.827 329.323 277.884 330.637 277.52C332.723 276.94 334.513 278.037 336.092 279.545C338.355 281.708 342.141 279.742 342.141 279.742L340.82 275.24Z" fill="#F37A50"/>
<path d="M337.863 285.353H302.164V280.558H342.657C342.657 283.205 340.512 285.353 337.863 285.353Z" fill="#FF4F78"/>
<path d="M283.808 255.239L302.165 285.352L306.409 283.121L285.822 248.764C283.48 249.995 282.577 252.894 283.81 255.237L283.808 255.239Z" fill="#FF4F78"/>
<path d="M405.639 223.4C403.903 230.65 397.88 235.423 392.185 234.058C386.49 232.694 383.282 225.713 385.018 218.463C386.754 211.213 392.777 206.441 398.472 207.805C404.167 209.169 407.375 216.15 405.639 223.4Z" fill="#F37A50"/>
<path d="M402.885 227.219L393.422 233.084C393.422 233.084 392.583 237.266 392.163 238.624C391.298 241.424 394.611 242.647 397.413 240.905C400.215 239.161 400.927 236.831 400.927 236.831L402.883 227.22L402.885 227.219Z" fill="#F37A50"/>
<path d="M384.359 215.693C387.048 215.924 392.874 215.458 395 212.939C396.515 218.053 402.954 222.923 408.279 225.206C408.491 219.958 408.454 210.302 399.044 206.292C391.653 203.14 384.359 215.693 384.359 215.693Z" fill="#2C2858"/>
<path d="M387.68 220.367C387.43 220.87 386.819 221.075 386.314 220.825C385.811 220.574 385.606 219.962 385.857 219.459C386.107 218.955 386.718 218.751 387.223 219.001C387.726 219.252 387.931 219.864 387.68 220.367Z" fill="black"/>
<path d="M395.69 222.341C395.418 222.885 394.758 223.106 394.213 222.836C393.668 222.563 393.445 221.903 393.718 221.358C393.99 220.813 394.65 220.591 395.195 220.863C395.74 221.136 395.963 221.796 395.69 222.341Z" fill="black"/>
<path d="M396.901 221.428C396.825 221.39 396.762 221.328 396.724 221.245C396.171 220.053 394.68 219.821 394.664 219.819C394.455 219.789 394.31 219.594 394.34 219.385C394.37 219.177 394.563 219.031 394.773 219.061C394.851 219.071 396.69 219.35 397.42 220.924C397.509 221.117 397.426 221.344 397.233 221.433C397.124 221.485 397 221.479 396.901 221.43V221.428Z" fill="#2C2858"/>
<path d="M385.462 218.89C385.424 218.872 385.39 218.846 385.361 218.817C385.211 218.665 385.213 218.423 385.365 218.276C386.534 217.12 387.975 217.6 388.035 217.622C388.234 217.691 388.341 217.908 388.272 218.109C388.202 218.308 387.985 218.415 387.787 218.347C387.739 218.331 386.725 218.009 385.901 218.823C385.782 218.94 385.603 218.964 385.462 218.892V218.89Z" fill="#2C2858"/>
<path d="M388.345 222.581C387.787 223.155 387.297 223.748 386.763 224.084C386.584 224.197 386.526 224.436 386.629 224.621C387.061 225.384 388.318 226.015 389.089 226.341C389.202 226.389 389.294 226.242 389.202 226.16C388.423 225.478 388.089 224.975 387.95 224.698C387.88 224.561 387.882 224.4 387.95 224.263C388.109 223.947 388.427 223.305 388.642 222.772C388.715 222.589 388.481 222.438 388.343 222.579L388.345 222.581Z" fill="#DE623C"/>
<path d="M402.891 223.447C401.507 224.522 401.1 226.314 401.981 227.445C402.861 228.577 404.697 228.623 406.081 227.547C407.465 226.471 407.872 224.679 406.992 223.548C406.111 222.417 404.275 222.371 402.891 223.447Z" fill="#F37A50"/>
<path d="M403.681 227.117C403.63 227.091 403.584 227.053 403.546 227.003C403.015 226.298 402.965 225.502 403.413 224.88C403.87 224.241 404.723 223.949 405.437 224.186C405.638 224.253 405.747 224.468 405.682 224.671C405.616 224.872 405.399 224.981 405.196 224.916C404.805 224.786 404.296 224.967 404.037 225.329C403.789 225.677 403.832 226.109 404.161 226.546C404.288 226.715 404.254 226.956 404.085 227.083C403.966 227.172 403.809 227.182 403.683 227.119L403.681 227.117Z" fill="#DE623C"/>
<path d="M394.049 293.186C381.773 294.838 347.134 306.065 345.207 308.384C341.226 313.174 350.088 333.685 352.924 360.092H364.775C364.652 341.277 366.153 323.969 360.365 317.835C360.365 317.835 393.566 315.62 410.116 315.62C418.553 315.62 423.222 287.109 394.049 293.188V293.186Z" fill="#3F964F"/>
<path d="M387.82 228.682C387.657 228.461 387.834 228.153 388.107 228.185C388.801 228.268 389.95 228.382 391.046 228.383C392.141 228.383 393.291 228.272 393.985 228.191C394.259 228.159 394.434 228.467 394.271 228.688C393.766 229.368 392.724 230.398 391.044 230.396C389.363 230.396 388.323 229.362 387.82 228.682Z" fill="white"/>
<path d="M152.078 272.91C149.734 274.471 150.382 282.971 151.269 283.405C163.46 284.894 184.051 274.795 184.051 274.795L184.858 270.277C184.858 270.277 167.66 273.158 152.08 272.912L152.078 272.91Z" fill="#F37A50"/>
<path d="M125.293 258.167C129.652 265.137 148.727 283.158 151.688 283.425L154.209 273.208C154.209 273.208 137.086 251.5 134.068 248.034C128.858 242.021 118.156 246.803 125.293 258.167Z" fill="#F37A50"/>
<path d="M135.717 220.928C136.242 213.793 134.178 207.488 128.489 204.278C122.723 201.025 115.499 204.217 115.499 204.217C115.499 204.217 109.384 202.041 103.842 208.146C98.3004 214.25 102.492 219.621 100.225 224.073C98.883 226.71 92.0566 227.253 93.8204 235.841C94.3295 238.319 97.3082 239.985 99.8315 240.15C104.264 240.44 108.392 238.728 110.189 240.44C116.111 246.088 129.233 244.045 131.068 238.879C131.637 237.279 143.441 240.377 142.263 229.468C141.667 223.94 135.252 227.303 135.719 220.926L135.717 220.928Z" fill="#2C2858"/>
<path d="M124.893 243.993L115.521 242.263L112.008 246.94L119.476 262.251L130.461 252.928L124.893 243.993Z" fill="#F37A50"/>
<path d="M137.044 280.914C136.883 278.001 141.591 266.036 139.114 260.015C137.308 255.171 134.294 247.038 130.601 245.682C128.859 245.042 127.068 244.597 124.896 243.996C124.896 243.996 126.121 250.101 123.57 250.305C118.656 250.699 115.527 242.266 115.527 242.266C112.878 242.014 100.728 246.004 100.734 247.003C100.762 254.817 107.111 266.217 109.187 274.666C110.005 283.791 106.821 294.71 106.809 295.748C106.809 295.748 126.354 301.242 137.939 294.863C138.181 293.974 137.264 284.937 137.044 280.914Z" fill="#3F964F"/>
<path d="M109.75 286.369C109.75 286.369 105.435 297.254 104.383 304.106C103.331 310.958 109.268 315.355 109.268 315.355H158.65C158.65 315.355 163.937 306.781 162.414 300.861C160.891 294.941 157.389 293.999 157.389 293.999L109.75 286.367V286.369Z" fill="#3F964F"/>
<path d="M159.318 293.699C153.013 292.81 134.717 299.917 126.914 315.357H148.741L159.318 293.699Z" fill="#DE623C"/>
<path d="M152.398 299.382C153.214 298.491 153.953 297.391 154.604 296.244C156.443 293.003 160.879 292.454 163.383 295.216C172.484 305.25 191.885 328.123 196.21 330.971C197.431 331.774 204.564 335.88 211.343 335.069C211.343 335.069 214.689 336.343 212.46 339C211.313 340.368 194.087 341.78 194.087 341.78L192.744 336.721C182.717 329.3 170.233 329.833 159.648 316.264C153.82 308.791 152.4 299.382 152.4 299.382H152.398Z" fill="#DE623C"/>
<path d="M197.57 344.697L204.502 349.197L205.454 348.061L199.831 342.818C203.025 340.298 210.424 342.4 210.424 342.4C212.848 340.835 217.57 335.759 218.057 333.038C216.506 331.106 211.338 335.083 211.338 335.083C211.527 335.944 209.895 338.928 208.596 339.437C202.951 340.654 197.326 339.052 192.736 336.721C192.736 336.721 188.9 342.533 197.568 344.697H197.57Z" fill="#E62552"/>
<path d="M152.304 300.744C151.041 301.084 150.1 302.142 149.917 303.437C149.424 306.938 146.873 314.031 150.323 321.458C158.792 339.693 163.791 351.705 164.68 356.412C162.469 360.554 171.287 371.872 171.421 372.612L177.77 370.625C177.77 370.625 174.127 365.207 172.815 363.085C169.691 358.032 169.18 351.832 168.673 347.026C166.505 326.507 170.232 313.552 155.386 301.516C154.509 300.804 153.395 300.452 152.304 300.744Z" fill="#F37A50"/>
<path d="M161.514 365.09L162.14 373.33L163.622 373.399L164.381 365.748C168.322 366.76 171.136 373.918 171.136 373.918C173.85 374.897 180.75 375.575 183.21 374.312C183.806 371.906 177.511 370.208 177.511 370.208C176.94 370.882 173.578 371.393 172.385 370.669C167.994 366.919 165.608 361.475 164.677 356.41C164.677 356.41 157.98 356.885 161.514 365.09Z" fill="#E62552"/>
<path d="M122.524 236.34L114.914 235.201L115.521 242.264C115.521 242.264 116.976 245.463 118.666 245.68L124.892 243.994L122.524 236.34Z" fill="#F37A50"/>
<path d="M107.876 226.128C109.841 234.333 116.657 239.731 123.1 238.19C129.543 236.647 133.174 228.745 131.211 220.543C129.248 212.34 122.43 206.938 115.987 208.481C109.545 210.024 105.914 217.926 107.876 226.128Z" fill="#F37A50"/>
<path d="M128.192 222.697C128.476 223.267 129.168 223.498 129.737 223.214C130.305 222.929 130.538 222.237 130.254 221.669C129.969 221.098 129.277 220.867 128.709 221.152C128.14 221.436 127.907 222.128 128.192 222.697Z" fill="black"/>
<path d="M119.138 224.928C119.445 225.544 120.194 225.795 120.811 225.488C121.427 225.18 121.678 224.433 121.371 223.816C121.063 223.2 120.316 222.949 119.699 223.255C119.083 223.562 118.832 224.311 119.138 224.928Z" fill="black"/>
<path d="M117.76 223.895C117.845 223.853 117.917 223.781 117.961 223.688C118.585 222.34 120.275 222.077 120.291 222.073C120.528 222.037 120.693 221.819 120.657 221.582C120.623 221.345 120.405 221.18 120.168 221.214C120.081 221.226 117.999 221.54 117.173 223.322C117.072 223.539 117.167 223.797 117.384 223.899C117.509 223.956 117.647 223.95 117.76 223.893V223.895Z" fill="#2C2858"/>
<path d="M130.703 221.026C130.745 221.007 130.785 220.979 130.819 220.943C130.988 220.772 130.986 220.498 130.815 220.328C129.492 219.022 127.86 219.563 127.792 219.587C127.565 219.664 127.446 219.911 127.524 220.138C127.601 220.362 127.848 220.484 128.072 220.406C128.126 220.388 129.273 220.024 130.204 220.943C130.339 221.076 130.54 221.104 130.703 221.022V221.026Z" fill="#2C2858"/>
<path d="M127.451 225.202C128.083 225.852 128.638 226.522 129.241 226.902C129.443 227.031 129.509 227.302 129.392 227.51C128.905 228.375 127.481 229.087 126.608 229.457C126.481 229.511 126.375 229.344 126.481 229.252C127.362 228.479 127.739 227.91 127.898 227.598C127.978 227.443 127.976 227.26 127.898 227.105C127.717 226.749 127.358 226.021 127.115 225.417C127.031 225.21 127.296 225.037 127.453 225.198L127.451 225.202Z" fill="#DE623C"/>
<path d="M110.977 226.18C112.542 227.398 113.004 229.425 112.007 230.705C111.011 231.986 108.933 232.038 107.368 230.819C105.803 229.602 105.342 227.573 106.338 226.293C107.334 225.012 109.412 224.961 110.977 226.178V226.18Z" fill="#F37A50"/>
<path d="M110.081 230.334C110.139 230.304 110.192 230.262 110.234 230.207C110.835 229.407 110.892 228.509 110.385 227.803C109.866 227.081 108.904 226.751 108.095 227.017C107.868 227.093 107.745 227.337 107.818 227.566C107.894 227.793 108.138 227.918 108.367 227.842C108.81 227.697 109.387 227.902 109.679 228.31C109.962 228.703 109.912 229.191 109.54 229.686C109.397 229.877 109.435 230.149 109.626 230.292C109.761 230.394 109.938 230.404 110.079 230.334H110.081Z" fill="#DE623C"/>
<path d="M120.327 231.742C120.147 231.497 120.341 231.155 120.646 231.191C121.415 231.282 122.688 231.408 123.903 231.408C125.118 231.408 126.39 231.282 127.16 231.191C127.462 231.155 127.659 231.497 127.478 231.742C126.919 232.495 125.766 233.639 123.905 233.639C122.043 233.639 120.89 232.495 120.331 231.742H120.327Z" fill="white"/>
<path d="M107.725 225.403C115.416 224.373 126.178 216.536 127.059 212.516C125.571 207.686 117.645 205.258 113.169 207.495C108.693 209.732 104.466 219.324 107.723 225.403H107.725Z" fill="#2C2858"/>
<path d="M179.666 283.563C178.642 283.229 178.083 282.127 178.417 281.105L190.288 244.738C190.622 243.714 191.724 243.155 192.746 243.489C193.77 243.823 194.329 244.925 193.995 245.949L182.124 282.316C181.79 283.34 180.688 283.899 179.666 283.565V283.563Z" fill="white"/>
<path d="M185.979 270.53L188.397 263.121C188.397 263.121 190.493 267.384 188.397 271.429C186.301 275.475 184.305 275.656 184.305 275.656L185.977 270.53H185.979Z" fill="#F37A50"/>
<path d="M182.521 268.546C181.908 267.108 180.469 263.509 181.908 263.525C183.348 263.541 183.583 265.289 183.583 265.289L182.519 268.546H182.521Z" fill="#F37A50"/>
<path d="M63.6016 246.891C66.8666 243.598 64.725 240.219 64.725 240.219C66.5167 239.835 75.9678 254.152 80.0442 263.252C87.153 256.087 99.6783 246.411 103.067 245.847C103.067 245.847 107.636 244.618 109.279 250.144C110.744 255.075 105.029 258.569 105.029 258.569C105.029 258.569 80.5791 275.831 76.9641 274.296C71.3367 271.907 66.2442 251.363 63.6036 246.891H63.6016Z" fill="#F37A50"/>
<path d="M58.5005 246.483C60.495 246.604 62.9627 245.618 63.7322 247.407L67.6694 245.488L67.908 243.114C64.5236 237.694 56.2774 236.154 55.4602 236.083C53.3385 235.896 52.3542 235.677 52.1872 235.962C52.0221 236.246 51.5011 238.133 54.5793 238.503C58.4429 238.966 55.8777 242.056 48.0412 239.115C46.0786 238.38 42.386 239.334 43.7223 240.77C45.1937 242.351 49.4232 245.932 58.5005 246.485V246.483Z" fill="#F37A50"/>
<path d="M271.793 136.085C271.793 137.883 271.485 139.622 270.908 141.275C268.017 149.575 258.367 155.671 246.903 155.671C235.44 155.671 225.792 149.575 222.9 141.275C222.322 139.622 222.016 137.883 222.016 136.085H271.793Z" fill="#3F964F"/>
<path d="M271.791 136.085C271.791 137.883 271.483 139.622 270.906 141.275H222.9C222.322 139.622 222.016 137.883 222.016 136.085H271.793H271.791Z" fill="#0E6A41"/>
<path d="M299.031 52.1227C299.031 23.3615 275.736 0.0407977 246.985 0.00102839C218.627 -0.0387409 195.307 22.8127 194.798 51.1663C194.575 63.5663 198.685 75 205.714 84.0535C214.609 95.509 219.544 109.54 219.544 124.044V124.3H274.273V124.044C274.273 109.52 279.246 95.4872 288.14 84.0058C294.967 75.1929 299.029 64.133 299.029 52.1227H299.031Z" fill="#FFE91D"/>
<path d="M254.79 118.4C254.645 118.4 254.498 118.376 254.352 118.326C253.656 118.084 253.291 117.324 253.533 116.63C253.595 116.453 259.739 98.7461 264.205 80.7146C272.121 48.754 268.049 43.5582 265.929 42.8085C259.699 40.6033 254.74 43.8664 251.676 46.9903C250.775 47.9089 249.912 48.9449 249.099 50.0744C250.429 52.375 251.628 54.9183 252.634 57.6047C255.394 64.9779 256.128 71.866 254.597 76.0278C253.416 79.2392 250.904 80.8678 247.526 80.6132C244.338 80.3726 242.006 78.5273 240.783 75.2762C239.379 71.5478 239.56 66.0636 241.28 60.2335C242.366 56.5508 243.992 53.0094 245.959 49.9571C244.122 47.0499 241.994 44.5464 239.683 42.8642C236.253 40.3647 233.032 40.2553 230.109 42.5401C224.074 47.2587 223.841 61.4484 229.441 83.578C233.758 100.639 240.091 116.412 240.155 116.569C240.429 117.251 240.099 118.028 239.417 118.303C238.735 118.579 237.957 118.249 237.683 117.565C237.619 117.406 231.225 101.488 226.864 84.2541C220.896 60.6769 221.435 45.9364 228.469 40.4383C232.332 37.4178 236.872 37.5152 241.254 40.7087C243.45 42.3094 245.621 44.7095 247.588 47.6445C248.288 46.7377 249.017 45.8926 249.773 45.1231C254.871 39.9233 260.926 38.2072 266.82 40.2951C270.489 41.5936 271.994 46.5329 271.421 55.3935C271 61.9276 269.441 70.6689 266.79 81.3689C262.294 99.5176 256.112 117.328 256.051 117.505C255.86 118.056 255.343 118.4 254.792 118.4H254.79ZM247.476 52.5679C245.969 55.1271 244.716 58.0044 243.835 60.9871C242.298 66.1949 242.089 71.1859 243.277 74.3376C244.134 76.6105 245.587 77.7956 247.727 77.9566C249.932 78.1237 251.32 77.2169 252.097 75.1092C253.863 70.309 251.72 60.5059 247.478 52.5699L247.476 52.5679Z" fill="white"/>
<path d="M224.163 117.736H269.661C275.081 117.736 279.482 122.137 279.482 127.557V127.969C279.482 133.39 275.081 137.79 269.661 137.79H224.165C218.744 137.79 214.344 133.39 214.344 127.969V127.557C214.344 122.137 218.744 117.736 224.165 117.736H224.163Z" fill="#3F964F"/>
<path d="M335.449 54.2645H318.408C315.982 54.2645 314.016 52.2979 314.016 49.872C314.016 47.4461 315.982 45.4795 318.408 45.4795H335.449C337.875 45.4795 339.842 47.4461 339.842 49.872C339.842 52.2979 337.875 54.2645 335.449 54.2645Z" fill="#FFE91D"/>
<path d="M175.402 54.2645H158.361C155.935 54.2645 153.969 52.2979 153.969 49.872C153.969 47.4461 155.935 45.4795 158.361 45.4795H175.402C177.828 45.4795 179.795 47.4461 179.795 49.872C179.795 52.2979 177.828 54.2645 175.402 54.2645Z" fill="#FFE91D"/>
<path d="M186.232 18.2072L172.67 7.88708C170.739 6.41761 170.366 3.66358 171.835 1.73278C173.305 -0.198018 176.061 -0.57185 177.989 0.897627L191.551 11.2178C193.482 12.6872 193.855 15.4433 192.386 17.3721C190.916 19.3029 188.162 19.6767 186.232 18.2072Z" fill="#FFE91D"/>
<path d="M306.708 18.2072L320.27 7.88708C322.2 6.41761 322.574 3.66358 321.105 1.73278C319.635 -0.198018 316.881 -0.57185 314.95 0.897627L301.389 11.2178C299.458 12.6872 299.084 15.4433 300.554 17.3721C302.023 19.3029 304.777 19.6767 306.708 18.2072Z" fill="#FFE91D"/>
<path d="M186.232 86.9845L172.67 97.3047C170.739 98.7742 170.366 101.53 171.835 103.459C173.305 105.39 176.061 105.764 177.989 104.294L191.551 93.974C193.482 92.5045 193.855 89.7505 192.386 87.8197C190.916 85.8889 188.162 85.5151 186.232 86.9845Z" fill="#FFE91D"/>
<path d="M306.708 86.9845L320.27 97.3047C322.2 98.7742 322.574 101.53 321.105 103.459C319.635 105.39 316.881 105.764 314.95 104.294L301.389 93.974C299.458 92.5045 299.084 89.7505 300.554 87.8197C302.023 85.8889 304.777 85.5151 306.708 86.9845Z" fill="#FFE91D"/>
<path d="M258.22 266.974C258.22 266.974 254.301 259.579 252.734 251.736C251.372 245.035 251.436 237.032 251.603 232.757C251.64 231.784 252.917 231.452 253.426 232.283C255.892 236.316 260.352 244.421 261.354 251.742C262.072 256.795 262.533 261.88 262.738 266.98L258.22 266.974Z" fill="#3F964F"/>
<path d="M262.312 266.974C262.312 266.974 264.925 257.934 267.799 251.903C269.889 247.518 274.643 242.269 277.085 239.73C277.546 239.248 278.351 239.662 278.228 240.318C277.602 243.661 276.152 250.251 273.784 254.75C270.491 261.006 265.009 266.974 265.009 266.974H262.312Z" fill="#3F964F"/>
<path d="M248.877 258.955C248.503 258.223 249.203 257.408 249.983 257.67C251.959 258.337 253.789 259.394 255.359 260.786C258.283 263.443 258.827 266.469 258.827 266.469L257.821 266.807C257.821 266.807 252.375 265.815 248.877 258.953V258.955Z" fill="#0E6A41"/>
<path d="M269.33 237.818C269.262 236.883 268.063 236.543 267.514 237.305C265.474 240.144 262.048 245.74 260.929 252.598C259.525 261.156 261.159 266.98 261.159 266.98H262.315C262.315 266.98 266.568 258.921 268.226 253.461C269.791 248.307 269.59 241.462 269.33 237.82V237.818Z" fill="#0E6A41"/>
<path d="M265.01 266.974C265.01 266.974 267.456 258.825 275.827 255.721C276.314 255.54 276.784 256.031 276.587 256.51C275.483 259.203 272.337 265.634 267.024 266.97L265.008 266.974H265.01Z" fill="#0E6A41"/>
<path d="M272.422 265.595H253.047L255.534 285.446H269.937L272.424 265.595H272.422Z" fill="#768FDB"/>
<path d="M251.588 281.117V283.966H252.363C252.739 283.966 253.045 284.273 253.045 284.648V284.764C253.045 285.14 252.741 285.446 252.363 285.446H219.301C218.864 285.446 218.508 285.092 218.508 284.652V280.548C218.508 280.111 218.864 279.755 219.301 279.755H252.363C252.739 279.755 253.045 280.061 253.045 280.437C253.045 280.813 252.741 281.119 252.363 281.119H251.588V281.117Z" fill="#E62552"/>
<path d="M222.766 281.117H251.682V283.967H222.766C222.446 283.967 222.188 283.706 222.188 283.388V281.698C222.188 281.378 222.446 281.119 222.766 281.119V281.117Z" fill="white"/>
<path d="M215.575 274.966V278.12H214.799C214.423 278.12 214.117 278.458 214.117 278.874V279.001C214.117 279.418 214.421 279.754 214.799 279.754H247.861C248.299 279.754 248.655 279.363 248.655 278.878V274.336C248.655 273.851 248.299 273.459 247.861 273.459H214.799C214.423 273.459 214.117 273.797 214.117 274.213C214.117 274.628 214.421 274.966 214.799 274.966H215.575Z" fill="#3F964F"/>
<path d="M244.36 278.119H215.474V274.967H244.36C244.696 274.967 244.969 275.24 244.969 275.576V277.511C244.969 277.847 244.696 278.119 244.36 278.119Z" fill="white"/>
<path d="M218.017 265.425H248.165C248.831 265.425 249.37 265.966 249.37 266.63V269.33C249.37 269.996 248.829 270.535 248.165 270.535H218.017C217.351 270.535 216.812 269.994 216.812 269.33V266.63C216.812 265.964 217.353 265.425 218.017 265.425Z" fill="#E62552"/>
<path d="M219.858 270.537H250.594C251.097 270.537 251.504 270.945 251.504 271.448V272.545C251.504 273.049 251.097 273.456 250.594 273.456H219.858C219.355 273.456 218.945 273.049 218.945 272.544V271.446C218.945 270.943 219.353 270.535 219.856 270.535L219.858 270.537Z" fill="#768FDB"/>
</svg>
