<svg width="145" height="37" viewBox="0 0 145 37" fill="none" xmlns="http://www.w3.org/2000/svg">
<mask id="mask0_1_212851" style="mask-type:alpha" maskUnits="userSpaceOnUse" x="0" y="0" width="42" height="37">
<path d="M9.34863 2.1152C9.34863 0.947006 10.2956 0 11.4638 0H29.8423C31.0105 0 31.9575 0.947006 31.9575 2.1152C31.9575 3.28339 31.0105 4.23039 29.8423 4.23039H11.4638C10.2956 4.23039 9.34863 3.28339 9.34863 2.1152Z" fill="#FAAE1A"/>
<path d="M16.9561 10.2409C16.9561 9.07274 17.903 8.12573 19.0712 8.12573H34.2975C35.4657 8.12573 36.4127 9.07274 36.4127 10.2409C36.4127 11.4091 35.4657 12.3561 34.2975 12.3561H19.0712C17.903 12.3561 16.9561 11.4091 16.9561 10.2409Z" fill="#FAAE1A"/>
<path d="M29.4551 18.37C29.4551 17.2018 30.4021 16.2548 31.5702 16.2548H38.9704C40.1386 16.2548 41.0856 17.2018 41.0856 18.37C41.0856 19.5382 40.1386 20.4852 38.9704 20.4852H31.5702C30.4021 20.4852 29.4551 19.5382 29.4551 18.37Z" fill="#FAAE1A"/>
<path d="M4.78125 10.2409C4.78125 9.07274 5.72824 8.12573 6.89641 8.12573H12.3401C13.5082 8.12573 14.4552 9.07274 14.4552 10.2409C14.4552 11.4091 13.5082 12.3561 12.3401 12.3561H6.89641C5.72824 12.3561 4.78125 11.4091 4.78125 10.2409Z" fill="#FAAE1A"/>
<path d="M9.34863 34.6248C9.34863 33.4566 10.2956 32.5096 11.4638 32.5096H13.9726C15.1408 32.5096 16.0878 33.4566 16.0878 34.6248C16.0878 35.793 15.1408 36.74 13.9726 36.74H11.4638C10.2956 36.74 9.34863 35.793 9.34863 34.6248Z" fill="#FAAE1A"/>
<path d="M18.2578 34.6248C18.2578 33.4566 19.2048 32.5096 20.373 32.5096H29.8384C31.0066 32.5096 31.9535 33.4566 31.9535 34.6248C31.9535 35.793 31.0066 36.74 29.8384 36.74H20.373C19.2048 36.74 18.2578 35.793 18.2578 34.6248Z" fill="#FAAE1A"/>
<path d="M0 18.37C0 17.2018 0.946989 16.2548 2.11516 16.2548H24.6241C25.7923 16.2548 26.7393 17.2018 26.7393 18.37C26.7393 19.5382 25.7923 20.4852 24.6241 20.4852H2.11516C0.94699 20.4852 0 19.5382 0 18.37Z" fill="#FAAE1A"/>
<path d="M4.78125 26.4957C4.78125 25.3275 5.72824 24.3805 6.89641 24.3805H34.2967C35.4649 24.3805 36.4119 25.3275 36.4119 26.4957C36.4119 27.6639 35.4649 28.6109 34.2967 28.6109H6.89641C5.72824 28.6109 4.78125 27.6639 4.78125 26.4957Z" fill="#FAAE1A"/>
</mask>
<g mask="url(#mask0_1_212851)">
<rect y="-1.57526" width="41.1315" height="39.8175" fill="url(#paint0_linear_1_212851)"/>
</g>
<path d="M67.1976 22.9049L64.8193 25.9746L62.4686 23.8452C60.8093 24.9882 58.8366 25.5598 56.5504 25.5598C53.5637 25.5598 51.1301 24.6195 49.2495 22.739C47.369 20.84 46.4287 18.4156 46.4287 15.4657C46.4287 12.4974 47.369 10.073 49.2495 8.19243C51.1301 6.31189 53.5637 5.37162 56.5504 5.37162C59.5003 5.37162 61.9155 6.30267 63.7961 8.16478C65.6766 10.0269 66.6169 12.4605 66.6169 15.4657C66.6169 17.5859 66.1191 19.4572 65.1235 21.0797L67.1976 22.9049ZM56.5504 21.2456C57.4354 21.2456 58.2466 21.052 58.9841 20.6648L57.4631 19.2544L59.8137 16.3783L61.4177 17.7887C61.6758 17.0513 61.8049 16.2769 61.8049 15.4657C61.8049 13.8433 61.3163 12.479 60.3392 11.3728C59.3805 10.2481 58.1176 9.6858 56.5504 9.6858C55.0386 9.6858 53.7757 10.2389 52.7617 11.3451C51.7661 12.4329 51.2683 13.8064 51.2683 15.4657C51.2683 17.125 51.7661 18.5077 52.7617 19.6139C53.7757 20.7017 55.0386 21.2456 56.5504 21.2456Z" fill="#343F52"/>
<path d="M86.6793 25.2832H81.2589L77.2213 18.9502H75.6173V25.2832H71.0542V5.64817H78.7146C81.0377 5.64817 82.7891 6.2658 83.9691 7.50106C85.149 8.73631 85.739 10.3772 85.739 12.4236C85.739 15.3366 84.5222 17.3001 82.0886 18.3142V18.3695L86.6793 25.2832ZM75.6173 9.71346V14.9126H77.7467C78.7239 14.9126 79.4982 14.6821 80.0697 14.2212C80.6413 13.7603 80.927 13.1242 80.927 12.313C80.927 11.5571 80.6597 10.9395 80.125 10.4601C79.5904 9.96235 78.8253 9.71346 77.8297 9.71346H75.6173Z" fill="#343F52"/>
<path d="M98.4757 11.4834C101.739 11.4834 103.371 13.3639 103.371 17.125V25.2832H99.0288V18.1759C99.0288 17.125 98.8536 16.3968 98.5033 15.9911C98.153 15.5671 97.5815 15.3551 96.7887 15.3551C95.9959 15.3551 95.3783 15.6132 94.9358 16.1294C94.4933 16.6456 94.2721 17.42 94.2721 18.4524V25.2832H89.9303V4.92914H94.2721V13.3363C95.3414 12.101 96.7426 11.4834 98.4757 11.4834Z" fill="#343F52"/>
<path d="M111.667 9.43691C111.151 9.89782 110.515 10.1283 109.759 10.1283C109.003 10.1283 108.358 9.89782 107.823 9.43691C107.307 8.95755 107.049 8.34914 107.049 7.61167C107.049 6.87421 107.307 6.27502 107.823 5.8141C108.358 5.33475 109.003 5.09507 109.759 5.09507C110.515 5.09507 111.151 5.33475 111.667 5.8141C112.202 6.27502 112.469 6.87421 112.469 7.61167C112.469 8.34914 112.202 8.95755 111.667 9.43691ZM107.602 25.2832V11.7599H111.889V25.2832H107.602Z" fill="#343F52"/>
<path d="M124.929 11.7599H129.464L124.237 25.2832H120.31L115.056 11.7599H119.564L122.246 20.1117H122.302L124.929 11.7599Z" fill="#343F52"/>
<path d="M144.588 18.3971C144.588 18.8765 144.551 19.3005 144.478 19.6693H135.296C135.444 20.4067 135.803 20.9875 136.375 21.4115C136.965 21.8171 137.665 22.0199 138.476 22.0199C139.73 22.0199 140.818 21.4761 141.74 20.3883L144.035 22.9602C143.427 23.7345 142.606 24.3614 141.574 24.8407C140.541 25.3017 139.352 25.5321 138.006 25.5321C135.978 25.5321 134.301 24.8868 132.973 23.5963C131.646 22.2873 130.982 20.5911 130.982 18.5077C130.982 16.4613 131.627 14.7835 132.918 13.4745C134.208 12.1471 135.849 11.4834 137.84 11.4834C139.813 11.4834 141.426 12.1287 142.68 13.4192C143.952 14.7098 144.588 16.3691 144.588 18.3971ZM137.896 14.9403C137.232 14.9403 136.66 15.1338 136.181 15.521C135.72 15.8897 135.425 16.4244 135.296 17.125L140.357 17.0973C140.21 16.4336 139.924 15.9082 139.5 15.521C139.076 15.1338 138.541 14.9403 137.896 14.9403Z" fill="#343F52"/>
<path d="M50.0096 32.5532C50.2664 32.6085 50.4758 32.727 50.6378 32.9088C50.7997 33.0905 50.8807 33.3295 50.8807 33.6258C50.8807 33.9695 50.7622 34.2461 50.5252 34.4555C50.2881 34.6609 49.9385 34.7636 49.4763 34.7636H47.9414V30.5561H49.3163C49.7429 30.5561 50.0748 30.6411 50.3118 30.8109C50.5528 30.9769 50.6733 31.2337 50.6733 31.5813C50.6733 31.7947 50.616 31.9902 50.5015 32.168C50.3909 32.3418 50.2269 32.4663 50.0096 32.5414V32.5532ZM48.457 31.0302V32.3636H49.3103C49.5395 32.3636 49.735 32.3083 49.897 32.1976C50.0629 32.087 50.1459 31.9152 50.1459 31.6821C50.1459 31.2475 49.8338 31.0302 49.2096 31.0302H48.457ZM49.334 34.2895C49.6422 34.2895 49.8871 34.2303 50.0689 34.1118C50.2506 33.9893 50.3415 33.8115 50.3415 33.5784C50.3415 33.3414 50.2565 33.1577 50.0866 33.0273C49.9168 32.893 49.6738 32.8258 49.3577 32.8258H48.457V34.2895H49.334Z" fill="#60697B"/>
<path d="M53.3033 31.8776H53.7833V34.7636H53.3033V34.2836H53.2973C53.0563 34.6273 52.7403 34.7992 52.3492 34.7992C52.0054 34.7992 51.7388 34.7004 51.5491 34.5029C51.3595 34.3014 51.2647 33.9992 51.2647 33.5962V31.8776H51.7447V33.4599C51.7447 33.7799 51.802 34.011 51.9166 34.1532C52.0351 34.2915 52.2129 34.3607 52.4499 34.3607C52.6869 34.3607 52.8884 34.2639 53.0544 34.0703C53.2203 33.8727 53.3033 33.608 53.3033 33.2762V31.8776Z" fill="#60697B"/>
<path d="M56.4823 32.2213L54.7934 34.337V34.3488H56.4764V34.7636H54.1474V34.4081L55.8186 32.3043V32.2925H54.2363V31.8776H56.4823V32.2213Z" fill="#60697B"/>
<path d="M58.9986 32.2213L57.3096 34.337V34.3488H58.9927V34.7636H56.6637V34.4081L58.3349 32.3043V32.2925H56.7526V31.8776H58.9986V32.2213Z" fill="#60697B"/>
<path d="M59.6896 31.3443C59.5908 31.3443 59.5079 31.3127 59.4407 31.2495C59.3775 31.1823 59.3459 31.1013 59.3459 31.0065C59.3459 30.9117 59.3775 30.8327 59.4407 30.7695C59.5079 30.7023 59.5908 30.6687 59.6896 30.6687C59.7844 30.6687 59.8654 30.7023 59.9326 30.7695C59.9997 30.8366 60.0333 30.9156 60.0333 31.0065C60.0333 31.1013 59.9997 31.1823 59.9326 31.2495C59.8654 31.3127 59.7844 31.3443 59.6896 31.3443ZM59.4466 34.7636V31.8776H59.9267V34.7636H59.4466Z" fill="#60697B"/>
<path d="M62.1252 31.8421C62.4452 31.8421 62.6981 31.9448 62.8838 32.1502C63.0695 32.3517 63.1623 32.652 63.1623 33.051V34.7636H62.6823V33.1873C62.6823 32.5868 62.4472 32.2865 61.9771 32.2865C61.7005 32.2865 61.4793 32.3794 61.3134 32.5651C61.1514 32.7468 61.0704 32.9996 61.0704 33.3236V34.7636H60.5904V31.8776H61.0704V32.3813H61.0763C61.3292 32.0218 61.6788 31.8421 62.1252 31.8421Z" fill="#60697B"/>
<path d="M65.9243 31.8776H66.3984V34.5444C66.3984 34.9868 66.2818 35.3345 66.0488 35.5874C65.8196 35.8442 65.4641 35.9725 64.9821 35.9725C64.5475 35.9725 64.1564 35.8679 63.8087 35.6585L63.9213 35.214C64.2808 35.4155 64.6265 35.5162 64.9584 35.5162C65.2705 35.5162 65.5095 35.4353 65.6754 35.2733C65.8453 35.1152 65.9302 34.9138 65.9302 34.6688V34.2658H65.9184C65.6774 34.5621 65.3515 34.7103 64.9406 34.7103C64.5455 34.7103 64.2136 34.5779 63.945 34.3132C63.6764 34.0485 63.542 33.7048 63.542 33.2821C63.542 32.8712 63.6724 32.5295 63.9331 32.2569C64.1978 31.9803 64.5258 31.8421 64.9169 31.8421C65.3238 31.8421 65.6557 31.9883 65.9125 32.2806H65.9243V31.8776ZM64.9761 34.2599C65.2645 34.2599 65.4976 34.1671 65.6754 33.9814C65.8532 33.7918 65.9421 33.5508 65.9421 33.2584C65.9421 32.974 65.8492 32.7428 65.6636 32.5651C65.4818 32.3833 65.2527 32.2925 64.9761 32.2925C64.7035 32.2925 64.4783 32.3853 64.3006 32.571C64.1228 32.7527 64.0339 32.9838 64.0339 33.2643C64.0339 33.5646 64.1248 33.8056 64.3065 33.9873C64.4882 34.169 64.7114 34.2599 64.9761 34.2599Z" fill="#60697B"/>
<path d="M71.7557 31.8776H72.2416L71.2401 34.7636H70.7898L70.1379 32.6599H70.132L69.4742 34.7636H69.0356L68.0341 31.8776H68.5201L69.2549 34.0347H69.2668L69.9245 31.8776H70.3394L71.009 34.0347H71.0209L71.7557 31.8776Z" fill="#60697B"/>
<path d="M72.8555 31.3443C72.7567 31.3443 72.6737 31.3127 72.6066 31.2495C72.5433 31.1823 72.5117 31.1013 72.5117 31.0065C72.5117 30.9117 72.5433 30.8327 72.6066 30.7695C72.6737 30.7023 72.7567 30.6687 72.8555 30.6687C72.9503 30.6687 73.0313 30.7023 73.0984 30.7695C73.1656 30.8366 73.1992 30.9156 73.1992 31.0065C73.1992 31.1013 73.1656 31.1823 73.0984 31.2495C73.0313 31.3127 72.9503 31.3443 72.8555 31.3443ZM72.6125 34.7636V31.8776H73.0925V34.7636H72.6125Z" fill="#60697B"/>
<path d="M74.5451 34.7992C74.0433 34.7992 73.7925 34.5009 73.7925 33.9043V32.2925H73.4251V31.8776H73.7925V30.8939L74.2725 30.8406V31.8776H75.2325V32.2925H74.2725V33.8332C74.2725 34.011 74.2982 34.1414 74.3495 34.2244C74.4048 34.3073 74.4977 34.3488 74.628 34.3488C74.7782 34.3488 74.9402 34.2994 75.114 34.2007L75.2444 34.6214C75.031 34.7399 74.7979 34.7992 74.5451 34.7992Z" fill="#60697B"/>
<path d="M77.1422 31.8421C77.4701 31.8421 77.7269 31.9408 77.9126 32.1384C78.0983 32.3359 78.1911 32.6342 78.1911 33.0332V34.7636H77.7111V33.1695C77.7111 32.5809 77.4761 32.2865 77.0059 32.2865C76.7175 32.2865 76.4884 32.3774 76.3185 32.5591C76.1526 32.7409 76.0696 32.9917 76.0696 33.3117V34.7636H75.5896V30.402H76.0696V32.3517H76.0815C76.3225 32.012 76.676 31.8421 77.1422 31.8421Z" fill="#60697B"/>
<path d="M80.1667 34.7636V30.5561H82.7446V31.0302H80.6882V32.4347H82.3772V32.9088H80.6882V34.2895H82.869V34.7636H80.1667Z" fill="#60697B"/>
<path d="M84.87 31.8421C85.19 31.8421 85.4429 31.9448 85.6285 32.1502C85.8142 32.3517 85.9071 32.652 85.9071 33.051V34.7636H85.4271V33.1873C85.4271 32.5868 85.192 32.2865 84.7219 32.2865C84.4453 32.2865 84.2241 32.3794 84.0581 32.5651C83.8962 32.7468 83.8152 32.9996 83.8152 33.3236V34.7636H83.3352V31.8776H83.8152V32.3813H83.8211C84.0739 32.0218 84.4236 31.8421 84.87 31.8421Z" fill="#60697B"/>
<path d="M88.6987 30.402H89.1787V34.7636H88.7224V34.3073H88.7106C88.4656 34.6352 88.1338 34.7992 87.715 34.7992C87.3081 34.7992 86.9703 34.6649 86.7016 34.3962C86.433 34.1276 86.2987 33.7759 86.2987 33.3414C86.2987 32.9147 86.431 32.5591 86.6957 32.2747C86.9644 31.9863 87.3021 31.8421 87.7091 31.8421C88.1199 31.8421 88.4478 31.9981 88.6928 32.3102H88.6987V30.402ZM87.7565 34.3607C88.0172 34.3607 88.2424 34.2658 88.432 34.0762C88.6217 33.8826 88.7165 33.6377 88.7165 33.3414C88.7165 33.0451 88.6256 32.7962 88.4439 32.5947C88.2622 32.3892 88.035 32.2865 87.7624 32.2865C87.4859 32.2865 87.2528 32.3853 87.0631 32.5828C86.8774 32.7764 86.7846 33.0293 86.7846 33.3414C86.7846 33.6377 86.8735 33.8826 87.0513 34.0762C87.233 34.2658 87.4681 34.3607 87.7565 34.3607Z" fill="#60697B"/>
<path d="M89.8444 34.7636V30.402H90.3244V34.7636H89.8444Z" fill="#60697B"/>
<path d="M93.5304 33.2762C93.5304 33.3078 93.5284 33.3493 93.5245 33.4006L93.5186 33.4717H91.2963C91.3279 33.7404 91.4306 33.9557 91.6044 34.1177C91.7822 34.2797 92.0015 34.3607 92.2622 34.3607C92.598 34.3607 92.8687 34.2303 93.0741 33.9695L93.4119 34.2599C93.1314 34.6194 92.7422 34.7992 92.2445 34.7992C91.8296 34.7992 91.4859 34.6629 91.2133 34.3903C90.9447 34.1137 90.8103 33.7582 90.8103 33.3236C90.8103 32.893 90.9407 32.5394 91.2015 32.2628C91.4662 31.9823 91.796 31.8421 92.1911 31.8421C92.5901 31.8421 92.9121 31.9764 93.1571 32.245C93.406 32.5137 93.5304 32.8574 93.5304 33.2762ZM92.7778 32.4999C92.6316 32.3576 92.444 32.2865 92.2148 32.2865C91.9857 32.2865 91.7881 32.3576 91.6222 32.4999C91.4602 32.6381 91.3575 32.8298 91.3141 33.0747H93.0563C93.0168 32.8337 92.924 32.6421 92.7778 32.4999Z" fill="#60697B"/>
<path d="M94.8446 34.7992C94.3981 34.7992 94.0208 34.6609 93.7127 34.3844L93.9616 34.0229C94.2105 34.252 94.5048 34.3666 94.8446 34.3666C95.0105 34.3666 95.1428 34.3291 95.2416 34.254C95.3404 34.1789 95.3898 34.0881 95.3898 33.9814C95.3898 33.8708 95.3404 33.7878 95.2416 33.7325C95.1468 33.6732 94.9789 33.6021 94.7379 33.5192C94.7221 33.5152 94.7102 33.5113 94.7023 33.5073C94.4218 33.4085 94.2065 33.2959 94.0564 33.1695C93.9102 33.0431 93.8371 32.8594 93.8371 32.6184C93.8371 32.3972 93.926 32.2134 94.1038 32.0673C94.2855 31.9171 94.5147 31.8421 94.7912 31.8421C95.1586 31.8421 95.4885 31.9606 95.7809 32.1976L95.532 32.5769C95.3028 32.3794 95.048 32.2806 94.7675 32.2806C94.653 32.2806 94.5502 32.3122 94.4594 32.3754C94.3685 32.4386 94.3231 32.5196 94.3231 32.6184C94.3231 32.7211 94.3665 32.8041 94.4534 32.8673C94.5443 32.9305 94.6826 32.9977 94.8683 33.0688C94.8999 33.0806 94.9572 33.1024 95.0401 33.134C95.127 33.1656 95.1843 33.1873 95.212 33.1991C95.2396 33.211 95.287 33.2327 95.3542 33.2643C95.4214 33.292 95.4668 33.3137 95.4905 33.3295C95.5142 33.3414 95.5498 33.3631 95.5972 33.3947C95.6485 33.4263 95.6821 33.454 95.6979 33.4777C95.7177 33.5014 95.7414 33.533 95.769 33.5725C95.8006 33.612 95.8224 33.6515 95.8342 33.691C95.8461 33.7266 95.8559 33.77 95.8638 33.8214C95.8718 33.8688 95.8757 33.9202 95.8757 33.9755C95.8757 34.2125 95.7868 34.41 95.609 34.5681C95.4312 34.7221 95.1764 34.7992 94.8446 34.7992Z" fill="#60697B"/>
<path d="M97.1641 34.7992C96.7176 34.7992 96.3403 34.6609 96.0322 34.3844L96.2811 34.0229C96.53 34.252 96.8243 34.3666 97.1641 34.3666C97.33 34.3666 97.4623 34.3291 97.5611 34.254C97.6599 34.1789 97.7093 34.0881 97.7093 33.9814C97.7093 33.8708 97.6599 33.7878 97.5611 33.7325C97.4663 33.6732 97.2984 33.6021 97.0574 33.5192C97.0416 33.5152 97.0297 33.5113 97.0218 33.5073C96.7413 33.4085 96.526 33.2959 96.3759 33.1695C96.2297 33.0431 96.1566 32.8594 96.1566 32.6184C96.1566 32.3972 96.2455 32.2134 96.4233 32.0673C96.605 31.9171 96.8342 31.8421 97.1107 31.8421C97.4781 31.8421 97.808 31.9606 98.1004 32.1976L97.8515 32.5769C97.6223 32.3794 97.3675 32.2806 97.087 32.2806C96.9725 32.2806 96.8697 32.3122 96.7789 32.3754C96.688 32.4386 96.6426 32.5196 96.6426 32.6184C96.6426 32.7211 96.686 32.8041 96.7729 32.8673C96.8638 32.9305 97.0021 32.9977 97.1878 33.0688C97.2194 33.0806 97.2767 33.1024 97.3596 33.134C97.4465 33.1656 97.5038 33.1873 97.5315 33.1991C97.5591 33.211 97.6065 33.2327 97.6737 33.2643C97.7409 33.292 97.7863 33.3137 97.81 33.3295C97.8337 33.3414 97.8693 33.3631 97.9167 33.3947C97.968 33.4263 98.0016 33.454 98.0174 33.4777C98.0372 33.5014 98.0609 33.533 98.0885 33.5725C98.1201 33.612 98.1419 33.6515 98.1537 33.691C98.1656 33.7266 98.1755 33.77 98.1834 33.8214C98.1913 33.8688 98.1952 33.9202 98.1952 33.9755C98.1952 34.2125 98.1063 34.41 97.9285 34.5681C97.7507 34.7221 97.4959 34.7992 97.1641 34.7992Z" fill="#60697B"/>
<path d="M102.082 32.5532C102.338 32.6085 102.548 32.727 102.71 32.9088C102.872 33.0905 102.953 33.3295 102.953 33.6258C102.953 33.9695 102.834 34.2461 102.597 34.4555C102.36 34.6609 102.01 34.7636 101.548 34.7636H100.013V30.5561H101.388C101.815 30.5561 102.147 30.6411 102.384 30.8109C102.625 30.9769 102.745 31.2337 102.745 31.5813C102.745 31.7947 102.688 31.9902 102.573 32.168C102.463 32.3418 102.299 32.4663 102.082 32.5414V32.5532ZM100.529 31.0302V32.3636H101.382C101.611 32.3636 101.807 32.3083 101.969 32.1976C102.135 32.087 102.218 31.9152 102.218 31.6821C102.218 31.2475 101.906 31.0302 101.281 31.0302H100.529ZM101.406 34.2895C101.714 34.2895 101.959 34.2303 102.141 34.1118C102.322 33.9893 102.413 33.8115 102.413 33.5784C102.413 33.3414 102.328 33.1577 102.159 33.0273C101.989 32.893 101.746 32.8258 101.43 32.8258H100.529V34.2895H101.406Z" fill="#60697B"/>
<path d="M105.375 31.8776H105.855V34.7636H105.375V34.2836H105.369C105.128 34.6273 104.812 34.7992 104.421 34.7992C104.077 34.7992 103.811 34.7004 103.621 34.5029C103.431 34.3014 103.337 33.9992 103.337 33.5962V31.8776H103.817V33.4599C103.817 33.7799 103.874 34.011 103.988 34.1532C104.107 34.2915 104.285 34.3607 104.522 34.3607C104.759 34.3607 104.96 34.2639 105.126 34.0703C105.292 33.8727 105.375 33.608 105.375 33.2762V31.8776Z" fill="#60697B"/>
<path d="M107.328 34.7992C106.881 34.7992 106.504 34.6609 106.196 34.3844L106.445 34.0229C106.693 34.252 106.988 34.3666 107.328 34.3666C107.493 34.3666 107.626 34.3291 107.725 34.254C107.823 34.1789 107.873 34.0881 107.873 33.9814C107.873 33.8708 107.823 33.7878 107.725 33.7325C107.63 33.6732 107.462 33.6021 107.221 33.5192C107.205 33.5152 107.193 33.5113 107.185 33.5073C106.905 33.4085 106.689 33.2959 106.539 33.1695C106.393 33.0431 106.32 32.8594 106.32 32.6184C106.32 32.3972 106.409 32.2134 106.587 32.0673C106.768 31.9171 106.998 31.8421 107.274 31.8421C107.642 31.8421 107.971 31.9606 108.264 32.1976L108.015 32.5769C107.786 32.3794 107.531 32.2806 107.25 32.2806C107.136 32.2806 107.033 32.3122 106.942 32.3754C106.851 32.4386 106.806 32.5196 106.806 32.6184C106.806 32.7211 106.849 32.8041 106.936 32.8673C107.027 32.9305 107.166 32.9977 107.351 33.0688C107.383 33.0806 107.44 33.1024 107.523 33.134C107.61 33.1656 107.667 33.1873 107.695 33.1991C107.723 33.211 107.77 33.2327 107.837 33.2643C107.904 33.292 107.95 33.3137 107.973 33.3295C107.997 33.3414 108.033 33.3631 108.08 33.3947C108.131 33.4263 108.165 33.454 108.181 33.4777C108.201 33.5014 108.224 33.533 108.252 33.5725C108.284 33.612 108.305 33.6515 108.317 33.691C108.329 33.7266 108.339 33.77 108.347 33.8214C108.355 33.8688 108.359 33.9202 108.359 33.9755C108.359 34.2125 108.27 34.41 108.092 34.5681C107.914 34.7221 107.659 34.7992 107.328 34.7992Z" fill="#60697B"/>
<path d="M109.048 31.3443C108.95 31.3443 108.867 31.3127 108.8 31.2495C108.736 31.1823 108.705 31.1013 108.705 31.0065C108.705 30.9117 108.736 30.8327 108.8 30.7695C108.867 30.7023 108.95 30.6687 109.048 30.6687C109.143 30.6687 109.224 30.7023 109.291 30.7695C109.359 30.8366 109.392 30.9156 109.392 31.0065C109.392 31.1013 109.359 31.1823 109.291 31.2495C109.224 31.3127 109.143 31.3443 109.048 31.3443ZM108.806 34.7636V31.8776H109.286V34.7636H108.806Z" fill="#60697B"/>
<path d="M111.484 31.8421C111.804 31.8421 112.057 31.9448 112.243 32.1502C112.428 32.3517 112.521 32.652 112.521 33.051V34.7636H112.041V33.1873C112.041 32.5868 111.806 32.2865 111.336 32.2865C111.059 32.2865 110.838 32.3794 110.672 32.5651C110.51 32.7468 110.429 32.9996 110.429 33.3236V34.7636H109.949V31.8776H110.429V32.3813H110.435C110.688 32.0218 111.038 31.8421 111.484 31.8421Z" fill="#60697B"/>
<path d="M115.633 33.2762C115.633 33.3078 115.631 33.3493 115.627 33.4006L115.621 33.4717H113.399C113.43 33.7404 113.533 33.9557 113.707 34.1177C113.885 34.2797 114.104 34.3607 114.365 34.3607C114.7 34.3607 114.971 34.2303 115.177 33.9695L115.514 34.2599C115.234 34.6194 114.845 34.7992 114.347 34.7992C113.932 34.7992 113.588 34.6629 113.316 34.3903C113.047 34.1137 112.913 33.7582 112.913 33.3236C112.913 32.893 113.043 32.5394 113.304 32.2628C113.569 31.9823 113.898 31.8421 114.294 31.8421C114.693 31.8421 115.015 31.9764 115.259 32.245C115.508 32.5137 115.633 32.8574 115.633 33.2762ZM114.88 32.4999C114.734 32.3576 114.546 32.2865 114.317 32.2865C114.088 32.2865 113.891 32.3576 113.725 32.4999C113.563 32.6381 113.46 32.8298 113.416 33.0747H115.159C115.119 32.8337 115.026 32.6421 114.88 32.4999Z" fill="#60697B"/>
<path d="M116.947 34.7992C116.501 34.7992 116.123 34.6609 115.815 34.3844L116.064 34.0229C116.313 34.252 116.607 34.3666 116.947 34.3666C117.113 34.3666 117.245 34.3291 117.344 34.254C117.443 34.1789 117.492 34.0881 117.492 33.9814C117.492 33.8708 117.443 33.7878 117.344 33.7325C117.249 33.6732 117.081 33.6021 116.84 33.5192C116.824 33.5152 116.813 33.5113 116.805 33.5073C116.524 33.4085 116.309 33.2959 116.159 33.1695C116.013 33.0431 115.94 32.8594 115.94 32.6184C115.94 32.3972 116.028 32.2134 116.206 32.0673C116.388 31.9171 116.617 31.8421 116.894 31.8421C117.261 31.8421 117.591 31.9606 117.883 32.1976L117.634 32.5769C117.405 32.3794 117.15 32.2806 116.87 32.2806C116.755 32.2806 116.653 32.3122 116.562 32.3754C116.471 32.4386 116.425 32.5196 116.425 32.6184C116.425 32.7211 116.469 32.8041 116.556 32.8673C116.647 32.9305 116.785 32.9977 116.971 33.0688C117.002 33.0806 117.06 33.1024 117.143 33.134C117.229 33.1656 117.287 33.1873 117.314 33.1991C117.342 33.211 117.389 33.2327 117.457 33.2643C117.524 33.292 117.569 33.3137 117.593 33.3295C117.617 33.3414 117.652 33.3631 117.7 33.3947C117.751 33.4263 117.785 33.454 117.8 33.4777C117.82 33.5014 117.844 33.533 117.871 33.5725C117.903 33.612 117.925 33.6515 117.937 33.691C117.948 33.7266 117.958 33.77 117.966 33.8214C117.974 33.8688 117.978 33.9202 117.978 33.9755C117.978 34.2125 117.889 34.41 117.711 34.5681C117.534 34.7221 117.279 34.7992 116.947 34.7992Z" fill="#60697B"/>
<path d="M119.266 34.7992C118.82 34.7992 118.443 34.6609 118.135 34.3844L118.383 34.0229C118.632 34.252 118.927 34.3666 119.266 34.3666C119.432 34.3666 119.565 34.3291 119.664 34.254C119.762 34.1789 119.812 34.0881 119.812 33.9814C119.812 33.8708 119.762 33.7878 119.664 33.7325C119.569 33.6732 119.401 33.6021 119.16 33.5192C119.144 33.5152 119.132 33.5113 119.124 33.5073C118.844 33.4085 118.628 33.2959 118.478 33.1695C118.332 33.0431 118.259 32.8594 118.259 32.6184C118.259 32.3972 118.348 32.2134 118.526 32.0673C118.707 31.9171 118.937 31.8421 119.213 31.8421C119.581 31.8421 119.91 31.9606 120.203 32.1976L119.954 32.5769C119.725 32.3794 119.47 32.2806 119.189 32.2806C119.075 32.2806 118.972 32.3122 118.881 32.3754C118.79 32.4386 118.745 32.5196 118.745 32.6184C118.745 32.7211 118.788 32.8041 118.875 32.8673C118.966 32.9305 119.104 32.9977 119.29 33.0688C119.322 33.0806 119.379 33.1024 119.462 33.134C119.549 33.1656 119.606 33.1873 119.634 33.1991C119.662 33.211 119.709 33.2327 119.776 33.2643C119.843 33.292 119.889 33.3137 119.912 33.3295C119.936 33.3414 119.972 33.3631 120.019 33.3947C120.07 33.4263 120.104 33.454 120.12 33.4777C120.14 33.5014 120.163 33.533 120.191 33.5725C120.223 33.612 120.244 33.6515 120.256 33.691C120.268 33.7266 120.278 33.77 120.286 33.8214C120.294 33.8688 120.298 33.9202 120.298 33.9755C120.298 34.2125 120.209 34.41 120.031 34.5681C119.853 34.7221 119.598 34.7992 119.266 34.7992Z" fill="#60697B"/>
<path d="M123.336 34.7992C122.748 34.7992 122.25 34.5819 121.843 34.1473L122.175 33.7562C122.321 33.9379 122.499 34.0762 122.708 34.171C122.918 34.2658 123.129 34.3132 123.342 34.3132C123.603 34.3132 123.811 34.256 123.965 34.1414C124.123 34.0268 124.202 33.8688 124.202 33.6673C124.202 33.5567 124.182 33.4619 124.142 33.3829C124.107 33.3038 124.044 33.2347 123.953 33.1754C123.862 33.1122 123.773 33.0628 123.686 33.0273C123.603 32.9878 123.483 32.9384 123.325 32.8791C123.297 32.8673 123.275 32.8594 123.259 32.8554C123.105 32.8001 122.979 32.7527 122.88 32.7132C122.785 32.6697 122.675 32.6105 122.548 32.5354C122.426 32.4604 122.329 32.3853 122.258 32.3102C122.191 32.2312 122.132 32.1344 122.08 32.0199C122.029 31.9013 122.003 31.771 122.003 31.6287C122.003 31.3166 122.128 31.0539 122.376 30.8406C122.625 30.6272 122.93 30.5186 123.289 30.5146C123.763 30.5146 124.208 30.6786 124.622 31.0065L124.308 31.4095C123.98 31.1329 123.641 30.9946 123.289 30.9946C123.084 30.9946 122.908 31.05 122.762 31.1606C122.615 31.2672 122.542 31.4154 122.542 31.605C122.542 31.684 122.558 31.7571 122.59 31.8243C122.621 31.8875 122.657 31.9408 122.696 31.9843C122.736 32.0238 122.805 32.0692 122.904 32.1206C123.003 32.172 123.08 32.2115 123.135 32.2391C123.194 32.2628 123.295 32.3023 123.437 32.3576C123.872 32.5236 124.158 32.6539 124.297 32.7488C124.593 32.9503 124.741 33.2387 124.741 33.614C124.741 33.9853 124.603 34.2757 124.326 34.4851C124.054 34.6945 123.724 34.7992 123.336 34.7992Z" fill="#60697B"/>
<path d="M126.519 34.7992C126.076 34.7992 125.717 34.6589 125.44 34.3784C125.164 34.0979 125.025 33.7463 125.025 33.3236C125.025 32.9009 125.164 32.5493 125.44 32.2688C125.717 31.9843 126.076 31.8421 126.519 31.8421C126.945 31.8421 127.299 31.9803 127.579 32.2569C127.86 32.5334 128 32.889 128 33.3236C128 33.7582 127.86 34.1137 127.579 34.3903C127.299 34.6629 126.945 34.7992 126.519 34.7992ZM126.519 34.3607C126.799 34.3607 127.034 34.2639 127.224 34.0703C127.417 33.8727 127.514 33.6238 127.514 33.3236C127.514 33.0194 127.419 32.7705 127.23 32.5769C127.04 32.3833 126.803 32.2865 126.519 32.2865C126.222 32.2865 125.979 32.3873 125.79 32.5888C125.604 32.7863 125.511 33.0312 125.511 33.3236C125.511 33.6159 125.604 33.8629 125.79 34.0644C125.979 34.2619 126.222 34.3607 126.519 34.3607Z" fill="#60697B"/>
<path d="M128.484 34.7636V30.402H128.964V34.7636H128.484Z" fill="#60697B"/>
<path d="M131.607 31.8776H132.087V34.7636H131.607V34.2836H131.601C131.36 34.6273 131.044 34.7992 130.653 34.7992C130.309 34.7992 130.043 34.7004 129.853 34.5029C129.664 34.3014 129.569 33.9992 129.569 33.5962V31.8776H130.049V33.4599C130.049 33.7799 130.106 34.011 130.221 34.1532C130.339 34.2915 130.517 34.3607 130.754 34.3607C130.991 34.3607 131.192 34.2639 131.358 34.0703C131.524 33.8727 131.607 33.608 131.607 33.2762V31.8776Z" fill="#60697B"/>
<path d="M133.494 34.7992C132.993 34.7992 132.742 34.5009 132.742 33.9043V32.2925H132.374V31.8776H132.742V30.8939L133.222 30.8406V31.8776H134.182V32.2925H133.222V33.8332C133.222 34.011 133.248 34.1414 133.299 34.2244C133.354 34.3073 133.447 34.3488 133.577 34.3488C133.728 34.3488 133.89 34.2994 134.063 34.2007L134.194 34.6214C133.98 34.7399 133.747 34.7992 133.494 34.7992Z" fill="#60697B"/>
<path d="M134.789 31.3443C134.69 31.3443 134.607 31.3127 134.54 31.2495C134.477 31.1823 134.445 31.1013 134.445 31.0065C134.445 30.9117 134.477 30.8327 134.54 30.7695C134.607 30.7023 134.69 30.6687 134.789 30.6687C134.884 30.6687 134.965 30.7023 135.032 30.7695C135.099 30.8366 135.132 30.9156 135.132 31.0065C135.132 31.1013 135.099 31.1823 135.032 31.2495C134.965 31.3127 134.884 31.3443 134.789 31.3443ZM134.546 34.7636V31.8776H135.026V34.7636H134.546Z" fill="#60697B"/>
<path d="M137.005 34.7992C136.563 34.7992 136.203 34.6589 135.927 34.3784C135.65 34.0979 135.512 33.7463 135.512 33.3236C135.512 32.9009 135.65 32.5493 135.927 32.2688C136.203 31.9843 136.563 31.8421 137.005 31.8421C137.432 31.8421 137.785 31.9803 138.066 32.2569C138.346 32.5334 138.487 32.889 138.487 33.3236C138.487 33.7582 138.346 34.1137 138.066 34.3903C137.785 34.6629 137.432 34.7992 137.005 34.7992ZM137.005 34.3607C137.286 34.3607 137.521 34.2639 137.71 34.0703C137.904 33.8727 138.001 33.6238 138.001 33.3236C138.001 33.0194 137.906 32.7705 137.716 32.5769C137.527 32.3833 137.29 32.2865 137.005 32.2865C136.709 32.2865 136.466 32.3873 136.276 32.5888C136.09 32.7863 135.998 33.0312 135.998 33.3236C135.998 33.6159 136.09 33.8629 136.276 34.0644C136.466 34.2619 136.709 34.3607 137.005 34.3607Z" fill="#60697B"/>
<path d="M140.464 31.8421C140.784 31.8421 141.037 31.9448 141.223 32.1502C141.408 32.3517 141.501 32.652 141.501 33.051V34.7636H141.021V33.1873C141.021 32.5868 140.786 32.2865 140.316 32.2865C140.039 32.2865 139.818 32.3794 139.652 32.5651C139.49 32.7468 139.409 32.9996 139.409 33.3236V34.7636H138.929V31.8776H139.409V32.3813H139.415C139.668 32.0218 140.018 31.8421 140.464 31.8421Z" fill="#60697B"/>
<path d="M142.953 34.7992C142.507 34.7992 142.13 34.6609 141.822 34.3844L142.07 34.0229C142.319 34.252 142.614 34.3666 142.953 34.3666C143.119 34.3666 143.252 34.3291 143.35 34.254C143.449 34.1789 143.499 34.0881 143.499 33.9814C143.499 33.8708 143.449 33.7878 143.35 33.7325C143.256 33.6732 143.088 33.6021 142.847 33.5192C142.831 33.5152 142.819 33.5113 142.811 33.5073C142.531 33.4085 142.315 33.2959 142.165 33.1695C142.019 33.0431 141.946 32.8594 141.946 32.6184C141.946 32.3972 142.035 32.2134 142.213 32.0673C142.394 31.9171 142.624 31.8421 142.9 31.8421C143.267 31.8421 143.597 31.9606 143.89 32.1976L143.641 32.5769C143.412 32.3794 143.157 32.2806 142.876 32.2806C142.762 32.2806 142.659 32.3122 142.568 32.3754C142.477 32.4386 142.432 32.5196 142.432 32.6184C142.432 32.7211 142.475 32.8041 142.562 32.8673C142.653 32.9305 142.791 32.9977 142.977 33.0688C143.009 33.0806 143.066 33.1024 143.149 33.134C143.236 33.1656 143.293 33.1873 143.321 33.1991C143.348 33.211 143.396 33.2327 143.463 33.2643C143.53 33.292 143.576 33.3137 143.599 33.3295C143.623 33.3414 143.659 33.3631 143.706 33.3947C143.757 33.4263 143.791 33.454 143.807 33.4777C143.827 33.5014 143.85 33.533 143.878 33.5725C143.909 33.612 143.931 33.6515 143.943 33.691C143.955 33.7266 143.965 33.77 143.973 33.8214C143.981 33.8688 143.985 33.9202 143.985 33.9755C143.985 34.2125 143.896 34.41 143.718 34.5681C143.54 34.7221 143.285 34.7992 142.953 34.7992Z" fill="#60697B"/>
<path d="M144.485 33.5251L144.396 30.402H144.947L144.858 33.5251H144.485ZM144.663 34.7992C144.564 34.7992 144.481 34.7676 144.414 34.7044C144.35 34.6372 144.319 34.5582 144.319 34.4673C144.319 34.3725 144.35 34.2935 144.414 34.2303C144.481 34.1631 144.564 34.1295 144.663 34.1295C144.753 34.1295 144.832 34.1631 144.9 34.2303C144.967 34.2935 145 34.3725 145 34.4673C145 34.5582 144.967 34.6372 144.9 34.7044C144.832 34.7676 144.753 34.7992 144.663 34.7992Z" fill="#60697B"/>
<defs>
<linearGradient id="paint0_linear_1_212851" x1="20.6597" y1="38.2422" x2="20.6597" y2="-3.64126" gradientUnits="userSpaceOnUse">
<stop stop-color="#FFA204"/>
<stop offset="0.957663" stop-color="#FBCF0D"/>
</linearGradient>
</defs>
</svg>
