<svg width="145" height="37" viewBox="0 0 145 37" fill="none" xmlns="http://www.w3.org/2000/svg">
<mask id="mask0_1_222539" style="mask-type:alpha" maskUnits="userSpaceOnUse" x="0" y="0" width="42" height="37">
<path d="M9.34863 2.1152C9.34863 0.947006 10.2956 0 11.4638 0H29.8423C31.0105 0 31.9575 0.947006 31.9575 2.1152C31.9575 3.28339 31.0105 4.23039 29.8423 4.23039H11.4638C10.2956 4.23039 9.34863 3.28339 9.34863 2.1152Z" fill="#FAAE1A"/>
<path d="M16.9561 10.2407C16.9561 9.07249 17.903 8.12549 19.0712 8.12549H34.2975C35.4657 8.12549 36.4127 9.07249 36.4127 10.2407C36.4127 11.4089 35.4657 12.3559 34.2975 12.3559H19.0712C17.903 12.3559 16.9561 11.4089 16.9561 10.2407Z" fill="#FAAE1A"/>
<path d="M29.4551 18.3701C29.4551 17.2019 30.4021 16.2549 31.5702 16.2549H38.9704C40.1386 16.2549 41.0856 17.2019 41.0856 18.3701C41.0856 19.5383 40.1386 20.4853 38.9704 20.4853H31.5702C30.4021 20.4853 29.4551 19.5383 29.4551 18.3701Z" fill="#FAAE1A"/>
<path d="M4.78125 10.2407C4.78125 9.07249 5.72824 8.12549 6.89641 8.12549H12.3401C13.5082 8.12549 14.4552 9.07249 14.4552 10.2407C14.4552 11.4089 13.5082 12.3559 12.3401 12.3559H6.89641C5.72824 12.3559 4.78125 11.4089 4.78125 10.2407Z" fill="#FAAE1A"/>
<path d="M9.34863 34.625C9.34863 33.4568 10.2956 32.5098 11.4638 32.5098H13.9726C15.1408 32.5098 16.0878 33.4568 16.0878 34.625C16.0878 35.7932 15.1408 36.7402 13.9726 36.7402H11.4638C10.2956 36.7402 9.34863 35.7932 9.34863 34.625Z" fill="#FAAE1A"/>
<path d="M18.2578 34.625C18.2578 33.4568 19.2048 32.5098 20.373 32.5098H29.8384C31.0066 32.5098 31.9535 33.4568 31.9535 34.625C31.9535 35.7932 31.0066 36.7402 29.8384 36.7402H20.373C19.2048 36.7402 18.2578 35.7932 18.2578 34.625Z" fill="#FAAE1A"/>
<path d="M0 18.3701C0 17.2019 0.946989 16.2549 2.11516 16.2549H24.6241C25.7923 16.2549 26.7393 17.2019 26.7393 18.3701C26.7393 19.5383 25.7923 20.4853 24.6241 20.4853H2.11516C0.94699 20.4853 0 19.5383 0 18.3701Z" fill="#FAAE1A"/>
<path d="M4.78125 26.4956C4.78125 25.3274 5.72824 24.3804 6.89641 24.3804H34.2967C35.4649 24.3804 36.4119 25.3274 36.4119 26.4956C36.4119 27.6638 35.4649 28.6108 34.2967 28.6108H6.89641C5.72824 28.6108 4.78125 27.6638 4.78125 26.4956Z" fill="#FAAE1A"/>
</mask>
<g mask="url(#mask0_1_222539)">
<rect y="-1.5752" width="41.1315" height="39.8175" fill="url(#paint0_linear_1_222539)"/>
</g>
<path d="M67.1976 22.905L64.8193 25.9747L62.4686 23.8452C60.8093 24.9883 58.8366 25.5598 56.5504 25.5598C53.5637 25.5598 51.1301 24.6196 49.2495 22.739C47.369 20.84 46.4287 18.4156 46.4287 15.4658C46.4287 12.4975 47.369 10.073 49.2495 8.19249C51.1301 6.31195 53.5637 5.37168 56.5504 5.37168C59.5003 5.37168 61.9155 6.30273 63.7961 8.16484C65.6766 10.0269 66.6169 12.4606 66.6169 15.4658C66.6169 17.586 66.1191 19.4573 65.1235 21.0797L67.1976 22.905ZM56.5504 21.2457C57.4354 21.2457 58.2466 21.0521 58.9841 20.6649L57.4631 19.2545L59.8137 16.3784L61.4177 17.7888C61.6758 17.0513 61.8049 16.277 61.8049 15.4658C61.8049 13.8433 61.3163 12.479 60.3392 11.3728C59.3805 10.2482 58.1176 9.68586 56.5504 9.68586C55.0386 9.68586 53.7757 10.239 52.7617 11.3452C51.7661 12.4329 51.2683 13.8065 51.2683 15.4658C51.2683 17.1251 51.7661 18.5078 52.7617 19.614C53.7757 20.7018 55.0386 21.2457 56.5504 21.2457Z" fill="white"/>
<path d="M86.6793 25.2833H81.2589L77.2213 18.9503H75.6173V25.2833H71.0542V5.64823H78.7146C81.0377 5.64823 82.7891 6.26586 83.9691 7.50112C85.149 8.73637 85.739 10.3772 85.739 12.4237C85.739 15.3367 84.5222 17.3002 82.0886 18.3142V18.3695L86.6793 25.2833ZM75.6173 9.71352V14.9127H77.7467C78.7239 14.9127 79.4982 14.6822 80.0697 14.2213C80.6413 13.7604 80.927 13.1243 80.927 12.3131C80.927 11.5572 80.6597 10.9396 80.125 10.4602C79.5904 9.96241 78.8253 9.71352 77.8297 9.71352H75.6173Z" fill="white"/>
<path d="M98.4757 11.4834C101.739 11.4834 103.371 13.364 103.371 17.1251V25.2833H99.0288V18.176C99.0288 17.1251 98.8536 16.3968 98.5033 15.9912C98.153 15.5672 97.5815 15.3551 96.7887 15.3551C95.9959 15.3551 95.3783 15.6133 94.9358 16.1295C94.4933 16.6457 94.2721 17.42 94.2721 18.4525V25.2833H89.9303V4.9292H94.2721V13.3363C95.3414 12.1011 96.7426 11.4834 98.4757 11.4834Z" fill="white"/>
<path d="M111.667 9.43697C111.151 9.89788 110.515 10.1283 109.759 10.1283C109.003 10.1283 108.358 9.89788 107.823 9.43697C107.307 8.95761 107.049 8.3492 107.049 7.61174C107.049 6.87427 107.307 6.27508 107.823 5.81416C108.358 5.33481 109.003 5.09513 109.759 5.09513C110.515 5.09513 111.151 5.33481 111.667 5.81416C112.202 6.27508 112.469 6.87427 112.469 7.61174C112.469 8.3492 112.202 8.95761 111.667 9.43697ZM107.602 25.2833V11.76H111.889V25.2833H107.602Z" fill="white"/>
<path d="M124.929 11.76H129.464L124.237 25.2833H120.31L115.056 11.76H119.564L122.246 20.1118H122.302L124.929 11.76Z" fill="white"/>
<path d="M144.588 18.3972C144.588 18.8765 144.551 19.3006 144.478 19.6693H135.296C135.444 20.4068 135.803 20.9875 136.375 21.4116C136.965 21.8172 137.665 22.02 138.476 22.02C139.73 22.02 140.818 21.4761 141.74 20.3884L144.035 22.9603C143.427 23.7346 142.606 24.3615 141.574 24.8408C140.541 25.3017 139.352 25.5322 138.006 25.5322C135.978 25.5322 134.301 24.8869 132.973 23.5963C131.646 22.2873 130.982 20.5912 130.982 18.5078C130.982 16.4613 131.627 14.7836 132.918 13.4746C134.208 12.1472 135.849 11.4834 137.84 11.4834C139.813 11.4834 141.426 12.1287 142.68 13.4193C143.952 14.7099 144.588 16.3692 144.588 18.3972ZM137.896 14.9403C137.232 14.9403 136.66 15.1339 136.181 15.5211C135.72 15.8898 135.425 16.4245 135.296 17.1251L140.357 17.0974C140.21 16.4337 139.924 15.9082 139.5 15.5211C139.076 15.1339 138.541 14.9403 137.896 14.9403Z" fill="white"/>
<path d="M50.0096 32.5535C50.2664 32.6088 50.4758 32.7273 50.6378 32.9091C50.7997 33.0908 50.8807 33.3298 50.8807 33.6261C50.8807 33.9698 50.7622 34.2464 50.5252 34.4558C50.2881 34.6612 49.9385 34.7639 49.4763 34.7639H47.9414V30.5564H49.3163C49.7429 30.5564 50.0748 30.6414 50.3118 30.8112C50.5528 30.9772 50.6733 31.234 50.6733 31.5816C50.6733 31.795 50.616 31.9905 50.5015 32.1683C50.3909 32.3421 50.2269 32.4666 50.0096 32.5417V32.5535ZM48.457 31.0305V32.3639H49.3103C49.5395 32.3639 49.735 32.3086 49.897 32.1979C50.0629 32.0873 50.1459 31.9155 50.1459 31.6824C50.1459 31.2478 49.8338 31.0305 49.2096 31.0305H48.457ZM49.334 34.2898C49.6422 34.2898 49.8871 34.2306 50.0689 34.1121C50.2506 33.9896 50.3415 33.8118 50.3415 33.5787C50.3415 33.3417 50.2565 33.158 50.0866 33.0276C49.9168 32.8933 49.6738 32.8261 49.3577 32.8261H48.457V34.2898H49.334Z" fill="#D3D3D3"/>
<path d="M53.3033 31.8779H53.7833V34.7639H53.3033V34.2839H53.2973C53.0563 34.6276 52.7403 34.7995 52.3492 34.7995C52.0054 34.7995 51.7388 34.7007 51.5491 34.5032C51.3595 34.3017 51.2647 33.9995 51.2647 33.5965V31.8779H51.7447V33.4602C51.7447 33.7802 51.802 34.0113 51.9166 34.1535C52.0351 34.2918 52.2129 34.361 52.4499 34.361C52.6869 34.361 52.8884 34.2642 53.0544 34.0706C53.2203 33.873 53.3033 33.6083 53.3033 33.2765V31.8779Z" fill="#D3D3D3"/>
<path d="M56.4823 32.2216L54.7934 34.3373V34.3491H56.4764V34.7639H54.1474V34.4084L55.8186 32.3046V32.2928H54.2363V31.8779H56.4823V32.2216Z" fill="#D3D3D3"/>
<path d="M58.9986 32.2216L57.3096 34.3373V34.3491H58.9927V34.7639H56.6637V34.4084L58.3349 32.3046V32.2928H56.7526V31.8779H58.9986V32.2216Z" fill="#D3D3D3"/>
<path d="M59.6896 31.3446C59.5908 31.3446 59.5079 31.313 59.4407 31.2498C59.3775 31.1826 59.3459 31.1016 59.3459 31.0068C59.3459 30.912 59.3775 30.833 59.4407 30.7698C59.5079 30.7026 59.5908 30.669 59.6896 30.669C59.7844 30.669 59.8654 30.7026 59.9326 30.7698C59.9997 30.8369 60.0333 30.9159 60.0333 31.0068C60.0333 31.1016 59.9997 31.1826 59.9326 31.2498C59.8654 31.313 59.7844 31.3446 59.6896 31.3446ZM59.4466 34.7639V31.8779H59.9267V34.7639H59.4466Z" fill="#D3D3D3"/>
<path d="M62.1252 31.8424C62.4452 31.8424 62.6981 31.9451 62.8838 32.1505C63.0695 32.352 63.1623 32.6523 63.1623 33.0513V34.7639H62.6823V33.1876C62.6823 32.5871 62.4472 32.2868 61.9771 32.2868C61.7005 32.2868 61.4793 32.3797 61.3134 32.5654C61.1514 32.7471 61.0704 32.9999 61.0704 33.3239V34.7639H60.5904V31.8779H61.0704V32.3817H61.0763C61.3292 32.0221 61.6788 31.8424 62.1252 31.8424Z" fill="#D3D3D3"/>
<path d="M65.9243 31.8779H66.3984V34.5447C66.3984 34.9871 66.2818 35.3348 66.0488 35.5877C65.8196 35.8445 65.4641 35.9729 64.9821 35.9729C64.5475 35.9729 64.1564 35.8682 63.8087 35.6588L63.9213 35.2143C64.2808 35.4158 64.6265 35.5165 64.9584 35.5165C65.2705 35.5165 65.5095 35.4356 65.6754 35.2736C65.8453 35.1155 65.9302 34.9141 65.9302 34.6691V34.2661H65.9184C65.6774 34.5624 65.3515 34.7106 64.9406 34.7106C64.5455 34.7106 64.2136 34.5783 63.945 34.3136C63.6764 34.0489 63.542 33.7051 63.542 33.2824C63.542 32.8715 63.6724 32.5298 63.9331 32.2572C64.1978 31.9807 64.5258 31.8424 64.9169 31.8424C65.3238 31.8424 65.6557 31.9886 65.9125 32.2809H65.9243V31.8779ZM64.9761 34.2602C65.2645 34.2602 65.4976 34.1674 65.6754 33.9817C65.8532 33.7921 65.9421 33.5511 65.9421 33.2587C65.9421 32.9743 65.8492 32.7431 65.6636 32.5654C65.4818 32.3836 65.2527 32.2928 64.9761 32.2928C64.7035 32.2928 64.4783 32.3856 64.3006 32.5713C64.1228 32.753 64.0339 32.9841 64.0339 33.2646C64.0339 33.5649 64.1248 33.8059 64.3065 33.9876C64.4882 34.1694 64.7114 34.2602 64.9761 34.2602Z" fill="#D3D3D3"/>
<path d="M71.7557 31.8779H72.2416L71.2401 34.7639H70.7898L70.1379 32.6602H70.132L69.4742 34.7639H69.0356L68.0341 31.8779H68.5201L69.2549 34.035H69.2668L69.9245 31.8779H70.3394L71.009 34.035H71.0209L71.7557 31.8779Z" fill="#D3D3D3"/>
<path d="M72.8555 31.3446C72.7567 31.3446 72.6737 31.313 72.6066 31.2498C72.5433 31.1826 72.5117 31.1016 72.5117 31.0068C72.5117 30.912 72.5433 30.833 72.6066 30.7698C72.6737 30.7026 72.7567 30.669 72.8555 30.669C72.9503 30.669 73.0313 30.7026 73.0984 30.7698C73.1656 30.8369 73.1992 30.9159 73.1992 31.0068C73.1992 31.1016 73.1656 31.1826 73.0984 31.2498C73.0313 31.313 72.9503 31.3446 72.8555 31.3446ZM72.6125 34.7639V31.8779H73.0925V34.7639H72.6125Z" fill="#D3D3D3"/>
<path d="M74.5451 34.7995C74.0433 34.7995 73.7925 34.5012 73.7925 33.9047V32.2928H73.4251V31.8779H73.7925V30.8942L74.2725 30.8409V31.8779H75.2325V32.2928H74.2725V33.8335C74.2725 34.0113 74.2982 34.1417 74.3495 34.2247C74.4048 34.3076 74.4977 34.3491 74.628 34.3491C74.7782 34.3491 74.9402 34.2997 75.114 34.201L75.2444 34.6217C75.031 34.7402 74.7979 34.7995 74.5451 34.7995Z" fill="#D3D3D3"/>
<path d="M77.1422 31.8424C77.4701 31.8424 77.7269 31.9411 77.9126 32.1387C78.0983 32.3362 78.1911 32.6345 78.1911 33.0335V34.7639H77.7111V33.1698C77.7111 32.5812 77.4761 32.2868 77.0059 32.2868C76.7175 32.2868 76.4884 32.3777 76.3185 32.5594C76.1526 32.7412 76.0696 32.992 76.0696 33.312V34.7639H75.5896V30.4023H76.0696V32.352H76.0815C76.3225 32.0123 76.676 31.8424 77.1422 31.8424Z" fill="#D3D3D3"/>
<path d="M80.1667 34.7639V30.5564H82.7446V31.0305H80.6882V32.435H82.3772V32.9091H80.6882V34.2898H82.869V34.7639H80.1667Z" fill="#D3D3D3"/>
<path d="M84.87 31.8424C85.19 31.8424 85.4429 31.9451 85.6285 32.1505C85.8142 32.352 85.9071 32.6523 85.9071 33.0513V34.7639H85.4271V33.1876C85.4271 32.5871 85.192 32.2868 84.7219 32.2868C84.4453 32.2868 84.2241 32.3797 84.0581 32.5654C83.8962 32.7471 83.8152 32.9999 83.8152 33.3239V34.7639H83.3352V31.8779H83.8152V32.3817H83.8211C84.0739 32.0221 84.4236 31.8424 84.87 31.8424Z" fill="#D3D3D3"/>
<path d="M88.6987 30.4023H89.1787V34.7639H88.7224V34.3076H88.7106C88.4656 34.6355 88.1338 34.7995 87.715 34.7995C87.3081 34.7995 86.9703 34.6652 86.7016 34.3965C86.433 34.1279 86.2987 33.7763 86.2987 33.3417C86.2987 32.915 86.431 32.5594 86.6957 32.275C86.9644 31.9866 87.3021 31.8424 87.7091 31.8424C88.1199 31.8424 88.4478 31.9984 88.6928 32.3105H88.6987V30.4023ZM87.7565 34.361C88.0172 34.361 88.2424 34.2661 88.432 34.0765C88.6217 33.8829 88.7165 33.638 88.7165 33.3417C88.7165 33.0454 88.6256 32.7965 88.4439 32.595C88.2622 32.3896 88.035 32.2868 87.7624 32.2868C87.4859 32.2868 87.2528 32.3856 87.0631 32.5831C86.8774 32.7767 86.7846 33.0296 86.7846 33.3417C86.7846 33.638 86.8735 33.8829 87.0513 34.0765C87.233 34.2661 87.4681 34.361 87.7565 34.361Z" fill="#D3D3D3"/>
<path d="M89.8444 34.7639V30.4023H90.3244V34.7639H89.8444Z" fill="#D3D3D3"/>
<path d="M93.5304 33.2765C93.5304 33.3081 93.5284 33.3496 93.5245 33.4009L93.5186 33.472H91.2963C91.3279 33.7407 91.4306 33.956 91.6044 34.118C91.7822 34.28 92.0015 34.361 92.2622 34.361C92.598 34.361 92.8687 34.2306 93.0741 33.9698L93.4119 34.2602C93.1314 34.6197 92.7422 34.7995 92.2445 34.7995C91.8296 34.7995 91.4859 34.6632 91.2133 34.3906C90.9447 34.114 90.8103 33.7585 90.8103 33.3239C90.8103 32.8933 90.9407 32.5397 91.2015 32.2631C91.4662 31.9826 91.796 31.8424 92.1911 31.8424C92.5901 31.8424 92.9121 31.9767 93.1571 32.2454C93.406 32.514 93.5304 32.8577 93.5304 33.2765ZM92.7778 32.5002C92.6316 32.3579 92.444 32.2868 92.2148 32.2868C91.9857 32.2868 91.7881 32.3579 91.6222 32.5002C91.4602 32.6384 91.3575 32.8301 91.3141 33.075H93.0563C93.0168 32.834 92.924 32.6424 92.7778 32.5002Z" fill="#D3D3D3"/>
<path d="M94.8446 34.7995C94.3981 34.7995 94.0208 34.6612 93.7127 34.3847L93.9616 34.0232C94.2105 34.2523 94.5048 34.3669 94.8446 34.3669C95.0105 34.3669 95.1428 34.3294 95.2416 34.2543C95.3404 34.1792 95.3898 34.0884 95.3898 33.9817C95.3898 33.8711 95.3404 33.7881 95.2416 33.7328C95.1468 33.6735 94.9789 33.6024 94.7379 33.5195C94.7221 33.5155 94.7102 33.5116 94.7023 33.5076C94.4218 33.4088 94.2065 33.2962 94.0564 33.1698C93.9102 33.0434 93.8371 32.8597 93.8371 32.6187C93.8371 32.3975 93.926 32.2137 94.1038 32.0676C94.2855 31.9174 94.5147 31.8424 94.7912 31.8424C95.1586 31.8424 95.4885 31.9609 95.7809 32.1979L95.532 32.5772C95.3028 32.3797 95.048 32.2809 94.7675 32.2809C94.653 32.2809 94.5502 32.3125 94.4594 32.3757C94.3685 32.4389 94.3231 32.5199 94.3231 32.6187C94.3231 32.7214 94.3665 32.8044 94.4534 32.8676C94.5443 32.9308 94.6826 32.998 94.8683 33.0691C94.8999 33.0809 94.9572 33.1027 95.0401 33.1343C95.127 33.1659 95.1843 33.1876 95.212 33.1995C95.2396 33.2113 95.287 33.233 95.3542 33.2646C95.4214 33.2923 95.4668 33.314 95.4905 33.3298C95.5142 33.3417 95.5498 33.3634 95.5972 33.395C95.6485 33.4266 95.6821 33.4543 95.6979 33.478C95.7177 33.5017 95.7414 33.5333 95.769 33.5728C95.8006 33.6123 95.8224 33.6518 95.8342 33.6913C95.8461 33.7269 95.8559 33.7703 95.8638 33.8217C95.8718 33.8691 95.8757 33.9205 95.8757 33.9758C95.8757 34.2128 95.7868 34.4103 95.609 34.5684C95.4312 34.7225 95.1764 34.7995 94.8446 34.7995Z" fill="#D3D3D3"/>
<path d="M97.1641 34.7995C96.7176 34.7995 96.3403 34.6612 96.0322 34.3847L96.2811 34.0232C96.53 34.2523 96.8243 34.3669 97.1641 34.3669C97.33 34.3669 97.4623 34.3294 97.5611 34.2543C97.6599 34.1792 97.7093 34.0884 97.7093 33.9817C97.7093 33.8711 97.6599 33.7881 97.5611 33.7328C97.4663 33.6735 97.2984 33.6024 97.0574 33.5195C97.0416 33.5155 97.0297 33.5116 97.0218 33.5076C96.7413 33.4088 96.526 33.2962 96.3759 33.1698C96.2297 33.0434 96.1566 32.8597 96.1566 32.6187C96.1566 32.3975 96.2455 32.2137 96.4233 32.0676C96.605 31.9174 96.8342 31.8424 97.1107 31.8424C97.4781 31.8424 97.808 31.9609 98.1004 32.1979L97.8515 32.5772C97.6223 32.3797 97.3675 32.2809 97.087 32.2809C96.9725 32.2809 96.8697 32.3125 96.7789 32.3757C96.688 32.4389 96.6426 32.5199 96.6426 32.6187C96.6426 32.7214 96.686 32.8044 96.7729 32.8676C96.8638 32.9308 97.0021 32.998 97.1878 33.0691C97.2194 33.0809 97.2767 33.1027 97.3596 33.1343C97.4465 33.1659 97.5038 33.1876 97.5315 33.1995C97.5591 33.2113 97.6065 33.233 97.6737 33.2646C97.7409 33.2923 97.7863 33.314 97.81 33.3298C97.8337 33.3417 97.8693 33.3634 97.9167 33.395C97.968 33.4266 98.0016 33.4543 98.0174 33.478C98.0372 33.5017 98.0609 33.5333 98.0885 33.5728C98.1201 33.6123 98.1419 33.6518 98.1537 33.6913C98.1656 33.7269 98.1755 33.7703 98.1834 33.8217C98.1913 33.8691 98.1952 33.9205 98.1952 33.9758C98.1952 34.2128 98.1063 34.4103 97.9285 34.5684C97.7507 34.7225 97.4959 34.7995 97.1641 34.7995Z" fill="#D3D3D3"/>
<path d="M102.082 32.5535C102.338 32.6088 102.548 32.7273 102.71 32.9091C102.872 33.0908 102.953 33.3298 102.953 33.6261C102.953 33.9698 102.834 34.2464 102.597 34.4558C102.36 34.6612 102.01 34.7639 101.548 34.7639H100.013V30.5564H101.388C101.815 30.5564 102.147 30.6414 102.384 30.8112C102.625 30.9772 102.745 31.234 102.745 31.5816C102.745 31.795 102.688 31.9905 102.573 32.1683C102.463 32.3421 102.299 32.4666 102.082 32.5417V32.5535ZM100.529 31.0305V32.3639H101.382C101.611 32.3639 101.807 32.3086 101.969 32.1979C102.135 32.0873 102.218 31.9155 102.218 31.6824C102.218 31.2478 101.906 31.0305 101.281 31.0305H100.529ZM101.406 34.2898C101.714 34.2898 101.959 34.2306 102.141 34.1121C102.322 33.9896 102.413 33.8118 102.413 33.5787C102.413 33.3417 102.328 33.158 102.159 33.0276C101.989 32.8933 101.746 32.8261 101.43 32.8261H100.529V34.2898H101.406Z" fill="#D3D3D3"/>
<path d="M105.375 31.8779H105.855V34.7639H105.375V34.2839H105.369C105.128 34.6276 104.812 34.7995 104.421 34.7995C104.077 34.7995 103.811 34.7007 103.621 34.5032C103.431 34.3017 103.337 33.9995 103.337 33.5965V31.8779H103.817V33.4602C103.817 33.7802 103.874 34.0113 103.988 34.1535C104.107 34.2918 104.285 34.361 104.522 34.361C104.759 34.361 104.96 34.2642 105.126 34.0706C105.292 33.873 105.375 33.6083 105.375 33.2765V31.8779Z" fill="#D3D3D3"/>
<path d="M107.328 34.7995C106.881 34.7995 106.504 34.6612 106.196 34.3847L106.445 34.0232C106.693 34.2523 106.988 34.3669 107.328 34.3669C107.493 34.3669 107.626 34.3294 107.725 34.2543C107.823 34.1792 107.873 34.0884 107.873 33.9817C107.873 33.8711 107.823 33.7881 107.725 33.7328C107.63 33.6735 107.462 33.6024 107.221 33.5195C107.205 33.5155 107.193 33.5116 107.185 33.5076C106.905 33.4088 106.689 33.2962 106.539 33.1698C106.393 33.0434 106.32 32.8597 106.32 32.6187C106.32 32.3975 106.409 32.2137 106.587 32.0676C106.768 31.9174 106.998 31.8424 107.274 31.8424C107.642 31.8424 107.971 31.9609 108.264 32.1979L108.015 32.5772C107.786 32.3797 107.531 32.2809 107.25 32.2809C107.136 32.2809 107.033 32.3125 106.942 32.3757C106.851 32.4389 106.806 32.5199 106.806 32.6187C106.806 32.7214 106.849 32.8044 106.936 32.8676C107.027 32.9308 107.166 32.998 107.351 33.0691C107.383 33.0809 107.44 33.1027 107.523 33.1343C107.61 33.1659 107.667 33.1876 107.695 33.1995C107.723 33.2113 107.77 33.233 107.837 33.2646C107.904 33.2923 107.95 33.314 107.973 33.3298C107.997 33.3417 108.033 33.3634 108.08 33.395C108.131 33.4266 108.165 33.4543 108.181 33.478C108.201 33.5017 108.224 33.5333 108.252 33.5728C108.284 33.6123 108.305 33.6518 108.317 33.6913C108.329 33.7269 108.339 33.7703 108.347 33.8217C108.355 33.8691 108.359 33.9205 108.359 33.9758C108.359 34.2128 108.27 34.4103 108.092 34.5684C107.914 34.7225 107.659 34.7995 107.328 34.7995Z" fill="#D3D3D3"/>
<path d="M109.048 31.3446C108.95 31.3446 108.867 31.313 108.8 31.2498C108.736 31.1826 108.705 31.1016 108.705 31.0068C108.705 30.912 108.736 30.833 108.8 30.7698C108.867 30.7026 108.95 30.669 109.048 30.669C109.143 30.669 109.224 30.7026 109.291 30.7698C109.359 30.8369 109.392 30.9159 109.392 31.0068C109.392 31.1016 109.359 31.1826 109.291 31.2498C109.224 31.313 109.143 31.3446 109.048 31.3446ZM108.806 34.7639V31.8779H109.286V34.7639H108.806Z" fill="#D3D3D3"/>
<path d="M111.484 31.8424C111.804 31.8424 112.057 31.9451 112.243 32.1505C112.428 32.352 112.521 32.6523 112.521 33.0513V34.7639H112.041V33.1876C112.041 32.5871 111.806 32.2868 111.336 32.2868C111.059 32.2868 110.838 32.3797 110.672 32.5654C110.51 32.7471 110.429 32.9999 110.429 33.3239V34.7639H109.949V31.8779H110.429V32.3817H110.435C110.688 32.0221 111.038 31.8424 111.484 31.8424Z" fill="#D3D3D3"/>
<path d="M115.633 33.2765C115.633 33.3081 115.631 33.3496 115.627 33.4009L115.621 33.472H113.399C113.43 33.7407 113.533 33.956 113.707 34.118C113.885 34.28 114.104 34.361 114.365 34.361C114.7 34.361 114.971 34.2306 115.177 33.9698L115.514 34.2602C115.234 34.6197 114.845 34.7995 114.347 34.7995C113.932 34.7995 113.588 34.6632 113.316 34.3906C113.047 34.114 112.913 33.7585 112.913 33.3239C112.913 32.8933 113.043 32.5397 113.304 32.2631C113.569 31.9826 113.898 31.8424 114.294 31.8424C114.693 31.8424 115.015 31.9767 115.259 32.2454C115.508 32.514 115.633 32.8577 115.633 33.2765ZM114.88 32.5002C114.734 32.3579 114.546 32.2868 114.317 32.2868C114.088 32.2868 113.891 32.3579 113.725 32.5002C113.563 32.6384 113.46 32.8301 113.416 33.075H115.159C115.119 32.834 115.026 32.6424 114.88 32.5002Z" fill="#D3D3D3"/>
<path d="M116.947 34.7995C116.501 34.7995 116.123 34.6612 115.815 34.3847L116.064 34.0232C116.313 34.2523 116.607 34.3669 116.947 34.3669C117.113 34.3669 117.245 34.3294 117.344 34.2543C117.443 34.1792 117.492 34.0884 117.492 33.9817C117.492 33.8711 117.443 33.7881 117.344 33.7328C117.249 33.6735 117.081 33.6024 116.84 33.5195C116.824 33.5155 116.813 33.5116 116.805 33.5076C116.524 33.4088 116.309 33.2962 116.159 33.1698C116.013 33.0434 115.94 32.8597 115.94 32.6187C115.94 32.3975 116.028 32.2137 116.206 32.0676C116.388 31.9174 116.617 31.8424 116.894 31.8424C117.261 31.8424 117.591 31.9609 117.883 32.1979L117.634 32.5772C117.405 32.3797 117.15 32.2809 116.87 32.2809C116.755 32.2809 116.653 32.3125 116.562 32.3757C116.471 32.4389 116.425 32.5199 116.425 32.6187C116.425 32.7214 116.469 32.8044 116.556 32.8676C116.647 32.9308 116.785 32.998 116.971 33.0691C117.002 33.0809 117.06 33.1027 117.143 33.1343C117.229 33.1659 117.287 33.1876 117.314 33.1995C117.342 33.2113 117.389 33.233 117.457 33.2646C117.524 33.2923 117.569 33.314 117.593 33.3298C117.617 33.3417 117.652 33.3634 117.7 33.395C117.751 33.4266 117.785 33.4543 117.8 33.478C117.82 33.5017 117.844 33.5333 117.871 33.5728C117.903 33.6123 117.925 33.6518 117.937 33.6913C117.948 33.7269 117.958 33.7703 117.966 33.8217C117.974 33.8691 117.978 33.9205 117.978 33.9758C117.978 34.2128 117.889 34.4103 117.711 34.5684C117.534 34.7225 117.279 34.7995 116.947 34.7995Z" fill="#D3D3D3"/>
<path d="M119.266 34.7995C118.82 34.7995 118.443 34.6612 118.135 34.3847L118.383 34.0232C118.632 34.2523 118.927 34.3669 119.266 34.3669C119.432 34.3669 119.565 34.3294 119.664 34.2543C119.762 34.1792 119.812 34.0884 119.812 33.9817C119.812 33.8711 119.762 33.7881 119.664 33.7328C119.569 33.6735 119.401 33.6024 119.16 33.5195C119.144 33.5155 119.132 33.5116 119.124 33.5076C118.844 33.4088 118.628 33.2962 118.478 33.1698C118.332 33.0434 118.259 32.8597 118.259 32.6187C118.259 32.3975 118.348 32.2137 118.526 32.0676C118.707 31.9174 118.937 31.8424 119.213 31.8424C119.581 31.8424 119.91 31.9609 120.203 32.1979L119.954 32.5772C119.725 32.3797 119.47 32.2809 119.189 32.2809C119.075 32.2809 118.972 32.3125 118.881 32.3757C118.79 32.4389 118.745 32.5199 118.745 32.6187C118.745 32.7214 118.788 32.8044 118.875 32.8676C118.966 32.9308 119.104 32.998 119.29 33.0691C119.322 33.0809 119.379 33.1027 119.462 33.1343C119.549 33.1659 119.606 33.1876 119.634 33.1995C119.662 33.2113 119.709 33.233 119.776 33.2646C119.843 33.2923 119.889 33.314 119.912 33.3298C119.936 33.3417 119.972 33.3634 120.019 33.395C120.07 33.4266 120.104 33.4543 120.12 33.478C120.14 33.5017 120.163 33.5333 120.191 33.5728C120.223 33.6123 120.244 33.6518 120.256 33.6913C120.268 33.7269 120.278 33.7703 120.286 33.8217C120.294 33.8691 120.298 33.9205 120.298 33.9758C120.298 34.2128 120.209 34.4103 120.031 34.5684C119.853 34.7225 119.598 34.7995 119.266 34.7995Z" fill="#D3D3D3"/>
<path d="M123.336 34.7995C122.748 34.7995 122.25 34.5822 121.843 34.1476L122.175 33.7565C122.321 33.9382 122.499 34.0765 122.708 34.1713C122.918 34.2661 123.129 34.3136 123.342 34.3136C123.603 34.3136 123.811 34.2563 123.965 34.1417C124.123 34.0271 124.202 33.8691 124.202 33.6676C124.202 33.557 124.182 33.4622 124.142 33.3832C124.107 33.3041 124.044 33.235 123.953 33.1757C123.862 33.1125 123.773 33.0632 123.686 33.0276C123.603 32.9881 123.483 32.9387 123.325 32.8794C123.297 32.8676 123.275 32.8597 123.259 32.8557C123.105 32.8004 122.979 32.753 122.88 32.7135C122.785 32.6701 122.675 32.6108 122.548 32.5357C122.426 32.4607 122.329 32.3856 122.258 32.3105C122.191 32.2315 122.132 32.1347 122.08 32.0202C122.029 31.9016 122.003 31.7713 122.003 31.629C122.003 31.3169 122.128 31.0542 122.376 30.8409C122.625 30.6275 122.93 30.5189 123.289 30.5149C123.763 30.5149 124.208 30.6789 124.622 31.0068L124.308 31.4098C123.98 31.1332 123.641 30.995 123.289 30.995C123.084 30.995 122.908 31.0503 122.762 31.1609C122.615 31.2676 122.542 31.4157 122.542 31.6053C122.542 31.6844 122.558 31.7574 122.59 31.8246C122.621 31.8878 122.657 31.9411 122.696 31.9846C122.736 32.0241 122.805 32.0695 122.904 32.1209C123.003 32.1723 123.08 32.2118 123.135 32.2394C123.194 32.2631 123.295 32.3026 123.437 32.3579C123.872 32.5239 124.158 32.6543 124.297 32.7491C124.593 32.9506 124.741 33.239 124.741 33.6143C124.741 33.9856 124.603 34.276 124.326 34.4854C124.054 34.6948 123.724 34.7995 123.336 34.7995Z" fill="#D3D3D3"/>
<path d="M126.519 34.7995C126.076 34.7995 125.717 34.6592 125.44 34.3787C125.164 34.0982 125.025 33.7466 125.025 33.3239C125.025 32.9012 125.164 32.5496 125.44 32.2691C125.717 31.9846 126.076 31.8424 126.519 31.8424C126.945 31.8424 127.299 31.9807 127.579 32.2572C127.86 32.5338 128 32.8893 128 33.3239C128 33.7585 127.86 34.114 127.579 34.3906C127.299 34.6632 126.945 34.7995 126.519 34.7995ZM126.519 34.361C126.799 34.361 127.034 34.2642 127.224 34.0706C127.417 33.873 127.514 33.6242 127.514 33.3239C127.514 33.0197 127.419 32.7708 127.23 32.5772C127.04 32.3836 126.803 32.2868 126.519 32.2868C126.222 32.2868 125.979 32.3876 125.79 32.5891C125.604 32.7866 125.511 33.0315 125.511 33.3239C125.511 33.6163 125.604 33.8632 125.79 34.0647C125.979 34.2622 126.222 34.361 126.519 34.361Z" fill="#D3D3D3"/>
<path d="M128.484 34.7639V30.4023H128.964V34.7639H128.484Z" fill="#D3D3D3"/>
<path d="M131.607 31.8779H132.087V34.7639H131.607V34.2839H131.601C131.36 34.6276 131.044 34.7995 130.653 34.7995C130.309 34.7995 130.043 34.7007 129.853 34.5032C129.664 34.3017 129.569 33.9995 129.569 33.5965V31.8779H130.049V33.4602C130.049 33.7802 130.106 34.0113 130.221 34.1535C130.339 34.2918 130.517 34.361 130.754 34.361C130.991 34.361 131.192 34.2642 131.358 34.0706C131.524 33.873 131.607 33.6083 131.607 33.2765V31.8779Z" fill="#D3D3D3"/>
<path d="M133.494 34.7995C132.993 34.7995 132.742 34.5012 132.742 33.9047V32.2928H132.374V31.8779H132.742V30.8942L133.222 30.8409V31.8779H134.182V32.2928H133.222V33.8335C133.222 34.0113 133.248 34.1417 133.299 34.2247C133.354 34.3076 133.447 34.3491 133.577 34.3491C133.728 34.3491 133.89 34.2997 134.063 34.201L134.194 34.6217C133.98 34.7402 133.747 34.7995 133.494 34.7995Z" fill="#D3D3D3"/>
<path d="M134.789 31.3446C134.69 31.3446 134.607 31.313 134.54 31.2498C134.477 31.1826 134.445 31.1016 134.445 31.0068C134.445 30.912 134.477 30.833 134.54 30.7698C134.607 30.7026 134.69 30.669 134.789 30.669C134.884 30.669 134.965 30.7026 135.032 30.7698C135.099 30.8369 135.132 30.9159 135.132 31.0068C135.132 31.1016 135.099 31.1826 135.032 31.2498C134.965 31.313 134.884 31.3446 134.789 31.3446ZM134.546 34.7639V31.8779H135.026V34.7639H134.546Z" fill="#D3D3D3"/>
<path d="M137.005 34.7995C136.563 34.7995 136.203 34.6592 135.927 34.3787C135.65 34.0982 135.512 33.7466 135.512 33.3239C135.512 32.9012 135.65 32.5496 135.927 32.2691C136.203 31.9846 136.563 31.8424 137.005 31.8424C137.432 31.8424 137.785 31.9807 138.066 32.2572C138.346 32.5338 138.487 32.8893 138.487 33.3239C138.487 33.7585 138.346 34.114 138.066 34.3906C137.785 34.6632 137.432 34.7995 137.005 34.7995ZM137.005 34.361C137.286 34.361 137.521 34.2642 137.71 34.0706C137.904 33.873 138.001 33.6242 138.001 33.3239C138.001 33.0197 137.906 32.7708 137.716 32.5772C137.527 32.3836 137.29 32.2868 137.005 32.2868C136.709 32.2868 136.466 32.3876 136.276 32.5891C136.09 32.7866 135.998 33.0315 135.998 33.3239C135.998 33.6163 136.09 33.8632 136.276 34.0647C136.466 34.2622 136.709 34.361 137.005 34.361Z" fill="#D3D3D3"/>
<path d="M140.464 31.8424C140.784 31.8424 141.037 31.9451 141.223 32.1505C141.408 32.352 141.501 32.6523 141.501 33.0513V34.7639H141.021V33.1876C141.021 32.5871 140.786 32.2868 140.316 32.2868C140.039 32.2868 139.818 32.3797 139.652 32.5654C139.49 32.7471 139.409 32.9999 139.409 33.3239V34.7639H138.929V31.8779H139.409V32.3817H139.415C139.668 32.0221 140.018 31.8424 140.464 31.8424Z" fill="#D3D3D3"/>
<path d="M142.953 34.7995C142.507 34.7995 142.13 34.6612 141.822 34.3847L142.07 34.0232C142.319 34.2523 142.614 34.3669 142.953 34.3669C143.119 34.3669 143.252 34.3294 143.35 34.2543C143.449 34.1792 143.499 34.0884 143.499 33.9817C143.499 33.8711 143.449 33.7881 143.35 33.7328C143.256 33.6735 143.088 33.6024 142.847 33.5195C142.831 33.5155 142.819 33.5116 142.811 33.5076C142.531 33.4088 142.315 33.2962 142.165 33.1698C142.019 33.0434 141.946 32.8597 141.946 32.6187C141.946 32.3975 142.035 32.2137 142.213 32.0676C142.394 31.9174 142.624 31.8424 142.9 31.8424C143.267 31.8424 143.597 31.9609 143.89 32.1979L143.641 32.5772C143.412 32.3797 143.157 32.2809 142.876 32.2809C142.762 32.2809 142.659 32.3125 142.568 32.3757C142.477 32.4389 142.432 32.5199 142.432 32.6187C142.432 32.7214 142.475 32.8044 142.562 32.8676C142.653 32.9308 142.791 32.998 142.977 33.0691C143.009 33.0809 143.066 33.1027 143.149 33.1343C143.236 33.1659 143.293 33.1876 143.321 33.1995C143.348 33.2113 143.396 33.233 143.463 33.2646C143.53 33.2923 143.576 33.314 143.599 33.3298C143.623 33.3417 143.659 33.3634 143.706 33.395C143.757 33.4266 143.791 33.4543 143.807 33.478C143.827 33.5017 143.85 33.5333 143.878 33.5728C143.909 33.6123 143.931 33.6518 143.943 33.6913C143.955 33.7269 143.965 33.7703 143.973 33.8217C143.981 33.8691 143.985 33.9205 143.985 33.9758C143.985 34.2128 143.896 34.4103 143.718 34.5684C143.54 34.7225 143.285 34.7995 142.953 34.7995Z" fill="#D3D3D3"/>
<path d="M144.485 33.5254L144.396 30.4023H144.947L144.858 33.5254H144.485ZM144.663 34.7995C144.564 34.7995 144.481 34.7679 144.414 34.7047C144.35 34.6375 144.319 34.5585 144.319 34.4676C144.319 34.3728 144.35 34.2938 144.414 34.2306C144.481 34.1634 144.564 34.1298 144.663 34.1298C144.753 34.1298 144.832 34.1634 144.9 34.2306C144.967 34.2938 145 34.3728 145 34.4676C145 34.5585 144.967 34.6375 144.9 34.7047C144.832 34.7679 144.753 34.7995 144.663 34.7995Z" fill="#D3D3D3"/>
<defs>
<linearGradient id="paint0_linear_1_222539" x1="20.6597" y1="38.2423" x2="20.6597" y2="-3.6412" gradientUnits="userSpaceOnUse">
<stop stop-color="#FFA204"/>
<stop offset="0.957663" stop-color="#FBCF0D"/>
</linearGradient>
</defs>
</svg>
