<svg width="232" height="289" viewBox="0 0 232 289" fill="none" xmlns="http://www.w3.org/2000/svg">
<rect width="232" height="289" rx="8" fill="#FFFBEC"/>
<path d="M205.191 195.189L223.172 192.441C224.679 202.305 217.803 211.662 207.939 213.169C198.075 214.676 188.719 207.8 187.211 197.936C185.704 188.073 192.58 178.716 202.444 177.209C204.014 176.969 205.61 176.936 207.188 177.11L205.191 195.189Z" fill="#FBECB8"/>
<path d="M211.031 177.167L208.848 191.105L222.529 188.535C222.529 188.535 220.517 180.725 211.031 177.167Z" fill="#FBECB8"/>
<path d="M114.987 164.582H112.812V171.865H114.987V164.582Z" fill="#FBECB8"/>
<path d="M96.8265 163.526H94.6523V171.864H96.8265V163.526Z" fill="#FBECB8"/>
<path d="M101.362 161.789H99.1875V171.865H101.362V161.789Z" fill="#FBECB8"/>
<path d="M105.901 162.342H103.727V171.865H105.901V162.342Z" fill="#FBECB8"/>
<path d="M110.448 159.12H108.273V171.865H110.448V159.12Z" fill="#FBECB8"/>
<path d="M119.518 159.182H117.344V171.865H119.518V159.182Z" fill="#FBECB8"/>
<path d="M124.069 163.346H121.895V171.863H124.069V163.346Z" fill="#FBECB8"/>
<path d="M128.6 159.739H126.426V171.864H128.6V159.739Z" fill="#FBECB8"/>
<path d="M133.143 157.009H130.969V171.865H133.143V157.009Z" fill="#FBECB8"/>
<path d="M137.678 159.678H135.504V171.864H137.678V159.678Z" fill="#FBECB8"/>
<path d="M11.3684 205C11.2894 200.062 15.2243 195.98 20.1395 195.901C25.0547 195.822 29.118 199.774 29.1969 204.712C29.2758 209.65 25.341 213.732 20.4258 213.812C15.5105 213.891 11.4473 209.938 11.3684 205ZM24.5448 204.787C24.507 202.426 22.5644 200.536 20.2142 200.574C17.864 200.612 15.9827 202.564 16.0205 204.925C16.0583 207.286 18.0009 209.176 20.3511 209.138C22.7013 209.1 24.5826 207.148 24.5448 204.787Z" fill="#FBECB8"/>
<path d="M11.3684 205.001C11.2894 200.063 15.2243 195.981 20.1392 195.901L20.2138 200.575C17.8637 200.613 15.9823 202.565 16.0202 204.926C16.058 207.287 18.0006 209.177 20.3508 209.139L20.4255 213.812C15.5105 213.891 11.4473 209.939 11.3684 205.001Z" fill="#FBECB8"/>
<path d="M19.3398 195.182C25.0904 195.089 29.6777 199.552 29.7699 205.329L24.3275 205.417C24.2835 202.655 22.1814 200.916 19.4321 200.96L19.3398 195.182Z" fill="#FBECB8"/>
<path d="M69.289 236.448H57.957V249.92H69.289V236.448Z" fill="#FBECB8"/>
<path d="M58.3642 235.568H7.15234V250.766H58.3642V235.568Z" fill="#FBECB8"/>
<path d="M69.646 236.846H56.9883V235.568H69.646C69.9988 235.568 70.285 235.855 70.285 236.207C70.285 236.56 69.9991 236.846 69.646 236.846Z" fill="#FBECB8"/>
<path d="M69.646 250.764H56.9883V249.486H69.646C69.9988 249.486 70.285 249.772 70.285 250.125C70.285 250.479 69.9991 250.764 69.646 250.764Z" fill="#FBECB8"/>
<path d="M54.3276 235.568H48.2773V250.766H54.3276V235.568Z" fill="#FBECB8"/>
<path d="M18.0662 235.736H12.0156V250.934H18.0662V235.736Z" fill="#FBECB8"/>
<path d="M69.3027 238.674C69.3027 238.711 66.8501 238.741 63.8253 238.741C60.7996 238.741 58.3477 238.711 58.3477 238.674C58.3477 238.636 60.7996 238.606 63.8253 238.606C66.8501 238.606 69.3027 238.636 69.3027 238.674Z" fill="#FBECB8"/>
<path d="M69.3027 240.694C69.3027 240.731 66.8501 240.762 63.8253 240.762C60.7996 240.762 58.3477 240.732 58.3477 240.694C58.3477 240.657 60.7996 240.627 63.8253 240.627C66.8501 240.627 69.3027 240.657 69.3027 240.694Z" fill="#FBECB8"/>
<path d="M69.3027 243.184C69.3027 243.221 66.8501 243.251 63.8253 243.251C60.7996 243.251 58.3477 243.221 58.3477 243.184C58.3477 243.147 60.7996 243.116 63.8253 243.116C66.8501 243.116 69.3027 243.147 69.3027 243.184Z" fill="#FBECB8"/>
<path d="M69.3027 245.67C69.3027 245.707 66.8501 245.737 63.8253 245.737C60.7996 245.737 58.3477 245.707 58.3477 245.67C58.3477 245.633 60.7996 245.603 63.8253 245.603C66.8501 245.602 69.3027 245.633 69.3027 245.67Z" fill="#FBECB8"/>
<path d="M69.3027 248.156C69.3027 248.193 66.8501 248.223 63.8253 248.223C60.7996 248.223 58.3477 248.193 58.3477 248.156C58.3477 248.119 60.7996 248.089 63.8253 248.089C66.8501 248.089 69.3027 248.119 69.3027 248.156Z" fill="#FBECB8"/>
<path d="M45.0239 241.813H21.9844V244.55H45.0239V241.813Z" fill="#FBECB8"/>
<path d="M69.1815 251.062H57.6758V259.271H69.1815V251.062Z" fill="#FAFAFA"/>
<path d="M57.8052 250.765H8.83984V259.569H57.8052V250.765Z" fill="#FBECB8"/>
<path d="M57.4375 251.359H69.8044C69.969 251.359 70.102 251.226 70.102 251.061C70.102 250.897 69.9687 250.764 69.8044 250.764H57.4375V251.359Z" fill="#FBECB8"/>
<path d="M57.4375 259.568H69.9654C70.0411 259.568 70.102 259.507 70.102 259.432V259.109C70.102 259.034 70.0407 258.973 69.9654 258.973H57.4375V259.568Z" fill="#FBECB8"/>
<path d="M69.182 252.622C69.182 252.659 66.6349 252.689 63.4937 252.689C60.3512 252.689 57.8047 252.659 57.8047 252.622C57.8047 252.585 60.3512 252.555 63.4937 252.555C66.6349 252.555 69.182 252.585 69.182 252.622Z" fill="#FBECB8"/>
<path d="M69.182 254.174C69.182 254.211 66.6349 254.241 63.4937 254.241C60.3512 254.241 57.8047 254.211 57.8047 254.174C57.8047 254.136 60.3512 254.106 63.4937 254.106C66.6349 254.106 69.182 254.136 69.182 254.174Z" fill="#FBECB8"/>
<path d="M69.182 255.728C69.182 255.765 66.6349 255.795 63.4937 255.795C60.3512 255.795 57.8047 255.765 57.8047 255.728C57.8047 255.69 60.3512 255.66 63.4937 255.66C66.6349 255.66 69.182 255.69 69.182 255.728Z" fill="#FBECB8"/>
<path d="M69.182 257.279C69.182 257.317 66.6349 257.346 63.4937 257.346C60.3512 257.346 57.8047 257.317 57.8047 257.279C57.8047 257.242 60.3512 257.212 63.4937 257.212C66.6349 257.212 69.182 257.242 69.182 257.279Z" fill="#FBECB8"/>
<path d="M70.9313 260.352H59.1875V282.604H70.9313V260.352Z" fill="#FBECB8"/>
<path d="M71.846 283.698H57.6758V282.133H71.846C72.2781 282.133 72.6286 282.483 72.6286 282.915C72.6282 283.347 72.2781 283.698 71.846 283.698Z" fill="#FBECB8"/>
<path d="M72.2693 261.133H57.6758V259.568H72.2693C72.4675 259.568 72.6282 259.729 72.6282 259.927V260.774C72.6282 260.972 72.4675 261.133 72.2693 261.133Z" fill="#FBECB8"/>
<path d="M70.9117 263.334C70.9117 263.371 68.2824 263.401 65.0402 263.401C61.7966 263.401 59.168 263.371 59.168 263.334C59.168 263.297 61.7966 263.267 65.0402 263.267C68.2824 263.267 70.9117 263.297 70.9117 263.334Z" fill="#FBECB8"/>
<path d="M70.9117 266.189C70.9117 266.226 68.2824 266.256 65.0402 266.256C61.7966 266.256 59.168 266.226 59.168 266.189C59.168 266.152 61.7966 266.122 65.0402 266.122C68.2824 266.122 70.9117 266.152 70.9117 266.189Z" fill="#FBECB8"/>
<path d="M70.9117 269.043C70.9117 269.08 68.2824 269.11 65.0402 269.11C61.7966 269.11 59.168 269.08 59.168 269.043C59.168 269.006 61.7966 268.976 65.0402 268.976C68.2824 268.976 70.9117 269.006 70.9117 269.043Z" fill="#FBECB8"/>
<path d="M70.9117 271.897C70.9117 271.934 68.2824 271.965 65.0402 271.965C61.7966 271.965 59.168 271.935 59.168 271.897C59.168 271.86 61.7966 271.83 65.0402 271.83C68.2824 271.83 70.9117 271.86 70.9117 271.897Z" fill="#FBECB8"/>
<path d="M70.9117 274.752C70.9117 274.789 68.2824 274.819 65.0402 274.819C61.7966 274.819 59.168 274.789 59.168 274.752C59.168 274.715 61.7966 274.685 65.0402 274.685C68.2824 274.685 70.9117 274.715 70.9117 274.752Z" fill="#FBECB8"/>
<path d="M70.9117 277.605C70.9117 277.642 68.2824 277.672 65.0402 277.672C61.7966 277.672 59.168 277.642 59.168 277.605C59.168 277.568 61.7966 277.538 65.0402 277.538C68.2824 277.538 70.9117 277.568 70.9117 277.605Z" fill="#FBECB8"/>
<path d="M70.9117 280.457C70.9117 280.494 68.2824 280.524 65.0402 280.524C61.7966 280.524 59.168 280.494 59.168 280.457C59.168 280.42 61.7966 280.39 65.0402 280.39C68.2824 280.389 70.9117 280.42 70.9117 280.457Z" fill="#FBECB8"/>
<path d="M22.9107 272.953V274.295C22.9107 275.912 22.1024 276.836 20.5433 276.836C18.9844 276.836 18.1758 275.912 18.1758 274.295V269.041C18.1758 267.424 18.9841 266.5 20.5433 266.5C22.1021 266.5 22.9107 267.424 22.9107 269.041V270.022H21.4096V268.94C21.4096 268.218 21.092 267.944 20.5869 267.944C20.0816 267.944 19.764 268.218 19.764 268.94V274.396C19.764 275.118 20.0816 275.378 20.5869 275.378C21.092 275.378 21.4096 275.118 21.4096 274.396V272.953H22.9107V272.953Z" fill="#FBECB8"/>
<path d="M41.7129 266.616V274.411C41.7129 275.133 42.0305 275.393 42.5358 275.393C43.0412 275.393 43.3588 275.133 43.3588 274.411V266.616H44.8599V274.31C44.8599 275.927 44.0517 276.851 42.4925 276.851C40.9336 276.851 40.125 275.927 40.125 274.31V266.616H41.7129Z" fill="#FBECB8"/>
<path d="M49.2655 276.721C49.1788 276.461 49.1211 276.302 49.1211 275.479V273.891C49.1211 272.953 48.8035 272.607 48.0816 272.607H47.5332V276.721H45.9453V266.616H48.3415C49.9871 266.616 50.6943 267.381 50.6943 268.94V269.734C50.6943 270.774 50.3624 271.452 49.6548 271.784C50.4488 272.116 50.7086 272.881 50.7086 273.935V275.494C50.7086 275.985 50.723 276.346 50.8818 276.721L49.2655 276.721ZM47.5332 268.06V271.163H48.154C48.7458 271.163 49.1067 270.903 49.1067 270.095V269.099C49.1067 268.377 48.8612 268.06 48.2984 268.06H47.5332Z" fill="#FBECB8"/>
<path d="M43.4286 255.77C43.4286 256.618 42.8382 257.237 42.0318 257.237C41.563 257.237 41.2346 257.045 41.0941 256.698L40.813 258.123H40.4805L41.1508 254.748H41.4694L41.3898 255.142C41.6243 254.879 41.9526 254.729 42.351 254.729C42.9833 254.73 43.4286 255.123 43.4286 255.77ZM43.0912 255.789C43.0912 255.306 42.7958 255.02 42.2803 255.02C41.6663 255.02 41.216 255.503 41.216 256.177C41.216 256.661 41.5115 256.942 42.0269 256.942C42.6412 256.942 43.0912 256.46 43.0912 255.789Z" fill="#FBECB8"/>
<path d="M46.4098 255.531C46.4098 255.62 46.4003 255.714 46.3814 255.812L46.1004 257.214H45.7675L46.0489 255.807C46.0626 255.728 46.072 255.653 46.072 255.582C46.072 255.231 45.8611 255.029 45.4346 255.029C44.9096 255.029 44.5487 255.315 44.4313 255.892L44.1688 257.214H43.8359L44.5298 253.735H44.8624L44.5859 255.118C44.8203 254.851 45.1483 254.73 45.5282 254.73C46.086 254.73 46.4098 255.03 46.4098 255.531Z" fill="#FBECB8"/>
<path d="M49.5265 254.748L47.7264 257.533C47.4215 258.002 47.192 258.147 46.8359 258.147C46.6064 258.147 46.3716 258.067 46.25 257.927L46.428 257.683C46.5359 257.795 46.6765 257.861 46.864 257.861C47.0752 257.861 47.2389 257.763 47.4313 257.463L47.6047 257.2L46.9905 254.748H47.3279L47.8389 256.848L49.1841 254.748H49.5265V254.748Z" fill="#FBECB8"/>
<path d="M56.9462 153.415H17.4958H6.93359L15.0807 159.294V170.861C15.0807 172.195 16.1619 173.276 17.4958 173.276H56.9462C58.2801 173.276 59.3616 172.195 59.3616 170.861V155.831C59.3616 154.496 58.2804 153.415 56.9462 153.415Z" fill="#FBECB8"/>
<path d="M54.8606 161.589C54.8606 161.638 47.3177 161.677 38.0151 161.677C28.7092 161.677 21.168 161.638 21.168 161.589C21.168 161.541 28.7092 161.502 38.0151 161.502C47.3174 161.502 54.8606 161.541 54.8606 161.589Z" fill="#FBECB8"/>
<path d="M54.8606 166.031C54.8606 166.079 47.3177 166.118 38.0151 166.118C28.7092 166.118 21.168 166.079 21.168 166.031C21.168 165.983 28.7092 165.943 38.0151 165.943C47.3174 165.943 54.8606 165.983 54.8606 166.031Z" fill="#FBECB8"/>
<path d="M230.411 283.695C230.411 283.742 179.275 283.78 116.211 283.78C53.1248 283.78 2 283.742 2 283.695C2 283.649 53.1248 283.611 116.211 283.611C179.276 283.61 230.411 283.648 230.411 283.695Z" fill="#263238"/>
<path d="M208.941 264.052C208.941 264.052 200.298 254.105 197.037 244.158C193.775 234.21 195.325 235.352 195.325 235.352C195.325 235.352 199.728 245.015 203.071 249.682C206.414 254.35 212.366 261.199 212.366 261.199L208.941 264.052Z" fill="#455A64"/>
<path d="M210.663 236.902C210.384 236.416 209.642 236.668 209.725 237.222C210.252 240.716 211.391 248.916 211.346 254.234C211.288 261.142 211.349 263.813 211.349 263.813H214.946C214.946 263.813 214.307 249.531 213.495 245.177C212.924 242.124 211.715 238.734 210.663 236.902Z" fill="#455A64"/>
<path d="M212.629 262.652C212.629 262.652 214.893 257.891 215.59 251.912C215.886 249.369 215.358 245.932 214.572 241.346C214.191 239.125 214.105 237.434 214.117 236.262C214.126 235.376 215.295 235.087 215.728 235.859C216.162 236.634 217.419 239.281 217.738 240.94C218.609 245.468 219.596 247.732 218.841 252.028C218.086 256.324 215.3 262.943 215.3 262.943L212.629 262.652Z" fill="#455A64"/>
<path d="M215.867 262.942C215.867 262.942 225.357 242.549 226.014 239.524C226.672 236.498 228.908 229.527 229.171 229.921C229.434 230.316 229.829 233.999 228.119 238.208C226.409 242.418 219.107 263.563 219.107 263.563H215.867" fill="#455A64"/>
<path d="M211.588 262.03C211.584 262.036 211.493 261.973 211.322 261.848C211.154 261.72 210.898 261.54 210.587 261.286C209.955 260.79 209.069 260.035 208.036 259.035C205.965 257.046 203.387 253.979 201.152 250.199C198.912 246.42 197.406 242.724 196.452 240.019C195.975 238.665 195.627 237.556 195.401 236.786C195.285 236.402 195.205 236.1 195.149 235.896C195.094 235.692 195.069 235.584 195.075 235.582C195.082 235.58 195.121 235.684 195.188 235.885C195.26 236.103 195.356 236.395 195.476 236.762C195.725 237.525 196.093 238.625 196.587 239.971C197.573 242.658 199.095 246.333 201.326 250.096C203.551 253.86 206.098 256.925 208.136 258.933C209.152 259.943 210.021 260.712 210.636 261.226C210.939 261.489 211.186 261.678 211.346 261.816C211.509 261.951 211.592 262.025 211.588 262.03Z" fill="#263238"/>
<path d="M212.623 252.245C212.609 252.246 212.58 252.033 212.538 251.647C212.493 251.225 212.434 250.675 212.363 250.012C212.213 248.632 211.979 246.73 211.643 244.64C211.307 242.549 210.933 240.669 210.643 239.311C210.503 238.66 210.386 238.119 210.297 237.704C210.215 237.325 210.177 237.113 210.19 237.109C210.204 237.106 210.268 237.311 210.373 237.685C210.48 238.059 210.62 238.604 210.783 239.28C211.109 240.631 211.506 242.512 211.844 244.607C212.18 246.703 212.392 248.613 212.506 249.998C212.564 250.691 212.601 251.252 212.617 251.641C212.634 252.029 212.637 252.244 212.623 252.245Z" fill="#263238"/>
<path d="M214.848 235.698C214.855 235.696 214.893 235.785 214.96 235.958C215.032 236.15 215.127 236.401 215.245 236.715C215.37 237.044 215.514 237.449 215.652 237.929C215.793 238.408 215.976 238.948 216.113 239.562C216.188 239.868 216.267 240.188 216.348 240.521C216.428 240.855 216.484 241.208 216.557 241.571C216.712 242.295 216.808 243.08 216.923 243.904C217.109 245.557 217.21 247.388 217.15 249.308C217.072 251.229 216.84 253.048 216.537 254.684C216.363 255.498 216.211 256.274 216.005 256.985C215.906 257.341 215.825 257.69 215.721 258.017C215.616 258.343 215.514 258.657 215.418 258.957C215.237 259.56 215.016 260.085 214.841 260.552C214.669 261.022 214.496 261.415 214.348 261.734C214.207 262.039 214.095 262.283 214.01 262.47C213.931 262.636 213.886 262.723 213.88 262.72C213.873 262.717 213.905 262.625 213.973 262.453C214.049 262.263 214.15 262.014 214.275 261.703C214.412 261.381 214.574 260.984 214.735 260.512C214.899 260.042 215.11 259.515 215.282 258.912C215.374 258.613 215.47 258.299 215.571 257.973C215.67 257.646 215.747 257.298 215.842 256.943C216.04 256.233 216.185 255.459 216.353 254.649C216.645 253.02 216.87 251.211 216.947 249.301C217.007 247.391 216.912 245.571 216.738 243.925C216.628 243.105 216.539 242.323 216.392 241.601C216.323 241.239 216.271 240.887 216.195 240.554C216.118 240.221 216.045 239.902 215.974 239.596C215.846 238.982 215.674 238.442 215.543 237.961C215.417 237.48 215.284 237.072 215.17 236.74C215.067 236.422 214.985 236.166 214.922 235.972C214.867 235.795 214.842 235.701 214.848 235.698Z" fill="#263238"/>
<path d="M229.07 230.332C229.073 230.333 229.071 230.364 229.062 230.424C229.051 230.495 229.037 230.582 229.02 230.689C228.978 230.921 228.926 231.265 228.833 231.704C228.65 232.581 228.345 233.844 227.87 235.375C227.397 236.907 226.749 238.703 225.98 240.677C225.215 242.651 224.325 244.802 223.482 247.092C222.627 249.378 221.968 251.609 221.349 253.634C220.735 255.66 220.153 257.479 219.59 258.98C219.033 260.484 218.497 261.668 218.092 262.468C217.898 262.872 217.723 263.173 217.61 263.38C217.557 263.474 217.513 263.551 217.478 263.614C217.447 263.665 217.429 263.691 217.426 263.69C217.423 263.688 217.434 263.659 217.46 263.603C217.491 263.538 217.528 263.458 217.574 263.361C217.675 263.148 217.838 262.842 218.021 262.433C218.404 261.625 218.918 260.436 219.456 258.931C220 257.427 220.567 255.609 221.17 253.58C221.779 251.553 222.435 249.314 223.292 247.022C224.137 244.726 225.032 242.577 225.807 240.609C226.584 238.641 227.244 236.854 227.733 235.332C228.224 233.81 228.55 232.557 228.756 231.686C228.86 231.252 228.925 230.91 228.98 230.681C229.005 230.576 229.025 230.49 229.042 230.42C229.057 230.361 229.066 230.331 229.07 230.332Z" fill="#263238"/>
<path d="M199.798 225.827C199.2 225.233 198.205 225.854 198.453 226.66C198.704 227.477 199.084 228.534 199.645 229.726C200.95 232.498 204.782 242.446 206.576 247.909C208.37 253.372 210.897 263.564 210.897 263.564L214.728 262.942C214.728 262.942 211.223 246.196 207.799 240.163C205.047 235.315 202.296 228.309 199.798 225.827Z" fill="#455A64"/>
<path d="M207.627 251.325C207.641 251.321 207.71 251.484 207.825 251.784C207.938 252.085 208.092 252.524 208.266 253.07C208.619 254.163 209.051 255.689 209.486 257.385C209.919 259.081 210.281 260.624 210.533 261.743C210.648 262.272 210.744 262.717 210.821 263.07C210.885 263.385 210.914 263.56 210.901 263.564C210.887 263.567 210.832 263.398 210.745 263.089C210.651 262.74 210.534 262.3 210.394 261.777C210.101 260.625 209.716 259.11 209.29 257.436C208.855 255.742 208.446 254.213 208.129 253.112C207.978 252.593 207.851 252.157 207.75 251.81C207.659 251.502 207.614 251.33 207.627 251.325Z" fill="#263238"/>
<path d="M212.828 263.253C212.824 263.253 212.817 263.218 212.807 263.151C212.795 263.071 212.781 262.972 212.763 262.849C212.723 262.584 212.687 262.191 212.606 261.689C212.466 260.683 212.215 259.232 211.803 257.464C211.394 255.694 210.798 253.613 210.01 251.344C209.225 249.074 208.239 246.622 207.122 244.085C204.869 239.015 202.618 234.519 201.138 231.194C200.391 229.535 199.812 228.181 199.431 227.238C199.236 226.768 199.097 226.398 199 226.148C198.956 226.032 198.922 225.938 198.894 225.863C198.871 225.798 198.861 225.764 198.864 225.763C198.867 225.761 198.884 225.793 198.913 225.855C198.946 225.928 198.987 226.02 199.038 226.133C199.15 226.393 199.306 226.752 199.503 227.207C199.907 228.14 200.505 229.485 201.269 231.134C202.78 234.442 205.051 238.926 207.308 244.003C208.426 246.545 209.409 249.005 210.187 251.284C210.967 253.562 211.551 255.653 211.943 257.432C212.338 259.21 212.568 260.668 212.685 261.679C212.753 262.183 212.777 262.578 212.804 262.845C212.813 262.968 212.821 263.068 212.827 263.149C212.831 263.217 212.832 263.252 212.828 263.253Z" fill="#263238"/>
<path d="M214.723 262.941C214.708 262.943 214.663 262.714 214.593 262.298C214.517 261.848 214.417 261.254 214.295 260.537C214.031 259.053 213.628 257.009 213.049 254.784C212.475 252.556 211.829 250.575 211.332 249.152C211.087 248.467 210.886 247.9 210.733 247.47C210.589 247.073 210.516 246.851 210.529 246.846C210.542 246.841 210.64 247.053 210.806 247.441C210.971 247.83 211.202 248.396 211.466 249.103C211.999 250.517 212.669 252.498 213.245 254.732C213.826 256.965 214.208 259.02 214.437 260.513C214.545 261.261 214.629 261.866 214.672 262.286C214.718 262.707 214.736 262.939 214.723 262.941Z" fill="#263238"/>
<path d="M222.6 262.393H207.648V280.61H222.6V262.393Z" fill="#FBECB8"/>
<g opacity="0.3">
<path d="M222.6 262.393H207.648V280.61H222.6V262.393Z" fill="black"/>
</g>
<path d="M217.824 262.393H204.559V280.61H217.824V262.393Z" fill="#FBECB8"/>
<path d="M23.4477 256.058C20.9009 254.427 17.3707 254.396 14.892 256.129C12.5389 257.774 11.3439 260.768 11.4476 263.637C11.5513 266.506 12.9422 270.013 15.5419 271.52L23.1725 271.49C25.6091 269.698 27.2566 266.812 27.3714 263.79C27.4865 260.768 25.9945 257.69 23.4477 256.058Z" fill="#455A64"/>
<path d="M19.6855 271.796C19.6685 271.796 19.6526 271.563 19.6376 271.14C19.6242 270.671 19.6072 270.07 19.5867 269.35C19.5482 267.839 19.4885 265.752 19.3878 263.449C19.2861 261.145 19.1622 259.061 19.0679 257.552C19.0249 256.834 18.9894 256.234 18.9613 255.765C18.9391 255.343 18.9349 255.109 18.9515 255.107C18.9682 255.106 19.0047 255.337 19.0559 255.758C19.1077 256.178 19.171 256.786 19.2398 257.54C19.378 259.046 19.5293 261.132 19.6314 263.439C19.7324 265.745 19.7647 267.836 19.7592 269.348C19.7566 270.105 19.7471 270.717 19.7324 271.14C19.7181 271.563 19.7024 271.796 19.6855 271.796Z" fill="#263238"/>
<path d="M12.2189 262.987C12.2133 263.055 11.7986 263.075 11.2929 263.034C10.7868 262.992 10.3812 262.904 10.3868 262.837C10.3923 262.77 10.8067 262.749 11.3128 262.791C11.8185 262.832 12.2244 262.92 12.2189 262.987Z" fill="#263238"/>
<path d="M12.3599 260.413C12.3325 260.474 11.9748 260.375 11.5611 260.192C11.1473 260.008 10.8337 259.809 10.861 259.748C10.8881 259.686 11.2458 259.785 11.6599 259.969C12.074 260.152 12.3873 260.351 12.3599 260.413Z" fill="#263238"/>
<path d="M13.6833 258.501C13.6485 258.557 13.2464 258.368 12.8288 258.021C12.4098 257.675 12.1486 257.316 12.1972 257.271C12.2471 257.224 12.5787 257.499 12.9843 257.833C13.3883 258.169 13.7202 258.443 13.6833 258.501Z" fill="#263238"/>
<path d="M15.0123 256.699C14.9506 256.726 14.7579 256.425 14.5819 256.027C14.4058 255.628 14.3129 255.283 14.3745 255.256C14.4361 255.229 14.6285 255.529 14.8049 255.928C14.981 256.326 15.0739 256.672 15.0123 256.699Z" fill="#263238"/>
<path d="M17.11 255.419C17.05 255.447 16.8426 255.127 16.705 254.682C16.5661 254.238 16.5554 253.857 16.6206 253.846C16.6881 253.834 16.8038 254.183 16.9378 254.61C17.0696 255.037 17.1723 255.391 17.11 255.419Z" fill="#263238"/>
<path d="M20.6011 253.977C20.6646 254 20.6258 254.273 20.5147 254.588C20.4035 254.904 20.262 255.141 20.1984 255.119C20.1351 255.096 20.1736 254.823 20.2851 254.507C20.396 254.192 20.5375 253.955 20.6011 253.977Z" fill="#263238"/>
<path d="M23.1838 255.087C23.2295 255.136 23.0635 255.364 22.8131 255.596C22.5627 255.828 22.3227 255.975 22.2771 255.926C22.2314 255.876 22.3974 255.648 22.6478 255.417C22.8979 255.185 23.1379 255.037 23.1838 255.087Z" fill="#263238"/>
<path d="M25.4551 256.558C25.493 256.614 25.2905 256.817 25.0032 257.011C24.716 257.206 24.4522 257.319 24.4147 257.263C24.3769 257.207 24.5794 257.005 24.8666 256.81C25.1539 256.615 25.4176 256.502 25.4551 256.558Z" fill="#263238"/>
<path d="M27.0727 258.751C27.0991 258.813 26.7802 259.009 26.3603 259.188C25.9403 259.367 25.5787 259.462 25.5523 259.4C25.5259 259.338 25.8448 259.143 26.2647 258.964C26.6847 258.784 27.0463 258.689 27.0727 258.751Z" fill="#263238"/>
<path d="M27.7138 261.142C27.722 261.209 27.3976 261.304 26.9893 261.355C26.5808 261.405 26.243 261.392 26.2345 261.325C26.2264 261.259 26.5508 261.164 26.9593 261.113C27.3676 261.062 27.7054 261.075 27.7138 261.142Z" fill="#263238"/>
<path d="M28.0386 264.087C28.0118 264.149 27.6659 264.058 27.2665 263.884C26.8667 263.71 26.5645 263.52 26.5915 263.458C26.6183 263.396 26.9639 263.487 27.3636 263.661C27.7634 263.835 28.0656 264.025 28.0386 264.087Z" fill="#263238"/>
<path d="M27.7583 266.615C27.7371 266.676 27.2999 266.572 26.8431 266.272C26.3847 265.974 26.114 265.615 26.1616 265.571C26.2112 265.522 26.5431 265.787 26.9761 266.068C27.4072 266.352 27.7831 266.55 27.7583 266.615Z" fill="#263238"/>
<path d="M26.4362 268.914C26.3961 268.966 26.0482 268.762 25.7143 268.401C25.3791 268.042 25.2011 267.68 25.2559 267.643C25.3126 267.605 25.5718 267.891 25.8927 268.235C26.2119 268.581 26.4786 268.86 26.4362 268.914Z" fill="#263238"/>
<path d="M13.9458 269.183C13.9767 269.242 13.6116 269.494 13.1297 269.745C12.6477 269.996 12.232 270.151 12.2011 270.091C12.1701 270.031 12.5353 269.78 13.0172 269.529C13.4987 269.278 13.9145 269.123 13.9458 269.183Z" fill="#263238"/>
<path d="M12.8098 267.103C12.8375 267.164 12.5444 267.357 12.1554 267.533C11.7661 267.71 11.4283 267.803 11.4003 267.742C11.3725 267.681 11.6653 267.488 12.0546 267.311C12.4439 267.135 12.7817 267.042 12.8098 267.103Z" fill="#263238"/>
<path d="M11.9654 265.26C11.9749 265.327 11.6143 265.433 11.1601 265.497C10.7056 265.562 10.3296 265.56 10.3205 265.493C10.311 265.427 10.6717 265.321 11.1258 265.256C11.58 265.192 11.956 265.193 11.9654 265.26Z" fill="#263238"/>
<path d="M14.7147 264.245C14.7345 264.308 14.3827 264.472 13.9135 264.525C13.4444 264.578 13.0648 264.497 13.0704 264.431C13.0749 264.362 13.4421 264.334 13.8862 264.282C14.3306 264.233 14.6951 264.18 14.7147 264.245Z" fill="#263238"/>
<path d="M17.0019 261.97C17.0218 262.033 16.7417 262.175 16.3642 262.211C15.9866 262.249 15.6844 262.165 15.6915 262.099C15.6981 262.031 15.9892 262.004 16.3401 261.969C16.6912 261.935 16.9824 261.905 17.0019 261.97Z" fill="#263238"/>
<path d="M17.4396 260.15C17.4177 260.213 17.1145 260.166 16.7627 260.045C16.4109 259.923 16.1432 259.773 16.1653 259.709C16.1872 259.645 16.4904 259.692 16.8422 259.814C17.194 259.936 17.4617 260.086 17.4396 260.15Z" fill="#263238"/>
<path d="M18.2815 258.308C18.2348 258.354 18.0265 258.217 17.8781 257.959C17.7288 257.701 17.7141 257.452 17.778 257.435C17.8439 257.416 17.9561 257.608 18.0891 257.837C18.2202 258.067 18.3307 258.26 18.2815 258.308Z" fill="#263238"/>
<path d="M17.2636 265.849C17.2795 265.914 17.0171 266.034 16.6773 266.117C16.481 266.165 16.302 266.19 16.1846 266.19L16.1367 266.047C16.2248 266.031 16.2815 266.035 16.2929 266.061C16.3043 266.087 16.2684 266.131 16.1974 266.185L16.1494 266.043C16.2534 265.989 16.4236 265.928 16.6199 265.88C16.9594 265.798 17.2476 265.783 17.2636 265.849Z" fill="#263238"/>
<path d="M17.7376 269.078C17.762 269.14 17.4275 269.33 16.9903 269.502C16.5527 269.674 16.1784 269.763 16.1536 269.7C16.1291 269.637 16.4637 269.447 16.9009 269.275C17.3385 269.104 17.7131 269.015 17.7376 269.078Z" fill="#263238"/>
<path d="M15.1552 267.645C15.1771 267.708 14.9537 267.842 14.6567 267.943C14.3596 268.044 14.1014 268.074 14.0796 268.01C14.058 267.947 14.2811 267.813 14.5781 267.712C14.8751 267.611 15.1334 267.581 15.1552 267.645Z" fill="#263238"/>
<path d="M15.3556 261.07C15.3402 261.135 14.9516 261.096 14.5026 260.937C14.0533 260.778 13.7273 260.563 13.7556 260.504C13.7846 260.442 14.1475 260.553 14.5838 260.707C15.0197 260.862 15.3719 261.004 15.3556 261.07Z" fill="#263238"/>
<path d="M21.5922 260.356C21.6294 260.412 21.4103 260.622 21.1034 260.824C20.7963 261.027 20.5175 261.145 20.4807 261.089C20.4435 261.033 20.6623 260.823 20.9694 260.621C21.2762 260.418 21.555 260.299 21.5922 260.356Z" fill="#263238"/>
<path d="M21.9405 263.598C21.9542 263.664 21.7243 263.768 21.427 263.83C21.1296 263.891 20.8776 263.888 20.8639 263.822C20.8502 263.756 21.08 263.653 21.3774 263.591C21.6748 263.529 21.9268 263.533 21.9405 263.598Z" fill="#263238"/>
<path d="M22.3395 267.245C22.3111 267.306 21.9802 267.213 21.6 267.037C21.2198 266.861 20.9345 266.669 20.9629 266.608C20.9912 266.547 21.3222 266.64 21.7024 266.816C22.0825 266.992 22.3678 267.184 22.3395 267.245Z" fill="#263238"/>
<path d="M21.4984 270.795C21.4462 270.838 21.2314 270.662 21.0181 270.402C20.8049 270.143 20.6741 269.898 20.7263 269.855C20.7782 269.812 20.9933 269.988 21.2066 270.248C21.4195 270.507 21.5502 270.752 21.4984 270.795Z" fill="#263238"/>
<path d="M21.3262 257.968C21.3673 258.02 21.2255 258.198 20.9819 258.32C20.7387 258.443 20.5104 258.45 20.4935 258.386C20.4752 258.32 20.6532 258.214 20.8727 258.103C21.0928 257.993 21.2845 257.914 21.3262 257.968Z" fill="#263238"/>
<path d="M24.3893 261.239C24.4115 261.301 24.1284 261.457 23.7408 261.51C23.3534 261.565 23.0385 261.492 23.043 261.426C23.0466 261.358 23.3462 261.32 23.7072 261.269C24.0685 261.22 24.3671 261.174 24.3893 261.239Z" fill="#263238"/>
<path d="M23.7812 258.302C23.8112 258.361 23.5298 258.562 23.1301 258.689C22.7304 258.818 22.3851 258.817 22.3753 258.752C22.3642 258.685 22.6762 258.58 23.0561 258.457C23.4359 258.336 23.7509 258.241 23.7812 258.302Z" fill="#263238"/>
<path d="M25.0527 265.786C25.0517 265.852 24.5708 265.894 23.9907 265.788C23.41 265.684 22.9747 265.475 22.9969 265.413C23.0191 265.348 23.4739 265.448 24.0341 265.548C24.5936 265.651 25.0549 265.717 25.0527 265.786Z" fill="#263238"/>
<path d="M23.917 270.052C23.8766 270.104 23.5225 269.895 23.1691 269.54C22.8147 269.185 22.6079 268.83 22.6604 268.789C22.7146 268.747 22.9992 269.025 23.3419 269.368C23.6833 269.712 23.9594 269.998 23.917 270.052Z" fill="#263238"/>
<path d="M18.9238 254.832C18.96 254.885 17.9525 255.293 16.7882 256.52C15.6245 257.72 14.424 259.839 14.1282 262.399C13.9867 263.672 14.108 264.903 14.2887 266.002C14.4788 267.102 14.7308 268.079 14.9633 268.893C15.1971 269.707 15.4116 270.359 15.5557 270.811C15.7001 271.263 15.7774 271.514 15.7608 271.52C15.7458 271.526 15.6385 271.286 15.4664 270.843C15.2945 270.399 15.0542 269.755 14.7983 268.943C14.5433 268.131 14.2717 267.151 14.0673 266.04C13.8726 264.931 13.7406 263.68 13.886 262.371C14.1879 259.752 15.4445 257.593 16.664 256.4C17.2707 255.794 17.841 255.39 18.2571 255.156C18.4589 255.028 18.6333 254.96 18.7445 254.902C18.8589 254.849 18.9202 254.825 18.9238 254.832Z" fill="#263238"/>
<path d="M22.2447 271.677C22.1919 271.65 22.7921 270.726 23.3396 269.061C23.9033 267.416 24.3696 264.979 23.994 262.334C23.8182 261.014 23.4367 259.791 22.9568 258.747C22.4586 257.716 21.8163 256.872 21.188 256.283C20.5381 255.708 19.9 255.379 19.455 255.188C19.0044 255 18.7347 254.956 18.7383 254.935C18.7396 254.928 18.8081 254.932 18.9375 254.951C19.0657 254.974 19.2548 255.017 19.4892 255.099C19.9545 255.268 20.6157 255.578 21.3017 256.154C21.9698 256.75 22.633 257.592 23.1596 258.65C23.6617 259.713 24.0562 260.956 24.2356 262.3C24.618 264.995 24.1143 267.469 23.5026 269.117C23.365 269.538 23.188 269.899 23.0559 270.223C22.8991 270.538 22.7696 270.811 22.6506 271.027C22.4025 271.454 22.2594 271.685 22.2447 271.677Z" fill="#263238"/>
<path d="M12.8008 271.101H26.2283L26.3108 273.788H12.8008V271.101Z" fill="#FBECB8"/>
<path d="M13.9492 272.444L14.7203 280.648H24.5368L25.3252 272.534L13.9492 272.444Z" fill="#FBECB8"/>
<path d="M26.3228 273.82C26.3228 273.887 23.299 273.942 19.5699 273.942C15.8396 273.942 12.8164 273.888 12.8164 273.82C12.8164 273.753 15.8396 273.698 19.5699 273.698C23.299 273.698 26.3228 273.753 26.3228 273.82Z" fill="#263238"/>
<path d="M24.9434 276.32C24.9564 276.328 24.8658 276.517 24.6558 276.833C24.4452 277.147 24.11 277.589 23.6144 278.062L23.5528 278.121L23.4918 278.058C22.8453 277.379 21.9571 276.548 20.8602 275.754L21.0086 275.747C20.6336 276.076 20.243 276.419 19.842 276.771C19.3653 277.186 18.9033 277.589 18.4628 277.972L18.3865 278.039L18.3099 277.974C17.4739 277.271 16.7132 276.632 16.0679 276.089L16.1983 276.075C15.7353 276.641 15.3464 277.115 15.0386 277.491C14.7595 277.822 14.5977 278 14.5831 277.989C14.5687 277.978 14.7031 277.778 14.9577 277.428C15.2485 277.039 15.616 276.548 16.0539 275.963L16.1097 275.888L16.1843 275.949C16.8394 276.479 17.6111 277.105 18.4598 277.793L18.3073 277.795C18.7461 277.41 19.2062 277.006 19.6812 276.589C20.0836 276.238 20.4755 275.896 20.8514 275.569L20.9235 275.506L21.0001 275.562C22.1054 276.375 22.9897 277.234 23.619 277.94L23.4964 277.935C24.4925 277.031 24.9049 276.291 24.9434 276.32Z" fill="#263238"/>
<path d="M186.301 281.395H44.1676C41.5445 281.395 39.418 279.269 39.418 276.646V185.872C39.418 183.249 41.5445 181.122 44.1676 181.122H186.301C188.924 181.122 191.05 183.249 191.05 185.872V276.646C191.05 279.269 188.924 281.395 186.301 281.395Z" fill="#455A64"/>
<path d="M192.921 283.693H40.2445C37.0397 283.693 34.4414 281.095 34.4414 277.89V274.919H198.724V277.89C198.724 281.095 196.126 283.693 192.921 283.693Z" fill="#455A64"/>
<path d="M100.273 273.98L102.312 277.223H130.998L132.891 273.98H100.273Z" fill="#263238"/>
<path d="M189.728 273.98C189.728 274.034 156.073 274.078 114.567 274.078C73.0464 274.078 39.3984 274.034 39.3984 273.98C39.3984 273.926 73.0464 273.882 114.567 273.882C156.073 273.882 189.728 273.926 189.728 273.98Z" fill="#263238"/>
<path d="M185.042 271.329H44.8211C44.2316 271.329 43.7539 270.852 43.7539 270.262V187.957C43.7539 187.367 44.2316 186.89 44.8211 186.89H185.042C185.631 186.89 186.109 187.367 186.109 187.957V270.262C186.109 270.852 185.631 271.329 185.042 271.329Z" fill="#FBECB8"/>
<path d="M185.937 271.452H43.582L43.7343 193.199H185.937V271.452Z" fill="white"/>
<path d="M55.4181 190.15C55.4181 190.778 54.9091 191.287 54.2811 191.287C53.6532 191.287 53.1445 190.778 53.1445 190.15C53.1445 189.522 53.6535 189.014 54.2811 189.014C54.9088 189.014 55.4181 189.522 55.4181 190.15Z" fill="#263238"/>
<path d="M48.5317 190.153C48.5317 190.781 48.0227 191.29 47.3948 191.29C46.7671 191.29 46.2578 190.781 46.2578 190.153C46.2578 189.525 46.7671 189.017 47.3948 189.017C48.0227 189.017 48.5317 189.525 48.5317 190.153Z" fill="#263238"/>
<path d="M51.8247 190.153C51.8247 190.781 51.3157 191.29 50.6877 191.29C50.0597 191.29 49.5508 190.781 49.5508 190.153C49.5508 189.525 50.0597 189.017 50.6877 189.017C51.3157 189.017 51.8247 189.525 51.8247 190.153Z" fill="#263238"/>
<path d="M186.105 263.896H43.5977V271.453H186.105V263.896Z" fill="#263238"/>
<path d="M48.9831 268.549V268.791H47.8484V268.6L48.4601 268.019C48.6094 267.876 48.6358 267.786 48.6358 267.701C48.6358 267.56 48.539 267.478 48.3499 267.478C48.2005 267.478 48.075 267.529 47.9893 267.639L47.7891 267.485C47.9077 267.324 48.1213 267.229 48.374 267.229C48.7082 267.229 48.9237 267.399 48.9237 267.672C48.9237 267.821 48.882 267.958 48.6684 268.158L48.2573 268.549H48.9831Z" fill="white"/>
<path d="M49.1367 267.786C49.1367 267.676 49.2179 267.604 49.317 267.604C49.4158 267.604 49.4973 267.676 49.4973 267.786C49.4973 267.891 49.4158 267.968 49.317 267.968C49.2179 267.968 49.1367 267.891 49.1367 267.786ZM49.1367 268.624C49.1367 268.514 49.2179 268.442 49.317 268.442C49.4158 268.442 49.4973 268.514 49.4973 268.624C49.4973 268.729 49.4158 268.806 49.317 268.806C49.2179 268.807 49.1367 268.73 49.1367 268.624Z" fill="white"/>
<path d="M50.2129 267.251V268.791H49.9273V267.491H49.6016V267.251H50.2129Z" fill="white"/>
<path d="M51.8945 268.441H51.6216V268.791H51.3445V268.441H50.5V268.243L51.2587 267.251H51.5646L50.8495 268.199H51.3533V267.889H51.6216V268.199H51.8945V268.441Z" fill="white"/>
<path d="M171.211 267.827H54.4062V268.36H171.211V267.827Z" fill="white"/>
<path d="M90.818 267.253H54.3164V268.673H90.818V267.253Z" fill="#FBECB8"/>
<path d="M91.996 268.093C91.996 269.074 91.2005 269.87 90.2187 269.87C89.2373 269.87 88.4414 269.074 88.4414 268.093C88.4414 267.111 89.237 266.315 90.2187 266.315C91.2005 266.316 91.996 267.111 91.996 268.093Z" fill="#FBECB8"/>
<path d="M174.148 268.075C174.148 268.382 173.899 268.575 173.584 268.575C173.164 268.575 172.918 268.305 172.918 267.809C172.918 267.281 173.226 266.991 173.672 266.991C173.826 266.991 173.974 267.024 174.077 267.09L173.972 267.306C173.888 267.25 173.787 267.231 173.679 267.231C173.389 267.231 173.207 267.411 173.207 267.761V267.763C173.299 267.655 173.446 267.603 173.618 267.603C173.921 267.603 174.148 267.787 174.148 268.075ZM173.87 268.089C173.87 267.928 173.749 267.827 173.563 267.827C173.378 267.827 173.25 267.939 173.25 268.091C173.25 268.236 173.365 268.35 173.569 268.35C173.747 268.35 173.87 268.249 173.87 268.089Z" fill="white"/>
<path d="M174.289 267.548C174.289 267.438 174.37 267.365 174.469 267.365C174.568 267.365 174.65 267.438 174.65 267.548C174.65 267.653 174.568 267.73 174.469 267.73C174.37 267.73 174.289 267.653 174.289 267.548ZM174.289 268.386C174.289 268.276 174.37 268.204 174.469 268.204C174.568 268.204 174.65 268.276 174.65 268.386C174.65 268.491 174.568 268.568 174.469 268.568C174.37 268.568 174.289 268.491 174.289 268.386Z" fill="white"/>
<path d="M174.832 267.783C174.832 267.277 175.109 266.991 175.474 266.991C175.841 266.991 176.119 267.277 176.119 267.783C176.119 268.289 175.841 268.575 175.474 268.575C175.109 268.575 174.832 268.289 174.832 267.783ZM175.831 267.783C175.831 267.411 175.686 267.24 175.474 267.24C175.266 267.24 175.12 267.411 175.12 267.783C175.12 268.155 175.266 268.326 175.474 268.326C175.686 268.326 175.831 268.155 175.831 267.783Z" fill="white"/>
<path d="M176.309 267.783C176.309 267.277 176.585 266.991 176.951 266.991C177.318 266.991 177.595 267.277 177.595 267.783C177.595 268.289 177.318 268.575 176.951 268.575C176.586 268.575 176.309 268.289 176.309 267.783ZM177.307 267.783C177.307 267.411 177.162 267.24 176.951 267.24C176.742 267.24 176.597 267.411 176.597 267.783C176.597 268.155 176.742 268.326 176.951 268.326C177.162 268.326 177.307 268.155 177.307 267.783Z" fill="white"/>
<path d="M180.084 267.687H179.551V266.152H181.083V266.685H180.084V267.687Z" fill="white"/>
<path d="M181.086 269.691H179.551V268.159H180.083V269.159H181.086V269.691Z" fill="white"/>
<path d="M183.532 269.691H182V269.158H183V268.155H183.532V269.691Z" fill="white"/>
<path d="M183.535 267.684H183.003V266.685H182V266.152H183.535V267.684Z" fill="white"/>
<path d="M63.1133 197.853H54.7227L50.5273 205.119L54.7227 212.386H63.1133L67.3086 205.119L63.1133 197.853Z" fill="#FBECB8"/>
<path d="M55.4091 206.542C55.0341 206.127 54.6559 205.707 54.3827 205.219C54.1095 204.731 53.9464 204.162 54.0367 203.61C54.0896 203.287 54.2268 202.98 54.2487 202.653C54.2787 202.204 54.0899 201.735 54.249 201.314C54.4978 200.656 55.3833 200.555 55.9204 200.1C56.3384 199.747 56.5421 199.172 57.0022 198.874C57.4039 198.614 57.9204 198.62 58.3941 198.687C58.8682 198.754 59.3449 198.873 59.8193 198.81C60.1574 198.764 60.476 198.627 60.8072 198.545C61.1385 198.464 61.5079 198.442 61.803 198.613C62.0981 198.785 62.2637 199.203 62.07 199.484C62.6198 199.231 63.3178 199.66 63.4685 200.246C63.6188 200.832 63.3178 201.466 62.8519 201.852C62.3863 202.239 61.7838 202.419 61.189 202.531C59.505 202.848 57.6784 202.669 56.2272 201.758" fill="#263238"/>
<path d="M63.1956 208.335C63.1388 207.295 62.848 205.162 62.5621 203.236C62.2546 201.163 60.4078 199.674 58.3175 199.814L58.1098 199.828C55.8793 200.109 54.8715 202.16 55.2138 204.382L55.8685 212.386H61.312C61.312 212.386 61.1832 210.981 61.1825 210.968C61.1825 210.968 63.313 210.489 63.1956 208.335Z" fill="#FFBE9D"/>
<path d="M61.1678 210.937C61.1678 210.937 59.815 211.138 58.3086 210.327C58.3086 210.327 59.0755 211.832 61.2101 211.494L61.1678 210.937Z" fill="#EB996E"/>
<path d="M61.8742 205.085C61.8909 205.247 61.7673 205.394 61.5987 205.415C61.4302 205.435 61.2799 205.321 61.2632 205.159C61.2466 204.997 61.3698 204.849 61.5384 204.829C61.7073 204.808 61.8579 204.923 61.8742 205.085Z" fill="#263238"/>
<path d="M62.1577 204.321C62.1222 204.364 61.8779 204.207 61.547 204.23C61.2164 204.248 60.9849 204.435 60.9464 204.397C60.9275 204.38 60.9614 204.305 61.0622 204.221C61.161 204.137 61.3334 204.051 61.5398 204.038C61.7459 204.025 61.9242 204.089 62.0289 204.16C62.1358 204.232 62.1753 204.302 62.1577 204.321Z" fill="#263238"/>
<path d="M58.7531 205.303C58.7698 205.465 58.6462 205.613 58.4776 205.633C58.3091 205.654 58.1588 205.539 58.1421 205.377C58.1255 205.215 58.2491 205.068 58.4173 205.047C58.5862 205.027 58.7365 205.142 58.7531 205.303Z" fill="#263238"/>
<path d="M58.8726 204.6C58.837 204.643 58.5925 204.486 58.2619 204.509C57.9312 204.527 57.6997 204.714 57.6613 204.676C57.6424 204.659 57.676 204.584 57.777 204.5C57.8758 204.416 58.0483 204.33 58.2544 204.317C58.4604 204.304 58.6388 204.369 58.7438 204.44C58.8507 204.511 58.8902 204.581 58.8726 204.6Z" fill="#263238"/>
<path d="M60.2837 206.969C60.2808 206.95 60.4842 206.901 60.8145 206.836C60.8983 206.821 60.9772 206.799 60.9877 206.74C61.0033 206.678 60.9619 206.59 60.9146 206.494C60.8214 206.295 60.7242 206.086 60.6218 205.868C60.2136 204.975 59.9123 204.239 59.9482 204.223C59.9844 204.207 60.3444 204.917 60.7526 205.81C60.8514 206.03 60.9453 206.24 61.0353 206.441C61.0737 206.534 61.136 206.639 61.1011 206.769C61.0825 206.834 61.0239 206.884 60.9704 206.902C60.9172 206.922 60.87 206.926 60.8282 206.932C60.494 206.972 60.2863 206.987 60.2837 206.969Z" fill="#263238"/>
<path d="M58.9295 203.294C58.9028 203.386 58.5699 203.366 58.1848 203.439C57.7985 203.504 57.493 203.638 57.4362 203.561C57.4108 203.524 57.4597 203.436 57.5803 203.34C57.7 203.245 57.8947 203.149 58.1258 203.107C58.357 203.066 58.5728 203.089 58.7179 203.137C58.864 203.185 58.9406 203.251 58.9295 203.294Z" fill="#263238"/>
<path d="M61.9663 203.366C61.9132 203.445 61.68 203.383 61.4058 203.397C61.1313 203.402 60.9034 203.482 60.8447 203.407C60.8186 203.37 60.8502 203.293 60.9468 203.215C61.042 203.137 61.205 203.068 61.3938 203.061C61.5826 203.055 61.7501 203.112 61.8506 203.182C61.9523 203.253 61.9895 203.328 61.9663 203.366Z" fill="#263238"/>
<path d="M55.486 205.962C55.4481 205.948 53.978 205.623 54.1234 207.092C54.2688 208.56 55.86 208.081 55.8583 208.039C55.8567 207.997 55.486 205.962 55.486 205.962Z" fill="#FFBE9D"/>
<path d="M55.2139 207.56C55.207 207.555 55.1901 207.58 55.1487 207.604C55.1086 207.628 55.0372 207.648 54.9579 207.627C54.7972 207.585 54.642 207.352 54.6087 207.088C54.5918 206.955 54.6071 206.825 54.6439 206.715C54.6782 206.603 54.7401 206.521 54.8171 206.499C54.893 206.474 54.9527 206.515 54.9749 206.555C54.9987 206.594 54.9922 206.624 55.0003 206.626C55.0049 206.629 55.0293 206.598 55.0117 206.539C55.0029 206.51 54.9821 206.477 54.9449 206.452C54.9067 206.427 54.8536 206.418 54.7998 206.429C54.6873 206.448 54.5957 206.562 54.5553 206.683C54.5086 206.805 54.4881 206.951 54.507 207.101C54.5458 207.395 54.7245 207.658 54.9429 207.698C55.0489 207.714 55.132 207.675 55.1731 207.636C55.2145 207.596 55.2191 207.562 55.2139 207.56Z" fill="#EB996E"/>
<path d="M62.4451 201.225C62.3444 201.81 61.1588 202.345 60.1761 202.317C59.27 202.29 58.8223 201.841 58.164 201.521C57.7473 201.319 57.7474 201.319 57.182 201.411C56.7248 201.485 56.4875 202.025 56.2309 202.41C56.72 203.476 56.5224 204.716 56.315 205.87C56.2922 205.998 56.2638 206.136 56.1663 206.221C56.0013 206.367 55.7336 206.28 55.5713 206.131C55.3114 205.893 55.193 205.54 55.108 205.198C54.9139 204.419 54.8393 203.604 54.9625 202.81C55.0858 202.017 55.4138 201.247 55.956 200.654C56.6332 199.914 57.6234 199.488 58.6251 199.436C59.627 199.385 60.6329 199.695 61.4722 200.245C61.8612 200.5 62.225 200.815 62.4451 201.225Z" fill="#263238"/>
<path d="M60.4922 207.715C60.2428 207.598 59.9934 207.482 59.7439 207.366C59.7009 207.345 59.6549 207.325 59.6076 207.331C59.5545 207.339 59.5121 207.378 59.4782 207.419C59.3047 207.63 59.2607 207.947 59.3954 208.184C59.5297 208.422 59.846 208.547 60.0977 208.443C60.3628 208.333 60.4919 208.025 60.5124 207.738L60.4922 207.715Z" fill="#EB996E"/>
<path d="M60.1226 208.494C60.1343 208.509 59.9664 208.614 59.6841 208.534C59.5478 208.493 59.3922 208.388 59.2961 208.218C59.1979 208.053 59.162 207.817 59.2468 207.605C59.2873 207.499 59.3505 207.406 59.4278 207.333C59.4672 207.296 59.507 207.266 59.5553 207.237C59.6025 207.202 59.7043 207.197 59.7525 207.226C59.9237 207.321 60.0388 207.402 60.1536 207.476C60.373 207.621 60.5025 207.721 60.4907 207.742C60.479 207.762 60.3277 207.699 60.0929 207.58C59.9563 207.508 59.8243 207.439 59.6935 207.371C59.6622 207.362 59.6655 207.362 59.6355 207.378C59.6061 207.397 59.5716 207.424 59.5432 207.452C59.4848 207.51 59.4363 207.584 59.405 207.665C59.3397 207.829 59.3622 208.006 59.433 208.143C59.5031 208.281 59.6166 208.373 59.7258 208.421C59.9508 208.517 60.1184 208.467 60.1226 208.494Z" fill="#263238"/>
<path d="M59.8864 205.12C59.8698 205.121 59.8717 204.984 59.8065 204.754C59.742 204.528 59.5851 204.2 59.2444 203.949C58.9151 203.697 58.3768 203.559 57.8574 203.754C57.3422 203.933 56.8988 204.481 56.9046 205.12C56.8988 205.759 57.3425 206.308 57.8574 206.487C58.3768 206.682 58.9154 206.543 59.2444 206.291C59.5848 206.04 59.7416 205.712 59.8062 205.487C59.8717 205.257 59.8698 205.119 59.8864 205.12C59.8923 205.12 59.8962 205.154 59.8985 205.219C59.902 205.284 59.8959 205.381 59.8704 205.503C59.8228 205.743 59.6754 206.102 59.3171 206.387C58.9712 206.672 58.383 206.842 57.8039 206.634C57.23 206.445 56.7276 205.835 56.7344 205.12C56.7279 204.405 57.23 203.796 57.8039 203.607C58.383 203.399 58.9712 203.569 59.3171 203.854C59.6754 204.138 59.8228 204.498 59.8704 204.738C59.8959 204.86 59.902 204.957 59.8985 205.022C59.8962 205.086 59.8923 205.12 59.8864 205.12Z" fill="#263238"/>
<path d="M63.5497 204.976C63.5334 204.977 63.535 204.843 63.4708 204.619C63.4075 204.4 63.2546 204.08 62.923 203.836C62.6025 203.591 62.0782 203.456 61.5732 203.646C61.072 203.821 60.6406 204.354 60.6462 204.976C60.6403 205.598 61.072 206.132 61.5732 206.306C62.0785 206.496 62.6028 206.361 62.9233 206.116C63.2549 205.872 63.4079 205.552 63.4711 205.333C63.535 205.109 63.5334 204.975 63.5497 204.976C63.5556 204.976 63.5598 205.009 63.5621 205.072C63.5657 205.135 63.5598 205.23 63.535 205.349C63.489 205.583 63.3456 205.934 62.996 206.211C62.6589 206.489 62.0851 206.655 61.52 206.453C60.9602 206.269 60.4698 205.673 60.4766 204.976C60.4701 204.278 60.9602 203.683 61.52 203.499C62.0851 203.297 62.6589 203.463 62.996 203.74C63.3456 204.018 63.489 204.369 63.535 204.603C63.5598 204.721 63.5657 204.816 63.5621 204.879C63.5598 204.943 63.5556 204.976 63.5497 204.976Z" fill="#263238"/>
<path d="M60.5597 204.637C60.5264 204.669 60.381 204.575 60.185 204.581C59.9888 204.581 59.8479 204.68 59.813 204.651C59.7684 204.627 59.905 204.416 60.1821 204.411C60.4586 204.407 60.603 204.612 60.5597 204.637Z" fill="#263238"/>
<path d="M56.9146 204.902C56.9427 204.939 56.658 205.2 56.2785 205.483C55.8993 205.766 55.569 205.965 55.541 205.927C55.5129 205.89 55.7976 205.63 56.1771 205.347C56.5563 205.064 56.8866 204.864 56.9146 204.902Z" fill="#263238"/>
<path d="M87.1805 205.046C87.1805 205.093 83.4087 205.131 78.7566 205.131C74.1032 205.131 70.332 205.092 70.332 205.046C70.332 204.999 74.1032 204.961 78.7566 204.961C83.4084 204.961 87.1805 204.999 87.1805 205.046Z" fill="#263238"/>
<path d="M79.3841 206.809C79.3841 206.855 77.3811 206.893 74.9109 206.893C72.4398 206.893 70.4375 206.855 70.4375 206.809C70.4375 206.762 72.4401 206.724 74.9109 206.724C77.3811 206.724 79.3841 206.762 79.3841 206.809Z" fill="#263238"/>
<path d="M137.652 218.073C137.652 218.073 142.13 220.255 143.703 225.889C145.275 231.523 150.092 246.195 150.092 246.195C150.092 246.195 152.844 249.433 153.139 251.83C153.434 254.228 152.844 260.027 151.96 261.109C151.075 262.19 149.813 262.011 149.813 262.011L138.229 260.912L133.668 230.369L137.652 218.073Z" fill="#FBECB8"/>
<path d="M99.3509 217.54C99.3509 217.54 91.0681 220.138 89.0039 222.398L95.7861 253.95L95.6779 263.905H134.947C134.947 263.413 135.299 230.851 135.299 230.851L137.658 218.074L123.701 215.617L120.949 213.454L105.419 214.241L103.06 216.6L99.3509 217.54Z" fill="#FBECB8"/>
<g opacity="0.3">
<path d="M102.498 244.911C102.377 244.643 102.204 244.354 101.917 244.294C101.444 244.197 101.127 244.756 100.967 245.212C99.6907 248.823 98.0034 252.145 95.8078 255.284L95.707 260.128C97.9962 258.202 100.254 256.138 101.713 253.526C103.172 250.914 103.731 247.637 102.498 244.911Z" fill="black"/>
</g>
<path d="M89.0017 222.398C89.0017 222.398 86.2726 226.118 85.1393 228.547C84.0059 230.975 74.6156 251.375 74.0489 253.48C73.4822 255.585 72.0251 262.223 76.3156 263.761H85.1393L93.9959 245.852L94.4488 225.066L89.0017 222.398Z" fill="#FBECB8"/>
<path d="M85.707 250.824C85.6952 250.837 85.5104 250.65 85.1041 250.419C84.6985 250.19 84.0686 249.927 83.2521 249.749C82.8446 249.659 82.3914 249.589 81.9023 249.559C81.4129 249.528 80.8876 249.537 80.3545 249.66C79.2841 249.898 78.2205 250.574 77.3838 251.524C76.5345 252.473 76.0102 253.594 75.7021 254.651C75.3894 255.711 75.2557 256.705 75.1712 257.538C75.0888 258.373 75.0578 259.052 75.0291 259.521C75.0154 259.741 75.004 259.919 74.9952 260.062C74.9857 260.185 74.9779 260.25 74.972 260.25C74.9662 260.249 74.9626 260.185 74.9609 260.061C74.9616 259.918 74.9622 259.739 74.9632 259.519C74.972 259.049 74.9844 258.367 75.0519 257.527C75.1214 256.689 75.2433 255.685 75.5521 254.607C75.8556 253.534 76.3877 252.382 77.257 251.412C78.1129 250.439 79.211 249.745 80.3206 249.507C80.8739 249.384 81.4171 249.381 81.9117 249.418C82.409 249.455 82.8674 249.533 83.2792 249.631C84.1035 249.827 84.7363 250.112 85.138 250.363C85.3385 250.489 85.4836 250.603 85.5756 250.687C85.6659 250.773 85.7109 250.82 85.707 250.824Z" fill="#263238"/>
<path d="M81.5195 247.258C81.5186 247.246 81.6239 247.23 81.8162 247.21C82.0083 247.187 82.289 247.181 82.6346 247.199C82.9809 247.214 83.3911 247.273 83.8381 247.377C84.2828 247.489 84.7634 247.65 85.2434 247.875C85.7211 248.106 86.1485 248.378 86.5153 248.654C86.8772 248.936 87.1814 249.218 87.411 249.478C87.6425 249.735 87.8146 249.957 87.9173 250.121C88.023 250.283 88.0765 250.375 88.067 250.381C88.0409 250.399 87.8016 250.046 87.3239 249.56C87.0872 249.315 86.7807 249.049 86.4214 248.779C86.0572 248.516 85.6369 248.255 85.17 248.029C84.7008 247.808 84.2329 247.646 83.7996 247.529C83.364 247.419 82.9639 247.349 82.6249 247.319C81.947 247.253 81.5215 247.29 81.5195 247.258Z" fill="#263238"/>
<path d="M89.4933 246.276C89.4913 246.288 89.3456 246.276 89.0851 246.245C88.8249 246.212 88.447 246.174 87.9797 246.139C87.0462 246.069 85.7482 246.052 84.3296 246.22C82.9109 246.391 81.6533 246.714 80.7625 247.003C80.3168 247.147 79.9585 247.273 79.7136 247.367C79.4678 247.458 79.3289 247.504 79.3243 247.493C79.3198 247.482 79.4492 247.416 79.6885 247.305C79.9266 247.192 80.2803 247.048 80.7241 246.889C81.6106 246.569 82.8767 246.224 84.3094 246.051C85.7417 245.882 87.0534 245.918 87.9905 246.02C88.4594 246.07 88.8369 246.126 89.0952 246.18C89.3537 246.231 89.4956 246.265 89.4933 246.276Z" fill="#263238"/>
<path d="M114.636 228.848C114.633 228.85 114.602 228.814 114.546 228.741C114.483 228.657 114.404 228.551 114.306 228.419C114.089 228.12 113.791 227.706 113.418 227.19C112.657 226.115 111.594 224.617 110.345 222.854L110.482 222.834C110.007 224.231 109.482 225.771 108.93 227.392L108.895 227.495L108.806 227.438C108.748 227.4 108.685 227.36 108.623 227.32C107.892 226.857 107.248 226.3 106.701 225.697C106.157 225.092 105.705 224.445 105.33 223.8C104.579 222.507 104.127 221.231 103.82 220.151C103.515 219.067 103.355 218.17 103.248 217.552C103.197 217.256 103.156 217.019 103.125 216.841C103.11 216.759 103.094 216.7 103.083 216.659C103.068 216.621 103.061 216.6 103.063 216.598C103.099 216.583 103.195 216.925 103.313 217.539C103.44 218.153 103.617 219.044 103.935 220.117C104.255 221.187 104.716 222.448 105.464 223.721C105.839 224.356 106.287 224.991 106.824 225.585C107.364 226.176 107.997 226.722 108.713 227.176C108.775 227.216 108.836 227.255 108.893 227.291L108.769 227.337C109.326 225.717 109.855 224.178 110.335 222.783L110.385 222.638L110.472 222.764C111.701 224.541 112.745 226.052 113.495 227.136C113.852 227.662 114.138 228.084 114.346 228.39C114.436 228.527 114.509 228.638 114.566 228.726C114.616 228.804 114.64 228.845 114.636 228.848Z" fill="#263238"/>
<g opacity="0.3">
<path d="M124.855 243.909C124.491 247.557 125.296 251.312 127.124 254.49C128.952 257.668 131.629 260.5 134.964 262.021C135.072 258.783 134.917 254.969 135.024 251.73L124.855 243.909Z" fill="black"/>
</g>
<path d="M124.485 239.646C124.485 239.646 123.059 240.042 124.128 242.965C125.198 245.887 125.555 245.71 126.268 248.444C126.981 251.178 127.813 253.673 129.061 255.218C130.309 256.763 134.945 259.913 134.945 259.913L139.106 255.99C139.106 255.99 138.42 253.067 138.585 251.082C138.749 249.096 139.165 244.223 139.106 243.391C139.046 242.559 138.154 240.538 138.154 240.538V239.156L136.015 232.574C136.015 232.574 134.826 232.039 134.41 233.941L133.697 231.922C133.697 231.922 132.568 231.742 132.271 234.059C131.974 236.377 132.509 239.587 132.509 239.587L131.914 243.628L131.023 246.362L130.25 246.481C130.25 246.481 129.087 246.164 128.45 243.975C127.813 241.786 126.09 239.171 124.485 239.646Z" fill="#FFBE9D"/>
<path d="M137.709 249.983C137.705 249.984 137.698 249.932 137.69 249.833C137.682 249.72 137.672 249.576 137.66 249.398C137.638 248.999 137.609 248.448 137.572 247.761C137.508 246.342 137.419 244.367 137.315 242.062L137.333 242.11C137.142 241.881 136.801 241.813 136.491 241.89C136.177 241.966 135.895 242.162 135.72 242.455C135.357 243.04 135.337 243.802 135.223 244.537C134.998 246.203 134.783 247.789 134.587 249.235C134.488 249.957 134.384 250.644 134.243 251.28C134.106 251.917 133.914 252.496 133.727 253.013C133.543 253.533 133.38 254.002 133.279 254.425C133.178 254.847 133.137 255.221 133.145 255.525C133.158 256.14 133.336 256.451 133.31 256.458C133.304 256.46 133.27 256.382 133.21 256.23C133.161 256.075 133.092 255.84 133.079 255.528C133.061 255.217 133.093 254.834 133.187 254.403C133.281 253.972 133.437 253.496 133.614 252.974C133.793 252.453 133.975 251.882 134.105 251.25C134.239 250.619 134.337 249.936 134.432 249.214C134.624 247.768 134.834 246.181 135.055 244.515C135.108 244.143 135.148 243.776 135.212 243.41C135.278 243.047 135.379 242.681 135.579 242.366C135.769 242.045 136.102 241.81 136.454 241.73C136.801 241.643 137.217 241.719 137.455 242.007L137.472 242.028L137.473 242.055C137.553 244.361 137.62 246.337 137.669 247.757C137.687 248.444 137.701 248.996 137.712 249.396C137.714 249.574 137.715 249.718 137.716 249.832C137.716 249.932 137.714 249.983 137.709 249.983Z" fill="#EB996E"/>
<path d="M135.437 242.495C135.427 242.499 135.361 242.368 135.262 242.123C135.164 241.877 135.035 241.516 134.914 241.058C134.792 240.6 134.679 240.045 134.615 239.42C134.583 239.109 134.56 238.775 134.597 238.428C134.632 238.083 134.735 237.718 134.956 237.409C135.143 237.141 135.411 236.927 135.716 236.838L135.78 236.819L135.813 236.877C136.415 237.94 136.939 238.878 137.307 239.553C137.476 239.869 137.618 240.135 137.733 240.351C137.83 240.539 137.879 240.645 137.87 240.65C137.86 240.655 137.795 240.56 137.681 240.38C137.554 240.171 137.398 239.914 137.212 239.607C136.818 238.947 136.276 238.019 135.668 236.96L135.764 236.998C135.502 237.077 135.265 237.264 135.094 237.507C134.894 237.787 134.798 238.119 134.762 238.446C134.725 238.774 134.743 239.098 134.77 239.406C134.825 240.022 134.924 240.573 135.03 241.029C135.134 241.486 135.246 241.85 135.324 242.101C135.403 242.351 135.449 242.49 135.437 242.495Z" fill="#EB996E"/>
<path d="M134.445 243.03C134.433 243.03 134.42 242.895 134.406 242.651C134.395 242.37 134.381 242.025 134.364 241.616C134.336 240.743 134.309 239.536 134.29 238.203C134.28 236.871 134.228 235.659 134.343 234.782C134.398 234.344 134.486 233.996 134.566 233.764C134.645 233.53 134.71 233.41 134.718 233.413C134.748 233.423 134.537 233.928 134.462 234.794C134.38 235.658 134.45 236.866 134.46 238.2C134.479 239.533 134.487 240.741 134.485 241.615C134.48 242.024 134.476 242.37 134.473 242.65C134.466 242.894 134.457 243.03 134.445 243.03Z" fill="#EB996E"/>
<path d="M130.927 253.989C130.903 253.969 131.164 253.663 131.486 253.107C131.649 252.831 131.814 252.486 131.97 252.092C132.118 251.696 132.251 251.249 132.34 250.769C132.425 250.288 132.456 249.823 132.456 249.399C132.448 248.977 132.413 248.595 132.357 248.279C132.25 247.647 132.113 247.268 132.143 247.258C132.154 247.254 132.195 247.345 132.261 247.516C132.33 247.684 132.405 247.938 132.475 248.257C132.547 248.576 132.595 248.964 132.612 249.397C132.621 249.829 132.593 250.307 132.507 250.799C132.416 251.291 132.274 251.748 132.115 252.15C131.948 252.549 131.767 252.896 131.588 253.169C131.411 253.443 131.252 253.655 131.128 253.789C131.007 253.925 130.936 253.996 130.927 253.989Z" fill="#EB996E"/>
<path d="M138.225 251.944L141.836 253.197C141.836 253.197 145.283 251.414 147.66 253.197C150.037 254.98 152.102 259.679 151.448 261.581C151.448 261.581 149.808 263.607 148.56 263.904C147.312 264.201 142.46 263.026 140.441 262.601C138.417 262.175 134.941 259.913 134.941 259.913L138.225 251.944Z" fill="#FFBE9D"/>
<path d="M138.67 257.263C138.658 257.263 138.645 257.149 138.632 256.943C138.617 256.699 138.6 256.409 138.58 256.071C138.542 255.335 138.492 254.316 138.477 253.189C138.46 252.062 138.492 251.039 138.56 250.302C138.592 249.934 138.633 249.636 138.67 249.433C138.707 249.229 138.733 249.117 138.744 249.119C138.771 249.123 138.715 249.576 138.68 250.311C138.643 251.045 138.63 252.062 138.647 253.187C138.668 254.289 138.686 255.285 138.7 256.068C138.704 256.437 138.703 256.736 138.698 256.942C138.691 257.149 138.682 257.263 138.67 257.263Z" fill="#EB996E"/>
<path d="M150.578 253.056C150.551 253.081 150.181 252.567 149.377 251.973C148.586 251.38 147.301 250.748 145.779 250.663C144.257 250.581 142.91 251.068 142.059 251.57C141.194 252.072 140.771 252.542 140.746 252.514C140.74 252.507 140.84 252.387 141.044 252.192C141.248 251.996 141.566 251.735 141.997 251.467C142.847 250.929 144.223 250.409 145.789 250.493C147.353 250.581 148.664 251.25 149.449 251.877C149.848 252.191 150.136 252.485 150.317 252.703C150.499 252.919 150.585 253.05 150.578 253.056Z" fill="#263238"/>
<path d="M150.116 250.045C150.092 250.08 149.61 249.593 148.613 249.217C147.632 248.832 146.111 248.655 144.549 249.095C143.769 249.312 143.056 249.624 142.447 249.969C141.838 250.318 141.329 250.7 140.924 251.045C140.519 251.391 140.209 251.693 139.996 251.903C139.784 252.113 139.666 252.229 139.657 252.221C139.649 252.214 139.75 252.082 139.949 251.857C140.147 251.632 140.446 251.315 140.845 250.955C141.244 250.594 141.753 250.196 142.368 249.834C142.985 249.474 143.708 249.153 144.503 248.931C146.103 248.48 147.666 248.683 148.657 249.105C149.158 249.311 149.531 249.547 149.768 249.732C149.891 249.82 149.973 249.905 150.033 249.956C150.091 250.01 150.119 250.041 150.116 250.045Z" fill="#263238"/>
<path d="M150.141 247.436C150.132 247.47 149.501 247.277 148.452 247.135C147.929 247.061 147.3 247.019 146.602 247.018C145.904 247.028 145.137 247.085 144.342 247.221C143.549 247.365 142.809 247.572 142.149 247.801C141.493 248.041 140.916 248.295 140.449 248.543C139.512 249.035 138.985 249.432 138.965 249.403C138.958 249.393 139.087 249.291 139.327 249.114C139.445 249.024 139.594 248.917 139.775 248.808C139.955 248.696 140.155 248.559 140.393 248.437C140.856 248.173 141.435 247.904 142.096 247.654C142.76 247.414 143.509 247.199 144.313 247.054C145.117 246.916 145.895 246.863 146.601 246.861C147.308 246.871 147.943 246.926 148.469 247.016C148.734 247.05 148.969 247.11 149.176 247.153C149.384 247.195 149.56 247.244 149.702 247.288C149.988 247.373 150.144 247.425 150.141 247.436Z" fill="#263238"/>
<path d="M122.486 215.508C122.486 215.508 122.653 215.82 122.736 216.468C122.824 217.111 122.812 218.075 122.599 219.269C122.492 219.865 122.347 220.521 122.132 221.221C121.908 221.921 121.569 222.638 121.184 223.389C120.406 224.889 119.428 226.524 118.295 228.268L118.162 228.471L118.162 228.228C118.16 227.075 118.158 225.866 118.156 224.61L118.283 224.67C117.313 225.454 116.291 226.279 115.238 227.128L115.265 227.089C114.559 229.326 114.094 231.816 113.91 234.409C113.612 238.377 113.852 242.172 114.04 245.615C114.2 249.063 114.305 252.168 114.413 254.775C114.516 257.382 114.61 259.491 114.689 260.948C114.732 261.67 114.765 262.233 114.788 262.625C114.8 262.81 114.81 262.955 114.817 263.061C114.823 263.159 114.821 263.21 114.821 263.21C114.821 263.21 114.811 263.16 114.8 263.062C114.789 262.957 114.773 262.813 114.754 262.628C114.718 262.245 114.671 261.68 114.623 260.952C114.524 259.496 114.412 257.387 114.293 254.78C114.176 252.171 114.037 249.068 113.883 245.623C113.688 242.183 113.442 238.379 113.741 234.396C113.926 231.793 114.395 229.289 115.108 227.039L115.116 227.016L115.135 227C116.19 226.153 117.213 225.33 118.185 224.548L118.313 224.446L118.312 224.609C118.31 225.865 118.308 227.075 118.307 228.227L118.174 228.187C120.414 224.713 122.236 221.695 122.516 219.253C122.74 218.068 122.766 217.112 122.692 216.473C122.66 216.152 122.598 215.912 122.558 215.75C122.507 215.592 122.486 215.508 122.486 215.508Z" fill="#263238"/>
<path d="M116.635 257.566L116.518 257.562C116.047 257.576 115.626 258.007 115.625 258.479C115.624 258.951 116.041 259.385 116.513 259.401C116.985 259.417 117.431 259.014 117.463 258.543C117.494 258.072 117.105 257.612 116.635 257.566Z" fill="white"/>
<path d="M116.631 245.001L116.514 244.997C116.043 245.011 115.622 245.442 115.621 245.914C115.62 246.385 116.037 246.819 116.509 246.836C116.981 246.852 117.427 246.448 117.459 245.978C117.49 245.507 117.101 245.047 116.631 245.001Z" fill="white"/>
<path d="M116.509 233.759C116.981 233.775 117.427 233.371 117.459 232.9C117.49 232.43 117.101 231.97 116.631 231.924L116.514 231.92C116.043 231.934 115.622 232.365 115.621 232.836C115.619 233.308 116.037 233.742 116.509 233.759Z" fill="white"/>
<path d="M102.433 200.782C101.289 199.516 100.136 198.237 99.3028 196.749C98.4698 195.26 97.9725 193.524 98.2484 191.841C98.4098 190.857 98.8278 189.919 98.8943 188.924C98.9859 187.555 98.4101 186.124 98.8956 184.841C99.6543 182.835 102.355 182.525 103.992 181.139C105.267 180.06 105.888 178.308 107.29 177.4C108.515 176.607 110.09 176.625 111.534 176.829C112.979 177.033 114.433 177.398 115.88 177.204C116.911 177.065 117.882 176.648 118.892 176.398C119.902 176.148 121.028 176.082 121.928 176.605C122.828 177.127 123.332 178.404 122.742 179.261C124.419 178.489 126.547 179.795 127.006 181.583C127.465 183.37 126.547 185.301 125.127 186.481C123.707 187.659 121.87 188.208 120.056 188.55C114.921 189.517 109.351 188.972 104.927 186.193" fill="#263238"/>
<path d="M120.477 218.043C120.226 216.099 120.021 214.478 120.008 214.276C120.008 214.276 126.504 212.816 126.146 206.249C125.973 203.075 125.084 196.566 124.212 190.687C123.276 184.374 117.641 179.842 111.272 180.268L110.639 180.31C103.838 181.166 100.765 187.42 101.809 194.195L105.478 216.911C105.478 216.911 107.044 221.936 110.393 222.806L114.621 228.845L115.32 226.245L118.47 223.502C118.47 223.502 119.193 222.72 120.024 221.19C120.702 219.939 120.559 218.653 120.477 218.043Z" fill="#FFBE9D"/>
<path d="M120.023 214.182C120.023 214.182 115.898 214.797 111.305 212.323C111.305 212.323 113.643 216.911 120.152 215.882L120.023 214.182Z" fill="#EB996E"/>
<path d="M122.086 196.332C122.137 196.826 121.76 197.276 121.246 197.338C120.732 197.4 120.274 197.052 120.223 196.558C120.173 196.064 120.549 195.613 121.063 195.551C121.577 195.489 122.035 195.839 122.086 196.332Z" fill="#263238"/>
<path d="M123.005 194.004C122.897 194.134 122.152 193.656 121.143 193.726C120.135 193.782 119.43 194.35 119.312 194.234C119.255 194.183 119.358 193.954 119.664 193.698C119.966 193.444 120.492 193.18 121.12 193.141C121.749 193.102 122.292 193.298 122.612 193.514C122.939 193.732 123.058 193.945 123.005 194.004Z" fill="#263238"/>
<path d="M112.555 197.017C112.605 197.51 112.229 197.96 111.715 198.022C111.201 198.085 110.743 197.736 110.692 197.242C110.642 196.749 111.018 196.298 111.532 196.236C112.046 196.173 112.504 196.523 112.555 197.017Z" fill="#263238"/>
<path d="M113.118 194.855C113.01 194.985 112.264 194.507 111.256 194.577C110.248 194.633 109.543 195.201 109.425 195.085C109.368 195.034 109.47 194.805 109.778 194.549C110.08 194.294 110.606 194.031 111.234 193.991C111.862 193.953 112.406 194.149 112.726 194.365C113.051 194.583 113.172 194.797 113.118 194.855Z" fill="#263238"/>
<path d="M117.259 202.09C117.25 202.033 117.87 201.883 118.877 201.685C119.133 201.641 119.373 201.574 119.405 201.395C119.453 201.205 119.327 200.935 119.182 200.643C118.898 200.037 118.601 199.4 118.289 198.733C117.045 196.012 116.126 193.768 116.235 193.719C116.346 193.67 117.443 195.835 118.688 198.557C118.988 199.228 119.276 199.868 119.549 200.481C119.666 200.767 119.856 201.088 119.75 201.482C119.694 201.679 119.514 201.832 119.352 201.887C119.19 201.949 119.046 201.961 118.919 201.977C117.9 202.1 117.266 202.147 117.259 202.09Z" fill="#263238"/>
<path d="M113.097 190.888C113.015 191.169 112 191.106 110.826 191.328C109.648 191.527 108.717 191.937 108.544 191.702C108.466 191.588 108.615 191.319 108.983 191.028C109.347 190.737 109.941 190.445 110.646 190.318C111.351 190.193 112.009 190.262 112.451 190.409C112.898 190.554 113.131 190.755 113.097 190.888Z" fill="#263238"/>
<path d="M122.427 191.108C122.265 191.349 121.554 191.158 120.718 191.202C119.881 191.218 119.186 191.46 119.007 191.231C118.928 191.119 119.024 190.882 119.318 190.645C119.608 190.408 120.106 190.198 120.682 190.177C121.257 190.156 121.768 190.331 122.074 190.546C122.385 190.762 122.498 190.991 122.427 191.108Z" fill="#263238"/>
<path d="M102.662 199.022C102.547 198.981 98.064 197.99 98.5074 202.467C98.9508 206.944 103.803 205.484 103.798 205.355C103.793 205.226 102.662 199.022 102.662 199.022Z" fill="#FFBE9D"/>
<path d="M101.818 203.886C101.797 203.873 101.746 203.948 101.62 204.022C101.497 204.093 101.28 204.156 101.038 204.091C100.548 203.965 100.075 203.253 99.9734 202.448C99.9216 202.042 99.9689 201.646 100.081 201.31C100.186 200.969 100.375 200.719 100.609 200.654C100.84 200.575 101.023 200.701 101.09 200.822C101.163 200.941 101.143 201.033 101.167 201.039C101.181 201.049 101.256 200.954 101.202 200.773C101.174 200.686 101.111 200.585 100.998 200.51C100.882 200.433 100.719 200.404 100.555 200.438C100.212 200.496 99.933 200.845 99.8091 201.213C99.6666 201.585 99.604 202.031 99.6624 202.488C99.7804 203.387 100.326 204.185 100.992 204.308C101.315 204.359 101.568 204.238 101.693 204.119C101.821 203.995 101.835 203.892 101.818 203.886Z" fill="#EB996E"/>
<path d="M123.882 184.574C123.575 186.356 119.96 187.989 116.964 187.901C114.201 187.821 112.836 186.45 110.829 185.476C109.558 184.859 109.558 184.859 107.834 185.139C106.44 185.366 105.716 187.011 104.934 188.186C106.425 191.437 105.822 195.216 105.19 198.736C105.12 199.125 105.033 199.545 104.737 199.806C104.234 200.25 103.418 199.984 102.923 199.531C102.13 198.806 101.769 197.73 101.51 196.687C100.918 194.312 100.691 191.825 101.066 189.407C101.442 186.988 102.443 184.639 104.095 182.834C106.16 180.577 109.179 179.277 112.234 179.12C115.288 178.963 118.356 179.908 120.915 181.584C122.102 182.362 123.212 183.323 123.882 184.574Z" fill="#263238"/>
<path d="M117.945 204.358C117.184 204.003 116.423 203.649 115.663 203.294C115.532 203.233 115.391 203.17 115.248 203.189C115.086 203.211 114.956 203.332 114.853 203.458C114.324 204.099 114.19 205.066 114.6 205.789C115.01 206.513 115.973 206.895 116.741 206.577C117.55 206.242 117.943 205.303 118.006 204.43L117.945 204.358Z" fill="#EB996E"/>
<path d="M116.814 206.738C116.821 206.758 116.709 206.823 116.48 206.871C116.254 206.914 115.904 206.931 115.499 206.799C115.098 206.67 114.645 206.358 114.365 205.857C114.081 205.369 113.978 204.679 114.226 204.057C114.345 203.748 114.53 203.475 114.756 203.259C114.87 203.15 114.989 203.06 115.126 202.979C115.197 202.939 115.287 202.901 115.389 202.895C115.49 202.89 115.58 202.916 115.654 202.947C115.803 203.013 115.9 203.085 116.01 203.148C116.116 203.214 116.22 203.278 116.321 203.339C116.517 203.462 116.703 203.578 116.876 203.687C117.553 204.117 117.96 204.403 117.936 204.443C117.913 204.484 117.463 204.271 116.756 203.895C116.576 203.798 116.383 203.693 116.179 203.583C116.075 203.526 115.969 203.467 115.86 203.407C115.75 203.348 115.632 203.274 115.537 203.237C115.433 203.201 115.388 203.203 115.287 203.261C115.188 203.324 115.08 203.406 114.987 203.498C114.8 203.684 114.644 203.917 114.544 204.179C114.335 204.704 114.41 205.275 114.64 205.707C114.868 206.145 115.236 206.43 115.583 206.574C115.933 206.719 116.251 206.741 116.467 206.74C116.684 206.734 116.807 206.713 116.814 206.738Z" fill="#263238"/>
<path d="M116.093 196.446C116.066 196.448 116.096 196.029 115.914 195.312C115.735 194.609 115.266 193.576 114.21 192.777C113.686 192.387 113.027 192.055 112.267 191.922C111.512 191.794 110.661 191.819 109.851 192.128C109.443 192.27 109.05 192.485 108.689 192.755C108.323 193.021 107.992 193.35 107.719 193.731C107.153 194.483 106.835 195.449 106.826 196.445C106.835 197.441 107.153 198.408 107.718 199.16C107.991 199.542 108.323 199.871 108.689 200.136C109.05 200.407 109.443 200.622 109.851 200.764C110.661 201.073 111.512 201.098 112.267 200.969C113.027 200.836 113.686 200.505 114.209 200.115C115.266 199.315 115.734 198.282 115.914 197.579C116.096 196.863 116.066 196.444 116.093 196.446C116.095 196.446 116.097 196.472 116.097 196.522C116.097 196.582 116.096 196.655 116.095 196.745C116.095 196.843 116.09 196.965 116.066 197.107C116.047 197.249 116.029 197.415 115.978 197.595C115.902 197.961 115.737 198.396 115.472 198.857C115.205 199.317 114.816 199.799 114.282 200.21C113.75 200.617 113.075 200.964 112.293 201.108C111.516 201.246 110.637 201.226 109.797 200.911C109.375 200.766 108.967 200.546 108.592 200.267C108.213 199.993 107.869 199.653 107.584 199.258C106.997 198.481 106.665 197.477 106.656 196.445C106.665 195.413 106.998 194.41 107.585 193.633C107.869 193.238 108.213 192.898 108.592 192.625C108.967 192.346 109.375 192.126 109.797 191.981C110.637 191.666 111.516 191.645 112.293 191.784C113.075 191.927 113.75 192.275 114.282 192.682C114.816 193.092 115.205 193.574 115.472 194.034C115.737 194.495 115.902 194.93 115.978 195.296C116.029 195.476 116.047 195.642 116.066 195.784C116.09 195.926 116.095 196.048 116.095 196.146C116.096 196.236 116.097 196.309 116.098 196.369C116.097 196.42 116.095 196.446 116.093 196.446Z" fill="#263238"/>
<path d="M127.263 196.007C127.237 196.009 127.266 195.6 127.089 194.902C126.914 194.218 126.457 193.211 125.428 192.433C124.918 192.053 124.276 191.73 123.536 191.601C122.8 191.476 121.971 191.5 121.182 191.801C120.785 191.939 120.403 192.148 120.051 192.412C119.695 192.67 119.372 192.991 119.106 193.363C118.555 194.095 118.246 195.036 118.237 196.006C118.245 196.976 118.555 197.917 119.106 198.65C119.372 199.021 119.695 199.342 120.051 199.601C120.403 199.864 120.785 200.073 121.182 200.212C121.972 200.513 122.801 200.537 123.536 200.412C124.276 200.283 124.918 199.96 125.428 199.58C126.457 198.801 126.914 197.795 127.089 197.111C127.266 196.412 127.237 196.004 127.263 196.007C127.269 196.007 127.27 196.107 127.266 196.298C127.266 196.394 127.261 196.512 127.238 196.651C127.22 196.79 127.202 196.951 127.153 197.127C126.995 197.826 126.548 198.863 125.5 199.676C124.982 200.072 124.324 200.411 123.561 200.551C122.804 200.686 121.947 200.666 121.129 200.359C120.717 200.218 120.319 200.003 119.954 199.732C119.584 199.465 119.248 199.133 118.971 198.749C118.399 197.991 118.075 197.013 118.066 196.006C118.075 195 118.399 194.022 118.971 193.265C119.248 192.88 119.584 192.549 119.954 192.282C120.319 192.01 120.717 191.796 121.128 191.654C121.947 191.347 122.804 191.328 123.561 191.462C124.323 191.602 124.981 191.941 125.5 192.337C126.547 193.149 126.994 194.187 127.152 194.886C127.202 195.062 127.219 195.223 127.237 195.363C127.26 195.501 127.265 195.62 127.265 195.715C127.27 195.906 127.269 196.007 127.263 196.007Z" fill="#263238"/>
<path d="M118.15 194.975C118.132 194.994 118.024 194.904 117.826 194.81C117.629 194.716 117.335 194.624 117.004 194.63C116.674 194.634 116.383 194.737 116.19 194.839C115.996 194.94 115.892 195.035 115.873 195.018C115.857 195.005 115.933 194.874 116.127 194.736C116.319 194.599 116.634 194.465 117.001 194.46C117.368 194.454 117.688 194.576 117.884 194.706C118.084 194.836 118.166 194.962 118.15 194.975Z" fill="#263238"/>
<path d="M107.029 195.782C107.057 195.819 106.142 196.55 104.986 197.413C103.829 198.277 102.869 198.946 102.84 198.908C102.812 198.871 103.727 198.141 104.884 197.277C106.041 196.414 107.001 195.744 107.029 195.782Z" fill="#263238"/>
<g opacity="0.3">
<path d="M103.17 217.003C102.717 221.428 104.399 226.098 107.948 228.78C108.227 228.991 108.576 229.199 108.905 229.081C109.132 228.998 109.278 228.78 109.399 228.57C110.411 226.818 110.751 224.886 110.457 222.884C109.895 224.364 109.413 225.816 108.846 227.365C105.754 225.487 103.826 221.494 103.17 217.003Z" fill="black"/>
</g>
<path opacity="0.3" d="M115.184 227.064L117.787 226.113L118.219 230.518C118.219 230.518 121.029 225.396 122.192 223.059C123.355 220.722 122.757 216.598 122.757 216.598C122.757 216.598 123.173 220.19 120.357 224.772L118.231 228.227V224.609L115.184 227.064Z" fill="black"/>
<g opacity="0.3">
<path d="M84.888 249.451C83.7266 248.903 82.3904 248.829 81.1146 248.977C79.767 249.134 78.4145 249.547 77.3588 250.399C76.303 251.251 75.587 252.593 75.7187 253.943L75.8491 253.962C76.7575 251.502 78.5652 249.713 80.8961 249.496C83.2267 249.28 85.501 250.317 87.1009 252.026C86.9454 250.751 86.0494 249.999 84.888 249.451Z" fill="black"/>
</g>
<g opacity="0.3">
<path d="M150.745 251.966C149.872 251.024 148.646 250.453 147.381 250.233C145.16 249.846 142.776 250.536 141.105 252.05L141.602 251.646C142.865 250.908 144.32 250.47 145.781 250.511C147.243 250.552 148.706 251.093 149.765 252.103C150.739 253.03 151.324 254.283 151.882 255.506C152.1 254.24 151.617 252.908 150.745 251.966Z" fill="black"/>
</g>
<path d="M133.959 231.509C133.948 231.504 133.99 231.378 134.075 231.153C134.176 230.895 134.3 230.579 134.446 230.205C134.761 229.406 135.194 228.302 135.651 227.074C136.107 225.846 136.502 224.727 136.785 223.916C136.919 223.538 137.032 223.218 137.124 222.957C137.206 222.731 137.257 222.608 137.268 222.611C137.28 222.615 137.25 222.745 137.187 222.977C137.125 223.21 137.027 223.544 136.899 223.954C136.645 224.776 136.267 225.903 135.81 227.133C135.352 228.363 134.901 229.463 134.557 230.251C134.385 230.645 134.241 230.962 134.136 231.179C134.032 231.396 133.969 231.513 133.959 231.509Z" fill="#263238"/>
<path d="M92.851 231.828C92.805 231.838 92.4506 230.286 92.0597 228.363C91.6684 226.439 91.3887 224.873 91.4346 224.864C91.4806 224.854 91.835 226.405 92.226 228.329C92.6172 230.252 92.897 231.819 92.851 231.828Z" fill="#263238"/>
<path d="M92.2376 251.224C92.3407 251.276 91.043 241.063 91.043 241.063C91.043 241.063 91.862 233.313 92.3224 232.955L92.3341 230.22C92.3341 230.22 93.6015 229.453 93.9419 230.692C93.9419 230.692 95.0658 229.716 95.2621 232.039C95.4584 234.363 95.4998 236.737 95.4998 236.737L98.0013 242.992L98.4131 243.2C98.4131 243.2 98.9504 238.3 99.2631 237.578C99.5758 236.857 99.79 235.104 100.976 235.367C102.162 235.63 102.26 236.611 102.047 238.21C101.834 239.809 101.569 241.459 101.667 242.491C101.766 243.524 102.235 245.797 102.091 247.602C101.947 249.408 100.959 251.313 99.9204 252.65C98.8826 253.987 96.8999 256.753 95.8222 257.587C95.446 257.878 92.2376 251.224 92.2376 251.224Z" fill="#FFBE9D"/>
<path d="M93.501 242.914C93.4892 242.913 93.4922 242.757 93.5078 242.477C93.5293 242.163 93.5567 241.765 93.5893 241.29C93.6656 240.289 93.7827 238.907 93.9225 237.382C93.9946 236.621 94.0634 235.897 94.1263 235.232C94.1589 234.903 94.1795 234.593 94.1377 234.31C94.0983 234.028 93.9874 233.783 93.826 233.605C93.4957 233.247 93.0709 233.157 92.8048 233.157C92.529 233.155 92.3846 233.23 92.379 233.212C92.3767 233.206 92.4113 233.188 92.4804 233.158C92.5508 233.133 92.6584 233.099 92.8026 233.091C93.082 233.071 93.5391 233.143 93.9137 233.524C94.0983 233.712 94.2294 233.986 94.2766 234.288C94.3278 234.591 94.3102 234.915 94.2822 235.246C94.2235 235.911 94.1593 236.636 94.0918 237.397C93.9519 238.923 93.8159 240.303 93.7093 241.301C93.6552 241.774 93.6099 242.171 93.574 242.483C93.5381 242.761 93.5127 242.915 93.501 242.914Z" fill="#EB996E"/>
<path d="M94.8436 238.736C94.868 238.756 94.5892 239.002 94.4008 239.542C94.1993 240.075 94.1266 240.874 93.9851 241.747C93.8504 242.62 93.719 243.409 93.6156 243.978C93.5123 244.548 93.4366 244.899 93.4135 244.895C93.3903 244.892 93.4239 244.535 93.497 243.96C93.57 243.386 93.6825 242.594 93.8171 241.721C93.9587 240.853 94.0496 240.047 94.2889 239.499C94.4021 239.226 94.5403 239.025 94.6505 238.903C94.7598 238.779 94.838 238.73 94.8436 238.736Z" fill="#EB996E"/>
<path d="M93.9194 230.559C93.9309 230.557 93.9615 230.671 94.0065 230.88C94.0521 231.088 94.1089 231.392 94.1712 231.769C94.2957 232.523 94.4323 233.57 94.5187 234.733C94.6042 235.896 94.6231 236.952 94.6104 237.716C94.6042 238.098 94.5931 238.406 94.5784 238.62C94.5644 238.833 94.5513 238.951 94.5396 238.95C94.5145 238.95 94.509 238.478 94.4904 237.716C94.4721 236.955 94.4343 235.904 94.3492 234.745C94.2631 233.587 94.1464 232.542 94.0522 231.786C93.9583 231.03 93.8947 230.563 93.9194 230.559Z" fill="#EB996E"/>
<path d="M101.14 240.133C101.164 240.171 100.774 240.353 100.297 240.204C99.8185 240.061 99.5958 239.693 99.6378 239.675C99.6753 239.642 99.9261 239.919 100.347 240.042C100.764 240.175 101.127 240.085 101.14 240.133Z" fill="#EB996E"/>
<path d="M92.3754 249.954L85.7666 252.731H81.8295C81.8295 252.731 77.9348 253.947 77.3359 257.597C76.7366 261.248 76.6512 263.127 78.3629 263.579C80.0747 264.03 84.9111 264.08 87.3076 263.285C89.7041 262.49 95.9822 257.424 95.9822 257.424L96.5874 253.759L92.3754 249.954Z" fill="#FFBE9D"/>
<path d="M93.9291 253.988C93.9206 253.996 93.8544 253.935 93.7413 253.816C93.6239 253.7 93.4794 253.511 93.3122 253.27C92.9855 252.782 92.6278 252.042 92.3891 251.179C92.142 250.319 92.0367 249.514 91.9819 248.934C91.9317 248.352 91.9346 247.991 91.9561 247.989C91.9812 247.988 92.0207 248.345 92.1009 248.92C92.1857 249.493 92.3089 250.286 92.5522 251.133C92.7872 251.982 93.1188 252.711 93.4133 253.205C93.7106 253.699 93.9525 253.967 93.9291 253.988Z" fill="#EB996E"/>
<path d="M96.8029 255.147C96.7674 255.134 97.065 254.632 97.1795 253.73C97.2343 253.283 97.2294 252.738 97.1016 252.157C96.9751 251.574 96.6963 250.974 96.292 250.414C95.8903 249.851 95.439 249.361 95.0585 248.887C94.6741 248.416 94.3666 247.954 94.1651 247.537C93.9623 247.119 93.8688 246.75 93.8339 246.494C93.8006 246.237 93.814 246.094 93.8225 246.094C93.8557 246.087 93.8443 246.677 94.2721 247.482C94.4821 247.883 94.7921 248.327 95.1792 248.788C95.5626 249.252 96.0191 249.74 96.4299 250.316C96.8437 250.887 97.1325 251.519 97.2542 252.124C97.3781 252.727 97.3699 253.289 97.2982 253.747C97.2264 254.205 97.1003 254.561 96.9953 254.796C96.9447 254.916 96.8962 255.003 96.8619 255.062C96.8283 255.12 96.8081 255.15 96.8029 255.147Z" fill="#EB996E"/>
<path d="M86.6111 239.235C86.5693 239.257 85.8484 237.945 85.0007 236.305C84.1526 234.665 83.4992 233.319 83.541 233.297C83.5827 233.276 84.3036 234.587 85.1513 236.227C85.9994 237.867 86.6528 239.214 86.6111 239.235Z" fill="white"/>
<path d="M97.2997 227.338C97.257 227.318 97.7027 226.225 98.2951 224.895C98.8879 223.564 99.4027 222.502 99.4458 222.521C99.4885 222.54 99.0431 223.634 98.4503 224.964C97.8579 226.294 97.3427 227.356 97.2997 227.338Z" fill="white"/>
<path d="M107.769 235.059C107.732 235.089 107.062 234.338 106.271 233.383C105.48 232.427 104.868 231.629 104.904 231.599C104.94 231.569 105.61 232.319 106.402 233.275C107.193 234.23 107.805 235.029 107.769 235.059Z" fill="white"/>
<path d="M105.357 245.68C105.32 245.652 105.825 244.891 106.486 243.979C107.147 243.067 107.714 242.35 107.752 242.378C107.79 242.405 107.285 243.167 106.624 244.079C105.962 244.99 105.396 245.707 105.357 245.68Z" fill="white"/>
<path d="M102.119 260.68C102.098 260.69 101.95 260.441 101.736 260.025C101.522 259.609 101.244 259.025 100.965 258.368C100.686 257.711 100.458 257.106 100.307 256.663C100.156 256.22 100.08 255.94 100.101 255.933C100.124 255.925 100.24 256.19 100.419 256.62C100.624 257.111 100.86 257.677 101.121 258.302C101.39 258.923 101.633 259.486 101.844 259.974C102.03 260.402 102.14 260.67 102.119 260.68Z" fill="white"/>
<path d="M111.325 254.303C111.317 254.349 110.43 254.217 109.346 254.007C108.262 253.797 107.39 253.589 107.399 253.543C107.407 253.497 108.294 253.63 109.378 253.84C110.462 254.05 111.334 254.257 111.325 254.303Z" fill="white"/>
<path d="M118.466 240.286C118.432 240.254 119.277 239.287 120.353 238.126C121.43 236.964 122.331 236.049 122.365 236.081C122.4 236.113 121.555 237.08 120.478 238.241C119.401 239.403 118.5 240.318 118.466 240.286Z" fill="white"/>
<path d="M125.654 258.98C125.618 259.01 124.563 257.79 123.299 256.255C122.034 254.72 121.039 253.451 121.075 253.421C121.111 253.392 122.166 254.612 123.43 256.147C124.694 257.682 125.69 258.95 125.654 258.98Z" fill="white"/>
<path d="M81.0513 251.012C81.0754 251.059 80.1119 251.548 79.0624 252.353C78.0076 253.153 77.2821 253.953 77.2433 253.917C77.227 253.903 77.3881 253.684 77.6867 253.364C77.9851 253.043 78.4269 252.625 78.9593 252.218C79.4921 251.812 80.0118 251.497 80.3998 251.294C80.7885 251.091 81.0418 250.993 81.0513 251.012Z" fill="white"/>
<path d="M83.7428 243.808C83.7819 243.834 83.4389 244.418 82.9769 245.112C82.5148 245.807 82.1086 246.349 82.0694 246.323C82.0303 246.297 82.3733 245.713 82.8354 245.018C83.2974 244.324 83.7036 243.781 83.7428 243.808Z" fill="white"/>
<path d="M89.7878 250.883C89.7506 250.905 89.4109 250.335 89.2335 249.544C89.0516 248.754 89.1112 248.093 89.1543 248.097C89.2048 248.097 89.2218 248.74 89.3988 249.507C89.5703 250.274 89.8335 250.862 89.7878 250.883Z" fill="white"/>
<path d="M90.6884 228.41C90.695 228.457 90.1325 228.575 89.4325 228.675C88.7321 228.774 88.1589 228.817 88.1524 228.771C88.1459 228.725 88.708 228.606 89.4087 228.506C90.1087 228.407 90.6819 228.364 90.6884 228.41Z" fill="white"/>
<path d="M95.2353 220.349C95.2581 220.39 94.7658 220.707 94.1358 221.056C93.5056 221.405 92.9767 221.655 92.9539 221.614C92.9311 221.573 93.4234 221.256 94.0537 220.907C94.6833 220.558 95.2125 220.308 95.2353 220.349Z" fill="white"/>
<path d="M108.019 223.754C107.982 223.783 107.418 223.106 106.761 222.243C106.104 221.38 105.601 220.657 105.639 220.629C105.676 220.6 106.239 221.277 106.897 222.14C107.554 223.003 108.056 223.726 108.019 223.754Z" fill="white"/>
<path d="M124.25 231.861C124.218 231.891 123.625 231.281 123.076 230.393C122.522 229.507 122.237 228.706 122.277 228.691C122.324 228.671 122.674 229.431 123.22 230.303C123.761 231.178 124.288 231.829 124.25 231.861Z" fill="white"/>
<path d="M130.436 233.904C130.479 233.923 130.178 234.678 129.764 235.59C129.35 236.503 128.98 237.226 128.938 237.207C128.895 237.188 129.196 236.433 129.61 235.52C130.024 234.608 130.394 233.884 130.436 233.904Z" fill="white"/>
<path d="M131.306 225.45C131.27 225.48 130.532 224.653 129.659 223.603C128.785 222.553 128.106 221.677 128.142 221.647C128.178 221.617 128.915 222.444 129.79 223.494C130.663 224.544 131.342 225.42 131.306 225.45Z" fill="white"/>
<path d="M121.848 218.581C121.801 218.583 121.735 217.876 121.7 217.001C121.666 216.126 121.676 215.416 121.723 215.414C121.77 215.412 121.836 216.12 121.87 216.994C121.904 217.869 121.894 218.579 121.848 218.581Z" fill="white"/>
<path d="M129.557 218.154C129.563 218.2 128.661 218.359 127.544 218.508C126.425 218.658 125.514 218.741 125.508 218.695C125.502 218.648 126.403 218.489 127.521 218.34C128.639 218.19 129.551 218.107 129.557 218.154Z" fill="white"/>
<path d="M141.706 227.077C141.664 227.098 141.122 226.064 140.495 224.768C139.868 223.472 139.394 222.406 139.436 222.385C139.478 222.365 140.021 223.398 140.647 224.694C141.274 225.99 141.748 227.057 141.706 227.077Z" fill="white"/>
<path d="M139.662 234.788C139.616 234.779 139.743 233.948 139.946 232.932C140.149 231.916 140.35 231.1 140.396 231.109C140.442 231.119 140.315 231.949 140.112 232.965C139.91 233.981 139.708 234.797 139.662 234.788Z" fill="white"/>
<path d="M145.297 240.867C145.252 240.882 144.819 239.761 144.33 238.361C143.84 236.962 143.479 235.815 143.523 235.8C143.568 235.784 144 236.906 144.49 238.305C144.98 239.704 145.341 240.851 145.297 240.867Z" fill="white"/>
<path d="M144.514 244.423C144.506 244.464 143.724 244.301 142.867 243.834C142.007 243.371 141.443 242.805 141.474 242.776C141.507 242.736 142.108 243.233 142.948 243.684C143.784 244.141 144.529 244.374 144.514 244.423Z" fill="white"/>
<path d="M151.731 252.53C151.689 252.55 151.427 252.054 151.147 251.425C150.867 250.795 150.674 250.27 150.717 250.251C150.76 250.231 151.021 250.726 151.301 251.356C151.582 251.985 151.774 252.511 151.731 252.53Z" fill="white"/>
<path d="M109.096 263.836C109.05 263.842 108.936 263.195 108.843 262.393C108.75 261.59 108.712 260.935 108.758 260.93C108.805 260.924 108.918 261.57 109.012 262.373C109.105 263.176 109.143 263.831 109.096 263.836Z" fill="white"/>
<path d="M131.246 263.278C131.2 263.268 131.295 262.636 131.459 261.866C131.623 261.096 131.793 260.48 131.839 260.489C131.885 260.499 131.789 261.131 131.625 261.901C131.461 262.671 131.292 263.288 131.246 263.278Z" fill="white"/>
<path d="M173.573 149.059H165.445V140.932H173.573V149.059ZM166.579 147.925H172.439V142.066H166.579V147.925Z" fill="#FFE896"/>
<path d="M171.115 143.389H167.902V146.602H171.115V143.389Z" fill="#FFE896"/>
<path d="M173.573 166.07H165.445V157.943H173.573V166.07ZM166.579 164.936H172.439V159.077H166.579V164.936Z" fill="#FFE896"/>
<path d="M171.115 160.4H167.902V163.613H171.115V160.4Z" fill="#FFE896"/>
<path d="M190.573 149.059H182.445V140.932H190.573V149.059ZM183.579 147.925H189.439V142.066H183.579V147.925Z" fill="#FFE896"/>
<path d="M188.176 143.338H184.859V146.654H188.176V143.338Z" fill="#FFE896"/>
<path d="M176.122 141.498H174.859V142.761H176.122V141.498Z" fill="#FFE896"/>
<path d="M177.384 142.762H176.121V144.025H177.384V142.762Z" fill="#FFE896"/>
<path d="M178.646 142.762H177.383V144.025H178.646V142.762Z" fill="#FFE896"/>
<path d="M177.384 144.026H176.121V145.289H177.384V144.026Z" fill="#FFE896"/>
<path d="M176.122 146.551H174.859V147.814H176.122V146.551Z" fill="#FFE896"/>
<path d="M177.384 146.551H176.121V147.814H177.384V146.551Z" fill="#FFE896"/>
<path d="M178.646 146.551H177.383V147.814H178.646V146.551Z" fill="#FFE896"/>
<path d="M179.908 146.551H178.645V147.814H179.908V146.551Z" fill="#FFE896"/>
<path d="M179.908 145.287H178.645V146.55H179.908V145.287Z" fill="#FFE896"/>
<path d="M181.177 144.026H179.914V145.289H181.177V144.026Z" fill="#FFE896"/>
<path d="M179.908 141.498H178.645V142.761H179.908V141.498Z" fill="#FFE896"/>
<path d="M181.177 142.762H179.914V144.025H181.177V142.762Z" fill="#FFE896"/>
<path d="M181.177 146.551H179.914V147.814H181.177V146.551Z" fill="#FFE896"/>
<path d="M181.177 147.814H179.914V149.077H181.177V147.814Z" fill="#FFE896"/>
<path d="M174.861 150.34H173.598V151.603H174.861V150.34Z" fill="#FFE896"/>
<path d="M173.591 150.34H172.328V151.603H173.591V150.34Z" fill="#FFE896"/>
<path d="M172.329 150.34H171.066V151.603H172.329V150.34Z" fill="#FFE896"/>
<path d="M169.806 150.34H168.543V151.603H169.806V150.34Z" fill="#FFE896"/>
<path d="M167.279 150.34H166.016V151.603H167.279V150.34Z" fill="#FFE896"/>
<path d="M169.806 154.13H168.543V155.393H169.806V154.13Z" fill="#FFE896"/>
<path d="M169.806 155.393H168.543V156.656H169.806V155.393Z" fill="#FFE896"/>
<path d="M171.064 155.393H169.801V156.656H171.064V155.393Z" fill="#FFE896"/>
<path d="M172.329 155.393H171.066V156.656H172.329V155.393Z" fill="#FFE896"/>
<path d="M173.591 155.393H172.328V156.656H173.591V155.393Z" fill="#FFE896"/>
<path d="M173.591 154.13H172.328V155.393H173.591V154.13Z" fill="#FFE896"/>
<path d="M173.591 152.867H172.328V154.13H173.591V152.867Z" fill="#FFE896"/>
<path d="M174.861 152.867H173.598V154.13H174.861V152.867Z" fill="#FFE896"/>
<path d="M176.122 155.393H174.859V156.656H176.122V155.393Z" fill="#FFE896"/>
<path d="M176.122 154.13H174.859V155.393H176.122V154.13Z" fill="#FFE896"/>
<path d="M177.384 154.13H176.121V155.393H177.384V154.13Z" fill="#FFE896"/>
<path d="M178.646 154.13H177.383V155.393H178.646V154.13Z" fill="#FFE896"/>
<path d="M179.908 154.13H178.645V155.393H179.908V154.13Z" fill="#FFE896"/>
<path d="M181.177 155.393H179.914V156.656H181.177V155.393Z" fill="#FFE896"/>
<path d="M181.177 156.655H179.914V157.918H181.177V156.655Z" fill="#FFE896"/>
<path d="M182.431 157.919H181.168V159.182H182.431V157.919Z" fill="#FFE896"/>
<path d="M174.861 155.393H173.598V156.656H174.861V155.393Z" fill="#FFE896"/>
<path d="M168.544 154.13H167.281V155.393H168.544V154.13Z" fill="#FFE896"/>
<path d="M171.064 151.604H169.801V152.867H171.064V151.604Z" fill="#FFE896"/>
<path d="M171.064 152.867H169.801V154.13H171.064V152.867Z" fill="#FFE896"/>
<path d="M169.806 152.867H168.543V154.13H169.806V152.867Z" fill="#FFE896"/>
<path d="M168.544 152.867H167.281V154.13H168.544V152.867Z" fill="#FFE896"/>
<path d="M168.544 151.604H167.281V152.867H168.544V151.604Z" fill="#FFE896"/>
<path d="M167.279 152.867H166.016V154.13H167.279V152.867Z" fill="#FFE896"/>
<path d="M176.122 145.287H174.859V146.55H176.122V145.287Z" fill="#FFE896"/>
<path d="M176.122 147.814H174.859V149.077H176.122V147.814Z" fill="#FFE896"/>
<path d="M176.122 149.077H174.859V150.34H176.122V149.077Z" fill="#FFE896"/>
<path d="M176.122 150.34H174.859V151.603H176.122V150.34Z" fill="#FFE896"/>
<path d="M176.122 151.604H174.859V152.867H176.122V151.604Z" fill="#FFE896"/>
<path d="M177.384 151.604H176.121V152.867H177.384V151.604Z" fill="#FFE896"/>
<path d="M178.646 151.604H177.383V152.867H178.646V151.604Z" fill="#FFE896"/>
<path d="M179.908 151.604H178.645V152.867H179.908V151.604Z" fill="#FFE896"/>
<path d="M178.646 150.34H177.383V151.603H178.646V150.34Z" fill="#FFE896"/>
<path d="M181.177 150.34H179.914V151.603H181.177V150.34Z" fill="#FFE896"/>
<path d="M182.431 150.34H181.168V151.603H182.431V150.34Z" fill="#FFE896"/>
<path d="M183.701 150.34H182.438V151.603H183.701V150.34Z" fill="#FFE896"/>
<path d="M184.962 150.34H183.699V151.603H184.962V150.34Z" fill="#FFE896"/>
<path d="M186.224 150.34H184.961V151.603H186.224V150.34Z" fill="#FFE896"/>
<path d="M187.49 150.34H186.227V151.603H187.49V150.34Z" fill="#FFE896"/>
<path d="M187.49 151.604H186.227V152.867H187.49V151.604Z" fill="#FFE896"/>
<path d="M183.701 152.867H182.438V154.13H183.701V152.867Z" fill="#FFE896"/>
<path d="M182.431 152.867H181.168V154.13H182.431V152.867Z" fill="#FFE896"/>
<path d="M182.431 151.604H181.168V152.867H182.431V151.604Z" fill="#FFE896"/>
<path d="M181.177 152.867H179.914V154.13H181.177V152.867Z" fill="#FFE896"/>
<path d="M186.224 154.13H184.961V155.393H186.224V154.13Z" fill="#FFE896"/>
<path d="M186.224 155.393H184.961V156.656H186.224V155.393Z" fill="#FFE896"/>
<path d="M187.49 155.393H186.227V156.656H187.49V155.393Z" fill="#FFE896"/>
<path d="M188.747 155.393H187.484V156.656H188.747V155.393Z" fill="#FFE896"/>
<path d="M188.747 156.655H187.484V157.918H188.747V156.655Z" fill="#FFE896"/>
<path d="M188.747 157.919H187.484V159.182H188.747V157.919Z" fill="#FFE896"/>
<path d="M186.224 159.182H184.961V160.445H186.224V159.182Z" fill="#FFE896"/>
<path d="M186.224 162.981H184.961V164.244H186.224V162.981Z" fill="#FFE896"/>
<path d="M190.009 159.182H188.746V160.445H190.009V159.182Z" fill="#FFE896"/>
<path d="M190.009 164.234H188.746V165.498H190.009V164.234Z" fill="#FFE896"/>
<path d="M184.962 164.234H183.699V165.498H184.962V164.234Z" fill="#FFE896"/>
<path d="M183.701 164.234H182.438V165.498H183.701V164.234Z" fill="#FFE896"/>
<path d="M182.431 164.234H181.168V165.498H182.431V164.234Z" fill="#FFE896"/>
<path d="M181.177 164.234H179.914V165.498H181.177V164.234Z" fill="#FFE896"/>
<path d="M182.431 162.972H181.168V164.235H182.431V162.972Z" fill="#FFE896"/>
<path d="M181.177 162.972H179.914V164.235H181.177V162.972Z" fill="#FFE896"/>
<path d="M182.431 161.708H181.168V162.971H182.431V161.708Z" fill="#FFE896"/>
<path d="M182.431 160.445H181.168V161.708H182.431V160.445Z" fill="#FFE896"/>
<path d="M181.177 159.182H179.914V160.445H181.177V159.182Z" fill="#FFE896"/>
<path d="M179.908 159.182H178.645V160.445H179.908V159.182Z" fill="#FFE896"/>
<path d="M178.646 159.182H177.383V160.445H178.646V159.182Z" fill="#FFE896"/>
<path d="M177.384 159.182H176.121V160.445H177.384V159.182Z" fill="#FFE896"/>
<path d="M179.908 160.445H178.645V161.708H179.908V160.445Z" fill="#FFE896"/>
<path d="M175.837 161.007H174.574V162.27H175.837V161.007Z" fill="#FFE896"/>
<path d="M176.122 162.972H174.859V164.235H176.122V162.972Z" fill="#FFE896"/>
<path d="M176.122 157.919H174.859V159.182H176.122V157.919Z" fill="#FFE896"/>
<path d="M177.384 160.445H176.121V161.708H177.384V160.445Z" fill="#FFE896"/>
<path d="M178.646 161.708H177.383V162.971H178.646V161.708Z" fill="#FFE896"/>
<path d="M177.384 161.708H176.121V162.971H177.384V161.708Z" fill="#FFE896"/>
<path d="M178.646 162.972H177.383V164.235H178.646V162.972Z" fill="#FFE896"/>
<path d="M177.384 164.235H176.121V165.498H177.384V164.235Z" fill="#FFE896"/>
<path d="M179.908 157.919H178.645V159.182H179.908V157.919Z" fill="#FFE896"/>
<path d="M178.646 157.919H177.383V159.182H178.646V157.919Z" fill="#FFE896"/>
<path d="M175.697 156.796H174.434V158.059H175.697V156.796Z" fill="#FFE896"/>
<path d="M178.646 156.655H177.383V157.918H178.646V156.655Z" fill="#FFE896"/>
<path d="M178.646 155.393H177.383V156.656H178.646V155.393Z" fill="#FFE896"/>
<path d="M177.384 156.655H176.121V157.918H177.384V156.655Z" fill="#FFE896"/>
<path d="M176.122 159.182H174.859V160.445H176.122V159.182Z" fill="#FFE896"/>
<path d="M181.177 161.708H179.914V162.971H181.177V161.708Z" fill="#FFE896"/>
<path d="M179.908 164.234H178.645V165.498H179.908V164.234Z" fill="#FFE896"/>
<path d="M183.701 159.182H182.438V160.445H183.701V159.182Z" fill="#FFE896"/>
<path d="M184.962 160.445H183.699V161.708H184.962V160.445Z" fill="#FFE896"/>
<path d="M188.747 160.445H187.484V161.708H188.747V160.445Z" fill="#FFE896"/>
<path d="M188.747 161.708H187.484V162.971H188.747V161.708Z" fill="#FFE896"/>
<path d="M187.49 161.708H186.227V162.971H187.49V161.708Z" fill="#FFE896"/>
<path d="M186.224 161.708H184.961V162.971H186.224V161.708Z" fill="#FFE896"/>
<path d="M184.962 161.708H183.699V162.971H184.962V161.708Z" fill="#FFE896"/>
<path d="M188.747 162.972H187.484V164.235H188.747V162.972Z" fill="#FFE896"/>
<path d="M188.747 164.234H187.484V165.498H188.747V164.234Z" fill="#FFE896"/>
<path d="M186.224 156.655H184.961V157.918H186.224V156.655Z" fill="#FFE896"/>
<path d="M184.962 154.13H183.699V155.393H184.962V154.13Z" fill="#FFE896"/>
<path d="M184.962 155.393H183.699V156.656H184.962V155.393Z" fill="#FFE896"/>
<path d="M184.962 156.655H183.699V157.918H184.962V156.655Z" fill="#FFE896"/>
<path d="M183.701 157.919H182.438V159.182H183.701V157.919Z" fill="#FFE896"/>
<path d="M183.701 155.393H182.438V156.656H183.701V155.393Z" fill="#FFE896"/>
<path d="M183.701 156.655H182.438V157.918H183.701V156.655Z" fill="#FFE896"/>
<path d="M186.224 152.867H184.961V154.13H186.224V152.867Z" fill="#FFE896"/>
<path d="M186.224 157.919H184.961V159.182H186.224V157.919Z" fill="#FFE896"/>
<path d="M187.49 157.919H186.227V159.182H187.49V157.919Z" fill="#FFE896"/>
<path d="M188.747 151.604H187.484V152.867H188.747V151.604Z" fill="#FFE896"/>
<path d="M188.747 152.867H187.484V154.13H188.747V152.867Z" fill="#FFE896"/>
<path d="M190.009 150.34H188.746V151.603H190.009V150.34Z" fill="#FFE896"/>
<path d="M190.009 154.13H188.746V155.393H190.009V154.13Z" fill="#FFE896"/>
<path d="M178.646 149.077H177.383V150.34H178.646V149.077Z" fill="#FFE896"/>
<path d="M179.908 149.077H178.645V150.34H179.908V149.077Z" fill="#FFE896"/>
<path d="M164.044 143.323H163V139H167.323V140.044H164.044V143.323Z" fill="#455A64"/>
<path d="M167.323 167.999H163V163.677H164.044V166.955H167.323V167.999Z" fill="#455A64"/>
<path d="M193.018 168H188.695V166.955H191.974V163.677H193.018V168Z" fill="#455A64"/>
<path d="M193.018 143.323H191.974V140.044H188.695V139H193.018V143.323Z" fill="#455A64"/>
<path d="M135.52 198.624L138.384 193.577C137.117 191.52 136.384 189.099 136.384 186.506C136.384 179.05 142.429 173.006 149.884 173.006C157.341 173.006 163.385 179.05 163.385 186.506C163.385 193.962 157.34 200.007 149.884 200.007C146.771 200.007 143.906 198.95 141.622 197.179L141.627 197.185L135.52 198.624Z" fill="#FAFAFA"/>
<path d="M135.52 198.624C135.81 198.558 137.743 198.116 141.637 197.226L141.699 197.212L141.66 197.16L141.656 197.154L141.597 197.212C142.367 197.809 143.29 198.397 144.374 198.887C145.46 199.368 146.704 199.761 148.077 199.944C148.763 200.032 149.479 200.088 150.215 200.052C150.583 200.031 150.958 200.023 151.335 199.991C151.711 199.934 152.091 199.877 152.477 199.818C154.006 199.516 155.569 198.936 157.027 198.031C158.485 197.13 159.834 195.905 160.916 194.401C161.996 192.899 162.815 191.118 163.198 189.183C163.578 187.251 163.547 185.18 163.039 183.175C162.528 181.178 161.573 179.227 160.144 177.621L159.593 177.014C159.411 176.81 159.195 176.642 158.999 176.455C158.793 176.278 158.607 176.077 158.386 175.921L157.738 175.436C157.528 175.267 157.297 175.13 157.067 174.992C156.838 174.854 156.61 174.715 156.382 174.576C156.142 174.46 155.903 174.344 155.664 174.228C155.424 174.117 155.192 173.986 154.94 173.906C152.978 173.128 150.886 172.831 148.886 172.976C146.886 173.12 144.972 173.694 143.33 174.618C141.683 175.535 140.294 176.76 139.222 178.127C138.146 179.495 137.388 181.004 136.92 182.507C136.453 184.016 136.327 185.513 136.333 186.899C136.373 188.289 136.626 189.568 136.994 190.692C137.363 191.816 137.848 192.784 138.348 193.598L138.348 193.557C136.541 196.793 135.658 198.375 135.52 198.624C135.662 198.377 136.567 196.808 138.418 193.596L138.43 193.576L138.417 193.556C137.925 192.743 137.449 191.779 137.088 190.661C136.729 189.544 136.483 188.274 136.449 186.896C136.449 185.521 136.579 184.038 137.045 182.545C137.514 181.058 138.268 179.567 139.335 178.215C140.399 176.864 141.775 175.656 143.405 174.752C145.03 173.841 146.922 173.276 148.899 173.136C150.876 172.995 152.942 173.289 154.879 174.059C155.128 174.138 155.357 174.268 155.594 174.377C155.83 174.492 156.066 174.607 156.303 174.722C156.528 174.858 156.753 174.996 156.979 175.133C157.207 175.269 157.435 175.404 157.642 175.571L158.283 176.05C158.501 176.205 158.684 176.403 158.887 176.578C159.081 176.763 159.295 176.929 159.474 177.13L160.018 177.73C161.43 179.316 162.373 181.243 162.879 183.215C163.381 185.195 163.414 187.242 163.041 189.151C162.664 191.064 161.857 192.824 160.792 194.311C159.724 195.8 158.392 197.013 156.952 197.909C155.511 198.807 153.965 199.385 152.452 199.689C152.07 199.748 151.694 199.806 151.322 199.863C150.948 199.895 150.577 199.905 150.213 199.927C149.483 199.965 148.773 199.912 148.093 199.828C146.731 199.651 145.496 199.267 144.416 198.794C143.337 198.313 142.418 197.734 141.648 197.146L141.397 196.954L141.59 197.204L141.594 197.21L141.618 197.144C137.736 198.086 135.808 198.554 135.52 198.624Z" fill="#263238"/>
<path d="M153.496 185.943C153.496 186.672 154.087 187.263 154.815 187.263C155.544 187.263 156.135 186.672 156.135 185.943C156.135 185.215 155.544 184.624 154.815 184.624C154.087 184.624 153.496 185.215 153.496 185.943Z" fill="#263238"/>
<path d="M148.223 185.943C148.223 186.672 148.813 187.263 149.542 187.263C150.271 187.263 150.861 186.672 150.861 185.943C150.861 185.215 150.271 184.624 149.542 184.624C148.813 184.624 148.223 185.215 148.223 185.943Z" fill="#263238"/>
<path d="M142.95 185.284C142.586 185.915 142.802 186.722 143.433 187.086C144.064 187.451 144.871 187.234 145.236 186.604C145.6 185.973 145.384 185.166 144.753 184.801C144.122 184.437 143.315 184.653 142.95 185.284Z" fill="#263238"/>
</svg>
