<svg width="752" height="478" viewBox="0 0 752 478" fill="none" xmlns="http://www.w3.org/2000/svg">
<path d="M668.971 185.488L728.168 176.443C733.13 208.917 710.491 239.723 678.017 244.685C645.542 249.647 614.737 227.009 609.774 194.534C604.813 162.06 627.451 131.254 659.926 126.293C665.095 125.503 670.348 125.393 675.546 125.967L668.971 185.488Z" fill="#FBECB8"/>
<path d="M688.202 126.157L681.016 172.045L726.059 163.586C726.059 163.586 719.435 137.87 688.202 126.157Z" fill="#FBECB8"/>
<path d="M371.99 84.7241H364.832V108.702H371.99V84.7241Z" fill="#FBECB8"/>
<path d="M312.201 81.249H305.043V108.701H312.201V81.249Z" fill="#FBECB8"/>
<path d="M327.129 75.5308H319.971V108.704H327.129V75.5308Z" fill="#FBECB8"/>
<path d="M342.078 77.3496H334.92V108.703H342.078V77.3496Z" fill="#FBECB8"/>
<path d="M357.049 66.7422H349.891V108.703H357.049V66.7422Z" fill="#FBECB8"/>
<path d="M386.91 66.9458H379.752V108.703H386.91V66.9458Z" fill="#FBECB8"/>
<path d="M401.888 80.6543H394.73V108.696H401.888V80.6543Z" fill="#FBECB8"/>
<path d="M416.808 68.7832H409.65V108.7H416.808V68.7832Z" fill="#FBECB8"/>
<path d="M431.759 59.793H424.602V108.702H431.759V59.793Z" fill="#FBECB8"/>
<path d="M446.699 68.5796H439.541V108.701H446.699V68.5796Z" fill="#FBECB8"/>
<path d="M30.8417 217.793C30.582 201.535 43.5365 188.096 59.7191 187.835C75.9016 187.575 89.2791 200.588 89.5389 216.846C89.7987 233.103 76.8441 246.542 60.6616 246.803C44.4791 247.064 31.1015 234.049 30.8417 217.793ZM74.2227 217.093C74.0982 209.32 67.7024 203.097 59.9649 203.221C52.2273 203.346 46.0334 209.772 46.158 217.545C46.2825 225.318 52.6782 231.541 60.4157 231.416C68.1533 231.291 74.3472 224.866 74.2227 217.093Z" fill="#FBECB8"/>
<path d="M30.8417 217.796C30.582 201.538 43.5365 188.099 59.718 187.838L59.9638 203.224C52.2263 203.349 46.0324 209.776 46.1569 217.549C46.2814 225.322 52.6771 231.545 60.4147 231.419L60.6605 246.805C44.4791 247.067 31.1015 234.053 30.8417 217.796Z" fill="#FBECB8"/>
<path d="M57.084 185.47C76.0167 185.164 91.1193 199.858 91.4231 218.877L73.5048 219.166C73.3599 210.072 66.4392 204.346 57.3878 204.493L57.084 185.47Z" fill="#FBECB8"/>
<path d="M221.543 321.332H184.234V365.685H221.543V321.332Z" fill="#FBECB8"/>
<path d="M185.576 318.434H16.9707V368.468H185.576V318.434Z" fill="#FBECB8"/>
<path d="M222.712 322.642H181.039V318.434H222.712C223.874 318.434 224.816 319.376 224.816 320.538C224.816 321.699 223.875 322.642 222.712 322.642Z" fill="#FBECB8"/>
<path d="M222.712 368.463H181.039V364.255H222.712C223.874 364.255 224.816 365.197 224.816 366.359C224.816 367.522 223.875 368.463 222.712 368.463Z" fill="#FBECB8"/>
<path d="M172.279 318.434H152.359V368.468H172.279V318.434Z" fill="#FBECB8"/>
<path d="M52.8891 318.985H32.9688V369.02H52.8891V318.985Z" fill="#FBECB8"/>
<path d="M221.587 328.655C221.587 328.777 213.512 328.876 203.554 328.876C193.592 328.876 185.52 328.777 185.52 328.655C185.52 328.532 193.592 328.434 203.554 328.434C213.512 328.434 221.587 328.532 221.587 328.655Z" fill="#FBECB8"/>
<path d="M221.587 335.31C221.587 335.432 213.512 335.532 203.554 335.532C193.592 335.532 185.52 335.433 185.52 335.31C185.52 335.188 193.592 335.089 203.554 335.089C213.512 335.088 221.587 335.188 221.587 335.31Z" fill="#FBECB8"/>
<path d="M221.587 343.507C221.587 343.629 213.512 343.728 203.554 343.728C193.592 343.728 185.52 343.629 185.52 343.507C185.52 343.385 193.592 343.285 203.554 343.285C213.512 343.285 221.587 343.385 221.587 343.507Z" fill="#FBECB8"/>
<path d="M221.587 351.689C221.587 351.811 213.512 351.91 203.554 351.91C193.592 351.91 185.52 351.811 185.52 351.689C185.52 351.567 193.592 351.468 203.554 351.468C213.512 351.467 221.587 351.567 221.587 351.689Z" fill="#FBECB8"/>
<path d="M221.587 359.879C221.587 360.001 213.512 360.1 203.554 360.1C193.592 360.1 185.52 360.001 185.52 359.879C185.52 359.756 193.592 359.658 203.554 359.658C213.512 359.657 221.587 359.756 221.587 359.879Z" fill="#FBECB8"/>
<path d="M141.644 338.996H65.791V348.005H141.644V338.996Z" fill="#FBECB8"/>
<path d="M221.187 369.442H183.307V396.467H221.187V369.442Z" fill="#FAFAFA"/>
<path d="M183.725 368.464H22.5156V397.451H183.725V368.464Z" fill="#FBECB8"/>
<path d="M182.512 370.42H223.227C223.769 370.42 224.207 369.981 224.207 369.439C224.207 368.898 223.768 368.459 223.227 368.459H182.512V370.42Z" fill="#FBECB8"/>
<path d="M182.512 397.448H223.758C224.007 397.448 224.207 397.246 224.207 396.998V395.936C224.207 395.688 224.005 395.486 223.758 395.486H182.512V397.448Z" fill="#FBECB8"/>
<path d="M221.169 374.576C221.169 374.699 212.783 374.798 202.441 374.798C192.095 374.798 183.711 374.7 183.711 374.576C183.711 374.454 192.095 374.355 202.441 374.355C212.783 374.355 221.169 374.454 221.169 374.576Z" fill="#FBECB8"/>
<path d="M221.169 379.685C221.169 379.807 212.783 379.907 202.441 379.907C192.095 379.907 183.711 379.808 183.711 379.685C183.711 379.562 192.095 379.463 202.441 379.463C212.783 379.463 221.169 379.562 221.169 379.685Z" fill="#FBECB8"/>
<path d="M221.169 384.803C221.169 384.926 212.783 385.025 202.441 385.025C192.095 385.025 183.711 384.927 183.711 384.803C183.711 384.681 192.095 384.582 202.441 384.582C212.783 384.582 221.169 384.681 221.169 384.803Z" fill="#FBECB8"/>
<path d="M221.169 389.913C221.169 390.035 212.783 390.134 202.441 390.134C192.095 390.134 183.711 390.035 183.711 389.913C183.711 389.791 192.095 389.692 202.441 389.692C212.783 389.692 221.169 389.791 221.169 389.913Z" fill="#FBECB8"/>
<path d="M226.945 400.027H188.281V473.288H226.945V400.027Z" fill="#FBECB8"/>
<path d="M229.956 476.892H183.303V471.74H229.956C231.378 471.74 232.532 472.893 232.532 474.315C232.531 475.738 231.378 476.892 229.956 476.892Z" fill="#FBECB8"/>
<path d="M231.349 402.599H183.303V397.448H231.349C232.002 397.448 232.531 397.977 232.531 398.63V401.417C232.531 402.07 232.002 402.599 231.349 402.599Z" fill="#FBECB8"/>
<path d="M226.875 409.848C226.875 409.97 218.219 410.069 207.544 410.069C196.865 410.069 188.211 409.97 188.211 409.848C188.211 409.725 196.865 409.626 207.544 409.626C218.219 409.626 226.875 409.725 226.875 409.848Z" fill="#FBECB8"/>
<path d="M226.875 419.249C226.875 419.371 218.219 419.47 207.544 419.47C196.865 419.47 188.211 419.371 188.211 419.249C188.211 419.127 196.865 419.028 207.544 419.028C218.219 419.028 226.875 419.127 226.875 419.249Z" fill="#FBECB8"/>
<path d="M226.875 428.64C226.875 428.762 218.219 428.861 207.544 428.861C196.865 428.861 188.211 428.762 188.211 428.64C188.211 428.517 196.865 428.418 207.544 428.418C218.219 428.418 226.875 428.517 226.875 428.64Z" fill="#FBECB8"/>
<path d="M226.875 438.04C226.875 438.162 218.219 438.262 207.544 438.262C196.865 438.262 188.211 438.163 188.211 438.04C188.211 437.918 196.865 437.819 207.544 437.819C218.219 437.819 226.875 437.918 226.875 438.04Z" fill="#FBECB8"/>
<path d="M226.875 447.438C226.875 447.561 218.219 447.66 207.544 447.66C196.865 447.66 188.211 447.561 188.211 447.438C188.211 447.316 196.865 447.217 207.544 447.217C218.219 447.217 226.875 447.316 226.875 447.438Z" fill="#FBECB8"/>
<path d="M226.875 456.835C226.875 456.957 218.219 457.056 207.544 457.056C196.865 457.056 188.211 456.957 188.211 456.835C188.211 456.713 196.865 456.614 207.544 456.614C218.219 456.613 226.875 456.713 226.875 456.835Z" fill="#FBECB8"/>
<path d="M226.875 466.22C226.875 466.342 218.219 466.441 207.544 466.441C196.865 466.441 188.211 466.342 188.211 466.22C188.211 466.097 196.865 465.999 207.544 465.999C218.219 465.997 226.875 466.097 226.875 466.22Z" fill="#FBECB8"/>
<path d="M68.8487 441.512V445.932C68.8487 451.254 66.1875 454.296 61.0542 454.296C55.922 454.296 53.2598 451.255 53.2598 445.932V428.633C53.2598 423.311 55.9209 420.269 61.0542 420.269C66.1865 420.269 68.8487 423.31 68.8487 428.633V431.865H63.9064V428.301C63.9064 425.925 62.8609 425.022 61.1981 425.022C59.5342 425.022 58.4886 425.925 58.4886 428.301V446.266C58.4886 448.642 59.5342 449.498 61.1981 449.498C62.8609 449.498 63.9064 448.642 63.9064 446.266V441.514H68.8487V441.512Z" fill="#FBECB8"/>
<path d="M130.755 420.65V446.314C130.755 448.69 131.801 449.545 133.465 449.545C135.128 449.545 136.174 448.689 136.174 446.314V420.65H141.116V445.981C141.116 451.303 138.455 454.345 133.322 454.345C128.19 454.345 125.527 451.304 125.527 445.981V420.65H130.755Z" fill="#FBECB8"/>
<path d="M155.611 453.917C155.325 453.062 155.135 452.539 155.135 449.83V444.603C155.135 441.513 154.09 440.373 151.713 440.373H149.907V453.918H144.68V420.65H152.569C157.986 420.65 160.315 423.169 160.315 428.302V430.916C160.315 434.338 159.222 436.571 156.893 437.665C159.506 438.758 160.362 441.277 160.362 444.746V449.879C160.362 451.494 160.409 452.683 160.932 453.918L155.611 453.917ZM149.907 425.403V435.621H151.951C153.9 435.621 155.088 434.765 155.088 432.104V428.825C155.088 426.448 154.28 425.403 152.427 425.403H149.907Z" fill="#FBECB8"/>
<path d="M136.402 384.943C136.402 387.734 134.458 389.772 131.803 389.772C130.259 389.772 129.178 389.139 128.716 387.997L127.79 392.689H126.695L128.902 381.577H129.951L129.689 382.875C130.461 382.01 131.542 381.517 132.854 381.517C134.935 381.518 136.402 382.813 136.402 384.943ZM135.291 385.005C135.291 383.414 134.318 382.474 132.621 382.474C130.6 382.474 129.117 384.063 129.117 386.284C129.117 387.875 130.09 388.8 131.787 388.8C133.809 388.801 135.291 387.212 135.291 385.005Z" fill="#FBECB8"/>
<path d="M146.214 384.157C146.214 384.45 146.183 384.758 146.121 385.083L145.195 389.696H144.099L145.026 385.065C145.071 384.803 145.102 384.557 145.102 384.326C145.102 383.169 144.408 382.505 143.003 382.505C141.275 382.505 140.087 383.446 139.7 385.345L138.836 389.696H137.74L140.025 378.245H141.12L140.209 382.797C140.981 381.919 142.061 381.519 143.312 381.519C145.148 381.519 146.214 382.506 146.214 384.157Z" fill="#FBECB8"/>
<path d="M156.479 381.579L150.552 390.748C149.548 392.291 148.793 392.769 147.62 392.769C146.865 392.769 146.092 392.506 145.691 392.043L146.278 391.241C146.633 391.611 147.095 391.828 147.713 391.828C148.408 391.828 148.947 391.503 149.581 390.516L150.152 389.652L148.129 381.578H149.24L150.922 388.492L155.352 381.578H156.479V381.579Z" fill="#FBECB8"/>
<path d="M180.901 47.9585H51.018H16.2441L43.0669 67.3142V105.394C43.0669 109.786 46.6265 113.347 51.018 113.347H180.901C185.293 113.347 188.853 109.787 188.853 105.394V55.9107C188.853 51.5181 185.294 47.9585 180.901 47.9585Z" fill="#FBECB8"/>
<path d="M174.056 74.8722C174.056 75.031 149.222 75.1598 118.595 75.1598C87.9571 75.1598 63.1289 75.031 63.1289 74.8722C63.1289 74.7133 87.9571 74.5845 118.595 74.5845C149.221 74.5845 174.056 74.7133 174.056 74.8722Z" fill="#FBECB8"/>
<path d="M174.056 89.4928C174.056 89.6516 149.222 89.7805 118.595 89.7805C87.9571 89.7805 63.1289 89.6516 63.1289 89.4928C63.1289 89.3339 87.9571 89.2051 118.595 89.2051C149.221 89.2051 174.056 89.3339 174.056 89.4928Z" fill="#FBECB8"/>
<path d="M752 476.882C752 477.037 583.645 477.161 376.018 477.161C168.319 477.161 0 477.036 0 476.882C0 476.729 168.319 476.603 376.018 476.603C583.646 476.602 752 476.728 752 476.882Z" fill="#263238"/>
<path d="M681.313 412.212C681.313 412.212 652.858 379.461 642.121 346.712C631.383 313.962 636.484 317.72 636.484 317.72C636.484 317.72 650.98 349.534 661.987 364.901C672.993 380.268 692.589 402.817 692.589 402.817L681.313 412.212Z" fill="#455A64"/>
<path d="M686.983 322.824C686.065 321.226 683.622 322.056 683.896 323.878C685.631 335.382 689.381 362.378 689.234 379.887C689.043 402.632 689.241 411.424 689.241 411.424H701.085C701.085 411.424 698.982 364.404 696.307 350.069C694.429 340.018 690.447 328.858 686.983 322.824Z" fill="#455A64"/>
<path d="M693.457 407.603C693.457 407.603 700.911 391.929 703.205 372.243C704.181 363.87 702.441 352.555 699.853 337.456C698.599 330.142 698.316 324.576 698.355 320.717C698.385 317.801 702.235 316.849 703.66 319.393C705.09 321.943 709.226 330.657 710.277 336.118C713.144 351.028 716.394 358.482 713.909 372.626C711.424 386.77 702.25 408.56 702.25 408.56L693.457 407.603Z" fill="#455A64"/>
<path d="M704.115 408.559C704.115 408.559 735.357 341.418 737.523 331.458C739.688 321.497 747.051 298.545 747.916 299.843C748.782 301.142 750.081 313.269 744.452 327.127C738.821 340.985 714.783 410.604 714.783 410.604H704.115" fill="#455A64"/>
<path d="M690.025 405.554C690.011 405.572 689.711 405.365 689.149 404.953C688.594 404.532 687.753 403.942 686.729 403.105C684.649 401.472 681.731 398.986 678.332 395.693C671.512 389.144 663.024 379.046 655.666 366.602C648.291 354.161 643.333 341.993 640.194 333.087C638.622 328.628 637.476 324.978 636.732 322.442C636.35 321.177 636.087 320.184 635.902 319.513C635.722 318.841 635.638 318.486 635.66 318.479C635.682 318.472 635.809 318.816 636.031 319.475C636.267 320.193 636.583 321.156 636.979 322.365C637.798 324.874 639.011 328.497 640.636 332.927C643.882 341.776 648.894 353.873 656.238 366.262C663.565 378.654 671.95 388.746 678.661 395.358C682.004 398.682 684.866 401.214 686.891 402.906C687.887 403.772 688.702 404.394 689.229 404.849C689.766 405.293 690.039 405.536 690.025 405.554Z" fill="#263238"/>
<path d="M693.437 373.341C693.391 373.345 693.293 372.642 693.157 371.371C693.008 369.981 692.815 368.17 692.582 365.989C692.087 361.447 691.315 355.183 690.211 348.302C689.102 341.42 687.871 335.228 686.918 330.759C686.456 328.615 686.072 326.834 685.778 325.468C685.51 324.218 685.382 323.521 685.427 323.51C685.472 323.498 685.685 324.174 686.03 325.406C686.38 326.637 686.843 328.43 687.378 330.655C688.452 335.104 689.758 341.296 690.87 348.195C691.977 355.093 692.676 361.383 693.052 365.943C693.241 368.224 693.363 370.072 693.417 371.351C693.472 372.631 693.482 373.338 693.437 373.341Z" fill="#263238"/>
<path d="M700.759 318.863C700.78 318.854 700.907 319.149 701.128 319.716C701.366 320.349 701.677 321.177 702.064 322.21C702.478 323.292 702.953 324.626 703.405 326.208C703.87 327.785 704.472 329.561 704.924 331.584C705.171 332.592 705.43 333.645 705.698 334.741C705.961 335.84 706.147 337.002 706.386 338.196C706.896 340.58 707.212 343.165 707.591 345.878C708.201 351.32 708.535 357.348 708.337 363.671C708.082 369.994 707.318 375.983 706.319 381.369C705.746 384.048 705.246 386.604 704.567 388.945C704.242 390.119 703.974 391.265 703.633 392.343C703.286 393.417 702.953 394.449 702.634 395.437C702.039 397.421 701.311 399.151 700.734 400.69C700.171 402.235 699.601 403.532 699.111 404.581C698.65 405.584 698.28 406.389 697.999 407.002C697.738 407.552 697.591 407.836 697.571 407.827C697.55 407.817 697.656 407.514 697.877 406.946C698.129 406.322 698.46 405.502 698.873 404.479C699.325 403.418 699.857 402.11 700.387 400.557C700.928 399.01 701.622 397.276 702.187 395.291C702.491 394.304 702.808 393.271 703.139 392.198C703.465 391.121 703.72 389.977 704.031 388.806C704.685 386.47 705.161 383.923 705.714 381.254C706.675 375.89 707.416 369.934 707.67 363.646C707.866 357.359 707.554 351.366 706.98 345.948C706.619 343.247 706.326 340.673 705.842 338.296C705.615 337.105 705.444 335.946 705.195 334.849C704.941 333.754 704.699 332.702 704.466 331.695C704.045 329.674 703.477 327.895 703.048 326.314C702.631 324.727 702.193 323.386 701.819 322.294C701.48 321.245 701.209 320.403 701.002 319.763C700.821 319.181 700.738 318.872 700.759 318.863Z" fill="#263238"/>
<path d="M747.585 301.194C747.596 301.197 747.589 301.298 747.561 301.496C747.523 301.732 747.478 302.019 747.422 302.369C747.285 303.133 747.112 304.267 746.806 305.71C746.203 308.599 745.198 312.756 743.635 317.798C742.08 322.842 739.944 328.756 737.414 335.252C734.894 341.752 731.964 348.834 729.19 356.373C726.374 363.899 724.204 371.244 722.166 377.911C720.145 384.582 718.229 390.569 716.376 395.513C714.543 400.463 712.777 404.362 711.444 406.995C710.804 408.325 710.229 409.317 709.857 410C709.682 410.308 709.538 410.56 709.42 410.767C709.318 410.938 709.261 411.023 709.252 411.018C709.241 411.012 709.279 410.916 709.361 410.734C709.463 410.518 709.588 410.256 709.739 409.937C710.071 409.236 710.609 408.227 711.211 406.881C712.469 404.22 714.162 400.308 715.934 395.35C717.725 390.399 719.59 384.413 721.577 377.733C723.583 371.061 725.74 363.689 728.565 356.142C731.345 348.585 734.293 341.509 736.842 335.028C739.402 328.551 741.576 322.668 743.185 317.655C744.802 312.645 745.873 308.519 746.553 305.654C746.896 304.222 747.11 303.098 747.29 302.343C747.372 301.998 747.438 301.716 747.493 301.483C747.543 301.29 747.574 301.192 747.585 301.194Z" fill="#263238"/>
<path d="M651.21 286.363C649.241 284.408 645.967 286.452 646.782 289.106C647.609 291.796 648.86 295.275 650.708 299.201C655.003 308.328 667.62 341.078 673.525 359.064C679.432 377.05 687.753 410.605 687.753 410.605L700.364 408.559C700.364 408.559 688.826 353.426 677.552 333.562C668.493 317.601 659.434 294.535 651.21 286.363Z" fill="#455A64"/>
<path d="M676.978 370.313C677.022 370.298 677.251 370.836 677.628 371.825C678.001 372.814 678.509 374.258 679.082 376.059C680.244 379.656 681.665 384.681 683.097 390.264C684.525 395.849 685.715 400.929 686.545 404.612C686.923 406.354 687.241 407.818 687.494 408.982C687.704 410.017 687.8 410.594 687.755 410.606C687.71 410.617 687.53 410.061 687.242 409.044C686.935 407.893 686.547 406.446 686.087 404.723C685.122 400.93 683.854 395.944 682.451 390.43C681.021 384.855 679.674 379.82 678.63 376.197C678.132 374.487 677.715 373.051 677.382 371.908C677.081 370.896 676.934 370.328 676.978 370.313Z" fill="#263238"/>
<path d="M694.109 409.581C694.097 409.582 694.074 409.468 694.038 409.245C694.001 408.983 693.954 408.657 693.896 408.252C693.764 407.38 693.645 406.086 693.379 404.432C692.917 401.12 692.09 396.345 690.735 390.521C689.389 384.696 687.426 377.843 684.832 370.373C682.245 362.901 679 354.829 675.325 346.474C667.905 329.784 660.494 314.979 655.623 304.033C653.162 298.572 651.255 294.114 650.001 291.009C649.361 289.461 648.902 288.244 648.582 287.421C648.44 287.038 648.325 286.729 648.232 286.481C648.157 286.267 648.124 286.157 648.135 286.152C648.146 286.148 648.2 286.251 648.296 286.456C648.404 286.698 648.539 286.998 648.707 287.371C649.078 288.226 649.59 289.409 650.24 290.908C651.568 293.98 653.538 298.406 656.053 303.838C661.029 314.726 668.505 329.49 675.935 346.207C679.617 354.574 682.853 362.672 685.414 370.175C687.982 377.675 689.904 384.561 691.196 390.417C692.496 396.271 693.253 401.07 693.637 404.399C693.863 406.06 693.941 407.361 694.03 408.238C694.061 408.645 694.087 408.974 694.107 409.238C694.12 409.464 694.121 409.58 694.109 409.581Z" fill="#263238"/>
<path d="M700.339 408.556C700.293 408.562 700.144 407.807 699.914 406.437C699.664 404.956 699.332 403.002 698.933 400.639C698.063 395.753 696.737 389.023 694.829 381.698C692.941 374.365 690.812 367.843 689.175 363.158C688.371 360.9 687.707 359.034 687.203 357.619C686.731 356.312 686.489 355.581 686.532 355.564C686.575 355.547 686.897 356.245 687.445 357.523C687.988 358.803 688.748 360.668 689.618 362.997C691.372 367.649 693.58 374.172 695.474 381.529C697.388 388.878 698.645 395.646 699.398 400.561C699.756 403.022 700.031 405.016 700.172 406.399C700.323 407.783 700.384 408.55 700.339 408.556Z" fill="#263238"/>
<path d="M726.287 406.747H677.061V466.723H726.287V406.747Z" fill="#FBECB8"/>
<g opacity="0.3">
<path d="M726.287 406.747H677.061V466.723H726.287V406.747Z" fill="black"/>
</g>
<path d="M710.558 406.747H666.885V466.723H710.558V406.747Z" fill="#FBECB8"/>
<path d="M70.6065 385.894C62.2216 380.523 50.5992 380.421 42.4387 386.126C34.6915 391.541 30.7572 401.399 31.0986 410.845C31.44 420.292 36.0194 431.836 44.5781 436.798L69.7005 436.7C77.7225 430.801 83.1467 421.298 83.5246 411.348C83.9035 401.399 78.9913 391.264 70.6065 385.894Z" fill="#455A64"/>
<path d="M58.2251 437.708C58.1693 437.708 58.1167 436.938 58.0673 435.546C58.0233 434.001 57.9675 432.023 57.8999 429.653C57.7732 424.679 57.5767 417.809 57.245 410.226C56.9101 402.641 56.5022 395.779 56.192 390.812C56.0503 388.446 55.9333 386.471 55.841 384.928C55.768 383.538 55.754 382.767 55.8087 382.762C55.8635 382.757 55.9837 383.519 56.1523 384.903C56.3229 386.285 56.5312 388.29 56.7577 390.77C57.2128 395.731 57.7109 402.596 58.0469 410.191C58.3797 417.785 58.486 424.667 58.4677 429.648C58.4591 432.138 58.428 434.154 58.3797 435.547C58.3325 436.938 58.2809 437.708 58.2251 437.708Z" fill="#263238"/>
<path d="M33.6375 408.706C33.6192 408.927 32.2538 408.995 30.5888 408.859C28.9228 408.722 27.5874 408.432 27.6057 408.211C27.6239 407.991 28.9883 407.923 30.6543 408.059C32.3192 408.195 33.6557 408.485 33.6375 408.706Z" fill="#263238"/>
<path d="M34.1004 400.228C34.0102 400.431 32.8326 400.105 31.4704 399.5C30.1081 398.896 29.0755 398.242 29.1656 398.039C29.2547 397.836 30.4323 398.163 31.7956 398.767C33.1589 399.371 34.1905 400.025 34.1004 400.228Z" fill="#263238"/>
<path d="M38.4647 393.935C38.3498 394.119 37.0262 393.496 35.6511 392.353C34.2717 391.216 33.4119 390.032 33.5718 389.884C33.736 389.73 34.8278 390.635 36.1631 391.736C37.4932 392.841 38.586 393.744 38.4647 393.935Z" fill="#263238"/>
<path d="M42.8382 388.002C42.6353 388.092 42.0009 387.101 41.4212 385.789C40.8415 384.476 40.5356 383.34 40.7385 383.25C40.9413 383.161 41.5747 384.152 42.1554 385.465C42.7351 386.775 43.041 387.912 42.8382 388.002Z" fill="#263238"/>
<path d="M49.7422 383.789C49.5446 383.882 48.8619 382.826 48.4089 381.363C47.9516 379.901 47.9162 378.645 48.1309 378.61C48.3531 378.571 48.7342 379.72 49.1754 381.126C49.609 382.532 49.9472 383.695 49.7422 383.789Z" fill="#263238"/>
<path d="M61.2325 379.041C61.4419 379.115 61.3141 380.016 60.9481 381.054C60.582 382.092 60.1161 382.873 59.9068 382.799C59.6985 382.725 59.8252 381.824 60.1923 380.786C60.5573 379.748 61.0232 378.967 61.2325 379.041Z" fill="#263238"/>
<path d="M69.7367 382.694C69.887 382.856 69.3406 383.607 68.5162 384.37C67.6918 385.133 66.9017 385.619 66.7514 385.456C66.6011 385.294 67.1475 384.544 67.972 383.78C68.7953 383.018 69.5854 382.531 69.7367 382.694Z" fill="#263238"/>
<path d="M77.2158 387.539C77.3403 387.722 76.6737 388.391 75.728 389.031C74.7822 389.672 73.9138 390.043 73.7903 389.859C73.6658 389.676 74.3325 389.008 75.2782 388.366C76.2239 387.726 77.0923 387.355 77.2158 387.539Z" fill="#263238"/>
<path d="M82.5458 394.759C82.6327 394.963 81.5829 395.606 80.2002 396.195C78.8176 396.785 77.6271 397.097 77.5402 396.894C77.4532 396.69 78.5031 396.047 79.8857 395.458C81.2683 394.868 82.4588 394.555 82.5458 394.759Z" fill="#263238"/>
<path d="M84.654 402.631C84.6809 402.851 83.6128 403.164 82.2688 403.33C80.9237 403.497 79.8116 403.454 79.7837 403.234C79.7569 403.014 80.825 402.701 82.17 402.534C83.514 402.368 84.6261 402.41 84.654 402.631Z" fill="#263238"/>
<path d="M85.7227 412.328C85.6347 412.531 84.4957 412.232 83.1807 411.66C81.8647 411.088 80.8696 410.46 80.9587 410.256C81.0467 410.053 82.1846 410.352 83.5006 410.924C84.8167 411.497 85.8118 412.125 85.7227 412.328Z" fill="#263238"/>
<path d="M84.798 420.647C84.7282 420.849 83.2887 420.507 81.7847 419.519C80.2755 418.538 79.3845 417.357 79.5412 417.212C79.7044 417.051 80.7972 417.923 82.2227 418.848C83.6418 419.782 84.8796 420.434 84.798 420.647Z" fill="#263238"/>
<path d="M80.4416 428.22C80.3096 428.392 79.1642 427.719 78.065 426.532C76.9615 425.348 76.3753 424.156 76.5557 424.036C76.7425 423.909 77.5959 424.853 78.6522 425.985C79.7031 427.123 80.5812 428.043 80.4416 428.22Z" fill="#263238"/>
<path d="M39.3263 429.105C39.4283 429.302 38.226 430.13 36.6394 430.956C35.0529 431.782 33.6842 432.292 33.5822 432.096C33.4802 431.899 34.6825 431.071 36.2691 430.245C37.8546 429.419 39.2233 428.909 39.3263 429.105Z" fill="#263238"/>
<path d="M35.586 422.256C35.6773 422.458 34.7122 423.093 33.4316 423.673C32.1499 424.254 31.0377 424.562 30.9454 424.36C30.8542 424.159 31.8182 423.524 33.0999 422.943C34.3816 422.362 35.4937 422.055 35.586 422.256Z" fill="#263238"/>
<path d="M32.801 416.187C32.8321 416.406 31.6449 416.756 30.1495 416.968C28.6531 417.181 27.4154 417.175 27.3854 416.956C27.3542 416.737 28.5415 416.387 30.0368 416.174C31.5322 415.963 32.7699 415.968 32.801 416.187Z" fill="#263238"/>
<path d="M41.8492 412.848C41.9147 413.054 40.7564 413.595 39.2117 413.767C37.667 413.944 36.4175 413.676 36.4357 413.46C36.4508 413.234 37.6595 413.139 39.1216 412.97C40.5847 412.809 41.7848 412.631 41.8492 412.848Z" fill="#263238"/>
<path d="M49.385 405.356C49.4505 405.563 48.5284 406.029 47.2853 406.149C46.0422 406.274 45.0471 405.996 45.0707 405.78C45.0922 405.556 46.0508 405.468 47.2059 405.351C48.362 405.241 49.3206 405.14 49.385 405.356Z" fill="#263238"/>
<path d="M50.8243 399.363C50.7524 399.573 49.7541 399.418 48.5958 399.018C47.4375 398.617 46.5562 398.122 46.6292 397.913C46.7011 397.704 47.6995 397.858 48.8577 398.259C50.016 398.659 50.8973 399.154 50.8243 399.363Z" fill="#263238"/>
<path d="M53.5977 393.299C53.4442 393.453 52.7583 393.001 52.2699 392.151C51.7782 391.302 51.7299 390.483 51.9403 390.426C52.1571 390.363 52.5264 390.997 52.9644 391.749C53.3959 392.506 53.7598 393.144 53.5977 393.299Z" fill="#263238"/>
<path d="M50.2431 418.126C50.2957 418.342 49.4316 418.737 48.313 419.01C47.6668 419.168 47.0775 419.251 46.691 419.249L46.5332 418.781C46.823 418.728 47.0098 418.741 47.0474 418.826C47.085 418.912 46.9669 419.057 46.7329 419.235L46.5751 418.767C46.9175 418.587 47.4779 418.389 48.1241 418.231C49.2416 417.958 50.1905 417.911 50.2431 418.126Z" fill="#263238"/>
<path d="M51.8148 428.757C51.8953 428.963 50.7939 429.589 49.3544 430.155C47.9138 430.72 46.6814 431.012 46.5999 430.806C46.5193 430.6 47.6207 429.974 49.0602 429.409C50.5008 428.843 51.7342 428.552 51.8148 428.757Z" fill="#263238"/>
<path d="M43.3059 424.04C43.3778 424.249 42.6425 424.689 41.6645 425.022C40.6866 425.355 39.8364 425.454 39.7645 425.244C39.6936 425.035 40.4279 424.595 41.4058 424.262C42.3837 423.93 43.2339 423.83 43.3059 424.04Z" fill="#263238"/>
<path d="M43.9685 402.392C43.918 402.604 42.6384 402.478 41.1603 401.952C39.681 401.43 38.6076 400.723 38.701 400.526C38.7965 400.323 39.9913 400.689 41.4276 401.196C42.8628 401.707 44.0221 402.174 43.9685 402.392Z" fill="#263238"/>
<path d="M64.4953 400.043C64.6176 400.228 63.8963 400.918 62.8861 401.585C61.8749 402.251 60.9571 402.641 60.8358 402.456C60.7134 402.272 61.4337 401.582 62.4449 400.915C63.4551 400.248 64.3729 399.858 64.4953 400.043Z" fill="#263238"/>
<path d="M65.6422 410.717C65.6873 410.934 64.9305 411.274 63.9515 411.478C62.9725 411.681 62.1427 411.671 62.0976 411.454C62.0525 411.237 62.8093 410.897 63.7883 410.694C64.7673 410.49 65.5971 410.502 65.6422 410.717Z" fill="#263238"/>
<path d="M66.9605 422.724C66.8671 422.925 65.7775 422.618 64.5258 422.039C63.2742 421.46 62.3349 420.827 62.4283 420.625C62.5217 420.425 63.6112 420.732 64.8629 421.311C66.1146 421.891 67.0538 422.523 66.9605 422.724Z" fill="#263238"/>
<path d="M64.1872 434.409C64.0154 434.55 63.308 433.971 62.6059 433.117C61.9039 432.262 61.4734 431.455 61.6452 431.315C61.8159 431.174 62.5243 431.752 63.2264 432.607C63.9274 433.461 64.3578 434.269 64.1872 434.409Z" fill="#263238"/>
<path d="M63.6189 392.181C63.7542 392.352 63.2872 392.94 62.4853 393.342C61.6845 393.746 60.9331 393.768 60.8773 393.558C60.8172 393.342 61.4033 392.991 62.1257 392.626C62.8503 392.263 63.4815 392.002 63.6189 392.181Z" fill="#263238"/>
<path d="M73.7118 402.951C73.7848 403.155 72.853 403.668 71.5767 403.843C70.3014 404.024 69.2644 403.783 69.2795 403.567C69.2913 403.342 70.2778 403.217 71.4661 403.049C72.6555 402.887 73.6388 402.738 73.7118 402.951Z" fill="#263238"/>
<path d="M71.702 393.281C71.8008 393.476 70.8744 394.136 69.5583 394.554C68.2422 394.977 67.1054 394.976 67.0732 394.762C67.0367 394.539 68.064 394.194 69.3146 393.79C70.5652 393.393 71.6022 393.078 71.702 393.281Z" fill="#263238"/>
<path d="M75.892 417.919C75.8888 418.134 74.3054 418.275 72.3957 417.925C70.4838 417.582 69.0508 416.895 69.1238 416.692C69.1968 416.477 70.6942 416.805 72.5385 417.136C74.3805 417.474 75.8995 417.692 75.892 417.919Z" fill="#263238"/>
<path d="M72.156 431.962C72.0229 432.134 70.8571 431.448 69.6934 430.277C68.5266 429.108 67.846 427.94 68.0188 427.807C68.197 427.668 69.1342 428.582 70.2624 429.711C71.3863 430.844 72.2955 431.785 72.156 431.962Z" fill="#263238"/>
<path d="M55.7133 381.857C55.8325 382.029 52.5155 383.374 48.6821 387.414C44.8509 391.364 40.8984 398.342 39.9248 406.77C39.4589 410.96 39.8582 415.014 40.4529 418.631C41.0788 422.253 41.9086 425.469 42.6739 428.15C43.4436 430.829 44.15 432.976 44.6244 434.464C45.1 435.952 45.3544 436.779 45.2996 436.8C45.2503 436.818 44.8971 436.027 44.3303 434.568C43.7646 433.109 42.9734 430.986 42.1308 428.313C41.2913 425.64 40.3971 422.415 39.724 418.758C39.0832 415.104 38.6484 410.986 39.1272 406.677C40.1212 398.054 44.2584 390.948 48.2731 387.02C50.2709 385.024 52.1484 383.692 53.5181 382.921C54.1826 382.5 54.7569 382.276 55.1229 382.087C55.4997 381.912 55.7015 381.833 55.7133 381.857Z" fill="#263238"/>
<path d="M66.6516 437.314C66.4777 437.227 68.454 434.185 70.2563 428.701C72.1123 423.286 73.6474 415.265 72.4108 406.553C71.8322 402.21 70.5762 398.184 68.9961 394.744C67.3558 391.351 65.2411 388.572 63.1725 386.633C61.0331 384.742 58.9323 383.656 57.467 383.027C55.9835 382.409 55.0957 382.264 55.1075 382.197C55.1118 382.171 55.3373 382.184 55.7634 382.247C56.1853 382.324 56.8079 382.465 57.5797 382.737C59.1116 383.29 61.2886 384.311 63.5471 386.207C65.7467 388.17 67.9301 390.943 69.6638 394.425C71.3169 397.925 72.6158 402.017 73.2062 406.443C74.4654 415.316 72.8069 423.461 70.793 428.888C70.34 430.273 69.7571 431.46 69.3224 432.529C68.8061 433.564 68.3799 434.463 67.9881 435.174C67.1712 436.579 66.6999 437.341 66.6516 437.314Z" fill="#263238"/>
<path d="M35.5508 435.417H79.7583L80.0299 444.265H35.5508V435.417Z" fill="#FBECB8"/>
<path d="M39.3359 439.84L41.8747 466.85H74.1936L76.7892 440.136L39.3359 439.84Z" fill="#FBECB8"/>
<path d="M80.0786 444.37C80.0786 444.591 70.1233 444.772 57.846 444.772C45.5645 444.772 35.6113 444.592 35.6113 444.37C35.6113 444.148 45.5645 443.969 57.846 443.969C70.1233 443.969 80.0786 444.148 80.0786 444.37Z" fill="#263238"/>
<path d="M75.5386 452.602C75.5816 452.628 75.2831 453.25 74.5918 454.29C73.8984 455.326 72.7948 456.779 71.1632 458.339L70.9603 458.533L70.7595 458.323C68.6309 456.09 65.7067 453.353 62.0956 450.739L62.584 450.717C61.3495 451.8 60.0635 452.93 58.7432 454.088C57.1737 455.455 55.6526 456.779 54.2024 458.042L53.9512 458.261L53.6989 458.049C50.9466 455.735 48.4422 453.63 46.3178 451.843L46.7472 451.797C45.2228 453.658 43.9422 455.221 42.9288 456.457C42.01 457.548 41.4775 458.135 41.4292 458.098C41.382 458.061 41.8242 457.404 42.6626 456.25C43.6202 454.97 44.83 453.352 46.2716 451.426L46.4552 451.18L46.701 451.38C48.8576 453.127 51.3985 455.187 54.1927 457.452L53.6904 457.46C55.1352 456.191 56.6499 454.86 58.2139 453.487C59.5386 452.333 60.8289 451.208 62.0666 450.129L62.3038 449.922L62.5561 450.108C66.1952 452.783 69.1064 455.611 71.1782 457.936L70.7746 457.92C74.054 454.943 75.4119 452.506 75.5386 452.602Z" fill="#263238"/>
<path d="M606.764 469.302H138.817C130.181 469.302 123.18 462.3 123.18 453.664V154.809C123.18 146.173 130.181 139.172 138.817 139.172H606.764C615.4 139.172 622.401 146.173 622.401 154.809V453.664C622.401 462.3 615.4 469.302 606.764 469.302Z" fill="#455A64"/>
<path d="M628.555 476.869H125.897C115.345 476.869 106.791 468.316 106.791 457.764V447.982H647.659V457.764C647.66 468.315 639.107 476.869 628.555 476.869Z" fill="#455A64"/>
<path d="M323.551 444.89L330.263 455.566H424.706L430.937 444.89H323.551Z" fill="#263238"/>
<path d="M618.057 444.89C618.057 445.07 507.253 445.214 370.603 445.214C233.905 445.214 123.125 445.069 123.125 444.89C123.125 444.712 233.905 444.567 370.603 444.567C507.253 444.567 618.057 444.712 618.057 444.89Z" fill="#263238"/>
<path d="M602.612 436.164H140.963C139.022 436.164 137.449 434.591 137.449 432.65V161.676C137.449 159.735 139.022 158.163 140.963 158.163H602.612C604.552 158.163 606.126 159.735 606.126 161.675V432.651C606.126 434.591 604.552 436.164 602.612 436.164Z" fill="#FBECB8"/>
<path d="M605.562 436.575H136.887L137.388 178.943H605.562V436.575Z" fill="white"/>
<path d="M175.864 168.902C175.864 170.969 174.189 172.645 172.121 172.645C170.054 172.645 168.379 170.969 168.379 168.902C168.379 166.834 170.055 165.16 172.121 165.16C174.187 165.16 175.864 166.834 175.864 168.902Z" fill="#263238"/>
<path d="M153.188 168.91C153.188 170.978 151.512 172.653 149.444 172.653C147.378 172.653 145.701 170.978 145.701 168.91C145.701 166.843 147.378 165.168 149.444 165.168C151.512 165.168 153.188 166.843 153.188 168.91Z" fill="#263238"/>
<path d="M164.033 168.911C164.033 170.979 162.358 172.654 160.29 172.654C158.223 172.654 156.547 170.979 156.547 168.911C156.547 166.844 158.223 165.169 160.29 165.169C162.358 165.169 164.033 166.844 164.033 168.911Z" fill="#263238"/>
<path d="M606.125 411.695H136.947V436.574H606.125V411.695Z" fill="#263238"/>
<path d="M154.675 427.015V427.812H150.94V427.182L152.953 425.27C153.445 424.8 153.532 424.502 153.532 424.221C153.532 423.757 153.213 423.489 152.591 423.489C152.099 423.489 151.686 423.655 151.403 424.017L150.744 423.51C151.135 422.982 151.838 422.67 152.67 422.67C153.77 422.67 154.48 423.227 154.48 424.126C154.48 424.617 154.342 425.067 153.639 425.726L152.286 427.015H154.675Z" fill="white"/>
<path d="M155.18 424.502C155.18 424.14 155.447 423.901 155.773 423.901C156.099 423.901 156.367 424.14 156.367 424.502C156.367 424.849 156.099 425.102 155.773 425.102C155.447 425.102 155.18 424.849 155.18 424.502ZM155.18 427.261C155.18 426.898 155.447 426.661 155.773 426.661C156.099 426.661 156.367 426.898 156.367 427.261C156.367 427.608 156.099 427.861 155.773 427.861C155.447 427.862 155.18 427.609 155.18 427.261Z" fill="white"/>
<path d="M158.722 422.741V427.81H157.781V423.531H156.709V422.741H158.722Z" fill="white"/>
<path d="M164.263 426.659H163.365V427.81H162.452V426.659H159.672V426.006L162.17 422.741H163.177L160.823 425.862H162.481V424.84H163.365V425.862H164.263V426.659Z" fill="white"/>
<path d="M557.09 424.636H172.533V426.389H557.09V424.636Z" fill="white"/>
<path d="M292.409 422.746H172.234V427.422H292.409V422.746Z" fill="#FBECB8"/>
<path d="M296.285 425.511C296.285 428.742 293.666 431.362 290.434 431.362C287.202 431.362 284.582 428.742 284.582 425.511C284.582 422.28 287.201 419.66 290.434 419.66C293.666 419.661 296.285 422.28 296.285 425.511Z" fill="#FBECB8"/>
<path d="M566.759 425.454C566.759 426.462 565.941 427.099 564.905 427.099C563.522 427.099 562.711 426.209 562.711 424.578C562.711 422.84 563.724 421.885 565.195 421.885C565.702 421.885 566.187 421.993 566.527 422.21L566.18 422.92C565.906 422.738 565.572 422.674 565.217 422.674C564.262 422.674 563.661 423.268 563.661 424.419V424.427C563.966 424.071 564.451 423.899 565.015 423.899C566.014 423.899 566.759 424.505 566.759 425.454ZM565.846 425.498C565.846 424.97 565.448 424.637 564.833 424.637C564.225 424.637 563.805 425.005 563.805 425.506C563.805 425.983 564.182 426.359 564.855 426.359C565.442 426.359 565.846 426.026 565.846 425.498Z" fill="white"/>
<path d="M567.223 423.717C567.223 423.355 567.49 423.116 567.816 423.116C568.142 423.116 568.41 423.355 568.41 423.717C568.41 424.064 568.142 424.317 567.816 424.317C567.489 424.317 567.223 424.064 567.223 423.717ZM567.223 426.476C567.223 426.113 567.49 425.876 567.816 425.876C568.142 425.876 568.41 426.113 568.41 426.476C568.41 426.822 568.142 427.077 567.816 427.077C567.489 427.076 567.223 426.822 567.223 426.476Z" fill="white"/>
<path d="M569.012 424.492C569.012 422.826 569.923 421.885 571.125 421.885C572.335 421.885 573.248 422.826 573.248 424.492C573.248 426.156 572.335 427.1 571.125 427.1C569.924 427.099 569.012 426.156 569.012 424.492ZM572.3 424.492C572.3 423.268 571.823 422.704 571.126 422.704C570.439 422.704 569.961 423.268 569.961 424.492C569.961 425.716 570.439 426.28 571.126 426.28C571.822 426.28 572.3 425.716 572.3 424.492Z" fill="white"/>
<path d="M573.875 424.492C573.875 422.826 574.786 421.885 575.989 421.885C577.198 421.885 578.111 422.826 578.111 424.492C578.111 426.156 577.2 427.1 575.989 427.1C574.787 427.099 573.875 426.156 573.875 424.492ZM577.163 424.492C577.163 423.268 576.685 422.704 575.99 422.704C575.303 422.704 574.824 423.268 574.824 424.492C574.824 425.716 575.302 426.28 575.99 426.28C576.685 426.28 577.163 425.716 577.163 424.492Z" fill="white"/>
<path d="M586.303 424.176H584.549V419.123H589.594V420.876H586.303V424.176Z" fill="white"/>
<path d="M589.604 430.774H584.549V425.729H586.302V429.021H589.604V430.774Z" fill="white"/>
<path d="M597.655 430.772H592.609V429.019H595.901V425.717H597.655V430.772Z" fill="white"/>
<path d="M597.664 424.167H595.91V420.876H592.609V419.123H597.664V424.167Z" fill="white"/>
<path d="M201.203 194.259H173.578L159.766 218.184L173.578 242.107H201.203L215.015 218.184L201.203 194.259Z" fill="#FBECB8"/>
<path d="M175.837 222.868C174.602 221.501 173.357 220.119 172.458 218.512C171.558 216.906 171.021 215.031 171.319 213.214C171.493 212.151 171.945 211.139 172.016 210.064C172.115 208.586 171.494 207.041 172.018 205.656C172.837 203.489 175.752 203.155 177.52 201.659C178.896 200.494 179.567 198.602 181.082 197.622C182.404 196.765 184.105 196.784 185.665 197.005C187.225 197.226 188.795 197.619 190.357 197.409C191.47 197.259 192.519 196.809 193.609 196.54C194.7 196.27 195.916 196.198 196.888 196.763C197.859 197.328 198.404 198.706 197.767 199.631C199.577 198.797 201.875 200.208 202.371 202.138C202.866 204.068 201.875 206.154 200.341 207.427C198.808 208.7 196.824 209.292 194.866 209.661C189.322 210.705 183.308 210.116 178.53 207.115" fill="#263238"/>
<path d="M201.494 228.77C201.307 225.346 200.349 218.327 199.408 211.982C198.396 205.159 192.316 200.257 185.434 200.717L184.75 200.764C177.406 201.688 174.088 208.44 175.215 215.756L177.371 242.107H195.292C195.292 242.107 194.868 237.484 194.866 237.439C194.866 237.439 201.88 235.862 201.494 228.77Z" fill="#FFBE9D"/>
<path d="M194.833 237.337C194.833 237.337 190.379 238.001 185.42 235.33C185.42 235.33 187.945 240.283 194.973 239.172L194.833 237.337Z" fill="#EB996E"/>
<path d="M197.108 218.072C197.163 218.605 196.756 219.09 196.201 219.158C195.646 219.225 195.151 218.849 195.097 218.315C195.042 217.783 195.448 217.296 196.003 217.229C196.559 217.161 197.055 217.539 197.108 218.072Z" fill="#263238"/>
<path d="M198.079 215.548C197.962 215.689 197.158 215.173 196.068 215.249C194.98 215.309 194.217 215.923 194.091 215.797C194.028 215.743 194.14 215.496 194.472 215.219C194.797 214.944 195.365 214.66 196.044 214.617C196.723 214.575 197.31 214.786 197.655 215.02C198.007 215.254 198.137 215.485 198.079 215.548Z" fill="#263238"/>
<path d="M186.823 218.796C186.878 219.33 186.471 219.815 185.916 219.883C185.361 219.95 184.866 219.573 184.812 219.04C184.757 218.506 185.164 218.02 185.718 217.954C186.274 217.886 186.769 218.264 186.823 218.796Z" fill="#263238"/>
<path d="M187.2 216.481C187.083 216.622 186.278 216.105 185.189 216.182C184.101 216.242 183.339 216.856 183.212 216.73C183.15 216.675 183.26 216.428 183.593 216.151C183.918 215.876 184.486 215.592 185.164 215.549C185.843 215.507 186.43 215.719 186.776 215.953C187.128 216.187 187.258 216.419 187.2 216.481Z" fill="#263238"/>
<path d="M191.931 224.278C191.921 224.217 192.591 224.054 193.678 223.84C193.954 223.793 194.214 223.72 194.248 223.527C194.3 223.322 194.163 223.03 194.008 222.715C193.701 222.059 193.381 221.372 193.044 220.653C191.7 217.715 190.708 215.291 190.826 215.239C190.945 215.186 192.13 217.524 193.474 220.462C193.799 221.187 194.109 221.878 194.405 222.539C194.532 222.848 194.737 223.194 194.622 223.621C194.561 223.834 194.367 223.998 194.191 224.058C194.016 224.125 193.861 224.138 193.723 224.156C192.623 224.289 191.939 224.34 191.931 224.278Z" fill="#263238"/>
<path d="M187.495 212.18C187.407 212.483 186.311 212.416 185.043 212.656C183.771 212.87 182.765 213.313 182.578 213.059C182.494 212.936 182.655 212.646 183.053 212.332C183.447 212.018 184.087 211.702 184.849 211.565C185.61 211.43 186.32 211.505 186.798 211.663C187.279 211.82 187.531 212.037 187.495 212.18Z" fill="#263238"/>
<path d="M197.464 212.416C197.289 212.675 196.521 212.469 195.618 212.518C194.715 212.534 193.964 212.796 193.771 212.549C193.685 212.428 193.789 212.173 194.107 211.916C194.42 211.661 194.957 211.433 195.579 211.411C196.2 211.389 196.752 211.577 197.083 211.81C197.418 212.042 197.54 212.29 197.464 212.416Z" fill="#263238"/>
<path d="M176.084 220.953C175.959 220.909 171.119 219.838 171.598 224.672C172.077 229.506 177.315 227.93 177.31 227.791C177.304 227.652 176.084 220.953 176.084 220.953Z" fill="#FFBE9D"/>
<path d="M175.188 226.222C175.166 226.208 175.11 226.29 174.974 226.369C174.841 226.446 174.606 226.514 174.346 226.444C173.816 226.307 173.305 225.539 173.196 224.67C173.14 224.231 173.19 223.803 173.312 223.441C173.425 223.072 173.628 222.803 173.882 222.731C174.132 222.646 174.328 222.782 174.401 222.912C174.48 223.041 174.458 223.141 174.485 223.146C174.5 223.157 174.581 223.055 174.523 222.86C174.494 222.766 174.425 222.657 174.303 222.575C174.177 222.493 174.002 222.462 173.825 222.498C173.455 222.56 173.153 222.937 173.02 223.334C172.866 223.736 172.799 224.218 172.861 224.71C172.989 225.681 173.577 226.544 174.296 226.676C174.645 226.731 174.919 226.601 175.054 226.472C175.19 226.34 175.205 226.229 175.188 226.222Z" fill="#EB996E"/>
<path d="M199.007 205.361C198.675 207.286 194.772 209.048 191.537 208.954C188.554 208.867 187.08 207.387 184.912 206.335C183.54 205.669 183.54 205.669 181.679 205.972C180.174 206.217 179.393 207.992 178.548 209.262C180.158 212.771 179.507 216.852 178.825 220.654C178.75 221.073 178.656 221.527 178.335 221.809C177.792 222.287 176.911 222.001 176.376 221.511C175.521 220.728 175.131 219.566 174.851 218.44C174.212 215.876 173.966 213.191 174.372 210.579C174.778 207.967 175.858 205.431 177.643 203.481C179.872 201.045 183.133 199.641 186.43 199.471C189.729 199.301 193.041 200.322 195.804 202.132C197.084 202.973 198.282 204.011 199.007 205.361Z" fill="#263238"/>
<path d="M192.572 226.727C191.751 226.344 190.93 225.961 190.109 225.579C189.967 225.512 189.816 225.444 189.66 225.466C189.485 225.49 189.345 225.619 189.234 225.756C188.663 226.448 188.518 227.493 188.961 228.274C189.403 229.056 190.445 229.468 191.273 229.124C192.146 228.763 192.571 227.748 192.639 226.806L192.572 226.727Z" fill="#EB996E"/>
<path d="M191.355 229.294C191.393 229.342 190.84 229.69 189.911 229.424C189.462 229.289 188.95 228.944 188.633 228.386C188.31 227.843 188.192 227.064 188.471 226.366C188.604 226.019 188.813 225.712 189.067 225.47C189.197 225.348 189.328 225.249 189.487 225.156C189.642 225.041 189.977 225.023 190.136 225.118C190.7 225.432 191.079 225.699 191.456 225.941C192.179 226.42 192.605 226.75 192.566 226.816C192.528 226.883 192.03 226.675 191.257 226.283C190.807 226.048 190.372 225.821 189.942 225.596C189.839 225.568 189.85 225.568 189.751 225.619C189.654 225.682 189.54 225.77 189.447 225.864C189.255 226.055 189.095 226.297 188.992 226.565C188.777 227.105 188.851 227.688 189.084 228.138C189.315 228.593 189.688 228.894 190.048 229.052C190.789 229.37 191.341 229.205 191.355 229.294Z" fill="#263238"/>
<path d="M190.581 218.187C190.526 218.189 190.532 217.737 190.318 216.98C190.105 216.237 189.589 215.156 188.467 214.331C187.383 213.502 185.61 213.045 183.9 213.687C182.204 214.276 180.744 216.08 180.764 218.185C180.744 220.291 182.205 222.096 183.9 222.685C185.61 223.327 187.384 222.87 188.467 222.041C189.588 221.215 190.104 220.134 190.316 219.392C190.532 218.635 190.526 218.183 190.581 218.187C190.6 218.187 190.613 218.297 190.62 218.512C190.632 218.725 190.612 219.044 190.528 219.446C190.371 220.236 189.886 221.42 188.706 222.357C187.567 223.294 185.631 223.854 183.724 223.171C181.835 222.548 180.181 220.541 180.203 218.187C180.182 215.832 181.835 213.826 183.724 213.203C185.631 212.52 187.567 213.08 188.706 214.017C189.886 214.953 190.371 216.137 190.528 216.928C190.612 217.329 190.632 217.649 190.62 217.862C190.613 218.075 190.6 218.187 190.581 218.187Z" fill="#263238"/>
<path d="M202.637 217.711C202.584 217.714 202.589 217.273 202.377 216.537C202.169 215.814 201.666 214.762 200.574 213.959C199.519 213.152 197.793 212.708 196.13 213.334C194.48 213.908 193.06 215.663 193.078 217.711C193.059 219.76 194.48 221.516 196.13 222.09C197.794 222.716 199.52 222.272 200.575 221.464C201.667 220.66 202.17 219.608 202.378 218.886C202.589 218.149 202.584 217.709 202.637 217.711C202.657 217.711 202.67 217.82 202.678 218.028C202.69 218.236 202.67 218.548 202.589 218.938C202.438 219.709 201.965 220.864 200.814 221.778C199.704 222.692 197.815 223.24 195.955 222.573C194.112 221.967 192.497 220.008 192.52 217.71C192.498 215.413 194.112 213.455 195.955 212.849C197.815 212.182 199.704 212.728 200.814 213.643C201.965 214.557 202.438 215.712 202.589 216.482C202.67 216.873 202.69 217.184 202.678 217.393C202.67 217.603 202.657 217.711 202.637 217.711Z" fill="#263238"/>
<path d="M192.796 216.597C192.687 216.7 192.208 216.391 191.563 216.411C190.917 216.411 190.453 216.738 190.338 216.642C190.191 216.564 190.641 215.868 191.553 215.853C192.463 215.839 192.939 216.512 192.796 216.597Z" fill="#263238"/>
<path d="M180.789 217.469C180.881 217.592 179.944 218.449 178.694 219.381C177.446 220.314 176.358 220.969 176.266 220.845C176.174 220.722 177.111 219.865 178.36 218.933C179.609 218.001 180.696 217.346 180.789 217.469Z" fill="#263238"/>
<path d="M280.435 217.942C280.435 218.097 268.017 218.221 252.701 218.221C237.381 218.221 224.965 218.096 224.965 217.942C224.965 217.789 237.381 217.663 252.701 217.663C268.016 217.663 280.435 217.789 280.435 217.942Z" fill="#263238"/>
<path d="M254.767 223.745C254.767 223.899 248.173 224.024 240.04 224.024C231.905 224.024 225.312 223.898 225.312 223.745C225.312 223.591 231.906 223.466 240.04 223.466C248.173 223.466 254.767 223.59 254.767 223.745Z" fill="#263238"/>
<path d="M446.608 260.833C446.608 260.833 461.351 268.017 466.528 286.566C471.706 305.114 487.563 353.419 487.563 353.419C487.563 353.419 496.624 364.078 497.594 371.973C498.565 379.867 496.624 398.96 493.712 402.519C490.799 406.079 486.646 405.49 486.646 405.49L448.508 401.872L433.49 301.314L446.608 260.833Z" fill="#FBECB8"/>
<path d="M320.509 259.077C320.509 259.077 293.239 267.63 286.443 275.072L308.773 378.949L308.416 411.725H437.702C437.702 410.107 438.862 302.903 438.862 302.903L446.628 260.835L400.676 252.745L391.615 245.626L340.486 248.215L332.719 255.982L320.509 259.077Z" fill="#FBECB8"/>
<g opacity="0.3">
<path d="M330.873 349.19C330.475 348.308 329.905 347.356 328.958 347.161C327.4 346.84 326.359 348.68 325.83 350.181C321.629 362.071 316.074 373.008 308.845 383.342L308.514 399.291C316.05 392.949 323.482 386.155 328.287 377.555C333.092 368.955 334.93 358.166 330.873 349.19Z" fill="black"/>
</g>
<path d="M286.434 275.07C286.434 275.07 277.45 287.32 273.718 295.315C269.987 303.31 239.071 370.473 237.205 377.403C235.34 384.332 230.542 406.187 244.668 411.25H273.718L302.877 352.289L304.368 283.855L286.434 275.07Z" fill="#FBECB8"/>
<path d="M275.586 368.657C275.548 368.701 274.939 368.086 273.602 367.325C272.266 366.57 270.192 365.703 267.504 365.117C266.162 364.823 264.67 364.593 263.06 364.492C261.449 364.391 259.719 364.42 257.964 364.824C254.44 365.61 250.938 367.835 248.184 370.963C245.388 374.087 243.661 377.777 242.647 381.259C241.618 384.747 241.177 388.019 240.899 390.762C240.628 393.51 240.526 395.747 240.431 397.292C240.386 398.014 240.349 398.603 240.32 399.071C240.289 399.477 240.263 399.691 240.244 399.69C240.224 399.689 240.212 399.475 240.207 399.067C240.209 398.598 240.211 398.008 240.215 397.284C240.244 395.736 240.284 393.493 240.507 390.727C240.735 387.966 241.137 384.661 242.153 381.114C243.153 377.58 244.905 373.787 247.766 370.593C250.584 367.391 254.2 365.106 257.853 364.321C259.674 363.918 261.463 363.907 263.091 364.029C264.728 364.152 266.238 364.407 267.593 364.731C270.307 365.376 272.391 366.313 273.713 367.138C274.373 367.556 274.851 367.93 275.154 368.206C275.451 368.49 275.599 368.643 275.586 368.657Z" fill="#263238"/>
<path d="M261.805 356.918C261.801 356.879 262.148 356.825 262.782 356.761C263.414 356.684 264.338 356.665 265.476 356.724C266.616 356.774 267.966 356.969 269.438 357.309C270.902 357.678 272.485 358.208 274.065 358.951C275.637 359.712 277.045 360.607 278.252 361.514C279.444 362.444 280.445 363.37 281.201 364.226C281.963 365.073 282.53 365.804 282.868 366.343C283.216 366.876 283.392 367.179 283.361 367.2C283.275 367.26 282.487 366.097 280.915 364.497C280.135 363.692 279.126 362.814 277.943 361.926C276.744 361.061 275.36 360.199 273.823 359.455C272.279 358.73 270.738 358.197 269.311 357.81C267.877 357.449 266.56 357.217 265.444 357.118C263.212 356.903 261.811 357.023 261.805 356.918Z" fill="#263238"/>
<path d="M288.052 353.687C288.045 353.724 287.566 353.687 286.708 353.585C285.851 353.474 284.607 353.35 283.069 353.236C279.996 353.003 275.722 352.947 271.051 353.5C266.381 354.065 262.24 355.127 259.308 356.078C257.84 356.552 256.661 356.967 255.854 357.276C255.045 357.578 254.588 357.728 254.573 357.693C254.558 357.657 254.984 357.44 255.772 357.075C256.555 356.702 257.72 356.229 259.181 355.704C262.1 354.65 266.268 353.515 270.985 352.945C275.701 352.387 280.019 352.506 283.104 352.842C284.648 353.007 285.891 353.193 286.741 353.37C287.592 353.538 288.059 353.649 288.052 353.687Z" fill="#263238"/>
<path d="M370.836 296.306C370.825 296.314 370.724 296.194 370.54 295.956C370.333 295.678 370.071 295.328 369.748 294.894C369.036 293.909 368.054 292.547 366.827 290.848C364.319 287.31 360.822 282.375 356.709 276.571L357.159 276.508C355.594 281.106 353.866 286.177 352.049 291.514L351.934 291.852L351.641 291.663C351.451 291.541 351.245 291.409 351.039 291.276C348.634 289.751 346.514 287.919 344.713 285.934C342.92 283.939 341.432 281.812 340.196 279.689C337.726 275.431 336.238 271.231 335.226 267.673C334.222 264.105 333.697 261.151 333.345 259.116C333.175 258.141 333.04 257.361 332.938 256.774C332.888 256.507 332.835 256.311 332.801 256.175C332.751 256.052 332.726 255.983 332.734 255.977C332.853 255.926 333.167 257.051 333.558 259.075C333.975 261.096 334.558 264.03 335.605 267.563C336.658 271.086 338.176 275.237 340.64 279.428C341.872 281.518 343.348 283.608 345.117 285.565C346.894 287.511 348.977 289.306 351.336 290.802C351.539 290.932 351.741 291.063 351.927 291.182L351.519 291.331C353.353 285.999 355.096 280.933 356.675 276.34L356.84 275.862L357.126 276.276C361.172 282.126 364.611 287.102 367.078 290.669C368.255 292.403 369.197 293.792 369.88 294.798C370.176 295.25 370.417 295.616 370.607 295.905C370.77 296.162 370.848 296.298 370.836 296.306Z" fill="#263238"/>
<g opacity="0.3">
<path d="M404.479 345.893C403.281 357.903 405.932 370.266 411.949 380.729C417.966 391.192 426.78 400.516 437.762 405.522C438.117 394.861 437.605 382.304 437.959 371.642L404.479 345.893Z" fill="black"/>
</g>
<path d="M403.26 331.86C403.26 331.86 398.563 333.163 402.085 342.784C405.607 352.405 406.782 351.824 409.129 360.824C411.477 369.825 414.216 378.038 418.326 383.125C422.435 388.212 437.697 398.583 437.697 398.583L451.395 385.669C451.395 385.669 449.137 376.045 449.679 369.508C450.222 362.972 451.591 346.927 451.395 344.187C451.2 341.448 448.264 334.796 448.264 334.796V330.244L441.22 308.575C441.22 308.575 437.306 306.814 435.937 313.075L433.589 306.429C433.589 306.429 429.872 305.836 428.893 313.466C427.915 321.097 429.675 331.663 429.675 331.663L427.719 344.969L424.784 353.97L422.24 354.362C422.24 354.362 418.41 353.316 416.314 346.11C414.217 338.904 408.543 330.295 403.26 331.86Z" fill="#FFBE9D"/>
<path d="M446.795 365.892C446.78 365.893 446.758 365.724 446.731 365.399C446.705 365.025 446.673 364.552 446.632 363.964C446.562 362.652 446.465 360.836 446.343 358.576C446.132 353.903 445.838 347.402 445.496 339.811L445.557 339.969C444.929 339.216 443.805 338.992 442.785 339.247C441.749 339.497 440.821 340.143 440.246 341.107C439.049 343.032 438.985 345.541 438.61 347.962C437.868 353.447 437.16 358.669 436.516 363.428C436.191 365.804 435.846 368.067 435.383 370.16C434.933 372.257 434.299 374.164 433.684 375.868C433.079 377.577 432.543 379.123 432.21 380.515C431.876 381.905 431.742 383.135 431.768 384.138C431.81 386.16 432.397 387.186 432.31 387.207C432.293 387.215 432.18 386.958 431.982 386.457C431.821 385.947 431.593 385.174 431.551 384.147C431.491 383.124 431.596 381.862 431.907 380.444C432.215 379.025 432.729 377.456 433.311 375.738C433.902 374.023 434.502 372.143 434.93 370.062C435.37 367.985 435.694 365.735 436.005 363.358C436.636 358.597 437.329 353.373 438.057 347.887C438.229 346.664 438.361 345.457 438.574 344.251C438.791 343.054 439.124 341.851 439.782 340.812C440.407 339.757 441.502 338.982 442.662 338.721C443.806 338.433 445.175 338.684 445.957 339.63L446.015 339.701L446.018 339.789C446.279 347.383 446.503 353.887 446.664 358.562C446.722 360.825 446.769 362.642 446.803 363.957C446.81 364.545 446.814 365.02 446.818 365.394C446.817 365.722 446.81 365.891 446.795 365.892Z" fill="#EB996E"/>
<path d="M439.317 341.237C439.283 341.25 439.065 340.821 438.739 340.012C438.418 339.203 437.991 338.013 437.593 336.505C437.192 334.998 436.822 333.17 436.609 331.114C436.504 330.088 436.43 328.99 436.55 327.847C436.667 326.713 437.004 325.509 437.731 324.492C438.349 323.61 439.232 322.905 440.235 322.612L440.446 322.551L440.553 322.74C442.537 326.24 444.26 329.329 445.472 331.551C446.028 332.591 446.496 333.467 446.875 334.178C447.194 334.798 447.355 335.146 447.325 335.163C447.295 335.181 447.078 334.866 446.705 334.275C446.287 333.586 445.771 332.738 445.158 331.73C443.862 329.557 442.08 326.502 440.075 323.013L440.392 323.141C439.529 323.398 438.749 324.014 438.187 324.815C437.529 325.736 437.214 326.831 437.093 327.908C436.972 328.988 437.03 330.053 437.12 331.066C437.302 333.096 437.628 334.908 437.975 336.412C438.319 337.917 438.686 339.115 438.943 339.941C439.205 340.765 439.355 341.221 439.317 341.237Z" fill="#EB996E"/>
<path d="M436.048 342.999C436.009 343.001 435.966 342.556 435.921 341.752C435.884 340.829 435.837 339.691 435.783 338.346C435.69 335.47 435.601 331.496 435.538 327.107C435.505 322.722 435.334 318.734 435.712 315.844C435.894 314.404 436.182 313.259 436.446 312.493C436.707 311.724 436.921 311.328 436.948 311.339C437.045 311.37 436.351 313.033 436.106 315.886C435.833 318.728 436.064 322.706 436.097 327.098C436.161 331.488 436.187 335.463 436.179 338.341C436.164 339.687 436.15 340.826 436.139 341.749C436.117 342.554 436.086 342.999 436.048 342.999Z" fill="#EB996E"/>
<path d="M424.47 379.079C424.391 379.013 425.248 378.004 426.308 376.175C426.844 375.264 427.39 374.13 427.902 372.834C428.389 371.529 428.828 370.058 429.122 368.478C429.399 366.894 429.502 365.362 429.502 363.968C429.476 362.576 429.362 361.321 429.177 360.281C428.824 358.197 428.373 356.952 428.471 356.918C428.507 356.905 428.644 357.206 428.86 357.766C429.088 358.322 429.336 359.158 429.565 360.208C429.803 361.258 429.961 362.535 430.017 363.959C430.046 365.383 429.955 366.955 429.672 368.577C429.37 370.196 428.904 371.7 428.38 373.023C427.83 374.338 427.235 375.479 426.645 376.379C426.063 377.283 425.538 377.979 425.131 378.42C424.733 378.869 424.499 379.103 424.47 379.079Z" fill="#EB996E"/>
<path d="M448.497 372.348L460.384 376.473C460.384 376.473 471.733 370.603 479.559 376.473C487.386 382.343 494.184 397.814 492.032 404.075C492.032 404.075 486.63 410.744 482.521 411.722C478.412 412.7 462.438 408.832 455.792 407.432C449.128 406.029 437.686 398.583 437.686 398.583L448.497 372.348Z" fill="#FFBE9D"/>
<path d="M449.959 389.858C449.92 389.858 449.877 389.484 449.832 388.806C449.785 388.001 449.728 387.046 449.663 385.935C449.537 383.51 449.373 380.156 449.323 376.445C449.268 372.735 449.373 369.367 449.597 366.941C449.702 365.728 449.835 364.749 449.957 364.078C450.079 363.407 450.165 363.04 450.204 363.046C450.291 363.06 450.106 364.549 449.992 366.969C449.87 369.389 449.827 372.737 449.883 376.439C449.95 380.067 450.01 383.348 450.058 385.923C450.072 387.138 450.068 388.123 450.049 388.803C450.028 389.483 449.997 389.858 449.959 389.858Z" fill="#EB996E"/>
<path d="M489.163 376.005C489.074 376.088 487.857 374.397 485.211 372.441C482.606 370.49 478.375 368.41 473.366 368.128C468.354 367.857 463.92 369.46 461.117 371.114C458.271 372.767 456.877 374.314 456.796 374.221C456.773 374.2 457.103 373.803 457.776 373.161C458.447 372.517 459.496 371.657 460.914 370.774C463.712 369.004 468.243 367.291 473.396 367.57C478.547 367.859 482.862 370.059 485.449 372.126C486.762 373.159 487.71 374.128 488.307 374.843C488.904 375.556 489.189 375.986 489.163 376.005Z" fill="#263238"/>
<path d="M487.64 366.095C487.564 366.211 485.976 364.607 482.695 363.368C479.465 362.102 474.455 361.519 469.313 362.967C466.746 363.683 464.4 364.709 462.392 365.847C460.387 366.995 458.711 368.25 457.379 369.388C456.045 370.526 455.025 371.52 454.325 372.211C453.626 372.904 453.237 373.287 453.207 373.259C453.18 373.235 453.515 372.803 454.167 372.061C454.821 371.32 455.804 370.278 457.119 369.09C458.431 367.901 460.108 366.594 462.135 365.4C464.166 364.216 466.545 363.159 469.163 362.428C474.431 360.943 479.574 361.61 482.839 363C484.487 363.677 485.715 364.454 486.497 365.065C486.899 365.355 487.17 365.635 487.368 365.804C487.559 365.981 487.652 366.081 487.64 366.095Z" fill="#263238"/>
<path d="M487.723 357.506C487.693 357.616 485.614 356.981 482.163 356.514C480.44 356.269 478.369 356.132 476.07 356.127C473.772 356.162 471.248 356.351 468.632 356.797C466.02 357.271 463.583 357.955 461.411 358.708C459.252 359.496 457.352 360.332 455.815 361.151C452.73 362.769 450.994 364.075 450.929 363.981C450.906 363.95 451.33 363.614 452.119 363.03C452.51 362.733 452.998 362.383 453.595 362.021C454.188 361.654 454.846 361.204 455.628 360.802C457.155 359.931 459.06 359.047 461.235 358.223C463.423 357.434 465.889 356.725 468.535 356.247C471.184 355.795 473.743 355.619 476.069 355.613C478.395 355.645 480.486 355.826 482.219 356.123C483.092 356.234 483.864 356.431 484.546 356.574C485.231 356.71 485.809 356.872 486.278 357.018C487.22 357.298 487.733 357.469 487.723 357.506Z" fill="#263238"/>
<path d="M396.671 252.388C396.671 252.388 397.223 253.417 397.495 255.548C397.787 257.667 397.746 260.839 397.044 264.77C396.691 266.734 396.214 268.893 395.508 271.196C394.769 273.503 393.652 275.862 392.386 278.336C389.826 283.273 386.604 288.656 382.873 294.397L382.437 295.068L382.436 294.265C382.431 290.472 382.424 286.49 382.418 282.354L382.835 282.554C379.64 285.133 376.275 287.849 372.81 290.645L372.897 290.518C370.574 297.881 369.045 306.079 368.438 314.615C367.457 327.679 368.248 340.174 368.864 351.51C369.392 362.862 369.738 373.083 370.092 381.667C370.433 390.25 370.743 397.195 371.001 401.991C371.142 404.367 371.252 406.222 371.328 407.512C371.369 408.122 371.4 408.599 371.423 408.947C371.442 409.271 371.437 409.437 371.437 409.437C371.437 409.437 371.404 409.274 371.366 408.952C371.33 408.606 371.28 408.13 371.216 407.521C371.097 406.262 370.943 404.402 370.785 402.005C370.459 397.211 370.089 390.267 369.697 381.685C369.313 373.095 368.857 362.879 368.35 351.537C367.706 340.21 366.897 327.688 367.881 314.573C368.49 306.002 370.033 297.758 372.383 290.352L372.408 290.275L372.471 290.224C375.943 287.434 379.312 284.725 382.513 282.152L382.932 281.816L382.931 282.353C382.924 286.488 382.918 290.47 382.913 294.264L382.476 294.132C389.85 282.695 395.848 272.758 396.771 264.718C397.51 260.816 397.593 257.671 397.35 255.565C397.247 254.507 397.039 253.718 396.909 253.186C396.741 252.665 396.671 252.388 396.671 252.388Z" fill="#263238"/>
<path d="M377.412 390.857L377.029 390.844C375.476 390.888 374.092 392.308 374.088 393.862C374.084 395.415 375.459 396.844 377.011 396.898C378.564 396.951 380.035 395.622 380.138 394.072C380.241 392.521 378.959 391.008 377.412 390.857Z" fill="white"/>
<path d="M377.401 349.487L377.017 349.475C375.464 349.52 374.08 350.939 374.076 352.492C374.072 354.045 375.447 355.474 376.999 355.528C378.553 355.582 380.023 354.253 380.126 352.703C380.229 351.152 378.948 349.64 377.401 349.487Z" fill="white"/>
<path d="M376.999 312.474C378.553 312.527 380.023 311.198 380.126 309.648C380.229 308.098 378.948 306.586 377.401 306.433L377.017 306.42C375.464 306.465 374.08 307.885 374.076 309.438C374.071 310.991 375.447 312.42 376.999 312.474Z" fill="white"/>
<path d="M330.649 203.902C326.885 199.736 323.088 195.524 320.345 190.625C317.602 185.725 315.965 180.008 316.873 174.467C317.404 171.227 318.781 168.141 319 164.865C319.301 160.356 317.405 155.646 319.004 151.421C321.502 144.817 330.392 143.796 335.782 139.234C339.979 135.68 342.024 129.912 346.641 126.924C350.675 124.313 355.858 124.37 360.615 125.043C365.372 125.716 370.159 126.917 374.921 126.277C378.315 125.821 381.512 124.448 384.837 123.624C388.162 122.801 391.872 122.584 394.834 124.305C397.795 126.026 399.457 130.229 397.515 133.051C403.034 130.507 410.042 134.808 411.553 140.693C413.063 146.579 410.039 152.937 405.364 156.819C400.689 160.7 394.641 162.506 388.671 163.631C371.766 166.817 353.428 165.02 338.86 155.871" fill="#263238"/>
<path d="M390.049 260.728C389.223 254.329 388.548 248.99 388.506 248.327C388.506 248.327 409.892 243.521 408.713 221.898C408.143 211.448 405.218 190.02 402.347 170.665C399.264 149.88 380.712 134.959 359.745 136.362L357.66 136.501C335.269 139.318 325.152 159.908 328.587 182.213L340.669 257.002C340.669 257.002 345.825 273.547 356.852 276.411L370.769 296.291L373.07 287.732L383.444 278.701C383.444 278.701 385.823 276.126 388.558 271.088C390.792 266.972 390.321 262.737 390.049 260.728Z" fill="#FFBE9D"/>
<path d="M388.537 248.017C388.537 248.017 374.957 250.041 359.834 241.896C359.834 241.896 367.532 257 388.961 253.612L388.537 248.017Z" fill="#EB996E"/>
<path d="M395.361 189.257C395.528 190.882 394.288 192.364 392.594 192.569C390.902 192.773 389.394 191.625 389.228 189.999C389.061 188.374 390.3 186.89 391.991 186.685C393.685 186.481 395.194 187.632 395.361 189.257Z" fill="#263238"/>
<path d="M398.356 181.6C398.001 182.027 395.548 180.453 392.227 180.685C388.908 180.868 386.586 182.739 386.198 182.357C386.009 182.188 386.35 181.436 387.359 180.593C388.352 179.754 390.083 178.886 392.152 178.757C394.22 178.631 396.011 179.275 397.063 179.987C398.138 180.702 398.532 181.407 398.356 181.6Z" fill="#263238"/>
<path d="M363.98 191.516C364.146 193.141 362.907 194.622 361.213 194.827C359.523 195.032 358.013 193.884 357.847 192.258C357.681 190.633 358.919 189.15 360.611 188.945C362.304 188.74 363.813 189.89 363.98 191.516Z" fill="#263238"/>
<path d="M365.835 184.393C365.479 184.821 363.023 183.247 359.706 183.478C356.386 183.662 354.063 185.532 353.677 185.15C353.488 184.981 353.825 184.23 354.84 183.386C355.833 182.546 357.563 181.679 359.632 181.549C361.7 181.423 363.491 182.068 364.544 182.779C365.614 183.496 366.011 184.201 365.835 184.393Z" fill="#263238"/>
<path d="M379.445 208.218C379.417 208.03 381.456 207.536 384.772 206.885C385.615 206.741 386.406 206.519 386.51 205.931C386.669 205.305 386.254 204.415 385.776 203.455C384.842 201.458 383.864 199.362 382.837 197.167C378.741 188.208 375.714 180.819 376.076 180.657C376.439 180.496 380.053 187.625 384.15 196.585C385.139 198.795 386.085 200.903 386.986 202.92C387.37 203.862 387.996 204.917 387.648 206.217C387.462 206.866 386.871 207.368 386.337 207.551C385.805 207.752 385.328 207.794 384.911 207.847C381.557 208.252 379.471 208.406 379.445 208.218Z" fill="#263238"/>
<path d="M365.775 171.329C365.508 172.254 362.164 172.048 358.3 172.779C354.421 173.431 351.356 174.782 350.785 174.007C350.528 173.634 351.019 172.749 352.231 171.79C353.431 170.832 355.385 169.869 357.706 169.452C360.026 169.041 362.193 169.268 363.65 169.75C365.12 170.23 365.888 170.891 365.775 171.329Z" fill="#263238"/>
<path d="M396.479 172.065C395.945 172.858 393.605 172.228 390.853 172.375C388.095 172.426 385.807 173.222 385.218 172.468C384.958 172.101 385.273 171.321 386.243 170.539C387.198 169.761 388.837 169.068 390.731 168.998C392.625 168.931 394.308 169.506 395.317 170.214C396.34 170.925 396.712 171.679 396.479 172.065Z" fill="#263238"/>
<path d="M331.392 198.114C331.013 197.979 316.253 194.717 317.713 209.456C319.173 224.196 335.147 219.391 335.13 218.966C335.114 218.54 331.392 198.114 331.392 198.114Z" fill="#FFBE9D"/>
<path d="M328.619 214.122C328.549 214.082 328.379 214.327 327.965 214.57C327.561 214.805 326.846 215.011 326.05 214.8C324.436 214.382 322.88 212.04 322.545 209.391C322.374 208.053 322.53 206.748 322.9 205.643C323.244 204.52 323.866 203.698 324.637 203.481C325.399 203.223 326 203.638 326.221 204.035C326.46 204.428 326.395 204.731 326.476 204.749C326.521 204.782 326.768 204.471 326.589 203.874C326.498 203.587 326.291 203.257 325.918 203.008C325.536 202.754 325.001 202.66 324.46 202.773C323.332 202.964 322.412 204.111 322.004 205.323C321.535 206.547 321.329 208.018 321.521 209.519C321.909 212.48 323.705 215.109 325.897 215.514C326.961 215.681 327.795 215.284 328.207 214.891C328.627 214.481 328.672 214.144 328.619 214.122Z" fill="#EB996E"/>
<path d="M401.265 150.541C400.253 156.409 388.352 161.785 378.486 161.497C369.391 161.232 364.897 156.719 358.288 153.512C354.104 151.482 354.104 151.482 348.428 152.404C343.839 153.15 341.456 158.565 338.879 162.435C343.788 173.137 341.805 185.58 339.723 197.168C339.493 198.449 339.208 199.832 338.232 200.692C336.575 202.153 333.889 201.278 332.258 199.786C329.65 197.397 328.461 193.855 327.607 190.423C325.659 182.604 324.91 174.416 326.147 166.453C327.384 158.491 330.678 150.756 336.118 144.812C342.918 137.384 352.856 133.102 362.913 132.584C372.97 132.068 383.07 135.18 391.494 140.699C395.403 143.259 399.057 146.425 401.265 150.541Z" fill="#263238"/>
<path d="M381.724 215.678C379.22 214.51 376.715 213.343 374.211 212.175C373.779 211.973 373.317 211.767 372.844 211.83C372.312 211.901 371.886 212.299 371.544 212.713C369.802 214.824 369.362 218.01 370.711 220.391C372.061 222.772 375.233 224.03 377.762 222.983C380.425 221.881 381.719 218.788 381.927 215.913L381.724 215.678Z" fill="#EB996E"/>
<path d="M378 223.514C378.022 223.579 377.652 223.795 376.901 223.952C376.156 224.095 375.003 224.151 373.669 223.714C372.348 223.29 370.858 222.262 369.937 220.614C369 219.007 368.662 216.736 369.48 214.688C369.871 213.67 370.481 212.771 371.223 212.06C371.6 211.702 371.991 211.407 372.442 211.139C372.677 211.008 372.971 210.881 373.308 210.863C373.64 210.845 373.937 210.93 374.18 211.032C374.67 211.251 374.989 211.487 375.351 211.696C375.701 211.911 376.043 212.121 376.375 212.325C377.022 212.73 377.633 213.112 378.204 213.47C380.433 214.885 381.771 215.826 381.694 215.959C381.617 216.092 380.136 215.392 377.807 214.154C377.214 213.834 376.581 213.49 375.909 213.127C375.568 212.938 375.217 212.745 374.857 212.547C374.498 212.354 374.108 212.11 373.795 211.987C373.453 211.868 373.304 211.877 372.973 212.066C372.646 212.273 372.289 212.545 371.986 212.848C371.367 213.459 370.855 214.227 370.525 215.088C369.837 216.818 370.085 218.697 370.842 220.12C371.592 221.563 372.803 222.502 373.947 222.974C375.1 223.453 376.145 223.525 376.856 223.52C377.571 223.502 377.977 223.433 378 223.514Z" fill="#263238"/>
<path d="M375.622 189.628C375.535 189.636 375.634 188.255 375.035 185.896C374.443 183.583 372.901 180.181 369.423 177.55C367.7 176.265 365.529 175.173 363.027 174.736C360.542 174.314 357.739 174.396 355.073 175.414C353.731 175.882 352.436 176.587 351.247 177.478C350.043 178.352 348.952 179.436 348.052 180.692C346.192 183.167 345.144 186.348 345.114 189.626C345.143 192.906 346.191 196.087 348.051 198.564C348.951 199.821 350.043 200.905 351.246 201.779C352.435 202.67 353.73 203.376 355.071 203.844C357.738 204.862 360.542 204.944 363.026 204.522C365.528 204.084 367.698 202.993 369.422 201.707C372.9 199.076 374.442 195.673 375.034 193.361C375.634 191.001 375.535 189.621 375.622 189.628C375.632 189.628 375.637 189.713 375.638 189.879C375.636 190.078 375.633 190.319 375.628 190.613C375.629 190.937 375.612 191.336 375.534 191.804C375.472 192.273 375.413 192.819 375.245 193.412C374.994 194.618 374.452 196.048 373.58 197.568C372.701 199.081 371.42 200.668 369.662 202.021C367.91 203.36 365.687 204.505 363.112 204.977C360.555 205.432 357.661 205.365 354.896 204.328C353.505 203.851 352.162 203.126 350.928 202.208C349.679 201.308 348.546 200.188 347.61 198.888C345.678 196.328 344.584 193.025 344.555 189.626C344.585 186.229 345.679 182.927 347.611 180.368C348.547 179.069 349.681 177.949 350.929 177.048C352.163 176.131 353.506 175.406 354.896 174.928C357.661 173.891 360.555 173.824 363.112 174.28C365.687 174.751 367.909 175.896 369.662 177.235C371.42 178.587 372.701 180.173 373.58 181.687C374.453 183.207 374.994 184.637 375.246 185.842C375.414 186.436 375.473 186.981 375.535 187.45C375.613 187.918 375.629 188.318 375.629 188.642C375.634 188.936 375.636 189.178 375.639 189.376C375.637 189.545 375.632 189.628 375.622 189.628Z" fill="#263238"/>
<path d="M412.4 188.182C412.314 188.19 412.409 186.845 411.826 184.546C411.249 182.293 409.746 178.979 406.357 176.417C404.678 175.165 402.564 174.103 400.127 173.677C397.707 173.266 394.977 173.346 392.38 174.337C391.073 174.792 389.812 175.48 388.654 176.347C387.483 177.197 386.419 178.255 385.543 179.478C383.731 181.889 382.712 184.987 382.681 188.179C382.71 191.373 383.73 194.472 385.542 196.884C386.418 198.108 387.482 199.164 388.654 200.015C389.812 200.884 391.073 201.571 392.38 202.027C394.978 203.018 397.708 203.097 400.128 202.687C402.565 202.261 404.68 201.198 406.358 199.946C409.747 197.383 411.25 194.07 411.827 191.817C412.41 189.519 412.314 188.175 412.4 188.182C412.42 188.182 412.422 188.512 412.408 189.142C412.409 189.458 412.393 189.847 412.317 190.303C412.257 190.761 412.2 191.292 412.036 191.871C411.516 194.171 410.044 197.588 406.596 200.262C404.888 201.568 402.722 202.684 400.212 203.144C397.72 203.589 394.899 203.524 392.203 202.513C390.847 202.047 389.538 201.341 388.334 200.447C387.117 199.569 386.011 198.477 385.099 197.21C383.215 194.714 382.149 191.495 382.121 188.181C382.15 184.868 383.216 181.65 385.1 179.155C386.012 177.889 387.118 176.798 388.334 175.92C389.538 175.026 390.846 174.32 392.202 173.854C394.896 172.842 397.718 172.778 400.21 173.221C402.72 173.681 404.887 174.797 406.594 176.103C410.042 178.775 411.514 182.192 412.034 184.494C412.197 185.073 412.254 185.604 412.315 186.062C412.391 186.518 412.407 186.908 412.406 187.224C412.422 187.853 412.42 188.182 412.4 188.182Z" fill="#263238"/>
<path d="M382.402 184.789C382.342 184.851 381.987 184.553 381.334 184.243C380.687 183.934 379.718 183.632 378.63 183.651C377.54 183.666 376.584 184.004 375.949 184.338C375.31 184.672 374.968 184.986 374.905 184.927C374.853 184.885 375.103 184.456 375.742 184.001C376.372 183.55 377.412 183.109 378.619 183.093C379.827 183.071 380.879 183.474 381.525 183.9C382.184 184.328 382.453 184.745 382.402 184.789Z" fill="#263238"/>
<path d="M345.786 187.441C345.878 187.565 342.866 189.971 339.059 192.812C335.25 195.656 332.089 197.859 331.996 197.735C331.904 197.611 334.915 195.207 338.724 192.363C342.532 189.522 345.694 187.318 345.786 187.441Z" fill="#263238"/>
<g opacity="0.3">
<path d="M333.079 257.31C331.586 271.879 337.125 287.255 348.809 296.084C349.726 296.777 350.877 297.464 351.958 297.073C352.708 296.802 353.189 296.082 353.587 295.391C356.918 289.624 358.036 283.262 357.071 276.672C355.22 281.544 353.632 286.326 351.765 291.423C341.584 285.241 335.239 272.097 333.079 257.31Z" fill="black"/>
</g>
<path opacity="0.3" d="M372.635 290.434L381.207 287.303L382.628 301.804C382.628 301.804 391.88 284.941 395.709 277.247C399.537 269.554 397.568 255.976 397.568 255.976C397.568 255.976 398.938 267.802 389.666 282.888L382.668 294.262V282.351L372.635 290.434Z" fill="black"/>
<g opacity="0.3">
<path d="M272.892 364.138C269.068 362.332 264.669 362.09 260.469 362.579C256.032 363.096 251.579 364.454 248.103 367.259C244.627 370.063 242.27 374.483 242.704 378.928L243.133 378.989C246.124 370.892 252.075 365 259.749 364.287C267.422 363.574 274.91 366.989 280.177 372.615C279.665 368.417 276.715 365.944 272.892 364.138Z" fill="black"/>
</g>
<g opacity="0.3">
<path d="M489.709 372.419C486.837 369.317 482.8 367.439 478.636 366.713C471.323 365.438 463.475 367.709 457.975 372.695L459.611 371.367C463.766 368.935 468.557 367.493 473.369 367.629C478.183 367.765 482.999 369.546 486.485 372.868C489.69 375.922 491.617 380.046 493.454 384.073C494.171 379.907 492.582 375.52 489.709 372.419Z" fill="black"/>
</g>
<path d="M434.451 305.067C434.415 305.052 434.554 304.636 434.835 303.895C435.167 303.047 435.574 302.005 436.055 300.775C437.094 298.145 438.518 294.509 440.022 290.467C441.525 286.423 442.824 282.74 443.757 280.071C444.197 278.825 444.569 277.771 444.873 276.913C445.144 276.169 445.311 275.763 445.348 275.775C445.384 275.786 445.287 276.214 445.08 276.979C444.874 277.744 444.551 278.844 444.131 280.195C443.294 282.9 442.052 286.611 440.546 290.663C439.039 294.712 437.553 298.332 436.419 300.927C435.853 302.225 435.379 303.268 435.036 303.982C434.693 304.695 434.486 305.082 434.451 305.067Z" fill="#263238"/>
<path d="M299.109 306.117C298.958 306.149 297.791 301.04 296.504 294.709C295.216 288.375 294.295 283.218 294.446 283.187C294.597 283.156 295.764 288.264 297.051 294.597C298.339 300.928 299.26 306.087 299.109 306.117Z" fill="#263238"/>
<path d="M297.089 369.976C297.429 370.148 293.156 336.524 293.156 336.524C293.156 336.524 295.853 311.009 297.369 309.828L297.407 300.826C297.407 300.826 301.58 298.298 302.7 302.38C302.7 302.38 306.401 299.167 307.047 306.815C307.693 314.464 307.829 322.28 307.829 322.28L316.065 342.873L317.421 343.559C317.421 343.559 319.19 327.426 320.219 325.051C321.249 322.677 321.954 316.904 325.858 317.77C329.763 318.636 330.088 321.866 329.386 327.129C328.684 332.394 327.81 337.827 328.135 341.226C328.46 344.626 330.005 352.108 329.531 358.053C329.056 363.998 325.801 370.27 322.384 374.672C318.967 379.074 312.439 388.181 308.891 390.924C307.652 391.883 297.089 369.976 297.089 369.976Z" fill="#FFBE9D"/>
<path d="M301.251 342.617C301.212 342.614 301.222 342.102 301.273 341.178C301.344 340.145 301.434 338.835 301.542 337.271C301.793 333.976 302.178 329.425 302.639 324.405C302.876 321.9 303.103 319.515 303.31 317.326C303.417 316.244 303.485 315.221 303.347 314.292C303.217 313.361 302.852 312.554 302.321 311.971C301.234 310.792 299.835 310.494 298.959 310.495C298.051 310.488 297.575 310.735 297.557 310.674C297.549 310.656 297.663 310.597 297.891 310.498C298.123 310.414 298.477 310.304 298.951 310.277C299.871 310.21 301.376 310.447 302.61 311.701C303.217 312.323 303.649 313.224 303.805 314.219C303.973 315.215 303.915 316.283 303.823 317.372C303.63 319.561 303.418 321.949 303.196 324.455C302.735 329.477 302.288 334.021 301.937 337.308C301.759 338.865 301.609 340.17 301.491 341.197C301.373 342.115 301.289 342.62 301.251 342.617Z" fill="#EB996E"/>
<path d="M305.67 328.862C305.75 328.93 304.832 329.737 304.212 331.517C303.548 333.27 303.309 335.903 302.843 338.774C302.4 341.649 301.967 344.246 301.627 346.122C301.287 347.998 301.038 349.153 300.961 349.141C300.885 349.129 300.996 347.954 301.236 346.062C301.477 344.171 301.847 341.564 302.29 338.69C302.756 335.833 303.056 333.177 303.844 331.374C304.216 330.474 304.671 329.815 305.034 329.413C305.394 329.004 305.651 328.842 305.67 328.862Z" fill="#EB996E"/>
<path d="M302.631 301.941C302.669 301.934 302.769 302.311 302.918 302.998C303.068 303.685 303.255 304.685 303.46 305.926C303.87 308.407 304.32 311.855 304.604 315.683C304.885 319.513 304.948 322.99 304.906 325.504C304.885 326.761 304.849 327.778 304.8 328.48C304.754 329.182 304.711 329.569 304.673 329.568C304.59 329.566 304.572 328.013 304.511 325.506C304.451 323 304.326 319.539 304.046 315.725C303.762 311.912 303.378 308.47 303.068 305.982C302.759 303.494 302.549 301.954 302.631 301.941Z" fill="#EB996E"/>
<path d="M326.402 333.46C326.484 333.587 325.199 334.185 323.628 333.695C322.053 333.225 321.319 332.012 321.458 331.952C321.581 331.845 322.407 332.756 323.792 333.161C325.167 333.599 326.359 333.303 326.402 333.46Z" fill="#EB996E"/>
<path d="M297.543 365.796L275.785 374.94H262.823C262.823 374.94 250 378.941 248.028 390.96C246.055 402.98 245.774 409.165 251.409 410.652C257.045 412.139 272.968 412.303 280.858 409.685C288.748 407.066 309.417 390.388 309.417 390.388L311.41 378.322L297.543 365.796Z" fill="#FFBE9D"/>
<path d="M302.651 379.078C302.624 379.104 302.406 378.902 302.033 378.51C301.647 378.13 301.171 377.507 300.62 376.712C299.545 375.106 298.367 372.67 297.581 369.83C296.768 366.996 296.421 364.347 296.241 362.436C296.075 360.521 296.085 359.331 296.156 359.327C296.239 359.322 296.368 360.499 296.632 362.391C296.912 364.277 297.317 366.888 298.118 369.676C298.892 372.473 299.984 374.873 300.953 376.501C301.932 378.127 302.729 379.008 302.651 379.078Z" fill="#EB996E"/>
<path d="M312.121 382.891C312.004 382.848 312.984 381.194 313.361 378.227C313.541 376.753 313.525 374.96 313.104 373.046C312.688 371.128 311.77 369.152 310.439 367.308C309.116 365.455 307.63 363.842 306.378 362.282C305.112 360.729 304.1 359.21 303.436 357.835C302.769 356.46 302.461 355.246 302.346 354.403C302.236 353.556 302.28 353.085 302.308 353.085C302.418 353.062 302.38 355.005 303.788 357.657C304.48 358.976 305.501 360.438 306.775 361.955C308.037 363.484 309.54 365.09 310.893 366.984C312.255 368.866 313.206 370.947 313.606 372.937C314.014 374.925 313.987 376.774 313.751 378.281C313.515 379.791 313.1 380.963 312.754 381.737C312.588 382.129 312.428 382.417 312.315 382.61C312.204 382.803 312.138 382.9 312.121 382.891Z" fill="#EB996E"/>
<path d="M278.569 330.505C278.432 330.576 276.058 326.256 273.267 320.859C270.475 315.459 268.324 311.026 268.461 310.955C268.599 310.884 270.972 315.203 273.763 320.602C276.555 326 278.706 330.434 278.569 330.505Z" fill="white"/>
<path d="M313.757 291.334C313.617 291.27 315.084 287.67 317.035 283.291C318.986 278.912 320.681 275.412 320.823 275.475C320.964 275.539 319.497 279.139 317.546 283.519C315.595 287.898 313.899 291.396 313.757 291.334Z" fill="white"/>
<path d="M348.224 316.756C348.104 316.855 345.896 314.384 343.293 311.239C340.688 308.092 338.674 305.462 338.792 305.364C338.911 305.265 341.118 307.736 343.724 310.882C346.328 314.028 348.343 316.659 348.224 316.756Z" fill="white"/>
<path d="M340.284 351.722C340.159 351.632 341.823 349.124 343.999 346.123C346.177 343.121 348.043 340.76 348.169 340.851C348.293 340.941 346.63 343.449 344.452 346.451C342.275 349.453 340.409 351.812 340.284 351.722Z" fill="white"/>
<path d="M329.616 401.108C329.549 401.141 329.06 400.321 328.356 398.951C327.651 397.581 326.737 395.659 325.817 393.496C324.898 391.332 324.148 389.339 323.652 387.882C323.155 386.424 322.904 385.503 322.975 385.478C323.049 385.451 323.432 386.324 324.022 387.742C324.697 389.357 325.474 391.22 326.333 393.278C327.217 395.324 328.019 397.178 328.713 398.783C329.324 400.192 329.687 401.073 329.616 401.108Z" fill="white"/>
<path d="M359.935 380.114C359.906 380.266 356.987 379.829 353.418 379.137C349.848 378.446 346.977 377.763 347.006 377.612C347.035 377.461 349.953 377.898 353.524 378.589C357.093 379.28 359.964 379.963 359.935 380.114Z" fill="white"/>
<path d="M383.439 333.965C383.326 333.86 386.109 330.675 389.653 326.853C393.199 323.028 396.165 320.015 396.278 320.12C396.39 320.225 393.609 323.409 390.063 327.233C386.518 331.056 383.552 334.071 383.439 333.965Z" fill="white"/>
<path d="M407.109 395.511C406.99 395.608 403.518 391.591 399.357 386.539C395.193 381.485 391.915 377.309 392.034 377.21C392.154 377.113 395.624 381.128 399.788 386.182C403.95 391.236 407.228 395.412 407.109 395.511Z" fill="white"/>
<path d="M260.263 369.278C260.343 369.432 257.171 371.041 253.715 373.692C250.243 376.326 247.854 378.959 247.726 378.842C247.673 378.795 248.203 378.075 249.186 377.019C250.169 375.963 251.623 374.588 253.376 373.248C255.13 371.912 256.841 370.872 258.119 370.205C259.398 369.536 260.232 369.215 260.263 369.278Z" fill="white"/>
<path d="M269.126 345.559C269.255 345.645 268.126 347.569 266.605 349.855C265.084 352.143 263.746 353.928 263.617 353.842C263.489 353.756 264.618 351.834 266.139 349.545C267.66 347.258 268.998 345.473 269.126 345.559Z" fill="white"/>
<path d="M289.027 368.854C288.904 368.926 287.786 367.048 287.202 364.444C286.603 361.843 286.799 359.666 286.941 359.679C287.107 359.679 287.163 361.798 287.746 364.32C288.311 366.846 289.177 368.782 289.027 368.854Z" fill="white"/>
<path d="M291.99 294.865C292.012 295.018 290.16 295.408 287.855 295.736C285.549 296.063 283.662 296.205 283.641 296.053C283.619 295.9 285.47 295.511 287.777 295.182C290.082 294.855 291.969 294.713 291.99 294.865Z" fill="white"/>
<path d="M306.961 268.326C307.036 268.461 305.415 269.502 303.341 270.652C301.266 271.801 299.525 272.624 299.45 272.489C299.375 272.353 300.996 271.312 303.071 270.162C305.143 269.013 306.886 268.19 306.961 268.326Z" fill="white"/>
<path d="M349.048 279.539C348.926 279.633 347.071 277.405 344.908 274.564C342.743 271.721 341.088 269.342 341.212 269.249C341.334 269.156 343.188 271.383 345.353 274.226C347.516 277.067 349.171 279.446 349.048 279.539Z" fill="white"/>
<path d="M402.485 306.228C402.381 306.325 400.43 304.317 398.62 301.394C396.797 298.477 395.858 295.84 395.991 295.789C396.143 295.724 397.298 298.227 399.094 301.099C400.875 303.977 402.611 306.12 402.485 306.228Z" fill="white"/>
<path d="M422.858 312.952C422.999 313.016 422.008 315.503 420.646 318.505C419.282 321.509 418.064 323.891 417.923 323.828C417.783 323.764 418.774 321.278 420.137 318.275C421.499 315.272 422.718 312.889 422.858 312.952Z" fill="white"/>
<path d="M425.718 285.119C425.599 285.218 423.171 282.495 420.295 279.039C417.418 275.581 415.182 272.699 415.301 272.6C415.421 272.502 417.848 275.224 420.726 278.681C423.601 282.138 425.838 285.02 425.718 285.119Z" fill="white"/>
<path d="M394.576 262.504C394.422 262.511 394.205 260.181 394.091 257.302C393.977 254.422 394.011 252.084 394.165 252.078C394.32 252.071 394.537 254.401 394.65 257.28C394.763 260.159 394.73 262.498 394.576 262.504Z" fill="white"/>
<path d="M419.955 261.099C419.976 261.252 417.008 261.775 413.328 262.267C409.646 262.759 406.646 263.034 406.625 262.881C406.605 262.727 409.572 262.204 413.254 261.713C416.935 261.22 419.935 260.945 419.955 261.099Z" fill="white"/>
<path d="M459.959 290.477C459.82 290.544 458.034 287.14 455.971 282.875C453.906 278.609 452.347 275.097 452.485 275.029C452.624 274.962 454.41 278.365 456.473 282.632C458.536 286.898 460.097 290.41 459.959 290.477Z" fill="white"/>
<path d="M453.23 315.864C453.079 315.834 453.497 313.098 454.165 309.754C454.833 306.409 455.497 303.723 455.649 303.753C455.8 303.783 455.381 306.518 454.714 309.863C454.046 313.207 453.382 315.894 453.23 315.864Z" fill="white"/>
<path d="M471.771 335.878C471.625 335.929 470.199 332.235 468.588 327.629C466.975 323.022 465.786 319.246 465.932 319.196C466.078 319.144 467.503 322.837 469.116 327.444C470.727 332.051 471.916 335.826 471.771 335.878Z" fill="white"/>
<path d="M469.202 347.584C469.175 347.721 466.601 347.184 463.78 345.645C460.948 344.122 459.093 342.259 459.193 342.161C459.303 342.033 461.281 343.668 464.046 345.153C466.8 346.658 469.251 347.423 469.202 347.584Z" fill="white"/>
<path d="M492.963 374.277C492.822 374.34 491.96 372.709 491.038 370.637C490.116 368.565 489.482 366.834 489.623 366.771C489.764 366.707 490.626 368.337 491.548 370.41C492.47 372.483 493.103 374.214 492.963 374.277Z" fill="white"/>
<path d="M352.591 411.5C352.437 411.519 352.064 409.39 351.757 406.748C351.45 404.104 351.324 401.947 351.478 401.93C351.631 401.912 352.005 404.04 352.312 406.684C352.62 409.325 352.744 411.483 352.591 411.5Z" fill="white"/>
<path d="M425.52 409.661C425.369 409.628 425.684 407.547 426.222 405.013C426.761 402.477 427.321 400.448 427.472 400.48C427.623 400.513 427.309 402.593 426.769 405.128C426.23 407.663 425.671 409.693 425.52 409.661Z" fill="white"/>
<path d="M564.87 33.6162H538.111V6.85791H564.87V33.6162ZM541.845 29.8822H561.136V10.5918H541.845V29.8822Z" fill="#FFE896"/>
<path d="M556.781 14.9473H546.203V25.5264H556.781V14.9473Z" fill="#FFE896"/>
<path d="M564.87 89.6211H538.111V62.8628H564.87V89.6211ZM541.845 85.8871H561.136V66.5967H541.845V85.8871Z" fill="#FFE896"/>
<path d="M556.781 70.9521H546.203V81.5313H556.781V70.9521Z" fill="#FFE896"/>
<path d="M620.84 33.6162H594.082V6.85791H620.84V33.6162ZM597.816 29.8822H617.106V10.5918H597.816V29.8822Z" fill="#FFE896"/>
<path d="M612.945 14.7808H602.027V25.6985H612.945V14.7808Z" fill="#FFE896"/>
<path d="M573.262 8.72314H569.104V12.8814H573.262V8.72314Z" fill="#FFE896"/>
<path d="M577.418 12.8838H573.26V17.042H577.418V12.8838Z" fill="#FFE896"/>
<path d="M581.574 12.8838H577.416V17.042H581.574V12.8838Z" fill="#FFE896"/>
<path d="M577.418 17.0444H573.26V21.2027H577.418V17.0444Z" fill="#FFE896"/>
<path d="M573.262 25.3584H569.104V29.5166H573.262V25.3584Z" fill="#FFE896"/>
<path d="M577.418 25.3584H573.26V29.5166H577.418V25.3584Z" fill="#FFE896"/>
<path d="M581.574 25.3584H577.416V29.5166H581.574V25.3584Z" fill="#FFE896"/>
<path d="M585.727 25.3584H581.568V29.5166H585.727V25.3584Z" fill="#FFE896"/>
<path d="M585.727 21.1982H581.568V25.3565H585.727V21.1982Z" fill="#FFE896"/>
<path d="M589.908 17.0444H585.75V21.2027H589.908V17.0444Z" fill="#FFE896"/>
<path d="M585.727 8.72314H581.568V12.8814H585.727V8.72314Z" fill="#FFE896"/>
<path d="M589.908 12.8838H585.75V17.042H589.908V12.8838Z" fill="#FFE896"/>
<path d="M589.908 25.3584H585.75V29.5166H589.908V25.3584Z" fill="#FFE896"/>
<path d="M589.908 29.5161H585.75V33.6743H589.908V29.5161Z" fill="#FFE896"/>
<path d="M569.109 37.8335H564.951V41.9917H569.109V37.8335Z" fill="#FFE896"/>
<path d="M564.932 37.8335H560.773V41.9917H564.932V37.8335Z" fill="#FFE896"/>
<path d="M560.775 37.8335H556.617V41.9917H560.775V37.8335Z" fill="#FFE896"/>
<path d="M552.467 37.8335H548.309V41.9917H552.467V37.8335Z" fill="#FFE896"/>
<path d="M544.148 37.8335H539.99V41.9917H544.148V37.8335Z" fill="#FFE896"/>
<path d="M552.467 50.311H548.309V54.4693H552.467V50.311Z" fill="#FFE896"/>
<path d="M552.467 54.4688H548.309V58.627H552.467V54.4688Z" fill="#FFE896"/>
<path d="M556.611 54.4688H552.453V58.627H556.611V54.4688Z" fill="#FFE896"/>
<path d="M560.775 54.4688H556.617V58.627H560.775V54.4688Z" fill="#FFE896"/>
<path d="M564.932 54.4688H560.773V58.627H564.932V54.4688Z" fill="#FFE896"/>
<path d="M564.932 50.311H560.773V54.4693H564.932V50.311Z" fill="#FFE896"/>
<path d="M564.932 46.1543H560.773V50.3125H564.932V46.1543Z" fill="#FFE896"/>
<path d="M569.109 46.1543H564.951V50.3125H569.109V46.1543Z" fill="#FFE896"/>
<path d="M573.262 54.4688H569.104V58.627H573.262V54.4688Z" fill="#FFE896"/>
<path d="M573.262 50.311H569.104V54.4693H573.262V50.311Z" fill="#FFE896"/>
<path d="M577.418 50.311H573.26V54.4693H577.418V50.311Z" fill="#FFE896"/>
<path d="M581.574 50.311H577.416V54.4693H581.574V50.311Z" fill="#FFE896"/>
<path d="M585.727 50.311H581.568V54.4693H585.727V50.311Z" fill="#FFE896"/>
<path d="M589.908 54.4688H585.75V58.627H589.908V54.4688Z" fill="#FFE896"/>
<path d="M589.908 58.625H585.75V62.7832H589.908V58.625Z" fill="#FFE896"/>
<path d="M594.035 62.7866H589.877V66.9448H594.035V62.7866Z" fill="#FFE896"/>
<path d="M569.109 54.4688H564.951V58.627H569.109V54.4688Z" fill="#FFE896"/>
<path d="M548.314 50.311H544.156V54.4693H548.314V50.311Z" fill="#FFE896"/>
<path d="M556.611 41.9937H552.453V46.1519H556.611V41.9937Z" fill="#FFE896"/>
<path d="M556.611 46.1543H552.453V50.3125H556.611V46.1543Z" fill="#FFE896"/>
<path d="M552.467 46.1543H548.309V50.3125H552.467V46.1543Z" fill="#FFE896"/>
<path d="M548.314 46.1543H544.156V50.3125H548.314V46.1543Z" fill="#FFE896"/>
<path d="M548.314 41.9937H544.156V46.1519H548.314V41.9937Z" fill="#FFE896"/>
<path d="M544.148 46.1543H539.99V50.3125H544.148V46.1543Z" fill="#FFE896"/>
<path d="M573.262 21.1982H569.104V25.3565H573.262V21.1982Z" fill="#FFE896"/>
<path d="M573.262 29.5161H569.104V33.6743H573.262V29.5161Z" fill="#FFE896"/>
<path d="M573.262 33.6758H569.104V37.834H573.262V33.6758Z" fill="#FFE896"/>
<path d="M573.262 37.8335H569.104V41.9917H573.262V37.8335Z" fill="#FFE896"/>
<path d="M573.262 41.9937H569.104V46.1519H573.262V41.9937Z" fill="#FFE896"/>
<path d="M577.418 41.9937H573.26V46.1519H577.418V41.9937Z" fill="#FFE896"/>
<path d="M581.574 41.9937H577.416V46.1519H581.574V41.9937Z" fill="#FFE896"/>
<path d="M585.727 41.9937H581.568V46.1519H585.727V41.9937Z" fill="#FFE896"/>
<path d="M581.574 37.8335H577.416V41.9917H581.574V37.8335Z" fill="#FFE896"/>
<path d="M589.908 37.8335H585.75V41.9917H589.908V37.8335Z" fill="#FFE896"/>
<path d="M594.035 37.8335H589.877V41.9917H594.035V37.8335Z" fill="#FFE896"/>
<path d="M598.213 37.8335H594.055V41.9917H598.213V37.8335Z" fill="#FFE896"/>
<path d="M602.369 37.8335H598.211V41.9917H602.369V37.8335Z" fill="#FFE896"/>
<path d="M606.522 37.8335H602.363V41.9917H606.522V37.8335Z" fill="#FFE896"/>
<path d="M610.689 37.8335H606.531V41.9917H610.689V37.8335Z" fill="#FFE896"/>
<path d="M610.689 41.9937H606.531V46.1519H610.689V41.9937Z" fill="#FFE896"/>
<path d="M598.213 46.1543H594.055V50.3125H598.213V46.1543Z" fill="#FFE896"/>
<path d="M594.035 46.1543H589.877V50.3125H594.035V46.1543Z" fill="#FFE896"/>
<path d="M594.035 41.9937H589.877V46.1519H594.035V41.9937Z" fill="#FFE896"/>
<path d="M589.908 46.1543H585.75V50.3125H589.908V46.1543Z" fill="#FFE896"/>
<path d="M606.522 50.311H602.363V54.4693H606.522V50.311Z" fill="#FFE896"/>
<path d="M606.522 54.4688H602.363V58.627H606.522V54.4688Z" fill="#FFE896"/>
<path d="M610.689 54.4688H606.531V58.627H610.689V54.4688Z" fill="#FFE896"/>
<path d="M614.83 54.4688H610.672V58.627H614.83V54.4688Z" fill="#FFE896"/>
<path d="M614.83 58.625H610.672V62.7832H614.83V58.625Z" fill="#FFE896"/>
<path d="M614.83 62.7866H610.672V66.9448H614.83V62.7866Z" fill="#FFE896"/>
<path d="M606.522 66.9424H602.363V71.1006H606.522V66.9424Z" fill="#FFE896"/>
<path d="M606.522 79.4497H602.363V83.6079H606.522V79.4497Z" fill="#FFE896"/>
<path d="M618.982 66.9424H614.824V71.1006H618.982V66.9424Z" fill="#FFE896"/>
<path d="M618.982 83.5786H614.824V87.7368H618.982V83.5786Z" fill="#FFE896"/>
<path d="M602.369 83.5786H598.211V87.7368H602.369V83.5786Z" fill="#FFE896"/>
<path d="M598.213 83.5786H594.055V87.7368H598.213V83.5786Z" fill="#FFE896"/>
<path d="M594.035 83.5786H589.877V87.7368H594.035V83.5786Z" fill="#FFE896"/>
<path d="M589.908 83.5786H585.75V87.7368H589.908V83.5786Z" fill="#FFE896"/>
<path d="M594.035 79.4219H589.877V83.5801H594.035V79.4219Z" fill="#FFE896"/>
<path d="M589.908 79.4219H585.75V83.5801H589.908V79.4219Z" fill="#FFE896"/>
<path d="M594.035 75.2603H589.877V79.4185H594.035V75.2603Z" fill="#FFE896"/>
<path d="M594.035 71.104H589.877V75.2622H594.035V71.104Z" fill="#FFE896"/>
<path d="M589.908 66.9424H585.75V71.1006H589.908V66.9424Z" fill="#FFE896"/>
<path d="M585.727 66.9424H581.568V71.1006H585.727V66.9424Z" fill="#FFE896"/>
<path d="M581.574 66.9424H577.416V71.1006H581.574V66.9424Z" fill="#FFE896"/>
<path d="M577.418 66.9424H573.26V71.1006H577.418V66.9424Z" fill="#FFE896"/>
<path d="M585.727 71.104H581.568V75.2622H585.727V71.104Z" fill="#FFE896"/>
<path d="M572.326 72.9526H568.168V77.1109H572.326V72.9526Z" fill="#FFE896"/>
<path d="M573.262 79.4219H569.104V83.5801H573.262V79.4219Z" fill="#FFE896"/>
<path d="M573.262 62.7866H569.104V66.9448H573.262V62.7866Z" fill="#FFE896"/>
<path d="M577.418 71.104H573.26V75.2622H577.418V71.104Z" fill="#FFE896"/>
<path d="M581.574 75.2603H577.416V79.4185H581.574V75.2603Z" fill="#FFE896"/>
<path d="M577.418 75.2603H573.26V79.4185H577.418V75.2603Z" fill="#FFE896"/>
<path d="M581.574 79.4219H577.416V83.5801H581.574V79.4219Z" fill="#FFE896"/>
<path d="M577.418 83.5786H573.26V87.7368H577.418V83.5786Z" fill="#FFE896"/>
<path d="M585.727 62.7866H581.568V66.9448H585.727V62.7866Z" fill="#FFE896"/>
<path d="M581.574 62.7866H577.416V66.9448H581.574V62.7866Z" fill="#FFE896"/>
<path d="M571.859 59.0894H567.701V63.2476H571.859V59.0894Z" fill="#FFE896"/>
<path d="M581.574 58.625H577.416V62.7832H581.574V58.625Z" fill="#FFE896"/>
<path d="M581.574 54.4688H577.416V58.627H581.574V54.4688Z" fill="#FFE896"/>
<path d="M577.418 58.625H573.26V62.7832H577.418V58.625Z" fill="#FFE896"/>
<path d="M573.262 66.9424H569.104V71.1006H573.262V66.9424Z" fill="#FFE896"/>
<path d="M589.908 75.2603H585.75V79.4185H589.908V75.2603Z" fill="#FFE896"/>
<path d="M585.727 83.5786H581.568V87.7368H585.727V83.5786Z" fill="#FFE896"/>
<path d="M598.213 66.9424H594.055V71.1006H598.213V66.9424Z" fill="#FFE896"/>
<path d="M602.369 71.104H598.211V75.2622H602.369V71.104Z" fill="#FFE896"/>
<path d="M614.83 71.104H610.672V75.2622H614.83V71.104Z" fill="#FFE896"/>
<path d="M614.83 75.2603H610.672V79.4185H614.83V75.2603Z" fill="#FFE896"/>
<path d="M610.689 75.2603H606.531V79.4185H610.689V75.2603Z" fill="#FFE896"/>
<path d="M606.522 75.2603H602.363V79.4185H606.522V75.2603Z" fill="#FFE896"/>
<path d="M602.369 75.2603H598.211V79.4185H602.369V75.2603Z" fill="#FFE896"/>
<path d="M614.83 79.4219H610.672V83.5801H614.83V79.4219Z" fill="#FFE896"/>
<path d="M614.83 83.5786H610.672V87.7368H614.83V83.5786Z" fill="#FFE896"/>
<path d="M606.522 58.625H602.363V62.7832H606.522V58.625Z" fill="#FFE896"/>
<path d="M602.369 50.311H598.211V54.4693H602.369V50.311Z" fill="#FFE896"/>
<path d="M602.369 54.4688H598.211V58.627H602.369V54.4688Z" fill="#FFE896"/>
<path d="M602.369 58.625H598.211V62.7832H602.369V58.625Z" fill="#FFE896"/>
<path d="M598.213 62.7866H594.055V66.9448H598.213V62.7866Z" fill="#FFE896"/>
<path d="M598.213 54.4688H594.055V58.627H598.213V54.4688Z" fill="#FFE896"/>
<path d="M598.213 58.625H594.055V62.7832H598.213V58.625Z" fill="#FFE896"/>
<path d="M606.522 46.1543H602.363V50.3125H606.522V46.1543Z" fill="#FFE896"/>
<path d="M606.522 62.7866H602.363V66.9448H606.522V62.7866Z" fill="#FFE896"/>
<path d="M610.689 62.7866H606.531V66.9448H610.689V62.7866Z" fill="#FFE896"/>
<path d="M614.83 41.9937H610.672V46.1519H614.83V41.9937Z" fill="#FFE896"/>
<path d="M614.83 46.1543H610.672V50.3125H614.83V46.1543Z" fill="#FFE896"/>
<path d="M618.982 37.8335H614.824V41.9917H618.982V37.8335Z" fill="#FFE896"/>
<path d="M618.982 50.311H614.824V54.4693H618.982V50.311Z" fill="#FFE896"/>
<path d="M581.574 33.6758H577.416V37.834H581.574V33.6758Z" fill="#FFE896"/>
<path d="M585.727 33.6758H581.568V37.834H585.727V33.6758Z" fill="#FFE896"/>
<path d="M533.507 14.7316H530.068V0.5H544.3V3.93775H533.507V14.7316Z" fill="#455A64"/>
<path d="M544.3 95.9753H530.068V81.7437H533.507V92.5367H544.3V95.9753Z" fill="#455A64"/>
<path d="M628.892 95.9753H614.66V92.5367H625.453V81.7437H628.892V95.9753Z" fill="#455A64"/>
<path d="M628.892 14.7316H625.453V3.93775H614.66V0.5H628.892V14.7316Z" fill="#455A64"/>
<path d="M439.59 196.802L449.019 180.184C444.848 173.414 442.437 165.443 442.437 156.907C442.437 132.359 462.337 112.459 486.884 112.459C511.432 112.459 531.33 132.359 531.33 156.907C531.33 181.454 511.431 201.354 486.884 201.354C476.633 201.354 467.202 197.875 459.682 192.046L459.697 192.066L439.59 196.802Z" fill="#FAFAFA"/>
<path d="M439.59 196.799C440.545 196.581 446.911 195.126 459.729 192.197L459.935 192.15L459.806 191.98L459.791 191.961L459.599 192.152C462.135 194.116 465.172 196.052 468.742 197.664C472.317 199.249 476.412 200.544 480.933 201.145C483.191 201.434 485.549 201.62 487.973 201.502C489.184 201.433 490.417 201.404 491.66 201.3C492.896 201.113 494.148 200.924 495.418 200.732C500.452 199.738 505.599 197.827 510.4 194.848C515.198 191.88 519.641 187.848 523.203 182.895C526.759 177.951 529.455 172.089 530.718 165.718C531.968 159.355 531.864 152.538 530.193 145.938C528.51 139.362 525.367 132.937 520.662 127.651L518.846 125.654C518.249 124.982 517.537 124.428 516.89 123.812C516.213 123.229 515.602 122.569 514.874 122.053L512.74 120.458C512.049 119.9 511.288 119.449 510.531 118.997C509.777 118.54 509.025 118.083 508.275 117.627C507.486 117.244 506.699 116.862 505.913 116.481C505.121 116.116 504.359 115.683 503.529 115.421C497.07 112.858 490.181 111.881 483.598 112.359C477.012 112.833 470.71 114.723 465.304 117.766C459.88 120.784 455.308 124.815 451.778 129.317C448.238 133.822 445.743 138.79 444.199 143.736C442.664 148.706 442.25 153.636 442.267 158.198C442.399 162.772 443.232 166.985 444.444 170.683C445.659 174.387 447.255 177.572 448.903 180.251L448.901 180.117C442.954 190.772 440.046 195.981 439.59 196.799C440.058 195.987 443.038 190.82 449.133 180.247L449.172 180.18L449.131 180.113C447.511 177.438 445.944 174.265 444.755 170.583C443.57 166.906 442.763 162.723 442.649 158.186C442.65 153.662 443.078 148.779 444.611 143.862C446.155 138.967 448.637 134.057 452.15 129.607C455.653 125.16 460.184 121.183 465.551 118.206C470.9 115.206 477.13 113.347 483.638 112.885C490.147 112.42 496.951 113.389 503.328 115.925C504.148 116.184 504.901 116.612 505.682 116.973C506.457 117.349 507.235 117.727 508.015 118.106C508.755 118.556 509.498 119.008 510.242 119.46C510.99 119.907 511.743 120.352 512.425 120.904L514.533 122.479C515.252 122.988 515.854 123.641 516.523 124.216C517.162 124.826 517.866 125.372 518.454 126.036L520.248 128.01C524.896 133.23 528.001 139.575 529.665 146.07C531.319 152.587 531.427 159.325 530.199 165.612C528.958 171.908 526.3 177.705 522.793 182.599C519.28 187.501 514.892 191.497 510.152 194.445C505.408 197.402 500.319 199.306 495.336 200.306C494.08 200.499 492.84 200.69 491.618 200.879C490.386 200.985 489.165 201.019 487.965 201.09C485.563 201.216 483.225 201.039 480.986 200.762C476.501 200.182 472.435 198.916 468.878 197.359C465.327 195.776 462.3 193.87 459.767 191.934L458.939 191.3L459.575 192.125L459.59 192.144L459.667 191.928C446.887 195.03 440.541 196.568 439.59 196.799Z" fill="#263238"/>
<path d="M498.783 155.055C498.783 157.454 500.727 159.398 503.126 159.398C505.526 159.398 507.471 157.454 507.471 155.055C507.471 152.655 505.527 150.711 503.126 150.711C500.727 150.711 498.783 152.655 498.783 155.055Z" fill="#263238"/>
<path d="M481.41 155.055C481.41 157.454 483.355 159.398 485.753 159.398C488.153 159.398 490.098 157.454 490.098 155.055C490.098 152.655 488.154 150.711 485.753 150.711C483.355 150.711 481.41 152.655 481.41 155.055Z" fill="#263238"/>
<path d="M464.059 152.884C462.86 154.961 463.572 157.618 465.649 158.818C467.727 160.017 470.383 159.306 471.583 157.228C472.782 155.151 472.07 152.494 469.993 151.295C467.915 150.094 465.258 150.806 464.059 152.884Z" fill="#263238"/>
</svg>
