<svg width="232" height="289" viewBox="0 0 232 289" fill="none" xmlns="http://www.w3.org/2000/svg">
<rect width="232" height="289" rx="8" fill="#FFD0F7"/>
<path d="M20.5 89C25.1944 89 29 85.1944 29 80.5C29 75.8056 25.1944 72 20.5 72C15.8056 72 12 75.8056 12 80.5C12 85.1944 15.8056 89 20.5 89Z" fill="#FCA861"/>
<path d="M12 14C13.6569 14 15 12.433 15 10.5C15 8.567 13.6569 7 12 7C10.3432 7 9 8.567 9 10.5C9 12.433 10.3432 14 12 14Z" fill="white"/>
<path d="M216.5 29C217.881 29 219 27.8807 219 26.5C219 25.1193 217.881 24 216.5 24C215.119 24 214 25.1193 214 26.5C214 27.8807 215.119 29 216.5 29Z" fill="#87C0A8"/>
<path d="M215 74C216.105 74 217 73.1046 217 72C217 70.8954 216.105 70 215 70C213.895 70 213 70.8954 213 72C213 73.1046 213.895 74 215 74Z" fill="#87C0A8"/>
</svg>
