<svg width="427" height="439" viewBox="0 0 427 439" fill="none" xmlns="http://www.w3.org/2000/svg">
<path d="M100.678 16.0347C78.998 23.2622 56.3669 37.2615 52.1805 59.728C46.9453 87.8269 73.0566 114.026 70.0751 142.453C67.8596 163.578 50.5197 179.299 37.8447 196.341C22.1023 217.51 12.5292 244.183 15.8304 270.356C18.5589 291.983 29.6627 311.621 41.9739 329.609C50.5173 342.094 60.0976 354.417 73.1532 362.057C86.1528 369.665 101.547 372.001 116.583 372.901C141.206 374.374 166.035 372.377 190.105 366.984C225.643 359.023 260.319 343.625 296.703 345.197C328.634 346.576 360.681 361.024 391.578 352.847C396.884 351.442 402.118 349.322 406.271 345.731C411.102 341.553 414.132 335.695 416.657 329.829C434.605 288.129 429.95 234.55 396.714 203.625C376.596 184.906 347.913 175.427 332.529 152.658C313.811 124.955 321.117 87.7947 313.641 55.2087C311.865 47.4658 309.115 39.73 303.954 33.6907C297.669 26.3367 288.487 22.2231 279.583 18.4363C264.386 11.9723 248.72 6.46993 231.965 7.38143C220.658 7.99705 210.832 10.7649 199.371 9.67567C165.113 6.4234 134.015 4.92134 100.678 16.0347Z" fill="#F3FAFF"/>
<path d="M333.584 115.712C343.325 97.622 336.558 75.0595 318.467 65.3177C300.377 55.5758 277.814 62.3438 268.072 80.4342C258.33 98.5247 265.098 121.087 283.189 130.829C301.279 140.571 323.842 133.803 333.584 115.712Z" fill="#41415B"/>
<path d="M300.846 130.983C319.028 130.983 333.768 116.243 333.768 98.0616C333.768 79.8797 319.028 65.1404 300.846 65.1404C282.665 65.1404 267.925 79.8797 267.925 98.0616C267.925 116.243 282.665 130.983 300.846 130.983Z" fill="#F4F4F4"/>
<path d="M306.51 129.078C288.864 132.356 271.902 120.897 268.274 103.405C268.312 103.636 268.342 103.865 268.384 104.094C271.705 121.971 288.889 133.769 306.766 130.447C324.642 127.126 336.44 109.942 333.119 92.0655C333.076 91.8352 333.021 91.6109 332.975 91.3831C335.87 109.012 324.157 125.799 306.51 129.078Z" fill="black"/>
<path d="M295.37 68.553C312.767 65.321 329.503 76.4116 333.45 93.4843C333.382 93.0059 333.309 92.5274 333.22 92.049C329.899 74.1723 312.715 62.3741 294.839 65.6956C276.962 69.0171 265.164 86.2007 268.485 104.077C268.575 104.557 268.678 105.029 268.787 105.5C266.338 88.1465 277.974 71.785 295.37 68.553Z" fill="black"/>
<path d="M297.354 78.773C296.747 78.8827 296.16 78.4759 296.049 77.8674L294.913 71.5836C294.804 70.9763 295.21 70.3894 295.819 70.2796C296.426 70.1698 297.013 70.5767 297.124 71.1851L298.261 77.469C298.368 78.0762 297.962 78.6632 297.354 78.773Z" fill="#DD3E4B"/>
<path d="M305.948 126.287C305.341 126.397 304.754 125.99 304.644 125.381L303.509 119.098C303.399 118.49 303.806 117.903 304.414 117.794C305.021 117.684 305.608 118.091 305.719 118.699L306.855 124.983C306.963 125.589 306.556 126.176 305.948 126.287Z" fill="#DD3E4B"/>
<path d="M322.846 94.3139C322.736 93.7066 323.143 93.1196 323.75 93.0087L330.034 91.8729C330.641 91.7631 331.228 92.1699 331.339 92.7784C331.449 93.3857 331.042 93.9726 330.434 94.0836L324.15 95.2194C323.543 95.3291 322.956 94.9211 322.846 94.3139Z" fill="#DD3E4B"/>
<path d="M270.556 103.77C270.447 103.163 270.854 102.576 271.462 102.465L277.746 101.329C278.353 101.219 278.94 101.626 279.051 102.234C279.161 102.842 278.754 103.429 278.145 103.538L271.862 104.674C271.253 104.784 270.666 104.377 270.556 103.77Z" fill="#DD3E4B"/>
<path d="M313.719 79.9714C313.211 79.6194 313.084 78.9167 313.436 78.4085L317.076 73.1614C317.428 72.6544 318.13 72.5267 318.639 72.8787C319.146 73.2306 319.273 73.9333 318.921 74.4416L315.281 79.6886C314.929 80.1969 314.227 80.3233 313.719 79.9714Z" fill="#DD3E4B"/>
<path d="M283.422 123.635C282.915 123.283 282.787 122.581 283.139 122.072L286.779 116.825C287.131 116.318 287.834 116.191 288.342 116.542C288.849 116.894 288.977 117.597 288.625 118.105L284.985 123.352C284.631 123.859 283.929 123.987 283.422 123.635Z" fill="#DD3E4B"/>
<path d="M319.201 111.11C319.553 110.603 320.256 110.475 320.764 110.827L326.011 114.467C326.518 114.819 326.646 115.522 326.294 116.03C325.942 116.537 325.239 116.665 324.731 116.313L319.484 112.673C318.976 112.32 318.849 111.617 319.201 111.11Z" fill="#DD3E4B"/>
<path d="M275.531 80.8189C275.883 80.3118 276.586 80.1842 277.094 80.5361L282.341 84.1761C282.848 84.5281 282.976 85.2308 282.624 85.739C282.272 86.2461 281.57 86.3737 281.061 86.0218L275.814 82.3818C275.307 82.0298 275.18 81.3259 275.531 80.8189Z" fill="#DD3E4B"/>
<path opacity="0.5" d="M302.454 98.8608C302.666 100.034 301.88 101.166 300.707 101.378L288.347 103.613C287.174 103.825 286.042 103.039 285.83 101.866C285.617 100.693 286.403 99.5611 287.576 99.3487L299.936 97.1141C301.109 96.903 302.242 97.6892 302.454 98.8608Z" fill="black"/>
<path d="M306.788 97.5075C307.001 98.6803 306.215 99.8125 305.042 100.025L286.585 103.362C285.412 103.574 284.28 102.788 284.068 101.615C283.855 100.442 284.642 99.3102 285.814 99.0979L304.271 95.7609C305.444 95.5497 306.576 96.3347 306.788 97.5075Z" fill="#C93A4C"/>
<path opacity="0.5" d="M300.109 100.351C299.364 99.7572 299.24 98.662 299.834 97.9175L311.116 83.7655C311.71 83.021 312.805 82.897 313.55 83.4911C314.294 84.0852 314.418 85.1805 313.824 85.9249L302.543 100.077C301.948 100.821 300.853 100.946 300.109 100.351Z" fill="black"/>
<path d="M297.258 103.251C296.514 102.657 296.39 101.562 296.984 100.817L311.352 82.7938C311.946 82.0493 313.041 81.9253 313.786 82.5194C314.53 83.1136 314.654 84.2088 314.06 84.9533L299.692 102.977C299.098 103.721 298.003 103.844 297.258 103.251Z" fill="#DD3E4B"/>
<path opacity="0.5" d="M304.618 98.2607C304.931 99.9858 303.784 101.638 302.059 101.95C300.334 102.262 298.681 101.116 298.37 99.3905C298.059 97.6653 299.204 96.0129 300.929 95.7015C302.654 95.389 304.307 96.5343 304.618 98.2607Z" fill="black"/>
<path d="M304.474 97.9261C304.787 99.6513 303.64 101.304 301.915 101.615C300.19 101.926 298.538 100.781 298.226 99.056C297.915 97.3308 299.06 95.6784 300.785 95.367C302.511 95.0545 304.162 96.201 304.474 97.9261Z" fill="#233354"/>
<path d="M303.162 98.1636C303.343 99.1646 302.678 100.124 301.677 100.305C300.676 100.486 299.716 99.8208 299.535 98.8198C299.354 97.8188 300.02 96.8596 301.02 96.6783C302.023 96.4969 302.981 97.1614 303.162 98.1636Z" fill="white"/>
<path opacity="0.3" d="M194.192 438.672C254.091 438.672 302.648 432.93 302.648 425.847C302.648 418.764 254.091 413.021 194.192 413.021C134.294 413.021 85.7363 418.764 85.7363 425.847C85.7363 432.93 134.294 438.672 194.192 438.672Z" fill="#DADAE0"/>
<path d="M278.334 106.075V406.284C278.334 418.418 268.503 428.26 256.37 428.26H132.018C119.884 428.26 110.042 418.418 110.042 406.284V106.075C110.042 98.4516 113.931 91.7228 119.836 87.7976C123.332 85.4592 127.52 84.0991 132.018 84.0991H256.37C268.503 84.0991 278.334 93.9418 278.334 106.075Z" fill="#484867"/>
<path d="M253.655 421.165H134.74C125.511 421.165 118.029 413.683 118.029 404.454V108.762C118.029 99.5324 125.511 92.0508 134.74 92.0508H253.655C262.884 92.0508 270.366 99.5324 270.366 108.762V404.454C270.366 413.683 262.884 421.165 253.655 421.165Z" fill="#FDFDFD"/>
<path d="M222.218 102.433H166.164C163.688 102.433 161.68 100.426 161.68 97.9491V88.3975H226.701V97.9491C226.702 100.426 224.694 102.433 222.218 102.433Z" fill="#484867"/>
<path opacity="0.5" d="M204.18 98.0656H177.542C176.474 98.0656 175.609 97.2007 175.609 96.1317C175.609 95.0639 176.474 94.1978 177.542 94.1978H204.18C205.248 94.1978 206.114 95.0639 206.114 96.1317C206.113 97.2007 205.248 98.0656 204.18 98.0656Z" fill="#D1D1E6"/>
<path opacity="0.5" d="M212.772 96.1334C212.772 97.2012 211.906 98.0674 210.838 98.0674C209.77 98.0674 208.904 97.2024 208.904 96.1334C208.904 95.0656 209.77 94.1995 210.838 94.1995C211.906 94.1995 212.772 95.0656 212.772 96.1334Z" fill="#D1D1E6"/>
<path d="M142.177 193.855H137.654V198.378H142.177V193.855Z" fill="#4C6ED4"/>
<path d="M146.696 193.855H142.173V198.378H146.696V193.855Z" fill="#4C6ED4"/>
<path d="M151.214 193.855H146.691V198.378H151.214V193.855Z" fill="#4C6ED4"/>
<path d="M155.747 193.855H151.225V198.378H155.747V193.855Z" fill="#4C6ED4"/>
<path d="M160.266 193.855H155.743V198.378H160.266V193.855Z" fill="#4C6ED4"/>
<path d="M164.792 193.855H160.269V198.378H164.792V193.855Z" fill="#4C6ED4"/>
<path d="M169.31 193.855H164.788V198.378H169.31V193.855Z" fill="#4C6ED4"/>
<path d="M178.362 193.855H173.839V198.378H178.362V193.855Z" fill="#4C6ED4"/>
<path d="M182.881 193.855H178.358V198.378H182.881V193.855Z" fill="#4C6ED4"/>
<path d="M187.399 193.855H182.876V198.378H187.399V193.855Z" fill="#4C6ED4"/>
<path d="M191.918 193.855H187.395V198.378H191.918V193.855Z" fill="#4C6ED4"/>
<path d="M205.496 193.855H200.973V198.378H205.496V193.855Z" fill="#4C6ED4"/>
<path d="M223.584 193.855H219.062V198.378H223.584V193.855Z" fill="#4C6ED4"/>
<path d="M228.103 193.855H223.58V198.378H228.103V193.855Z" fill="#4C6ED4"/>
<path d="M232.636 193.855H228.113V198.378H232.636V193.855Z" fill="#4C6ED4"/>
<path d="M237.155 193.855H232.632V198.378H237.155V193.855Z" fill="#4C6ED4"/>
<path d="M241.673 193.855H237.15V198.378H241.673V193.855Z" fill="#4C6ED4"/>
<path d="M246.199 193.855H241.676V198.378H246.199V193.855Z" fill="#4C6ED4"/>
<path d="M250.718 193.855H246.195V198.378H250.718V193.855Z" fill="#4C6ED4"/>
<path d="M142.177 198.378H137.654V202.901H142.177V198.378Z" fill="#4C6ED4"/>
<path d="M169.31 198.378H164.788V202.901H169.31V198.378Z" fill="#4C6ED4"/>
<path d="M191.918 198.378H187.395V202.901H191.918V198.378Z" fill="#4C6ED4"/>
<path d="M196.451 198.378H191.928V202.901H196.451V198.378Z" fill="#4C6ED4"/>
<path d="M205.496 198.378H200.973V202.901H205.496V198.378Z" fill="#4C6ED4"/>
<path d="M214.547 198.378H210.024V202.901H214.547V198.378Z" fill="#4C6ED4"/>
<path d="M223.584 198.378H219.062V202.901H223.584V198.378Z" fill="#4C6ED4"/>
<path d="M250.718 198.378H246.195V202.901H250.718V198.378Z" fill="#4C6ED4"/>
<path d="M142.177 202.9H137.654V207.423H142.177V202.9Z" fill="#4C6ED4"/>
<path d="M151.214 202.9H146.691V207.423H151.214V202.9Z" fill="#4C6ED4"/>
<path d="M155.747 202.9H151.225V207.423H155.747V202.9Z" fill="#4C6ED4"/>
<path d="M160.266 202.9H155.743V207.423H160.266V202.9Z" fill="#4C6ED4"/>
<path d="M169.31 202.9H164.788V207.423H169.31V202.9Z" fill="#4C6ED4"/>
<path d="M182.881 202.9H178.358V207.423H182.881V202.9Z" fill="#4C6ED4"/>
<path d="M191.918 202.9H187.395V207.423H191.918V202.9Z" fill="#4C6ED4"/>
<path d="M200.97 202.9H196.447V207.423H200.97V202.9Z" fill="#4C6ED4"/>
<path d="M205.496 202.9H200.973V207.423H205.496V202.9Z" fill="#4C6ED4"/>
<path d="M210.014 202.9H205.491V207.423H210.014V202.9Z" fill="#4C6ED4"/>
<path d="M214.547 202.9H210.024V207.423H214.547V202.9Z" fill="#4C6ED4"/>
<path d="M223.584 202.9H219.062V207.423H223.584V202.9Z" fill="#4C6ED4"/>
<path d="M232.636 202.9H228.113V207.423H232.636V202.9Z" fill="#4C6ED4"/>
<path d="M237.155 202.9H232.632V207.423H237.155V202.9Z" fill="#4C6ED4"/>
<path d="M241.673 202.9H237.15V207.423H241.673V202.9Z" fill="#4C6ED4"/>
<path d="M250.718 202.9H246.195V207.423H250.718V202.9Z" fill="#4C6ED4"/>
<path d="M142.177 207.423H137.654V211.946H142.177V207.423Z" fill="#4C6ED4"/>
<path d="M151.214 207.423H146.691V211.946H151.214V207.423Z" fill="#4C6ED4"/>
<path d="M155.747 207.423H151.225V211.946H155.747V207.423Z" fill="#4C6ED4"/>
<path d="M160.266 207.423H155.743V211.946H160.266V207.423Z" fill="#4C6ED4"/>
<path d="M169.31 207.423H164.788V211.946H169.31V207.423Z" fill="#4C6ED4"/>
<path d="M187.399 207.423H182.876V211.946H187.399V207.423Z" fill="#4C6ED4"/>
<path d="M191.918 207.423H187.395V211.946H191.918V207.423Z" fill="#4C6ED4"/>
<path d="M200.97 207.423H196.447V211.946H200.97V207.423Z" fill="#4C6ED4"/>
<path d="M205.496 207.423H200.973V211.946H205.496V207.423Z" fill="#4C6ED4"/>
<path d="M210.014 207.423H205.491V211.946H210.014V207.423Z" fill="#4C6ED4"/>
<path d="M214.547 207.423H210.024V211.946H214.547V207.423Z" fill="#4C6ED4"/>
<path d="M223.584 207.423H219.062V211.946H223.584V207.423Z" fill="#4C6ED4"/>
<path d="M232.636 207.423H228.113V211.946H232.636V207.423Z" fill="#4C6ED4"/>
<path d="M237.155 207.423H232.632V211.946H237.155V207.423Z" fill="#4C6ED4"/>
<path d="M241.673 207.423H237.15V211.946H241.673V207.423Z" fill="#4C6ED4"/>
<path d="M250.718 207.423H246.195V211.946H250.718V207.423Z" fill="#4C6ED4"/>
<path d="M142.177 211.946H137.654V216.469H142.177V211.946Z" fill="#4C6ED4"/>
<path d="M151.214 211.946H146.691V216.469H151.214V211.946Z" fill="#4C6ED4"/>
<path d="M155.747 211.946H151.225V216.469H155.747V211.946Z" fill="#4C6ED4"/>
<path d="M160.266 211.946H155.743V216.469H160.266V211.946Z" fill="#4C6ED4"/>
<path d="M169.31 211.946H164.788V216.469H169.31V211.946Z" fill="#4C6ED4"/>
<path d="M187.399 211.946H182.876V216.469H187.399V211.946Z" fill="#4C6ED4"/>
<path d="M191.918 211.946H187.395V216.469H191.918V211.946Z" fill="#4C6ED4"/>
<path d="M196.451 211.946H191.928V216.469H196.451V211.946Z" fill="#4C6ED4"/>
<path d="M200.97 211.946H196.447V216.469H200.97V211.946Z" fill="#4C6ED4"/>
<path d="M205.496 211.946H200.973V216.469H205.496V211.946Z" fill="#4C6ED4"/>
<path d="M214.547 211.946H210.024V216.469H214.547V211.946Z" fill="#4C6ED4"/>
<path d="M223.584 211.946H219.062V216.469H223.584V211.946Z" fill="#4C6ED4"/>
<path d="M232.636 211.946H228.113V216.469H232.636V211.946Z" fill="#4C6ED4"/>
<path d="M237.155 211.946H232.632V216.469H237.155V211.946Z" fill="#4C6ED4"/>
<path d="M241.673 211.946H237.15V216.469H241.673V211.946Z" fill="#4C6ED4"/>
<path d="M250.718 211.946H246.195V216.469H250.718V211.946Z" fill="#4C6ED4"/>
<path d="M142.177 216.469H137.654V220.992H142.177V216.469Z" fill="#4C6ED4"/>
<path d="M169.31 216.469H164.788V220.992H169.31V216.469Z" fill="#4C6ED4"/>
<path d="M182.881 216.469H178.358V220.992H182.881V216.469Z" fill="#4C6ED4"/>
<path d="M191.918 216.469H187.395V220.992H191.918V216.469Z" fill="#4C6ED4"/>
<path d="M200.97 216.469H196.447V220.992H200.97V216.469Z" fill="#4C6ED4"/>
<path d="M205.496 216.469H200.973V220.992H205.496V216.469Z" fill="#4C6ED4"/>
<path d="M214.547 216.469H210.024V220.992H214.547V216.469Z" fill="#4C6ED4"/>
<path d="M223.584 216.469H219.062V220.992H223.584V216.469Z" fill="#4C6ED4"/>
<path d="M250.718 216.469H246.195V220.992H250.718V216.469Z" fill="#4C6ED4"/>
<path d="M142.177 220.991H137.654V225.514H142.177V220.991Z" fill="#4C6ED4"/>
<path d="M146.696 220.991H142.173V225.514H146.696V220.991Z" fill="#4C6ED4"/>
<path d="M151.214 220.991H146.691V225.514H151.214V220.991Z" fill="#4C6ED4"/>
<path d="M155.747 220.991H151.225V225.514H155.747V220.991Z" fill="#4C6ED4"/>
<path d="M160.266 220.991H155.743V225.514H160.266V220.991Z" fill="#4C6ED4"/>
<path d="M164.792 220.991H160.269V225.514H164.792V220.991Z" fill="#4C6ED4"/>
<path d="M169.31 220.991H164.788V225.514H169.31V220.991Z" fill="#4C6ED4"/>
<path d="M178.362 220.991H173.839V225.514H178.362V220.991Z" fill="#4C6ED4"/>
<path d="M187.399 220.991H182.876V225.514H187.399V220.991Z" fill="#4C6ED4"/>
<path d="M196.451 220.991H191.928V225.514H196.451V220.991Z" fill="#4C6ED4"/>
<path d="M205.496 220.991H200.973V225.514H205.496V220.991Z" fill="#4C6ED4"/>
<path d="M214.547 220.991H210.024V225.514H214.547V220.991Z" fill="#4C6ED4"/>
<path d="M223.584 220.991H219.062V225.514H223.584V220.991Z" fill="#4C6ED4"/>
<path d="M228.103 220.991H223.58V225.514H228.103V220.991Z" fill="#4C6ED4"/>
<path d="M232.636 220.991H228.113V225.514H232.636V220.991Z" fill="#4C6ED4"/>
<path d="M237.155 220.991H232.632V225.514H237.155V220.991Z" fill="#4C6ED4"/>
<path d="M241.673 220.991H237.15V225.514H241.673V220.991Z" fill="#4C6ED4"/>
<path d="M246.199 220.991H241.676V225.514H246.199V220.991Z" fill="#4C6ED4"/>
<path d="M250.718 220.991H246.195V225.514H250.718V220.991Z" fill="#4C6ED4"/>
<path d="M178.362 225.514H173.839V230.037H178.362V225.514Z" fill="#4C6ED4"/>
<path d="M182.881 225.514H178.358V230.037H182.881V225.514Z" fill="#4C6ED4"/>
<path d="M196.451 225.514H191.928V230.037H196.451V225.514Z" fill="#4C6ED4"/>
<path d="M200.97 225.514H196.447V230.037H200.97V225.514Z" fill="#4C6ED4"/>
<path d="M205.496 225.514H200.973V230.037H205.496V225.514Z" fill="#4C6ED4"/>
<path d="M142.177 230.036H137.654V234.559H142.177V230.036Z" fill="#4C6ED4"/>
<path d="M146.696 230.036H142.173V234.559H146.696V230.036Z" fill="#4C6ED4"/>
<path d="M155.747 230.036H151.225V234.559H155.747V230.036Z" fill="#4C6ED4"/>
<path d="M160.266 230.036H155.743V234.559H160.266V230.036Z" fill="#4C6ED4"/>
<path d="M169.31 230.036H164.788V234.559H169.31V230.036Z" fill="#4C6ED4"/>
<path d="M182.881 230.036H178.358V234.559H182.881V230.036Z" fill="#4C6ED4"/>
<path d="M196.451 230.036H191.928V234.559H196.451V230.036Z" fill="#4C6ED4"/>
<path d="M205.496 230.036H200.973V234.559H205.496V230.036Z" fill="#4C6ED4"/>
<path d="M210.014 230.036H205.491V234.559H210.014V230.036Z" fill="#4C6ED4"/>
<path d="M223.584 230.036H219.062V234.559H223.584V230.036Z" fill="#4C6ED4"/>
<path d="M250.718 230.036H246.195V234.559H250.718V230.036Z" fill="#4C6ED4"/>
<path d="M146.696 234.559H142.173V239.082H146.696V234.559Z" fill="#4C6ED4"/>
<path d="M151.214 234.559H146.691V239.082H151.214V234.559Z" fill="#4C6ED4"/>
<path d="M164.792 234.559H160.269V239.082H164.792V234.559Z" fill="#4C6ED4"/>
<path d="M173.844 234.559H169.321V239.082H173.844V234.559Z" fill="#4C6ED4"/>
<path d="M178.362 234.559H173.839V239.082H178.362V234.559Z" fill="#4C6ED4"/>
<path d="M187.399 234.559H182.876V239.082H187.399V234.559Z" fill="#4C6ED4"/>
<path d="M205.496 234.559H200.973V239.082H205.496V234.559Z" fill="#4C6ED4"/>
<path d="M210.014 234.559H205.491V239.082H210.014V234.559Z" fill="#4C6ED4"/>
<path d="M219.066 234.559H214.543V239.082H219.066V234.559Z" fill="#4C6ED4"/>
<path d="M228.103 234.559H223.58V239.082H228.103V234.559Z" fill="#4C6ED4"/>
<path d="M232.636 234.559H228.113V239.082H232.636V234.559Z" fill="#4C6ED4"/>
<path d="M237.155 234.559H232.632V239.082H237.155V234.559Z" fill="#4C6ED4"/>
<path d="M241.673 234.559H237.15V239.082H241.673V234.559Z" fill="#4C6ED4"/>
<path d="M246.199 234.559H241.676V239.082H246.199V234.559Z" fill="#4C6ED4"/>
<path d="M142.177 239.082H137.654V243.605H142.177V239.082Z" fill="#4C6ED4"/>
<path d="M146.696 239.082H142.173V243.605H146.696V239.082Z" fill="#4C6ED4"/>
<path d="M155.747 239.082H151.225V243.605H155.747V239.082Z" fill="#4C6ED4"/>
<path d="M164.792 239.082H160.269V243.605H164.792V239.082Z" fill="#4C6ED4"/>
<path d="M169.31 239.082H164.788V243.605H169.31V239.082Z" fill="#4C6ED4"/>
<path d="M178.362 239.082H173.839V243.605H178.362V239.082Z" fill="#4C6ED4"/>
<path d="M182.881 239.082H178.358V243.605H182.881V239.082Z" fill="#4C6ED4"/>
<path d="M196.451 239.082H191.928V243.605H196.451V239.082Z" fill="#4C6ED4"/>
<path d="M200.97 239.082H196.447V243.605H200.97V239.082Z" fill="#4C6ED4"/>
<path d="M205.496 239.082H200.973V243.605H205.496V239.082Z" fill="#4C6ED4"/>
<path d="M210.014 239.082H205.491V243.605H210.014V239.082Z" fill="#4C6ED4"/>
<path d="M214.547 239.082H210.024V243.605H214.547V239.082Z" fill="#4C6ED4"/>
<path d="M223.584 239.082H219.062V243.605H223.584V239.082Z" fill="#4C6ED4"/>
<path d="M228.103 239.082H223.58V243.605H228.103V239.082Z" fill="#4C6ED4"/>
<path d="M237.155 239.082H232.632V243.605H237.155V239.082Z" fill="#4C6ED4"/>
<path d="M250.718 239.082H246.195V243.605H250.718V239.082Z" fill="#4C6ED4"/>
<path d="M146.696 243.605H142.173V248.128H146.696V243.605Z" fill="#4C6ED4"/>
<path d="M155.747 243.605H151.225V248.128H155.747V243.605Z" fill="#4C6ED4"/>
<path d="M160.266 243.605H155.743V248.128H160.266V243.605Z" fill="#4C6ED4"/>
<path d="M178.362 243.605H173.839V248.128H178.362V243.605Z" fill="#4C6ED4"/>
<path d="M205.496 243.605H200.973V248.128H205.496V243.605Z" fill="#4C6ED4"/>
<path d="M228.103 243.605H223.58V248.128H228.103V243.605Z" fill="#4C6ED4"/>
<path d="M237.155 243.605H232.632V248.128H237.155V243.605Z" fill="#4C6ED4"/>
<path d="M241.673 243.605H237.15V248.128H241.673V243.605Z" fill="#4C6ED4"/>
<path d="M246.199 243.605H241.676V248.128H246.199V243.605Z" fill="#4C6ED4"/>
<path d="M250.718 243.605H246.195V248.128H250.718V243.605Z" fill="#4C6ED4"/>
<path d="M151.214 248.128H146.691V252.651H151.214V248.128Z" fill="#4C6ED4"/>
<path d="M155.747 248.128H151.225V252.651H155.747V248.128Z" fill="#4C6ED4"/>
<path d="M164.792 248.128H160.269V252.651H164.792V248.128Z" fill="#4C6ED4"/>
<path d="M169.31 248.128H164.788V252.651H169.31V248.128Z" fill="#4C6ED4"/>
<path d="M173.844 248.128H169.321V252.651H173.844V248.128Z" fill="#4C6ED4"/>
<path d="M182.881 248.128H178.358V252.651H182.881V248.128Z" fill="#4C6ED4"/>
<path d="M187.399 248.128H182.876V252.651H187.399V248.128Z" fill="#4C6ED4"/>
<path d="M210.014 248.128H205.491V252.651H210.014V248.128Z" fill="#4C6ED4"/>
<path d="M214.547 248.128H210.024V252.651H214.547V248.128Z" fill="#4C6ED4"/>
<path d="M219.066 248.128H214.543V252.651H219.066V248.128Z" fill="#4C6ED4"/>
<path d="M223.584 248.128H219.062V252.651H223.584V248.128Z" fill="#4C6ED4"/>
<path d="M250.718 248.128H246.195V252.651H250.718V248.128Z" fill="#4C6ED4"/>
<path d="M142.177 252.649H137.654V257.172H142.177V252.649Z" fill="#4C6ED4"/>
<path d="M155.747 252.649H151.225V257.172H155.747V252.649Z" fill="#4C6ED4"/>
<path d="M173.844 252.649H169.321V257.172H173.844V252.649Z" fill="#4C6ED4"/>
<path d="M178.362 252.649H173.839V257.172H178.362V252.649Z" fill="#4C6ED4"/>
<path d="M187.399 252.649H182.876V257.172H187.399V252.649Z" fill="#4C6ED4"/>
<path d="M196.451 252.649H191.928V257.172H196.451V252.649Z" fill="#4C6ED4"/>
<path d="M205.496 252.649H200.973V257.172H205.496V252.649Z" fill="#4C6ED4"/>
<path d="M210.014 252.649H205.491V257.172H210.014V252.649Z" fill="#4C6ED4"/>
<path d="M214.547 252.649H210.024V257.172H214.547V252.649Z" fill="#4C6ED4"/>
<path d="M232.636 252.649H228.113V257.172H232.636V252.649Z" fill="#4C6ED4"/>
<path d="M246.199 252.649H241.676V257.172H246.199V252.649Z" fill="#4C6ED4"/>
<path d="M142.177 257.173H137.654V261.695H142.177V257.173Z" fill="#4C6ED4"/>
<path d="M146.696 257.173H142.173V261.695H146.696V257.173Z" fill="#4C6ED4"/>
<path d="M155.747 257.173H151.225V261.695H155.747V257.173Z" fill="#4C6ED4"/>
<path d="M160.266 257.173H155.743V261.695H160.266V257.173Z" fill="#4C6ED4"/>
<path d="M164.792 257.173H160.269V261.695H164.792V257.173Z" fill="#4C6ED4"/>
<path d="M169.31 257.173H164.788V261.695H169.31V257.173Z" fill="#4C6ED4"/>
<path d="M187.399 257.173H182.876V261.695H187.399V257.173Z" fill="#4C6ED4"/>
<path d="M205.496 257.173H200.973V261.695H205.496V257.173Z" fill="#4C6ED4"/>
<path d="M210.014 257.173H205.491V261.695H210.014V257.173Z" fill="#4C6ED4"/>
<path d="M219.066 257.173H214.543V261.695H219.066V257.173Z" fill="#4C6ED4"/>
<path d="M232.636 257.173H228.113V261.695H232.636V257.173Z" fill="#4C6ED4"/>
<path d="M237.155 257.173H232.632V261.695H237.155V257.173Z" fill="#4C6ED4"/>
<path d="M241.673 257.173H237.15V261.695H241.673V257.173Z" fill="#4C6ED4"/>
<path d="M246.199 257.173H241.676V261.695H246.199V257.173Z" fill="#4C6ED4"/>
<path d="M250.718 257.173H246.195V261.695H250.718V257.173Z" fill="#4C6ED4"/>
<path d="M142.177 261.696H137.654V266.219H142.177V261.696Z" fill="#4C6ED4"/>
<path d="M151.214 261.696H146.691V266.219H151.214V261.696Z" fill="#4C6ED4"/>
<path d="M155.747 261.696H151.225V266.219H155.747V261.696Z" fill="#4C6ED4"/>
<path d="M160.266 261.696H155.743V266.219H160.266V261.696Z" fill="#4C6ED4"/>
<path d="M164.792 261.696H160.269V266.219H164.792V261.696Z" fill="#4C6ED4"/>
<path d="M178.362 261.696H173.839V266.219H178.362V261.696Z" fill="#4C6ED4"/>
<path d="M182.881 261.696H178.358V266.219H182.881V261.696Z" fill="#4C6ED4"/>
<path d="M187.399 261.696H182.876V266.219H187.399V261.696Z" fill="#4C6ED4"/>
<path d="M196.451 261.696H191.928V266.219H196.451V261.696Z" fill="#4C6ED4"/>
<path d="M228.103 261.696H223.58V266.219H228.103V261.696Z" fill="#4C6ED4"/>
<path d="M232.636 261.696H228.113V266.219H232.636V261.696Z" fill="#4C6ED4"/>
<path d="M241.673 261.696H237.15V266.219H241.673V261.696Z" fill="#4C6ED4"/>
<path d="M250.718 261.696H246.195V266.219H250.718V261.696Z" fill="#4C6ED4"/>
<path d="M142.177 266.218H137.654V270.741H142.177V266.218Z" fill="#4C6ED4"/>
<path d="M151.214 266.218H146.691V270.741H151.214V266.218Z" fill="#4C6ED4"/>
<path d="M164.792 266.218H160.269V270.741H164.792V266.218Z" fill="#4C6ED4"/>
<path d="M169.31 266.218H164.788V270.741H169.31V266.218Z" fill="#4C6ED4"/>
<path d="M173.844 266.218H169.321V270.741H173.844V266.218Z" fill="#4C6ED4"/>
<path d="M191.918 266.218H187.395V270.741H191.918V266.218Z" fill="#4C6ED4"/>
<path d="M196.451 266.218H191.928V270.741H196.451V266.218Z" fill="#4C6ED4"/>
<path d="M200.97 266.218H196.447V270.741H200.97V266.218Z" fill="#4C6ED4"/>
<path d="M210.014 266.218H205.491V270.741H210.014V266.218Z" fill="#4C6ED4"/>
<path d="M214.547 266.218H210.024V270.741H214.547V266.218Z" fill="#4C6ED4"/>
<path d="M219.066 266.218H214.543V270.741H219.066V266.218Z" fill="#4C6ED4"/>
<path d="M223.584 266.218H219.062V270.741H223.584V266.218Z" fill="#4C6ED4"/>
<path d="M228.103 266.218H223.58V270.741H228.103V266.218Z" fill="#4C6ED4"/>
<path d="M232.636 266.218H228.113V270.741H232.636V266.218Z" fill="#4C6ED4"/>
<path d="M241.673 266.218H237.15V270.741H241.673V266.218Z" fill="#4C6ED4"/>
<path d="M246.199 266.218H241.676V270.741H246.199V266.218Z" fill="#4C6ED4"/>
<path d="M178.362 270.741H173.839V275.264H178.362V270.741Z" fill="#4C6ED4"/>
<path d="M187.399 270.741H182.876V275.264H187.399V270.741Z" fill="#4C6ED4"/>
<path d="M191.918 270.741H187.395V275.264H191.918V270.741Z" fill="#4C6ED4"/>
<path d="M200.97 270.741H196.447V275.264H200.97V270.741Z" fill="#4C6ED4"/>
<path d="M214.547 270.741H210.024V275.264H214.547V270.741Z" fill="#4C6ED4"/>
<path d="M232.636 270.741H228.113V275.264H232.636V270.741Z" fill="#4C6ED4"/>
<path d="M246.199 270.741H241.676V275.264H246.199V270.741Z" fill="#4C6ED4"/>
<path d="M142.177 275.264H137.654V279.787H142.177V275.264Z" fill="#4C6ED4"/>
<path d="M146.696 275.264H142.173V279.787H146.696V275.264Z" fill="#4C6ED4"/>
<path d="M151.214 275.264H146.691V279.787H151.214V275.264Z" fill="#4C6ED4"/>
<path d="M155.747 275.264H151.225V279.787H155.747V275.264Z" fill="#4C6ED4"/>
<path d="M160.266 275.264H155.743V279.787H160.266V275.264Z" fill="#4C6ED4"/>
<path d="M164.792 275.264H160.269V279.787H164.792V275.264Z" fill="#4C6ED4"/>
<path d="M169.31 275.264H164.788V279.787H169.31V275.264Z" fill="#4C6ED4"/>
<path d="M182.881 275.264H178.358V279.787H182.881V275.264Z" fill="#4C6ED4"/>
<path d="M187.399 275.264H182.876V279.787H187.399V275.264Z" fill="#4C6ED4"/>
<path d="M196.451 275.264H191.928V279.787H196.451V275.264Z" fill="#4C6ED4"/>
<path d="M200.97 275.264H196.447V279.787H200.97V275.264Z" fill="#4C6ED4"/>
<path d="M214.547 275.264H210.024V279.787H214.547V275.264Z" fill="#4C6ED4"/>
<path d="M223.584 275.264H219.062V279.787H223.584V275.264Z" fill="#4C6ED4"/>
<path d="M232.636 275.264H228.113V279.787H232.636V275.264Z" fill="#4C6ED4"/>
<path d="M237.155 275.264H232.632V279.787H237.155V275.264Z" fill="#4C6ED4"/>
<path d="M250.718 275.264H246.195V279.787H250.718V275.264Z" fill="#4C6ED4"/>
<path d="M142.177 279.786H137.654V284.309H142.177V279.786Z" fill="#4C6ED4"/>
<path d="M169.31 279.786H164.788V284.309H169.31V279.786Z" fill="#4C6ED4"/>
<path d="M191.918 279.786H187.395V284.309H191.918V279.786Z" fill="#4C6ED4"/>
<path d="M200.97 279.786H196.447V284.309H200.97V279.786Z" fill="#4C6ED4"/>
<path d="M210.014 279.786H205.491V284.309H210.014V279.786Z" fill="#4C6ED4"/>
<path d="M214.547 279.786H210.024V284.309H214.547V279.786Z" fill="#4C6ED4"/>
<path d="M232.636 279.786H228.113V284.309H232.636V279.786Z" fill="#4C6ED4"/>
<path d="M142.177 284.309H137.654V288.831H142.177V284.309Z" fill="#4C6ED4"/>
<path d="M151.214 284.309H146.691V288.831H151.214V284.309Z" fill="#4C6ED4"/>
<path d="M155.747 284.309H151.225V288.831H155.747V284.309Z" fill="#4C6ED4"/>
<path d="M160.266 284.309H155.743V288.831H160.266V284.309Z" fill="#4C6ED4"/>
<path d="M169.31 284.309H164.788V288.831H169.31V284.309Z" fill="#4C6ED4"/>
<path d="M178.362 284.309H173.839V288.831H178.362V284.309Z" fill="#4C6ED4"/>
<path d="M182.881 284.309H178.358V288.831H182.881V284.309Z" fill="#4C6ED4"/>
<path d="M187.399 284.309H182.876V288.831H187.399V284.309Z" fill="#4C6ED4"/>
<path d="M191.918 284.309H187.395V288.831H191.918V284.309Z" fill="#4C6ED4"/>
<path d="M200.97 284.309H196.447V288.831H200.97V284.309Z" fill="#4C6ED4"/>
<path d="M210.014 284.309H205.491V288.831H210.014V284.309Z" fill="#4C6ED4"/>
<path d="M214.547 284.309H210.024V288.831H214.547V284.309Z" fill="#4C6ED4"/>
<path d="M219.066 284.309H214.543V288.831H219.066V284.309Z" fill="#4C6ED4"/>
<path d="M223.584 284.309H219.062V288.831H223.584V284.309Z" fill="#4C6ED4"/>
<path d="M228.103 284.309H223.58V288.831H228.103V284.309Z" fill="#4C6ED4"/>
<path d="M232.636 284.309H228.113V288.831H232.636V284.309Z" fill="#4C6ED4"/>
<path d="M237.155 284.309H232.632V288.831H237.155V284.309Z" fill="#4C6ED4"/>
<path d="M246.199 284.309H241.676V288.831H246.199V284.309Z" fill="#4C6ED4"/>
<path d="M250.718 284.309H246.195V288.831H250.718V284.309Z" fill="#4C6ED4"/>
<path d="M142.177 288.832H137.654V293.355H142.177V288.832Z" fill="#4C6ED4"/>
<path d="M151.214 288.832H146.691V293.355H151.214V288.832Z" fill="#4C6ED4"/>
<path d="M155.747 288.832H151.225V293.355H155.747V288.832Z" fill="#4C6ED4"/>
<path d="M160.266 288.832H155.743V293.355H160.266V288.832Z" fill="#4C6ED4"/>
<path d="M169.31 288.832H164.788V293.355H169.31V288.832Z" fill="#4C6ED4"/>
<path d="M178.362 288.832H173.839V293.355H178.362V288.832Z" fill="#4C6ED4"/>
<path d="M196.451 288.832H191.928V293.355H196.451V288.832Z" fill="#4C6ED4"/>
<path d="M200.97 288.832H196.447V293.355H200.97V288.832Z" fill="#4C6ED4"/>
<path d="M205.496 288.832H200.973V293.355H205.496V288.832Z" fill="#4C6ED4"/>
<path d="M219.066 288.832H214.543V293.355H219.066V288.832Z" fill="#4C6ED4"/>
<path d="M223.584 288.832H219.062V293.355H223.584V288.832Z" fill="#4C6ED4"/>
<path d="M228.103 288.832H223.58V293.355H228.103V288.832Z" fill="#4C6ED4"/>
<path d="M237.155 288.832H232.632V293.355H237.155V288.832Z" fill="#4C6ED4"/>
<path d="M246.199 288.832H241.676V293.355H246.199V288.832Z" fill="#4C6ED4"/>
<path d="M250.718 288.832H246.195V293.355H250.718V288.832Z" fill="#4C6ED4"/>
<path d="M142.177 293.354H137.654V297.877H142.177V293.354Z" fill="#4C6ED4"/>
<path d="M151.214 293.354H146.691V297.877H151.214V293.354Z" fill="#4C6ED4"/>
<path d="M155.747 293.354H151.225V297.877H155.747V293.354Z" fill="#4C6ED4"/>
<path d="M160.266 293.354H155.743V297.877H160.266V293.354Z" fill="#4C6ED4"/>
<path d="M169.31 293.354H164.788V297.877H169.31V293.354Z" fill="#4C6ED4"/>
<path d="M182.881 293.354H178.358V297.877H182.881V293.354Z" fill="#4C6ED4"/>
<path d="M191.918 293.354H187.395V297.877H191.918V293.354Z" fill="#4C6ED4"/>
<path d="M200.97 293.354H196.447V297.877H200.97V293.354Z" fill="#4C6ED4"/>
<path d="M210.014 293.354H205.491V297.877H210.014V293.354Z" fill="#4C6ED4"/>
<path d="M219.066 293.354H214.543V297.877H219.066V293.354Z" fill="#4C6ED4"/>
<path d="M228.103 293.354H223.58V297.877H228.103V293.354Z" fill="#4C6ED4"/>
<path d="M232.636 293.354H228.113V297.877H232.636V293.354Z" fill="#4C6ED4"/>
<path d="M241.673 293.354H237.15V297.877H241.673V293.354Z" fill="#4C6ED4"/>
<path d="M246.199 293.354H241.676V297.877H246.199V293.354Z" fill="#4C6ED4"/>
<path d="M250.718 293.354H246.195V297.877H250.718V293.354Z" fill="#4C6ED4"/>
<path d="M142.177 297.877H137.654V302.4H142.177V297.877Z" fill="#4C6ED4"/>
<path d="M169.31 297.877H164.788V302.4H169.31V297.877Z" fill="#4C6ED4"/>
<path d="M178.362 297.877H173.839V302.4H178.362V297.877Z" fill="#4C6ED4"/>
<path d="M182.881 297.877H178.358V302.4H182.881V297.877Z" fill="#4C6ED4"/>
<path d="M187.399 297.877H182.876V302.4H187.399V297.877Z" fill="#4C6ED4"/>
<path d="M191.918 297.877H187.395V302.4H191.918V297.877Z" fill="#4C6ED4"/>
<path d="M196.451 297.877H191.928V302.4H196.451V297.877Z" fill="#4C6ED4"/>
<path d="M200.97 297.877H196.447V302.4H200.97V297.877Z" fill="#4C6ED4"/>
<path d="M210.014 297.877H205.491V302.4H210.014V297.877Z" fill="#4C6ED4"/>
<path d="M223.584 297.877H219.062V302.4H223.584V297.877Z" fill="#4C6ED4"/>
<path d="M228.103 297.877H223.58V302.4H228.103V297.877Z" fill="#4C6ED4"/>
<path d="M232.636 297.877H228.113V302.4H232.636V297.877Z" fill="#4C6ED4"/>
<path d="M241.673 297.877H237.15V302.4H241.673V297.877Z" fill="#4C6ED4"/>
<path d="M246.199 297.877H241.676V302.4H246.199V297.877Z" fill="#4C6ED4"/>
<path d="M250.718 297.877H246.195V302.4H250.718V297.877Z" fill="#4C6ED4"/>
<path d="M142.177 302.399H137.654V306.922H142.177V302.399Z" fill="#4C6ED4"/>
<path d="M146.696 302.399H142.173V306.922H146.696V302.399Z" fill="#4C6ED4"/>
<path d="M151.214 302.399H146.691V306.922H151.214V302.399Z" fill="#4C6ED4"/>
<path d="M155.747 302.399H151.225V306.922H155.747V302.399Z" fill="#4C6ED4"/>
<path d="M160.266 302.399H155.743V306.922H160.266V302.399Z" fill="#4C6ED4"/>
<path d="M164.792 302.399H160.269V306.922H164.792V302.399Z" fill="#4C6ED4"/>
<path d="M169.31 302.399H164.788V306.922H169.31V302.399Z" fill="#4C6ED4"/>
<path d="M178.362 302.399H173.839V306.922H178.362V302.399Z" fill="#4C6ED4"/>
<path d="M187.399 302.399H182.876V306.922H187.399V302.399Z" fill="#4C6ED4"/>
<path d="M191.918 302.399H187.395V306.922H191.918V302.399Z" fill="#4C6ED4"/>
<path d="M196.451 302.399H191.928V306.922H196.451V302.399Z" fill="#4C6ED4"/>
<path d="M200.97 302.399H196.447V306.922H200.97V302.399Z" fill="#4C6ED4"/>
<path d="M214.547 302.399H210.024V306.922H214.547V302.399Z" fill="#4C6ED4"/>
<path d="M219.066 302.399H214.543V306.922H219.066V302.399Z" fill="#4C6ED4"/>
<path d="M237.155 302.399H232.632V306.922H237.155V302.399Z" fill="#4C6ED4"/>
<path d="M250.718 302.399H246.195V306.922H250.718V302.399Z" fill="#4C6ED4"/>
<path d="M234.754 362.976H153.628C151.052 362.976 148.964 360.888 148.964 358.312V346.612C148.964 344.036 151.052 341.948 153.628 341.948H234.754C237.33 341.948 239.418 344.036 239.418 346.612V358.312C239.418 360.888 237.33 362.976 234.754 362.976Z" fill="#4C6ED4"/>
<path d="M183.145 348.292C183.094 347.861 182.887 347.525 182.523 347.287C182.16 347.048 181.714 346.929 181.185 346.929C180.799 346.929 180.461 346.991 180.171 347.116C179.884 347.241 179.66 347.413 179.498 347.632C179.339 347.851 179.259 348.099 179.259 348.378C179.259 348.611 179.314 348.811 179.425 348.979C179.539 349.143 179.684 349.281 179.86 349.392C180.036 349.5 180.221 349.589 180.414 349.66C180.607 349.729 180.785 349.784 180.947 349.827L181.833 350.065C182.06 350.125 182.313 350.207 182.591 350.312C182.873 350.417 183.141 350.561 183.397 350.743C183.655 350.922 183.868 351.152 184.036 351.433C184.204 351.714 184.288 352.059 184.288 352.469C184.288 352.94 184.164 353.366 183.917 353.747C183.672 354.128 183.314 354.43 182.843 354.655C182.374 354.879 181.805 354.991 181.134 354.991C180.509 354.991 179.968 354.89 179.511 354.689C179.056 354.487 178.698 354.206 178.437 353.845C178.178 353.484 178.032 353.065 177.998 352.588H179.089C179.117 352.917 179.228 353.19 179.421 353.406C179.617 353.619 179.864 353.778 180.163 353.883C180.464 353.986 180.788 354.037 181.134 354.037C181.538 354.037 181.9 353.971 182.221 353.841C182.542 353.707 182.796 353.523 182.984 353.287C183.171 353.048 183.265 352.77 183.265 352.452C183.265 352.162 183.184 351.926 183.022 351.744C182.86 351.562 182.647 351.415 182.383 351.301C182.118 351.187 181.833 351.088 181.526 351.003L180.452 350.696C179.77 350.5 179.231 350.22 178.833 349.856C178.435 349.493 178.236 349.017 178.236 348.429C178.236 347.94 178.368 347.514 178.633 347.15C178.9 346.784 179.258 346.5 179.707 346.298C180.158 346.094 180.663 345.991 181.219 345.991C181.782 345.991 182.282 346.092 182.719 346.294C183.157 346.493 183.503 346.765 183.759 347.112C184.018 347.459 184.154 347.852 184.168 348.292H183.145ZM188.548 354.974C187.934 354.974 187.406 354.829 186.963 354.54C186.519 354.25 186.178 353.851 185.94 353.342C185.701 352.834 185.582 352.253 185.582 351.599C185.582 350.934 185.704 350.348 185.948 349.839C186.196 349.328 186.539 348.929 186.98 348.642C187.423 348.352 187.94 348.207 188.531 348.207C188.991 348.207 189.406 348.292 189.775 348.463C190.144 348.633 190.447 348.872 190.683 349.179C190.919 349.486 191.065 349.844 191.122 350.253H190.116C190.039 349.954 189.869 349.69 189.605 349.46C189.343 349.227 188.991 349.111 188.548 349.111C188.156 349.111 187.812 349.213 187.517 349.417C187.224 349.619 186.995 349.905 186.83 350.274C186.669 350.64 186.588 351.071 186.588 351.565C186.588 352.071 186.667 352.511 186.826 352.886C186.988 353.261 187.215 353.552 187.508 353.76C187.803 353.967 188.15 354.071 188.548 354.071C188.809 354.071 189.046 354.025 189.259 353.934C189.473 353.844 189.653 353.713 189.801 353.542C189.948 353.372 190.053 353.167 190.116 352.929H191.122C191.065 353.315 190.924 353.663 190.7 353.973C190.478 354.28 190.184 354.524 189.818 354.706C189.454 354.885 189.031 354.974 188.548 354.974ZM194.518 354.991C194.103 354.991 193.727 354.913 193.389 354.757C193.051 354.598 192.782 354.369 192.583 354.071C192.384 353.77 192.285 353.406 192.285 352.98C192.285 352.605 192.359 352.301 192.507 352.068C192.654 351.832 192.852 351.648 193.099 351.514C193.346 351.381 193.619 351.281 193.917 351.216C194.218 351.148 194.521 351.094 194.825 351.054C195.223 351.003 195.545 350.964 195.792 350.939C196.042 350.91 196.224 350.863 196.338 350.798C196.454 350.733 196.512 350.619 196.512 350.457V350.423C196.512 350.003 196.397 349.676 196.167 349.443C195.94 349.21 195.595 349.094 195.132 349.094C194.652 349.094 194.275 349.199 194.002 349.409C193.73 349.619 193.538 349.844 193.427 350.082L192.473 349.741C192.643 349.344 192.87 349.034 193.154 348.812C193.441 348.588 193.754 348.432 194.092 348.344C194.433 348.253 194.768 348.207 195.098 348.207C195.308 348.207 195.549 348.233 195.822 348.284C196.098 348.332 196.363 348.433 196.619 348.586C196.877 348.74 197.092 348.971 197.262 349.281C197.433 349.591 197.518 350.006 197.518 350.525V354.838H196.512V353.952H196.461C196.393 354.094 196.279 354.246 196.12 354.407C195.961 354.569 195.75 354.707 195.485 354.821C195.221 354.934 194.899 354.991 194.518 354.991ZM194.671 354.088C195.069 354.088 195.404 354.01 195.677 353.854C195.953 353.697 196.16 353.496 196.299 353.248C196.441 353.001 196.512 352.741 196.512 352.469V351.548C196.47 351.599 196.376 351.646 196.231 351.689C196.089 351.729 195.924 351.764 195.737 351.795C195.552 351.824 195.372 351.849 195.196 351.872C195.022 351.892 194.882 351.909 194.774 351.923C194.512 351.957 194.268 352.013 194.041 352.089C193.816 352.163 193.634 352.275 193.495 352.426C193.359 352.574 193.291 352.775 193.291 353.031C193.291 353.381 193.42 353.645 193.678 353.824C193.94 354 194.271 354.088 194.671 354.088ZM200.359 350.9V354.838H199.354V348.292H200.325V349.315H200.41C200.564 348.983 200.797 348.716 201.109 348.514C201.422 348.309 201.825 348.207 202.319 348.207C202.763 348.207 203.15 348.298 203.483 348.48C203.815 348.659 204.074 348.932 204.258 349.298C204.443 349.662 204.535 350.122 204.535 350.679V354.838H203.53V350.747C203.53 350.233 203.396 349.832 203.129 349.545C202.862 349.256 202.496 349.111 202.03 349.111C201.709 349.111 201.422 349.18 201.169 349.319C200.919 349.459 200.721 349.662 200.577 349.929C200.432 350.196 200.359 350.52 200.359 350.9Z" fill="white"/>
<path opacity="0.2" d="M250.721 127.491H137.654V145.48H250.721V127.491Z" fill="url(#paint0_linear_1_233611)"/>
<path opacity="0.2" d="M250.721 151.947H137.654V160.941H250.721V151.947Z" fill="url(#paint1_linear_1_233611)"/>
<path opacity="0.2" d="M250.721 169.007H137.654V178.001H250.721V169.007Z" fill="url(#paint2_linear_1_233611)"/>
<path opacity="0.2" d="M250.721 380.073H137.654V394.446H250.721V380.073Z" fill="url(#paint3_linear_1_233611)"/>
<path d="M50.0112 164.542C50.0112 164.542 62.0622 159.816 66.3704 175.383C70.6785 190.95 74.8482 194.147 78.8796 196.648C82.9109 199.15 83.2664 219.534 49.1677 219.491C14.8983 219.448 13.0002 204.432 21.6176 194.703C30.2351 184.973 33.1533 174.827 33.5709 170.936C33.9872 167.043 39.9072 160.372 50.0112 164.542Z" fill="#E64054"/>
<path d="M70.5277 218.173C70.4239 218.057 70.3594 217.99 70.3415 217.973C69.1401 216.836 67.5677 216.236 65.9141 216.283C64.2605 216.329 62.7239 217.017 61.5881 218.218C59.3881 220.546 59.3404 224.232 61.4807 226.611C61.5881 226.73 61.7002 226.846 61.8183 226.958L84.9947 250.89L85.015 250.908C87.166 252.873 90.6891 252.716 92.6887 250.6C94.5976 248.581 94.7861 245.348 92.9249 243.283C92.9249 243.207 92.6398 243.166 92.5658 243.092C91.8082 242.228 72.3602 220.209 70.5277 218.173Z" fill="#F4B799"/>
<path d="M92.5566 250.617C92.4933 250.672 92.3203 250.84 92.3179 250.842L92.2654 250.891C90.0666 252.802 86.6879 252.601 84.7396 250.437C82.7771 248.256 82.9691 244.811 85.0868 242.79C85.5915 242.166 91.6415 236.613 106.741 224.173L111.167 229.599C106.655 235.253 98.7044 245.966 92.5566 250.617Z" fill="#F4B799"/>
<path d="M51.9129 344.689C51.9225 344.667 51.9189 344.422 51.9189 344.422C51.3713 328.052 51.765 289.861 51.7638 289.805C51.6027 283.852 56.2974 278.88 62.2484 278.719C68.2017 278.558 73.1231 283.169 73.2842 289.121C73.2853 289.178 73.2674 289.287 73.2674 289.287C71.5506 306.767 69.6632 320.149 65.4947 346.02L65.4613 346.261C65.0019 349.497 62.2651 352.064 58.8887 352.155C55.121 352.258 51.9821 349.305 51.8795 345.536C51.8723 345.244 51.8843 344.974 51.9129 344.689Z" fill="#484867"/>
<path d="M61.7331 400.673L54.0044 400.753C53.7587 398.255 53.3268 391.655 52.8687 388.241H62.1554C61.9705 391.655 61.8249 398.083 61.7331 400.673Z" fill="#F4B799"/>
<path d="M51.8651 344.79C51.8663 344.783 51.9331 344.542 51.9498 344.425C52.4008 341.18 55.14 338.64 58.5235 338.548C62.2912 338.446 65.429 341.418 65.5316 345.186C65.5423 345.579 65.3932 346.892 65.3466 347.136C64.391 352.075 62.9355 373.041 62.1612 388.243H52.8744C52.2886 383.589 51.6575 379.514 51.3079 377.589C47.3756 355.961 51.7577 345.483 51.8651 344.79Z" fill="#484867"/>
<path d="M62.2219 385.3C62.2219 385.3 63.0595 385.472 62.8328 386.741C62.6061 388.012 63.0821 388.977 62.5572 389.47C62.0311 389.961 57.7038 391.197 52.6262 389.46C52.6262 389.46 51.8734 389.068 52.2754 387.248C52.4413 386.497 51.5751 385.659 52.4138 384.863C52.4138 384.863 57.0154 386.826 62.2219 385.3Z" fill="#6F6FA5"/>
<path d="M26.0145 343.687C26.0253 343.667 26.0348 343.421 26.0348 343.421C26.314 327.045 28.6393 288.922 28.6404 288.866C28.78 282.913 33.7193 278.184 39.6714 278.324C45.6248 278.464 50.3314 283.433 50.1918 289.386C50.1906 289.442 50.1799 289.585 50.1799 289.585H50.1811C47.5969 306.959 44.9674 320.156 39.4973 345.784L39.4591 345.985C38.8363 349.193 35.9777 351.598 32.6002 351.519C28.8325 351.431 25.8487 348.314 25.937 344.545C25.9441 344.249 25.9728 343.97 26.0145 343.687Z" fill="#484867"/>
<path d="M25.9554 343.786C25.9578 343.779 26.0366 343.542 26.058 343.426C26.6713 340.207 29.537 337.809 32.9205 337.888C36.6894 337.976 39.6732 341.103 39.5837 344.871C39.5742 345.262 39.3547 346.575 39.295 346.816C38.0793 351.748 35.5798 373.379 34.0694 388.506L24.7803 387.542C24.4319 382.827 23.9929 378.498 23.7363 376.519C20.904 354.723 25.8147 344.472 25.9554 343.786Z" fill="#484867"/>
<path d="M32.9116 400.474L25.0494 400.927C24.9324 398.484 25.0792 390.693 24.7773 387.543L34.0665 388.507C33.7277 391.903 33.1252 397.998 32.9116 400.474Z" fill="#F4B799"/>
<path d="M34.4032 385.354C34.4032 385.354 35.2276 385.574 34.9293 386.829C34.6299 388.084 35.0486 389.075 34.4951 389.537C33.9415 389.998 29.5498 390.981 24.582 388.951C24.582 388.951 23.853 388.515 24.36 386.721C24.57 385.98 23.754 385.095 24.6368 384.348C24.6368 384.348 29.1156 386.575 34.4032 385.354Z" fill="#6F6FA5"/>
<path d="M63.4 401.23C63.4 401.23 62.3644 399.536 58.1231 399.536C53.883 399.536 53.5215 401.261 53.5215 401.261V403.443H63.3654L63.4 401.23Z" fill="#F4B799"/>
<path d="M79.8928 409.649H51.3501V411.821H79.8928V409.649Z" fill="#D0D1D8"/>
<path d="M79.6679 409.649C79.6679 409.649 80.9933 404.58 71.5157 405.37L63.4638 399.718C63.4638 399.718 62.8291 399.184 62.2373 399.734C61.6455 400.284 59.5291 402.301 56.9497 401.962C54.3691 401.623 54.3047 399.978 53.3955 400.105C52.4864 400.232 50.9844 404.375 51.2385 409.648H79.6679V409.649Z" fill="#FFCE43"/>
<path d="M71.5208 405.306C80.9973 404.515 79.673 409.649 79.673 409.649H70.7227C70.7227 406.547 71.5208 405.306 71.5208 405.306Z" fill="#FFDC85"/>
<path d="M68.0663 405.991C68.1796 405.991 68.2906 405.935 68.355 405.833C68.9706 404.84 69.7914 404.364 69.7998 404.361C69.962 404.268 70.0181 404.061 69.9251 403.899C69.8332 403.737 69.6256 403.681 69.4633 403.772C69.424 403.795 68.485 404.339 67.7787 405.475C67.6809 405.635 67.7286 405.842 67.8873 405.941C67.9434 405.975 68.0054 405.991 68.0663 405.991Z" fill="#EAEBF4"/>
<path d="M66.6889 405.014C66.8022 405.014 66.9132 404.958 66.9764 404.855C67.5932 403.862 68.4128 403.387 68.4212 403.384C68.5834 403.29 68.6395 403.083 68.5477 402.921C68.4546 402.758 68.2482 402.701 68.0859 402.794C68.0466 402.817 67.1076 403.361 66.4013 404.497C66.3023 404.655 66.3512 404.864 66.5099 404.963C66.566 404.999 66.628 405.014 66.6889 405.014Z" fill="#EAEBF4"/>
<path d="M65.2995 404.036C65.4128 404.036 65.5238 403.98 65.5882 403.876C66.205 402.883 67.0247 402.409 67.033 402.404C67.1953 402.311 67.2525 402.104 67.1595 401.942C67.0664 401.78 66.8588 401.724 66.6978 401.816C66.6584 401.838 65.7194 402.382 65.0132 403.519C64.9141 403.678 64.9631 403.887 65.1217 403.986C65.1754 404.019 65.2387 404.036 65.2995 404.036Z" fill="#EAEBF4"/>
<path d="M63.9212 403.057C64.0346 403.057 64.1455 403.001 64.2088 402.899C64.8256 401.906 65.6452 401.431 65.6536 401.427C65.8158 401.333 65.8719 401.127 65.78 400.965C65.687 400.803 65.4806 400.746 65.3183 400.838C65.279 400.861 64.34 401.406 63.6337 402.541C63.5359 402.701 63.5836 402.908 63.7423 403.007C63.7996 403.041 63.8604 403.057 63.9212 403.057Z" fill="#EAEBF4"/>
<path d="M34.5372 401.231C34.5372 401.231 33.5111 399.537 29.271 399.537C25.0297 399.537 24.6777 401.262 24.6777 401.262V403.444H34.5049L34.5372 401.231Z" fill="#F4B799"/>
<path d="M41.4248 409.65H23.4312V411.821H41.4248V409.65Z" fill="#D0D1D8"/>
<path d="M41.1155 409.65C41.1155 409.65 41.9148 406.154 38.3714 405.359L34.0406 399.677C34.0406 399.677 32.4312 398.179 29.9604 399.699C29.3901 400.049 28.0825 402.285 26.4397 401.944C24.7968 401.604 25.3146 399.93 24.736 400.058C24.1562 400.185 23.2017 403.755 23.3628 409.65H41.1155Z" fill="#FFCE43"/>
<path d="M38.3662 405.278C41.9096 406.074 41.1102 409.651 41.1102 409.651H31.7603C31.9941 404.376 38.3662 405.278 38.3662 405.278Z" fill="#FFDC85"/>
<path d="M33.5412 404.983C33.5877 404.983 33.6355 404.973 33.6796 404.953C35.814 404.001 37.2289 404.426 37.2421 404.429C37.421 404.485 37.6131 404.386 37.6692 404.208C37.7264 404.029 37.6286 403.839 37.4509 403.78C37.384 403.759 35.7937 403.265 33.4016 404.33C33.2298 404.406 33.1523 404.608 33.2298 404.78C33.2859 404.908 33.4112 404.983 33.5412 404.983Z" fill="#EAEBF4"/>
<path d="M32.6999 403.79C32.7464 403.79 32.793 403.781 32.8383 403.761C34.9727 402.81 36.3876 403.233 36.4008 403.237C36.5797 403.293 36.7706 403.194 36.8279 403.015C36.8851 402.836 36.7873 402.645 36.6095 402.588C36.5427 402.566 34.9524 402.071 32.5603 403.138C32.3885 403.214 32.3109 403.416 32.3873 403.588C32.4446 403.715 32.5686 403.79 32.6999 403.79Z" fill="#EAEBF4"/>
<path d="M32.0341 402.821C32.083 402.821 32.1331 402.81 32.1808 402.787C34.3093 401.768 35.7123 402.162 35.7266 402.167C35.9068 402.219 36.0965 402.117 36.149 401.935C36.2026 401.755 36.0988 401.566 35.9187 401.513C35.8519 401.493 34.2484 401.042 31.8862 402.173C31.7168 402.254 31.644 402.458 31.7251 402.627C31.7848 402.749 31.9064 402.821 32.0341 402.821Z" fill="#EAEBF4"/>
<path d="M31.1805 401.661C31.2318 401.661 31.2843 401.649 31.3332 401.624C33.4437 400.568 34.8539 400.935 34.867 400.94C35.0484 400.99 35.2357 400.883 35.2858 400.702C35.3347 400.52 35.2297 400.332 35.0472 400.282C34.9792 400.264 33.3697 399.841 31.0277 401.014C30.8595 401.099 30.7915 401.303 30.875 401.471C30.9347 401.592 31.0552 401.661 31.1805 401.661Z" fill="#EAEBF4"/>
<path d="M28.5449 288.689C28.5437 288.307 28.6201 287.547 28.663 287.265C28.7048 286.915 28.7621 286.57 28.836 286.231C31.0778 273.918 37.5418 263.228 37.5418 263.228L64.8568 263.386C64.8568 263.386 72.138 271.772 73.2953 286.111C73.3824 286.667 73.2953 289.122 73.2953 289.122C73.1211 294.617 69.0265 298.852 63.752 299.409L39.1345 299.431C33.3112 299.229 28.6058 294.547 28.5449 288.689Z" fill="#484867"/>
<g opacity="0.3">
<path d="M50.6668 298.997C50.7861 298.997 50.9006 298.928 50.9507 298.811C50.9639 298.78 52.3239 295.621 53.9668 288.917C55.6156 282.187 54.0419 267.142 53.9739 266.505C53.956 266.335 53.7997 266.211 53.6327 266.23C53.4621 266.248 53.3392 266.4 53.3571 266.571C53.3738 266.726 54.9868 282.144 53.3643 288.769C51.737 295.412 50.396 298.532 50.3816 298.563C50.3136 298.72 50.3852 298.903 50.5427 298.971C50.5833 298.989 50.625 298.997 50.6668 298.997Z" fill="black"/>
<path d="M53.4658 293.332C53.4813 293.332 53.4968 293.331 53.5111 293.329C56.6202 292.861 57.725 289.147 57.7715 288.989C59.8092 282.716 57.7906 266.812 57.7035 266.138C57.6808 265.968 57.5281 265.847 57.3563 265.869C57.1857 265.891 57.0664 266.047 57.0879 266.216C57.1094 266.38 59.1757 282.655 57.1785 288.807C57.1654 288.851 56.1322 292.306 53.4204 292.714C53.251 292.739 53.1341 292.898 53.1591 293.067C53.183 293.221 53.3154 293.332 53.4658 293.332Z" fill="black"/>
<path d="M52.5175 271.276C61.5036 271.276 66.8402 268.508 66.9189 268.467C67.0704 268.386 67.1265 268.198 67.0466 268.047C66.9666 267.896 66.7781 267.839 66.6266 267.919C66.5097 267.981 54.745 274.063 36.6236 267.899C36.4614 267.844 36.2848 267.931 36.2299 268.093C36.1738 268.255 36.2609 268.432 36.4232 268.487C42.5722 270.578 48.0054 271.276 52.5175 271.276Z" fill="black"/>
<path d="M55.9037 269.63C56.6107 269.63 57.1838 269.056 57.1838 268.349C57.1838 267.642 56.6107 267.069 55.9037 267.069C55.1967 267.069 54.6235 267.642 54.6235 268.349C54.6235 269.056 55.1967 269.63 55.9037 269.63Z" fill="black"/>
<path d="M43.1197 270.987C43.1197 270.987 43.0553 279.836 33.9355 279.598C33.9355 279.598 35.5187 273.002 37.5362 269.628C37.5362 269.628 41.4124 270.91 43.1197 270.987Z" fill="black"/>
<path d="M66.0259 269.589C66.0259 269.589 67.0078 274.553 70.9377 275.793C70.9377 275.793 69.3605 270.872 68.0159 268.602C68.0159 268.602 67.1116 269.125 66.0259 269.589Z" fill="black"/>
<path d="M34.26 281.806C37.5386 281.808 40.1669 280.882 42.0817 279.049C45.3972 275.879 45.371 271.173 45.3674 270.975C45.365 270.805 45.2266 270.66 45.0572 270.66H45.0524C44.8818 270.66 44.7446 270.811 44.747 270.983C44.747 271.028 44.7685 275.62 41.6486 278.601C39.6562 280.504 36.8156 281.365 33.209 281.153C33.036 281.142 32.8916 281.274 32.8809 281.445C32.8713 281.615 33.0014 281.763 33.172 281.774C33.543 281.796 33.9057 281.806 34.26 281.806Z" fill="black"/>
<path d="M71.3116 277.734C71.45 277.734 71.5753 277.641 71.6123 277.501C71.654 277.335 71.555 277.166 71.3892 277.124C65.7615 275.681 64.9192 269.956 64.9109 269.898C64.8882 269.729 64.7331 269.609 64.5613 269.632C64.3907 269.655 64.2726 269.811 64.2953 269.981C64.3036 270.044 65.208 276.178 71.2353 277.724C71.2603 277.73 71.2866 277.734 71.3116 277.734Z" fill="black"/>
<path d="M49.126 298.412C49.1833 298.412 49.2417 298.397 49.293 298.363C49.4374 298.272 49.4791 298.079 49.3873 297.935C49.3598 297.891 46.5442 293.543 42.4329 290.631C42.2933 290.532 42.1001 290.566 41.9999 290.705C41.9008 290.845 41.9342 291.039 42.0738 291.138C46.0849 293.98 48.8373 298.229 48.8647 298.272C48.9244 298.362 49.0246 298.412 49.126 298.412Z" fill="black"/>
<path d="M47.2959 297.788C47.3853 297.788 47.4748 297.748 47.5357 297.673C47.6442 297.541 47.6251 297.345 47.4915 297.236C47.4378 297.192 42.0762 292.863 35.2508 291.622C35.0825 291.592 34.9203 291.703 34.8905 291.872C34.8594 292.041 34.9704 292.202 35.1398 292.233C41.809 293.445 47.0465 297.674 47.099 297.717C47.1575 297.764 47.2267 297.788 47.2959 297.788Z" fill="black"/>
<path d="M47.6095 298.999C47.755 298.999 47.8851 298.896 47.9137 298.748C47.9471 298.58 47.8373 298.416 47.6691 298.384C47.3947 298.329 40.8973 297.067 37.4613 297.8C37.2943 297.835 37.1869 298 37.2227 298.168C37.2585 298.336 37.4243 298.443 37.5914 298.407C40.9021 297.7 47.483 298.979 47.5498 298.993C47.5701 298.997 47.5904 298.999 47.6095 298.999Z" fill="black"/>
<path d="M54.4546 298.414C54.5572 298.414 54.6562 298.363 54.7159 298.272C54.7433 298.229 57.4957 293.98 61.5067 291.138C61.6463 291.039 61.6797 290.846 61.5807 290.705C61.4805 290.566 61.2884 290.532 61.1476 290.631C57.0352 293.545 54.2207 297.892 54.1933 297.935C54.1014 298.079 54.1432 298.272 54.2864 298.363C54.3388 298.398 54.3973 298.414 54.4546 298.414Z" fill="black"/>
<path d="M56.2699 297.788C56.3391 297.788 56.4083 297.766 56.4656 297.718C56.518 297.675 61.7615 293.445 68.4248 292.234C68.593 292.203 68.7051 292.042 68.6741 291.873C68.6443 291.704 68.482 291.593 68.3138 291.623C61.4883 292.864 56.1255 297.194 56.073 297.237C55.9406 297.346 55.9203 297.542 56.0289 297.674C56.0909 297.749 56.1804 297.788 56.2699 297.788Z" fill="black"/>
<path d="M55.9745 299C55.9948 299 56.0139 298.997 56.0341 298.994C56.101 298.98 62.6831 297.7 65.9914 298.408C66.1584 298.444 66.3243 298.337 66.3601 298.169C66.3958 298.002 66.2897 297.836 66.1214 297.8C62.6854 297.068 56.1892 298.33 55.9137 298.385C55.7454 298.418 55.6357 298.581 55.6691 298.749C55.6989 298.897 55.8289 299 55.9745 299Z" fill="black"/>
</g>
<path d="M53.7828 210.423L53.8126 218.102L44.4173 218.139L44.3779 208.149C48.284 210.703 52.1781 210.63 53.7828 210.423Z" fill="#F4B799"/>
<path d="M44.3806 208.149L44.3496 200.454L53.7449 200.417L53.7843 210.422C52.1808 210.63 48.2867 210.702 44.3806 208.149Z" fill="#F4B799"/>
<path opacity="0.3" d="M44.3157 208.149L44.2847 200.454L53.68 200.417L53.7194 210.422C52.1159 210.63 48.2206 210.702 44.3157 208.149Z" fill="black"/>
<path d="M50.4404 216.628C47.0581 216.707 44.3379 214.673 43.4849 213.655C45.3067 213.329 48.0411 212.691 49.6291 212.674C51.1336 212.658 53.3646 213.163 54.9132 213.435C54.8487 214.179 54.0482 216.545 50.4404 216.628Z" fill="#F4B799"/>
<path d="M25.9097 220.415C25.9097 216.769 31.0517 216.033 31.0517 216.033C33.7278 215.528 38.0657 214.884 40.9052 214.199C40.9052 214.199 42.245 213.9 43.9833 213.588C44.8363 214.606 47.0172 216.306 50.3995 216.227C54.0074 216.144 54.5168 214.166 54.5812 213.422C56.2252 213.712 57.4851 214.015 57.4851 214.015C62.5341 215.077 66.5535 216.033 66.5535 216.033C66.5535 216.033 71.8507 216.77 71.8507 220.415C71.8507 222.062 68.4231 224.465 66.8721 225.321V225.724C71.8364 229.605 72.4711 232.514 72.4711 235.827C72.4711 242.752 66.6215 244.449 66.6215 244.449L64.888 263.384C54.0551 269.052 37.5623 263.227 37.5623 263.227C35.7679 251.005 32.9594 243.151 31.6614 235.338C31.1197 232.076 30.9038 228.439 30.8477 225.21C29.1739 224.272 25.9097 221.996 25.9097 220.415Z" fill="#FFCE43"/>
<path d="M70.9392 272.209C70.9392 272.209 71.9592 275.128 72.384 277.738C72.384 277.738 57.9182 284.437 30.5649 277.742L32.3748 272.209H70.9392Z" fill="#FFCE43"/>
<path d="M50.9753 218.787C45.1902 218.922 41.7411 216.248 40.5659 214.277C40.6769 214.251 40.789 214.226 40.8964 214.201C40.8964 214.201 42.2362 213.902 43.9745 213.59C44.8275 214.608 47.0084 216.308 50.3907 216.229C53.9985 216.146 54.508 214.168 54.5724 213.424C56.0816 213.69 57.2628 213.967 57.4477 214.01C57.091 215.68 55.7834 218.675 50.9753 218.787Z" fill="white"/>
<path opacity="0.1" d="M70.7895 238.784C70.7895 238.784 69.5619 239.823 66.8906 240.053C61.5004 240.518 52.6586 241.488 44.8632 240.236C41.5942 239.711 39.189 238.058 36.7266 236.128C36.7266 236.128 38.1952 244.509 48.4412 244.341C58.6884 244.17 70.1477 245.43 70.7895 238.784Z" fill="black"/>
<path d="M24.8003 283.885C24.8003 283.885 28.8209 286.773 29.1812 288.229C29.5427 289.686 30.6487 293.118 30.6535 293.825C30.6678 295.575 31.5196 297.858 31.0543 298.018C30.5891 298.178 29.6752 298.599 28.5859 295.2L28.908 299.161C28.908 299.161 29.1097 300.591 27.981 300.723C26.7713 300.865 26.6376 299.734 26.6376 299.734L26.1342 298.294C26.1342 298.294 25.9182 299.043 24.9841 298.999C23.9986 298.951 23.6872 297.254 23.6872 297.254C23.6872 297.254 23.2828 298.052 22.3987 297.874C21.5147 297.696 21.2844 296.957 21.2844 296.957C21.2844 296.957 20.7487 297.295 20.3144 297.125C19.6201 296.853 19.1703 295.273 19.1703 295.273C19.1703 295.273 18.3662 290.744 19.3302 285.444C19.3302 285.444 20.5984 280.27 24.8003 283.885Z" fill="#F4B799"/>
<path opacity="0.3" d="M20.3151 297.125C20.7494 297.296 21.2851 296.957 21.2851 296.957C21.2851 296.957 21.5154 297.695 22.3994 297.874C23.2835 298.052 23.6879 297.254 23.6879 297.254C23.6879 297.254 23.9993 298.953 24.9848 298.999C25.9177 299.044 26.1349 298.294 26.1349 298.294L26.6383 299.734C26.6383 299.734 26.7779 300.857 27.9328 300.738C29.0638 300.621 28.9087 299.162 28.9087 299.162L28.5938 295.278C28.5902 295.257 28.0927 291.953 27.8779 291.834L28.2227 295.762C28.2227 295.762 27.6178 297.465 26.1862 296.825C26.1862 296.825 24.986 297.778 23.7643 296.674C23.7643 296.674 22.0928 297.345 21.2672 296.209C21.2672 296.209 19.7842 296.807 19.1436 295.108C19.1603 295.215 19.1698 295.274 19.1698 295.274C19.1698 295.274 19.6208 296.853 20.3151 297.125Z" fill="black"/>
<path d="M16.6518 256.78C16.6542 256.696 16.6434 256.459 16.6434 256.455L16.6422 256.385C16.6923 253.471 19.1023 251.096 22.0134 251.096C24.9471 251.096 27.3785 253.536 27.4644 256.461C27.5909 257.253 27.2783 265.599 26.4241 285.145L19.1906 286.303C17.9928 279.167 15.9968 264.461 16.6518 256.78Z" fill="#F4B799"/>
<path d="M21.8403 261.809C24.3386 261.809 26.5362 260.051 27.0802 257.612C29.3064 250.157 36.5185 225.99 36.6091 225.533C37.2725 222.184 35.0892 218.921 31.7391 218.256C31.3406 218.178 30.9326 218.138 30.5293 218.138C27.592 218.138 25.046 220.227 24.4638 223.108L16.5551 255.47L16.5503 255.496C16.0325 258.363 17.9354 261.148 20.7916 261.715C21.1376 261.784 21.4895 261.809 21.8403 261.809Z" fill="#F4B799"/>
<path d="M34.3255 247.257C34.3255 247.257 34.6022 267.432 30.5649 277.742L71.2732 273.236C71.2732 273.236 66.4879 260.133 66.359 247.211L34.3255 247.257Z" fill="#FFCE43"/>
<path d="M31.4527 215.957C31.4527 215.957 19.9648 216.63 19.5508 236.358L34.9949 238.385C34.9949 238.385 44.352 220.768 31.4527 215.957Z" fill="#FFCE43"/>
<path d="M61.7981 218.699C61.7981 218.699 56.0093 228.645 72.223 239.894L81.3141 229.446C81.3141 229.446 72.9364 210.606 61.7981 218.699Z" fill="#FFCE43"/>
<path d="M39.1885 188.261C39.0047 190.016 37.4323 191.289 35.6773 191.106C33.9223 190.922 32.6493 189.35 32.8331 187.595C33.0168 185.84 34.5892 184.567 36.3442 184.75C38.0992 184.934 39.3722 186.506 39.1885 188.261Z" fill="#F4B799"/>
<path d="M65.8579 188.261C65.6742 190.016 64.1017 191.289 62.3467 191.106C60.5918 190.922 59.3188 189.35 59.5025 187.595C59.6862 185.84 61.2587 184.567 63.0137 184.75C64.7686 184.934 66.0428 186.506 65.8579 188.261Z" fill="#F4B799"/>
<path d="M58.0099 173.352C51.3001 165.892 38.8804 169.342 36.7544 179.149C35.8011 183.548 35.2165 189.022 36.1996 194.483C38.4151 206.791 46.3442 211.813 54.9771 207.523C63.6101 203.234 64.0002 185.663 60.9341 178.052C60.2314 176.309 59.2375 174.718 58.0099 173.352Z" fill="#F4B799"/>
<path d="M105.389 226.039C105.389 226.039 105.185 223.452 105.895 221.491C106.162 220.751 106.131 218.03 105.391 216.547C104.684 215.127 104.071 214.822 104.437 214.48C105.4 213.583 106.886 213.425 109.049 218.773L112.472 216.644C112.472 216.644 113.696 215.921 114.444 216.763C115.126 217.53 114.429 218.236 114.429 218.236C114.429 218.236 115.56 217.882 116.105 218.63C116.681 219.421 116.037 220.325 116.037 220.325C116.037 220.325 116.604 220.286 117.08 221.131C117.47 221.825 117.063 222.561 117.063 222.561C117.063 222.561 117.42 222.96 117.558 223.401C117.78 224.107 117.315 225.044 117.315 225.044C117.315 225.044 115.03 227.893 110.337 230.441C110.339 230.439 104.469 232.239 105.389 226.039Z" fill="#F4B799"/>
<path opacity="0.3" d="M109.084 219.008L112.505 216.965C112.505 216.965 110.567 218.634 110.001 219.274C109.433 219.916 110.008 220.644 110.008 220.644C110.008 220.644 110.023 220.673 110.051 220.722L110.047 220.711C110.443 221.231 111.298 220.677 111.298 220.677L114.429 218.233C114.429 218.233 112.216 220.12 111.392 220.832C110.567 221.545 110.887 222.128 110.887 222.128L110.881 222.127C110.952 222.239 111.024 222.356 111.102 222.479C111.577 223.071 112.41 222.655 112.41 222.655L116.039 220.324C116.039 220.324 113.35 222.317 112.55 222.826C111.755 223.332 112.197 224.105 112.202 224.113C112.217 224.135 112.233 224.156 112.248 224.179C112.703 224.82 113.431 224.591 113.431 224.591L117.065 222.56C117.065 222.56 114.101 224.395 113.589 224.741C113.079 225.087 113.316 225.644 113.316 225.644C113.425 225.788 113.507 225.901 113.551 225.958C114.119 226.709 117.163 224.836 117.163 224.836C116.793 225.476 114.649 227.03 114.649 227.03C111.9 224.687 109.287 225.636 109.287 225.636C111.051 222.666 109.084 219.008 109.084 219.008Z" fill="black"/>
<path d="M63.3805 183.005C63.3805 183.005 49.6567 176.061 49.0029 168.259C49.0029 168.259 64.0462 164.834 63.3805 183.005Z" fill="#E64054"/>
<path d="M52.1545 169.116C52.1545 169.116 50.761 175.986 43.8067 178.249C43.8067 178.249 44.5201 176.47 44.5201 174.648C44.5201 174.648 41.9515 180.604 35.3873 180.817C35.3873 180.817 34.3171 165.191 52.1545 169.116Z" fill="#E64054"/>
<path opacity="0.3" d="M100.389 411.04C100.389 414.319 77.9162 416.976 50.1943 416.976C22.4724 416.976 0 414.319 0 411.04C0 407.762 22.4724 405.105 50.1943 405.105C77.9162 405.105 100.389 407.762 100.389 411.04Z" fill="#DADAE0"/>
<path opacity="0.3" d="M382.597 411.525C382.597 414.803 360.124 417.46 332.402 417.46C304.68 417.46 282.208 414.803 282.208 411.525C282.208 408.246 304.68 405.589 332.402 405.589C360.124 405.589 382.597 408.246 382.597 411.525Z" fill="#DADAE0"/>
<path d="M330.025 391.446H321.203V401.484H330.025V391.446Z" fill="#FAA284"/>
<path d="M331.513 349.01C331.416 344.447 327.765 341.413 323.916 341.413C319.881 341.413 316.319 344.701 316.319 349.01C316.252 351.127 320.846 395.894 320.846 395.894C325.28 395.894 325.16 395.556 330.484 395.592L331.513 349.01Z" fill="#484867"/>
<path d="M330.492 291.821C330.492 287.253 326.788 283.55 322.22 283.55C317.652 283.55 313.949 287.253 313.949 291.821C313.949 291.937 316.213 346.909 316.316 349.01C316.411 353.821 320.322 356.608 323.913 356.608C327.844 356.608 331.678 353.358 331.505 348.735L330.492 291.821Z" fill="#484867"/>
<path d="M319.62 400.57C319.62 400.57 320.863 398.69 325.653 398.69C330.444 398.69 330.926 400.672 330.926 400.672V403.004H319.657L319.62 400.57Z" fill="#FAA284"/>
<path d="M333.358 410.307H301.113V412.74H333.358V410.307Z" fill="#DBDBDB"/>
<path d="M301.242 410.307C301.242 410.307 299.745 404.501 310.451 405.394L319.548 398.969C319.548 398.969 320.265 398.346 320.935 398.968C321.604 399.589 323.994 401.859 326.909 401.477C329.825 401.095 329.897 399.308 330.924 399.452C331.951 399.595 333.648 404.224 333.361 410.308H301.242V410.307Z" fill="#FFCE43"/>
<path d="M310.451 405.4C299.745 404.507 301.242 410.307 301.242 410.307H311.353C311.353 406.656 310.451 405.4 310.451 405.4Z" fill="#FFDC85"/>
<path d="M315.891 404.913C315.764 404.913 315.638 404.849 315.566 404.732C314.869 403.612 313.942 403.073 313.934 403.069C313.751 402.964 313.687 402.73 313.79 402.547C313.895 402.364 314.128 402.299 314.312 402.404C314.356 402.429 315.418 403.044 316.215 404.329C316.327 404.507 316.271 404.744 316.092 404.856C316.03 404.895 315.961 404.913 315.891 404.913Z" fill="#E8E8E8"/>
<path d="M317.455 403.808C317.328 403.808 317.202 403.744 317.131 403.628C316.434 402.506 315.507 401.969 315.499 401.964C315.315 401.859 315.252 401.627 315.356 401.443C315.461 401.259 315.694 401.196 315.877 401.3C315.922 401.325 316.983 401.941 317.78 403.224C317.891 403.403 317.836 403.639 317.657 403.752C317.594 403.79 317.525 403.808 317.455 403.808Z" fill="#E8E8E8"/>
<path d="M319.021 402.703C318.892 402.703 318.768 402.639 318.695 402.523C317.999 401.402 317.073 400.865 317.063 400.86C316.88 400.755 316.816 400.522 316.921 400.339C317.026 400.155 317.26 400.092 317.443 400.195C317.488 400.222 318.547 400.836 319.346 402.12C319.457 402.299 319.402 402.535 319.223 402.646C319.159 402.685 319.09 402.703 319.021 402.703Z" fill="#E8E8E8"/>
<path d="M356.356 391.232L347.538 391.485L347.826 401.519L356.644 401.266L356.356 391.232Z" fill="#FAA284"/>
<path d="M356.636 348.765C356.407 344.207 352.671 341.279 348.824 341.389C344.79 341.504 341.325 344.893 341.448 349.201C341.442 351.319 347.53 395.83 347.53 395.83C351.728 395.438 351.662 395.429 356.64 394.925L356.636 348.765Z" fill="#484867"/>
<path d="M353.979 291.63C353.848 287.063 350.041 283.469 345.474 283.599C340.908 283.73 337.312 287.538 337.443 292.104C337.447 292.22 341.286 347.105 341.45 349.202C341.682 354.008 345.672 356.682 349.262 356.579C353.191 356.466 356.931 353.109 356.625 348.491L353.979 291.63Z" fill="#484867"/>
<path d="M345.79 400.57C345.79 400.57 347.033 398.689 351.823 398.689C356.613 398.689 357.096 400.671 357.096 400.671V403.004H345.827L345.79 400.57Z" fill="#FAA284"/>
<path d="M359.826 410.306H330.014V412.74H359.826V410.306Z" fill="#E8E8E8"/>
<path d="M333.356 410.305C333.356 410.305 332.794 405.384 338.987 405.254L346.483 398.668C346.483 398.668 347.836 397.642 349.61 398.66C350.931 399.417 351.123 401.615 353.525 401.224C355.927 400.832 355.986 399.026 356.833 399.173C357.68 399.319 360.055 403.611 359.819 410.304H333.356V410.305Z" fill="#FFCE43"/>
<path d="M335.659 405.284C329.465 405.414 330.027 410.306 330.027 410.306H340.417C340.428 405.438 335.659 405.284 335.659 405.284Z" fill="#FFDC85"/>
<path d="M345.284 404.668C345.18 404.668 345.076 404.626 344.999 404.544C343.629 403.085 341.711 403.046 341.691 403.046C341.476 403.044 341.301 402.932 341.304 402.716C341.306 402.501 341.482 402.394 341.695 402.394H341.699C341.79 402.394 343.971 402.374 345.568 404.074C345.716 404.231 345.707 404.447 345.551 404.594C345.477 404.665 345.38 404.668 345.284 404.668Z" fill="white"/>
<path d="M346.854 403.298C346.75 403.298 346.645 403.256 346.569 403.174C345.199 401.715 343.281 401.678 343.263 401.676C343.047 401.674 342.874 401.486 342.875 401.271C342.877 401.056 343.053 400.872 343.266 400.872H343.271C343.363 400.872 345.545 400.928 347.14 402.627C347.288 402.785 347.281 403.038 347.123 403.186C347.046 403.257 346.95 403.298 346.854 403.298Z" fill="white"/>
<path d="M348.418 401.929C348.315 401.929 348.211 401.888 348.133 401.805C346.764 400.346 344.846 400.308 344.827 400.308C344.611 400.306 344.437 400.194 344.439 399.978C344.442 399.763 344.616 399.656 344.831 399.656H344.834C344.926 399.656 347.108 399.634 348.703 401.334C348.851 401.492 348.844 401.706 348.687 401.854C348.612 401.927 348.515 401.929 348.418 401.929Z" fill="white"/>
<path d="M354.052 278.89H313.884L314.041 293.091C314.15 298.255 318.353 302.43 323.497 302.612L344.582 302.762C349.832 302.618 354.052 298.243 354.052 292.959C354.052 292.668 354.052 278.89 354.052 278.89Z" fill="#484867"/>
<path d="M357.793 395.279C357.49 395.279 345.786 395.894 345.786 395.894L344.964 389.453H358.308L357.793 395.279Z" fill="#6F6FA5"/>
<path d="M331.77 395.848C331.467 395.848 319.763 396.464 319.763 396.464L318.941 390.022H332.285L331.77 395.848Z" fill="#6F6FA5"/>
<g opacity="0.3">
<path d="M335.293 302.278C335.193 302.278 335.099 302.22 335.056 302.123C335.045 302.097 333.911 299.462 332.54 293.871C331.164 288.258 332.478 275.709 332.534 275.178C332.549 275.036 332.679 274.932 332.818 274.948C332.96 274.963 333.063 275.091 333.048 275.233C333.034 275.362 331.688 288.223 333.042 293.748C334.4 299.289 335.519 301.891 335.53 301.917C335.587 302.048 335.526 302.201 335.395 302.257C335.362 302.271 335.328 302.278 335.293 302.278Z" fill="black"/>
<path d="M332.962 297.551C332.95 297.551 332.936 297.549 332.924 297.547C330.33 297.157 329.409 294.06 329.371 293.927C327.672 288.695 329.356 275.43 329.427 274.867C329.445 274.725 329.574 274.625 329.717 274.644C329.859 274.662 329.959 274.792 329.94 274.934C329.922 275.07 328.198 288.646 329.865 293.776C329.876 293.813 330.737 296.695 333 297.035C333.142 297.057 333.239 297.188 333.218 297.329C333.199 297.459 333.088 297.551 332.962 297.551Z" fill="black"/>
<path d="M333.749 279.156C326.255 279.156 321.803 276.848 321.738 276.813C321.611 276.746 321.564 276.589 321.632 276.464C321.698 276.338 321.856 276.291 321.982 276.357C322.079 276.41 331.893 281.483 347.007 276.341C347.141 276.295 347.289 276.367 347.335 276.503C347.381 276.638 347.309 276.786 347.174 276.831C342.045 278.574 337.514 279.156 333.749 279.156Z" fill="black"/>
<path d="M330.928 277.78C331.517 277.78 331.995 277.302 331.995 276.713C331.995 276.123 331.517 275.645 330.928 275.645C330.338 275.645 329.86 276.123 329.86 276.713C329.86 277.302 330.338 277.78 330.928 277.78Z" fill="black"/>
<path d="M341.593 278.914C341.593 278.914 341.647 286.295 349.254 286.098C349.254 286.098 347.933 280.595 346.251 277.781C346.251 277.781 343.017 278.851 341.593 278.914Z" fill="black"/>
<path d="M322.479 277.75C322.479 277.75 321.659 281.89 318.382 282.924C318.382 282.924 319.698 278.819 320.819 276.926C320.819 276.926 321.573 277.362 322.479 277.75Z" fill="black"/>
<path d="M348.972 287.937C346.237 287.938 344.046 287.165 342.449 285.638C339.683 282.994 339.706 279.069 339.708 278.903C339.711 278.761 339.826 278.641 339.967 278.641H339.971C340.114 278.641 340.227 278.767 340.226 278.911C340.226 278.949 340.208 282.778 342.81 285.264C344.472 286.851 346.842 287.569 349.849 287.392C349.994 287.384 350.114 287.493 350.122 287.635C350.131 287.778 350.022 287.901 349.88 287.91C349.57 287.929 349.268 287.937 348.972 287.937Z" fill="black"/>
<path d="M318.077 284.542C317.961 284.542 317.856 284.465 317.826 284.348C317.792 284.209 317.874 284.068 318.012 284.033C322.706 282.829 323.41 278.053 323.416 278.005C323.435 277.863 323.564 277.764 323.707 277.785C323.849 277.804 323.948 277.934 323.929 278.076C323.922 278.127 323.168 283.244 318.14 284.535C318.12 284.54 318.098 284.542 318.077 284.542Z" fill="black"/>
<path d="M336.559 301.789C336.511 301.789 336.462 301.776 336.42 301.748C336.299 301.671 336.264 301.511 336.341 301.391C336.365 301.354 338.711 297.729 342.141 295.298C342.258 295.216 342.419 295.244 342.502 295.359C342.584 295.476 342.557 295.637 342.44 295.72C339.094 298.089 336.798 301.634 336.775 301.669C336.727 301.747 336.644 301.789 336.559 301.789Z" fill="black"/>
<path d="M338.091 301.268C338.016 301.268 337.942 301.236 337.891 301.173C337.8 301.063 337.817 300.9 337.926 300.809C337.971 300.772 342.443 297.161 348.135 296.126C348.275 296.101 348.411 296.194 348.436 296.335C348.462 296.476 348.369 296.611 348.228 296.636C342.665 297.648 338.297 301.175 338.253 301.21C338.206 301.248 338.148 301.268 338.091 301.268Z" fill="black"/>
<path d="M337.827 302.279C337.706 302.279 337.598 302.193 337.574 302.07C337.546 301.929 337.637 301.793 337.778 301.766C338.007 301.72 343.426 300.667 346.291 301.279C346.431 301.309 346.52 301.446 346.491 301.585C346.461 301.725 346.322 301.813 346.183 301.785C343.421 301.195 337.932 302.263 337.877 302.274C337.86 302.276 337.843 302.279 337.827 302.279Z" fill="black"/>
<path d="M332.149 301.79C332.064 301.79 331.981 301.748 331.931 301.67C331.908 301.634 329.613 298.09 326.267 295.72C326.15 295.638 326.123 295.476 326.205 295.36C326.289 295.243 326.45 295.216 326.565 295.299C329.995 297.73 332.343 301.355 332.366 301.392C332.444 301.513 332.408 301.673 332.289 301.749C332.246 301.776 332.197 301.79 332.149 301.79Z" fill="black"/>
<path d="M330.619 301.269C330.561 301.269 330.503 301.25 330.455 301.211C330.412 301.175 326.039 297.646 320.48 296.637C320.339 296.611 320.246 296.476 320.272 296.336C320.298 296.195 320.432 296.102 320.573 296.127C326.266 297.163 330.739 300.774 330.782 300.81C330.893 300.901 330.91 301.063 330.819 301.174C330.769 301.236 330.694 301.269 330.619 301.269Z" fill="black"/>
<path d="M330.875 302.279C330.859 302.279 330.842 302.277 330.825 302.274C330.77 302.263 325.28 301.195 322.519 301.785C322.38 301.815 322.241 301.725 322.211 301.585C322.182 301.446 322.27 301.309 322.411 301.279C325.276 300.668 330.695 301.721 330.924 301.766C331.065 301.793 331.156 301.929 331.128 302.07C331.104 302.193 330.996 302.279 330.875 302.279Z" fill="black"/>
</g>
<path d="M347.581 165.146C349.411 166.533 350.573 168.665 351.157 170.886C351.938 173.858 351.762 177.026 351.016 180.007C350.27 182.989 348.975 185.804 347.526 188.515C347.257 189.02 346.962 189.542 346.481 189.851C346.051 190.127 345.524 190.197 345.017 190.26C338.926 191.018 332.752 191.777 326.667 190.963C325.263 190.774 323.783 190.461 322.766 189.475C321.449 188.2 321.267 186.182 321.202 184.351C321.143 182.731 321.111 181.11 321.107 179.488C321.097 175.879 315.735 174.901 316.858 171.471C317.292 170.144 323.388 166.141 324.395 165.175C325.154 164.446 326.105 163.951 327.076 163.547C330.307 162.202 333.918 161.787 337.37 162.362C339.132 162.655 340.583 163.897 342.32 163.776C344.248 163.637 345.998 163.947 347.581 165.146Z" fill="#502F26"/>
<path d="M341.893 198.584H329.421V213.186H341.893V198.584Z" fill="#F4B799"/>
<path opacity="0.3" d="M341.893 204.821V198.583H329.421V208.317C331.246 208.578 338.547 209.079 341.893 204.821Z" fill="black"/>
<path d="M327.696 211.401C327.696 211.401 335.035 209.69 343.781 211.401C343.781 211.401 341.575 216.42 335.035 216.42C328.494 216.42 327.696 211.401 327.696 211.401Z" fill="#F4B799"/>
<path d="M367.43 221.295C366.178 216.786 362.177 216.076 362.177 216.076C362.177 216.076 351.667 213.154 343.018 211.269C343.018 211.269 341.141 216.279 334.093 216.164C327.985 216.065 328.566 211.269 328.566 211.269C324.629 211.888 314.678 214.217 310.755 216.051C310.755 216.051 306.624 217.433 306.232 222.149C306.232 222.149 306.175 224.274 310.644 227.203C310.914 232.17 311.554 239.041 312.92 248.292C314.514 259.087 313.889 264.749 313.862 279.654C313.862 279.654 326.638 285.011 354.832 279.634C354.832 279.634 353.809 263.911 355.211 252.037C356.34 242.474 360.141 233.15 360.75 228.01V228.013C368.66 224.689 367.43 221.295 367.43 221.295Z" fill="#FFCE43"/>
<path d="M364.655 219.951C362.725 217.498 359.172 217.074 356.719 219.005C354.266 220.935 353.842 224.488 355.773 226.941C356.076 227.326 380.259 252.711 380.259 252.711C381.904 254.728 384.867 255.066 386.921 253.451C388.975 251.834 389.344 248.874 387.769 246.8L364.655 219.951Z" fill="#F4B799"/>
<path d="M387.17 253.218C389.049 251.416 389.145 248.435 387.369 246.518C385.593 244.601 382.544 244.415 380.606 246.152C380.606 246.152 373.388 250.872 355.209 269.743L359.358 274.221C359.358 274.221 378.833 262.324 386.92 253.437C386.974 253.379 387.17 253.218 387.17 253.218Z" fill="#F4B799"/>
<path d="M381.033 236.149L366.01 218.737C363.487 215.572 358.86 215.035 355.676 217.545C352.482 220.063 351.935 224.712 354.452 227.904C354.674 228.186 362.336 236.231 370.852 245.157C373.478 243.202 377.787 239.78 381.033 236.149Z" fill="#FFCE43"/>
<path d="M361.105 269.67C360.154 266.938 358.703 267.368 358.703 267.368L356.614 267.471C354.797 266.559 353.827 265.107 352.892 264.814C351.202 264.284 350.645 262.641 350.286 262.779C349.512 263.074 349.323 263.788 349.663 264.444C350.148 265.377 351.288 266.249 351.288 266.249C350.556 265.982 347.492 265.055 346.406 264.918C345.467 264.8 342.758 266.409 342.433 266.593C342.029 266.821 341.455 267.212 341.642 267.597C341.959 268.246 342.726 268.236 343.308 268.065C343.956 267.875 345.423 266.828 345.952 266.967C346.26 267.049 348.139 267.609 348.285 267.668C348.285 267.668 345.972 268.566 344.977 268.918C343.828 269.325 341.422 270.313 341.422 270.313C339.531 271.502 341.873 272.244 341.873 272.244C341.732 272.362 341.259 272.784 341.407 273.15C341.682 273.83 342.666 273.831 342.911 273.82C343.666 273.789 345.991 273.039 346.053 273.045L349.422 273.15C348.409 273.936 347.816 274.372 346.555 275.239C346.344 275.384 344.99 276.221 344.893 276.43C344.777 276.679 344.879 276.904 345.107 277.017C345.582 277.249 346.166 277.232 346.705 277.052C346.965 276.965 347.997 276.49 348.553 276.165C350.739 274.886 351.965 274.485 353.962 275.938C356.838 278.032 360.007 273.749 360.007 273.749C360.007 273.749 362.056 272.403 361.105 269.67Z" fill="#F4B799"/>
<path opacity="0.3" d="M351.289 266.25L352.829 266.81C352.829 266.81 353.003 266.452 351.289 266.25Z" fill="black"/>
<path opacity="0.3" d="M341.874 272.244C341.874 272.244 345.032 271.136 345.754 270.94C346.476 270.744 350.024 270.804 349.736 270.03C349.736 270.03 348.667 269.098 341.874 272.244Z" fill="black"/>
<path opacity="0.3" d="M348.291 267.669C348.291 267.669 350.067 267.412 349.641 267.234C349.214 267.056 348.639 267.535 348.291 267.669Z" fill="black"/>
<path d="M308.462 220.01C310.399 217.563 313.953 217.149 316.4 219.085C318.848 221.023 319.261 224.577 317.324 227.024C317.019 227.408 292.766 252.726 292.766 252.726C291.116 254.74 288.151 255.068 286.101 253.446C284.053 251.824 283.691 248.864 285.271 246.794L308.462 220.01Z" fill="#F4B799"/>
<path d="M285.441 252.727C283.765 250.734 283.987 247.76 285.958 246.043C287.929 244.327 290.978 244.467 292.721 246.401C292.721 246.401 299.394 251.864 315.455 272.569L311.176 276.296C311.176 276.296 292.758 262.671 285.664 252.973C285.619 252.907 285.441 252.727 285.441 252.727Z" fill="#F4B799"/>
<path d="M292.036 236.164L307.108 218.793C309.64 215.635 314.269 215.11 317.445 217.63C320.631 220.158 321.167 224.806 318.64 227.993C318.417 228.273 310.733 236.298 302.193 245.199C299.573 243.238 295.273 239.803 292.036 236.164Z" fill="#FFCE43"/>
<path d="M314.33 264.645C314.33 264.645 315.074 262.238 313.969 261.553C312.916 260.901 312.178 265.429 312.178 265.429L314.33 264.645Z" fill="#F4B799"/>
<path d="M323.122 268.573C323 268.485 319.427 266.686 318.904 266.571C318.595 266.503 315.965 266.237 315.95 266.224L317.936 265.646C318.76 265.405 320.281 266.685 321.434 266.38C322.488 266.103 322.398 265.332 322.004 265.177C319.304 264.112 318.638 263.529 317.681 263.617C316.109 263.763 315.263 264.07 314.651 264.169C313.375 264.375 312.903 264.176 312.374 265.053C312.332 265.121 310.837 267.826 309.936 273.479C309.514 276.128 312.486 276.934 312.486 276.934C314.984 277.582 314.914 274.778 315.904 273.891C316.321 273.516 318.208 275.072 318.827 275.425C319.445 275.778 320.304 276.055 320.635 275.856C321.398 275.396 321.078 275.049 320.718 274.763C320.159 274.32 316.289 271.595 316.289 271.595C316.312 271.446 316.352 271.334 316.376 271.191C316.376 271.191 318.35 271.836 319.283 272.257C320.134 272.642 321.629 273.315 322.382 272.849C323.074 272.422 322.75 271.864 322.51 271.642C322.067 271.231 316.706 268.831 316.706 268.831C316.706 268.831 317.502 268.251 318.602 268.508C319.352 268.683 320.56 269.116 320.941 269.306C321.453 269.561 322.679 270.136 323.17 269.541C323.513 269.125 323.362 268.746 323.122 268.573Z" fill="#F4B799"/>
<path opacity="0.3" d="M316.111 273.836C316.111 273.836 315.154 273.16 314.97 273.112C314.793 273.065 314.673 273.308 316.111 273.836Z" fill="black"/>
<path opacity="0.3" d="M315.408 274.489C315.408 274.489 313.855 274.266 313.677 274.096C313.499 273.928 312.836 274.703 315.408 274.489Z" fill="black"/>
<path opacity="0.3" d="M316.287 271.597C316.287 271.597 314.361 270.67 314.484 270.332C314.652 269.873 315.897 270.855 316.373 271.194L316.287 271.597Z" fill="black"/>
<path opacity="0.3" d="M316.702 268.833C316.702 268.833 314.544 268.418 314.613 267.902C314.68 267.385 316.702 268.833 316.702 268.833Z" fill="black"/>
<path opacity="0.3" d="M315.954 266.224C315.954 266.224 314.337 265.863 314.224 265.555C314.111 265.248 314.848 265.51 315.954 266.224Z" fill="black"/>
<path d="M345.662 186.926C345.924 188.94 347.769 190.361 349.784 190.098C351.797 189.836 353.218 187.991 352.956 185.976C352.693 183.962 350.848 182.541 348.834 182.804C346.82 183.066 345.399 184.912 345.662 186.926Z" fill="#F4B799"/>
<path opacity="0.6" d="M347.896 186.68C347.919 187.658 348.732 188.429 349.709 188.406C350.686 188.382 351.458 187.569 351.434 186.592C351.41 185.615 350.598 184.843 349.622 184.867C348.642 184.892 347.871 185.705 347.896 186.68Z" fill="black"/>
<path d="M325.783 170.205C332.577 162.262 345.601 165.535 348.069 175.692C349.176 180.249 349.925 185.934 349.044 191.646C347.055 204.521 338.929 209.956 329.827 205.712C320.725 201.468 319.865 183.182 322.86 175.176C323.545 173.341 324.538 171.659 325.783 170.205Z" fill="#F4B799"/>
<path d="M349.266 182.777C349.266 182.777 347.906 182.641 346.688 184.675C346.688 184.675 344.354 169.358 338.304 169.863C338.304 169.863 330.339 170.186 322.193 174.089C315.197 177.44 316.06 162.108 328.606 161.65C343.155 161.118 341.535 162.601 341.535 162.601C341.535 162.601 355.484 157.96 349.266 182.777Z" fill="#502F26"/>
<path d="M343.421 172.372C343.421 172.372 344.747 163.967 342.144 160.613C339.54 157.259 337.678 157.622 336.077 159.208C336.077 159.208 332.866 155.8 330.743 158.963C328.619 162.126 327.195 159.768 325.956 158.949C324.718 158.129 321.223 157.91 322.221 161.268C322.221 161.268 315.268 157.135 313.416 161.514C311.564 165.892 317.093 167.668 317.093 167.668C317.093 167.668 313.808 178.535 323.433 173.99C335.09 168.487 343.421 172.372 343.421 172.372Z" fill="#502F26"/>
<path d="M117.768 22.6383C117.391 21.9237 117.039 21.1935 116.723 20.4693L117.269 20.2307C117.579 20.943 117.924 21.6588 118.295 22.3603L117.768 22.6383Z" fill="#484867"/>
<path d="M363.713 83.3377L360.867 79.5677L361.342 79.2086L364.187 82.9786L363.713 83.3377ZM358.023 75.7976L355.177 72.0276L355.652 71.6684L358.498 75.4385L358.023 75.7976ZM352.332 68.2575L349.486 64.4851L349.964 64.1283L352.807 67.8984L352.332 68.2575ZM346.634 60.7257C345.679 59.4778 344.717 58.2346 343.737 57.0034L344.204 56.6312C345.184 57.8648 346.151 59.1115 347.108 60.3618L346.634 60.7257ZM340.751 53.3562C339.676 52.0868 338.656 50.9319 337.635 49.8248L338.073 49.4203C339.1 50.5334 340.126 51.6943 341.205 52.9709L340.751 53.3562ZM198.676 52.5998C198.431 52.5998 198.185 52.5974 197.941 52.5938L197.95 51.9973C199.482 52.0248 201.046 51.9663 202.639 51.8279L202.69 52.4221C201.332 52.5402 199.981 52.5998 198.676 52.5998ZM193.2 52.2336C191.599 52.0128 190.031 51.6871 188.538 51.2648L188.702 50.6909C190.168 51.1061 191.708 51.4258 193.282 51.643L193.2 52.2336ZM207.396 51.7909L207.291 51.2039C208.805 50.9319 210.347 50.5883 211.875 50.1839L212.028 50.7601C210.485 51.1693 208.925 51.5153 207.396 51.7909ZM184.066 49.6219C182.987 49.1268 181.932 48.5613 180.933 47.9433C180.587 47.7298 180.248 47.5055 179.915 47.2716L180.257 46.7837C180.581 47.0104 180.91 47.2287 181.246 47.4351C182.226 48.0411 183.259 48.5947 184.316 49.0803L184.066 49.6219ZM216.567 49.3738L216.371 48.8095C216.692 48.6985 217.011 48.5852 217.326 48.4707C218.442 48.065 219.6 47.6152 220.769 47.1344L220.994 47.6856C219.82 48.17 218.653 48.6222 217.53 49.0302C217.211 49.1483 216.89 49.2628 216.567 49.3738ZM334.351 46.4544C333.393 45.525 332.421 44.6326 331.462 43.801C331.265 43.6304 331.068 43.461 330.87 43.294L331.254 42.8382C331.455 43.0076 331.654 43.1782 331.852 43.35C332.821 44.1888 333.8 45.0883 334.765 46.0249L334.351 46.4544ZM225.335 45.791L225.085 45.2494C226.404 44.6421 227.795 43.9764 229.339 43.214L229.602 43.7485C228.054 44.5145 226.658 45.1826 225.335 45.791ZM164.334 45.2578C163.617 45.2578 162.9 45.2506 162.184 45.2339L162.197 44.6374C163.765 44.672 165.335 44.6672 166.906 44.629L166.92 45.2255C166.056 45.2458 165.195 45.2578 164.334 45.2578ZM171.648 45.0144L171.611 44.419C173.092 44.326 174.609 44.2067 176.249 44.054C175.206 42.9241 174.254 41.675 173.418 40.34L173.923 40.0226C174.757 41.3565 175.711 42.602 176.756 43.7223L176.319 44.1291H176.318L176.366 44.6421C174.697 44.7972 173.154 44.9201 171.648 45.0144ZM157.45 45C155.843 44.876 154.257 44.7018 152.737 44.4846L152.821 43.8941C154.33 44.11 155.902 44.2818 157.496 44.4059L157.45 45ZM181.07 44.1446L181.001 43.5517C182.393 43.3894 183.782 43.2152 185.167 43.0351L185.681 42.9671L185.76 43.5588L185.244 43.6268C183.856 43.807 182.465 43.9812 181.07 44.1446ZM148.069 43.6471C147.587 43.5433 147.106 43.4324 146.626 43.3166C145.57 43.0601 144.51 42.7678 143.475 42.4481L143.651 41.8778C144.674 42.194 145.722 42.4827 146.767 42.7356C147.242 42.8513 147.718 42.9599 148.195 43.0637L148.069 43.6471ZM190.444 42.8525L190.341 42.2656C192.035 41.9697 193.538 41.6476 194.934 41.2801L195.086 41.8563C193.673 42.2286 192.155 42.5543 190.444 42.8525ZM233.822 41.6201L233.55 41.0892L237.753 38.9334L238.025 39.4643L233.822 41.6201ZM139.005 40.8434C137.535 40.2397 136.088 39.5633 134.702 38.8331L134.978 38.3058C136.348 39.0264 137.78 39.6945 139.232 40.2911L139.005 40.8434ZM327.173 40.396C325.916 39.4845 324.605 38.6017 323.271 37.7761L323.586 37.269C324.931 38.103 326.255 38.993 327.522 39.914L327.173 40.396ZM199.604 40.3686L199.378 39.8162C200.881 39.2018 202.275 38.4848 203.523 37.6842L203.844 38.1865C202.566 39.0061 201.141 39.7411 199.604 40.3686ZM242.238 37.3394L241.973 36.8049C243.536 36.0318 244.931 35.3637 246.239 34.7612L246.489 35.3029C245.187 35.9018 243.796 36.5687 242.238 37.3394ZM130.611 36.416C129.273 35.5296 127.988 34.5787 126.794 33.5861L127.175 33.1268C128.353 34.1051 129.62 35.0452 130.94 35.9185L130.611 36.416ZM171.266 36.0796C170.675 34.5811 170.229 33.0385 169.94 31.4946L170.526 31.3849C170.807 32.8905 171.243 34.3962 171.82 35.86L171.266 36.0796ZM319.194 35.4413C317.824 34.7195 316.399 34.0299 314.961 33.394L315.203 32.8488C316.654 33.4906 318.09 34.1862 319.47 34.9139L319.194 35.4413ZM207.534 35.1371L207.096 34.7314C208.155 33.5908 209.059 32.3202 209.783 30.9566L210.309 31.2357C209.561 32.6459 208.627 33.9583 207.534 35.1371ZM250.803 33.4119L250.577 32.8595L251.387 32.529C252.567 32.0554 253.784 31.5984 255.005 31.1713L255.203 31.7345C253.989 32.158 252.782 32.6125 251.609 33.0826L250.803 33.4119ZM310.599 31.6342C309.146 31.1021 307.642 30.607 306.133 30.162L306.301 29.5905C307.824 30.0391 309.34 30.539 310.804 31.0747L310.599 31.6342ZM123.321 30.3374C122.219 29.1741 121.195 27.9429 120.279 26.6795L120.762 26.3287C121.663 27.5719 122.67 28.7828 123.754 29.927L123.321 30.3374ZM259.685 30.3087L259.519 29.7361C261.031 29.3018 262.575 28.9033 264.109 28.5526L264.241 29.1336C262.718 29.482 261.185 29.878 259.685 30.3087ZM301.581 28.9737C300.071 28.6289 298.519 28.3223 296.965 28.0634L297.062 27.4752C298.629 27.7353 300.193 28.0443 301.713 28.3927L301.581 28.9737ZM268.856 28.2102L268.756 27.622C270.312 27.3547 271.89 27.1269 273.447 26.9467L273.517 27.5397C271.969 27.7186 270.401 27.9429 268.856 28.2102ZM292.301 27.4287C290.755 27.2629 289.176 27.14 287.609 27.0624L287.638 26.4671C289.216 26.5447 290.805 26.6687 292.363 26.8358L292.301 27.4287ZM278.201 27.1221L278.164 26.5268C279.739 26.4301 281.333 26.3752 282.902 26.3657L282.907 26.9622C281.347 26.9718 279.765 27.0255 278.201 27.1221ZM170.153 26.7511L169.557 26.7332C169.606 25.0891 169.85 23.4988 170.282 22.0039L170.855 22.1697C170.437 23.6169 170.201 25.1583 170.153 26.7511ZM211.938 26.7296L211.353 26.6127C211.524 25.7513 211.611 24.8911 211.611 24.0547C211.611 23.3663 211.551 22.6839 211.437 22.0277L212.024 21.9239C212.147 22.6147 212.207 23.3306 212.207 24.0547C212.207 24.9304 212.117 25.83 211.938 26.7296ZM172.755 17.9582L172.253 17.6361C172.784 16.8081 173.396 16.0219 174.073 15.3025C174.489 14.8575 174.938 14.428 175.404 14.0259L175.793 14.4781C175.343 14.8658 174.91 15.2798 174.508 15.7105C173.855 16.4049 173.266 17.1613 172.755 17.9582ZM209.7 17.8115C208.879 16.616 207.786 15.5208 206.451 14.5592L206.8 14.076C208.189 15.0782 209.33 16.2223 210.191 17.4738L209.7 17.8115ZM202.387 12.3079C201.546 11.95 200.643 11.6171 199.703 11.3189C199.13 11.1363 198.542 10.9681 197.956 10.8166L198.105 10.2391C198.702 10.393 199.3 10.566 199.883 10.751C200.841 11.0552 201.762 11.3952 202.62 11.7603L202.387 12.3079ZM179.674 11.9524L179.415 11.4155C180.807 10.7438 182.327 10.2165 183.93 9.84663L184.064 10.4277C182.505 10.788 181.028 11.301 179.674 11.9524ZM193.357 9.96951C191.785 9.79413 190.221 9.74164 188.686 9.80845L188.661 9.21311C190.221 9.14153 191.818 9.1988 193.423 9.37656L193.357 9.96951Z" fill="#484867"/>
<path d="M367.119 86.8487L366.643 87.208L368.08 89.1128L368.556 88.7536L367.119 86.8487Z" fill="#484867"/>
<path d="M123.807 11.476L123.167 30.5685L60.5132 0L123.807 11.476Z" fill="#EA9918"/>
<path d="M140.077 0.640675L123.807 11.476L60.5132 0L140.077 0.640675Z" fill="#FFCE43"/>
<path d="M118.05 14.9717L60.5132 0L100.92 26.4322L118.05 14.9717Z" fill="#FFCE43"/>
<path d="M123.169 30.5683L118.052 14.9714L106.706 22.5688L123.169 30.5683Z" fill="#FFBB4D"/>
<path opacity="0.5" d="M149.358 335.961L140.008 334.276L132.668 320.75L115.788 329.911L109.77 328.826L107.399 334.462L90.5176 343.622L97.8573 357.148L94.1743 365.905L114.789 403.894L169.972 373.949L149.358 335.961Z" fill="black"/>
<path d="M144.208 333.292L89.0269 363.24L104.161 391.126L159.343 361.178L144.208 333.292Z" fill="#E5AE13"/>
<path d="M89.0088 363.261L104.603 326.181L144.191 333.315L89.0088 363.261Z" fill="#FFCE43"/>
<path d="M127.478 318.103L85.3291 340.974L112.803 391.607L154.952 368.737L127.478 318.103Z" fill="white"/>
<path d="M129.857 329.958L93.5137 349.679L94.432 351.371L130.776 331.651L129.857 329.958Z" fill="#EDEDED"/>
<path d="M131.759 333.365L95.4155 353.09L96.3346 354.784L132.678 335.059L131.759 333.365Z" fill="#EDEDED"/>
<path d="M133.614 336.791L97.27 356.516L98.1885 358.208L134.532 338.484L133.614 336.791Z" fill="#EDEDED"/>
<path d="M135.469 340.216L99.125 359.941L100.044 361.634L136.388 341.91L135.469 340.216Z" fill="#EDEDED"/>
<path d="M137.284 343.665L100.94 363.385L101.859 365.079L138.203 345.358L137.284 343.665Z" fill="#EDEDED"/>
<path d="M131.113 351.694L102.946 366.981L103.865 368.675L132.032 353.388L131.113 351.694Z" fill="#EDEDED"/>
<path d="M89.0088 363.261L109.622 401.249L164.806 371.305L144.191 333.315L128.809 370.788L89.0088 363.261Z" fill="#FFCE43"/>
<path d="M109.625 401.249L125.221 364.168L164.809 371.304L109.625 401.249Z" fill="#FFCE43"/>
<path opacity="0.5" d="M109.625 401.249L121.489 369.402L122.914 369.672L109.625 401.249Z" fill="black"/>
<path opacity="0.5" d="M164.811 371.305L131.097 365.228L131.645 363.893L164.811 371.305Z" fill="black"/>
<path opacity="0.5" d="M110.042 153.974V106.073C110.042 98.4492 113.931 91.7203 119.836 87.7952C125.635 92.2572 130.216 98.4372 132.722 105.882C139.319 125.484 129.202 146.684 110.042 153.974Z" fill="black"/>
<path d="M132.053 121.144C135.538 100.247 121.423 80.4817 100.526 76.9967C79.6289 73.5117 59.8634 87.627 56.3784 108.524C52.8935 129.421 67.0088 149.187 87.9058 152.672C108.803 156.157 128.568 142.041 132.053 121.144Z" fill="#0AAD60"/>
<path d="M108.974 146.617C126.117 139.033 133.866 118.987 126.281 101.844C118.697 84.7008 98.6508 76.9521 81.5077 84.5367C64.3645 92.1212 56.6158 112.167 64.2004 129.31C71.785 146.453 91.8308 154.202 108.974 146.617Z" fill="#0AAD60"/>
<path opacity="0.2" d="M104.467 145.695C86.9316 151.606 67.9537 142.374 61.708 125.048C61.7796 125.277 61.844 125.506 61.9204 125.735C67.9083 143.499 87.1631 153.046 104.926 147.058C122.69 141.07 132.237 121.815 126.249 104.052C126.172 103.824 126.083 103.602 126.002 103.376C131.52 120.946 122.003 139.785 104.467 145.695Z" fill="white"/>
<path opacity="0.5" d="M84.3297 85.5233C101.617 79.6964 120.312 88.5847 126.822 105.438C126.683 104.959 126.539 104.482 126.379 104.005C120.391 86.2415 101.136 76.6947 83.3729 82.6826C65.6095 88.6706 56.0626 107.925 62.0506 125.689C62.2104 126.165 62.3858 126.632 62.5648 127.097C57.542 109.741 67.0423 91.3502 84.3297 85.5233Z" fill="black"/>
<g opacity="0.5">
<path d="M94.4077 134.121L76.8042 119.357L80.2438 115.255L93.1169 126.053L111.384 96.6187L115.933 99.4402L94.4077 134.121Z" fill="black"/>
</g>
<path d="M93.6194 132.202L76.0146 117.438L79.4542 113.336L92.3285 124.134L110.595 94.6985L115.143 97.5213L93.6194 132.202Z" fill="white"/>
<defs>
<linearGradient id="paint0_linear_1_233611" x1="137.655" y1="136.486" x2="250.721" y2="136.486" gradientUnits="userSpaceOnUse">
<stop stop-color="#37355E" stop-opacity="0.8"/>
<stop offset="1" stop-color="#D1D1E6"/>
</linearGradient>
<linearGradient id="paint1_linear_1_233611" x1="137.655" y1="156.444" x2="250.721" y2="156.444" gradientUnits="userSpaceOnUse">
<stop stop-color="#37355E" stop-opacity="0.8"/>
<stop offset="1" stop-color="#D1D1E6"/>
</linearGradient>
<linearGradient id="paint2_linear_1_233611" x1="137.655" y1="173.504" x2="250.721" y2="173.504" gradientUnits="userSpaceOnUse">
<stop stop-color="#37355E" stop-opacity="0.8"/>
<stop offset="1" stop-color="#D1D1E6"/>
</linearGradient>
<linearGradient id="paint3_linear_1_233611" x1="137.655" y1="387.259" x2="250.721" y2="387.259" gradientUnits="userSpaceOnUse">
<stop stop-color="#37355E" stop-opacity="0.8"/>
<stop offset="1" stop-color="#D1D1E6"/>
</linearGradient>
</defs>
</svg>
