<svg width="421" height="421" viewBox="0 0 421 421" fill="none" xmlns="http://www.w3.org/2000/svg">
<path d="M113.26 163.047V169.359H119.571V163.047V156.735H113.26V163.047Z" fill="#EBEBEB"/>
<path d="M119.571 125.177H113.26V131.488H119.571V125.177Z" fill="#EBEBEB"/>
<path d="M158.575 194.67H152.263V200.981H158.575V194.67Z" fill="#EBEBEB"/>
<path d="M119.571 137.8V144.112H113.26V150.423H119.571V156.735H125.884H132.196V163.047H138.507V156.735H144.819V150.423V144.112H138.507V150.423H132.196H125.884V144.112V137.8V131.488H119.571V137.8Z" fill="#EBEBEB"/>
<path d="M132.196 125.177H125.884V131.488H132.196H138.508V125.177H132.196Z" fill="#EBEBEB"/>
<path d="M160.598 175.916H163.99V169.605H160.598H157.208V175.916H160.598Z" fill="#EBEBEB"/>
<path d="M144.819 131.488H138.507V137.8H144.819V131.488Z" fill="#EBEBEB"/>
<path d="M189.001 156.735H182.689V163.047H189.001V156.735Z" fill="#EBEBEB"/>
<path d="M195.313 87.3062H189.001V93.6178H195.313V87.3062Z" fill="#EBEBEB"/>
<path d="M157.442 137.8V131.488H163.754V125.177H157.442V118.865H151.13V125.177H144.819V131.488H151.13V137.8V144.112V150.423V156.735H157.442V150.423V144.112H163.754V137.8H157.442Z" fill="#EBEBEB"/>
<path d="M189.001 200.917H195.313V194.606H189.001H182.689V200.917H189.001Z" fill="#EBEBEB"/>
<path d="M182.69 87.3062H176.378V93.6178H182.69V87.3062Z" fill="#EBEBEB"/>
<path d="M181.112 137.8V131.488H174.8V125.177H168.487V131.488V137.8H162.176V144.112H168.487H174.8V137.8H181.112Z" fill="#EBEBEB"/>
<path d="M216.737 125.177H210.425V131.488H216.737V125.177Z" fill="#EBEBEB"/>
<path d="M151.313 156.735H145.001V163.047H151.313V156.735Z" fill="#EBEBEB"/>
<path d="M176.378 118.865V112.554H182.69V106.241H189.001H195.313V99.9294H189.001V93.6178H182.69V99.9294H176.378V106.241H170.067V112.554H163.755V118.865H170.067H176.378Z" fill="#EBEBEB"/>
<path d="M176.378 163.047V156.735H182.69V150.423H176.378H170.066V156.735H163.754V163.047H170.066H176.378Z" fill="#EBEBEB"/>
<path d="M195.313 188.291V181.979H189.001H182.69V175.667H176.378V181.979H170.066V188.291H163.754H157.442V194.602H163.754H170.066H176.378V188.291H182.69V194.602H189.001V188.291H195.313Z" fill="#EBEBEB"/>
<path d="M170.066 93.6178V87.3062H163.754H157.442V93.6178H151.13V99.9294H157.442H163.754V93.6178H170.066Z" fill="#EBEBEB"/>
<path d="M170.067 99.9294H163.755V106.241H170.067V99.9294Z" fill="#EBEBEB"/>
<path d="M185.845 125.177H179.534V131.488V137.8V144.112H185.845H192.157V137.8H185.845V131.488H192.157V125.177H198.469V118.865H192.157V112.553H185.845V118.865V125.177Z" fill="#EBEBEB"/>
<path d="M163.754 106.241H157.442V112.553H163.754V106.241Z" fill="#EBEBEB"/>
<path d="M182.689 169.359V175.671H189.001H195.313V169.359H201.624H207.936V163.047H201.624H195.313H189.001V169.359H182.689Z" fill="#EBEBEB"/>
<path d="M216.737 144.112H210.425V150.423H216.737V144.112Z" fill="#EBEBEB"/>
<path d="M195.313 150.423H189.001V156.735H195.313V150.423Z" fill="#EBEBEB"/>
<path d="M211.092 131.488H204.78H198.469V137.8H204.78V144.112H211.092V137.8V131.488Z" fill="#EBEBEB"/>
<path d="M207.936 150.423H201.625V156.735H207.936V150.423Z" fill="#EBEBEB"/>
<path d="M138.507 188.412H157.45V163.04H132.078V169.359H125.885V175.671H132.078V181.982H125.885V188.294H132.078V188.412H132.196V194.606H125.885V200.917V207.229H132.196V200.917H138.508V194.606L138.507 188.412ZM152.59 167.899V183.678H136.811V167.899H152.59Z" fill="#EBEBEB"/>
<path d="M220.559 163.047H226.872V156.735H220.559H214.248H207.936V163.047H214.248H220.559Z" fill="#EBEBEB"/>
<path d="M220.56 137.8H226.872V131.488V125.177H220.56V131.488V137.8Z" fill="#EBEBEB"/>
<path d="M170.301 169.605H163.99V175.916V182.228H170.301V175.916V169.605Z" fill="#EBEBEB"/>
<path d="M233.184 163.047H226.872V169.358H233.184V163.047Z" fill="#EBEBEB"/>
<path d="M233.184 150.423V144.112H226.872V150.423V156.735H233.184V150.423Z" fill="#EBEBEB"/>
<path d="M119.572 194.606H113.26V200.917V207.229H119.572V200.917V194.606Z" fill="#EBEBEB"/>
<path d="M233.184 118.865V87.3062H201.625V118.865H233.184ZM206.358 114.131V92.0399H228.449V114.131H206.358Z" fill="#EBEBEB"/>
<path d="M223.715 96.7736H211.092V109.397H223.715V96.7736Z" fill="#EBEBEB"/>
<path d="M233.184 175.671H201.625V207.23H233.184V175.671ZM206.358 202.495V180.404H228.449V202.495H206.358Z" fill="#EBEBEB"/>
<path d="M223.715 185.138H211.092V197.761H223.715V185.138Z" fill="#EBEBEB"/>
<path d="M113.182 87.3062V118.865H144.74V87.3062H113.182ZM140.006 92.0399V114.131H117.915V92.0399H140.006Z" fill="#EBEBEB"/>
<path d="M135.272 96.7736H122.649V109.397H135.272V96.7736Z" fill="#EBEBEB"/>
<path d="M62.8219 210.92C62.8143 212.57 61.4705 213.902 59.8202 213.894C58.1698 213.886 56.8386 212.543 56.8462 210.892C56.8538 209.242 58.1976 207.911 59.848 207.918C61.4974 207.926 62.8295 209.27 62.8219 210.92Z" fill="#EBEBEB"/>
<path d="M53.8624 207.08C57.1437 203.634 62.4761 203.53 65.8416 206.921C67.3664 208.459 69.7543 206.094 68.2286 204.556C63.6111 199.903 56.0323 199.93 51.4973 204.693C50.0069 206.258 52.3679 208.649 53.8624 207.08Z" fill="#EBEBEB"/>
<path d="M43.7145 193.172C48.258 189.245 53.6813 186.772 59.7546 186.758C65.7741 186.743 71.7102 188.88 76.1189 193.02C77.6943 194.499 80.0864 192.139 78.506 190.655C73.4556 185.912 66.6826 183.38 59.7698 183.397C52.7812 183.414 46.5697 186.271 41.3485 190.785C39.71 192.202 42.0844 194.582 43.7145 193.172Z" fill="#EBEBEB"/>
<path d="M47.719 200.879C50.7645 197.586 55.0334 195.524 59.544 195.421C64.1784 195.315 68.652 197.224 71.8734 200.534C73.3848 202.086 75.7711 199.721 74.2605 198.169C70.4479 194.252 65.0457 191.936 59.5592 192.061C54.1931 192.184 48.9929 194.557 45.353 198.492C43.8879 200.077 46.2472 202.471 47.719 200.879Z" fill="#EBEBEB"/>
<path d="M192.061 47.5182C192.57 43.8244 187.356 40.7856 183.439 40.4699C181.571 40.3191 179.631 40.6046 177.861 39.9882C174.026 38.652 172.495 33.6977 168.753 32.1197C165.956 30.9401 162.735 31.9901 160.024 33.355C157.312 34.7198 154.633 36.4375 151.603 36.6312C148.968 36.7996 146.107 35.8229 143.8 37.1103C142.083 38.0693 141.183 40.0489 139.599 41.2176C138.049 42.3602 136.029 42.6026 134.106 42.7071C132.184 42.8115 130.194 42.8308 128.444 43.6324C126.693 44.434 125.246 46.2847 125.609 48.175L192.061 47.5182Z" fill="#EBEBEB"/>
<path d="M91.4776 109.922C91.9332 106.611 87.2601 103.887 83.7489 103.604C82.0742 103.469 80.3346 103.725 78.7483 103.172C75.3112 101.974 73.9379 97.533 70.5843 96.1184C68.0768 95.0609 65.1904 96.0022 62.7596 97.2257C60.3287 98.4491 57.9265 99.9891 55.211 100.163C52.8484 100.314 50.2836 99.4376 48.2165 100.592C46.6765 101.452 45.8699 103.227 44.4503 104.273C43.0618 105.298 41.2498 105.514 39.5271 105.609C37.8044 105.702 36.0202 105.72 34.4515 106.438C32.8829 107.156 31.5845 108.816 31.9104 110.51L91.4776 109.922Z" fill="#F5F5F5"/>
<path d="M407.005 107.58C407.494 104.034 402.49 101.117 398.729 100.814C396.936 100.669 395.073 100.944 393.375 100.352C389.695 99.0697 388.225 94.314 384.633 92.7993C381.948 91.6668 378.857 92.6747 376.255 93.9848C373.652 95.295 371.08 96.9436 368.171 97.1297C365.642 97.2914 362.895 96.3534 360.682 97.5894C359.033 98.5097 358.169 100.41 356.649 101.532C355.162 102.629 353.222 102.86 351.377 102.961C349.532 103.062 347.622 103.08 345.942 103.85C344.262 104.619 342.872 106.395 343.22 108.21L407.005 107.58Z" fill="#F5F5F5"/>
<path d="M399.497 401.682C399.497 401.803 314.873 401.901 210.508 401.901C106.108 401.901 21.502 401.802 21.502 401.682C21.502 401.561 106.108 401.463 210.508 401.463C314.873 401.462 399.497 401.561 399.497 401.682Z" fill="#263238"/>
<path d="M354.226 364.642C355.913 365.373 357.153 366.933 357.776 368.662C358.398 370.392 358.455 372.282 358.247 374.109C357.847 377.644 355.839 381.212 353.675 384.036C350.699 381.439 350.014 376.907 349.811 374.586C349.491 370.919 351.138 364.095 354.226 364.642Z" fill="#FFB744"/>
<path d="M357.135 389.871C356.659 387.873 357.49 385.681 359.024 384.316C360.557 382.949 362.7 382.372 364.748 382.528C365.695 382.601 366.718 382.877 367.26 383.656C367.767 384.386 367.711 385.403 367.299 386.189C366.888 386.976 366.176 387.564 365.424 388.036C362.845 389.653 360.052 390.746 357.135 389.871Z" fill="#FFB744"/>
<path d="M353.319 400.709C353.301 400.704 353.341 400.447 353.425 399.983C353.518 399.472 353.639 398.812 353.785 398.02C354.114 396.38 354.536 394.03 355.811 391.749C357.068 389.474 358.829 387.798 360.311 386.966C361.047 386.54 361.691 386.287 362.146 386.155C362.371 386.079 362.554 386.05 362.675 386.021C362.797 385.995 362.862 385.985 362.863 385.995C362.885 386.052 361.832 386.241 360.405 387.123C358.974 387.979 357.273 389.638 356.036 391.874C354.786 394.108 354.337 396.425 353.964 398.056C353.783 398.879 353.637 399.546 353.523 400.003C353.409 400.462 353.335 400.713 353.319 400.709Z" fill="#263238"/>
<path d="M353.43 369.949C353.439 369.949 353.451 370.058 353.466 370.266C353.481 370.502 353.498 370.803 353.52 371.177C353.562 371.969 353.609 373.115 353.655 374.531C353.747 377.363 353.818 381.278 353.801 385.601C353.781 389.927 353.675 393.841 353.559 396.673C353.501 398.088 353.445 399.233 353.396 400.025C353.37 400.399 353.349 400.7 353.333 400.935C353.317 401.143 353.303 401.252 353.294 401.252C353.285 401.252 353.281 401.141 353.281 400.933C353.285 400.697 353.289 400.395 353.295 400.021C353.315 399.196 353.343 398.059 353.376 396.667C353.446 393.835 353.523 389.923 353.542 385.601C353.56 381.279 353.517 377.367 353.472 374.535C353.45 373.143 353.433 372.005 353.42 371.18C353.418 370.806 353.416 370.503 353.414 370.268C353.416 370.059 353.421 369.949 353.43 369.949Z" fill="#263238"/>
<path d="M351.986 392.022C351.309 387.746 348.426 383.879 344.52 382.009C343.526 381.532 342.227 381.221 341.409 381.961C340.59 382.702 340.773 384.032 341.174 385.061C342.841 389.343 347.319 392.367 351.915 392.313" fill="#FFB744"/>
<path d="M345.003 385.361C345.011 385.345 345.235 385.444 345.634 385.637C345.835 385.732 346.081 385.85 346.349 386.017C346.616 386.184 346.939 386.347 347.257 386.587C347.582 386.816 347.944 387.061 348.297 387.37C348.667 387.658 349.027 388.006 349.403 388.375C350.137 389.13 350.875 390.033 351.506 391.076C352.126 392.125 352.576 393.201 352.891 394.207C353.032 394.715 353.169 395.198 353.24 395.662C353.341 396.12 353.378 396.555 353.419 396.951C353.474 397.346 353.455 397.708 353.468 398.023C353.483 398.338 353.463 398.609 353.444 398.831C353.412 399.274 353.385 399.517 353.367 399.515C353.309 399.513 353.41 398.532 353.237 396.969C353.186 396.579 353.138 396.152 353.03 395.703C352.95 395.247 352.808 394.776 352.663 394.277C352.341 393.292 351.893 392.239 351.283 391.208C350.664 390.184 349.945 389.294 349.232 388.541C348.866 388.174 348.517 387.824 348.159 387.534C347.818 387.222 347.466 386.973 347.152 386.736C345.874 385.819 344.977 385.411 345.003 385.361Z" fill="#263238"/>
<path d="M128.031 401.693C127.965 401.702 127.793 400.776 127.455 399.296C127.118 397.815 126.59 395.786 125.831 393.601C125.069 391.416 124.224 389.497 123.568 388.127C122.914 386.758 122.474 385.924 122.532 385.89C122.578 385.862 123.115 386.643 123.846 387.987C124.576 389.329 125.476 391.25 126.245 393.456C127.011 395.664 127.499 397.727 127.759 399.233C128.021 400.741 128.084 401.686 128.031 401.693Z" fill="#263238"/>
<path d="M135.503 365.255C135.532 365.262 135.456 365.77 135.295 366.682C135.129 367.594 134.899 368.915 134.633 370.551C134.097 373.819 133.475 378.354 133.086 383.392C132.703 388.431 132.628 393.009 132.66 396.321C132.675 397.977 132.701 399.318 132.726 400.245C132.747 401.172 132.745 401.685 132.715 401.687C132.685 401.689 132.63 401.178 132.556 400.253C132.477 399.328 132.405 397.986 132.35 396.328C132.238 393.01 132.264 388.415 132.649 383.359C133.039 378.305 133.712 373.76 134.327 370.498C134.634 368.866 134.91 367.551 135.128 366.649C135.341 365.745 135.473 365.249 135.503 365.255Z" fill="#263238"/>
<path d="M147.489 386.229C147.543 386.275 146.948 387.013 146.091 388.275C145.233 389.534 144.146 391.343 143.211 393.469C142.281 395.599 141.687 397.624 141.343 399.108C140.997 400.592 140.857 401.531 140.786 401.523C140.737 401.518 140.767 400.563 141.04 399.045C141.309 397.528 141.865 395.455 142.81 393.293C143.759 391.134 144.907 389.321 145.839 388.095C146.77 386.865 147.452 386.195 147.489 386.229Z" fill="#263238"/>
<path d="M294.286 388.972C294.336 388.942 294.77 389.578 295.395 390.65C296.021 391.722 296.83 393.236 297.632 394.952C298.432 396.669 299.073 398.262 299.493 399.43C299.913 400.597 300.122 401.338 300.068 401.358C300.009 401.38 299.698 400.678 299.205 399.544C298.714 398.41 298.031 396.845 297.234 395.137C296.437 393.43 295.676 391.903 295.122 390.797C294.568 389.692 294.231 389.003 294.286 388.972Z" fill="#263238"/>
<path d="M309.777 373.632C309.807 373.641 309.729 374.03 309.564 374.725C309.383 375.506 309.154 376.493 308.882 377.671C308.321 380.16 307.638 383.618 307.126 387.477C306.618 391.335 306.377 394.854 306.272 397.403C306.23 398.611 306.194 399.624 306.166 400.424C306.144 401.138 306.117 401.534 306.088 401.534C306.057 401.534 306.026 401.14 305.996 400.424C305.962 399.709 305.949 398.673 305.963 397.394C305.99 394.834 306.182 391.295 306.692 387.418C307.208 383.544 307.942 380.076 308.582 377.598C308.901 376.359 309.183 375.362 309.402 374.681C309.615 373.997 309.748 373.624 309.777 373.632Z" fill="#263238"/>
<path d="M197.705 380.482C197.725 380.459 197.995 380.67 198.467 381.072C198.944 381.469 199.594 382.088 200.36 382.891C201.893 384.493 203.811 386.92 205.434 389.903C207.049 392.892 208.036 395.824 208.541 397.983C208.796 399.063 208.959 399.946 209.031 400.562C209.11 401.177 209.139 401.518 209.11 401.522C209.032 401.535 208.822 400.182 208.24 398.061C207.663 395.94 206.643 393.064 205.048 390.112C203.446 387.166 201.593 384.741 200.131 383.101C198.671 381.455 197.653 380.539 197.705 380.482Z" fill="#263238"/>
<path d="M212.292 371.524C212.322 371.526 212.333 371.952 212.328 372.72C212.325 373.571 212.322 374.663 212.318 375.972C212.325 378.716 212.431 382.507 212.792 386.678C213.158 390.849 213.71 394.601 214.178 397.305C214.408 398.594 214.6 399.668 214.75 400.506C214.889 401.261 214.952 401.683 214.922 401.69C214.893 401.696 214.774 401.288 214.584 400.542C214.39 399.797 214.145 398.711 213.873 397.362C213.326 394.665 212.723 390.903 212.356 386.715C211.993 382.528 211.936 378.72 212.008 375.969C212.042 374.593 212.096 373.481 212.158 372.714C212.215 371.945 212.261 371.522 212.292 371.524Z" fill="#263238"/>
<path d="M225.179 389.376C225.302 389.442 223.852 391.969 222.858 395.384C221.839 398.793 221.684 401.701 221.546 401.69C221.491 401.687 221.46 400.957 221.564 399.782C221.666 398.608 221.929 396.99 222.438 395.259C222.95 393.53 223.607 392.029 224.158 390.988C224.709 389.945 225.131 389.348 225.179 389.376Z" fill="#263238"/>
<path d="M52.9864 321.574H43.2065V399.179H52.9864V321.574Z" fill="#455A64"/>
<path d="M52.9865 399.179C52.9865 399.179 52.9764 399.036 52.9714 398.773C52.968 398.493 52.963 398.107 52.9562 397.608C52.9495 396.573 52.9394 395.074 52.9259 393.147C52.9108 389.263 52.8889 383.658 52.8619 376.692C52.8383 362.761 52.8047 343.394 52.7676 321.573L52.9857 321.791C49.8636 321.792 46.5587 321.792 43.2101 321.793H43.2076H43.2059L43.4248 321.574C43.3726 355.567 43.3271 385.005 43.3052 399.179L43.2059 399.079C46.3642 399.104 48.7951 399.123 50.4555 399.136C51.2705 399.146 51.8953 399.154 52.3357 399.159C52.7609 399.166 52.9865 399.179 52.9865 399.179C52.9865 399.179 52.7861 399.191 52.3719 399.198C51.9374 399.204 51.3194 399.212 50.5144 399.222C48.8405 399.234 46.3903 399.254 43.2067 399.278L43.1074 399.279V399.179C43.0855 385.005 43.04 355.567 42.9878 321.574L43.2076 321.355H43.2084H43.2118C46.5604 321.356 49.8644 321.356 52.9874 321.357H53.2055L53.2046 321.575C53.1676 343.457 53.1347 362.879 53.1103 376.851C53.0834 383.795 53.0615 389.383 53.0463 393.255C53.0337 395.161 53.0236 396.643 53.016 397.667C53.0101 398.154 53.0051 398.531 53.0009 398.803C52.9966 399.057 52.9865 399.179 52.9865 399.179Z" fill="#263238"/>
<g opacity="0.3">
<path d="M52.9864 323.46H43.2065V326.691H52.9864V323.46Z" fill="black"/>
</g>
<path d="M260.962 321.574H251.182V399.179H260.962V321.574Z" fill="#455A64"/>
<path d="M260.962 399.179C260.962 399.179 260.952 399.036 260.947 398.773C260.944 398.493 260.939 398.107 260.933 397.608C260.926 396.573 260.916 395.074 260.902 393.147C260.887 389.263 260.865 383.658 260.838 376.692C260.815 362.761 260.781 343.394 260.744 321.573L260.962 321.791C257.84 321.792 254.535 321.792 251.187 321.793H251.184H251.183L251.401 321.574C251.348 355.567 251.303 385.005 251.281 399.179L251.181 399.079C254.34 399.104 256.771 399.123 258.431 399.136C259.246 399.146 259.871 399.154 260.31 399.159C260.736 399.166 260.962 399.179 260.962 399.179C260.962 399.179 260.762 399.191 260.347 399.198C259.913 399.204 259.296 399.212 258.49 399.222C256.816 399.234 254.366 399.254 251.182 399.278L251.083 399.279V399.179C251.061 385.005 251.016 355.567 250.963 321.574L251.183 321.355H251.184H251.185H251.187C254.536 321.356 257.84 321.356 260.963 321.357H261.181V321.575C261.144 343.457 261.111 362.879 261.087 376.851C261.06 383.795 261.038 389.383 261.023 393.255C261.01 395.161 261 396.643 260.992 397.667C260.986 398.154 260.982 398.531 260.978 398.803C260.972 399.057 260.962 399.179 260.962 399.179Z" fill="#263238"/>
<path d="M245.642 253.592H235.862V318.282H245.642V253.592Z" fill="#455A64"/>
<path d="M245.642 318.283C245.637 318.278 245.632 318.163 245.628 317.944C245.624 317.706 245.619 317.385 245.613 316.974C245.607 316.106 245.597 314.862 245.584 313.263C245.569 310.027 245.547 305.365 245.52 299.569C245.496 287.967 245.463 271.829 245.425 253.593L245.642 253.81C242.512 253.811 239.214 253.811 235.866 253.812C236.297 253.373 235.985 253.702 236.081 253.61V253.63V253.671V253.753V253.916V254.243V254.895V256.195C236.081 257.059 236.081 257.921 236.081 258.778C236.08 260.492 236.08 262.19 236.08 263.871C236.077 267.232 236.075 270.52 236.074 273.72C236.065 280.118 236.058 286.164 236.051 291.729C236.017 302.84 235.989 312.028 235.97 318.283L235.863 318.176C239 318.202 241.43 318.222 243.097 318.237C243.913 318.247 244.541 318.256 244.986 318.262C245.413 318.269 245.642 318.283 245.642 318.283C245.642 318.283 245.44 318.296 245.024 318.304C244.585 318.31 243.964 318.318 243.159 318.329C241.478 318.343 239.027 318.364 235.863 318.39L235.756 318.391V318.283C235.737 312.028 235.709 302.84 235.675 291.729C235.669 286.164 235.661 280.118 235.653 273.72C235.651 270.52 235.648 267.232 235.647 263.871C235.646 262.19 235.646 260.492 235.645 258.778C235.645 257.921 235.645 257.059 235.645 256.195V254.895V254.243V253.916V253.753V253.671V253.63V253.61C235.744 253.507 235.423 253.812 235.868 253.374C239.217 253.375 242.514 253.376 245.645 253.376H245.863L245.862 253.593C245.824 271.891 245.791 288.083 245.767 299.724C245.74 305.5 245.718 310.145 245.703 313.369C245.69 314.946 245.68 316.175 245.673 317.032C245.667 317.431 245.662 317.743 245.659 317.973C245.652 318.183 245.647 318.287 245.642 318.283Z" fill="#263238"/>
<path d="M71.7032 253.592H61.9233V318.282H71.7032V253.592Z" fill="#455A64"/>
<path d="M71.703 318.283C71.6979 318.278 71.6929 318.163 71.6887 317.944C71.6853 317.706 71.6803 317.385 71.6744 316.974C71.6676 316.106 71.6575 314.862 71.6449 313.263C71.6297 310.027 71.6079 305.365 71.5809 299.569C71.5565 287.967 71.5237 271.829 71.4858 253.593L71.703 253.81C68.5724 253.811 65.276 253.811 61.9265 253.812C62.3576 253.373 62.0461 253.702 62.1421 253.61V253.63V253.671V253.753V253.916V254.243V254.895V256.195C62.1421 257.059 62.1421 257.921 62.1421 258.778C62.1412 260.492 62.1412 262.19 62.1404 263.871C62.1387 267.232 62.1362 270.52 62.1345 273.72C62.1261 280.118 62.1185 286.164 62.1118 291.729C62.0781 302.84 62.0495 312.028 62.0309 318.283L61.924 318.176C65.0605 318.202 67.4905 318.222 69.1576 318.237C69.9735 318.247 70.6017 318.256 71.0471 318.262C71.4731 318.269 71.703 318.283 71.703 318.283C71.703 318.283 71.5009 318.296 71.085 318.304C70.6454 318.31 70.0249 318.318 69.2199 318.329C67.5376 318.343 65.0874 318.364 61.9232 318.39L61.8162 318.391V318.283C61.7969 312.028 61.7691 302.84 61.7354 291.729C61.7287 286.164 61.7202 280.118 61.7127 273.72C61.711 270.52 61.7085 267.232 61.7068 263.871C61.7059 262.19 61.7059 260.492 61.7051 258.778C61.7051 257.921 61.7051 257.059 61.7051 256.195V254.895V254.243V253.916V253.753V253.671V253.63V253.61C61.8044 253.507 61.4828 253.812 61.9282 253.374C65.2769 253.375 68.5741 253.376 71.7047 253.376H71.9228L71.9219 253.593C71.884 271.891 71.8512 288.083 71.8268 299.724C71.7998 305.5 71.7779 310.145 71.7628 313.369C71.7501 314.946 71.74 316.175 71.7333 317.032C71.7274 317.431 71.7224 317.743 71.719 317.973C71.7123 318.183 71.7072 318.287 71.703 318.283Z" fill="#263238"/>
<path d="M264.508 246.211H42.6313V256.566H264.508V246.211Z" fill="#455A64"/>
<path d="M264.508 256.567C264.508 256.567 264.5 256.355 264.496 255.936C264.493 255.511 264.488 254.881 264.482 254.032C264.474 252.327 264.462 249.747 264.446 246.212L264.508 246.273C237.223 246.293 148.155 246.356 42.6425 246.431H42.6315L42.8504 246.212C42.8504 249.759 42.8504 253.288 42.8504 256.567L42.6315 256.348C104.394 256.383 159.83 256.415 199.835 256.439C219.851 256.467 236.006 256.489 247.164 256.505C252.743 256.519 257.071 256.53 260.013 256.536C261.479 256.543 262.597 256.548 263.358 256.552C264.113 256.556 264.508 256.567 264.508 256.567C264.508 256.567 264.134 256.577 263.389 256.582C262.634 256.585 261.525 256.59 260.073 256.597C257.143 256.604 252.832 256.615 247.275 256.628C236.129 256.643 219.993 256.666 199.998 256.695C159.951 256.717 104.457 256.749 42.6315 256.786H42.4126V256.567C42.4126 253.287 42.4126 249.759 42.4126 246.212V245.993H42.6315H42.6425C148.154 246.068 237.223 246.131 264.508 246.15H264.57V246.212C264.554 249.763 264.542 252.355 264.535 254.068C264.529 254.911 264.524 255.535 264.52 255.957C264.515 256.371 264.508 256.567 264.508 256.567Z" fill="#263238"/>
<path d="M265.083 261.744H43.2065V272.099H265.083V261.744Z" fill="#455A64"/>
<path d="M265.083 272.099C265.083 272.099 265.075 271.888 265.071 271.468C265.068 271.043 265.064 270.413 265.057 269.565C265.049 267.86 265.038 265.279 265.021 261.744L265.082 261.806C237.797 261.825 148.73 261.888 43.2168 261.963H43.2059L43.4248 261.744C43.4248 265.292 43.4248 268.82 43.4248 272.099L43.2059 271.88C104.968 271.916 160.405 271.948 200.41 271.971C220.426 271.999 236.58 272.022 247.739 272.038C253.317 272.051 257.646 272.062 260.588 272.069C262.053 272.076 263.172 272.081 263.933 272.084C264.689 272.089 265.083 272.099 265.083 272.099C265.083 272.099 264.709 272.109 263.965 272.114C263.21 272.118 262.101 272.123 260.649 272.129C257.719 272.136 253.408 272.147 247.851 272.161C236.704 272.177 220.568 272.198 200.573 272.227C160.526 272.25 105.032 272.282 43.2067 272.318H42.9878V272.099C42.9878 268.82 42.9878 265.292 42.9878 261.744V261.525H43.2067H43.2177C148.73 261.6 237.798 261.663 265.083 261.683H265.145V261.744C265.129 265.295 265.118 267.887 265.109 269.6C265.103 270.443 265.098 271.068 265.095 271.489C265.091 271.903 265.083 272.099 265.083 272.099Z" fill="#263238"/>
<path d="M265.083 277.853H43.2065V288.207H265.083V277.853Z" fill="#455A64"/>
<path d="M265.083 288.207C265.083 288.207 265.075 287.996 265.071 287.577C265.068 287.152 265.064 286.522 265.057 285.673C265.049 283.968 265.038 281.387 265.021 277.853L265.082 277.914C237.797 277.933 148.73 277.997 43.2168 278.071H43.2059L43.4248 277.853C43.4248 281.4 43.4248 284.929 43.4248 288.207L43.2059 287.989C104.968 288.024 160.405 288.056 200.41 288.079C220.426 288.107 236.58 288.13 247.739 288.146C253.317 288.159 257.646 288.17 260.588 288.177C262.053 288.184 263.172 288.189 263.933 288.192C264.689 288.197 265.083 288.207 265.083 288.207C265.083 288.207 264.709 288.218 263.965 288.223C263.21 288.226 262.101 288.231 260.649 288.238C257.719 288.245 253.408 288.255 247.851 288.269C236.704 288.284 220.568 288.307 200.573 288.335C160.526 288.357 105.032 288.389 43.2067 288.426H42.9878V288.207C42.9878 284.927 42.9878 281.399 42.9878 277.852V277.633H43.2067H43.2177C148.73 277.708 237.798 277.771 265.083 277.79H265.145V277.852C265.129 281.402 265.118 283.995 265.109 285.708C265.103 286.55 265.098 287.175 265.095 287.597C265.091 288.011 265.083 288.207 265.083 288.207Z" fill="#263238"/>
<path d="M265.083 293.961H43.2065V304.316H265.083V293.961Z" fill="#455A64"/>
<path d="M265.083 304.316C265.083 304.316 265.075 304.105 265.071 303.686C265.068 303.261 265.064 302.631 265.057 301.782C265.049 300.077 265.038 297.496 265.021 293.962L265.082 294.023C237.797 294.042 148.73 294.106 43.2168 294.181H43.2059L43.4248 293.962C43.4248 297.509 43.4248 301.038 43.4248 304.316L43.2059 304.098C104.968 304.133 160.405 304.165 200.41 304.189C220.426 304.216 236.58 304.239 247.739 304.255C253.317 304.269 257.646 304.279 260.588 304.286C262.053 304.293 263.172 304.298 263.933 304.301C264.689 304.306 265.083 304.316 265.083 304.316C265.083 304.316 264.709 304.327 263.965 304.332C263.21 304.335 262.101 304.34 260.649 304.347C257.719 304.354 253.408 304.364 247.851 304.378C236.704 304.393 220.568 304.416 200.573 304.444C160.526 304.467 105.032 304.499 43.2067 304.535H42.9878V304.316C42.9878 301.037 42.9878 297.509 42.9878 293.962V293.743H43.2067H43.2177C148.73 293.818 237.798 293.881 265.083 293.9H265.145V293.962C265.129 297.512 265.118 300.105 265.109 301.817C265.103 302.66 265.098 303.285 265.095 303.707C265.091 304.12 265.083 304.316 265.083 304.316Z" fill="#263238"/>
<path d="M269.117 313.104H33.5688V323.459H269.117V313.104Z" fill="#455A64"/>
<path d="M269.117 323.46C269.117 323.46 269.109 323.25 269.105 322.831C269.102 322.407 269.097 321.779 269.092 320.931C269.084 319.228 269.072 316.647 269.057 313.105L269.117 313.165C240.839 313.185 146.028 313.249 33.5808 313.324H33.569L33.7879 313.105C33.7879 316.653 33.7879 320.182 33.7879 323.46L33.569 323.241C99.1095 323.277 157.964 323.309 200.442 323.332C221.695 323.36 238.85 323.383 250.7 323.399C256.624 323.412 261.221 323.423 264.344 323.43C265.901 323.437 267.089 323.442 267.897 323.445C268.698 323.449 269.117 323.46 269.117 323.46C269.117 323.46 268.719 323.47 267.928 323.475C267.127 323.479 265.949 323.484 264.405 323.491C261.293 323.498 256.713 323.508 250.811 323.522C238.973 323.538 221.837 323.56 200.605 323.588C158.085 323.611 99.1734 323.643 33.569 323.679H33.3501V323.46C33.3501 320.182 33.3501 316.653 33.3501 313.105V312.886H33.569H33.5808C146.028 312.962 240.839 313.027 269.117 313.046H269.177V313.105C269.161 316.662 269.151 319.255 269.143 320.965C269.137 321.807 269.132 322.431 269.129 322.852C269.124 323.264 269.117 323.46 269.117 323.46Z" fill="#263238"/>
<g opacity="0.3">
<path d="M260.962 323.46H251.182V326.691H260.962V323.46Z" fill="black"/>
</g>
<path d="M141.714 193.929L139.602 207.564L134.163 219.975L126.103 214.828L123.239 207.584L120.836 201.509C120.836 201.509 112.323 203.557 108.933 195.598C107.296 191.755 104.568 183.568 102.186 176.128C99.6242 168.127 103.635 159.501 111.404 156.304L112.176 155.986C120.699 153.048 127.955 158.645 130.657 167.246L141.714 193.929Z" fill="#A2675F"/>
<path d="M120.825 201.508C120.825 201.508 126.049 199.839 130.034 194.254C130.034 194.254 129.938 201.025 121.658 203.589L120.825 201.508Z" fill="#7A4A45"/>
<path d="M107.385 182.233C107.612 182.845 108.317 183.158 108.961 182.933C109.603 182.708 109.942 182.03 109.714 181.418C109.487 180.806 108.782 180.493 108.14 180.718C107.497 180.943 107.159 181.621 107.385 182.233Z" fill="#263238"/>
<path d="M105.223 178.961C105.426 179.052 106.027 178.055 107.258 177.553C108.48 177.033 109.643 177.294 109.714 177.089C109.752 176.995 109.496 176.786 108.986 176.661C108.482 176.535 107.709 176.53 106.944 176.848C106.181 177.167 105.652 177.714 105.401 178.155C105.143 178.601 105.126 178.923 105.223 178.961Z" fill="#263238"/>
<path d="M118.108 177.452C118.335 178.065 119.04 178.377 119.685 178.151C120.327 177.926 120.666 177.249 120.438 176.637C120.211 176.024 119.505 175.711 118.864 175.936C118.22 176.162 117.881 176.841 118.108 177.452Z" fill="#263238"/>
<path d="M117.33 173.574C117.522 173.686 118.23 172.761 119.507 172.394C120.777 172.011 121.905 172.396 121.998 172.199C122.046 172.11 121.817 171.874 121.321 171.696C120.834 171.515 120.066 171.426 119.271 171.66C118.477 171.895 117.893 172.382 117.595 172.792C117.291 173.207 117.238 173.526 117.33 173.574Z" fill="#263238"/>
<path d="M116.983 185.542C116.96 185.469 116.142 185.652 114.838 186.003C114.511 186.1 114.188 186.16 114.048 185.968C113.88 185.771 113.872 185.379 113.874 184.951C113.856 184.071 113.838 183.147 113.818 182.179C113.707 178.246 113.489 175.064 113.331 175.069C113.173 175.075 113.134 178.267 113.245 182.201C113.28 183.168 113.312 184.09 113.345 184.971C113.374 185.377 113.335 185.866 113.69 186.271C113.871 186.47 114.171 186.546 114.394 186.517C114.621 186.496 114.799 186.426 114.958 186.372C116.232 185.925 117.007 185.613 116.983 185.542Z" fill="#263238"/>
<path d="M114.98 168.34C115.238 168.625 116.401 167.961 117.914 167.541C119.419 167.091 120.757 167.035 120.824 166.656C120.85 166.478 120.518 166.247 119.915 166.117C119.316 165.985 118.445 165.984 117.54 166.245C116.636 166.506 115.899 166.97 115.462 167.4C115.02 167.831 114.862 168.203 114.98 168.34Z" fill="#263238"/>
<path d="M103.468 174.124C103.799 174.314 104.526 173.676 105.539 173.243C106.537 172.775 107.497 172.657 107.575 172.283C107.604 172.106 107.353 171.882 106.868 171.773C106.388 171.663 105.678 171.703 104.987 172.012C104.297 172.322 103.794 172.825 103.558 173.257C103.316 173.691 103.316 174.027 103.468 174.124Z" fill="#263238"/>
<path d="M132.44 173.439C132.552 173.323 137.267 169.551 139.343 175.092C141.418 180.633 135.427 181.574 135.358 181.419C135.29 181.263 132.44 173.439 132.44 173.439Z" fill="#A2675F"/>
<path d="M136.265 178.685C136.283 178.658 136.387 178.716 136.579 178.731C136.765 178.743 137.057 178.691 137.305 178.475C137.81 178.041 137.954 176.927 137.607 175.918C137.432 175.409 137.147 174.969 136.819 174.638C136.499 174.296 136.13 174.111 135.816 174.169C135.497 174.211 135.354 174.465 135.345 174.647C135.329 174.83 135.406 174.927 135.38 174.947C135.369 174.967 135.225 174.899 135.185 174.654C135.167 174.535 135.183 174.38 135.273 174.225C135.365 174.067 135.54 173.939 135.753 173.884C136.192 173.753 136.723 174.003 137.084 174.366C137.468 174.722 137.801 175.213 137.996 175.784C138.38 176.914 138.199 178.173 137.485 178.704C137.133 178.952 136.764 178.956 136.547 178.889C136.325 178.816 136.25 178.703 136.265 178.685Z" fill="#7A4A45"/>
<path d="M97.4575 167.16C97.2613 166.002 97.6293 164.666 98.638 164.064C97.7665 163.228 97.572 161.774 98.1934 160.737C98.8148 159.701 100.19 159.189 101.337 159.564C100.584 157.924 102.079 155.737 103.881 155.845C103.424 154.902 103.705 153.661 104.524 153.007C105.342 152.352 106.615 152.352 107.434 153.007C107.769 150.574 110.864 148.995 113.03 150.152C114.891 148.474 118.071 148.555 119.845 150.327C121.67 149.686 123.864 150.298 125.094 151.792C126.279 151.414 127.656 151.716 128.576 152.553C129.496 153.391 129.925 154.733 129.661 155.949C131.319 156.045 132.507 158.118 131.753 159.598C132.728 159.662 133.638 160.326 133.996 161.235C134.355 162.144 134.143 163.25 133.475 163.964C134.321 163.732 135.081 164.663 135.16 165.536C135.239 166.41 134.913 167.272 134.902 168.149C134.893 168.872 135.097 169.581 135.132 170.304C135.197 171.661 134.62 173.03 133.615 173.942C133.685 173.977 133.755 174.012 133.825 174.047C134.257 174.689 133.478 175.574 132.704 175.567C131.932 175.56 131.276 175.034 130.646 174.585C129.924 174.071 129.135 173.61 128.61 172.896C128.084 172.183 127.904 171.114 128.476 170.437C127.402 170.513 126.397 169.801 125.815 168.896C125.233 167.991 124.994 166.914 124.766 165.863C124.428 164.311 124.092 162.76 123.754 161.209C121.752 161.976 119.332 161.509 117.758 160.052C116.792 161.729 114.179 162.125 112.76 160.809C112.933 163.03 111.063 165.206 108.841 165.369C109.524 166.411 107.925 168.3 106.935 169.057C105.945 169.814 104.226 169.602 104.226 169.602C104.226 169.602 102.777 171.523 101.557 171.536C100.359 171.55 98.43 170.802 98.6607 169.442C98.6624 169.442 97.6537 168.318 97.4575 167.16Z" fill="#263238"/>
<path d="M132.026 159.467C131.965 159.47 132.096 159.88 131.775 160.397C131.616 160.643 131.331 160.889 130.947 160.926C130.57 160.971 130.098 160.804 129.851 160.432L129.651 160.132L129.49 160.46C129.259 160.932 128.695 161.322 128.086 161.315C127.4 161.309 126.797 160.782 126.638 160.214L126.543 159.877L126.297 160.122C125.986 160.434 125.557 160.575 125.187 160.57C124.813 160.569 124.497 160.422 124.272 160.256C123.818 159.91 123.716 159.546 123.664 159.57C123.631 159.568 123.641 159.984 124.113 160.446C124.345 160.665 124.711 160.878 125.173 160.912C125.627 160.947 126.164 160.805 126.584 160.415L126.244 160.324C126.433 161.066 127.165 161.742 128.083 161.761C128.885 161.764 129.58 161.266 129.868 160.639L129.508 160.667C129.886 161.188 130.505 161.358 130.997 161.275C131.509 161.192 131.849 160.833 132 160.523C132.305 159.86 132.049 159.436 132.026 159.467Z" fill="#455A64"/>
<path d="M135.009 164.366C134.968 164.345 134.877 164.6 134.519 164.837C134.191 165.062 133.468 165.261 132.904 164.819L132.718 164.673L132.633 164.896C132.461 165.347 131.992 165.781 131.4 165.861C130.823 165.951 130.129 165.606 129.851 165.006L129.687 164.653L129.463 164.976C129.41 165.054 129.341 165.13 129.261 165.195C128.897 165.49 128.351 165.525 128.004 165.281C127.641 165.044 127.454 164.587 127.511 164.211L127.575 163.788L127.213 164.007C126.768 164.276 126.245 164.321 125.825 164.219C125.401 164.12 125.079 163.878 124.865 163.638C124.436 163.144 124.402 162.721 124.347 162.736C124.319 162.727 124.258 163.183 124.68 163.788C124.89 164.078 125.242 164.39 125.739 164.539C126.229 164.686 126.851 164.667 127.415 164.351L127.117 164.146C127.024 164.683 127.256 165.291 127.762 165.64C128.277 166.003 129.03 165.954 129.539 165.541C129.655 165.449 129.756 165.338 129.833 165.223L129.447 165.193C129.826 165.987 130.701 166.399 131.461 166.271C132.223 166.144 132.77 165.589 132.959 165.013L132.687 165.09C133.062 165.366 133.497 165.411 133.836 165.354C134.182 165.301 134.45 165.147 134.634 164.992C135.008 164.667 135.032 164.366 135.009 164.366Z" fill="#455A64"/>
<path d="M104.533 155.393C104.569 155.411 104.619 155.103 105.003 154.784C105.193 154.633 105.477 154.489 105.82 154.5C106.158 154.507 106.561 154.67 106.81 155.017L107.012 155.299L107.061 154.952C107.148 154.33 107.602 153.624 108.356 153.311C109.088 152.995 110.14 153.204 110.727 153.94L110.98 154.257L111.086 153.865C111.28 153.147 111.85 152.488 112.602 152.177C113.346 151.853 114.28 151.97 114.989 152.465C115.279 152.662 115.52 152.92 115.699 153.207L115.828 153.413L116.022 153.27C116.969 152.572 118.369 152.691 119.132 153.415C119.92 154.139 120.113 155.299 119.799 156.13L119.681 156.441L120.004 156.37C120.777 156.2 121.538 156.397 122.075 156.742C122.622 157.085 122.95 157.577 123.129 158.003C123.484 158.879 123.329 159.45 123.388 159.446C123.404 159.449 123.452 159.318 123.474 159.057C123.494 158.798 123.485 158.402 123.319 157.93C123.158 157.464 122.828 156.907 122.234 156.501C121.652 156.098 120.818 155.848 119.928 156.02L120.132 156.26C120.517 155.3 120.33 153.982 119.414 153.111C118.503 152.241 116.902 152.086 115.756 152.915L116.077 152.978C115.864 152.634 115.58 152.331 115.241 152.101C114.419 151.524 113.314 151.387 112.433 151.777C111.556 152.149 110.908 152.912 110.689 153.763L111.046 153.687C110.313 152.802 109.086 152.593 108.216 152.987C107.337 153.381 106.855 154.202 106.782 154.92L107.033 154.854C106.702 154.434 106.217 154.272 105.818 154.285C105.408 154.297 105.095 154.487 104.901 154.674C104.704 154.864 104.61 155.057 104.565 155.187C104.523 155.317 104.523 155.39 104.533 155.393Z" fill="#455A64"/>
<path d="M120.638 184.201C120.433 184.272 120.98 185.607 120.227 187.024C119.478 188.443 117.994 188.879 118.06 189.069C118.076 189.16 118.483 189.198 119.09 188.968C119.687 188.745 120.47 188.202 120.93 187.336C121.387 186.468 121.369 185.57 121.189 185.004C121.011 184.425 120.726 184.156 120.638 184.201Z" fill="#263238"/>
<path d="M112.435 208.451L105.761 227.243L107.303 247.788L111.553 283.278C111.553 283.278 127.187 277.999 127.89 278.525C128.592 279.052 120.974 242.543 120.974 242.543L126.485 212.842L126.13 204.094L112.435 208.451Z" fill="#FFB744"/>
<path d="M112.435 208.451L105.094 225.302L89.973 231.25L74.0508 236.146L76.3174 247.556C76.7814 249.895 79.1264 251.352 81.4284 250.735L94.844 247.135L107.342 246.561L113.839 231.457L112.435 208.451Z" fill="#FFB744"/>
<path d="M79.2744 231.458L80.3859 230.079C80.3859 230.079 82.442 230.069 83.5535 230.769C84.6649 231.468 86.3877 234.025 86.6099 235.358C86.8322 236.692 86.6099 239.248 86.6099 239.248L78.9966 231.458" fill="#A2675F"/>
<path d="M64.4976 223.274C64.4976 223.504 78.788 238.669 78.788 238.669L81.4782 241.325H90.1213L73.4472 222.815L66.2573 221.592L64.4976 223.274Z" fill="#263238"/>
<path d="M122.551 256.962C122.538 256.969 122.425 256.787 122.224 256.433C122.009 256.037 121.726 255.517 121.372 254.866C120.649 253.498 119.624 251.505 118.431 249.005C117.247 246.503 115.854 243.509 114.638 240.041C114.347 239.168 114.056 238.271 113.854 237.319C113.718 236.855 113.705 236.346 113.63 235.853C113.613 235.362 113.594 234.867 113.592 234.367C113.569 232.371 113.62 230.308 113.697 228.197C113.796 225.525 113.935 222.936 114.093 220.477L114.102 220.348L114.219 220.297C115.757 219.622 117.237 218.972 118.653 218.352L118.708 218.732C117.526 218.579 116.389 218.432 115.301 218.291L115.021 218.255L115.162 218.013C117.347 214.252 119.17 211.113 120.473 208.868C121.105 207.804 121.611 206.953 121.983 206.327C122.147 206.061 122.282 205.844 122.393 205.665C122.488 205.517 122.542 205.443 122.55 205.448C122.559 205.453 122.522 205.536 122.443 205.694C122.346 205.88 122.227 206.106 122.082 206.383C121.732 207.022 121.256 207.89 120.662 208.975C119.391 211.239 117.614 214.405 115.486 218.198L115.347 217.921C116.436 218.053 117.575 218.192 118.758 218.335L119.474 218.422L118.813 218.715C117.401 219.344 115.924 220.001 114.39 220.683L114.517 220.503C114.368 222.957 114.234 225.544 114.135 228.211C114.058 230.318 114.005 232.377 114.022 234.361C114.022 234.857 114.04 235.347 114.054 235.832C114.128 236.303 114.132 236.772 114.264 237.231C114.455 238.155 114.739 239.045 115.02 239.909C116.204 243.354 117.566 246.358 118.712 248.872C119.867 251.383 120.848 253.395 121.524 254.786C121.846 255.451 122.105 255.984 122.301 256.389C122.477 256.759 122.564 256.955 122.551 256.962Z" fill="#263238"/>
<path d="M72.9385 231.458C72.9385 231.458 70.7712 233.024 70.8267 233.914C70.8823 234.803 71.3816 235.747 71.8818 235.914C72.3828 236.081 73.8832 236.859 73.8832 236.859C73.8832 236.859 72.5495 238.137 72.9385 239.471C73.3275 240.804 74.2166 241.138 74.2166 241.138C74.2166 241.138 74.2722 242.861 74.7724 243.861C75.2725 244.861 76.8841 245.195 76.8841 245.195C76.8841 245.195 77.7732 247.007 78.5512 247.908C79.3293 248.808 80.8853 249.085 80.8853 249.085C80.8853 249.085 82.8859 249.307 83.9417 248.585C84.9976 247.862 86.1646 247.14 86.2202 244.694C86.2202 244.694 90.9994 242.305 91.0549 241.082C91.1105 239.86 90.5548 239.471 90.5548 239.471L88.1652 239.915C88.1652 239.915 87.8318 238.637 87.1093 238.526C86.3869 238.415 77.6613 240.527 77.6613 240.527C77.6613 240.527 83.6075 239.582 83.7742 238.415C83.9409 237.248 83.9965 236.248 83.1073 236.025C82.2182 235.803 75.8838 236.482 75.8838 236.482L75.552 235.358C75.552 235.358 77.2714 235.414 77.2714 233.914C77.2714 232.413 76.3267 232.08 76.3267 232.08L72.9385 231.458Z" fill="#A2675F"/>
<path d="M122.551 205.449L123.282 211.251L118.789 236.48L123.343 258.269L146.952 265.244L156.239 261.243L153.071 200.089L144.633 194.163L141.393 191.986L129.229 210.391L122.551 205.449Z" fill="#FAFAFA"/>
<path d="M143.943 193.699L149.843 196.333L170.742 199.143L182.015 258.438L183.432 265.245L205.042 297.586C206.033 299.07 205.559 301.082 204.01 301.968L186.305 312.084C184.945 312.778 183.281 312.342 182.437 311.07L159.942 277.17L148.788 262.896C148.788 262.896 142.115 242.699 141.236 234.094C140.358 225.488 140.736 216.27 141.236 211.438C141.774 206.266 143.943 193.699 143.943 193.699Z" fill="#FFB744"/>
<path d="M170.742 199.143C173.499 200.59 175.443 203.217 176.021 206.276C177.351 213.313 181.362 225.591 182.866 238.699C184.969 257.039 180.041 262.697 177.713 265.86C175.435 268.955 160.972 275.751 160.972 275.751L150.137 261.312L162.137 251.479L161.084 226.014C161.084 226.014 156.869 220.218 158.976 211.613C161.083 203.007 167.23 198.616 170.742 199.143Z" fill="#FFB744"/>
<g opacity="0.3">
<path d="M181.924 257.951C180.281 262.403 178.405 266.155 174.578 268.273C170.508 270.525 164.838 273.709 160.971 275.751L163.805 280.143C168.243 279.463 176.424 274.289 179.094 270.681C181.764 267.073 182.569 262.393 181.924 257.951Z" fill="black"/>
</g>
<path d="M160.79 227.365C160.797 227.364 160.824 227.493 160.868 227.746C160.913 228.019 160.975 228.391 161.054 228.868C161.211 229.879 161.436 231.333 161.726 233.195C162.293 236.98 163.109 242.424 164.119 249.154L164.132 249.238L164.067 249.295C160.076 252.812 155.402 256.934 150.267 261.459L150.295 261.193C153.632 265.63 157.299 270.506 161.144 275.62L160.876 275.556C164.479 273.74 168.204 271.772 171.897 269.588C172.946 268.957 173.984 268.323 174.981 267.646C175.983 266.982 176.958 266.267 177.774 265.454C179.26 263.666 180.384 261.548 181.202 259.421C182.846 255.122 183.259 250.62 183.223 246.399C183.163 242.162 182.66 238.152 182.075 234.424C181.494 230.694 180.822 227.238 180.157 224.096C178.829 217.809 177.556 212.766 176.659 209.286C176.207 207.565 175.853 206.22 175.606 205.283C175.49 204.841 175.399 204.496 175.333 204.241C175.273 204.006 175.245 203.885 175.253 203.883C175.253 203.883 175.302 203.998 175.376 204.229C175.453 204.48 175.558 204.822 175.692 205.259C175.963 206.165 176.349 207.507 176.825 209.241C177.772 212.709 179.093 217.745 180.461 224.03C181.146 227.172 181.836 230.629 182.435 234.366C183.036 238.099 183.556 242.125 183.627 246.393C183.674 250.643 183.268 255.198 181.603 259.573C180.762 261.752 179.656 263.864 178.093 265.749C177.22 266.62 176.238 267.333 175.225 268.008C174.218 268.691 173.175 269.33 172.121 269.963C168.411 272.156 164.684 274.123 161.067 275.941L160.907 276.022L160.798 275.877C156.963 270.755 153.305 265.872 149.977 261.427L149.867 261.281L150.005 261.161C155.159 256.657 159.852 252.555 163.857 249.055L163.805 249.197C162.855 242.458 162.086 237.007 161.552 233.218C161.298 231.35 161.1 229.892 160.963 228.878C160.902 228.398 160.856 228.024 160.822 227.749C160.793 227.497 160.782 227.366 160.79 227.365Z" fill="#263238"/>
<path d="M145.524 249.122C145.509 249.119 145.526 248.917 145.57 248.535C145.626 248.11 145.697 247.556 145.787 246.866C146.001 245.369 146.299 243.29 146.664 240.742C147.402 235.571 148.554 228.45 149.673 220.56C150.193 216.741 150.689 213.098 151.141 209.781L151.27 209.998C150.026 209.521 148.835 209.063 147.7 208.627L147.353 208.494L147.663 208.293C148.945 207.463 150.144 206.687 151.25 205.97L151.178 206.133C150.752 203.154 150.403 200.719 150.153 198.976C150.047 198.163 149.962 197.513 149.898 197.02C149.845 196.573 149.825 196.335 149.841 196.333C149.857 196.33 149.909 196.562 149.992 197.005C150.079 197.495 150.193 198.14 150.335 198.947C150.62 200.686 151.017 203.112 151.504 206.082L151.521 206.186L151.431 206.245C150.333 206.973 149.142 207.763 147.87 208.607L147.834 208.273C148.972 208.701 150.166 209.149 151.414 209.617L151.565 209.673L151.543 209.834C151.101 213.153 150.616 216.797 150.107 220.618C148.988 228.509 147.786 235.629 146.971 240.788C146.548 243.328 146.203 245.4 145.955 246.892C145.832 247.576 145.733 248.126 145.657 248.547C145.585 248.927 145.539 249.124 145.524 249.122Z" fill="#263238"/>
<path d="M167.576 199.938C167.629 200.009 166.557 200.745 165.118 202.241C164.394 202.982 163.615 203.943 162.841 205.071C162.09 206.213 161.356 207.531 160.749 208.989C160.161 210.455 159.763 211.91 159.499 213.252C159.262 214.599 159.145 215.831 159.144 216.867C159.124 218.942 159.374 220.218 159.287 220.232C159.257 220.238 159.182 219.923 159.074 219.345C159.014 219.057 158.954 218.702 158.925 218.285C158.89 217.869 158.825 217.395 158.835 216.869C158.796 215.816 158.883 214.558 159.102 213.181C159.348 211.808 159.743 210.319 160.343 208.823C160.962 207.334 161.723 205.994 162.507 204.843C163.316 203.706 164.133 202.748 164.899 202.023C165.261 201.64 165.64 201.347 165.955 201.075C166.269 200.798 166.559 200.586 166.804 200.422C167.285 200.086 167.559 199.914 167.576 199.938Z" fill="#263238"/>
<path d="M107.211 246.571C107.09 246.58 106.704 242.493 106.347 237.445C105.99 232.395 105.798 228.296 105.92 228.287C106.04 228.279 106.427 232.364 106.784 237.415C107.141 242.462 107.333 246.563 107.211 246.571Z" fill="#263238"/>
<path d="M178.396 283.742L181.639 290.366L196.653 280.757L191.454 274.873L178.396 283.742Z" fill="#FFB744"/>
<path d="M178.396 283.742C178.373 283.736 178.689 283.501 179.296 283.067C179.957 282.601 180.845 281.975 181.942 281.201C184.298 279.572 187.546 277.325 191.338 274.703L191.486 274.601L191.608 274.737C193.218 276.553 194.979 278.539 196.818 280.612L196.988 280.804L196.772 280.943C196.564 281.076 196.34 281.219 196.115 281.364C190.53 284.909 185.469 288.122 181.725 290.499L181.574 290.595L181.499 290.436C180.539 288.398 179.753 286.73 179.18 285.514C178.935 284.976 178.735 284.539 178.578 284.193C178.444 283.892 178.381 283.738 178.396 283.742C178.411 283.746 178.503 283.908 178.664 284.211C178.845 284.555 179.072 284.99 179.352 285.526C179.952 286.704 180.775 288.321 181.781 290.297L181.555 290.234C185.282 287.83 190.319 284.579 195.877 280.993C196.102 280.849 196.327 280.706 196.534 280.573L196.488 280.902C194.656 278.822 192.903 276.83 191.299 275.008L191.567 275.042C187.774 277.572 184.524 279.739 182.167 281.31C181.029 282.056 180.108 282.658 179.422 283.106C179.125 283.296 178.879 283.453 178.674 283.582C178.503 283.691 178.407 283.745 178.396 283.742Z" fill="#263238"/>
<g opacity="0.3">
<path d="M178.541 284.039C178.604 284.167 181.871 294.207 181.871 294.207L195.874 284.266L194.672 282.025L181.639 290.366L178.541 284.039Z" fill="black"/>
</g>
<g opacity="0.3">
<path d="M150.268 199.101L152.755 207.308L150.268 208.451L153.589 210.086C153.589 210.086 148.354 238.713 147.694 241.326C147.034 243.938 146.232 244.778 146.232 244.778L151.343 209.809L147.768 208.452L151.343 206.109L150.268 199.101Z" fill="black"/>
</g>
<path d="M94.8686 243.834C94.7237 243.838 94.9915 241.123 93.9179 238.027C92.8848 234.918 91.0198 232.927 91.1377 232.842C91.1739 232.807 91.6866 233.251 92.3501 234.12C93.0136 234.984 93.7925 236.301 94.333 237.887C94.8686 239.473 95.053 240.992 95.0521 242.082C95.0546 243.175 94.9191 243.84 94.8686 243.834Z" fill="#263238"/>
<g opacity="0.3">
<path d="M105.825 227.477C103.328 233.702 104.229 240.535 107.151 246.571C106.7 239.626 106.434 234.211 105.825 227.477Z" fill="black"/>
</g>
<path d="M142.157 198.885C142.182 198.902 142.023 199.195 141.713 199.711C141.357 200.308 140.922 201.037 140.41 201.895C139.32 203.743 137.864 206.326 136.427 209.266C135.454 211.244 134.618 213.133 133.94 214.739L133.842 214.97L133.649 214.816C132.268 213.712 131.217 212.679 130.518 211.926C129.819 211.173 129.464 210.704 129.492 210.679C129.524 210.651 129.934 211.067 130.674 211.771C131.415 212.474 132.493 213.457 133.882 214.519L133.591 214.596C134.237 212.969 135.056 211.062 136.034 209.073C137.478 206.118 138.985 203.546 140.146 201.732C140.728 200.826 141.219 200.106 141.571 199.617C141.924 199.13 142.132 198.869 142.157 198.885Z" fill="#263238"/>
<path d="M128.331 210.519C128.442 210.561 127.817 212.466 126.928 214.804L126.816 215.098L126.579 214.892C126.545 214.862 126.508 214.83 126.47 214.797C124.515 213.094 123.261 211.397 123.352 211.327C123.449 211.244 124.835 212.792 126.759 214.467C126.796 214.499 126.832 214.532 126.866 214.561L126.519 214.649C127.414 212.313 128.219 210.477 128.331 210.519Z" fill="#263238"/>
<path d="M130.801 253.589C130.785 253.589 130.764 253.448 130.735 253.177C130.707 252.855 130.673 252.464 130.631 251.991C130.558 250.892 130.459 249.417 130.339 247.625C130.115 243.938 129.849 238.842 129.627 233.209C129.411 227.574 129.283 222.47 129.283 218.773C129.279 216.925 129.305 215.43 129.341 214.397C129.365 213.923 129.385 213.53 129.402 213.208C129.421 212.936 129.437 212.794 129.453 212.794C129.468 212.795 129.48 212.938 129.49 213.21C129.496 213.532 129.504 213.924 129.512 214.398C129.533 215.499 129.56 216.976 129.593 218.769C129.673 222.461 129.849 227.559 130.066 233.191C130.293 238.79 130.498 243.856 130.651 247.609C130.714 249.404 130.765 250.881 130.804 251.981C130.812 252.455 130.819 252.848 130.825 253.171C130.823 253.445 130.816 253.588 130.801 253.589Z" fill="#263238"/>
<path d="M81.5067 367.294L83.6858 387.854C83.6858 387.854 63.5199 396.974 63.5528 400.813L103.57 398.019L101.488 365.845L81.5067 367.294Z" fill="#FFB744"/>
<path d="M95.9385 385.256C96.7274 385.414 97.3236 386.247 97.199 387.042C97.0735 387.837 96.2315 388.451 95.4392 388.307C94.6477 388.164 93.9009 387.185 94.1147 386.409C94.3277 385.634 95.3567 384.968 96.0909 385.297" fill="#E0E0E0"/>
<path d="M103.656 398.859L103.458 395.741L64.9907 398.672C64.9907 398.672 63.2638 399.572 63.5526 400.812L103.656 398.859Z" fill="#E0E0E0"/>
<path d="M83.0229 387.696C83.0431 387.891 84.0265 387.911 85.031 388.472C86.0515 389.007 86.6056 389.818 86.7799 389.729C86.9575 389.679 86.5845 388.531 85.3552 387.872C84.1326 387.204 82.9681 387.519 83.0229 387.696Z" fill="#263238"/>
<path d="M78.9471 389.725C78.9159 389.918 79.7849 390.19 80.5065 390.971C81.2508 391.73 81.4807 392.612 81.6743 392.59C81.8604 392.608 81.9151 391.454 80.9999 390.501C80.0939 389.54 78.9387 389.538 78.9471 389.725Z" fill="#263238"/>
<path d="M76.9144 394.914C77.0946 394.944 77.2983 393.948 76.7224 392.914C76.1532 391.874 75.2026 391.516 75.131 391.685C75.0317 391.853 75.6648 392.386 76.1254 393.244C76.6054 394.089 76.7182 394.909 76.9144 394.914Z" fill="#263238"/>
<path d="M83.0464 382.955C83.1407 383.128 84.0181 382.795 85.1279 382.793C86.2376 382.769 87.1226 383.08 87.2135 382.905C87.3171 382.756 86.4271 382.09 85.1203 382.111C83.8127 382.122 82.9395 382.808 83.0464 382.955Z" fill="#263238"/>
<path d="M74.3809 284.332L55.8477 293.496C55.8477 293.496 40.3077 277.736 36.7183 279.096L53.1979 315.668L82.6603 302.574L74.3809 284.332Z" fill="#FFB744"/>
<path d="M62.5281 304.091C62.6536 304.886 62.0785 305.734 61.2895 305.892C60.5006 306.05 59.6333 305.472 59.4944 304.679C59.3546 303.887 60.0147 302.848 60.8163 302.779C61.6179 302.711 62.5988 303.444 62.5441 304.247" fill="#E0E0E0"/>
<path d="M52.4402 316.042L55.2963 314.777L39.225 279.705C39.225 279.705 37.7827 278.395 36.7192 279.097L52.4402 316.042Z" fill="#E0E0E0"/>
<path d="M55.7668 292.82C55.5909 292.907 55.9125 293.835 55.734 294.973C55.585 296.115 55.0158 296.917 55.1606 297.049C55.2701 297.198 56.2173 296.451 56.4084 295.07C56.613 293.691 55.9133 292.707 55.7668 292.82Z" fill="#263238"/>
<path d="M52.4517 289.699C52.2605 289.736 52.3052 290.646 51.8227 291.593C51.3688 292.554 50.6211 293.075 50.7087 293.249C50.7567 293.429 51.858 293.082 52.4348 291.894C53.0225 290.711 52.6234 289.626 52.4517 289.699Z" fill="#263238"/>
<path d="M46.8797 289.589C46.9151 289.768 47.9187 289.615 48.69 288.716C49.468 287.822 49.4748 286.806 49.2912 286.797C49.0992 286.762 48.8188 287.541 48.1739 288.27C47.5474 289.013 46.8174 289.403 46.8797 289.589Z" fill="#263238"/>
<path d="M60.2225 291.2C60.0937 291.348 60.7092 292.056 61.0948 293.097C61.5023 294.129 61.5175 295.067 61.712 295.091C61.888 295.137 62.2037 294.072 61.7314 292.853C61.2691 291.631 60.3227 291.049 60.2225 291.2Z" fill="#263238"/>
<path d="M83.4292 295.988C83.4292 295.988 76.7925 297.341 75.4403 304.468C74.088 311.596 78.996 383.329 78.996 383.329L104.169 381.312L102.632 332.975L102.012 323.231L104.169 321.578L148.416 313.792L141.684 295.497L134.284 282.621L100.39 291.074L83.4292 295.988Z" fill="#263238"/>
<path d="M166.74 283.902C166.74 283.902 148.433 257.439 143.082 253.589C138.668 250.412 132.034 250.417 127.936 252.262C123.837 254.106 59.689 285.904 59.689 285.904L69.0933 309.446L130.109 288.301L139.203 302.574L147.668 313.792L171.444 313.978C172.571 313.978 177.675 303.892 177.675 303.892L166.74 283.902Z" fill="#263238"/>
<path d="M75.2051 310.001C75.1976 310.001 75.1934 309.918 75.1934 309.753C75.1959 309.565 75.1984 309.326 75.2018 309.027C75.2094 308.697 75.2195 308.303 75.2296 307.844C75.2708 307.378 75.3441 306.843 75.414 306.238C75.4569 305.628 75.6674 304.978 75.8097 304.251C75.8804 303.885 76.037 303.528 76.1549 303.143C76.2779 302.758 76.4117 302.361 76.6096 301.973C77.3034 300.394 78.4334 298.676 80.2066 297.358C81.0907 296.706 82.1205 296.151 83.301 295.842C84.4705 295.644 85.6872 295.438 86.946 295.225C89.461 294.804 92.147 294.355 94.9711 293.882C100.628 292.945 106.842 291.916 113.365 290.836C119.27 289.869 124.92 288.943 130.075 288.099L130.208 288.077L130.28 288.191C135.172 295.83 139.147 302.474 142.487 306.818C144.109 308.994 145.401 310.728 146.309 311.947C146.741 312.523 147.08 312.977 147.33 313.309C147.434 313.452 147.518 313.568 147.588 313.664C147.644 313.745 147.671 313.788 147.666 313.792C147.662 313.795 147.626 313.76 147.56 313.685C147.482 313.595 147.39 313.486 147.275 313.351C147.013 313.028 146.656 312.588 146.202 312.028C145.274 310.866 143.932 309.157 142.283 306.968C138.88 302.658 134.844 296.021 129.933 288.411L130.14 288.503C124.987 289.356 119.339 290.291 113.436 291.268C106.911 292.337 100.696 293.355 95.0368 294.281C92.2093 294.739 89.5225 295.175 87.0049 295.583C85.7512 295.787 84.5396 295.983 83.3742 296.172C82.2611 296.454 81.2465 296.984 80.3877 297.609C78.6565 298.871 77.5333 300.533 76.8302 302.075C76.6307 302.453 76.4926 302.842 76.3663 303.219C76.245 303.596 76.0842 303.946 76.0084 304.306C75.8569 305.022 75.6354 305.661 75.5798 306.265C75.4965 306.859 75.4215 307.389 75.3567 307.855C75.3298 308.311 75.3062 308.703 75.2868 309.03C75.2658 309.328 75.2481 309.566 75.2346 309.754C75.2237 309.918 75.2127 310.001 75.2051 310.001Z" fill="#455A64"/>
<path d="M138.845 271.974C138.876 271.972 138.908 272.241 138.941 272.732C138.984 273.222 138.973 273.937 138.897 274.815C138.827 275.695 138.638 276.733 138.333 277.86C138.007 278.981 137.552 280.187 136.931 281.387C136.297 282.579 135.563 283.64 134.826 284.546C134.072 285.437 133.325 286.182 132.641 286.74C131.964 287.302 131.381 287.717 130.953 287.96C130.53 288.212 130.29 288.338 130.274 288.312C130.23 288.243 131.154 287.671 132.437 286.506C133.083 285.929 133.792 285.176 134.512 284.29C135.216 283.389 135.923 282.347 136.542 281.182C137.148 280.01 137.604 278.837 137.944 277.746C138.263 276.648 138.48 275.638 138.588 274.778C138.817 273.061 138.763 271.976 138.845 271.974Z" fill="#455A64"/>
<path d="M351.034 355.9L240.853 355.834C227.602 355.827 216.864 345.081 216.866 331.83L216.92 55.6039C216.923 42.345 227.676 31.6002 240.935 31.6078L351.116 31.6726C364.368 31.681 375.105 42.4266 375.102 55.678L375.049 331.905C375.046 345.163 364.293 355.908 351.034 355.9Z" fill="#263238"/>
<path d="M350.999 41.4424L329.637 41.4298C326.772 41.4281 324.448 43.8556 324.449 46.8497L324.448 50.7246C324.448 53.7196 322.124 56.1462 319.26 56.1446L277.621 56.1201C274.756 56.1185 272.434 53.6893 272.435 50.6943L272.436 46.8194C272.436 43.8244 270.113 41.3952 267.249 41.3936L259.736 41.3885L241.038 41.3776C231.753 41.3725 224.222 48.8975 224.22 58.183L224.167 327.799C224.165 337.08 231.685 344.606 240.966 344.612L350.927 344.676C360.211 344.682 367.742 337.157 367.745 327.871L367.798 58.2538C367.8 48.9741 360.28 41.4483 350.999 41.4424Z" fill="white"/>
<path d="M367.798 58.2546C367.8 48.9741 360.28 41.4483 350.999 41.4424L329.637 41.4298C326.772 41.4281 324.448 43.8556 324.449 46.8497L324.448 50.7246C324.448 53.7196 322.124 56.1462 319.26 56.1446L277.621 56.1201C274.756 56.1185 272.434 53.6893 272.435 50.6943L272.436 46.8194C272.436 43.8244 270.113 41.3952 267.249 41.3936L259.736 41.3885L241.038 41.3776C231.753 41.3725 224.222 48.8975 224.22 58.183L224.167 83.9651H367.795L367.798 58.2546Z" fill="#F5F5F5"/>
<path d="M356.112 67.7279C356.113 67.8079 353.539 67.8946 350.365 67.9207C347.189 67.9468 344.615 67.903 344.614 67.823C344.613 67.7422 347.186 67.6563 350.362 67.6302C353.536 67.6041 356.111 67.6479 356.112 67.7279Z" fill="#263238"/>
<path d="M356.136 70.6698C356.136 70.7498 353.562 70.8365 350.388 70.8626C347.212 70.8887 344.638 70.8449 344.637 70.7649C344.636 70.6849 347.21 70.5982 350.386 70.5721C353.561 70.546 356.136 70.5898 356.136 70.6698Z" fill="#263238"/>
<path d="M356.16 73.6118C356.161 73.6918 353.587 73.7785 350.412 73.8046C347.236 73.8307 344.662 73.7869 344.662 73.7061C344.661 73.6261 347.234 73.5394 350.41 73.5132C353.585 73.488 356.16 73.5318 356.16 73.6118Z" fill="#263238"/>
<path d="M256.064 271.324L256.643 270.103C257.457 270.839 258.85 271.371 260.259 271.371C262.152 271.371 262.966 270.635 262.966 269.68C262.966 267.004 256.331 268.694 256.331 264.625C256.331 262.936 257.645 261.496 260.524 261.496C261.807 261.496 263.137 261.84 264.045 262.466L263.529 263.717C262.574 263.106 261.495 262.825 260.525 262.825C258.662 262.825 257.865 263.607 257.865 264.562C257.865 267.238 264.5 265.563 264.5 269.586C264.5 271.26 263.154 272.699 260.26 272.699C258.583 272.699 256.94 272.137 256.064 271.324Z" fill="#263238"/>
<path d="M265.797 268.428C265.797 265.955 267.628 264.202 270.179 264.202C271.666 264.202 272.902 264.812 273.559 265.971L272.418 266.706C271.885 265.893 271.071 265.517 270.163 265.517C268.536 265.517 267.315 266.66 267.315 268.428C267.315 270.227 268.536 271.355 270.163 271.355C271.071 271.355 271.885 270.979 272.418 270.165L273.559 270.885C272.903 272.043 271.666 272.668 270.179 272.668C267.628 272.668 265.797 270.901 265.797 268.428Z" fill="#263238"/>
<path d="M282.072 267.567V272.575H280.648V271.479C280.147 272.23 279.224 272.668 277.926 272.668C276.048 272.668 274.858 271.667 274.858 270.227C274.858 268.898 275.718 267.801 278.191 267.801H280.57V267.505C280.57 266.237 279.835 265.502 278.348 265.502C277.362 265.502 276.361 265.846 275.718 266.394L275.092 265.267C275.953 264.579 277.189 264.203 278.519 264.203C280.788 264.203 282.072 265.297 282.072 267.567ZM280.569 270.04V268.882H278.253C276.766 268.882 276.344 269.461 276.344 270.164C276.344 270.993 277.032 271.51 278.174 271.51C279.302 271.51 280.193 270.994 280.569 270.04Z" fill="#263238"/>
<path d="M292.728 267.801V272.575H291.226V267.974C291.226 266.346 290.412 265.548 288.988 265.548C287.392 265.548 286.359 266.503 286.359 268.302V272.575H284.857V264.28H286.297V265.532C286.907 264.687 287.971 264.202 289.286 264.202C291.303 264.203 292.728 265.361 292.728 267.801Z" fill="#263238"/>
<path d="M303.384 267.801V272.575H301.882V267.974C301.882 266.346 301.068 265.548 299.644 265.548C298.048 265.548 297.015 266.503 297.015 268.302V272.575H295.513V264.28H296.953V265.532C297.563 264.687 298.627 264.202 299.942 264.202C301.96 264.203 303.384 265.361 303.384 267.801Z" fill="#263238"/>
<path d="M305.903 261.714C305.903 261.166 306.341 260.728 306.92 260.728C307.5 260.728 307.937 261.15 307.937 261.683C307.937 262.246 307.515 262.684 306.92 262.684C306.342 262.685 305.903 262.262 305.903 261.714ZM306.17 264.28H307.672V272.575H306.17V264.28Z" fill="#263238"/>
<path d="M318.407 267.801V272.575H316.905V267.974C316.905 266.346 316.091 265.548 314.667 265.548C313.071 265.548 312.038 266.503 312.038 268.302V272.575H310.536V264.28H311.976V265.532C312.586 264.687 313.65 264.202 314.965 264.202C316.982 264.203 318.407 265.361 318.407 267.801Z" fill="#263238"/>
<path d="M329.172 264.28V271.448C329.172 274.375 327.685 275.704 324.869 275.704C323.351 275.704 321.818 275.282 320.91 274.468L321.63 273.31C322.396 273.967 323.602 274.39 324.822 274.39C326.778 274.39 327.67 273.482 327.67 271.604V270.947C326.95 271.807 325.87 272.23 324.681 272.23C322.287 272.23 320.471 270.602 320.471 268.208C320.471 265.813 322.287 264.202 324.681 264.202C325.917 264.202 327.044 264.656 327.749 265.563V264.28H329.172ZM327.701 268.208C327.701 266.597 326.512 265.517 324.853 265.517C323.179 265.517 321.989 266.597 321.989 268.208C321.989 269.804 323.179 270.916 324.853 270.916C326.512 270.916 327.701 269.805 327.701 268.208Z" fill="#263238"/>
<path d="M331.331 271.589C331.331 270.963 331.816 270.524 332.396 270.524C332.959 270.524 333.429 270.963 333.429 271.589C333.429 272.214 332.959 272.668 332.396 272.668C331.816 272.668 331.331 272.214 331.331 271.589Z" fill="#263238"/>
<path d="M334.883 271.589C334.883 270.963 335.368 270.524 335.948 270.524C336.511 270.524 336.981 270.963 336.981 271.589C336.981 272.214 336.511 272.668 335.948 272.668C335.368 272.668 334.883 272.214 334.883 271.589Z" fill="#263238"/>
<path d="M338.435 271.589C338.435 270.963 338.92 270.524 339.5 270.524C340.063 270.524 340.533 270.963 340.533 271.589C340.533 272.214 340.063 272.668 339.5 272.668C338.92 272.668 338.435 272.214 338.435 271.589Z" fill="#263238"/>
<path d="M247.668 185.977V191.19H252.881V185.977V180.764H247.668V185.977Z" fill="#263238"/>
<path d="M252.881 154.699H247.668V159.912H252.881V154.699Z" fill="#263238"/>
<path d="M285.094 212.095H279.881V217.308H285.094V212.095Z" fill="#263238"/>
<path d="M252.881 165.125V170.337H247.668V175.551H252.881V180.764H258.094H263.307V185.977H268.521V180.764H273.733V175.551V170.337H268.521V175.551H263.307H258.094V170.337V165.125V159.912H252.881V165.125Z" fill="#263238"/>
<path d="M263.307 154.699H258.094V159.912H263.307H268.52V154.699H263.307Z" fill="#263238"/>
<path d="M286.766 196.606H289.567V191.393H286.766H283.965V196.606H286.766Z" fill="#263238"/>
<path d="M273.733 159.912H268.521V165.125H273.733V159.912Z" fill="#263238"/>
<path d="M310.224 180.764H305.011V185.977H310.224V180.764Z" fill="#263238"/>
<path d="M315.437 123.421H310.225V128.634H315.437V123.421Z" fill="#263238"/>
<path d="M284.159 165.125V159.912H289.373V154.699H284.159V149.486H278.946V154.699H273.733V159.912H278.946V165.125V170.337V175.551V180.764H284.159V175.551V170.337H289.373V165.125H284.159Z" fill="#263238"/>
<path d="M310.224 217.254H315.437V212.042H310.224H305.011V217.254H310.224Z" fill="#263238"/>
<path d="M305.011 123.421H299.798V128.634H305.011V123.421Z" fill="#263238"/>
<path d="M303.707 165.125V159.912H298.494V154.699H293.282V159.912V165.125H288.069V170.337H293.282H298.494V165.125H303.707Z" fill="#263238"/>
<path d="M333.131 154.699H327.918V159.912H333.131V154.699Z" fill="#263238"/>
<path d="M279.096 180.764H273.883V185.977H279.096V180.764Z" fill="#263238"/>
<path d="M299.798 149.486V144.273H305.011V139.06H310.225H315.438V133.847H310.225V128.634H305.011V133.847H299.798V139.06H294.585V144.273H289.373V149.486H294.585H299.798Z" fill="#263238"/>
<path d="M299.798 185.977V180.764H305.011V175.551H299.798H294.585V180.764H289.373V185.977H294.585H299.798Z" fill="#263238"/>
<path d="M315.437 206.826V201.613H310.224H305.011V196.4H299.798V201.613H294.585V206.826H289.372H284.159V212.039H289.372H294.585H299.798V206.826H305.011V212.039H310.224V206.826H315.437Z" fill="#263238"/>
<path d="M294.585 128.634V123.421H289.372H284.159V128.634H278.946V133.847H284.159H289.372V128.634H294.585Z" fill="#263238"/>
<path d="M294.585 133.847H289.373V139.06H294.585V133.847Z" fill="#263238"/>
<path d="M307.618 154.699H302.405V159.912V165.125V170.337H307.618H312.83V165.125H307.618V159.912H312.83V154.699H318.043V149.486H312.83V144.273H307.618V149.486V154.699Z" fill="#263238"/>
<path d="M289.372 139.06H284.159V144.272H289.372V139.06Z" fill="#263238"/>
<path d="M305.011 191.19V196.403H310.224H315.437V191.19H320.65H325.863V185.977H320.65H315.437H310.224V191.19H305.011Z" fill="#263238"/>
<path d="M333.131 170.337H327.918V175.55H333.131V170.337Z" fill="#263238"/>
<path d="M315.437 175.551H310.225V180.764H315.437V175.551Z" fill="#263238"/>
<path d="M328.47 159.912H323.257H318.043V165.125H323.257V170.337H328.47V165.125V159.912Z" fill="#263238"/>
<path d="M325.863 175.551H320.65V180.764H325.863V175.551Z" fill="#263238"/>
<path d="M268.52 206.927H284.165V185.971H263.209V191.19H258.094V196.402H263.209V201.615H258.094V206.828H263.209V206.926H263.307V212.041H258.094V217.254V222.466H263.307V217.254H268.519V212.041L268.52 206.927ZM280.152 189.985V203.017H267.119V189.985H280.152Z" fill="#263238"/>
<path d="M336.29 185.977H341.503V180.764H336.29H331.076H325.863V185.977H331.076H336.29Z" fill="#263238"/>
<path d="M336.29 165.125H341.502V159.912V154.699H336.29V159.912V165.125Z" fill="#263238"/>
<path d="M294.78 191.393H289.567V196.606V201.819H294.78V196.606V191.393Z" fill="#263238"/>
<path d="M346.715 185.977H341.502V191.19H346.715V185.977Z" fill="#263238"/>
<path d="M346.715 175.551V170.337H341.502V175.551V180.764H346.715V175.551Z" fill="#263238"/>
<path d="M252.881 212.042H247.668V217.254V222.468H252.881V217.254V212.042Z" fill="#263238"/>
<path d="M346.715 149.486V123.421H320.65V149.486H346.715ZM324.561 145.576V127.331H342.806V145.576H324.561Z" fill="#263238"/>
<path d="M338.895 131.24H328.47V141.666H338.895V131.24Z" fill="#263238"/>
<path d="M346.715 196.403H320.65V222.468H346.715V196.403ZM324.561 218.558V200.313H342.806V218.558H324.561Z" fill="#263238"/>
<path d="M338.895 204.222H328.47V214.649H338.895V204.222Z" fill="#263238"/>
<path d="M247.603 123.421V149.486H273.667V123.421H247.603ZM269.758 127.331V145.576H251.513V127.331H269.758Z" fill="#263238"/>
<path d="M265.849 131.24H255.422V141.666H265.849V131.24Z" fill="#263238"/>
<path d="M240.168 141.591C240.168 135.42 240.168 129.249 240.168 123.078C240.168 121.352 240.458 119.719 241.636 118.36C242.952 116.842 244.756 116.257 246.709 116.257C250.066 116.257 253.422 116.257 256.779 116.257C259.911 116.257 263.043 116.257 266.174 116.257C266.924 116.257 266.925 115.092 266.174 115.092C259.758 115.092 253.34 115.092 246.923 115.092C245.273 115.092 243.696 115.335 242.282 116.265C240.216 117.622 239.048 119.892 239.004 122.344C238.95 125.39 239.004 128.442 239.004 131.488C239.004 134.855 239.004 138.223 239.004 141.591C239.005 142.341 240.168 142.343 240.168 141.591Z" fill="#FFB744"/>
<path d="M264.47 231.27C258.299 231.27 252.128 231.27 245.957 231.27C244.231 231.27 242.598 230.981 241.239 229.803C239.721 228.487 239.136 226.682 239.136 224.73C239.136 221.374 239.136 218.016 239.136 214.66C239.136 211.528 239.136 208.397 239.136 205.264C239.136 204.515 237.972 204.514 237.972 205.264C237.972 211.681 237.972 218.099 237.972 224.516C237.972 226.165 238.215 227.743 239.145 229.157C240.502 231.222 242.772 232.392 245.224 232.435C248.27 232.489 251.322 232.435 254.368 232.435C257.735 232.435 261.102 232.435 264.47 232.435C265.22 232.435 265.221 231.27 264.47 231.27Z" fill="#FFB744"/>
<path d="M353.589 205.079C353.589 211.25 353.589 217.421 353.589 223.592C353.589 225.318 353.3 226.952 352.122 228.31C350.806 229.828 349.001 230.413 347.049 230.413C343.693 230.413 340.335 230.413 336.979 230.413C333.847 230.413 330.715 230.413 327.583 230.413C326.834 230.413 326.833 231.578 327.583 231.578C334 231.578 340.418 231.578 346.835 231.578C348.484 231.578 350.062 231.334 351.476 230.405C353.541 229.048 354.71 226.777 354.754 224.326C354.808 221.279 354.754 218.228 354.754 215.181C354.754 211.814 354.754 208.447 354.754 205.079C354.753 204.331 353.589 204.329 353.589 205.079Z" fill="#FFB744"/>
<path d="M327.918 116.258C334.089 116.258 340.26 116.258 346.431 116.258C348.158 116.258 349.791 116.548 351.15 117.726C352.668 119.042 353.253 120.846 353.253 122.799C353.253 126.155 353.253 129.512 353.253 132.868C353.253 136.001 353.253 139.133 353.253 142.264C353.253 143.014 354.418 143.015 354.418 142.264C354.418 135.847 354.418 129.43 354.418 123.013C354.418 121.363 354.174 119.785 353.245 118.372C351.888 116.306 349.618 115.138 347.166 115.094C344.119 115.04 341.068 115.094 338.022 115.094C334.654 115.094 331.286 115.094 327.919 115.094C327.17 115.094 327.168 116.258 327.918 116.258Z" fill="#FFB744"/>
<path d="M338.494 317.507H250.677C242.948 317.507 236.683 311.242 236.683 303.513V300.543C236.683 292.814 242.948 286.549 250.677 286.549H338.493C346.222 286.549 352.486 292.814 352.486 300.543V303.513C352.487 311.242 346.222 317.507 338.494 317.507Z" fill="#EBEBEB"/>
<path d="M255.31 299.43L254.035 304H253.257L252.225 300.462H252.207L251.179 304H250.401L249.122 299.43H249.882L250.796 303.147H250.814L251.847 299.43H252.585L253.622 303.147H253.64L254.554 299.43H255.31ZM261.842 299.43L260.568 304H259.79L258.757 300.462H258.739L257.711 304H256.933L255.654 299.43H256.415L257.329 303.147H257.346L258.379 299.43H259.117L260.154 303.147H260.172L261.086 299.43H261.842ZM268.374 299.43L267.1 304H266.322L265.289 300.462H265.272L264.243 304H263.466L262.187 299.43H262.947L263.861 303.147H263.879L264.911 299.43H265.65L266.687 303.147H266.704L267.618 299.43H268.374ZM269.211 304.044C268.93 304.044 268.71 303.824 268.71 303.543C268.71 303.262 268.93 303.042 269.211 303.042C269.493 303.042 269.712 303.262 269.712 303.543C269.712 303.824 269.493 304.044 269.211 304.044ZM270.791 298.327H271.556V299.43H272.443V300.058H271.556V302.774C271.556 303.191 271.732 303.38 272.123 303.38C272.211 303.38 272.386 303.367 272.439 303.358V304C272.347 304.022 272.136 304.035 271.956 304.035C271.116 304.035 270.791 303.692 270.791 302.813V300.058H270.11V299.43H270.791V298.327ZM275.052 300.014C274.335 300.014 273.834 300.563 273.786 301.324H276.269C276.251 300.559 275.772 300.014 275.052 300.014ZM276.251 302.69H277.003C276.871 303.49 276.097 304.079 275.1 304.079C273.79 304.079 272.995 303.169 272.995 301.732C272.995 300.313 273.804 299.351 275.065 299.351C276.3 299.351 277.06 300.247 277.06 301.631V301.921H273.782V301.965C273.782 302.84 274.296 303.416 275.117 303.416C275.698 303.416 276.124 303.121 276.251 302.69ZM281.72 300.928H280.973C280.863 300.432 280.477 300.023 279.804 300.023C279.013 300.023 278.477 300.678 278.477 301.715C278.477 302.778 279.022 303.407 279.813 303.407C280.437 303.407 280.846 303.077 280.978 302.528H281.729C281.61 303.438 280.846 304.079 279.809 304.079C278.543 304.079 277.699 303.187 277.699 301.715C277.699 300.273 278.539 299.351 279.8 299.351C280.942 299.351 281.623 300.106 281.72 300.928ZM282.562 304V297.659H283.326V300.159H283.344C283.599 299.649 284.1 299.351 284.794 299.351C285.796 299.351 286.402 300.027 286.402 301.047V304H285.638V301.188C285.638 300.462 285.273 300.027 284.557 300.027C283.797 300.027 283.326 300.546 283.326 301.337V304H282.562ZM289.736 304.079C289.068 304.079 288.545 303.754 288.25 303.227H288.233V304H287.503V297.659H288.268V300.194H288.285C288.571 299.671 289.103 299.351 289.749 299.351C290.9 299.351 291.678 300.282 291.678 301.715C291.678 303.152 290.905 304.079 289.736 304.079ZM289.586 300.023C288.813 300.023 288.263 300.7 288.263 301.715C288.263 302.734 288.813 303.407 289.586 303.407C290.395 303.407 290.896 302.761 290.896 301.715C290.896 300.678 290.395 300.023 289.586 300.023ZM296.299 299.43V304H295.574V303.257H295.556C295.284 303.785 294.809 304.079 294.106 304.079C293.108 304.079 292.524 303.433 292.524 302.396V299.43H293.289V302.26C293.289 303.002 293.636 303.402 294.343 303.402C295.086 303.402 295.534 302.893 295.534 302.115V299.43H296.299ZM297.382 304V299.43H298.103V300.159H298.12C298.336 299.676 298.801 299.351 299.417 299.351C300.041 299.351 300.502 299.667 300.7 300.221H300.717C300.972 299.676 301.508 299.351 302.15 299.351C303.055 299.351 303.64 299.939 303.64 300.845V304H302.875V301.021C302.875 300.396 302.528 300.027 301.926 300.027C301.319 300.027 300.893 300.476 300.893 301.095V304H300.129V300.937C300.129 300.388 299.759 300.027 299.192 300.027C298.586 300.027 298.147 300.502 298.147 301.135V304H297.382ZM306.977 304.079C306.309 304.079 305.786 303.754 305.492 303.227H305.474V304H304.745V297.659H305.51V300.194H305.527C305.813 299.671 306.344 299.351 306.99 299.351C308.142 299.351 308.92 300.282 308.92 301.715C308.92 303.152 308.146 304.079 306.977 304.079ZM306.828 300.023C306.054 300.023 305.505 300.7 305.505 301.715C305.505 302.734 306.054 303.407 306.828 303.407C307.636 303.407 308.137 302.761 308.137 301.715C308.137 300.678 307.636 300.023 306.828 300.023ZM309.827 304V297.659H310.592V304H309.827ZM313.547 300.014C312.831 300.014 312.33 300.563 312.281 301.324H314.764C314.747 300.559 314.268 300.014 313.547 300.014ZM314.747 302.69H315.498C315.366 303.49 314.593 304.079 313.595 304.079C312.286 304.079 311.49 303.169 311.49 301.732C311.49 300.313 312.299 299.351 313.56 299.351C314.795 299.351 315.555 300.247 315.555 301.631V301.921H312.277V301.965C312.277 302.84 312.791 303.416 313.613 303.416C314.193 303.416 314.619 303.121 314.747 302.69ZM316.34 300.691C316.34 299.909 317.038 299.351 318.045 299.351C318.989 299.351 319.684 299.913 319.719 300.687H318.989C318.937 300.247 318.581 299.975 318.018 299.975C317.46 299.975 317.091 300.251 317.091 300.651C317.091 300.968 317.333 301.179 317.851 301.311L318.559 301.482C319.482 301.715 319.816 302.049 319.816 302.721C319.816 303.517 319.064 304.079 317.996 304.079C316.994 304.079 316.296 303.534 316.217 302.726H316.981C317.065 303.2 317.425 303.455 318.045 303.455C318.664 303.455 319.047 303.191 319.047 302.778C319.047 302.453 318.858 302.277 318.343 302.141L317.539 301.935C316.735 301.728 316.34 301.315 316.34 300.691ZM321.347 304.044C321.066 304.044 320.846 303.824 320.846 303.543C320.846 303.262 321.066 303.042 321.347 303.042C321.628 303.042 321.848 303.262 321.848 303.543C321.848 303.824 321.628 304.044 321.347 304.044ZM326.609 300.928H325.862C325.753 300.432 325.366 300.023 324.693 300.023C323.902 300.023 323.366 300.678 323.366 301.715C323.366 302.778 323.911 303.407 324.702 303.407C325.326 303.407 325.735 303.077 325.867 302.528H326.618C326.5 303.438 325.735 304.079 324.698 304.079C323.432 304.079 322.588 303.187 322.588 301.715C322.588 300.273 323.428 299.351 324.689 299.351C325.832 299.351 326.513 300.106 326.609 300.928ZM329.305 304.079C328.04 304.079 327.187 303.169 327.187 301.715C327.187 300.256 328.04 299.351 329.305 299.351C330.567 299.351 331.419 300.256 331.419 301.715C331.419 303.169 330.567 304.079 329.305 304.079ZM329.305 303.407C330.114 303.407 330.641 302.792 330.641 301.715C330.641 300.638 330.114 300.023 329.305 300.023C328.497 300.023 327.965 300.638 327.965 301.715C327.965 302.792 328.497 303.407 329.305 303.407ZM332.283 304V299.43H333.003V300.159H333.021C333.236 299.676 333.702 299.351 334.317 299.351C334.941 299.351 335.403 299.667 335.6 300.221H335.618C335.873 299.676 336.409 299.351 337.051 299.351C337.956 299.351 338.54 299.939 338.54 300.845V304H337.776V301.021C337.776 300.396 337.429 300.027 336.827 300.027C336.22 300.027 335.794 300.476 335.794 301.095V304H335.029V300.937C335.029 300.388 334.66 300.027 334.093 300.027C333.487 300.027 333.047 300.502 333.047 301.135V304H332.283Z" fill="#343F52"/>
<path d="M339.337 307.851C339.337 307.972 319.478 308.07 294.986 308.07C270.485 308.07 250.63 307.972 250.63 307.851C250.63 307.73 270.485 307.632 294.986 307.632C319.478 307.631 339.337 307.73 339.337 307.851Z" fill="#263238"/>
</svg>
