<svg width="232" height="289" viewBox="0 0 232 289" fill="none" xmlns="http://www.w3.org/2000/svg">
<g clip-path="url(#clip0_1_234980)">
<rect width="232" height="289" rx="8" fill="#FFF8EC"/>
<path d="M211.5 24C215.642 24 219 20.6421 219 16.5C219 12.3579 215.642 9 211.5 9C207.358 9 204 12.3579 204 16.5C204 20.6421 207.358 24 211.5 24Z" fill="#59847A"/>
<path d="M161.5 63C163.433 63 165 61.433 165 59.5C165 57.567 163.433 56 161.5 56C159.567 56 158 57.567 158 59.5C158 61.433 159.567 63 161.5 63Z" fill="#98914D"/>
<path d="M216.5 89C217.881 89 219 87.8807 219 86.5C219 85.1193 217.881 84 216.5 84C215.119 84 214 85.1193 214 86.5C214 87.8807 215.119 89 216.5 89Z" fill="#D64544"/>
<path d="M12 64C13.1046 64 14 63.1046 14 62C14 60.8954 13.1046 60 12 60C10.8954 60 10 60.8954 10 62C10 63.1046 10.8954 64 12 64Z" fill="#637690"/>
<path d="M350.386 -29H115.543L115.493 -28.8639C113.745 -23.8879 113.244 -18.5487 114.036 -13.3272C114.689 -9.43056 115.563 -5.5754 116.654 -1.78099C118.235 4.11967 119.865 10.2187 119.686 16.3915C119.497 23.1367 117.151 29.6439 114.884 35.9413C112.896 41.4622 110.842 47.1758 110.211 53.0821C108.926 65.0762 113.561 77.9035 122.942 88.2821C131.603 97.8728 141.799 101.506 154.111 99.3975C164.955 97.544 176.017 91.598 186.71 85.8561C191.239 83.4187 195.516 81.123 199.76 79.1278C235.921 62.123 249.133 77.399 261.903 92.1648C267.861 99.0461 273.484 105.548 281.252 108.75C287.69 111.409 295.882 111.726 303.71 109.623C311.997 107.401 319.301 102.691 324.287 96.3593C332.389 86.0601 334.159 72.581 335.868 59.544C336.812 52.3339 337.795 44.8745 339.827 37.9535C341.19 33.3169 343.507 28.0908 345.969 22.5585C349.443 14.7363 353.374 5.87117 355.094 -2.73325C357.059 -12.613 355.836 -20.7527 351.347 -27.6339C351.067 -28.0647 350.788 -28.5012 350.453 -28.9206L350.386 -29ZM115.834 -28.881H350.174C350.459 -28.4955 350.732 -28.0987 350.995 -27.702C360.923 -12.477 352.771 5.88248 345.579 22.0824C343.122 27.6259 340.793 32.8521 339.436 37.5341C337.392 44.4834 336.415 51.9598 335.466 59.1869C333.763 72.1672 332.004 85.584 323.969 95.7868C312.879 109.872 293.626 113.086 281.419 108.053C273.741 104.884 268.152 98.4169 262.233 91.581C255.884 84.2462 249.323 76.6564 239.802 73.0684C235.918 71.6348 231.812 70.9187 227.68 70.9542C219.521 70.9542 210.23 73.4369 199.598 78.4363C195.343 80.4372 191.06 82.7385 186.526 85.1702C175.861 90.9008 164.832 96.8298 154.055 98.672C141.888 100.758 131.815 97.1642 123.26 87.6869C113.969 77.4047 109.367 64.6908 110.64 52.8214C111.266 46.9661 113.31 41.2808 115.292 35.7826C117.57 29.4511 119.921 22.91 120.116 16.0967C120.295 9.86161 118.659 3.72857 117.073 -2.20044C115.984 -5.97744 115.114 -9.81573 114.465 -13.6957C113.685 -18.7947 114.155 -24.0102 115.834 -28.881Z" fill="#FFF4E2"/>
<path d="M348.386 -27H113.543L113.493 -26.8639C111.745 -21.8879 111.244 -16.5487 112.036 -11.3272C112.689 -7.43056 113.563 -3.5754 114.654 0.219009C116.235 6.11967 117.865 12.2187 117.686 18.3915C117.497 25.1367 115.151 31.6439 112.884 37.9413C110.896 43.4622 108.842 49.1758 108.211 55.0821C106.926 67.0762 111.561 79.9035 120.942 90.2821C129.603 99.8728 139.799 103.506 152.111 101.398C162.955 99.544 174.017 93.598 184.71 87.8561C189.239 85.4187 193.516 83.123 197.76 81.1278C233.921 64.123 247.133 79.399 259.903 94.1648C265.861 101.046 271.484 107.548 279.252 110.75C285.69 113.409 293.882 113.726 301.71 111.623C309.997 109.401 317.301 104.691 322.287 98.3593C330.389 88.0601 332.159 74.581 333.868 61.544C334.812 54.3339 335.795 46.8745 337.827 39.9535C339.19 35.3169 341.507 30.0908 343.969 24.5585C347.443 16.7363 351.374 7.87117 353.094 -0.733253C355.059 -10.613 353.836 -18.7527 349.347 -25.6339C349.067 -26.0647 348.788 -26.5012 348.453 -26.9206L348.386 -27ZM113.834 -26.881H348.174C348.459 -26.4955 348.732 -26.0987 348.995 -25.702C358.923 -10.477 350.771 7.88248 343.579 24.0824C341.122 29.6259 338.793 34.8521 337.436 39.5341C335.392 46.4834 334.415 53.9598 333.466 61.1869C331.763 74.1672 330.004 87.584 321.969 97.7868C310.879 111.872 291.626 115.086 279.419 110.053C271.741 106.884 266.152 100.417 260.233 93.581C253.884 86.2462 247.323 78.6564 237.802 75.0684C233.918 73.6348 229.812 72.9187 225.68 72.9542C217.521 72.9542 208.23 75.4369 197.598 80.4363C193.343 82.4372 189.06 84.7385 184.526 87.1702C173.861 92.9008 162.832 98.8298 152.055 100.672C139.888 102.758 129.815 99.1642 121.26 89.6869C111.969 79.4047 107.367 66.6908 108.64 54.8214C109.266 48.9661 111.31 43.2808 113.292 37.7826C115.57 31.4511 117.921 24.91 118.116 18.0967C118.295 11.8616 116.659 5.72857 115.073 -0.200439C113.984 -3.97744 113.114 -7.81573 112.465 -11.6957C111.685 -16.7947 112.155 -22.0102 113.834 -26.881Z" fill="#FFF4E2"/>
<path d="M346.386 -25H111.543L111.493 -24.8639C109.745 -19.8879 109.244 -14.5487 110.036 -9.32724C110.689 -5.43056 111.563 -1.5754 112.654 2.21901C114.235 8.11967 115.865 14.2187 115.686 20.3915C115.497 27.1367 113.151 33.6439 110.884 39.9413C108.896 45.4622 106.842 51.1758 106.211 57.0821C104.926 69.0762 109.561 81.9035 118.942 92.2821C127.603 101.873 137.799 105.506 150.111 103.398C160.955 101.544 172.017 95.598 182.71 89.8561C187.239 87.4187 191.516 85.123 195.76 83.1278C231.921 66.123 245.133 81.399 257.903 96.1648C263.861 103.046 269.484 109.548 277.252 112.75C283.69 115.409 291.882 115.726 299.71 113.623C307.997 111.401 315.301 106.691 320.287 100.359C328.389 90.0601 330.159 76.581 331.868 63.544C332.812 56.3339 333.795 48.8745 335.827 41.9535C337.19 37.3169 339.507 32.0908 341.969 26.5585C345.443 18.7363 349.374 9.87117 351.094 1.26675C353.059 -8.61304 351.836 -16.7527 347.347 -23.6339C347.067 -24.0647 346.788 -24.5012 346.453 -24.9206L346.386 -25ZM111.834 -24.881H346.174C346.459 -24.4955 346.732 -24.0987 346.995 -23.702C356.923 -8.477 348.771 9.88248 341.579 26.0824C339.122 31.6259 336.793 36.8521 335.436 41.5341C333.392 48.4834 332.415 55.9598 331.466 63.1869C329.763 76.1672 328.004 89.584 319.969 99.7868C308.879 113.872 289.626 117.086 277.419 112.053C269.741 108.884 264.152 102.417 258.233 95.581C251.884 88.2462 245.323 80.6564 235.802 77.0684C231.918 75.6348 227.812 74.9187 223.68 74.9542C215.521 74.9542 206.23 77.4369 195.598 82.4363C191.343 84.4372 187.06 86.7385 182.526 89.1702C171.861 94.9008 160.832 100.83 150.055 102.672C137.888 104.758 127.815 101.164 119.26 91.6869C109.969 81.4047 105.367 68.6908 106.64 56.8214C107.266 50.9661 109.31 45.2808 111.292 39.7826C113.57 33.4511 115.921 26.91 116.116 20.0967C116.295 13.8616 114.659 7.72857 113.073 1.79956C111.984 -1.97744 111.114 -5.81573 110.465 -9.69569C109.685 -14.7947 110.155 -20.0102 111.834 -24.881Z" fill="#FFF4E2"/>
</g>
<defs>
<clipPath id="clip0_1_234980">
<rect width="232" height="289" rx="8" fill="white"/>
</clipPath>
</defs>
</svg>
