<svg width="232" height="289" viewBox="0 0 232 289" fill="none" xmlns="http://www.w3.org/2000/svg">
<g clip-path="url(#clip0_1_240582)">
<rect width="232" height="289" rx="8" fill="#E2FBEA"/>
<circle cx="119.5" cy="166.5" r="99" stroke="#70D994" stroke-dasharray="10 10"/>
<path d="M129.949 202.702C130.855 200.088 130.101 196.978 128.099 195.07C126.098 193.161 122.955 192.555 120.387 193.583C117.819 194.611 115.963 197.219 115.833 199.982C115.707 199.031 114.747 198.273 113.794 198.371C112.84 198.47 112.055 199.408 112.126 200.363C111.624 198.186 109.183 196.663 107.006 197.168C104.83 197.674 103.311 200.117 103.821 202.294L96.3281 203.763H135.672L129.949 202.702Z" fill="white"/>
<path d="M105.14 95.9065C105.541 94.8517 105.147 93.5496 104.227 92.8948C103.308 92.2399 101.948 92.293 101.083 93.0173C101.801 91.3158 101.071 89.1356 99.4748 88.2085C97.878 87.2814 95.6233 87.7283 94.501 89.1949C93.0569 85.3719 88.5612 82.9885 84.5865 83.9376C80.6119 84.8872 77.6793 89.0452 78.1186 93.1083C77.0918 91.7127 74.9198 91.3347 73.4819 92.3012C72.0439 93.2677 71.5745 95.4218 72.4791 96.8996L67.8945 98.1163H108.247L105.14 95.9065Z" fill="white"/>
<path d="M175.09 117.307C175.995 114.694 175.241 111.583 173.24 109.674C171.238 107.766 168.096 107.16 165.528 108.188C162.96 109.216 161.104 111.824 160.973 114.587C160.848 113.637 159.887 112.878 158.934 112.976C157.981 113.075 157.195 114.013 157.266 114.968C156.764 112.79 154.323 111.268 152.147 111.773C149.97 112.279 148.452 114.722 148.961 116.898L141.469 118.368H180.812L175.09 117.307Z" fill="white"/>
<path d="M200.07 289.255H121.926C119.789 289.255 118.058 287.522 118.058 285.386V128.869C118.058 126.732 119.79 125 121.926 125H200.07C202.207 125 203.939 126.732 203.939 128.869V285.386C203.939 287.522 202.207 289.255 200.07 289.255Z" fill="#3F3D56"/>
<path d="M196.984 278.337H125.014C123.238 278.337 121.799 276.897 121.799 275.121V132.522C121.799 130.746 123.238 129.307 125.014 129.307H196.984C198.76 129.307 200.199 130.746 200.199 132.522V275.121C200.199 276.897 198.76 278.337 196.984 278.337Z" fill="white"/>
<path d="M157.348 147.615C158 146.619 157.601 145.097 156.544 144.549C155.488 144.001 154.014 144.553 153.576 145.66C152.798 142.511 149.834 140.034 146.598 139.828C143.361 139.621 140.106 141.701 138.934 144.725C138.319 143.192 135.786 143.01 134.959 144.44C134.489 142.554 132.048 141.47 130.333 142.385C128.617 143.3 128.159 145.931 129.463 147.372L125.025 148.944H161.823L157.348 147.615Z" fill="#E2FBEA"/>
<path d="M121.999 230.938V275.893C121.999 277.057 123.315 278 124.937 278H197.06C198.683 278 199.999 277.057 199.999 275.893V236.376C189.306 225.379 173.643 216.346 151.985 219.715C137.614 221.95 128.173 226.145 121.999 230.938Z" fill="#D2FFE1"/>
<path d="M144.876 248.186L143.538 253H142.146L140.281 245.954H141.81L142.918 251.057H142.957L144.275 245.954H145.521L146.839 251.057H146.878L147.991 245.954H149.52L147.649 253H146.258L144.92 248.186H144.876ZM151.551 252.053C151.867 252.053 152.133 251.962 152.352 251.779C152.573 251.594 152.684 251.361 152.684 251.081V250.7L151.58 250.769C151.313 250.788 151.106 250.855 150.96 250.969C150.817 251.083 150.745 251.232 150.745 251.418C150.745 251.613 150.818 251.768 150.965 251.882C151.111 251.996 151.307 252.053 151.551 252.053ZM151.082 253.083C150.577 253.083 150.159 252.935 149.827 252.639C149.495 252.342 149.329 251.962 149.329 251.496C149.329 251.021 149.505 250.648 149.856 250.378C150.208 250.108 150.711 249.953 151.365 249.914L152.684 249.836V249.489C152.684 249.248 152.604 249.06 152.444 248.923C152.288 248.786 152.075 248.718 151.805 248.718C151.544 248.718 151.331 248.776 151.165 248.894C151.002 249.011 150.903 249.169 150.867 249.367H149.563C149.59 248.853 149.809 248.439 150.223 248.127C150.636 247.811 151.185 247.653 151.868 247.653C152.539 247.653 153.076 247.813 153.479 248.132C153.883 248.451 154.085 248.874 154.085 249.401V253H152.708V252.199H152.679C152.535 252.473 152.317 252.689 152.024 252.849C151.731 253.005 151.417 253.083 151.082 253.083ZM155.008 253V247.766H156.385V248.708H156.414C156.505 248.376 156.658 248.122 156.873 247.946C157.088 247.771 157.35 247.683 157.659 247.683C157.809 247.683 157.944 247.701 158.064 247.736V248.991C157.931 248.936 157.758 248.908 157.547 248.908C157.195 248.908 156.922 249.011 156.727 249.216C156.531 249.421 156.434 249.707 156.434 250.075V253H155.008ZM158.65 253V247.766H160.027V248.708H160.057C160.148 248.376 160.301 248.122 160.516 247.946C160.73 247.771 160.993 247.683 161.302 247.683C161.451 247.683 161.587 247.701 161.707 247.736V248.991C161.574 248.936 161.401 248.908 161.189 248.908C160.838 248.908 160.564 249.011 160.369 249.216C160.174 249.421 160.076 249.707 160.076 250.075V253H158.65ZM164.188 252.053C164.503 252.053 164.77 251.962 164.988 251.779C165.21 251.594 165.32 251.361 165.32 251.081V250.7L164.217 250.769C163.95 250.788 163.743 250.855 163.597 250.969C163.453 251.083 163.382 251.232 163.382 251.418C163.382 251.613 163.455 251.768 163.602 251.882C163.748 251.996 163.943 252.053 164.188 252.053ZM163.719 253.083C163.214 253.083 162.796 252.935 162.464 252.639C162.132 252.342 161.966 251.962 161.966 251.496C161.966 251.021 162.142 250.648 162.493 250.378C162.845 250.108 163.348 249.953 164.002 249.914L165.32 249.836V249.489C165.32 249.248 165.241 249.06 165.081 248.923C164.925 248.786 164.712 248.718 164.441 248.718C164.181 248.718 163.968 248.776 163.802 248.894C163.639 249.011 163.54 249.169 163.504 249.367H162.2C162.226 248.853 162.446 248.439 162.859 248.127C163.273 247.811 163.821 247.653 164.505 247.653C165.175 247.653 165.713 247.813 166.116 248.132C166.52 248.451 166.722 248.874 166.722 249.401V253H165.345V252.199H165.315C165.172 252.473 164.954 252.689 164.661 252.849C164.368 253.005 164.054 253.083 163.719 253.083ZM167.645 253V247.766H169.021V248.698H169.051C169.194 248.366 169.402 248.112 169.676 247.937C169.952 247.757 170.289 247.668 170.687 247.668C171.266 247.668 171.714 247.84 172.029 248.186C172.345 248.531 172.503 249.011 172.503 249.626V253H171.077V249.924C171.077 249.579 170.996 249.313 170.833 249.128C170.67 248.942 170.431 248.85 170.115 248.85C169.799 248.85 169.546 248.955 169.354 249.167C169.165 249.379 169.07 249.655 169.07 249.997V253H167.645ZM173.787 246.56H175.213V247.766H176.18V248.84H175.213V251.345C175.213 251.739 175.418 251.936 175.828 251.936C175.962 251.936 176.077 251.927 176.175 251.911V252.961C176.009 253 175.783 253.02 175.496 253.02C174.881 253.02 174.441 252.909 174.178 252.688C173.917 252.466 173.787 252.1 173.787 251.589V248.84H173.05V247.766H173.787V246.56ZM177.63 254.938C177.317 254.938 177.138 254.934 177.093 254.924V253.825C177.122 253.832 177.241 253.835 177.449 253.835C177.713 253.835 177.913 253.789 178.05 253.698C178.187 253.61 178.279 253.462 178.328 253.254C178.328 253.251 178.336 253.21 178.353 253.132C178.369 253.054 178.375 253.011 178.372 253.005L176.551 247.766H178.118L179.231 251.857H179.256L180.369 247.766H181.873L180.071 253.117C179.847 253.788 179.55 254.258 179.183 254.528C178.818 254.802 178.3 254.938 177.63 254.938ZM138.348 259.106V261.353H139.617C139.988 261.353 140.276 261.253 140.481 261.055C140.69 260.856 140.794 260.581 140.794 260.229C140.794 259.888 140.687 259.616 140.472 259.414C140.257 259.209 139.967 259.106 139.603 259.106H138.348ZM138.348 262.422V265H136.873V257.954H139.759C140.563 257.954 141.188 258.154 141.634 258.555C142.083 258.952 142.308 259.5 142.308 260.2C142.308 260.659 142.194 261.069 141.966 261.431C141.741 261.789 141.429 262.046 141.028 262.202L142.513 265H140.843L139.529 262.422H138.348ZM145.457 260.708C145.148 260.708 144.889 260.814 144.681 261.025C144.476 261.237 144.36 261.507 144.334 261.836H146.556C146.539 261.501 146.43 261.229 146.229 261.021C146.03 260.812 145.773 260.708 145.457 260.708ZM146.575 263.398H147.884C147.806 263.913 147.549 264.328 147.112 264.644C146.679 264.956 146.141 265.112 145.496 265.112C144.692 265.112 144.061 264.871 143.602 264.39C143.146 263.908 142.918 263.247 142.918 262.407C142.918 261.571 143.146 260.903 143.602 260.405C144.057 259.904 144.671 259.653 145.442 259.653C146.201 259.653 146.805 259.891 147.254 260.366C147.703 260.841 147.928 261.478 147.928 262.275V262.71H144.319V262.798C144.319 263.172 144.428 263.477 144.646 263.711C144.868 263.942 145.159 264.058 145.521 264.058C145.781 264.058 146.006 263.999 146.194 263.882C146.383 263.761 146.51 263.6 146.575 263.398ZM151.082 263.887C151.44 263.887 151.723 263.753 151.932 263.486C152.143 263.216 152.249 262.845 152.249 262.373C152.249 261.901 152.143 261.525 151.932 261.245C151.72 260.965 151.437 260.825 151.082 260.825C150.73 260.825 150.451 260.965 150.242 261.245C150.037 261.522 149.935 261.898 149.935 262.373C149.935 262.848 150.037 263.219 150.242 263.486C150.447 263.753 150.727 263.887 151.082 263.887ZM151.058 266.973C150.377 266.973 149.817 266.823 149.378 266.523C148.942 266.227 148.694 265.843 148.636 265.371H150.032C150.088 265.553 150.211 265.7 150.403 265.811C150.599 265.924 150.83 265.981 151.097 265.981C151.458 265.981 151.74 265.889 151.941 265.703C152.143 265.521 152.244 265.275 152.244 264.966V264.048H152.215C152.091 264.331 151.884 264.559 151.595 264.731C151.305 264.901 150.973 264.985 150.599 264.985C149.954 264.985 149.438 264.751 149.051 264.282C148.667 263.813 148.475 263.174 148.475 262.363C148.475 261.533 148.667 260.879 149.051 260.4C149.435 259.922 149.959 259.683 150.623 259.683C150.994 259.683 151.321 259.772 151.604 259.951C151.888 260.13 152.099 260.373 152.239 260.679H152.264V259.766H153.67V264.927C153.67 265.549 153.431 266.045 152.952 266.416C152.477 266.787 151.845 266.973 151.058 266.973ZM154.627 265V259.766H156.053V265H154.627ZM155.882 258.975C155.735 259.118 155.555 259.189 155.34 259.189C155.125 259.189 154.944 259.118 154.798 258.975C154.651 258.831 154.578 258.657 154.578 258.452C154.578 258.244 154.651 258.07 154.798 257.93C154.944 257.786 155.125 257.715 155.34 257.715C155.555 257.715 155.735 257.786 155.882 257.93C156.028 258.07 156.102 258.244 156.102 258.452C156.102 258.657 156.028 258.831 155.882 258.975ZM156.917 261.304C156.917 260.806 157.117 260.407 157.518 260.107C157.918 259.805 158.453 259.653 159.124 259.653C159.778 259.653 160.304 259.806 160.701 260.112C161.098 260.418 161.302 260.825 161.312 261.333H159.998C159.982 261.121 159.894 260.955 159.734 260.835C159.578 260.715 159.368 260.654 159.104 260.654C158.857 260.654 158.659 260.706 158.509 260.811C158.362 260.911 158.289 261.047 158.289 261.216C158.289 261.47 158.517 261.65 158.973 261.758L159.974 261.973C160.498 262.09 160.874 262.261 161.102 262.485C161.333 262.707 161.448 263.013 161.448 263.403C161.448 263.918 161.233 264.331 160.804 264.644C160.374 264.956 159.812 265.112 159.119 265.112C158.429 265.112 157.877 264.959 157.464 264.653C157.05 264.347 156.824 263.936 156.785 263.418H158.177C158.213 263.639 158.313 263.81 158.479 263.931C158.649 264.051 158.875 264.111 159.158 264.111C159.428 264.111 159.64 264.062 159.793 263.965C159.949 263.864 160.027 263.727 160.027 263.555C160.027 263.421 159.979 263.315 159.881 263.237C159.783 263.156 159.617 263.088 159.383 263.032L158.416 262.817C157.417 262.59 156.917 262.085 156.917 261.304ZM162.542 258.56H163.968V259.766H164.935V260.84H163.968V263.345C163.968 263.739 164.173 263.936 164.583 263.936C164.716 263.936 164.832 263.927 164.93 263.911V264.961C164.764 265 164.537 265.02 164.251 265.02C163.636 265.02 163.196 264.909 162.933 264.688C162.672 264.466 162.542 264.1 162.542 263.589V260.84H161.805V259.766H162.542V258.56ZM167.986 260.708C167.677 260.708 167.418 260.814 167.21 261.025C167.005 261.237 166.889 261.507 166.863 261.836H169.085C169.069 261.501 168.96 261.229 168.758 261.021C168.559 260.812 168.302 260.708 167.986 260.708ZM169.104 263.398H170.413C170.335 263.913 170.078 264.328 169.642 264.644C169.209 264.956 168.67 265.112 168.025 265.112C167.221 265.112 166.59 264.871 166.131 264.39C165.675 263.908 165.447 263.247 165.447 262.407C165.447 261.571 165.675 260.903 166.131 260.405C166.587 259.904 167.2 259.653 167.972 259.653C168.73 259.653 169.334 259.891 169.783 260.366C170.232 260.841 170.457 261.478 170.457 262.275V262.71H166.849V262.798C166.849 263.172 166.958 263.477 167.176 263.711C167.397 263.942 167.688 264.058 168.05 264.058C168.31 264.058 168.535 263.999 168.724 263.882C168.912 263.761 169.039 263.6 169.104 263.398ZM171.194 265V259.766H172.571V260.708H172.601C172.692 260.376 172.845 260.122 173.06 259.946C173.274 259.771 173.536 259.683 173.846 259.683C173.995 259.683 174.131 259.701 174.251 259.736V260.991C174.118 260.936 173.945 260.908 173.733 260.908C173.382 260.908 173.108 261.011 172.913 261.216C172.718 261.421 172.62 261.707 172.62 262.075V265H171.194ZM177.01 260.708C176.701 260.708 176.442 260.814 176.233 261.025C176.028 261.237 175.913 261.507 175.887 261.836H178.108C178.092 261.501 177.983 261.229 177.781 261.021C177.583 260.812 177.326 260.708 177.01 260.708ZM178.128 263.398H179.437C179.358 263.913 179.101 264.328 178.665 264.644C178.232 264.956 177.693 265.112 177.049 265.112C176.245 265.112 175.613 264.871 175.154 264.39C174.699 263.908 174.471 263.247 174.471 262.407C174.471 261.571 174.699 260.903 175.154 260.405C175.61 259.904 176.224 259.653 176.995 259.653C177.754 259.653 178.357 259.891 178.807 260.366C179.256 260.841 179.48 261.478 179.48 262.275V262.71H175.872V262.798C175.872 263.172 175.981 263.477 176.199 263.711C176.421 263.942 176.712 264.058 177.073 264.058C177.334 264.058 177.558 263.999 177.747 263.882C177.936 263.761 178.063 263.6 178.128 263.398ZM182.161 265.083C181.507 265.083 180.988 264.84 180.604 264.355C180.219 263.87 180.027 263.21 180.027 262.373C180.027 261.543 180.219 260.887 180.604 260.405C180.991 259.924 181.513 259.683 182.171 259.683C182.542 259.683 182.868 259.772 183.147 259.951C183.431 260.13 183.637 260.368 183.768 260.664H183.797V257.954H185.223V265H183.816V264.102H183.792C183.662 264.398 183.452 264.635 183.162 264.814C182.872 264.993 182.539 265.083 182.161 265.083ZM182.645 260.825C182.286 260.825 182.003 260.965 181.795 261.245C181.59 261.525 181.487 261.904 181.487 262.383C181.487 262.865 181.59 263.244 181.795 263.521C182.003 263.797 182.286 263.936 182.645 263.936C182.999 263.936 183.281 263.797 183.489 263.521C183.701 263.241 183.807 262.861 183.807 262.383C183.807 261.908 183.701 261.53 183.489 261.25C183.281 260.967 182.999 260.825 182.645 260.825Z" fill="#36C265"/>
<path d="M143.739 157.978H144.592C144.611 158.149 144.702 158.289 144.864 158.396C145.028 158.502 145.229 158.555 145.465 158.555C145.699 158.555 145.89 158.505 146.036 158.405C146.185 158.304 146.259 158.175 146.259 158.019C146.259 157.882 146.204 157.771 146.095 157.688C145.985 157.604 145.803 157.533 145.547 157.477L144.996 157.356C144.221 157.19 143.833 156.797 143.833 156.176C143.833 155.789 143.983 155.477 144.284 155.238C144.587 155 144.976 154.881 145.45 154.881C145.938 154.881 146.328 154.997 146.619 155.229C146.91 155.46 147.06 155.768 147.067 156.152H146.238C146.225 155.975 146.146 155.835 146.001 155.733C145.858 155.63 145.676 155.578 145.453 155.578C145.234 155.578 145.058 155.626 144.923 155.722C144.79 155.817 144.724 155.943 144.724 156.1C144.724 156.229 144.777 156.333 144.885 156.413C144.994 156.493 145.171 156.562 145.415 156.618L145.928 156.727C146.352 156.816 146.66 156.957 146.854 157.148C147.047 157.338 147.144 157.594 147.144 157.916C147.144 158.326 146.989 158.652 146.681 158.895C146.372 159.135 145.955 159.255 145.43 159.255C144.92 159.255 144.514 159.142 144.211 158.915C143.91 158.687 143.753 158.374 143.739 157.978ZM150.469 157.21H149.675C149.649 157.04 149.582 156.903 149.473 156.8C149.365 156.696 149.226 156.645 149.054 156.645C148.841 156.645 148.673 156.73 148.55 156.902C148.429 157.072 148.368 157.308 148.368 157.608C148.368 157.915 148.429 158.153 148.55 158.323C148.673 158.493 148.842 158.578 149.057 158.578C149.227 158.578 149.365 158.53 149.473 158.435C149.58 158.337 149.647 158.202 149.675 158.03H150.472C150.45 158.401 150.311 158.697 150.053 158.918C149.795 159.139 149.46 159.249 149.048 159.249C148.571 159.249 148.194 159.104 147.917 158.812C147.64 158.52 147.501 158.118 147.501 157.608C147.501 157.106 147.64 156.709 147.917 156.416C148.196 156.121 148.571 155.974 149.042 155.974C149.46 155.974 149.797 156.089 150.053 156.319C150.311 156.55 150.449 156.847 150.469 157.21ZM152.098 158.613C152.287 158.613 152.447 158.559 152.578 158.449C152.711 158.338 152.777 158.198 152.777 158.03V157.802L152.115 157.843C151.955 157.854 151.831 157.895 151.743 157.963C151.657 158.031 151.614 158.121 151.614 158.232C151.614 158.35 151.658 158.442 151.746 158.511C151.834 158.579 151.951 158.613 152.098 158.613ZM151.816 159.231C151.514 159.231 151.263 159.143 151.063 158.965C150.864 158.787 150.765 158.559 150.765 158.279C150.765 157.994 150.87 157.771 151.081 157.608C151.292 157.446 151.594 157.354 151.986 157.33L152.777 157.283V157.075C152.777 156.931 152.729 156.817 152.634 156.735C152.54 156.653 152.412 156.612 152.25 156.612C152.094 156.612 151.966 156.647 151.866 156.718C151.769 156.788 151.709 156.883 151.688 157.002H150.905C150.921 156.693 151.053 156.445 151.301 156.258C151.549 156.068 151.878 155.974 152.288 155.974C152.69 155.974 153.013 156.069 153.255 156.261C153.497 156.452 153.618 156.706 153.618 157.022V159.182H152.792V158.701H152.774C152.688 158.865 152.558 158.995 152.382 159.091C152.206 159.185 152.018 159.231 151.816 159.231ZM154.172 159.182V156.041H154.998V156.601H155.016C155.102 156.401 155.227 156.249 155.391 156.144C155.557 156.036 155.759 155.982 155.997 155.982C156.345 155.982 156.613 156.086 156.803 156.293C156.992 156.5 157.087 156.788 157.087 157.157V159.182H156.231V157.336C156.231 157.129 156.183 156.97 156.085 156.858C155.987 156.747 155.844 156.691 155.654 156.691C155.465 156.691 155.312 156.755 155.197 156.882C155.084 157.009 155.027 157.175 155.027 157.38V159.182H154.172ZM161.848 159.182L161.522 158.83C161.366 158.965 161.173 159.07 160.942 159.146C160.712 159.221 160.469 159.258 160.213 159.258C159.766 159.258 159.408 159.15 159.141 158.936C158.873 158.721 158.739 158.434 158.739 158.074C158.739 157.834 158.802 157.624 158.927 157.444C159.054 157.263 159.252 157.098 159.521 156.949C159.533 156.943 159.555 156.933 159.586 156.917C159.617 156.899 159.645 156.884 159.668 156.87C159.693 156.856 159.708 156.849 159.712 156.847C159.521 156.649 159.385 156.478 159.305 156.331C159.227 156.185 159.188 156.034 159.188 155.88C159.188 155.597 159.301 155.362 159.527 155.177C159.756 154.991 160.042 154.898 160.386 154.898C160.731 154.898 161.014 154.989 161.232 155.171C161.453 155.351 161.563 155.582 161.563 155.865C161.563 156.082 161.494 156.279 161.355 156.457C161.217 156.635 161.001 156.804 160.708 156.964L161.511 157.831C161.612 157.651 161.663 157.385 161.663 157.031V156.809H162.375V157.081C162.375 157.603 162.256 158.028 162.018 158.358L162.806 159.182H161.848ZM159.987 157.356C159.827 157.458 159.712 157.56 159.642 157.661C159.573 157.761 159.539 157.876 159.539 158.007C159.539 158.196 159.609 158.349 159.75 158.464C159.891 158.579 160.074 158.637 160.301 158.637C160.453 158.637 160.6 158.61 160.74 158.558C160.881 158.505 160.992 158.434 161.074 158.344L160.104 157.295C160.081 157.307 160.042 157.327 159.987 157.356ZM160.312 156.565C160.504 156.466 160.642 156.366 160.726 156.267C160.81 156.165 160.852 156.051 160.852 155.924C160.852 155.789 160.809 155.68 160.723 155.596C160.637 155.51 160.525 155.467 160.389 155.467C160.252 155.467 160.14 155.51 160.052 155.596C159.964 155.682 159.92 155.791 159.92 155.924C159.92 156.021 159.949 156.118 160.008 156.214C160.066 156.308 160.168 156.425 160.312 156.565ZM166.163 159.255C165.546 159.255 165.058 159.061 164.698 158.672C164.341 158.281 164.162 157.746 164.162 157.066C164.162 156.389 164.342 155.855 164.701 155.467C165.061 155.076 165.548 154.881 166.163 154.881C166.499 154.881 166.804 154.947 167.077 155.08C167.353 155.213 167.573 155.4 167.739 155.643C167.905 155.885 167.999 156.161 168.021 156.472H167.159C167.118 156.212 167.006 156.004 166.822 155.848C166.641 155.691 166.421 155.613 166.163 155.613C165.829 155.613 165.562 155.744 165.363 156.006C165.164 156.268 165.064 156.62 165.064 157.063C165.064 157.515 165.163 157.871 165.36 158.133C165.558 158.393 165.826 158.522 166.166 158.522C166.428 158.522 166.647 158.45 166.825 158.306C167.003 158.161 167.115 157.964 167.162 157.714H168.023C167.975 158.185 167.782 158.56 167.446 158.839C167.11 159.116 166.683 159.255 166.163 159.255ZM168.519 159.182V154.954H169.374V159.182H168.519ZM171.164 158.613C171.354 158.613 171.514 158.559 171.645 158.449C171.777 158.338 171.844 158.198 171.844 158.03V157.802L171.182 157.843C171.021 157.854 170.897 157.895 170.81 157.963C170.724 158.031 170.681 158.121 170.681 158.232C170.681 158.35 170.725 158.442 170.812 158.511C170.9 158.579 171.018 158.613 171.164 158.613ZM170.883 159.231C170.58 159.231 170.329 159.143 170.13 158.965C169.931 158.787 169.831 158.559 169.831 158.279C169.831 157.994 169.937 157.771 170.147 157.608C170.358 157.446 170.66 157.354 171.053 157.33L171.844 157.283V157.075C171.844 156.931 171.796 156.817 171.7 156.735C171.606 156.653 171.479 156.612 171.316 156.612C171.16 156.612 171.032 156.647 170.933 156.718C170.835 156.788 170.775 156.883 170.754 157.002H169.972C169.987 156.693 170.119 156.445 170.367 156.258C170.615 156.068 170.944 155.974 171.354 155.974C171.757 155.974 172.079 156.069 172.321 156.261C172.563 156.452 172.685 156.706 172.685 157.022V159.182H171.858V158.701H171.841C171.755 158.865 171.624 158.995 171.448 159.091C171.272 159.185 171.084 159.231 170.883 159.231ZM173.253 159.182V156.041H174.108V159.182H173.253ZM174.006 155.566C173.918 155.652 173.81 155.695 173.681 155.695C173.552 155.695 173.443 155.652 173.355 155.566C173.268 155.48 173.224 155.376 173.224 155.253C173.224 155.128 173.268 155.023 173.355 154.939C173.443 154.854 173.552 154.811 173.681 154.811C173.81 154.811 173.918 154.854 174.006 154.939C174.094 155.023 174.138 155.128 174.138 155.253C174.138 155.376 174.094 155.48 174.006 155.566ZM174.68 159.182V156.041H175.506V156.609H175.523C175.59 156.418 175.703 156.266 175.863 156.152C176.023 156.039 176.209 155.982 176.42 155.982C176.646 155.982 176.836 156.039 176.988 156.152C177.141 156.264 177.243 156.422 177.296 156.627H177.313C177.384 156.43 177.506 156.273 177.68 156.158C177.855 156.041 178.059 155.982 178.289 155.982C178.598 155.982 178.846 156.079 179.033 156.272C179.223 156.466 179.317 156.721 179.317 157.037V159.182H178.462V157.251C178.462 157.069 178.418 156.931 178.33 156.835C178.242 156.737 178.115 156.688 177.949 156.688C177.787 156.688 177.656 156.742 177.557 156.85C177.459 156.957 177.41 157.099 177.41 157.274V159.182H176.587V157.225C176.587 157.057 176.542 156.926 176.452 156.832C176.362 156.736 176.238 156.688 176.08 156.688C175.918 156.688 175.786 156.744 175.685 156.855C175.585 156.967 175.535 157.11 175.535 157.286V159.182H174.68Z" fill="#263238"/>
<path d="M197.246 129.307H124.752C123.121 129.307 121.799 130.629 121.799 132.261V136.098H200.199V132.261C200.199 130.629 198.877 129.307 197.246 129.307Z" fill="#3F3D56"/>
<path d="M182.206 136.098H139.794C138.301 136.098 137.014 135.05 136.711 133.589L135.823 129.307H186.176L185.288 133.589C184.986 135.05 183.698 136.098 182.206 136.098Z" fill="#3F3D56"/>
<path d="M152.378 181.859H136.593V166.074H152.378V181.859ZM138.795 179.657H150.175V168.277H138.795V179.657Z" fill="#263238"/>
<path d="M147.601 170.846H141.36V177.087H147.601V170.846Z" fill="#263238"/>
<path d="M152.378 214.897H136.593V199.112H152.378V214.897ZM138.795 212.694H150.175V201.315H138.795V212.694Z" fill="#263238"/>
<path d="M147.601 203.884H141.36V210.125H147.601V203.884Z" fill="#263238"/>
<path d="M185.406 181.859H169.621V166.074H185.406V181.859ZM171.824 179.657H183.203V168.277H171.824V179.657Z" fill="#263238"/>
<path d="M180.736 170.747H174.296V177.187H180.736V170.747Z" fill="#263238"/>
<path d="M157.326 167.175H154.873V169.628H157.326V167.175Z" fill="#263238"/>
<path d="M159.78 169.629H157.327V172.082H159.78V169.629Z" fill="#263238"/>
<path d="M162.23 169.629H159.777V172.082H162.23V169.629Z" fill="#263238"/>
<path d="M159.78 172.082H157.327V174.535H159.78V172.082Z" fill="#263238"/>
<path d="M157.326 176.988H154.873V179.441H157.326V176.988Z" fill="#263238"/>
<path d="M159.78 176.988H157.327V179.441H159.78V176.988Z" fill="#263238"/>
<path d="M162.23 176.988H159.777V179.441H162.23V176.988Z" fill="#263238"/>
<path d="M164.685 176.988H162.232V179.441H164.685V176.988Z" fill="#263238"/>
<path d="M164.685 174.535H162.232V176.988H164.685V174.535Z" fill="#263238"/>
<path d="M167.136 172.082H164.683V174.535H167.136V172.082Z" fill="#263238"/>
<path d="M164.685 167.175H162.232V169.628H164.685V167.175Z" fill="#263238"/>
<path d="M167.136 169.629H164.683V172.082H167.136V169.629Z" fill="#263238"/>
<path d="M167.136 176.988H164.683V179.441H167.136V176.988Z" fill="#263238"/>
<path d="M167.136 179.441H164.683V181.894H167.136V179.441Z" fill="#263238"/>
<path d="M154.871 184.348H152.418V186.801H154.871V184.348Z" fill="#263238"/>
<path d="M152.421 184.348H149.968V186.801H152.421V184.348Z" fill="#263238"/>
<path d="M149.963 184.348H147.51V186.801H149.963V184.348Z" fill="#263238"/>
<path d="M145.061 184.348H142.608V186.801H145.061V184.348Z" fill="#263238"/>
<path d="M140.152 184.348H137.699V186.801H140.152V184.348Z" fill="#263238"/>
<path d="M145.061 191.707H142.608V194.16H145.061V191.707Z" fill="#263238"/>
<path d="M145.061 194.16H142.608V196.613H145.061V194.16Z" fill="#263238"/>
<path d="M147.508 194.16H145.055V196.613H147.508V194.16Z" fill="#263238"/>
<path d="M149.963 194.16H147.51V196.613H149.963V194.16Z" fill="#263238"/>
<path d="M152.421 194.16H149.968V196.613H152.421V194.16Z" fill="#263238"/>
<path d="M152.421 191.707H149.968V194.16H152.421V191.707Z" fill="#263238"/>
<path d="M152.421 189.254H149.968V191.707H152.421V189.254Z" fill="#263238"/>
<path d="M154.871 189.254H152.418V191.707H154.871V189.254Z" fill="#263238"/>
<path d="M157.326 194.16H154.873V196.613H157.326V194.16Z" fill="#263238"/>
<path d="M157.326 191.707H154.873V194.16H157.326V191.707Z" fill="#263238"/>
<path d="M159.78 191.707H157.327V194.16H159.78V191.707Z" fill="#263238"/>
<path d="M162.23 191.707H159.777V194.16H162.23V191.707Z" fill="#263238"/>
<path d="M164.685 191.707H162.232V194.16H164.685V191.707Z" fill="#263238"/>
<path d="M167.136 194.16H164.683V196.613H167.136V194.16Z" fill="#263238"/>
<path d="M167.136 196.614H164.683V199.067H167.136V196.614Z" fill="#263238"/>
<path d="M169.59 199.067H167.137V201.52H169.59V199.067Z" fill="#263238"/>
<path d="M154.871 194.16H152.418V196.613H154.871V194.16Z" fill="#263238"/>
<path d="M142.607 191.707H140.154V194.16H142.607V191.707Z" fill="#263238"/>
<path d="M147.508 186.801H145.055V189.254H147.508V186.801Z" fill="#263238"/>
<path d="M147.508 189.254H145.055V191.707H147.508V189.254Z" fill="#263238"/>
<path d="M145.061 189.254H142.608V191.707H145.061V189.254Z" fill="#263238"/>
<path d="M142.607 189.254H140.154V191.707H142.607V189.254Z" fill="#263238"/>
<path d="M142.607 186.801H140.154V189.254H142.607V186.801Z" fill="#263238"/>
<path d="M140.152 189.254H137.699V191.707H140.152V189.254Z" fill="#263238"/>
<path d="M157.326 174.535H154.873V176.988H157.326V174.535Z" fill="#263238"/>
<path d="M157.326 179.441H154.873V181.894H157.326V179.441Z" fill="#263238"/>
<path d="M157.326 181.894H154.873V184.347H157.326V181.894Z" fill="#263238"/>
<path d="M157.326 184.348H154.873V186.801H157.326V184.348Z" fill="#263238"/>
<path d="M157.326 186.801H154.873V189.254H157.326V186.801Z" fill="#263238"/>
<path d="M159.78 186.801H157.327V189.254H159.78V186.801Z" fill="#263238"/>
<path d="M162.23 186.801H159.777V189.254H162.23V186.801Z" fill="#263238"/>
<path d="M164.685 186.801H162.232V189.254H164.685V186.801Z" fill="#263238"/>
<path d="M162.23 184.348H159.777V186.801H162.23V184.348Z" fill="#263238"/>
<path d="M167.136 184.348H164.683V186.801H167.136V184.348Z" fill="#263238"/>
<path d="M169.59 184.348H167.137V186.801H169.59V184.348Z" fill="#263238"/>
<path d="M172.045 184.348H169.592V186.801H172.045V184.348Z" fill="#263238"/>
<path d="M174.495 184.348H172.042V186.801H174.495V184.348Z" fill="#263238"/>
<path d="M176.945 184.348H174.492V186.801H176.945V184.348Z" fill="#263238"/>
<path d="M179.404 184.348H176.951V186.801H179.404V184.348Z" fill="#263238"/>
<path d="M179.404 186.801H176.951V189.254H179.404V186.801Z" fill="#263238"/>
<path d="M172.045 189.254H169.592V191.707H172.045V189.254Z" fill="#263238"/>
<path d="M169.59 189.254H167.137V191.707H169.59V189.254Z" fill="#263238"/>
<path d="M169.59 186.801H167.137V189.254H169.59V186.801Z" fill="#263238"/>
<path d="M167.136 189.254H164.683V191.707H167.136V189.254Z" fill="#263238"/>
<path d="M176.945 191.707H174.492V194.16H176.945V191.707Z" fill="#263238"/>
<path d="M176.945 194.16H174.492V196.613H176.945V194.16Z" fill="#263238"/>
<path d="M179.404 194.16H176.951V196.613H179.404V194.16Z" fill="#263238"/>
<path d="M181.854 194.16H179.401V196.613H181.854V194.16Z" fill="#263238"/>
<path d="M181.854 196.614H179.401V199.067H181.854V196.614Z" fill="#263238"/>
<path d="M181.854 199.067H179.401V201.52H181.854V199.067Z" fill="#263238"/>
<path d="M176.945 201.519H174.492V203.972H176.945V201.519Z" fill="#263238"/>
<path d="M176.945 208.898H174.492V211.351H176.945V208.898Z" fill="#263238"/>
<path d="M184.308 201.519H181.855V203.972H184.308V201.519Z" fill="#263238"/>
<path d="M184.308 211.333H181.855V213.785H184.308V211.333Z" fill="#263238"/>
<path d="M174.495 211.333H172.042V213.785H174.495V211.333Z" fill="#263238"/>
<path d="M172.045 211.333H169.592V213.785H172.045V211.333Z" fill="#263238"/>
<path d="M169.59 211.333H167.137V213.785H169.59V211.333Z" fill="#263238"/>
<path d="M167.136 211.333H164.683V213.785H167.136V211.333Z" fill="#263238"/>
<path d="M169.59 208.88H167.137V211.332H169.59V208.88Z" fill="#263238"/>
<path d="M167.136 208.88H164.683V211.332H167.136V208.88Z" fill="#263238"/>
<path d="M169.59 206.426H167.137V208.879H169.59V206.426Z" fill="#263238"/>
<path d="M169.59 203.973H167.137V206.426H169.59V203.973Z" fill="#263238"/>
<path d="M167.136 201.519H164.683V203.972H167.136V201.519Z" fill="#263238"/>
<path d="M164.685 201.519H162.232V203.972H164.685V201.519Z" fill="#263238"/>
<path d="M162.23 201.519H159.777V203.972H162.23V201.519Z" fill="#263238"/>
<path d="M159.78 201.519H157.327V203.972H159.78V201.519Z" fill="#263238"/>
<path d="M164.685 203.973H162.232V206.426H164.685V203.973Z" fill="#263238"/>
<path d="M156.776 205.064H154.323V207.517H156.776V205.064Z" fill="#263238"/>
<path d="M157.326 208.88H154.873V211.332H157.326V208.88Z" fill="#263238"/>
<path d="M157.326 199.067H154.873V201.52H157.326V199.067Z" fill="#263238"/>
<path d="M159.78 203.973H157.327V206.426H159.78V203.973Z" fill="#263238"/>
<path d="M162.23 206.426H159.777V208.879H162.23V206.426Z" fill="#263238"/>
<path d="M159.78 206.426H157.327V208.879H159.78V206.426Z" fill="#263238"/>
<path d="M162.23 208.88H159.777V211.332H162.23V208.88Z" fill="#263238"/>
<path d="M159.78 211.333H157.327V213.785H159.78V211.333Z" fill="#263238"/>
<path d="M164.685 199.067H162.232V201.52H164.685V199.067Z" fill="#263238"/>
<path d="M162.23 199.067H159.777V201.52H162.23V199.067Z" fill="#263238"/>
<path d="M156.508 196.885H154.055V199.338H156.508V196.885Z" fill="#263238"/>
<path d="M162.23 196.614H159.777V199.067H162.23V196.614Z" fill="#263238"/>
<path d="M162.23 194.16H159.777V196.613H162.23V194.16Z" fill="#263238"/>
<path d="M159.78 196.614H157.327V199.067H159.78V196.614Z" fill="#263238"/>
<path d="M157.326 201.519H154.873V203.972H157.326V201.519Z" fill="#263238"/>
<path d="M167.136 206.426H164.683V208.879H167.136V206.426Z" fill="#263238"/>
<path d="M164.685 211.333H162.232V213.785H164.685V211.333Z" fill="#263238"/>
<path d="M172.045 201.519H169.592V203.972H172.045V201.519Z" fill="#263238"/>
<path d="M174.495 203.973H172.042V206.426H174.495V203.973Z" fill="#263238"/>
<path d="M181.854 203.973H179.401V206.426H181.854V203.973Z" fill="#263238"/>
<path d="M181.854 206.426H179.401V208.879H181.854V206.426Z" fill="#263238"/>
<path d="M179.404 206.426H176.951V208.879H179.404V206.426Z" fill="#263238"/>
<path d="M176.945 206.426H174.492V208.879H176.945V206.426Z" fill="#263238"/>
<path d="M174.495 206.426H172.042V208.879H174.495V206.426Z" fill="#263238"/>
<path d="M181.854 208.88H179.401V211.332H181.854V208.88Z" fill="#263238"/>
<path d="M181.854 211.333H179.401V213.785H181.854V211.333Z" fill="#263238"/>
<path d="M176.945 196.614H174.492V199.067H176.945V196.614Z" fill="#263238"/>
<path d="M174.495 191.707H172.042V194.16H174.495V191.707Z" fill="#263238"/>
<path d="M174.495 194.16H172.042V196.613H174.495V194.16Z" fill="#263238"/>
<path d="M174.495 196.614H172.042V199.067H174.495V196.614Z" fill="#263238"/>
<path d="M172.045 199.067H169.592V201.52H172.045V199.067Z" fill="#263238"/>
<path d="M172.045 194.16H169.592V196.613H172.045V194.16Z" fill="#263238"/>
<path d="M172.045 196.614H169.592V199.067H172.045V196.614Z" fill="#263238"/>
<path d="M176.945 189.254H174.492V191.707H176.945V189.254Z" fill="#263238"/>
<path d="M176.945 199.067H174.492V201.52H176.945V199.067Z" fill="#263238"/>
<path d="M179.404 199.067H176.951V201.52H179.404V199.067Z" fill="#263238"/>
<path d="M181.854 186.801H179.401V189.254H181.854V186.801Z" fill="#263238"/>
<path d="M181.854 189.254H179.401V191.707H181.854V189.254Z" fill="#263238"/>
<path d="M184.308 184.348H181.855V186.801H184.308V184.348Z" fill="#263238"/>
<path d="M184.308 191.707H181.855V194.16H184.308V191.707Z" fill="#263238"/>
<path d="M162.23 181.894H159.777V184.347H162.23V181.894Z" fill="#263238"/>
<path d="M164.685 181.894H162.232V184.347H164.685V181.894Z" fill="#263238"/>
<path d="M133.877 170.72H131.849V162.325H140.244V164.353H133.877V170.72Z" fill="#71CE8F"/>
<path d="M140.244 218.646H131.849V210.251H133.877V216.618H140.244V218.646Z" fill="#71CE8F"/>
<path d="M190.152 218.646H181.757V216.618H188.124V210.251H190.152V218.646Z" fill="#71CE8F"/>
<path d="M190.152 170.72H188.124V164.353H181.757V162.325H190.152V170.72Z" fill="#71CE8F"/>
<path d="M197.598 133.729H193.816V131.676H197.598V133.729ZM194.01 133.566H197.404V131.838H194.01V133.566Z" fill="white"/>
<path d="M194.807 132.057H194.199V133.348H194.807V132.057Z" fill="white"/>
<path d="M195.6 132.057H194.992V133.348H195.6V132.057Z" fill="white"/>
<path d="M196.393 132.057H195.785V133.348H196.393V132.057Z" fill="white"/>
<path d="M198.105 132.057H197.498V133.348H198.105V132.057Z" fill="white"/>
<path d="M188.807 132.703H188.285V133.729H188.807V132.703Z" fill="white"/>
<path d="M189.642 132.389H189.12V133.729H189.642V132.389Z" fill="white"/>
<path d="M190.478 132.016H189.956V133.729H190.478V132.016Z" fill="white"/>
<path d="M191.317 131.676H190.795V133.729H191.317V131.676Z" fill="white"/>
<path d="M125.716 134.529C125.522 134.529 125.357 134.476 125.22 134.371C125.083 134.264 124.979 134.11 124.907 133.908C124.835 133.705 124.799 133.46 124.799 133.173C124.799 132.888 124.835 132.644 124.907 132.442C124.98 132.24 125.085 132.085 125.221 131.978C125.359 131.871 125.524 131.817 125.716 131.817C125.909 131.817 126.073 131.871 126.21 131.978C126.347 132.085 126.452 132.24 126.524 132.442C126.597 132.644 126.634 132.888 126.634 133.173C126.634 133.46 126.598 133.705 126.526 133.908C126.454 134.11 126.349 134.264 126.213 134.371C126.076 134.476 125.91 134.529 125.716 134.529ZM125.716 134.246C125.909 134.246 126.058 134.153 126.165 133.967C126.271 133.782 126.325 133.517 126.325 133.173C126.325 132.945 126.3 132.75 126.251 132.589C126.203 132.429 126.133 132.306 126.042 132.222C125.952 132.138 125.843 132.096 125.716 132.096C125.526 132.096 125.376 132.19 125.269 132.378C125.162 132.565 125.108 132.83 125.108 133.173C125.108 133.402 125.132 133.596 125.18 133.756C125.228 133.916 125.297 134.037 125.388 134.121C125.479 134.204 125.588 134.246 125.716 134.246ZM127.062 133.952V133.689L128.222 131.853H128.413V132.261H128.284L127.407 133.648V133.668H128.97V133.952H127.062ZM128.304 134.493V133.872V133.749V131.853H128.609V134.493H128.304ZM129.555 134.514C129.492 134.514 129.437 134.491 129.392 134.445C129.346 134.4 129.323 134.345 129.323 134.282C129.323 134.218 129.346 134.164 129.392 134.118C129.437 134.072 129.492 134.05 129.555 134.05C129.619 134.05 129.673 134.072 129.719 134.118C129.765 134.164 129.787 134.218 129.787 134.282C129.787 134.324 129.777 134.362 129.755 134.398C129.734 134.433 129.707 134.461 129.671 134.483C129.637 134.503 129.598 134.514 129.555 134.514ZM130.328 134.493V134.261L131.199 133.307C131.302 133.196 131.386 133.098 131.452 133.016C131.518 132.933 131.567 132.854 131.599 132.781C131.632 132.707 131.648 132.63 131.648 132.549C131.648 132.457 131.626 132.376 131.581 132.308C131.537 132.24 131.477 132.188 131.4 132.151C131.324 132.114 131.238 132.096 131.143 132.096C131.041 132.096 130.953 132.117 130.877 132.159C130.802 132.2 130.744 132.258 130.703 132.333C130.663 132.408 130.643 132.495 130.643 132.596H130.338C130.338 132.441 130.374 132.305 130.445 132.188C130.517 132.072 130.614 131.981 130.737 131.915C130.86 131.85 130.999 131.817 131.153 131.817C131.308 131.817 131.445 131.85 131.564 131.915C131.684 131.981 131.777 132.069 131.845 132.179C131.913 132.29 131.947 132.414 131.947 132.549C131.947 132.646 131.929 132.741 131.894 132.834C131.86 132.926 131.8 133.029 131.714 133.142C131.629 133.255 131.51 133.392 131.359 133.555L130.766 134.189V134.209H131.993V134.493H130.328ZM133.387 134.529C133.192 134.529 133.027 134.476 132.89 134.371C132.754 134.264 132.649 134.11 132.577 133.908C132.505 133.705 132.469 133.46 132.469 133.173C132.469 132.888 132.505 132.644 132.577 132.442C132.65 132.24 132.755 132.085 132.892 131.978C133.029 131.871 133.194 131.817 133.387 131.817C133.579 131.817 133.744 131.871 133.88 131.978C134.018 132.085 134.123 132.24 134.195 132.442C134.268 132.644 134.304 132.888 134.304 133.173C134.304 133.46 134.268 133.705 134.196 133.908C134.124 134.11 134.02 134.264 133.883 134.371C133.746 134.476 133.581 134.529 133.387 134.529ZM133.387 134.246C133.579 134.246 133.729 134.153 133.835 133.967C133.942 133.782 133.995 133.517 133.995 133.173C133.995 132.945 133.971 132.75 133.922 132.589C133.873 132.429 133.804 132.306 133.713 132.222C133.623 132.138 133.514 132.096 133.387 132.096C133.196 132.096 133.047 132.19 132.939 132.378C132.832 132.565 132.778 132.83 132.778 133.173C132.778 133.402 132.802 133.596 132.85 133.756C132.899 133.916 132.968 134.037 133.058 134.121C133.149 134.204 133.259 134.246 133.387 134.246ZM135.861 134.493V131.853H136.753C136.96 131.853 137.13 131.891 137.261 131.965C137.393 132.039 137.491 132.139 137.555 132.266C137.619 132.392 137.65 132.533 137.65 132.689C137.65 132.844 137.619 132.985 137.555 133.113C137.492 133.24 137.395 133.341 137.264 133.417C137.132 133.492 136.964 133.529 136.758 133.529H136.119V133.245H136.748C136.89 133.245 137.004 133.221 137.09 133.172C137.176 133.123 137.238 133.057 137.277 132.973C137.316 132.889 137.336 132.794 137.336 132.689C137.336 132.583 137.316 132.488 137.277 132.405C137.238 132.322 137.175 132.256 137.088 132.209C137.002 132.161 136.886 132.137 136.743 132.137H136.181V134.493H135.861ZM138.165 131.853H138.547L139.444 134.044H139.475L140.372 131.853H140.753V134.493H140.454V132.487H140.429L139.604 134.493H139.315L138.49 132.487H138.464V134.493H138.165V131.853Z" fill="white"/>
<path d="M171.409 133.347H150.602C150.141 133.347 149.767 132.973 149.767 132.512C149.767 132.05 150.141 131.676 150.602 131.676H171.409C171.871 131.676 172.245 132.05 172.245 132.512C172.245 132.973 171.871 133.347 171.409 133.347Z" fill="white"/>
<path d="M177.402 132.511C177.402 132.973 177.028 133.347 176.567 133.347C176.105 133.347 175.73 132.972 175.73 132.511C175.73 132.049 176.105 131.675 176.567 131.675C177.028 131.675 177.402 132.049 177.402 132.511Z" fill="white"/>
<path d="M179.311 133.347C179.773 133.347 180.147 132.972 180.147 132.511C180.147 132.049 179.773 131.675 179.311 131.675C178.85 131.675 178.476 132.049 178.476 132.511C178.476 132.972 178.85 133.347 179.311 133.347Z" fill="white"/>
<path d="M153.999 235.087L155.911 233.094L159.844 236.272L167.093 229L168.999 230.867L159.692 240L153.999 235.087Z" fill="#36C265"/>
<path d="M200.199 150.369V145.347C199.834 145.08 199.384 144.931 198.933 144.977C197.98 145.075 197.194 146.014 197.265 146.969C196.763 144.791 194.323 143.268 192.146 143.774C189.969 144.28 188.451 146.723 188.96 148.899L181.468 150.369H200.199Z" fill="#E2FBEA"/>
<path d="M254 304.621C251.615 310.161 237.211 321.749 223.815 318.404C223.815 318.404 201.279 266.053 199.801 264.041C198.322 262.033 193.649 261.146 190.88 258.226C188.115 255.305 181.199 248.011 179.987 244.254C178.771 240.5 177.271 235.093 176.154 231.891C175.907 231.187 175.567 230.418 175.195 229.621V229.615C173.906 226.797 172.282 223.691 173.343 222.181C173.507 221.949 173.723 221.741 173.989 221.57H173.995C175.91 220.343 180.197 221.403 182.146 224.051C185.103 228.068 185.672 231.37 187.246 233.927C188.82 236.488 193.686 238.475 195.69 236.993C197.694 235.512 197.227 219.729 195.631 213.774C194.035 207.819 191.988 202.508 191.152 200.955C190.317 199.399 186.717 194.925 186.244 192.176C186.083 191.239 186.114 190.272 186.312 189.432C186.702 187.795 187.75 186.633 189.325 187.107C190.358 187.42 191.898 188.812 193.417 190.409C195.418 192.498 197.388 194.941 198.171 195.769C199.553 197.229 201.697 203.088 202.628 205.193C203.556 207.298 205.795 213.706 206.915 216.911C206.915 216.911 211.019 214.499 213.5 215.767C215.98 217.035 217.289 221.341 217.289 221.341C217.289 221.341 220.391 219.67 222.872 220.938C225.352 222.206 226.017 226.056 226.017 226.056C226.017 226.056 228.761 225.579 230.143 227.039C231.526 228.499 232.141 238.59 231.9 243.73C231.659 248.87 228.337 259.078 226.521 261.661L254 304.615V304.621Z" fill="#F5AB85"/>
<g filter="url(#filter0_d_1_240582)">
<rect x="10" y="167" width="84" height="54" rx="3" fill="white"/>
</g>
<path d="M28.2539 176.074L27.7188 178H27.1621L26.416 175.182H27.0273L27.4707 177.223H27.4863L28.0137 175.182H28.5117L29.0391 177.223H29.0547L29.5 175.182H30.1113L29.3633 178H28.8066L28.2715 176.074H28.2539ZM30.9238 177.621C31.0501 177.621 31.1569 177.585 31.2441 177.512C31.3327 177.438 31.377 177.344 31.377 177.232V177.08L30.9355 177.107C30.8288 177.115 30.7461 177.142 30.6875 177.188C30.6302 177.233 30.6016 177.293 30.6016 177.367C30.6016 177.445 30.6309 177.507 30.6895 177.553C30.748 177.598 30.8262 177.621 30.9238 177.621ZM30.7363 178.033C30.5345 178.033 30.3672 177.974 30.2344 177.855C30.1016 177.737 30.0352 177.585 30.0352 177.398C30.0352 177.208 30.1055 177.059 30.2461 176.951C30.3867 176.843 30.5879 176.781 30.8496 176.766L31.377 176.734V176.596C31.377 176.499 31.3451 176.424 31.2812 176.369C31.2188 176.314 31.1335 176.287 31.0254 176.287C30.9212 176.287 30.8359 176.311 30.7695 176.357C30.7044 176.404 30.6647 176.467 30.6504 176.547H30.1289C30.1393 176.341 30.2272 176.176 30.3926 176.051C30.5579 175.924 30.7773 175.861 31.0508 175.861C31.319 175.861 31.5339 175.925 31.6953 176.053C31.8568 176.18 31.9375 176.35 31.9375 176.561V178H31.3867V177.68H31.375C31.3177 177.789 31.2305 177.876 31.1133 177.939C30.9961 178.002 30.8704 178.033 30.7363 178.033ZM32.3066 178V175.906H32.8574V176.283H32.8691C32.9056 176.15 32.9668 176.049 33.0527 175.979C33.1387 175.908 33.2435 175.873 33.3672 175.873C33.4271 175.873 33.4811 175.88 33.5293 175.895V176.396C33.4759 176.374 33.4069 176.363 33.3223 176.363C33.1816 176.363 33.0723 176.404 32.9941 176.486C32.916 176.568 32.877 176.683 32.877 176.83V178H32.3066ZM33.7637 178V175.906H34.3145V176.283H34.3262C34.3626 176.15 34.4238 176.049 34.5098 175.979C34.5957 175.908 34.7005 175.873 34.8242 175.873C34.8841 175.873 34.9382 175.88 34.9863 175.895V176.396C34.9329 176.374 34.8639 176.363 34.7793 176.363C34.6387 176.363 34.5293 176.404 34.4512 176.486C34.373 176.568 34.334 176.683 34.334 176.83V178H33.7637ZM35.9785 177.621C36.1048 177.621 36.2116 177.585 36.2988 177.512C36.3874 177.438 36.4316 177.344 36.4316 177.232V177.08L35.9902 177.107C35.8835 177.115 35.8008 177.142 35.7422 177.188C35.6849 177.233 35.6562 177.293 35.6562 177.367C35.6562 177.445 35.6855 177.507 35.7441 177.553C35.8027 177.598 35.8809 177.621 35.9785 177.621ZM35.791 178.033C35.5892 178.033 35.4219 177.974 35.2891 177.855C35.1562 177.737 35.0898 177.585 35.0898 177.398C35.0898 177.208 35.1602 177.059 35.3008 176.951C35.4414 176.843 35.6426 176.781 35.9043 176.766L36.4316 176.734V176.596C36.4316 176.499 36.3997 176.424 36.3359 176.369C36.2734 176.314 36.1882 176.287 36.0801 176.287C35.9759 176.287 35.8906 176.311 35.8242 176.357C35.7591 176.404 35.7194 176.467 35.7051 176.547H35.1836C35.194 176.341 35.2819 176.176 35.4473 176.051C35.6126 175.924 35.832 175.861 36.1055 175.861C36.3737 175.861 36.5885 175.925 36.75 176.053C36.9115 176.18 36.9922 176.35 36.9922 176.561V178H36.4414V177.68H36.4297C36.3724 177.789 36.2852 177.876 36.168 177.939C36.0508 178.002 35.9251 178.033 35.791 178.033ZM37.3613 178V175.906H37.9121V176.279H37.9238C37.9811 176.146 38.0645 176.045 38.1738 175.975C38.2845 175.903 38.4193 175.867 38.5781 175.867C38.8099 175.867 38.9889 175.936 39.1152 176.074C39.2415 176.212 39.3047 176.404 39.3047 176.65V178H38.7344V176.77C38.7344 176.632 38.7018 176.525 38.6367 176.451C38.5716 176.377 38.4759 176.34 38.3496 176.34C38.2233 176.34 38.1217 176.382 38.0449 176.467C37.9694 176.551 37.9316 176.662 37.9316 176.799V178H37.3613ZM39.8184 175.424H40.3887V175.906H40.7754V176.336H40.3887V177.338C40.3887 177.495 40.4707 177.574 40.6348 177.574C40.6882 177.574 40.7344 177.571 40.7734 177.564V177.984C40.707 178 40.6165 178.008 40.502 178.008C40.2559 178.008 40.0801 177.964 39.9746 177.875C39.8704 177.786 39.8184 177.64 39.8184 177.436V176.336H39.5234V175.906H39.8184V175.424ZM41.3555 178.775C41.2305 178.775 41.1589 178.773 41.1406 178.77V178.33C41.1523 178.333 41.1999 178.334 41.2832 178.334C41.3887 178.334 41.4688 178.316 41.5234 178.279C41.5781 178.244 41.6152 178.185 41.6348 178.102C41.6348 178.1 41.638 178.084 41.6445 178.053C41.651 178.021 41.6536 178.005 41.6523 178.002L40.9238 175.906H41.5508L41.9961 177.543H42.0059L42.4512 175.906H43.0527L42.332 178.047C42.2422 178.315 42.1237 178.503 41.9766 178.611C41.8307 178.721 41.6237 178.775 41.3555 178.775ZM45.3477 178.049C44.9362 178.049 44.6107 177.919 44.3711 177.66C44.1328 177.4 44.0137 177.043 44.0137 176.59C44.0137 176.138 44.1335 175.783 44.373 175.523C44.6126 175.263 44.9375 175.133 45.3477 175.133C45.5716 175.133 45.7747 175.177 45.957 175.266C46.1406 175.354 46.2878 175.479 46.3984 175.641C46.5091 175.802 46.5716 175.986 46.5859 176.193H46.0117C45.9844 176.02 45.9095 175.882 45.7871 175.777C45.666 175.673 45.5195 175.621 45.3477 175.621C45.125 175.621 44.9473 175.708 44.8145 175.883C44.6816 176.057 44.6152 176.292 44.6152 176.588C44.6152 176.889 44.681 177.126 44.8125 177.301C44.944 177.474 45.123 177.561 45.3496 177.561C45.5241 177.561 45.6706 177.512 45.7891 177.416C45.9076 177.32 45.9824 177.188 46.0137 177.021H46.5879C46.5553 177.335 46.4271 177.585 46.2031 177.771C45.9792 177.956 45.694 178.049 45.3477 178.049ZM47.7012 177.621C47.8275 177.621 47.9342 177.585 48.0215 177.512C48.11 177.438 48.1543 177.344 48.1543 177.232V177.08L47.7129 177.107C47.6061 177.115 47.5234 177.142 47.4648 177.188C47.4076 177.233 47.3789 177.293 47.3789 177.367C47.3789 177.445 47.4082 177.507 47.4668 177.553C47.5254 177.598 47.6035 177.621 47.7012 177.621ZM47.5137 178.033C47.3118 178.033 47.1445 177.974 47.0117 177.855C46.8789 177.737 46.8125 177.585 46.8125 177.398C46.8125 177.208 46.8828 177.059 47.0234 176.951C47.1641 176.843 47.3652 176.781 47.627 176.766L48.1543 176.734V176.596C48.1543 176.499 48.1224 176.424 48.0586 176.369C47.9961 176.314 47.9108 176.287 47.8027 176.287C47.6986 176.287 47.6133 176.311 47.5469 176.357C47.4818 176.404 47.4421 176.467 47.4277 176.547H46.9062C46.9167 176.341 47.0046 176.176 47.1699 176.051C47.3353 175.924 47.5547 175.861 47.8281 175.861C48.0964 175.861 48.3112 175.925 48.4727 176.053C48.6341 176.18 48.7148 176.35 48.7148 176.561V178H48.1641V177.68H48.1523C48.0951 177.789 48.0078 177.876 47.8906 177.939C47.7734 178.002 47.6478 178.033 47.5137 178.033ZM49.084 178V175.906H49.6348V176.283H49.6465C49.6829 176.15 49.7441 176.049 49.8301 175.979C49.916 175.908 50.0208 175.873 50.1445 175.873C50.2044 175.873 50.2585 175.88 50.3066 175.895V176.396C50.2533 176.374 50.1842 176.363 50.0996 176.363C49.959 176.363 49.8496 176.404 49.7715 176.486C49.6934 176.568 49.6543 176.683 49.6543 176.83V178H49.084ZM51.248 178.033C50.9863 178.033 50.7786 177.936 50.625 177.742C50.4714 177.548 50.3945 177.284 50.3945 176.949C50.3945 176.617 50.4714 176.355 50.625 176.162C50.7799 175.969 50.9889 175.873 51.252 175.873C51.4004 175.873 51.5306 175.909 51.6426 175.98C51.7559 176.052 51.8385 176.147 51.8906 176.266H51.9023V175.182H52.4727V178H51.9102V177.641H51.9004C51.8483 177.759 51.7643 177.854 51.6484 177.926C51.5326 177.997 51.3991 178.033 51.248 178.033ZM51.4414 176.33C51.2982 176.33 51.1849 176.386 51.1016 176.498C51.0195 176.61 50.9785 176.762 50.9785 176.953C50.9785 177.146 51.0195 177.298 51.1016 177.408C51.1849 177.519 51.2982 177.574 51.4414 177.574C51.5833 177.574 51.696 177.519 51.7793 177.408C51.8639 177.296 51.9062 177.145 51.9062 176.953C51.9062 176.763 51.8639 176.612 51.7793 176.5C51.696 176.387 51.5833 176.33 51.4414 176.33Z" fill="#36C265"/>
<rect x="14" y="182" width="52" height="9" rx="1" fill="#E9F3FF"/>
<rect x="70" y="176" width="20" height="39" rx="1" fill="#E9F3FF"/>
<rect x="14" y="194" width="52" height="9" rx="1" fill="#E9F3FF"/>
<rect x="14" y="206" width="52" height="9" rx="1" fill="#E9F3FF"/>
<path d="M75 185.427L76.4021 183.977L79.2864 186.289L84.6026 181L86 182.358L79.1745 189L75 185.427Z" fill="#36C265"/>
<path d="M77.9829 198.742H74.1514V194.91H77.9829V198.742ZM74.686 198.207H77.4483V195.445H74.686V198.207Z" fill="#263238"/>
<path d="M76.8233 196.068H75.3086V197.583H76.8233V196.068Z" fill="#263238"/>
<path d="M77.9829 206.761H74.1514V202.929H77.9829V206.761ZM74.686 206.226H77.4483V203.464H74.686V206.226Z" fill="#263238"/>
<path d="M76.8233 204.088H75.3086V205.603H76.8233V204.088Z" fill="#263238"/>
<path d="M86.0015 198.742H82.1699V194.91H86.0015V198.742ZM82.7046 198.207H85.4668V195.445H82.7046V198.207Z" fill="#263238"/>
<path d="M84.867 196.044H83.3037V197.608H84.867V196.044Z" fill="#263238"/>
<path d="M79.1843 195.177H78.5889V195.773H79.1843V195.177Z" fill="#263238"/>
<path d="M79.78 195.773H79.1846V196.368H79.78V195.773Z" fill="#263238"/>
<path d="M80.3747 195.773H79.7793V196.368H80.3747V195.773Z" fill="#263238"/>
<path d="M79.78 196.369H79.1846V196.964H79.78V196.369Z" fill="#263238"/>
<path d="M79.1843 197.559H78.5889V198.155H79.1843V197.559Z" fill="#263238"/>
<path d="M79.78 197.559H79.1846V198.155H79.78V197.559Z" fill="#263238"/>
<path d="M80.3747 197.559H79.7793V198.155H80.3747V197.559Z" fill="#263238"/>
<path d="M80.9714 197.559H80.376V198.155H80.9714V197.559Z" fill="#263238"/>
<path d="M80.9714 196.964H80.376V197.559H80.9714V196.964Z" fill="#263238"/>
<path d="M81.5651 196.369H80.9697V196.964H81.5651V196.369Z" fill="#263238"/>
<path d="M80.9714 195.177H80.376V195.773H80.9714V195.177Z" fill="#263238"/>
<path d="M81.5651 195.773H80.9697V196.368H81.5651V195.773Z" fill="#263238"/>
<path d="M81.5651 197.559H80.9697V198.155H81.5651V197.559Z" fill="#263238"/>
<path d="M81.5651 198.155H80.9697V198.75H81.5651V198.155Z" fill="#263238"/>
<path d="M78.5886 199.346H77.9932V199.941H78.5886V199.346Z" fill="#263238"/>
<path d="M77.9939 199.346H77.3984V199.941H77.9939V199.346Z" fill="#263238"/>
<path d="M77.3972 199.346H76.8018V199.941H77.3972V199.346Z" fill="#263238"/>
<path d="M76.2077 199.346H75.6123V199.941H76.2077V199.346Z" fill="#263238"/>
<path d="M75.0153 199.346H74.4199V199.941H75.0153V199.346Z" fill="#263238"/>
<path d="M76.2077 201.132H75.6123V201.728H76.2077V201.132Z" fill="#263238"/>
<path d="M76.2077 201.728H75.6123V202.323H76.2077V201.728Z" fill="#263238"/>
<path d="M76.8005 201.728H76.2051V202.323H76.8005V201.728Z" fill="#263238"/>
<path d="M77.3972 201.728H76.8018V202.323H77.3972V201.728Z" fill="#263238"/>
<path d="M77.9939 201.728H77.3984V202.323H77.9939V201.728Z" fill="#263238"/>
<path d="M77.9939 201.132H77.3984V201.728H77.9939V201.132Z" fill="#263238"/>
<path d="M77.9939 200.537H77.3984V201.132H77.9939V200.537Z" fill="#263238"/>
<path d="M78.5886 200.537H77.9932V201.132H78.5886V200.537Z" fill="#263238"/>
<path d="M79.1843 201.728H78.5889V202.323H79.1843V201.728Z" fill="#263238"/>
<path d="M79.1843 201.132H78.5889V201.728H79.1843V201.132Z" fill="#263238"/>
<path d="M79.78 201.132H79.1846V201.728H79.78V201.132Z" fill="#263238"/>
<path d="M80.3747 201.132H79.7793V201.728H80.3747V201.132Z" fill="#263238"/>
<path d="M80.9714 201.132H80.376V201.728H80.9714V201.132Z" fill="#263238"/>
<path d="M81.5651 201.728H80.9697V202.323H81.5651V201.728Z" fill="#263238"/>
<path d="M81.5651 202.323H80.9697V202.919H81.5651V202.323Z" fill="#263238"/>
<path d="M82.1609 202.919H81.5654V203.514H82.1609V202.919Z" fill="#263238"/>
<path d="M78.5886 201.728H77.9932V202.323H78.5886V201.728Z" fill="#263238"/>
<path d="M75.612 201.132H75.0166V201.728H75.612V201.132Z" fill="#263238"/>
<path d="M76.8005 199.941H76.2051V200.537H76.8005V199.941Z" fill="#263238"/>
<path d="M76.8005 200.537H76.2051V201.132H76.8005V200.537Z" fill="#263238"/>
<path d="M76.2077 200.537H75.6123V201.132H76.2077V200.537Z" fill="#263238"/>
<path d="M75.612 200.537H75.0166V201.132H75.612V200.537Z" fill="#263238"/>
<path d="M75.612 199.941H75.0166V200.537H75.612V199.941Z" fill="#263238"/>
<path d="M75.0153 200.537H74.4199V201.132H75.0153V200.537Z" fill="#263238"/>
<path d="M79.1843 196.964H78.5889V197.559H79.1843V196.964Z" fill="#263238"/>
<path d="M79.1843 198.155H78.5889V198.75H79.1843V198.155Z" fill="#263238"/>
<path d="M79.1843 198.75H78.5889V199.346H79.1843V198.75Z" fill="#263238"/>
<path d="M79.1843 199.346H78.5889V199.941H79.1843V199.346Z" fill="#263238"/>
<path d="M79.1843 199.941H78.5889V200.537H79.1843V199.941Z" fill="#263238"/>
<path d="M79.78 199.941H79.1846V200.537H79.78V199.941Z" fill="#263238"/>
<path d="M80.3747 199.941H79.7793V200.537H80.3747V199.941Z" fill="#263238"/>
<path d="M80.9714 199.941H80.376V200.537H80.9714V199.941Z" fill="#263238"/>
<path d="M80.3747 199.346H79.7793V199.941H80.3747V199.346Z" fill="#263238"/>
<path d="M81.5651 199.346H80.9697V199.941H81.5651V199.346Z" fill="#263238"/>
<path d="M82.1609 199.346H81.5654V199.941H82.1609V199.346Z" fill="#263238"/>
<path d="M82.7575 199.346H82.1621V199.941H82.7575V199.346Z" fill="#263238"/>
<path d="M83.3523 199.346H82.7568V199.941H83.3523V199.346Z" fill="#263238"/>
<path d="M83.946 199.346H83.3506V199.941H83.946V199.346Z" fill="#263238"/>
<path d="M84.5437 199.346H83.9482V199.941H84.5437V199.346Z" fill="#263238"/>
<path d="M84.5437 199.941H83.9482V200.537H84.5437V199.941Z" fill="#263238"/>
<path d="M82.7575 200.537H82.1621V201.132H82.7575V200.537Z" fill="#263238"/>
<path d="M82.1609 200.537H81.5654V201.132H82.1609V200.537Z" fill="#263238"/>
<path d="M82.1609 199.941H81.5654V200.537H82.1609V199.941Z" fill="#263238"/>
<path d="M81.5651 200.537H80.9697V201.132H81.5651V200.537Z" fill="#263238"/>
<path d="M83.946 201.132H83.3506V201.728H83.946V201.132Z" fill="#263238"/>
<path d="M83.946 201.728H83.3506V202.323H83.946V201.728Z" fill="#263238"/>
<path d="M84.5437 201.728H83.9482V202.323H84.5437V201.728Z" fill="#263238"/>
<path d="M85.1384 201.728H84.543V202.323H85.1384V201.728Z" fill="#263238"/>
<path d="M85.1384 202.323H84.543V202.919H85.1384V202.323Z" fill="#263238"/>
<path d="M85.1384 202.919H84.543V203.514H85.1384V202.919Z" fill="#263238"/>
<path d="M83.946 203.514H83.3506V204.109H83.946V203.514Z" fill="#263238"/>
<path d="M83.946 205.305H83.3506V205.9H83.946V205.305Z" fill="#263238"/>
<path d="M85.7341 203.514H85.1387V204.109H85.7341V203.514Z" fill="#263238"/>
<path d="M85.7341 205.896H85.1387V206.491H85.7341V205.896Z" fill="#263238"/>
<path d="M83.3523 205.896H82.7568V206.491H83.3523V205.896Z" fill="#263238"/>
<path d="M82.7575 205.896H82.1621V206.491H82.7575V205.896Z" fill="#263238"/>
<path d="M82.1609 205.896H81.5654V206.491H82.1609V205.896Z" fill="#263238"/>
<path d="M81.5651 205.896H80.9697V206.491H81.5651V205.896Z" fill="#263238"/>
<path d="M82.1609 205.301H81.5654V205.896H82.1609V205.301Z" fill="#263238"/>
<path d="M81.5651 205.301H80.9697V205.896H81.5651V205.301Z" fill="#263238"/>
<path d="M82.1609 204.705H81.5654V205.3H82.1609V204.705Z" fill="#263238"/>
<path d="M82.1609 204.109H81.5654V204.705H82.1609V204.109Z" fill="#263238"/>
<path d="M81.5651 203.514H80.9697V204.109H81.5651V203.514Z" fill="#263238"/>
<path d="M80.9714 203.514H80.376V204.109H80.9714V203.514Z" fill="#263238"/>
<path d="M80.3747 203.514H79.7793V204.109H80.3747V203.514Z" fill="#263238"/>
<path d="M79.78 203.514H79.1846V204.109H79.78V203.514Z" fill="#263238"/>
<path d="M80.9714 204.109H80.376V204.705H80.9714V204.109Z" fill="#263238"/>
<path d="M79.0505 204.374H78.4551V204.97H79.0505V204.374Z" fill="#263238"/>
<path d="M79.1843 205.301H78.5889V205.896H79.1843V205.301Z" fill="#263238"/>
<path d="M79.1843 202.919H78.5889V203.514H79.1843V202.919Z" fill="#263238"/>
<path d="M79.78 204.109H79.1846V204.705H79.78V204.109Z" fill="#263238"/>
<path d="M80.3747 204.705H79.7793V205.3H80.3747V204.705Z" fill="#263238"/>
<path d="M79.78 204.705H79.1846V205.3H79.78V204.705Z" fill="#263238"/>
<path d="M80.3747 205.301H79.7793V205.896H80.3747V205.301Z" fill="#263238"/>
<path d="M79.78 205.896H79.1846V206.491H79.78V205.896Z" fill="#263238"/>
<path d="M80.9714 202.919H80.376V203.514H80.9714V202.919Z" fill="#263238"/>
<path d="M80.3747 202.919H79.7793V203.514H80.3747V202.919Z" fill="#263238"/>
<path d="M78.9851 202.389H78.3896V202.984H78.9851V202.389Z" fill="#263238"/>
<path d="M80.3747 202.323H79.7793V202.919H80.3747V202.323Z" fill="#263238"/>
<path d="M80.3747 201.728H79.7793V202.323H80.3747V201.728Z" fill="#263238"/>
<path d="M79.78 202.323H79.1846V202.919H79.78V202.323Z" fill="#263238"/>
<path d="M79.1843 203.514H78.5889V204.109H79.1843V203.514Z" fill="#263238"/>
<path d="M81.5651 204.705H80.9697V205.3H81.5651V204.705Z" fill="#263238"/>
<path d="M80.9714 205.896H80.376V206.491H80.9714V205.896Z" fill="#263238"/>
<path d="M82.7575 203.514H82.1621V204.109H82.7575V203.514Z" fill="#263238"/>
<path d="M83.3523 204.109H82.7568V204.705H83.3523V204.109Z" fill="#263238"/>
<path d="M85.1384 204.109H84.543V204.705H85.1384V204.109Z" fill="#263238"/>
<path d="M85.1384 204.705H84.543V205.3H85.1384V204.705Z" fill="#263238"/>
<path d="M84.5437 204.705H83.9482V205.3H84.5437V204.705Z" fill="#263238"/>
<path d="M83.946 204.705H83.3506V205.3H83.946V204.705Z" fill="#263238"/>
<path d="M83.3523 204.705H82.7568V205.3H83.3523V204.705Z" fill="#263238"/>
<path d="M85.1384 205.301H84.543V205.896H85.1384V205.301Z" fill="#263238"/>
<path d="M85.1384 205.896H84.543V206.491H85.1384V205.896Z" fill="#263238"/>
<path d="M83.946 202.323H83.3506V202.919H83.946V202.323Z" fill="#263238"/>
<path d="M83.3523 201.132H82.7568V201.728H83.3523V201.132Z" fill="#263238"/>
<path d="M83.3523 201.728H82.7568V202.323H83.3523V201.728Z" fill="#263238"/>
<path d="M83.3523 202.323H82.7568V202.919H83.3523V202.323Z" fill="#263238"/>
<path d="M82.7575 202.919H82.1621V203.514H82.7575V202.919Z" fill="#263238"/>
<path d="M82.7575 201.728H82.1621V202.323H82.7575V201.728Z" fill="#263238"/>
<path d="M82.7575 202.323H82.1621V202.919H82.7575V202.323Z" fill="#263238"/>
<path d="M83.946 200.537H83.3506V201.132H83.946V200.537Z" fill="#263238"/>
<path d="M83.946 202.919H83.3506V203.514H83.946V202.919Z" fill="#263238"/>
<path d="M84.5437 202.919H83.9482V203.514H84.5437V202.919Z" fill="#263238"/>
<path d="M85.1384 199.941H84.543V200.537H85.1384V199.941Z" fill="#263238"/>
<path d="M85.1384 200.537H84.543V201.132H85.1384V200.537Z" fill="#263238"/>
<path d="M85.7341 199.346H85.1387V199.941H85.7341V199.346Z" fill="#263238"/>
<path d="M85.7341 201.132H85.1387V201.728H85.7341V201.132Z" fill="#263238"/>
<path d="M80.3747 198.75H79.7793V199.346H80.3747V198.75Z" fill="#263238"/>
<path d="M80.9714 198.75H80.376V199.346H80.9714V198.75Z" fill="#263238"/>
<path d="M73.4924 196.038H73V194H75.0378V194.492H73.4924V196.038Z" fill="#71CE8F"/>
<path d="M75.0378 207.671H73V205.633H73.4924V207.179H75.0378V207.671Z" fill="#71CE8F"/>
<path d="M87.1531 207.671H85.1152V207.179H86.6607V205.633H87.1531V207.671Z" fill="#71CE8F"/>
<path d="M87.1531 196.038H86.6607V194.492H85.1152V194H87.1531V196.038Z" fill="#71CE8F"/>
</g>
<defs>
<filter id="filter0_d_1_240582" x="-5" y="157" width="114" height="84" filterUnits="userSpaceOnUse" color-interpolation-filters="sRGB">
<feFlood flood-opacity="0" result="BackgroundImageFix"/>
<feColorMatrix in="SourceAlpha" type="matrix" values="0 0 0 0 0 0 0 0 0 0 0 0 0 0 0 0 0 0 127 0" result="hardAlpha"/>
<feOffset dy="5"/>
<feGaussianBlur stdDeviation="7.5"/>
<feComposite in2="hardAlpha" operator="out"/>
<feColorMatrix type="matrix" values="0 0 0 0 0 0 0 0 0 0 0 0 0 0 0 0 0 0 0.08 0"/>
<feBlend mode="normal" in2="BackgroundImageFix" result="effect1_dropShadow_1_240582"/>
<feBlend mode="normal" in="SourceGraphic" in2="effect1_dropShadow_1_240582" result="shape"/>
</filter>
<clipPath id="clip0_1_240582">
<rect width="232" height="289" rx="8" fill="white"/>
</clipPath>
</defs>
</svg>
