<svg width="647" height="467" viewBox="0 0 647 467" fill="none" xmlns="http://www.w3.org/2000/svg">
<g clip-path="url(#clip0_1_198030)">
<rect y="0.5" width="647" height="466" rx="8" fill="#E2FBEA"/>
<path d="M498.324 199.964C498.579 203.175 498.751 206.409 498.837 209.664L498.337 209.677C498.38 211.292 498.401 212.911 498.401 214.535C498.401 216.16 498.38 217.779 498.337 219.393L498.837 219.406C498.751 222.661 498.579 225.896 498.324 229.107L497.825 229.067C497.568 232.302 497.225 235.514 496.799 238.699L497.294 238.766C496.863 241.989 496.348 245.187 495.749 248.356L495.258 248.263C494.657 251.448 493.972 254.605 493.206 257.73L493.691 257.849C492.918 261.004 492.061 264.128 491.125 267.217L490.646 267.072C489.707 270.171 488.687 273.236 487.588 276.264L488.058 276.434C486.95 279.485 485.764 282.499 484.5 285.473L484.04 285.277C482.774 288.255 481.431 291.193 480.013 294.089L480.463 294.309C479.036 297.222 477.534 300.092 475.959 302.918L475.522 302.674C473.947 305.498 472.299 308.277 470.581 311.009L471.004 311.275C469.278 314.018 467.48 316.713 465.614 319.358L465.206 319.07C463.343 321.71 461.411 324.3 459.414 326.837L459.807 327.146C457.803 329.691 455.733 332.183 453.599 334.619L453.223 334.289C451.095 336.719 448.903 339.093 446.651 341.408L447.009 341.757C444.752 344.078 442.433 346.34 440.056 348.543L439.717 348.176C437.349 350.37 434.922 352.503 432.44 354.574L432.761 354.958C430.276 357.031 427.736 359.041 425.142 360.987L424.842 360.587C422.261 362.522 419.627 364.394 416.942 366.198L417.221 366.613C414.536 368.417 411.802 370.154 409.019 371.821L408.762 371.393C405.996 373.05 403.183 374.639 400.325 376.156L400.56 376.598C397.705 378.114 394.806 379.558 391.865 380.93L391.654 380.477C388.733 381.839 385.771 383.128 382.77 384.343L382.958 384.806C379.964 386.018 376.931 387.155 373.862 388.216L373.698 387.743C370.655 388.795 367.576 389.771 364.463 390.67L364.601 391.15C361.501 392.045 358.367 392.863 355.202 393.602L355.088 393.115C351.955 393.847 348.792 394.501 345.6 395.075L345.689 395.567C342.515 396.137 339.314 396.629 336.087 397.04L336.024 396.544C332.835 396.95 329.621 397.276 326.384 397.522L326.422 398.02C323.21 398.264 319.976 398.427 316.72 398.509L316.708 398.009C315.093 398.05 313.474 398.07 311.849 398.07C310.225 398.07 308.605 398.05 306.99 398.009L306.978 398.509C303.722 398.427 300.488 398.264 297.276 398.02L297.314 397.522C294.077 397.276 290.863 396.95 287.674 396.544L287.611 397.04C284.384 396.629 281.183 396.137 278.01 395.567L278.098 395.075C274.906 394.501 271.743 393.847 268.61 393.115L268.496 393.602C265.331 392.863 262.197 392.045 259.097 391.15L259.235 390.67C256.122 389.771 253.043 388.795 250 387.743L249.836 388.216C246.767 387.155 243.734 386.018 240.74 384.806L240.928 384.343C237.927 383.128 234.965 381.839 232.045 380.477L231.833 380.93C228.892 379.558 225.993 378.114 223.139 376.598L223.373 376.156C220.515 374.639 217.702 373.05 214.936 371.393L214.679 371.821C211.897 370.154 209.162 368.417 206.477 366.613L206.756 366.198C204.072 364.394 201.437 362.522 198.856 360.587L198.556 360.987C195.963 359.041 193.422 357.031 190.937 354.958L191.258 354.574C188.776 352.503 186.349 350.37 183.981 348.176L183.642 348.543C181.265 346.34 178.946 344.078 176.689 341.757L177.048 341.408C174.795 339.093 172.603 336.719 170.475 334.289L170.099 334.619C167.965 332.183 165.895 329.691 163.891 327.146L164.284 326.837C162.287 324.3 160.355 321.71 158.492 319.07L158.084 319.358C156.218 316.713 154.42 314.018 152.694 311.275L153.117 311.009C151.399 308.277 149.751 305.498 148.176 302.674L147.739 302.918C146.164 300.092 144.662 297.222 143.236 294.309L143.685 294.089C142.267 291.193 140.924 288.255 139.659 285.277L139.198 285.473C137.935 282.499 136.748 279.485 135.64 276.434L136.11 276.264C135.012 273.236 133.991 270.171 133.052 267.072L132.573 267.217C131.637 264.128 130.781 261.004 130.007 257.849L130.493 257.73C129.726 254.605 129.041 251.448 128.44 248.263L127.949 248.356C127.35 245.187 126.835 241.989 126.404 238.766L126.899 238.699C126.473 235.514 126.131 232.302 125.873 229.067L125.375 229.107C125.119 225.896 124.947 222.661 124.861 219.406L125.361 219.393C125.318 217.779 125.297 216.16 125.297 214.535C125.297 212.911 125.318 211.292 125.361 209.677L124.861 209.664C124.947 206.409 125.119 203.175 125.375 199.964L125.873 200.004C126.131 196.768 126.473 193.557 126.899 190.371L126.404 190.305C126.835 187.081 127.35 183.884 127.949 180.715L128.44 180.807C129.041 177.622 129.726 174.466 130.493 171.341L130.007 171.222C130.781 168.066 131.637 164.943 132.573 161.853L133.052 161.998C133.991 158.899 135.012 155.835 136.11 152.807L135.64 152.636C136.748 149.585 137.935 146.572 139.198 143.597L139.659 143.793C140.924 140.815 142.267 137.878 143.685 134.982L143.236 134.762C144.662 131.849 146.164 128.978 147.739 126.153L148.176 126.396C149.751 123.572 151.399 120.793 153.117 118.062L152.694 117.796C154.42 115.052 156.218 112.357 158.084 109.712L158.492 110.001C160.355 107.36 162.287 104.771 164.284 102.234L163.891 101.924C165.895 99.3795 167.965 96.8878 170.099 94.4516L170.475 94.7811C172.603 92.3518 174.795 89.9779 177.048 87.662L176.689 87.3134C178.946 84.9927 181.265 82.73 183.642 80.5279L183.981 80.8947C186.349 78.7009 188.776 76.5673 191.258 74.4964L190.937 74.1125C193.422 72.0395 195.963 70.0291 198.556 68.0839L198.856 68.4839C201.437 66.548 204.072 64.6768 206.756 62.8728L206.477 62.4578C209.162 60.6537 211.897 58.9167 214.679 57.2491L214.936 57.678C217.702 56.0204 220.515 54.4316 223.373 52.9141L223.139 52.4725C225.993 50.9568 228.892 49.512 231.833 48.1405L232.045 48.5937C234.965 47.2319 237.927 45.9425 240.928 44.728L240.741 44.2645C243.734 43.0529 246.767 41.9156 249.836 40.8547L250 41.3273C253.043 40.2755 256.122 39.2992 259.235 38.4006L259.097 37.9202C262.197 37.0252 265.331 36.2071 268.496 35.4681L268.61 35.955C271.743 35.2236 274.906 34.5698 278.098 33.996L278.01 33.5039C281.183 32.9334 284.384 32.4416 287.611 32.0308L287.675 32.5268C290.863 32.121 294.077 31.7943 297.314 31.5489L297.276 31.0503C300.488 30.8068 303.722 30.6431 306.978 30.5612L306.99 31.061C308.605 31.0204 310.225 31 311.849 31C313.474 31 315.093 31.0204 316.708 31.061L316.72 30.5612C319.976 30.6431 323.21 30.8068 326.422 31.0503L326.384 31.5489C329.621 31.7943 332.835 32.121 336.024 32.5268L336.087 32.0308C339.314 32.4416 342.515 32.9334 345.689 33.5039L345.6 33.996C348.792 34.5698 351.955 35.2236 355.088 35.955L355.202 35.4681C358.367 36.2071 361.501 37.0252 364.602 37.9202L364.463 38.4006C367.576 39.2992 370.655 40.2756 373.698 41.3273L373.862 40.8547C376.931 41.9156 379.964 43.0529 382.958 44.2645L382.77 44.728C385.771 45.9425 388.733 47.2319 391.654 48.5937L391.865 48.1405C394.806 49.512 397.705 50.9568 400.56 52.4725L400.325 52.9141C403.183 54.4316 405.996 56.0204 408.762 57.678L409.019 57.2491C411.802 58.9167 414.536 60.6537 417.221 62.4578L416.942 62.8728C419.627 64.6768 422.261 66.548 424.842 68.4839L425.142 68.0839C427.736 70.0291 430.276 72.0395 432.761 74.1125L432.44 74.4964C434.922 76.5673 437.349 78.7009 439.717 80.8947L440.056 80.5279C442.433 82.73 444.752 84.9927 447.009 87.3134L446.651 87.662C448.903 89.9779 451.095 92.3518 453.223 94.7811L453.599 94.4517C455.733 96.8878 457.803 99.3795 459.807 101.924L459.414 102.234C461.411 104.771 463.343 107.36 465.206 110.001L465.614 109.712C467.48 112.357 469.278 115.052 471.004 117.796L470.581 118.062C472.299 120.793 473.947 123.572 475.522 126.396L475.959 126.153C477.534 128.978 479.036 131.849 480.463 134.762L480.013 134.982C481.431 137.878 482.774 140.815 484.04 143.793L484.5 143.597C485.764 146.572 486.95 149.585 488.058 152.636L487.588 152.807C488.687 155.835 489.707 158.899 490.646 161.998L491.125 161.853C492.061 164.943 492.918 168.066 493.691 171.222L493.206 171.341C493.972 174.466 494.657 177.622 495.258 180.808L495.749 180.715C496.348 183.884 496.863 187.081 497.294 190.305L496.799 190.371C497.225 193.557 497.568 196.768 497.825 200.004L498.324 199.964Z" stroke="#70D994" stroke-dasharray="10 10"/>
<path d="M331.496 281.493C333.199 276.659 331.781 270.907 328.018 267.376C324.255 263.845 318.348 262.725 313.52 264.627C308.693 266.529 305.204 271.351 304.958 276.461C304.722 274.704 302.916 273.302 301.125 273.483C299.333 273.665 297.856 275.4 297.989 277.167C297.045 273.139 292.457 270.323 288.365 271.258C284.273 272.194 281.418 276.713 282.377 280.738L268.291 283.456H342.255L331.496 281.493Z" fill="white"/>
<path d="M284.857 83.965C285.611 82.0139 284.87 79.6056 283.141 78.3944C281.412 77.1831 278.856 77.2814 277.229 78.6211C278.579 75.474 277.207 71.4415 274.206 69.7267C271.205 68.0119 266.966 68.8386 264.856 71.5511C262.141 64.4802 253.69 60.0717 246.218 61.8271C238.745 63.5835 233.232 71.2743 234.058 78.7893C232.128 76.2081 228.045 75.5089 225.342 77.2965C222.638 79.0841 221.756 83.0683 223.457 85.8017L214.838 88.0522H290.698L284.857 83.965Z" fill="white"/>
<path d="M416.361 123.547C418.064 118.713 416.646 112.96 412.883 109.43C409.12 105.899 403.213 104.778 398.385 106.68C393.558 108.582 390.069 113.405 389.823 118.515C389.587 116.759 387.782 115.356 385.99 115.537C384.198 115.718 382.721 117.454 382.854 119.221C381.91 115.193 377.322 112.377 373.23 113.312C369.138 114.247 366.284 118.766 367.242 122.791L353.156 125.509H427.119L416.361 123.547Z" fill="white"/>
<path d="M463.325 441.581H316.421C312.404 441.581 309.148 438.377 309.148 434.426V144.932C309.148 140.98 312.405 137.776 316.421 137.776H463.326C467.343 137.776 470.6 140.98 470.6 144.932V434.426C470.599 438.377 467.342 441.581 463.325 441.581Z" fill="#3F3D56"/>
<path d="M457.528 421.387H322.23C318.892 421.387 316.186 418.724 316.186 415.44V151.688C316.186 148.404 318.892 145.741 322.23 145.741H457.528C460.866 145.741 463.572 148.404 463.572 151.688V415.44C463.572 418.724 460.866 421.387 457.528 421.387Z" fill="white"/>
<path d="M383.008 179.604C384.234 177.762 383.484 174.947 381.497 173.933C379.511 172.919 376.74 173.941 375.917 175.988C374.455 170.164 368.883 165.583 362.798 165.201C356.713 164.818 350.595 168.665 348.391 174.258C347.236 171.423 342.474 171.087 340.919 173.732C340.035 170.243 335.446 168.238 332.222 169.93C328.997 171.622 328.136 176.489 330.587 179.154L322.244 182.062H391.42L383.008 179.604Z" fill="#E2FBEA"/>
<path d="M316.561 333.719V416.868C316.561 419.021 319.034 420.765 322.085 420.765H457.669C460.721 420.765 463.194 419.021 463.194 416.868V343.777C443.092 323.437 413.648 306.731 372.933 312.961C345.916 317.095 328.167 324.855 316.561 333.719Z" fill="#D2FFE1"/>
<path d="M348.047 361.215L346.709 366.029H345.317L343.452 358.983H344.98L346.089 364.086H346.128L347.446 358.983H348.691L350.01 364.086H350.049L351.162 358.983H352.69L350.82 366.029H349.429L348.091 361.215H348.047ZM354.722 365.082C355.342 365.082 355.854 364.677 355.854 364.11V363.729L354.751 363.798C354.219 363.837 353.916 364.076 353.916 364.447C353.916 364.838 354.238 365.082 354.722 365.082ZM354.253 366.112C353.257 366.112 352.5 365.468 352.5 364.525C352.5 363.573 353.232 363.021 354.536 362.943L355.854 362.865V362.519C355.854 362.03 355.513 361.747 354.976 361.747C354.443 361.747 354.106 362.011 354.038 362.396H352.734C352.788 361.381 353.652 360.683 355.039 360.683C356.382 360.683 357.256 361.376 357.256 362.431V366.029H355.879V365.229H355.85C355.557 365.785 354.907 366.112 354.253 366.112ZM358.179 366.029V360.795H359.556V361.737H359.585C359.771 361.073 360.215 360.712 360.83 360.712C360.996 360.712 361.138 360.736 361.235 360.766V362.021C361.118 361.972 360.923 361.938 360.718 361.938C360.015 361.938 359.604 362.367 359.604 363.104V366.029H358.179ZM361.821 366.029V360.795H363.198V361.737H363.228C363.413 361.073 363.857 360.712 364.473 360.712C364.639 360.712 364.78 360.736 364.878 360.766V362.021C364.761 361.972 364.565 361.938 364.36 361.938C363.657 361.938 363.247 362.367 363.247 363.104V366.029H361.821ZM367.358 365.082C367.979 365.082 368.491 364.677 368.491 364.11V363.729L367.388 363.798C366.855 363.837 366.553 364.076 366.553 364.447C366.553 364.838 366.875 365.082 367.358 365.082ZM366.89 366.112C365.894 366.112 365.137 365.468 365.137 364.525C365.137 363.573 365.869 363.021 367.173 362.943L368.491 362.865V362.519C368.491 362.03 368.149 361.747 367.612 361.747C367.08 361.747 366.743 362.011 366.675 362.396H365.371C365.425 361.381 366.289 360.683 367.676 360.683C369.019 360.683 369.893 361.376 369.893 362.431V366.029H368.516V365.229H368.486C368.193 365.785 367.544 366.112 366.89 366.112ZM370.815 366.029V360.795H372.192V361.728H372.222C372.5 361.078 373.052 360.697 373.857 360.697C375.02 360.697 375.674 361.43 375.674 362.655V366.029H374.248V362.953C374.248 362.27 373.926 361.879 373.286 361.879C372.646 361.879 372.241 362.348 372.241 363.026V366.029H370.815ZM376.958 359.589H378.384V360.795H379.351V361.869H378.384V364.374C378.384 364.774 378.579 364.965 378.999 364.965C379.126 364.965 379.258 364.955 379.346 364.94V365.99C379.199 366.024 378.955 366.049 378.667 366.049C377.437 366.049 376.958 365.639 376.958 364.618V361.869H376.221V360.795H376.958V359.589ZM380.801 367.968C380.752 367.968 380.308 367.963 380.264 367.953V366.854C380.308 366.864 380.566 366.864 380.62 366.864C381.143 366.864 381.401 366.698 381.499 366.283C381.499 366.264 381.553 366.054 381.543 366.034L379.722 360.795H381.289L382.402 364.887H382.427L383.54 360.795H385.044L383.242 366.146C382.793 367.489 382.139 367.968 380.801 367.968ZM389.141 360.136V362.382H390.41C391.152 362.382 391.587 361.957 391.587 361.259C391.587 360.575 391.128 360.136 390.396 360.136H389.141ZM389.141 363.451V366.029H387.666V358.983H390.552C392.173 358.983 393.101 359.838 393.101 361.229C393.101 362.133 392.632 362.914 391.821 363.231L393.306 366.029H391.636L390.322 363.451H389.141ZM396.25 361.737C395.625 361.737 395.176 362.211 395.127 362.865H397.349C397.319 362.196 396.885 361.737 396.25 361.737ZM397.368 364.428H398.677C398.521 365.453 397.583 366.142 396.289 366.142C394.678 366.142 393.711 365.111 393.711 363.437C393.711 361.767 394.687 360.683 396.235 360.683C397.759 360.683 398.721 361.713 398.721 363.305V363.739H395.112V363.827C395.112 364.574 395.586 365.087 396.313 365.087C396.836 365.087 397.236 364.828 397.368 364.428ZM401.875 364.916C402.588 364.916 403.042 364.35 403.042 363.402C403.042 362.46 402.588 361.854 401.875 361.854C401.172 361.854 400.728 362.45 400.728 363.402C400.728 364.359 401.167 364.916 401.875 364.916ZM401.851 368.002C400.474 368.002 399.541 367.333 399.429 366.4H400.825C400.937 366.762 401.348 367.011 401.89 367.011C402.627 367.011 403.037 366.601 403.037 365.995V365.077H403.008C402.764 365.634 402.148 366.015 401.392 366.015C400.112 366.015 399.268 365.028 399.268 363.393C399.268 361.732 400.088 360.712 401.416 360.712C402.168 360.712 402.759 361.107 403.032 361.708H403.057V360.795H404.463V365.956C404.463 367.206 403.418 368.002 401.851 368.002ZM405.42 366.029V360.795H406.846V366.029H405.42ZM406.133 360.219C405.703 360.219 405.371 359.892 405.371 359.481C405.371 359.066 405.703 358.744 406.133 358.744C406.562 358.744 406.895 359.066 406.895 359.481C406.895 359.892 406.562 360.219 406.133 360.219ZM407.71 362.333C407.71 361.337 408.574 360.683 409.917 360.683C411.23 360.683 412.085 361.347 412.104 362.362H410.791C410.762 361.942 410.425 361.684 409.897 361.684C409.404 361.684 409.082 361.908 409.082 362.245C409.082 362.504 409.307 362.68 409.766 362.787L410.767 363.002C411.816 363.236 412.241 363.651 412.241 364.433C412.241 365.463 411.294 366.142 409.912 366.142C408.516 366.142 407.656 365.468 407.578 364.447H408.97C409.038 364.887 409.385 365.141 409.951 365.141C410.493 365.141 410.82 364.926 410.82 364.584C410.82 364.32 410.645 364.174 410.176 364.062L409.209 363.847C408.218 363.622 407.71 363.104 407.71 362.333ZM413.335 359.589H414.761V360.795H415.728V361.869H414.761V364.374C414.761 364.774 414.956 364.965 415.376 364.965C415.503 364.965 415.635 364.955 415.723 364.94V365.99C415.576 366.024 415.332 366.049 415.044 366.049C413.813 366.049 413.335 365.639 413.335 364.618V361.869H412.598V360.795H413.335V359.589ZM418.779 361.737C418.154 361.737 417.705 362.211 417.656 362.865H419.878C419.849 362.196 419.414 361.737 418.779 361.737ZM419.897 364.428H421.206C421.05 365.453 420.112 366.142 418.818 366.142C417.207 366.142 416.24 365.111 416.24 363.437C416.24 361.767 417.217 360.683 418.765 360.683C420.288 360.683 421.25 361.713 421.25 363.305V363.739H417.642V363.827C417.642 364.574 418.115 365.087 418.843 365.087C419.365 365.087 419.766 364.828 419.897 364.428ZM421.987 366.029V360.795H423.364V361.737H423.394C423.579 361.073 424.023 360.712 424.639 360.712C424.805 360.712 424.946 360.736 425.044 360.766V362.021C424.927 361.972 424.731 361.938 424.526 361.938C423.823 361.938 423.413 362.367 423.413 363.104V366.029H421.987ZM427.803 361.737C427.178 361.737 426.729 362.211 426.68 362.865H428.901C428.872 362.196 428.438 361.737 427.803 361.737ZM428.921 364.428H430.229C430.073 365.453 429.136 366.142 427.842 366.142C426.23 366.142 425.264 365.111 425.264 363.437C425.264 361.767 426.24 360.683 427.788 360.683C429.312 360.683 430.273 361.713 430.273 363.305V363.739H426.665V363.827C426.665 364.574 427.139 365.087 427.866 365.087C428.389 365.087 428.789 364.828 428.921 364.428ZM432.954 366.112C431.646 366.112 430.82 365.077 430.82 363.402C430.82 361.742 431.65 360.712 432.964 360.712C433.721 360.712 434.307 361.112 434.561 361.693H434.59V358.983H436.016V366.029H434.609V365.131H434.585C434.331 365.707 433.726 366.112 432.954 366.112ZM433.438 361.854C432.72 361.854 432.28 362.455 432.28 363.412C432.28 364.374 432.72 364.965 433.438 364.965C434.146 364.965 434.6 364.369 434.6 363.412C434.6 362.46 434.146 361.854 433.438 361.854Z" fill="#36C265"/>
<path d="M359.322 196.494H360.743C360.812 197.075 361.417 197.456 362.198 197.456C362.984 197.456 363.521 197.08 363.521 196.562C363.521 196.103 363.185 195.849 362.335 195.659L361.417 195.458C360.118 195.18 359.479 194.521 359.479 193.491C359.479 192.192 360.602 191.333 362.174 191.333C363.814 191.333 364.845 192.177 364.869 193.452H363.487C363.438 192.856 362.916 192.495 362.179 192.495C361.451 192.495 360.963 192.841 360.963 193.364C360.963 193.798 361.305 194.042 362.115 194.228L362.97 194.409C364.381 194.711 364.996 195.317 364.996 196.391C364.996 197.758 363.888 198.623 362.14 198.623C360.445 198.623 359.366 197.817 359.322 196.494ZM370.538 195.214H369.215C369.132 194.663 368.766 194.272 368.18 194.272C367.477 194.272 367.037 194.868 367.037 195.878C367.037 196.909 367.477 197.495 368.185 197.495C368.756 197.495 369.127 197.153 369.215 196.582H370.543C370.47 197.817 369.547 198.613 368.17 198.613C366.593 198.613 365.592 197.587 365.592 195.878C365.592 194.199 366.593 193.154 368.16 193.154C369.576 193.154 370.475 194.028 370.538 195.214ZM373.253 197.553C373.873 197.553 374.386 197.148 374.386 196.582V196.201L373.282 196.269C372.75 196.308 372.447 196.547 372.447 196.918C372.447 197.309 372.77 197.553 373.253 197.553ZM372.784 198.583C371.788 198.583 371.031 197.939 371.031 196.997C371.031 196.044 371.764 195.493 373.067 195.415L374.386 195.336V194.99C374.386 194.501 374.044 194.218 373.507 194.218C372.975 194.218 372.638 194.482 372.569 194.868H371.266C371.319 193.852 372.184 193.154 373.57 193.154C374.913 193.154 375.787 193.847 375.787 194.902V198.5H374.41V197.7H374.381C374.088 198.256 373.438 198.583 372.784 198.583ZM376.71 198.5V193.266H378.087V194.199H378.116C378.395 193.549 378.946 193.168 379.752 193.168C380.914 193.168 381.568 193.901 381.568 195.126V198.5H380.143V195.424C380.143 194.741 379.82 194.35 379.181 194.35C378.541 194.35 378.136 194.819 378.136 195.498V198.5H376.71ZM389.503 198.5L388.961 197.915C388.438 198.364 387.633 198.627 386.778 198.627C385.284 198.627 384.322 197.851 384.322 196.655C384.322 195.854 384.728 195.273 385.626 194.78C385.699 194.741 385.924 194.619 385.943 194.609C385.309 193.955 385.069 193.515 385.069 192.998C385.069 192.055 385.919 191.362 387.066 191.362C388.219 191.362 389.029 192.026 389.029 192.973C389.029 193.696 388.58 194.272 387.604 194.804L388.941 196.25C389.112 195.947 389.195 195.522 389.195 194.917V194.545H390.382V195C390.382 195.859 390.167 196.601 389.786 197.128L391.1 198.5H389.503ZM386.402 195.458C385.87 195.795 385.655 196.108 385.655 196.542C385.655 197.172 386.168 197.592 386.925 197.592C387.433 197.592 387.94 197.402 388.214 197.104L386.598 195.356C386.544 195.38 386.446 195.434 386.402 195.458ZM386.944 194.14C387.584 193.808 387.843 193.496 387.843 193.071C387.843 192.622 387.53 192.309 387.071 192.309C386.617 192.309 386.29 192.631 386.29 193.071C386.29 193.398 386.466 193.676 386.944 194.14ZM396.695 198.623C394.645 198.623 393.36 197.25 393.36 194.975C393.36 192.705 394.654 191.333 396.695 191.333C398.39 191.333 399.679 192.407 399.791 193.984H398.355C398.219 193.12 397.555 192.553 396.695 192.553C395.582 192.553 394.864 193.486 394.864 194.97C394.864 196.474 395.572 197.402 396.7 197.402C397.574 197.402 398.204 196.889 398.36 196.054H399.796C399.63 197.626 398.424 198.623 396.695 198.623ZM400.621 198.5V191.455H402.047V198.5H400.621ZM405.03 197.553C405.65 197.553 406.163 197.148 406.163 196.582V196.201L405.06 196.269C404.527 196.308 404.225 196.547 404.225 196.918C404.225 197.309 404.547 197.553 405.03 197.553ZM404.562 198.583C403.565 198.583 402.809 197.939 402.809 196.997C402.809 196.044 403.541 195.493 404.845 195.415L406.163 195.336V194.99C406.163 194.501 405.821 194.218 405.284 194.218C404.752 194.218 404.415 194.482 404.347 194.868H403.043C403.097 193.852 403.961 193.154 405.348 193.154C406.69 193.154 407.564 193.847 407.564 194.902V198.5H406.188V197.7H406.158C405.865 198.256 405.216 198.583 404.562 198.583ZM408.512 198.5V193.266H409.938V198.5H408.512ZM409.225 192.69C408.795 192.69 408.463 192.363 408.463 191.953C408.463 191.538 408.795 191.215 409.225 191.215C409.654 191.215 409.986 191.538 409.986 191.953C409.986 192.363 409.654 192.69 409.225 192.69ZM410.89 198.5V193.266H412.267V194.213H412.296C412.516 193.583 413.077 193.168 413.79 193.168C414.547 193.168 415.074 193.559 415.25 194.243H415.279C415.514 193.583 416.139 193.168 416.905 193.168C417.931 193.168 418.619 193.872 418.619 194.926V198.5H417.193V195.283C417.193 194.677 416.891 194.345 416.339 194.345C415.797 194.345 415.44 194.741 415.44 195.322V198.5H414.068V195.239C414.068 194.677 413.751 194.345 413.224 194.345C412.682 194.345 412.315 194.755 412.315 195.341V198.5H410.89Z" fill="#263238"/>
<path d="M458.02 145.741H321.738C318.671 145.741 316.186 148.187 316.186 151.205V158.302H463.572V151.205C463.572 148.186 461.086 145.741 458.02 145.741Z" fill="#3F3D56"/>
<path d="M429.745 158.302H350.013C347.207 158.302 344.787 156.364 344.218 153.661L342.549 145.741H437.208L435.539 153.661C434.971 156.364 432.55 158.302 429.745 158.302Z" fill="#3F3D56"/>
<path d="M373.68 242.942H344.006V213.747H373.68V242.942ZM348.147 238.868H369.539V217.821H348.147V238.868Z" fill="#263238"/>
<path d="M364.696 222.572H352.965V234.115H364.696V222.572Z" fill="#263238"/>
<path d="M373.68 304.048H344.006V274.852H373.68V304.048ZM348.147 299.974H369.539V278.926H348.147V299.974Z" fill="#263238"/>
<path d="M364.696 283.68H352.965V295.222H364.696V283.68Z" fill="#263238"/>
<path d="M435.76 242.943H406.086V213.747H435.76V242.943ZM410.227 238.869H431.619V217.821H410.227V238.869Z" fill="#263238"/>
<path d="M426.986 222.388H414.879V234.3H426.986V222.388Z" fill="#263238"/>
<path d="M382.979 215.783H378.367V220.32H382.979V215.783Z" fill="#263238"/>
<path d="M387.596 220.321H382.984V224.858H387.596V220.321Z" fill="#263238"/>
<path d="M392.199 220.321H387.588V224.858H392.199V220.321Z" fill="#263238"/>
<path d="M387.596 224.859H382.984V229.396H387.596V224.859Z" fill="#263238"/>
<path d="M382.979 233.934H378.367V238.471H382.979V233.934Z" fill="#263238"/>
<path d="M387.596 233.934H382.984V238.471H387.596V233.934Z" fill="#263238"/>
<path d="M392.199 233.934H387.588V238.471H392.199V233.934Z" fill="#263238"/>
<path d="M396.816 233.934H392.205V238.471H396.816V233.934Z" fill="#263238"/>
<path d="M396.816 229.396H392.205V233.932H396.816V229.396Z" fill="#263238"/>
<path d="M401.426 224.859H396.814V229.396H401.426V224.859Z" fill="#263238"/>
<path d="M396.816 215.783H392.205V220.32H396.816V215.783Z" fill="#263238"/>
<path d="M401.426 220.321H396.814V224.858H401.426V220.321Z" fill="#263238"/>
<path d="M401.426 233.934H396.814V238.471H401.426V233.934Z" fill="#263238"/>
<path d="M401.426 238.47H396.814V243.007H401.426V238.47Z" fill="#263238"/>
<path d="M378.361 247.546H373.75V252.083H378.361V247.546Z" fill="#263238"/>
<path d="M373.76 247.546H369.148V252.083H373.76V247.546Z" fill="#263238"/>
<path d="M369.141 247.546H364.529V252.083H369.141V247.546Z" fill="#263238"/>
<path d="M359.926 247.546H355.314V252.083H359.926V247.546Z" fill="#263238"/>
<path d="M350.686 247.546H346.074V252.083H350.686V247.546Z" fill="#263238"/>
<path d="M359.926 261.157H355.314V265.694H359.926V261.157Z" fill="#263238"/>
<path d="M359.926 265.694H355.314V270.231H359.926V265.694Z" fill="#263238"/>
<path d="M364.52 265.694H359.908V270.231H364.52V265.694Z" fill="#263238"/>
<path d="M369.141 265.694H364.529V270.231H369.141V265.694Z" fill="#263238"/>
<path d="M373.76 265.694H369.148V270.231H373.76V265.694Z" fill="#263238"/>
<path d="M373.76 261.157H369.148V265.694H373.76V261.157Z" fill="#263238"/>
<path d="M373.76 256.619H369.148V261.156H373.76V256.619Z" fill="#263238"/>
<path d="M378.361 256.619H373.75V261.156H378.361V256.619Z" fill="#263238"/>
<path d="M382.979 265.694H378.367V270.231H382.979V265.694Z" fill="#263238"/>
<path d="M382.979 261.157H378.367V265.694H382.979V261.157Z" fill="#263238"/>
<path d="M387.596 261.157H382.984V265.694H387.596V261.157Z" fill="#263238"/>
<path d="M392.199 261.157H387.588V265.694H392.199V261.157Z" fill="#263238"/>
<path d="M396.816 261.157H392.205V265.694H396.816V261.157Z" fill="#263238"/>
<path d="M401.426 265.694H396.814V270.231H401.426V265.694Z" fill="#263238"/>
<path d="M401.426 270.231H396.814V274.768H401.426V270.231Z" fill="#263238"/>
<path d="M406.031 274.769H401.42V279.306H406.031V274.769Z" fill="#263238"/>
<path d="M378.361 265.694H373.75V270.231H378.361V265.694Z" fill="#263238"/>
<path d="M355.316 261.157H350.705V265.694H355.316V261.157Z" fill="#263238"/>
<path d="M364.52 252.082H359.908V256.619H364.52V252.082Z" fill="#263238"/>
<path d="M364.52 256.619H359.908V261.156H364.52V256.619Z" fill="#263238"/>
<path d="M359.926 256.619H355.314V261.156H359.926V256.619Z" fill="#263238"/>
<path d="M355.316 256.619H350.705V261.156H355.316V256.619Z" fill="#263238"/>
<path d="M355.316 252.082H350.705V256.619H355.316V252.082Z" fill="#263238"/>
<path d="M350.686 256.619H346.074V261.156H350.686V256.619Z" fill="#263238"/>
<path d="M382.979 229.396H378.367V233.932H382.979V229.396Z" fill="#263238"/>
<path d="M382.979 238.47H378.367V243.007H382.979V238.47Z" fill="#263238"/>
<path d="M382.979 243.006H378.367V247.543H382.979V243.006Z" fill="#263238"/>
<path d="M382.979 247.546H378.367V252.083H382.979V247.546Z" fill="#263238"/>
<path d="M382.979 252.082H378.367V256.619H382.979V252.082Z" fill="#263238"/>
<path d="M387.596 252.082H382.984V256.619H387.596V252.082Z" fill="#263238"/>
<path d="M392.199 252.082H387.588V256.619H392.199V252.082Z" fill="#263238"/>
<path d="M396.816 252.082H392.205V256.619H396.816V252.082Z" fill="#263238"/>
<path d="M392.199 247.546H387.588V252.083H392.199V247.546Z" fill="#263238"/>
<path d="M401.426 247.546H396.814V252.083H401.426V247.546Z" fill="#263238"/>
<path d="M406.031 247.546H401.42V252.083H406.031V247.546Z" fill="#263238"/>
<path d="M410.65 247.546H406.039V252.083H410.65V247.546Z" fill="#263238"/>
<path d="M415.252 247.546H410.641V252.083H415.252V247.546Z" fill="#263238"/>
<path d="M419.861 247.546H415.25V252.083H419.861V247.546Z" fill="#263238"/>
<path d="M424.486 247.546H419.875V252.083H424.486V247.546Z" fill="#263238"/>
<path d="M424.486 252.082H419.875V256.619H424.486V252.082Z" fill="#263238"/>
<path d="M410.65 256.619H406.039V261.156H410.65V256.619Z" fill="#263238"/>
<path d="M406.031 256.619H401.42V261.156H406.031V256.619Z" fill="#263238"/>
<path d="M406.031 252.082H401.42V256.619H406.031V252.082Z" fill="#263238"/>
<path d="M401.426 256.619H396.814V261.156H401.426V256.619Z" fill="#263238"/>
<path d="M419.861 261.157H415.25V265.694H419.861V261.157Z" fill="#263238"/>
<path d="M419.861 265.694H415.25V270.231H419.861V265.694Z" fill="#263238"/>
<path d="M424.486 265.694H419.875V270.231H424.486V265.694Z" fill="#263238"/>
<path d="M429.088 265.694H424.477V270.231H429.088V265.694Z" fill="#263238"/>
<path d="M429.088 270.231H424.477V274.768H429.088V270.231Z" fill="#263238"/>
<path d="M429.088 274.769H424.477V279.306H429.088V274.769Z" fill="#263238"/>
<path d="M419.861 279.306H415.25V283.843H419.861V279.306Z" fill="#263238"/>
<path d="M419.861 292.954H415.25V297.491H419.861V292.954Z" fill="#263238"/>
<path d="M433.703 279.306H429.092V283.843H433.703V279.306Z" fill="#263238"/>
<path d="M433.703 297.456H429.092V301.993H433.703V297.456Z" fill="#263238"/>
<path d="M415.252 297.456H410.641V301.993H415.252V297.456Z" fill="#263238"/>
<path d="M410.65 297.456H406.039V301.993H410.65V297.456Z" fill="#263238"/>
<path d="M406.031 297.456H401.42V301.993H406.031V297.456Z" fill="#263238"/>
<path d="M401.426 297.456H396.814V301.993H401.426V297.456Z" fill="#263238"/>
<path d="M406.031 292.917H401.42V297.454H406.031V292.917Z" fill="#263238"/>
<path d="M401.426 292.917H396.814V297.454H401.426V292.917Z" fill="#263238"/>
<path d="M406.031 288.381H401.42V292.918H406.031V288.381Z" fill="#263238"/>
<path d="M406.031 283.844H401.42V288.381H406.031V283.844Z" fill="#263238"/>
<path d="M401.426 279.306H396.814V283.843H401.426V279.306Z" fill="#263238"/>
<path d="M396.816 279.306H392.205V283.843H396.816V279.306Z" fill="#263238"/>
<path d="M392.199 279.306H387.588V283.843H392.199V279.306Z" fill="#263238"/>
<path d="M387.596 279.306H382.984V283.843H387.596V279.306Z" fill="#263238"/>
<path d="M396.816 283.844H392.205V288.381H396.816V283.844Z" fill="#263238"/>
<path d="M381.945 285.861H377.334V290.398H381.945V285.861Z" fill="#263238"/>
<path d="M382.979 292.917H378.367V297.454H382.979V292.917Z" fill="#263238"/>
<path d="M382.979 274.769H378.367V279.306H382.979V274.769Z" fill="#263238"/>
<path d="M387.596 283.844H382.984V288.381H387.596V283.844Z" fill="#263238"/>
<path d="M392.199 288.381H387.588V292.918H392.199V288.381Z" fill="#263238"/>
<path d="M387.596 288.381H382.984V292.918H387.596V288.381Z" fill="#263238"/>
<path d="M392.199 292.917H387.588V297.454H392.199V292.917Z" fill="#263238"/>
<path d="M387.596 297.456H382.984V301.993H387.596V297.456Z" fill="#263238"/>
<path d="M396.816 274.769H392.205V279.306H396.816V274.769Z" fill="#263238"/>
<path d="M392.199 274.769H387.588V279.306H392.199V274.769Z" fill="#263238"/>
<path d="M381.439 270.733H376.828V275.27H381.439V270.733Z" fill="#263238"/>
<path d="M392.199 270.231H387.588V274.768H392.199V270.231Z" fill="#263238"/>
<path d="M392.199 265.694H387.588V270.231H392.199V265.694Z" fill="#263238"/>
<path d="M387.596 270.231H382.984V274.768H387.596V270.231Z" fill="#263238"/>
<path d="M382.979 279.306H378.367V283.843H382.979V279.306Z" fill="#263238"/>
<path d="M401.426 288.381H396.814V292.918H401.426V288.381Z" fill="#263238"/>
<path d="M396.816 297.456H392.205V301.993H396.816V297.456Z" fill="#263238"/>
<path d="M410.65 279.306H406.039V283.843H410.65V279.306Z" fill="#263238"/>
<path d="M415.252 283.844H410.641V288.381H415.252V283.844Z" fill="#263238"/>
<path d="M429.088 283.844H424.477V288.381H429.088V283.844Z" fill="#263238"/>
<path d="M429.088 288.381H424.477V292.918H429.088V288.381Z" fill="#263238"/>
<path d="M424.486 288.381H419.875V292.918H424.486V288.381Z" fill="#263238"/>
<path d="M419.861 288.381H415.25V292.918H419.861V288.381Z" fill="#263238"/>
<path d="M415.252 288.381H410.641V292.918H415.252V288.381Z" fill="#263238"/>
<path d="M429.088 292.917H424.477V297.454H429.088V292.917Z" fill="#263238"/>
<path d="M429.088 297.456H424.477V301.993H429.088V297.456Z" fill="#263238"/>
<path d="M419.861 270.231H415.25V274.768H419.861V270.231Z" fill="#263238"/>
<path d="M415.252 261.157H410.641V265.694H415.252V261.157Z" fill="#263238"/>
<path d="M415.252 265.694H410.641V270.231H415.252V265.694Z" fill="#263238"/>
<path d="M415.252 270.231H410.641V274.768H415.252V270.231Z" fill="#263238"/>
<path d="M410.65 274.769H406.039V279.306H410.65V274.769Z" fill="#263238"/>
<path d="M410.65 265.694H406.039V270.231H410.65V265.694Z" fill="#263238"/>
<path d="M410.65 270.231H406.039V274.768H410.65V270.231Z" fill="#263238"/>
<path d="M419.861 256.619H415.25V261.156H419.861V256.619Z" fill="#263238"/>
<path d="M419.861 274.769H415.25V279.306H419.861V274.769Z" fill="#263238"/>
<path d="M424.486 274.769H419.875V279.306H424.486V274.769Z" fill="#263238"/>
<path d="M429.088 252.082H424.477V256.619H429.088V252.082Z" fill="#263238"/>
<path d="M429.088 256.619H424.477V261.156H429.088V256.619Z" fill="#263238"/>
<path d="M433.703 247.546H429.092V252.083H433.703V247.546Z" fill="#263238"/>
<path d="M433.703 261.157H429.092V265.694H433.703V261.157Z" fill="#263238"/>
<path d="M392.199 243.006H387.588V247.543H392.199V243.006Z" fill="#263238"/>
<path d="M396.816 243.006H392.205V247.543H396.816V243.006Z" fill="#263238"/>
<path d="M338.905 222.337H335.092V206.809H350.874V210.559H338.905V222.337Z" fill="#71CE8F"/>
<path d="M350.874 310.981H335.092V295.453H338.905V307.229H350.874V310.981Z" fill="#71CE8F"/>
<path d="M444.687 310.981H428.904V307.229H440.873V295.453H444.687V310.981Z" fill="#71CE8F"/>
<path d="M444.687 222.337H440.873V210.559H428.904V206.809H444.687V222.337Z" fill="#71CE8F"/>
<path d="M458.683 153.924H451.574V150.126H458.683V153.924ZM451.937 153.623H458.318V150.427H451.937V153.623Z" fill="white"/>
<path d="M453.431 150.832H452.289V153.219H453.431V150.832Z" fill="white"/>
<path d="M454.925 150.832H453.783V153.219H454.925V150.832Z" fill="white"/>
<path d="M456.415 150.832H455.273V153.219H456.415V150.832Z" fill="white"/>
<path d="M459.628 150.832H458.486V153.219H459.628V150.832Z" fill="white"/>
<path d="M442.151 152.023H441.17V153.922H442.151V152.023Z" fill="white"/>
<path d="M443.724 151.443H442.742V153.922H443.724V151.443Z" fill="white"/>
<path d="M445.292 150.754H444.311V153.922H445.292V150.754Z" fill="white"/>
<path d="M446.876 150.123H445.895V153.921H446.876V150.123Z" fill="white"/>
<path d="M322.544 152.821C322.35 152.821 322.185 152.768 322.048 152.663C321.912 152.556 321.807 152.402 321.735 152.2C321.663 151.997 321.627 151.752 321.627 151.465C321.627 151.18 321.663 150.936 321.735 150.734C321.808 150.532 321.913 150.377 322.049 150.27C322.187 150.163 322.352 150.109 322.544 150.109C322.737 150.109 322.901 150.163 323.038 150.27C323.176 150.377 323.28 150.532 323.353 150.734C323.426 150.936 323.462 151.18 323.462 151.465C323.462 151.752 323.426 151.997 323.354 152.2C323.282 152.402 323.177 152.556 323.041 152.663C322.904 152.768 322.739 152.821 322.544 152.821ZM322.544 152.538C322.737 152.538 322.886 152.445 322.993 152.259C323.1 152.074 323.153 151.809 323.153 151.465C323.153 151.237 323.128 151.042 323.079 150.881C323.031 150.721 322.962 150.598 322.871 150.514C322.78 150.43 322.672 150.388 322.544 150.388C322.354 150.388 322.205 150.482 322.097 150.67C321.99 150.857 321.936 151.122 321.936 151.465C321.936 151.694 321.96 151.888 322.008 152.048C322.056 152.208 322.126 152.329 322.216 152.413C322.307 152.496 322.416 152.538 322.544 152.538ZM323.89 152.244V151.981L325.05 150.145H325.241V150.553H325.112L324.235 151.94V151.96H325.798V152.244H323.89ZM325.133 152.785V152.164V152.041V150.145H325.437V152.785H325.133ZM326.383 152.806C326.32 152.806 326.265 152.783 326.22 152.737C326.174 152.692 326.151 152.637 326.151 152.574C326.151 152.51 326.174 152.456 326.22 152.41C326.265 152.365 326.32 152.342 326.383 152.342C326.447 152.342 326.502 152.365 326.547 152.41C326.593 152.456 326.615 152.51 326.615 152.574C326.615 152.616 326.605 152.655 326.583 152.69C326.563 152.725 326.535 152.753 326.499 152.775C326.465 152.795 326.426 152.806 326.383 152.806ZM327.156 152.785V152.553L328.027 151.599C328.13 151.488 328.214 151.391 328.28 151.308C328.346 151.225 328.395 151.147 328.427 151.073C328.46 151 328.476 150.922 328.476 150.841C328.476 150.749 328.454 150.668 328.409 150.6C328.365 150.533 328.305 150.48 328.229 150.443C328.152 150.406 328.066 150.388 327.971 150.388C327.869 150.388 327.781 150.409 327.705 150.451C327.63 150.492 327.572 150.55 327.531 150.625C327.491 150.7 327.471 150.787 327.471 150.888H327.166C327.166 150.733 327.202 150.597 327.273 150.481C327.345 150.364 327.442 150.273 327.565 150.207C327.688 150.142 327.827 150.109 327.981 150.109C328.136 150.109 328.273 150.142 328.392 150.207C328.512 150.273 328.605 150.361 328.673 150.472C328.741 150.582 328.775 150.706 328.775 150.841C328.775 150.939 328.757 151.034 328.722 151.126C328.688 151.218 328.628 151.321 328.542 151.434C328.457 151.547 328.339 151.684 328.187 151.847L327.594 152.481V152.502H328.821V152.785H327.156ZM330.215 152.821C330.021 152.821 329.855 152.768 329.719 152.663C329.582 152.556 329.478 152.402 329.405 152.2C329.333 151.997 329.297 151.752 329.297 151.465C329.297 151.18 329.333 150.936 329.405 150.734C329.478 150.532 329.583 150.377 329.72 150.27C329.857 150.163 330.022 150.109 330.215 150.109C330.407 150.109 330.572 150.163 330.708 150.27C330.846 150.377 330.951 150.532 331.023 150.734C331.096 150.936 331.132 151.18 331.132 151.465C331.132 151.752 331.096 151.997 331.024 152.2C330.952 152.402 330.848 152.556 330.711 152.663C330.574 152.768 330.409 152.821 330.215 152.821ZM330.215 152.538C330.407 152.538 330.557 152.445 330.663 152.259C330.77 152.074 330.823 151.809 330.823 151.465C330.823 151.237 330.799 151.042 330.75 150.881C330.702 150.721 330.632 150.598 330.541 150.514C330.451 150.43 330.342 150.388 330.215 150.388C330.024 150.388 329.875 150.482 329.768 150.67C329.66 150.857 329.606 151.122 329.606 151.465C329.606 151.694 329.63 151.888 329.679 152.048C329.727 152.208 329.796 152.329 329.886 152.413C329.977 152.496 330.087 152.538 330.215 152.538ZM332.689 152.785V150.145H333.581C333.789 150.145 333.958 150.183 334.089 150.258C334.222 150.331 334.32 150.432 334.383 150.558C334.447 150.684 334.479 150.825 334.479 150.981C334.479 151.136 334.447 151.278 334.383 151.405C334.32 151.532 334.223 151.633 334.092 151.709C333.96 151.784 333.792 151.821 333.587 151.821H332.947V151.537H333.576C333.718 151.537 333.832 151.513 333.918 151.464C334.004 151.415 334.066 151.349 334.105 151.266C334.144 151.181 334.164 151.086 334.164 150.981C334.164 150.875 334.144 150.78 334.105 150.697C334.066 150.614 334.003 150.548 333.917 150.501C333.83 150.453 333.715 150.429 333.571 150.429H333.009V152.785H332.689ZM334.993 150.145H335.375L336.272 152.337H336.303L337.2 150.145H337.582V152.785H337.283V150.78H337.257L336.432 152.785H336.143L335.318 150.78H335.292V152.785H334.993V150.145Z" fill="white"/>
<path d="M409.44 153.215H370.325C369.457 153.215 368.754 152.523 368.754 151.67C368.754 150.816 369.458 150.124 370.325 150.124H409.44C410.308 150.124 411.011 150.817 411.011 151.67C411.011 152.523 410.308 153.215 409.44 153.215Z" fill="white"/>
<path d="M420.711 151.667C420.711 152.521 420.008 153.213 419.14 153.213C418.272 153.213 417.568 152.52 417.568 151.667C417.568 150.813 418.272 150.121 419.14 150.121C420.008 150.121 420.711 150.813 420.711 151.667Z" fill="white"/>
<path d="M424.307 153.213C425.175 153.213 425.878 152.52 425.878 151.667C425.878 150.813 425.175 150.121 424.307 150.121C423.44 150.121 422.736 150.813 422.736 151.667C422.736 152.52 423.44 153.213 424.307 153.213Z" fill="white"/>
<path d="M376.715 341.392L380.309 337.706L387.703 343.584L401.331 330.134L404.914 333.587L387.416 350.479L376.715 341.392Z" fill="#36C265"/>
<path d="M463.559 184.697V175.409C462.872 174.916 462.027 174.639 461.179 174.725C459.387 174.906 457.91 176.642 458.044 178.409C457.1 174.381 452.512 171.565 448.42 172.5C444.328 173.435 441.473 177.954 442.431 181.979L428.346 184.697H463.559Z" fill="#E2FBEA"/>
<path d="M564.697 470.006C560.214 480.252 533.135 501.686 507.952 495.499C507.952 495.499 465.586 398.67 462.807 394.949C460.028 391.234 451.242 389.594 446.037 384.192C440.839 378.791 427.837 365.299 425.558 358.35C423.273 351.406 420.453 341.406 418.354 335.483C417.889 334.181 417.249 332.759 416.551 331.286V331.274C414.126 326.062 411.074 320.317 413.068 317.524C413.376 317.094 413.783 316.71 414.283 316.395H414.295C417.894 314.124 425.954 316.085 429.617 320.982C435.176 328.413 436.245 334.52 439.205 339.25C442.165 343.986 451.311 347.662 455.079 344.921C458.847 342.18 457.969 312.989 454.969 301.974C451.968 290.959 448.119 281.137 446.549 278.264C444.979 275.386 438.211 267.112 437.321 262.026C437.019 260.294 437.077 258.505 437.449 256.951C438.182 253.924 440.153 251.774 443.113 252.651C445.055 253.23 447.95 255.805 450.805 258.757C454.568 262.622 458.271 267.14 459.743 268.671C462.342 271.372 466.371 282.209 468.122 286.102C469.866 289.996 474.076 301.848 476.181 307.777C476.181 307.777 483.897 303.316 488.56 305.661C493.223 308.006 495.683 315.97 495.683 315.97C495.683 315.97 501.515 312.88 506.179 315.225C510.842 317.57 512.092 324.692 512.092 324.692C512.092 324.692 517.25 323.809 519.849 326.509C522.448 329.21 523.605 347.874 523.152 357.381C522.698 366.887 516.453 385.769 513.04 390.545L564.697 469.994V470.006Z" fill="#F5AB85"/>
<g filter="url(#filter0_d_1_198030)">
<rect x="106" y="215.459" width="157.913" height="99.8784" rx="3" fill="white"/>
</g>
<path d="M139.086 232.554L138.016 236.406H136.902L135.41 230.769H136.633L137.52 234.851H137.551L138.605 230.769H139.602L140.656 234.851H140.688L141.578 230.769H142.801L141.305 236.406H140.191L139.121 232.554H139.086ZM144.426 235.648C144.922 235.648 145.332 235.324 145.332 234.871V234.566L144.449 234.621C144.023 234.652 143.781 234.843 143.781 235.14C143.781 235.453 144.039 235.648 144.426 235.648ZM144.051 236.472C143.254 236.472 142.648 235.957 142.648 235.203C142.648 234.441 143.234 234 144.277 233.937L145.332 233.875V233.597C145.332 233.207 145.059 232.98 144.629 232.98C144.203 232.98 143.934 233.191 143.879 233.5H142.836C142.879 232.687 143.57 232.128 144.68 232.128C145.754 232.128 146.453 232.683 146.453 233.527V236.406H145.352V235.765H145.328C145.094 236.21 144.574 236.472 144.051 236.472ZM147.191 236.406V232.218H148.293V232.972H148.316C148.465 232.441 148.82 232.152 149.312 232.152C149.445 232.152 149.559 232.171 149.637 232.195V233.199C149.543 233.16 149.387 233.132 149.223 233.132C148.66 233.132 148.332 233.476 148.332 234.066V236.406H147.191ZM150.105 236.406V232.218H151.207V232.972H151.23C151.379 232.441 151.734 232.152 152.227 232.152C152.359 232.152 152.473 232.171 152.551 232.195V233.199C152.457 233.16 152.301 233.132 152.137 233.132C151.574 233.132 151.246 233.476 151.246 234.066V236.406H150.105ZM154.535 235.648C155.031 235.648 155.441 235.324 155.441 234.871V234.566L154.559 234.621C154.133 234.652 153.891 234.843 153.891 235.14C153.891 235.453 154.148 235.648 154.535 235.648ZM154.16 236.472C153.363 236.472 152.758 235.957 152.758 235.203C152.758 234.441 153.344 234 154.387 233.937L155.441 233.875V233.597C155.441 233.207 155.168 232.98 154.738 232.98C154.312 232.98 154.043 233.191 153.988 233.5H152.945C152.988 232.687 153.68 232.128 154.789 232.128C155.863 232.128 156.562 232.683 156.562 233.527V236.406H155.461V235.765H155.438C155.203 236.21 154.684 236.472 154.16 236.472ZM157.301 236.406V232.218H158.402V232.964H158.426C158.648 232.445 159.09 232.14 159.734 232.14C160.664 232.14 161.188 232.726 161.188 233.707V236.406H160.047V233.945C160.047 233.398 159.789 233.085 159.277 233.085C158.766 233.085 158.441 233.46 158.441 234.003V236.406H157.301ZM162.215 231.253H163.355V232.218H164.129V233.078H163.355V235.082C163.355 235.402 163.512 235.554 163.848 235.554C163.949 235.554 164.055 235.546 164.125 235.535V236.375C164.008 236.402 163.812 236.421 163.582 236.421C162.598 236.421 162.215 236.093 162.215 235.277V233.078H161.625V232.218H162.215V231.253ZM165.289 237.957C165.25 237.957 164.895 237.953 164.859 237.945V237.066C164.895 237.074 165.102 237.074 165.145 237.074C165.562 237.074 165.77 236.941 165.848 236.609C165.848 236.593 165.891 236.425 165.883 236.41L164.426 232.218H165.68L166.57 235.492H166.59L167.48 232.218H168.684L167.242 236.5C166.883 237.574 166.359 237.957 165.289 237.957ZM173.273 236.503C171.633 236.503 170.605 235.406 170.605 233.585C170.605 231.769 171.641 230.671 173.273 230.671C174.629 230.671 175.66 231.531 175.75 232.792H174.602C174.492 232.101 173.961 231.648 173.273 231.648C172.383 231.648 171.809 232.394 171.809 233.582C171.809 234.785 172.375 235.527 173.277 235.527C173.977 235.527 174.48 235.117 174.605 234.449H175.754C175.621 235.707 174.656 236.503 173.273 236.503ZM177.98 235.648C178.477 235.648 178.887 235.324 178.887 234.871V234.566L178.004 234.621C177.578 234.652 177.336 234.843 177.336 235.14C177.336 235.453 177.594 235.648 177.98 235.648ZM177.605 236.472C176.809 236.472 176.203 235.957 176.203 235.203C176.203 234.441 176.789 234 177.832 233.937L178.887 233.875V233.597C178.887 233.207 178.613 232.98 178.184 232.98C177.758 232.98 177.488 233.191 177.434 233.5H176.391C176.434 232.687 177.125 232.128 178.234 232.128C179.309 232.128 180.008 232.683 180.008 233.527V236.406H178.906V235.765H178.883C178.648 236.21 178.129 236.472 177.605 236.472ZM180.746 236.406V232.218H181.848V232.972H181.871C182.02 232.441 182.375 232.152 182.867 232.152C183 232.152 183.113 232.171 183.191 232.195V233.199C183.098 233.16 182.941 233.132 182.777 233.132C182.215 233.132 181.887 233.476 181.887 234.066V236.406H180.746ZM185.074 236.472C184.027 236.472 183.367 235.644 183.367 234.304C183.367 232.976 184.031 232.152 185.082 232.152C185.688 232.152 186.156 232.472 186.359 232.937H186.383V230.769H187.523V236.406H186.398V235.687H186.379C186.176 236.148 185.691 236.472 185.074 236.472ZM185.461 233.066C184.887 233.066 184.535 233.546 184.535 234.312C184.535 235.082 184.887 235.554 185.461 235.554C186.027 235.554 186.391 235.078 186.391 234.312C186.391 233.55 186.027 233.066 185.461 233.066Z" fill="#36C265"/>
<rect x="113.521" y="243.202" width="97.7559" height="16.6464" rx="1" fill="#E9F3FF"/>
<rect x="218.797" y="232.104" width="37.5984" height="72.1344" rx="1" fill="#E9F3FF"/>
<rect x="113.521" y="265.398" width="97.7559" height="16.6464" rx="1" fill="#E9F3FF"/>
<rect x="113.521" y="287.594" width="97.7559" height="16.6464" rx="1" fill="#E9F3FF"/>
<path d="M228.195 249.541L230.831 246.86L236.253 251.136L246.247 241.354L248.874 243.865L236.043 256.15L228.195 249.541Z" fill="#36C265"/>
<path d="M233.814 274.168H226.611V267.082H233.814V274.168ZM227.616 273.179H232.809V268.07H227.616V273.179Z" fill="#263238"/>
<path d="M231.635 269.222H228.787V272.024H231.635V269.222Z" fill="#263238"/>
<path d="M233.814 289.001H226.611V281.914H233.814V289.001ZM227.616 288.012H232.809V282.903H227.616V288.012Z" fill="#263238"/>
<path d="M231.635 284.056H228.787V286.858H231.635V284.056Z" fill="#263238"/>
<path d="M248.887 274.168H241.684V267.082H248.887V274.168ZM242.689 273.179H247.881V268.07H242.689V273.179Z" fill="#263238"/>
<path d="M246.751 269.177H243.812V272.069H246.751V269.177Z" fill="#263238"/>
<path d="M236.071 267.576H234.951V268.677H236.071V267.576Z" fill="#263238"/>
<path d="M237.196 268.677H236.076V269.779H237.196V268.677Z" fill="#263238"/>
<path d="M238.307 268.677H237.188V269.779H238.307V268.677Z" fill="#263238"/>
<path d="M237.196 269.777H236.076V270.878H237.196V269.777Z" fill="#263238"/>
<path d="M236.071 271.982H234.951V273.083H236.071V271.982Z" fill="#263238"/>
<path d="M237.196 271.982H236.076V273.083H237.196V271.982Z" fill="#263238"/>
<path d="M238.307 271.982H237.188V273.083H238.307V271.982Z" fill="#263238"/>
<path d="M239.43 271.982H238.311V273.083H239.43V271.982Z" fill="#263238"/>
<path d="M239.43 270.879H238.311V271.981H239.43V270.879Z" fill="#263238"/>
<path d="M240.551 269.777H239.432V270.878H240.551V269.777Z" fill="#263238"/>
<path d="M239.43 267.576H238.311V268.677H239.43V267.576Z" fill="#263238"/>
<path d="M240.551 268.677H239.432V269.779H240.551V268.677Z" fill="#263238"/>
<path d="M240.551 271.982H239.432V273.083H240.551V271.982Z" fill="#263238"/>
<path d="M240.551 273.081H239.432V274.182H240.551V273.081Z" fill="#263238"/>
<path d="M234.951 275.286H233.832V276.387H234.951V275.286Z" fill="#263238"/>
<path d="M233.826 275.286H232.707V276.387H233.826V275.286Z" fill="#263238"/>
<path d="M232.715 275.286H231.596V276.387H232.715V275.286Z" fill="#263238"/>
<path d="M230.475 275.286H229.355V276.387H230.475V275.286Z" fill="#263238"/>
<path d="M228.237 275.286H227.117V276.387H228.237V275.286Z" fill="#263238"/>
<path d="M230.475 278.588H229.355V279.69H230.475V278.588Z" fill="#263238"/>
<path d="M230.475 279.691H229.355V280.792H230.475V279.691Z" fill="#263238"/>
<path d="M231.592 279.691H230.473V280.792H231.592V279.691Z" fill="#263238"/>
<path d="M232.715 279.691H231.596V280.792H232.715V279.691Z" fill="#263238"/>
<path d="M233.826 279.691H232.707V280.792H233.826V279.691Z" fill="#263238"/>
<path d="M233.826 278.588H232.707V279.69H233.826V278.588Z" fill="#263238"/>
<path d="M233.826 277.488H232.707V278.589H233.826V277.488Z" fill="#263238"/>
<path d="M234.951 277.488H233.832V278.589H234.951V277.488Z" fill="#263238"/>
<path d="M236.071 279.691H234.951V280.792H236.071V279.691Z" fill="#263238"/>
<path d="M236.071 278.588H234.951V279.69H236.071V278.588Z" fill="#263238"/>
<path d="M237.196 278.588H236.076V279.69H237.196V278.588Z" fill="#263238"/>
<path d="M238.307 278.588H237.188V279.69H238.307V278.588Z" fill="#263238"/>
<path d="M239.43 278.588H238.311V279.69H239.43V278.588Z" fill="#263238"/>
<path d="M240.551 279.691H239.432V280.792H240.551V279.691Z" fill="#263238"/>
<path d="M240.551 280.792H239.432V281.894H240.551V280.792Z" fill="#263238"/>
<path d="M241.67 281.894H240.551V282.995H241.67V281.894Z" fill="#263238"/>
<path d="M234.951 279.691H233.832V280.792H234.951V279.691Z" fill="#263238"/>
<path d="M229.348 278.588H228.229V279.69H229.348V278.588Z" fill="#263238"/>
<path d="M231.592 276.387H230.473V277.488H231.592V276.387Z" fill="#263238"/>
<path d="M231.592 277.488H230.473V278.589H231.592V277.488Z" fill="#263238"/>
<path d="M230.475 277.488H229.355V278.589H230.475V277.488Z" fill="#263238"/>
<path d="M229.348 277.488H228.229V278.589H229.348V277.488Z" fill="#263238"/>
<path d="M229.348 276.387H228.229V277.488H229.348V276.387Z" fill="#263238"/>
<path d="M228.237 277.488H227.117V278.589H228.237V277.488Z" fill="#263238"/>
<path d="M236.071 270.879H234.951V271.981H236.071V270.879Z" fill="#263238"/>
<path d="M236.071 273.081H234.951V274.182H236.071V273.081Z" fill="#263238"/>
<path d="M236.071 274.183H234.951V275.284H236.071V274.183Z" fill="#263238"/>
<path d="M236.071 275.286H234.951V276.387H236.071V275.286Z" fill="#263238"/>
<path d="M236.071 276.387H234.951V277.488H236.071V276.387Z" fill="#263238"/>
<path d="M237.196 276.387H236.076V277.488H237.196V276.387Z" fill="#263238"/>
<path d="M238.307 276.387H237.188V277.488H238.307V276.387Z" fill="#263238"/>
<path d="M239.43 276.387H238.311V277.488H239.43V276.387Z" fill="#263238"/>
<path d="M238.307 275.286H237.188V276.387H238.307V275.286Z" fill="#263238"/>
<path d="M240.551 275.286H239.432V276.387H240.551V275.286Z" fill="#263238"/>
<path d="M241.67 275.286H240.551V276.387H241.67V275.286Z" fill="#263238"/>
<path d="M242.785 275.286H241.666V276.387H242.785V275.286Z" fill="#263238"/>
<path d="M243.91 275.286H242.791V276.387H243.91V275.286Z" fill="#263238"/>
<path d="M245.022 275.286H243.902V276.387H245.022V275.286Z" fill="#263238"/>
<path d="M246.151 275.286H245.031V276.387H246.151V275.286Z" fill="#263238"/>
<path d="M246.151 276.387H245.031V277.488H246.151V276.387Z" fill="#263238"/>
<path d="M242.785 277.488H241.666V278.589H242.785V277.488Z" fill="#263238"/>
<path d="M241.67 277.488H240.551V278.589H241.67V277.488Z" fill="#263238"/>
<path d="M241.67 276.387H240.551V277.488H241.67V276.387Z" fill="#263238"/>
<path d="M240.551 277.488H239.432V278.589H240.551V277.488Z" fill="#263238"/>
<path d="M245.022 278.588H243.902V279.69H245.022V278.588Z" fill="#263238"/>
<path d="M245.022 279.691H243.902V280.792H245.022V279.691Z" fill="#263238"/>
<path d="M246.151 279.691H245.031V280.792H246.151V279.691Z" fill="#263238"/>
<path d="M247.258 279.691H246.139V280.792H247.258V279.691Z" fill="#263238"/>
<path d="M247.258 280.792H246.139V281.894H247.258V280.792Z" fill="#263238"/>
<path d="M247.258 281.894H246.139V282.995H247.258V281.894Z" fill="#263238"/>
<path d="M245.022 282.995H243.902V284.096H245.022V282.995Z" fill="#263238"/>
<path d="M245.022 286.306H243.902V287.407H245.022V286.306Z" fill="#263238"/>
<path d="M248.389 282.995H247.27V284.096H248.389V282.995Z" fill="#263238"/>
<path d="M248.389 287.399H247.27V288.501H248.389V287.399Z" fill="#263238"/>
<path d="M243.91 287.399H242.791V288.501H243.91V287.399Z" fill="#263238"/>
<path d="M242.785 287.399H241.666V288.501H242.785V287.399Z" fill="#263238"/>
<path d="M241.67 287.399H240.551V288.501H241.67V287.399Z" fill="#263238"/>
<path d="M240.551 287.399H239.432V288.501H240.551V287.399Z" fill="#263238"/>
<path d="M241.67 286.299H240.551V287.401H241.67V286.299Z" fill="#263238"/>
<path d="M240.551 286.299H239.432V287.401H240.551V286.299Z" fill="#263238"/>
<path d="M241.67 285.198H240.551V286.299H241.67V285.198Z" fill="#263238"/>
<path d="M241.67 284.096H240.551V285.197H241.67V284.096Z" fill="#263238"/>
<path d="M240.551 282.995H239.432V284.096H240.551V282.995Z" fill="#263238"/>
<path d="M239.43 282.995H238.311V284.096H239.43V282.995Z" fill="#263238"/>
<path d="M238.307 282.995H237.188V284.096H238.307V282.995Z" fill="#263238"/>
<path d="M237.196 282.995H236.076V284.096H237.196V282.995Z" fill="#263238"/>
<path d="M239.43 284.096H238.311V285.197H239.43V284.096Z" fill="#263238"/>
<path d="M235.822 284.586H234.703V285.687H235.822V284.586Z" fill="#263238"/>
<path d="M236.071 286.299H234.951V287.401H236.071V286.299Z" fill="#263238"/>
<path d="M236.071 281.894H234.951V282.995H236.071V281.894Z" fill="#263238"/>
<path d="M237.196 284.096H236.076V285.197H237.196V284.096Z" fill="#263238"/>
<path d="M238.307 285.198H237.188V286.299H238.307V285.198Z" fill="#263238"/>
<path d="M237.196 285.198H236.076V286.299H237.196V285.198Z" fill="#263238"/>
<path d="M238.307 286.299H237.188V287.401H238.307V286.299Z" fill="#263238"/>
<path d="M237.196 287.399H236.076V288.501H237.196V287.399Z" fill="#263238"/>
<path d="M239.43 281.894H238.311V282.995H239.43V281.894Z" fill="#263238"/>
<path d="M238.307 281.894H237.188V282.995H238.307V281.894Z" fill="#263238"/>
<path d="M235.701 280.914H234.582V282.015H235.701V280.914Z" fill="#263238"/>
<path d="M238.307 280.792H237.188V281.894H238.307V280.792Z" fill="#263238"/>
<path d="M238.307 279.691H237.188V280.792H238.307V279.691Z" fill="#263238"/>
<path d="M237.196 280.792H236.076V281.894H237.196V280.792Z" fill="#263238"/>
<path d="M236.071 282.995H234.951V284.096H236.071V282.995Z" fill="#263238"/>
<path d="M240.551 285.198H239.432V286.299H240.551V285.198Z" fill="#263238"/>
<path d="M239.43 287.399H238.311V288.501H239.43V287.399Z" fill="#263238"/>
<path d="M242.785 282.995H241.666V284.096H242.785V282.995Z" fill="#263238"/>
<path d="M243.91 284.096H242.791V285.197H243.91V284.096Z" fill="#263238"/>
<path d="M247.258 284.096H246.139V285.197H247.258V284.096Z" fill="#263238"/>
<path d="M247.258 285.198H246.139V286.299H247.258V285.198Z" fill="#263238"/>
<path d="M246.151 285.198H245.031V286.299H246.151V285.198Z" fill="#263238"/>
<path d="M245.022 285.198H243.902V286.299H245.022V285.198Z" fill="#263238"/>
<path d="M243.91 285.198H242.791V286.299H243.91V285.198Z" fill="#263238"/>
<path d="M247.258 286.299H246.139V287.401H247.258V286.299Z" fill="#263238"/>
<path d="M247.258 287.399H246.139V288.501H247.258V287.399Z" fill="#263238"/>
<path d="M245.022 280.792H243.902V281.894H245.022V280.792Z" fill="#263238"/>
<path d="M243.91 278.588H242.791V279.69H243.91V278.588Z" fill="#263238"/>
<path d="M243.91 279.691H242.791V280.792H243.91V279.691Z" fill="#263238"/>
<path d="M243.91 280.792H242.791V281.894H243.91V280.792Z" fill="#263238"/>
<path d="M242.785 281.894H241.666V282.995H242.785V281.894Z" fill="#263238"/>
<path d="M242.785 279.691H241.666V280.792H242.785V279.691Z" fill="#263238"/>
<path d="M242.785 280.792H241.666V281.894H242.785V280.792Z" fill="#263238"/>
<path d="M245.022 277.488H243.902V278.589H245.022V277.488Z" fill="#263238"/>
<path d="M245.022 281.894H243.902V282.995H245.022V281.894Z" fill="#263238"/>
<path d="M246.151 281.894H245.031V282.995H246.151V281.894Z" fill="#263238"/>
<path d="M247.258 276.387H246.139V277.488H247.258V276.387Z" fill="#263238"/>
<path d="M247.258 277.488H246.139V278.589H247.258V277.488Z" fill="#263238"/>
<path d="M248.389 275.286H247.27V276.387H248.389V275.286Z" fill="#263238"/>
<path d="M248.389 278.588H247.27V279.69H248.389V278.588Z" fill="#263238"/>
<path d="M238.307 274.183H237.188V275.284H238.307V274.183Z" fill="#263238"/>
<path d="M239.43 274.183H238.311V275.284H239.43V274.183Z" fill="#263238"/>
<path d="M225.379 269.165H224.453V265.396H228.284V266.306H225.379V269.165Z" fill="#71CE8F"/>
<path d="M228.284 290.685H224.453V286.916H225.379V289.775H228.284V290.685Z" fill="#71CE8F"/>
<path d="M251.05 290.685H247.219V289.775H250.124V286.916H251.05V290.685Z" fill="#71CE8F"/>
<path d="M251.05 269.165H250.124V266.306H247.219V265.396H251.05V269.165Z" fill="#71CE8F"/>
</g>
<defs>
<filter id="filter0_d_1_198030" x="91" y="205.459" width="187.914" height="129.878" filterUnits="userSpaceOnUse" color-interpolation-filters="sRGB">
<feFlood flood-opacity="0" result="BackgroundImageFix"/>
<feColorMatrix in="SourceAlpha" type="matrix" values="0 0 0 0 0 0 0 0 0 0 0 0 0 0 0 0 0 0 127 0" result="hardAlpha"/>
<feOffset dy="5"/>
<feGaussianBlur stdDeviation="7.5"/>
<feComposite in2="hardAlpha" operator="out"/>
<feColorMatrix type="matrix" values="0 0 0 0 0 0 0 0 0 0 0 0 0 0 0 0 0 0 0.08 0"/>
<feBlend mode="normal" in2="BackgroundImageFix" result="effect1_dropShadow_1_198030"/>
<feBlend mode="normal" in="SourceGraphic" in2="effect1_dropShadow_1_198030" result="shape"/>
</filter>
<clipPath id="clip0_1_198030">
<rect y="0.5" width="647" height="466" rx="8" fill="white"/>
</clipPath>
</defs>
</svg>
